<svg width="20" height="20" viewBox="0 0 20 20" fill="none" xmlns="http://www.w3.org/2000/svg">
<g clip-path="url(#clip0_3_45)">
<path d="M12.8436 12.2848C13.0379 11.99 13.4305 11.9113 13.7202 12.109C14.0098 12.3068 14.0872 12.7064 13.8929 13.0012C13.4877 13.616 12.9141 14.117 12.2375 14.4633C11.5609 14.8096 10.7985 14.9928 10.0253 14.9998C9.25214 15.0068 8.48641 14.8371 7.80251 14.5035C7.1186 14.1699 6.53408 13.6804 6.11503 13.074C5.91446 12.7837 5.98289 12.3827 6.26799 12.1785C6.55326 11.9743 6.94724 12.0439 7.14791 12.3342C7.43312 12.7469 7.84428 13.0983 8.34855 13.3443C8.85284 13.5903 9.42713 13.7195 10.0138 13.7143C10.6006 13.7089 11.1715 13.5689 11.6692 13.3142C12.1669 13.0595 12.5688 12.7017 12.8436 12.2848Z" fill="black"/>
<path d="M8.03136 7.52941C8.03136 8.36108 7.35716 9.03529 6.52548 9.03529C5.69381 9.03529 5.0196 8.36108 5.0196 7.52941C5.0196 6.69773 5.69381 6.02353 6.52548 6.02353C7.35716 6.02353 8.03136 6.69773 8.03136 7.52941Z" fill="black"/>
<path d="M15.0588 7.52941C15.0588 8.36108 14.3846 9.03529 13.5529 9.03529C12.7212 9.03529 12.047 8.36108 12.047 7.52941C12.047 6.69773 12.7212 6.02353 13.5529 6.02353C14.3846 6.02353 15.0588 6.69773 15.0588 7.52941Z" fill="black"/>
<path d="M9.99999 20C15.5196 20 20 15.5196 20 9.99999C20 4.48039 15.5196 0 9.99999 0C4.48039 0 0 4.48039 0 9.99999C0 15.5196 4.48039 20 9.99999 20ZM9.99999 18.3333C5.39215 18.3333 1.66667 14.6078 1.66667 9.99999C1.66667 5.39215 5.39215 1.66667 9.99999 1.66667C14.6078 1.66667 18.3333 5.39215 18.3333 9.99999C18.3333 14.6078 14.6078 18.3333 9.99999 18.3333Z" fill="black"/>
</g>
<defs>
<clipPath id="clip0_3_45">
<rect width="20" height="20" fill="white"/>
</clipPath>
</defs>
</svg>
