<svg width="24" height="16" viewBox="0 0 24 16" fill="none" xmlns="http://www.w3.org/2000/svg">
<g clip-path="url(#clip0_3_46)">
<path d="M17.3733 11.6809C17.529 11.9644 17.8144 12.1191 18.1258 12.1191C18.4371 12.1191 18.7224 11.9644 18.9041 11.6809L19.7084 10.2884C19.8641 10.0306 19.8641 9.72121 19.7084 9.43746C19.5527 9.15399 19.2672 8.9993 18.9559 8.9993H17.3214C17.0101 8.9993 16.7246 9.17964 16.5689 9.43746C16.4132 9.69529 16.4132 10.0306 16.5689 10.2884L17.3733 11.6809Z" fill="black"/>
<path d="M4.17427 9.20897C4.17427 10.2403 4.92675 11.0912 5.8607 11.0912C6.79464 11.0912 7.57293 10.2403 7.54713 9.20897V6.682C7.54713 5.6507 6.79464 4.79974 5.8607 4.79974C4.92675 4.79974 4.17427 5.6507 4.17427 6.682V9.20897Z" fill="black"/>
<path d="M16.5689 6.42759C16.7246 6.71134 17.0101 6.86603 17.3214 6.86603H18.9299C19.2412 6.86603 19.5267 6.68542 19.6823 6.42759C19.838 6.16977 19.838 5.83446 19.6823 5.57663L18.878 4.18438C18.7224 3.90063 18.4371 3.74594 18.1258 3.74594C17.8142 3.74594 17.529 3.92655 17.3733 4.18438L16.5689 5.57663C16.4132 5.83446 16.4132 6.16977 16.5689 6.42759Z" fill="black"/>
<path d="M3.19423 15.7346L3.24606 15.7377C9.07653 16.0878 14.923 16.0878 20.7534 15.7377L20.8052 15.7346C22.9389 15.7346 23.9995 14.6762 23.9995 12.5922V3.41682C23.9995 1.3329 22.9389 0.274521 20.8052 0.274521L20.7534 0.271399C14.923 -0.0787883 9.07653 -0.0787883 3.24606 0.271399L3.19423 0.274521C1.07134 0.274521 0 1.32852 0 3.41682V12.5922C0 14.6805 1.07134 15.7346 3.19423 15.7346ZM3.22022 14.0962C2.20336 14.0962 1.63768 13.5555 1.63768 12.5127V3.49628C1.63768 2.44282 2.20336 1.9128 3.22022 1.9128C9.06786 1.56054 14.9316 1.56054 20.7792 1.9128C21.7872 1.9128 22.3618 2.44282 22.3618 3.49628V12.5127C22.3618 13.5555 21.7873 14.0962 20.7793 14.0962C14.9316 14.4485 9.06786 14.4485 3.22022 14.0962Z" fill="black"/>
</g>
<defs>
<clipPath id="clip0_3_46">
<rect width="24" height="16" fill="white"/>
</clipPath>
</defs>
</svg>
