<?xml version="1.0" encoding="utf-8"?>
<!-- Generator: Adobe Illustrator 30.6.0, SVG Export Plug-In . SVG Version: 9.03 Build 0)  -->
<svg version="1.1" id="Layer_1" xmlns="http://www.w3.org/2000/svg" xmlns:xlink="http://www.w3.org/1999/xlink" x="0px" y="0px"
	 viewBox="0 0 92 60" style="enable-background:new 0 0 92 60;" xml:space="preserve">
<path style="fill:#F5431B;" d="M91.4038696,16.3230591C90.7415161,8.9713135,86.5696411,3.9559326,78.9445801,1.9846191
	c-5.5057983-1.5197754-11.4838867-1.560791-17.4055786-1.7714844c-5.171936-0.1408081-25.9060669-0.1408081-31.0780029,0
	c-5.9216919,0.2106934-11.8997803,0.251709-17.4055786,1.7714844C5.4303589,3.9559326,1.2584839,8.9713135,0.5961304,16.3230591
	c-0.8233032,8.3502808-0.7196655,17.9024048-0.1393433,26.1419678
	c0.7699585,15.4086304,14.6271362,16.8927612,27.1952515,17.2043457c6.1149902,0.2005005,30.5809326,0.2005005,36.6959229,0
	c12.5681152-0.3115845,26.425293-1.7957153,27.1952515-17.2043457
	C92.1235352,34.2254639,92.2271729,24.6733398,91.4038696,16.3230591z M28,35.9998779c0,3.3137207-2.6862793,6-6,6s-6-2.6862793-6-6
	v-12c0-3.3135986,2.6862793-6,6-6s6,2.6864014,6,6V35.9998779z M64.4188843,21.0410156l2.8837891-5.3544922
	c0.5582275-0.9916382,1.5813599-1.6866455,2.6983032-1.6866455c1.1160278,0.0002441,2.1382446,0.59552,2.6963501,1.6866455
	l2.8837891,5.3544922c0.5579834,0.9914551,0.5579834,2.2807617,0,3.2723999
	c-0.5581055,0.9914551-1.5812378,1.6864014-2.6973267,1.6864624h-5.7675781
	c-1.1157227-0.000061-2.1392212-0.5952759-2.6973267-1.6864624C63.8609009,23.3217773,63.8607788,22.0324707,64.4188843,21.0410156z
	 M75.585022,38.9578857l-2.8613892,5.3565063c-0.6465454,1.0903931-1.6619263,1.6854858-2.7695312,1.6854858
	c-1.1074829,0-2.1229858-0.5951538-2.6768188-1.6854858l-2.8623047-5.3565063c-0.5534058-0.9915161-0.5534668-2.2808838,0-3.2723999
	c0.5539551-0.9915771,1.5706177-1.6856079,2.6777954-1.6856079h5.8144531C74.0148315,34,75.031189,34.5952148,75.585022,35.6854858
	C76.1384888,36.7766113,76.1384277,37.9664917,75.585022,38.9578857z"/>
</svg>
