<svg width="12" height="22" viewBox="0 0 12 22" fill="none" xmlns="http://www.w3.org/2000/svg">
<g clip-path="url(#clip0_3_43)">
<path d="M7.9938 19.5683H4.02491C3.77277 19.5683 3.586 19.3708 3.586 19.0799C3.586 18.7888 3.77277 18.6019 4.02491 18.6019H7.9938C8.24594 18.6019 8.42336 18.7888 8.42336 19.0799C8.42336 19.3708 8.24594 19.5683 7.9938 19.5683Z" fill="black"/>
<path d="M7.13465 3.87624H4.87472C4.50118 3.87624 4.21169 3.55408 4.21169 3.1384C4.21169 2.73311 4.50118 2.41095 4.87472 2.41095H7.13465C7.49885 2.41095 7.78834 2.73311 7.78834 3.1384C7.78834 3.55408 7.49885 3.87624 7.13465 3.87624Z" fill="black"/>
<path d="M2.54008 22H9.45994C10.9821 22 12 20.9193 12 19.2981V2.70194C12 1.08077 10.9821 0 9.45994 0H2.54008C1.0179 0 0 1.08077 0 2.70194V19.2981C0 20.9193 1.0179 22 2.54008 22ZM2.73619 20.3269C1.94242 20.3269 1.50351 19.8593 1.50351 19.0279V2.97214C1.50351 2.14077 1.94242 1.67313 2.73619 1.67313H9.27318C10.0576 1.67313 10.4966 2.14077 10.4966 2.97214V19.0279C10.4966 19.8593 10.0576 20.3269 9.27318 20.3269H2.73619Z" fill="black"/>
</g>
<defs>
<clipPath id="clip0_3_43">
<rect width="12" height="22" fill="white"/>
</clipPath>
</defs>
</svg>
