<svg width="52" height="96" viewBox="0 0 52 96" fill="none" xmlns="http://www.w3.org/2000/svg">
<path d="M40.9932 0C47.5893 3.27301e-05 51.9999 4.71601 52 11.79V84.21C52 91.2839 47.5893 96 40.9932 96H11.0068C4.41081 95.9999 0 91.2839 0 84.21V11.79C9.79195e-05 4.71606 4.41088 9.18215e-05 11.0068 0H40.9932ZM17 84C15.8954 84 15 84.8954 15 86C15 87.1046 15.8954 88 17 88H35C36.1046 88 37 87.1046 37 86C37 84.8954 36.1046 84 35 84H17ZM21 7C19.3431 7 18 8.34315 18 10C18 11.6569 19.3431 13 21 13H31C32.6569 13 34 11.6569 34 10C34 8.34315 32.6569 7 31 7H21Z" fill="#F5431B"/>
</svg>
