<svg width="82" height="82" viewBox="0 0 82 82" fill="none" xmlns="http://www.w3.org/2000/svg">
<path d="M41 0C63.6304 2.0646e-05 82 18.3696 82 41C82 63.6304 63.6304 82 41 82C18.3696 82 2.06433e-05 63.6304 0 41C0 18.3696 18.3696 0 41 0ZM56.2529 49.6475C55.0653 48.8368 53.4548 49.1595 52.6582 50.3682C51.5316 52.0775 49.884 53.5446 47.8438 54.5889C45.803 55.6333 43.4057 56.4186 41 56.4404C38.5943 56.4186 36.197 55.6333 34.1562 54.5889C32.1159 53.5445 30.4675 52.0777 29.3408 50.3682C28.5441 49.1595 26.9347 48.8367 25.7471 49.6475C24.5598 50.4584 24.2426 52.097 25.0391 53.3057C26.7005 55.8265 29.0523 57.8807 31.8262 59.3008C34.6 60.7206 37.8299 61.4713 41 61.5C44.17 61.4713 47.4 60.7205 50.1738 59.3008C52.9477 57.8807 55.2995 55.8265 56.9609 53.3057C57.7574 52.097 57.4401 50.4584 56.2529 49.6475ZM27 25C23.6863 25 21 27.6863 21 31C21 34.3137 23.6863 37 27 37C30.3137 37 33 34.3137 33 31C33 27.6863 30.3137 25 27 25ZM55 25C51.6863 25 49 27.6863 49 31C49 34.3137 51.6863 37 55 37C58.3137 37 61 34.3137 61 31C61 27.6863 58.3137 25 55 25Z" fill="#F5431B"/>
</svg>
