<svg width="96" height="72" viewBox="0 0 96 72" fill="none" xmlns="http://www.w3.org/2000/svg">
<path d="M79.8369 0C90.0962 0 95.9999 5.98362 96 16.543V55.4961C95.9999 66.0554 90.0962 72 79.8369 72H17.1807C6.22908 72 8.10104e-05 66.0554 0 55.4961V16.543C9.07671e-05 5.98363 6.22909 5.55799e-06 17.1807 0H79.8369ZM10 18C8.89543 18 8 18.8954 8 20C8 21.1046 8.89543 22 10 22H86C87.1046 22 88 21.1046 88 20C88 18.8954 87.1046 18 86 18H10ZM13 7C11.3431 7 10 8.34315 10 10C10 11.6569 11.3431 13 13 13C14.6569 13 16 11.6569 16 10C16 8.34315 14.6569 7 13 7ZM23 7C21.3431 7 20 8.34315 20 10C20 11.6569 21.3431 13 23 13C24.6569 13 26 11.6569 26 10C26 8.34315 24.6569 7 23 7ZM33 7C31.3431 7 30 8.34315 30 10C30 11.6569 31.3431 13 33 13C34.6569 13 36 11.6569 36 10C36 8.34315 34.6569 7 33 7Z" fill="#F5431B"/>
</svg>
