<svg width="24" height="18" viewBox="0 0 24 18" fill="none" xmlns="http://www.w3.org/2000/svg">
<g clip-path="url(#clip0_3_44)">
<path d="M20.8115 5.66797H3.18847C2.80824 5.66797 2.5 5.35972 2.5 4.97949C2.5 4.59926 2.80824 4.29102 3.18847 4.29102H20.8115C21.1918 4.29102 21.5 4.59926 21.5 4.97949C21.5 5.35972 21.1918 5.66797 20.8115 5.66797Z" fill="black"/>
<circle cx="4.25" cy="3" r="0.75" fill="black"/>
<circle cx="8.25" cy="3" r="0.75" fill="black"/>
<circle cx="6.25" cy="3" r="0.75" fill="black"/>
<path d="M4.29517 18H19.9593C22.5242 18 24 16.5138 24 13.874V4.1358C24 1.49593 22.5242 0 19.9593 0H4.29517C1.55725 0 0 1.49593 0 4.1358V13.874C0 16.5138 1.55725 18 4.29517 18ZM4.30535 16.4258C2.61579 16.4258 1.63868 15.497 1.63868 13.874V4.1358C1.63868 2.51277 2.61579 1.57415 4.30535 1.57415H19.6947C21.3843 1.57415 22.3614 2.51277 22.3614 4.1358V13.874C22.3614 15.497 21.3843 16.4258 19.6947 16.4258H4.30535Z" fill="black"/>
</g>
<defs>
<clipPath id="clip0_3_44">
<rect width="24" height="18" fill="white"/>
</clipPath>
</defs>
</svg>
