<svg width="25" height="47" viewBox="0 0 25 47" fill="none" xmlns="http://www.w3.org/2000/svg">
<g clip-path="url(#clip0_1120_2101)">
<path d="M18.8623 19.725L18.9368 6.62044C18.938 6.36514 19.0401 6.12063 19.2209 5.94003L23.0858 2.08425C23.111 2.05934 23.1411 2.03985 23.1742 2.02699C23.2073 2.01412 23.2427 2.00815 23.2782 2.00945C23.3137 2.01075 23.3485 2.01929 23.3806 2.03454C23.4126 2.04979 23.4412 2.07143 23.4646 2.09813C24.4583 3.22202 25.0045 4.67051 24.9999 6.16935V22.2199C24.9998 22.3877 24.9561 22.5527 24.8732 22.6986C24.7902 22.8446 24.6707 22.9666 24.5264 23.0528V23.0528C24.3761 23.1425 24.2042 23.1899 24.029 23.1899C23.8538 23.1899 23.6819 23.1425 23.5315 23.0528L19.337 20.5579C19.1926 20.4718 19.073 20.3498 18.9898 20.2038C18.9066 20.0579 18.8627 19.8929 18.8623 19.725V19.725Z" fill="white"/>
<path d="M6.0718 26.3882L1.81801 23.8581C1.75602 23.821 1.70472 23.7686 1.6691 23.7059C1.63347 23.6432 1.61475 23.5723 1.61475 23.5002C1.61475 23.4281 1.63347 23.3572 1.6691 23.2945C1.70472 23.2318 1.75602 23.1794 1.81801 23.1423L6.0718 20.6122C6.22251 20.5234 6.39426 20.4764 6.56927 20.4761H18.4304C18.6054 20.4764 18.7771 20.5234 18.9279 20.6122L23.1779 23.1423C23.2398 23.1794 23.2912 23.2318 23.3268 23.2945C23.3624 23.3572 23.3811 23.4281 23.3811 23.5002C23.3811 23.5723 23.3624 23.6432 23.3268 23.7059C23.2912 23.7686 23.2398 23.821 23.1779 23.8581L18.9241 26.3882C18.7736 26.4776 18.6017 26.5246 18.4266 26.5243H6.56927C6.39418 26.5246 6.22227 26.4776 6.0718 26.3882V26.3882Z" fill="white"/>
<path d="M5.95436 5.76477L2.09199 1.91025C2.06596 1.88563 2.04549 1.85577 2.03193 1.82264C2.01837 1.78951 2.01204 1.75389 2.01335 1.71812C2.01467 1.68236 2.0236 1.64729 2.03955 1.61524C2.05551 1.58319 2.07811 1.55489 2.10588 1.53224C3.23237 0.541083 4.68363 -0.00397806 6.18543 2.31657e-05H18.8117C20.3135 -0.004095 21.7648 0.540981 22.8912 1.53224C22.919 1.55489 22.9416 1.58319 22.9576 1.61524C22.9735 1.64729 22.9824 1.68236 22.9838 1.71812C22.9851 1.75389 22.9787 1.78951 22.9652 1.82264C22.9516 1.85577 22.9311 1.88563 22.9051 1.91025L19.044 5.76477C18.8617 5.94633 18.6147 6.0483 18.3571 6.04828H6.63744C6.38121 6.0473 6.13572 5.94541 5.95436 5.76477V5.76477Z" fill="white"/>
<path d="M0.473507 23.0499C0.329052 22.9639 0.209464 22.8419 0.126462 22.6959C0.0434594 22.5499 -0.000109818 22.3849 2.1918e-05 22.217V6.16642C-0.00398748 4.66769 0.542198 3.21938 1.53538 2.09518C1.55873 2.06849 1.58732 2.04684 1.61938 2.03159C1.65143 2.01634 1.68628 2.00782 1.72177 2.00652C1.75726 2.00522 1.79264 2.01119 1.82572 2.02406C1.85881 2.03692 1.88891 2.05641 1.91416 2.08132L5.77906 5.93708C5.95989 6.11769 6.06198 6.36221 6.06316 6.61752L6.13765 19.7221C6.13841 19.8907 6.09515 20.0567 6.01213 20.2036C5.92911 20.3506 5.80919 20.4734 5.66417 20.56L1.46846 23.0549C1.31799 23.1443 1.14611 23.1916 0.970982 23.1916C0.795852 23.1916 0.623973 23.1443 0.473507 23.0549V23.0499Z" fill="white"/>
<path d="M18.9368 40.3747L18.8623 27.2701C18.8617 27.1015 18.9051 26.9356 18.9884 26.7889C19.0716 26.6421 19.1918 26.5196 19.3371 26.4334L23.5315 23.9373C23.6821 23.8482 23.8539 23.8013 24.029 23.8013C24.204 23.8013 24.3758 23.8482 24.5265 23.9373V23.9373C24.6709 24.0233 24.7905 24.1453 24.8735 24.2913C24.9565 24.4373 25.0001 24.6023 24.9999 24.7702V40.8207C25.0046 42.3196 24.4584 43.7681 23.4646 44.892C23.4419 44.9197 23.4135 44.9422 23.3814 44.9582C23.3493 44.9741 23.3142 44.983 23.2783 44.9843C23.2425 44.9856 23.2068 44.9793 23.1736 44.9658C23.1404 44.9522 23.1105 44.9318 23.0858 44.9058L19.2209 41.0501C19.0413 40.8707 18.9393 40.6282 18.9368 40.3747V40.3747Z" fill="white"/>
<path d="M6.18689 46.9999C4.68497 47.0046 3.23348 46.4595 2.10735 45.4677C2.07958 45.445 2.05697 45.4167 2.04102 45.3847C2.02507 45.3526 2.01613 45.3176 2.01482 45.2818C2.0135 45.2461 2.01984 45.2104 2.0334 45.1773C2.04696 45.1442 2.06743 45.1143 2.09346 45.0897L5.95457 41.2352C6.13686 41.0536 6.38389 40.9516 6.64144 40.9517H18.3586C18.6162 40.9516 18.8632 41.0536 19.0455 41.2352L22.9066 45.0897C22.9326 45.1143 22.9531 45.1442 22.9667 45.1773C22.9802 45.2104 22.9865 45.2461 22.9852 45.2818C22.9839 45.3176 22.975 45.3526 22.959 45.3847C22.9431 45.4167 22.9205 45.445 22.8927 45.4677C21.7666 46.4595 20.3151 47.0046 18.8132 46.9999H6.18689Z" fill="white"/>
</g>
<defs>
<clipPath id="clip0_1120_2101">
<rect width="25" height="47" fill="white"/>
</clipPath>
</defs>
</svg>
