<svg width="7" height="7" viewBox="0 0 7 7" fill="none" xmlns="http://www.w3.org/2000/svg">
<g opacity="0.95">
<path fill-rule="evenodd" clip-rule="evenodd" d="M1.01716 2.03917C1.2185 2.03931 1.41536 1.97962 1.58283 1.86767C1.75031 1.75572 1.88088 1.59654 1.95802 1.41024C2.03517 1.22395 2.05543 1.01892 2.01623 0.821099C1.97703 0.623274 1.88015 0.441535 1.73783 0.298875C1.5955 0.156214 1.41414 0.0590395 1.21668 0.0196423C1.01921 -0.0197548 0.814523 0.000395739 0.628494 0.0775452C0.442466 0.154695 0.283462 0.285377 0.171588 0.453062C0.0597147 0.620747 4.66509e-08 0.8179 0 1.01958C-6.25198e-08 1.28988 0.107144 1.5491 0.297878 1.74029C0.488612 1.93148 0.747329 2.03898 1.01716 2.03917Z" fill="white"/>
<path fill-rule="evenodd" clip-rule="evenodd" d="M5.55072 4.5385C5.34941 4.5385 5.15261 4.5983 4.98523 4.71033C4.81784 4.82237 4.68738 4.98161 4.61034 5.16791C4.5333 5.35421 4.51315 5.55922 4.55242 5.757C4.5917 5.95478 4.68864 6.13645 4.83099 6.27904C4.97334 6.42163 5.1547 6.51874 5.35214 6.55808C5.54959 6.59742 5.75424 6.57723 5.94023 6.50006C6.12622 6.42289 6.28519 6.29221 6.39703 6.12454C6.50887 5.95687 6.56856 5.75974 6.56856 5.55809C6.56856 5.28768 6.46133 5.02834 6.27044 4.83713C6.07956 4.64592 5.82067 4.5385 5.55072 4.5385Z" fill="white"/>
<path fill-rule="evenodd" clip-rule="evenodd" d="M5.57913 0L0 5.58863V6.57698H0.963112L6.56579 0.965447V0H5.57913Z" fill="white"/>
</g>
</svg>
