<svg width="8" height="8" viewBox="0 0 8 8" fill="none" xmlns="http://www.w3.org/2000/svg">
<g opacity="0.95">
<path fill-rule="evenodd" clip-rule="evenodd" d="M3.72011 3.14412C3.83542 3.14398 3.94818 3.17812 4.04411 3.24221C4.14005 3.30629 4.21484 3.39745 4.25903 3.50414C4.30322 3.61082 4.31482 3.72824 4.29236 3.84154C4.2699 3.95483 4.21438 4.0589 4.13285 4.14058C4.05131 4.22225 3.94742 4.27786 3.83432 4.30036C3.72121 4.32286 3.60399 4.31124 3.49749 4.26698C3.39098 4.22271 3.29998 4.14779 3.236 4.05169C3.17203 3.95559 3.13795 3.84264 3.13809 3.72714C3.13809 3.57251 3.19941 3.42422 3.30856 3.31488C3.41771 3.20555 3.56575 3.14412 3.72011 3.14412ZM2.84984 3.72714C2.84984 3.89955 2.90088 4.0681 2.99651 4.21146C3.09214 4.35481 3.22805 4.46655 3.38707 4.53253C3.54609 4.59851 3.72108 4.61577 3.88989 4.58214C4.05871 4.5485 4.21377 4.46547 4.33548 4.34356C4.45719 4.22164 4.54007 4.06631 4.57365 3.89721C4.60723 3.7281 4.59 3.55283 4.52413 3.39353C4.45826 3.23424 4.34672 3.0981 4.2036 3.00231C4.06049 2.90652 3.89223 2.85539 3.72011 2.85539C3.48941 2.85576 3.26827 2.94772 3.10514 3.11113C2.94202 3.27453 2.85021 3.49605 2.84984 3.72714ZM7.43676 3.70285C7.43676 3.71187 7.43676 3.72089 7.43676 3.73061C7.43676 3.74033 7.43676 3.74935 7.43676 3.76184C7.42735 3.94995 7.38781 4.13531 7.31966 4.31085C7.05636 5.04934 6.48334 5.77533 5.80778 5.58863C5.48559 5.50187 4.89733 4.43786 4.6957 4.37609C4.64557 4.44856 4.58747 4.51514 4.52247 4.57459C4.50723 4.58709 4.49476 4.59889 4.47882 4.61138C4.4421 4.64261 4.40468 4.67038 4.36796 4.69883C4.36796 4.69883 4.36796 4.70438 4.36796 4.70785C4.48229 5.09861 4.59731 5.49284 4.69916 5.88777C4.77762 6.13414 4.80127 6.39474 4.76845 6.65124C4.73899 6.78256 4.68207 6.90613 4.60145 7.0138C4.52084 7.12147 4.41835 7.2108 4.30075 7.2759C4.13008 7.37802 3.93615 7.43465 3.73743 7.44039C3.72773 7.44039 3.71872 7.44039 3.70902 7.44039C3.69932 7.44039 3.69378 7.44664 3.68131 7.44664C3.49352 7.43722 3.30847 7.39761 3.13324 7.32934C2.396 7.0656 1.67124 6.49646 1.85694 5.81836C1.94424 5.49562 3.00644 4.90566 3.0681 4.70438C2.99506 4.65399 2.92769 4.59581 2.86717 4.53087C2.85469 4.5149 2.84222 4.50241 2.82975 4.48714C2.79857 4.44966 2.77085 4.41288 2.74314 4.3754H2.73344C2.34334 4.48992 1.94978 4.60444 1.55553 4.70716C1.30978 4.78677 1.04941 4.81048 0.793356 4.77657C0.661427 4.74736 0.537163 4.69051 0.42873 4.60977C0.320297 4.52902 0.230151 4.4262 0.164214 4.30807C0.0625553 4.13673 0.00604754 3.94232 0 3.7431C0 3.73408 0.00346443 3.72436 0.00346443 3.71534C0.00346443 3.70632 0 3.6966 0 3.68758C0.00984668 3.49946 0.0496107 3.31413 0.117791 3.13857C0.381088 2.39661 0.949255 1.67409 1.62621 1.85663C1.9484 1.94408 2.53666 3.00809 2.73483 3.06986C2.78477 2.99725 2.84289 2.93064 2.90805 2.87135C2.92398 2.85886 2.93576 2.84637 2.9517 2.83387C2.98842 2.80334 3.02584 2.77557 3.06325 2.74712C3.06325 2.74712 3.06325 2.74087 3.06325 2.73809C2.94893 2.34109 2.83391 1.95033 2.73205 1.55263C2.6539 1.30619 2.63026 1.04567 2.66276 0.789153C2.69243 0.65792 2.74943 0.534441 2.83003 0.426797C2.91062 0.319152 3.013 0.229768 3.13046 0.164493C3.30151 0.0626614 3.49559 0.00605784 3.69447 0C3.70348 0 3.71249 0.00346975 3.72219 0.00346975C3.73189 0.00346975 3.7409 0 3.75337 0C3.94115 0.0100044 4.12614 0.0498314 4.30144 0.117991C5.04145 0.381737 5.76343 0.955729 5.57705 1.63244C5.49044 1.95519 4.42824 2.54445 4.36657 2.74295C4.44104 2.79038 4.50865 2.84783 4.56751 2.91369C4.57998 2.92966 4.59245 2.94145 4.60493 2.95742C4.63541 2.9942 4.66382 3.03168 4.69154 3.06916H4.70055C5.20757 2.89292 5.72739 2.75601 6.25538 2.65966C6.4525 2.62439 6.65569 2.65108 6.83706 2.73608C7.01843 2.82108 7.1691 2.96022 7.26839 3.1344C7.37347 3.30574 7.43155 3.50182 7.43676 3.70285Z" fill="white"/>
</g>
</svg>
