<svg width="13" height="5" viewBox="0 0 13 5" fill="none" xmlns="http://www.w3.org/2000/svg">
<path d="M10.8285 1.73317C10.878 1.7481 10.9235 1.77413 10.9618 1.80932C10.9968 1.84333 11.0237 1.885 11.0405 1.93116C11.0584 1.98169 11.0673 2.03508 11.0667 2.08879C11.0698 2.14279 11.0622 2.19686 11.0444 2.24785C11.0267 2.29884 10.9991 2.34573 10.9633 2.38577C10.9193 2.4253 10.8679 2.45533 10.8121 2.47405C10.7563 2.49277 10.6974 2.49978 10.6389 2.49467H10.3392V1.70576H10.6389C10.7031 1.70407 10.7672 1.71334 10.8285 1.73317Z" fill="white"/>
<path fill-rule="evenodd" clip-rule="evenodd" d="M1.28209 0H11.7179C12.0579 0 12.384 0.137272 12.6245 0.381618C12.8649 0.625963 13 0.957367 13 1.30292V3.69708C13 4.04263 12.8649 4.37404 12.6245 4.61838C12.384 4.86273 12.0579 5 11.7179 5H1.28209C1.11372 5 0.947007 4.9663 0.791456 4.90082C0.635906 4.83534 0.494569 4.73937 0.375516 4.61838C0.135077 4.37404 0 4.04263 0 3.69708V1.30292C0 0.957367 0.135077 0.625963 0.375516 0.381618C0.494569 0.26063 0.635906 0.164657 0.791456 0.0991792C0.947007 0.0337011 1.11372 0 1.28209 0ZM2.81895 3.46406C2.8865 3.39503 2.93975 3.31295 2.97556 3.22266C3.01172 3.12772 3.03003 3.02672 3.02951 2.92492C3.03153 2.8404 3.01622 2.75637 2.98455 2.67819C2.95652 2.61352 2.9163 2.55506 2.86616 2.50609C2.81696 2.45911 2.76115 2.41985 2.70056 2.38958C2.63837 2.36046 2.57457 2.33503 2.50948 2.31343C2.44579 2.28983 2.3821 2.26927 2.3199 2.25023C2.26313 2.23274 2.20777 2.21085 2.1543 2.18474C2.10983 2.16327 2.06968 2.13358 2.03591 2.09717C2.00562 2.06209 1.98955 2.01664 1.99095 1.97C1.98953 1.93361 1.99612 1.89736 2.01025 1.8639C2.02439 1.83043 2.0457 1.8006 2.07263 1.77658C2.14236 1.72098 2.23001 1.69382 2.3184 1.70043C2.37331 1.69942 2.428 1.70765 2.48026 1.72479C2.52226 1.73935 2.56309 1.75717 2.6024 1.7781C2.63837 1.7979 2.66984 1.81541 2.69606 1.83217C2.71856 1.8467 2.74437 1.85509 2.771 1.85653C2.79199 1.85759 2.81276 1.85171 2.83019 1.83978C2.84861 1.82532 2.86391 1.80718 2.87515 1.78648L2.9913 1.55803C2.90558 1.47844 2.8049 1.4173 2.69531 1.37831C2.57288 1.33424 2.44379 1.31233 2.31391 1.31359C2.20244 1.3115 2.09158 1.33088 1.9872 1.3707C1.89849 1.40554 1.81711 1.45723 1.74742 1.523C1.68462 1.58456 1.63511 1.65872 1.60205 1.74079C1.56803 1.81877 1.54993 1.90297 1.54885 1.98827C1.54654 2.08024 1.56181 2.17179 1.59381 2.25784C1.62085 2.32579 1.66083 2.38764 1.71145 2.43984C1.75898 2.48912 1.81482 2.52936 1.8763 2.55864C1.93794 2.58845 2.00154 2.6139 2.06663 2.63479C2.13182 2.65611 2.19552 2.67514 2.25696 2.69266C2.31368 2.70862 2.36885 2.72978 2.42181 2.75586C2.4665 2.77825 2.50646 2.80929 2.53945 2.84724C2.5706 2.88774 2.5863 2.93831 2.58367 2.98964C2.58671 3.03216 2.5802 3.07482 2.56462 3.1144C2.54904 3.15398 2.5248 3.18944 2.49375 3.21809C2.42004 3.27324 2.32956 3.30021 2.23823 3.29424C2.17188 3.29621 2.10577 3.28535 2.0434 3.26226C1.99421 3.2436 1.94681 3.22041 1.90178 3.19296C1.86057 3.16707 1.82385 3.14347 1.79238 3.12214C1.76647 3.10266 1.73541 3.09152 1.70321 3.09016C1.68216 3.0905 1.66153 3.09626 1.64326 3.10691C1.6254 3.11763 1.61006 3.13218 1.59831 3.14956L1.45968 3.37801C1.50631 3.42514 1.55781 3.46701 1.61329 3.50289C1.67277 3.54143 1.73575 3.57407 1.80137 3.60037C1.86873 3.62702 1.93816 3.6479 2.00893 3.66281C2.08018 3.67769 2.15275 3.68509 2.22549 3.68489C2.34173 3.687 2.45734 3.66712 2.56643 3.62626C2.66065 3.59034 2.7466 3.53514 2.81895 3.46406ZM3.92495 1.71566H4.90507V1.34024H3.45213V3.65976H4.90507V3.28434H3.92495V2.67514H4.68776V2.31267H3.92495V1.71566ZM6.43144 1.72708H7.09759V1.34024H5.29022V1.72708H5.95787V3.65976H6.43144V1.72708ZM9.3538 3.1092C9.39915 2.98523 9.42175 2.85385 9.42049 2.7216L9.42498 1.34024H8.95366V2.7216C8.95447 2.79903 8.94335 2.87611 8.92069 2.95005C8.9005 3.0141 8.86789 3.0734 8.82477 3.12443C8.78205 3.17245 8.72931 3.21018 8.67041 3.23485C8.53744 3.28768 8.38976 3.28768 8.25679 3.23485C8.19778 3.21039 8.145 3.17263 8.10243 3.12443C8.05879 3.07377 8.02611 3.01436 8.00651 2.95005C7.98386 2.87611 7.97273 2.79903 7.97354 2.7216V1.34024H7.50147V2.7216C7.49984 2.85388 7.52246 2.98532 7.56816 3.1092C7.61025 3.22334 7.67562 3.32715 7.75999 3.4138C7.8453 3.50077 7.94733 3.56894 8.05972 3.61407C8.31941 3.7085 8.60329 3.7085 8.86299 3.61407C8.97528 3.56875 9.07727 3.5006 9.16272 3.4138C9.24636 3.32671 9.31141 3.22301 9.3538 3.1092ZM11.3163 2.64621C11.3902 2.57942 11.4472 2.4956 11.4826 2.40177H11.4841C11.5221 2.30198 11.5412 2.19579 11.5403 2.08879C11.5409 1.98656 11.5228 1.8851 11.4871 1.78952C11.4521 1.69864 11.3963 1.61749 11.3245 1.5527C11.2426 1.48112 11.1469 1.4277 11.0435 1.39583C10.9122 1.35654 10.7758 1.33779 10.6389 1.34024H9.86558V3.65976H10.3377V2.86171H10.6374C10.7721 2.86443 10.9064 2.84541 11.0353 2.80536C11.1388 2.77281 11.2346 2.7186 11.3163 2.64621Z" fill="white"/>
</svg>
