<svg width="21" height="7" viewBox="0 0 21 7" fill="none" xmlns="http://www.w3.org/2000/svg">
<g opacity="0.95">
<path d="M10.0212 1.54774C10.008 1.51423 9.99477 1.47535 9.98023 1.43044C9.96568 1.38553 9.95179 1.33592 9.9379 1.28364C9.92468 1.33592 9.91079 1.38553 9.89624 1.43178C9.88169 1.47803 9.86847 1.51691 9.85524 1.55042L9.59072 2.28776H10.2917L10.0212 1.54774Z" fill="white"/>
<path d="M2.09233 3.55933H2.08903C2.05002 3.55932 2.01257 3.57484 1.98474 3.60255C1.95691 3.63025 1.94093 3.66793 1.94023 3.70746C1.93944 3.74746 1.95436 3.78614 1.98171 3.81499C2.00906 3.84384 2.04659 3.8605 2.08605 3.8613C2.12551 3.8621 2.16367 3.84698 2.19213 3.81926C2.22059 3.79154 2.23703 3.75349 2.23781 3.71349C2.23853 3.67354 2.22364 3.63492 2.19639 3.60605C2.16914 3.57717 2.13174 3.56038 2.09233 3.55933Z" fill="white"/>
<path d="M19.8546 4.86115e-06H1.14007C0.837117 0.000715234 0.546842 0.123342 0.333057 0.340921C0.119272 0.5585 -0.00052504 0.853224 1.72991e-06 1.1603V5.84172C1.72991e-06 6.14891 0.120394 6.44353 0.334694 6.66075C0.548994 6.87797 0.839649 7 1.14272 7H19.8573C20.1604 7 20.451 6.87797 20.6653 6.66075C20.8796 6.44353 21 6.14891 21 5.84172V1.1603C21.0003 1.00778 20.971 0.856684 20.9135 0.715707C20.8561 0.57473 20.7717 0.446647 20.6653 0.338824C20.5588 0.231001 20.4324 0.145559 20.2933 0.0874137C20.1542 0.0292681 20.0051 -0.00043715 19.8546 4.86115e-06ZM14.0855 0.900226H14.3004C14.3152 0.89905 14.33 0.89905 14.3448 0.900226C14.3564 0.900499 14.3677 0.903726 14.3778 0.90961C14.3889 0.914079 14.3988 0.920942 14.4069 0.929719C14.418 0.939979 14.4282 0.951195 14.4373 0.963236L15.5926 2.45868C15.5895 2.42249 15.5869 2.38696 15.5847 2.35211C15.5847 2.31658 15.5847 2.28508 15.5847 2.25424V0.900226H15.9457V3.13368H15.7355C15.7071 3.13439 15.679 3.12913 15.6528 3.11826C15.6287 3.10404 15.6075 3.08514 15.5906 3.06263L14.44 1.57388C14.4466 1.64091 14.4492 1.70459 14.4492 1.76224V3.13368H14.0855V0.900226ZM13.1809 0.900226H13.5922V3.13368H13.1809V0.900226ZM9.7296 0.900226H10.1475L11.0125 3.13368H10.6957C10.6648 3.13522 10.6342 3.12599 10.6091 3.10754C10.5873 3.08964 10.57 3.06664 10.5589 3.04051L10.3942 2.58537H9.48161L9.31695 3.04051C9.30801 3.06716 9.29143 3.0905 9.26934 3.10754C9.24483 3.12749 9.21412 3.13795 9.18271 3.13703H8.86132L9.7296 0.900226ZM3.14445 1.58259C3.21809 1.43007 3.33355 1.3023 3.47698 1.21457C3.62042 1.12684 3.78576 1.08286 3.95321 1.08791C4.11138 1.09555 4.26436 1.14753 4.39512 1.23806C4.52588 1.3286 4.6293 1.45413 4.69385 1.60069C4.77654 1.78588 4.79541 1.99387 4.74742 2.19123C4.74362 2.20772 4.7338 2.22214 4.71993 2.23159C4.70607 2.24104 4.68919 2.24482 4.67269 2.24218C4.53274 2.20946 4.39063 2.18706 4.24748 2.17515C4.23889 2.17515 4.23293 2.16643 4.22963 2.15705C4.23237 2.09865 4.21456 2.04116 4.17937 1.99484C4.11655 1.91306 4.01603 1.89228 3.89369 1.83798C3.77135 1.78369 3.82227 1.68985 3.90295 1.67778C3.98028 1.66941 4.05839 1.6831 4.12845 1.71733C4.14035 1.72336 4.14631 1.71733 4.14961 1.70794C4.15292 1.69856 4.17606 1.60874 4.18532 1.57388C4.18616 1.57191 4.18659 1.56979 4.18657 1.56764C4.18655 1.5655 4.18609 1.56337 4.18522 1.56142C4.18435 1.55946 4.18308 1.55772 4.18151 1.55628C4.17993 1.55485 4.17808 1.55377 4.17606 1.5531C4.1195 1.52948 4.0593 1.51609 3.99818 1.51356C3.99222 1.50752 3.98627 1.50149 3.98627 1.49546V1.40228C3.98645 1.40008 3.9862 1.39787 3.98553 1.39576C3.98487 1.39366 3.9838 1.39171 3.98238 1.39003C3.98097 1.38834 3.97924 1.38696 3.9773 1.38596C3.97535 1.38496 3.97324 1.38436 3.97106 1.38419H3.86195C3.85813 1.38416 3.85438 1.3853 3.8512 1.38745C3.84802 1.3896 3.84554 1.39266 3.84409 1.39625V1.50752C3.84419 1.50957 3.84386 1.51162 3.84313 1.51354C3.8424 1.51545 3.84128 1.51719 3.83985 1.51864C3.83842 1.52009 3.8367 1.52122 3.83482 1.52196C3.83293 1.5227 3.83091 1.52304 3.82888 1.52294C3.77489 1.53352 3.72518 1.56003 3.68601 1.59914C3.64683 1.63826 3.61992 1.68824 3.60867 1.7428C3.56701 1.94389 3.78127 2.02031 3.84674 2.04444C3.9003 2.06522 3.97503 2.08935 4.00148 2.13426C4.01074 2.14968 4.00148 2.16174 3.98693 2.15839C3.70825 2.14599 3.42932 2.17651 3.15966 2.24888C3.15481 2.24852 3.14995 2.24852 3.14511 2.24888C3.12991 2.24929 3.11504 2.24439 3.103 2.23499C3.09095 2.22558 3.08247 2.21226 3.07898 2.19726C3.03251 1.99065 3.0558 1.7742 3.14511 1.58259H3.14445ZM5.20834 5.19353C5.03905 5.44087 4.81884 5.74787 4.73552 5.86383C4.72458 5.87898 4.71023 5.89126 4.69367 5.89965C4.6771 5.90805 4.6588 5.91231 4.64029 5.91209H4.471C4.44065 5.91228 4.41144 5.90037 4.38967 5.87893C4.36789 5.85749 4.3553 5.82823 4.35461 5.79747V5.51997C4.35449 5.43289 4.34042 5.34642 4.31295 5.26391C4.30542 5.23853 4.28944 5.21657 4.26774 5.20178C4.24604 5.18699 4.21995 5.18029 4.19392 5.1828C3.92977 5.20134 3.66475 5.20336 3.40037 5.18884C3.37767 5.18823 3.35527 5.19422 3.33582 5.2061C3.31637 5.21798 3.30068 5.23525 3.29059 5.25587C3.17433 5.46651 3.04718 5.67079 2.90969 5.86786C2.89835 5.88148 2.8843 5.89252 2.86846 5.90026C2.85262 5.90799 2.83535 5.91226 2.81777 5.91277H2.64517C2.61488 5.91295 2.58574 5.90101 2.56408 5.87955C2.54241 5.8581 2.52997 5.82884 2.52945 5.79814V5.46702C2.52591 5.35797 2.50584 5.25013 2.46993 5.14728C2.4641 5.1276 2.45285 5.11002 2.4375 5.09661C2.42216 5.08319 2.40335 5.07449 2.3833 5.07153C2.33304 5.05947 2.25104 5.04137 2.1578 5.01724C1.84482 4.93871 1.5443 4.81596 1.26505 4.65259C1.11613 4.48518 1.03552 4.26666 1.03955 4.04127C1.03955 3.89045 1.01244 3.78187 1.17909 3.78187C1.24733 3.79395 1.31748 3.78837 1.38303 3.76564C1.44858 3.7429 1.5074 3.70376 1.55404 3.65183C1.65091 3.54622 1.7531 3.44576 1.86022 3.35086C1.91378 3.30863 1.91973 3.28383 1.92238 3.25434C1.92066 3.20788 1.90964 3.16227 1.88998 3.12028C1.87477 3.07202 1.82715 2.91919 1.88402 2.87025C1.96579 2.84526 2.05264 2.84269 2.13571 2.86283C2.21878 2.88297 2.29508 2.92508 2.35685 2.98487C2.35685 2.98487 2.35685 2.99091 2.3628 2.99091C2.41362 3.05048 2.45389 3.11851 2.48183 3.192C2.48995 3.21325 2.5042 3.23153 2.52272 3.24444C2.54124 3.25736 2.56317 3.26431 2.58565 3.26439C2.59917 3.26476 2.61257 3.26177 2.62467 3.25568C2.6519 3.24554 2.67409 3.22495 2.68646 3.19836C2.69884 3.17177 2.70039 3.14132 2.6908 3.11357C2.67328 3.06732 2.65228 3.0225 2.62798 2.97951C2.6217 2.97191 2.61702 2.9631 2.61422 2.95361C2.61141 2.94412 2.61053 2.93415 2.61165 2.9243C2.61276 2.91446 2.61584 2.90495 2.62069 2.89635C2.62555 2.88775 2.63207 2.88024 2.63988 2.87427H2.64319C3.03239 2.62816 3.48401 2.50259 3.94263 2.51298C5.76581 2.51298 5.79887 3.69406 5.79887 3.98765C5.71447 4.43663 5.51048 4.85364 5.209 5.19353H5.20834ZM7.32448 2.86489L7.44483 2.6638C7.45527 2.64911 7.46883 2.63697 7.48451 2.62827C7.49984 2.61811 7.51777 2.61275 7.53609 2.61286C7.56628 2.61457 7.59519 2.62582 7.61875 2.64503C7.64785 2.66581 7.68488 2.6886 7.7239 2.71206C7.76902 2.73973 7.81636 2.76349 7.86541 2.78311C7.92926 2.80504 7.9964 2.81548 8.0638 2.81395C8.16121 2.82025 8.25756 2.79047 8.33493 2.73016C8.36776 2.69964 8.39346 2.66208 8.41016 2.62022C8.42687 2.57836 8.43415 2.53325 8.43148 2.48818C8.43345 2.43641 8.41781 2.38553 8.38717 2.34406C8.35374 2.30607 8.31241 2.27608 8.26616 2.25625C8.21423 2.22806 8.15947 2.20559 8.10282 2.18922C8.04198 2.1718 7.98048 2.15302 7.91699 2.13224C7.85363 2.11152 7.79158 2.0869 7.73117 2.05852C7.67118 2.03006 7.61622 1.99178 7.56849 1.94523C7.51853 1.89632 7.47912 1.83744 7.45277 1.77229C7.42205 1.69015 7.40745 1.60271 7.40978 1.5149C7.40989 1.43322 7.42584 1.35237 7.45674 1.27694C7.48959 1.19963 7.53724 1.12968 7.59693 1.07115C7.66224 1.00901 7.73882 0.960303 7.82243 0.927709C7.92082 0.88996 8.0254 0.871534 8.13059 0.873413C8.25322 0.872154 8.37508 0.893271 8.49033 0.935753C8.59445 0.97342 8.68987 1.03227 8.77072 1.10869L8.66822 1.30442C8.65855 1.3232 8.64502 1.33966 8.62854 1.35268C8.61346 1.36207 8.59597 1.36673 8.57829 1.36609C8.55333 1.36499 8.52912 1.35712 8.50819 1.3433C8.48372 1.32654 8.45463 1.30844 8.42024 1.289C8.38116 1.26774 8.3402 1.25023 8.2979 1.23672C8.19607 1.20595 8.0876 1.20595 7.98577 1.23672C7.94637 1.24855 7.90957 1.26789 7.87732 1.29369C7.84834 1.31768 7.82563 1.34853 7.81119 1.38352C7.79636 1.41914 7.78893 1.45747 7.78936 1.49613C7.78726 1.54461 7.80253 1.59222 7.83235 1.63019C7.86472 1.66755 7.90405 1.69807 7.94807 1.72001C8.00052 1.74707 8.05517 1.76949 8.11141 1.78704C8.17225 1.80648 8.23441 1.82726 8.29856 1.85005C8.36239 1.87197 8.42488 1.89771 8.48571 1.92713C8.54555 1.95535 8.60066 1.9929 8.64904 2.0384C8.698 2.08451 8.73695 2.14044 8.76345 2.20263C8.79448 2.27721 8.80936 2.35767 8.80709 2.43857C8.80781 2.53577 8.79031 2.63222 8.75551 2.72279C8.72259 2.80943 8.67161 2.88785 8.60606 2.9527C8.53752 3.02001 8.45634 3.07266 8.36733 3.10754C8.2634 3.14615 8.15332 3.16501 8.04264 3.16318C7.97285 3.16323 7.90325 3.15581 7.83499 3.14106C7.76723 3.12788 7.70081 3.10836 7.63661 3.08274C7.5757 3.05703 7.51707 3.02608 7.46136 2.99024C7.41078 2.95361 7.36423 2.91159 7.32249 2.86489H7.32448ZM8.88711 4.22293H7.90906V4.84229H8.68012V5.16136H7.90906V5.79278H8.88711V6.12794H7.4984V3.89247H8.88711V4.22293ZM10.25 6.12592H9.87971L8.98961 3.89247H9.32026C9.35121 3.89104 9.38174 3.90025 9.40688 3.91861C9.42914 3.9361 9.44647 3.95922 9.45714 3.98564L9.97692 5.3477C9.99411 5.39194 10.0106 5.44087 10.0259 5.4945C10.0411 5.54812 10.0569 5.60174 10.0715 5.65939C10.0834 5.60174 10.0966 5.54678 10.1112 5.4945C10.1239 5.44467 10.1396 5.39565 10.1581 5.3477L10.6746 3.98564C10.6838 3.95914 10.7003 3.93587 10.7222 3.91861C10.7473 3.89881 10.7784 3.8884 10.8101 3.88912H11.1408L10.25 6.12592ZM12.7557 4.22293H11.7776V4.84229H12.5487V5.16136H11.7776V5.79278H12.7557V6.12794H11.367V3.89247H12.7557V4.22293ZM12.064 3.13368H11.6936L10.8035 0.900226H11.1342C11.1651 0.8988 11.1957 0.908012 11.2208 0.926369C11.2431 0.943862 11.2604 0.966976 11.2711 0.993398L11.7908 2.35546C11.808 2.3997 11.8246 2.44863 11.8398 2.50225C11.855 2.55588 11.8709 2.6095 11.8854 2.66715C11.8973 2.6095 11.9105 2.55454 11.9251 2.50225C11.9379 2.45243 11.9535 2.40341 11.972 2.35546L12.4885 0.993398C12.4977 0.966896 12.5142 0.943633 12.5361 0.926369C12.5612 0.906575 12.5923 0.896159 12.6241 0.896876H12.9547L12.064 3.13368ZM14.9736 6.12592H14.7634C14.7353 6.12673 14.7073 6.12148 14.6814 6.11051C14.657 6.09633 14.6357 6.07742 14.6185 6.05487L13.4685 4.56612C13.4745 4.63316 13.4778 4.69683 13.4778 4.75448V6.12592H13.1167V3.89247H13.331C13.3457 3.89124 13.3606 3.89124 13.3753 3.89247C13.3871 3.89285 13.3987 3.89607 13.409 3.90185C13.42 3.9065 13.4299 3.91334 13.4381 3.92196C13.4492 3.93222 13.4594 3.94343 13.4685 3.95548L14.6232 5.45093C14.6232 5.41473 14.6179 5.3792 14.6159 5.34435C14.6139 5.30949 14.6126 5.27732 14.6126 5.24648V3.89247H14.9736V6.12592ZM17.0031 4.23365H16.3419V6.12592H15.9319V4.23365H15.2706V3.89247H17.0091L17.0031 4.23365ZM18.2517 2.91718C18.1438 2.99892 18.0227 3.06106 17.8939 3.10084C17.7623 3.13994 17.6257 3.15936 17.4885 3.15849C17.3217 3.16058 17.1558 3.13173 16.9992 3.07336C16.8604 3.02084 16.7335 2.94034 16.6262 2.83674C16.5225 2.73476 16.4414 2.61161 16.3881 2.47544C16.3313 2.32952 16.3028 2.17384 16.3042 2.01695C16.3024 1.85919 16.33 1.70251 16.3855 1.55511C16.4355 1.41856 16.514 1.2946 16.6157 1.19173C16.7174 1.08887 16.8399 1.00954 16.9747 0.959211C17.1267 0.90154 17.2879 0.873124 17.4502 0.875423C17.534 0.874932 17.6177 0.88234 17.7001 0.897546C17.7739 0.910549 17.8463 0.930519 17.9164 0.957201C17.9805 0.980787 18.0419 1.01135 18.0996 1.04836C18.1531 1.08366 18.2036 1.12358 18.2503 1.16768L18.1326 1.35603C18.125 1.36965 18.1147 1.38158 18.1025 1.39114C18.0902 1.40069 18.0762 1.40767 18.0612 1.41167C18.0275 1.41667 17.9931 1.40827 17.9653 1.38821L17.8648 1.32989C17.8288 1.30921 17.791 1.29215 17.7517 1.27895C17.7067 1.26325 17.6605 1.25137 17.6135 1.24342C17.555 1.2334 17.4957 1.22869 17.4363 1.22934C17.3351 1.22807 17.2347 1.24697 17.1407 1.28498C17.0554 1.32033 16.979 1.37462 16.9172 1.44384C16.8533 1.5161 16.8045 1.60069 16.7737 1.69253C16.7389 1.797 16.7219 1.9067 16.7234 2.01695C16.7217 2.13362 16.7398 2.24972 16.777 2.36015C16.8103 2.45454 16.862 2.54117 16.9291 2.61487C16.9962 2.68458 17.0774 2.73877 17.1672 2.77373C17.2659 2.81112 17.3706 2.82954 17.476 2.82802C17.5496 2.82911 17.623 2.82009 17.6942 2.80121C17.7587 2.78361 17.8213 2.75982 17.8813 2.73016V2.32797H17.6043C17.5814 2.32919 17.5589 2.32152 17.5414 2.30653C17.5276 2.29141 17.52 2.2715 17.5203 2.25089V2.01092H18.2517V2.91718ZM19.9095 2.71608C19.8766 2.80272 19.8256 2.88115 19.7601 2.946C19.6915 3.0133 19.6104 3.06595 19.5213 3.10084C19.4174 3.13945 19.3073 3.15831 19.1967 3.15647C19.1269 3.15652 19.0573 3.14911 18.989 3.13435C18.9212 3.12117 18.8548 3.10165 18.7906 3.07604C18.7297 3.05032 18.6711 3.01938 18.6154 2.98353C18.5625 2.94881 18.5135 2.90835 18.4692 2.86288L18.5896 2.66179C18.6 2.64709 18.6136 2.63495 18.6293 2.62626C18.6446 2.6161 18.6625 2.61074 18.6808 2.61085C18.711 2.61256 18.7399 2.62381 18.7635 2.64302C18.7926 2.6638 18.8296 2.68659 18.8687 2.71005C18.9138 2.73771 18.9611 2.76148 19.0102 2.7811C19.074 2.80303 19.1412 2.81346 19.2086 2.81193C19.306 2.81823 19.4023 2.78846 19.4797 2.72815C19.5125 2.69763 19.5382 2.66007 19.5549 2.61821C19.5716 2.57635 19.5789 2.53124 19.5762 2.48617C19.5782 2.4344 19.5626 2.38352 19.5319 2.34205C19.5009 2.30315 19.4618 2.27158 19.4175 2.24955C19.3656 2.22136 19.3108 2.19889 19.2542 2.18252C19.1933 2.16509 19.1318 2.14632 19.0684 2.12555C19.005 2.10482 18.9429 2.0802 18.8825 2.05181C18.8226 2.02335 18.7676 1.98508 18.7199 1.93853C18.6699 1.88962 18.6305 1.83073 18.6041 1.76559C18.5734 1.68344 18.5588 1.59601 18.5612 1.50819C18.5613 1.42652 18.5772 1.34567 18.6081 1.27024C18.641 1.19292 18.6886 1.12298 18.7483 1.06445C18.8136 1.00231 18.8902 0.953598 18.9738 0.921004C19.0722 0.883256 19.1768 0.864829 19.282 0.866709C19.4046 0.865449 19.5265 0.886566 19.6417 0.929049C19.7458 0.966715 19.8412 1.02557 19.9221 1.10199L19.8196 1.29772C19.8099 1.3165 19.7964 1.33295 19.7799 1.34598C19.7648 1.35536 19.7473 1.36002 19.7297 1.35938C19.7047 1.35828 19.6805 1.35042 19.6596 1.3366C19.6351 1.31984 19.606 1.30174 19.5716 1.2823C19.5325 1.26103 19.4916 1.24353 19.4493 1.23002C19.3474 1.19925 19.239 1.19925 19.1371 1.23002C19.0977 1.24185 19.0609 1.26119 19.0287 1.28699C18.9997 1.31099 18.977 1.34183 18.9626 1.37681C18.9477 1.41243 18.9403 1.45076 18.9407 1.48942C18.9386 1.5379 18.9539 1.58552 18.9837 1.62349C19.0161 1.66085 19.0554 1.69137 19.0994 1.7133C19.1519 1.74036 19.2065 1.7628 19.2628 1.78034C19.3236 1.79978 19.3858 1.82055 19.4499 1.84334C19.5138 1.86527 19.5763 1.89101 19.6371 1.92043C19.6969 1.94865 19.752 1.9862 19.8004 2.0317C19.8494 2.07782 19.8883 2.13374 19.9148 2.19592C19.9459 2.2705 19.9607 2.35097 19.9585 2.43188C19.9599 2.52966 19.9428 2.6268 19.9082 2.71809L19.9095 2.71608Z" fill="white"/>
</g>
</svg>
