<svg width="18" height="7" viewBox="0 0 18 7" fill="none" xmlns="http://www.w3.org/2000/svg">
<g opacity="0.95">
<path d="M4.92236 1.4181C4.90737 1.37251 4.89307 1.32356 4.87808 1.27126C4.86446 1.32356 4.85015 1.37318 4.83584 1.41944C4.82154 1.46571 4.80724 1.5046 4.79361 1.53879L4.52113 2.27634H5.24252L4.97004 1.53343C4.95097 1.50258 4.93666 1.4637 4.92236 1.4181Z" fill="white"/>
<path d="M6.62261 4.41074C6.64261 4.45605 6.65148 4.50537 6.64851 4.55469C6.6474 4.60843 6.63584 4.66146 6.61444 4.71092C6.59572 4.75809 6.5661 4.80033 6.52793 4.83429C6.48581 4.87116 6.43608 4.8986 6.38216 4.91475C6.31608 4.93528 6.24708 4.94524 6.1778 4.94425H5.91417V4.20268H6.18665C6.30942 4.19313 6.43181 4.22531 6.53338 4.29386C6.57204 4.32538 6.60261 4.36542 6.62261 4.41074Z" fill="white"/>
<path d="M13.4469 1.42749C13.3844 1.35993 13.3071 1.3074 13.2207 1.27395C13.1259 1.23668 13.0244 1.21844 12.9223 1.22031C12.8198 1.21852 12.7179 1.23675 12.6226 1.27395C12.5363 1.30875 12.4591 1.36214 12.3965 1.43017C12.3319 1.5025 12.2832 1.58719 12.2534 1.67893C12.2186 1.78525 12.2018 1.89647 12.2037 2.00814C12.202 2.12025 12.2188 2.23188 12.2534 2.3387C12.2835 2.4297 12.3322 2.51367 12.3965 2.58544C12.4595 2.65266 12.5367 2.70552 12.6226 2.74033C12.718 2.77721 12.8198 2.79542 12.9223 2.79396C13.0244 2.79549 13.1258 2.77727 13.2207 2.74033C13.3067 2.70603 13.3838 2.65308 13.4462 2.58544C13.5105 2.51367 13.5592 2.4297 13.5892 2.3387C13.6241 2.23192 13.6411 2.12029 13.6397 2.00814C13.6413 1.89643 13.6243 1.78521 13.5892 1.67893C13.56 1.5863 13.5115 1.50067 13.4469 1.42749Z" fill="white"/>
<path d="M15.5961 1.56159C15.599 1.51234 15.5901 1.46311 15.5702 1.41783C15.5504 1.37254 15.52 1.33245 15.4816 1.30076C15.38 1.23231 15.2576 1.20013 15.1349 1.20957H14.8624V1.95115H15.1281C15.1974 1.95208 15.2663 1.94212 15.3324 1.92165C15.3863 1.90535 15.436 1.87791 15.4782 1.84118C15.5164 1.80722 15.546 1.76498 15.5647 1.71781C15.5849 1.66808 15.5955 1.61512 15.5961 1.56159Z" fill="white"/>
<path fill-rule="evenodd" clip-rule="evenodd" d="M1.17711 1.95945e-07H16.8229C16.9777 -8.84273e-05 17.1309 0.0298861 17.2739 0.0882066C17.4169 0.146527 17.5468 0.23205 17.6562 0.339868C17.7655 0.447687 17.8522 0.575685 17.9112 0.716527C17.9702 0.85737 18.0004 1.00829 18 1.16063V5.84138C18 6.14867 17.876 6.44336 17.6552 6.66065C17.4345 6.87793 17.1351 7 16.8229 7H1.17711C0.864923 7 0.565519 6.87793 0.344768 6.66065C0.124017 6.44336 0 6.14867 0 5.84138V1.15862C0 0.851338 0.124017 0.556635 0.344768 0.339352C0.565519 0.122068 0.864923 1.95945e-07 1.17711 1.95945e-07ZM8.27384 0.888413H7.85218V3.12184H9.1812V2.77922H8.27384V0.888413ZM6.64305 0.888413H6.22139V3.12184H7.55041V2.77922H6.64305V0.888413ZM3.11376 5.92921C3.18114 5.86422 3.23362 5.78581 3.26771 5.69923C3.30376 5.60776 3.32179 5.51037 3.32084 5.41226C3.3233 5.33104 3.30773 5.25026 3.2752 5.17557C3.24815 5.11343 3.20798 5.05767 3.15736 5.01198C3.10794 4.96625 3.05136 4.92867 2.98978 4.90067C2.92715 4.87067 2.86251 4.84491 2.79632 4.82356C2.73093 4.80077 2.66621 4.77998 2.60354 4.75987C2.54586 4.74221 2.48981 4.71977 2.43597 4.69282C2.39046 4.6711 2.34972 4.64081 2.31608 4.60364C2.28561 4.56557 2.27012 4.51795 2.27248 4.46954C2.27201 4.43093 2.27942 4.39263 2.29428 4.3569C2.3093 4.32198 2.33267 4.29116 2.3624 4.26705C2.39546 4.241 2.43342 4.22163 2.47411 4.21006C2.52362 4.19442 2.5754 4.18695 2.62738 4.18793C2.68448 4.1869 2.74135 4.19529 2.79564 4.21274C2.83918 4.22604 2.88119 4.24379 2.92098 4.26571C2.9564 4.28515 2.98706 4.30326 3.01226 4.31935C3.03374 4.33344 3.05869 4.34155 3.08447 4.34282C3.1028 4.34356 3.1209 4.33863 3.13624 4.32874C3.153 4.31576 3.16691 4.29956 3.17711 4.28113L3.28202 4.08468C3.19867 4.00831 3.1004 3.94945 2.99319 3.91168C2.87435 3.86968 2.74888 3.8488 2.62262 3.85C2.51448 3.84806 2.40696 3.86649 2.30586 3.90431C2.21953 3.93651 2.14057 3.98528 2.07357 4.0478C2.01187 4.10591 1.96275 4.1757 1.92916 4.25297C1.89709 4.32835 1.88065 4.40928 1.88079 4.491C1.87825 4.57901 1.89306 4.66667 1.92439 4.74914C1.95204 4.81403 1.99257 4.87284 2.0436 4.92213C2.09303 4.9685 2.14987 5.00656 2.21185 5.03477C2.27406 5.06338 2.33799 5.08824 2.40327 5.1092C2.46798 5.12931 2.53202 5.14875 2.59469 5.16619C2.65289 5.18237 2.7091 5.20485 2.76226 5.23324C2.80807 5.25503 2.84834 5.28665 2.88011 5.32577C2.91198 5.36683 2.92813 5.41763 2.92575 5.46925C2.92864 5.51439 2.92127 5.5596 2.90419 5.60158C2.8871 5.64357 2.86072 5.68128 2.82698 5.71197C2.74709 5.7719 2.64792 5.80142 2.54768 5.79512C2.47824 5.79699 2.40901 5.78654 2.34332 5.76427C2.29233 5.74519 2.24329 5.72139 2.19687 5.6932C2.15668 5.66973 2.11921 5.64627 2.08856 5.62615C2.06475 5.6065 2.03511 5.59497 2.00409 5.5933C1.98524 5.59334 1.96681 5.59869 1.95095 5.60872C1.93482 5.61743 1.92086 5.62957 1.91008 5.64425L1.7861 5.8454C1.83154 5.89104 1.88204 5.93153 1.93665 5.96609C2.11435 6.07887 2.32126 6.13892 2.5327 6.13908C2.64674 6.14131 2.7602 6.12243 2.86717 6.08343C2.9591 6.04895 3.04299 5.99649 3.11376 5.92921ZM2.92779 3.14665C3.09361 3.15102 3.25848 3.12062 3.41144 3.05747C3.54637 3.00062 3.66567 2.91307 3.75954 2.80201L3.59264 2.62433C3.58487 2.61615 3.57549 2.60961 3.56506 2.60512C3.55464 2.60062 3.5434 2.59826 3.53202 2.59818C3.51942 2.59796 3.50698 2.60097 3.49591 2.6069C3.48379 2.61269 3.47255 2.62015 3.46253 2.62903C3.43006 2.65826 3.39495 2.68452 3.35763 2.70747C3.32241 2.72846 3.28495 2.74556 3.24591 2.75843C3.20415 2.77263 3.161 2.78252 3.11717 2.78793C3.06566 2.79444 3.01378 2.79758 2.96185 2.79732C2.86835 2.79837 2.77562 2.78057 2.68937 2.74502C2.60627 2.70937 2.53193 2.65655 2.47139 2.59014C2.4065 2.51798 2.35632 2.43421 2.32357 2.34339C2.28653 2.23545 2.26856 2.12206 2.27044 2.00814C2.26821 1.89446 2.28501 1.7812 2.32016 1.67289C2.34996 1.58206 2.39816 1.49813 2.46185 1.42615C2.52099 1.35881 2.59512 1.30581 2.67847 1.27127C2.7668 1.23456 2.8619 1.21629 2.95777 1.21763C3.01032 1.2168 3.06282 1.22129 3.11444 1.23104C3.1558 1.23832 3.19638 1.24931 3.23569 1.26389C3.2672 1.27479 3.29755 1.28872 3.32629 1.30546C3.3515 1.32089 3.37466 1.33563 3.39441 1.34837C3.41417 1.36111 3.43256 1.37184 3.44891 1.38123C3.46412 1.38884 3.48089 1.39297 3.49796 1.3933C3.51676 1.39452 3.53545 1.38957 3.55109 1.37922C3.56409 1.37078 3.57521 1.35983 3.58379 1.34703L3.72548 1.15393C3.63039 1.0643 3.519 0.993106 3.39714 0.944064C3.25775 0.888156 3.10825 0.860778 2.95777 0.863603C2.80181 0.861535 2.64703 0.890498 2.50272 0.948755C2.36916 1.00189 2.2483 1.08181 2.14782 1.18343C2.04758 1.28749 1.96973 1.41042 1.91894 1.54483C1.86291 1.69206 1.83519 1.84826 1.83719 2.00546C1.83559 2.16147 1.86116 2.31658 1.91281 2.46408C1.96013 2.59801 2.03477 2.72099 2.13215 2.82548C2.22765 2.92675 2.34369 3.00716 2.47275 3.06149C2.61694 3.12013 2.7718 3.14911 2.92779 3.14665ZM4.11308 4.21207H5.11989L5.12057 3.88151H3.69005V6.11494H5.12057V5.78304H4.11308V5.15144H4.91008V4.83161H4.11308V4.21207ZM4.23842 3.02797L4.40804 2.57203L5.34809 2.57471L5.51771 3.03065C5.52897 3.05693 5.54677 3.07999 5.56948 3.0977C5.59564 3.11607 5.6273 3.12527 5.6594 3.12385H5.98569L5.094 0.890423H4.66417L3.77112 3.12385H4.10082C4.13309 3.12496 4.16472 3.11474 4.19005 3.09502C4.21212 3.07746 4.22885 3.05427 4.23842 3.02797ZM6.79508 6.09554C6.82279 6.11024 6.85414 6.11697 6.88556 6.11494H7.26839L6.70027 5.29023C6.6829 5.26274 6.66182 5.2377 6.6376 5.2158C6.61475 5.19463 6.58962 5.17598 6.56267 5.16016C6.63792 5.13859 6.70937 5.1058 6.77452 5.06293C6.83467 5.02424 6.88766 4.97571 6.9312 4.91945C6.97436 4.8648 7.00734 4.80305 7.02861 4.73707C7.05204 4.66837 7.06378 4.59632 7.06335 4.52385C7.06434 4.43491 7.0472 4.34667 7.01294 4.26437C6.97862 4.1853 6.92448 4.11609 6.85558 4.06322C6.77524 4.00033 6.68243 3.95465 6.58311 3.92912C6.4541 3.89507 6.32087 3.87905 6.18733 3.88151H5.49523V6.11427H5.91757V5.24262H6.09809C6.13033 5.24082 6.16255 5.24657 6.1921 5.25939C6.21667 5.27307 6.2373 5.29268 6.25204 5.31638L6.72888 6.0318C6.74443 6.05874 6.76737 6.08083 6.79508 6.09554ZM8.08855 6.11494H8.47003L9.3876 3.87816H9.047C9.01418 3.87692 8.982 3.8874 8.9564 3.90766C8.93395 3.92501 8.91695 3.94826 8.90736 3.97471L8.37534 5.33717C8.35629 5.38513 8.34014 5.43416 8.32697 5.484C8.31199 5.53697 8.29836 5.59195 8.2861 5.64962C8.27368 5.60182 8.26032 5.55633 8.24719 5.51161C8.24448 5.50238 8.24178 5.49318 8.2391 5.484C8.22343 5.43036 8.2064 5.38142 8.18869 5.33717L7.65327 3.97471C7.64236 3.94824 7.62449 3.92509 7.6015 3.90766C7.57564 3.88921 7.54416 3.87998 7.51226 3.88151H7.17166L8.08855 6.11494ZM9.62125 6.11494H10.045V3.88151H9.62125V6.11494ZM11.5824 0.888413H10.1519L10.1512 3.12251H10.5749V2.21265H11.4257V1.8774H10.5749V1.21897H11.5824V0.888413ZM11.5157 6.14042C11.6813 6.14486 11.8459 6.11446 11.9986 6.05124L11.998 6.05057C12.131 5.99319 12.2484 5.90566 12.3406 5.79512L12.1744 5.61744C12.1665 5.6092 12.157 5.60264 12.1465 5.59814C12.1359 5.59364 12.1246 5.59131 12.1131 5.59128C12.1005 5.59122 12.0881 5.59421 12.077 5.6C12.065 5.60565 12.0539 5.61311 12.0443 5.62213C12.0117 5.65153 11.9763 5.6778 11.9387 5.70058C11.9037 5.72157 11.8665 5.73866 11.8277 5.75153C11.7859 5.76573 11.7427 5.77562 11.6989 5.78103C11.6474 5.7875 11.5955 5.79064 11.5436 5.79042C11.4501 5.79143 11.3574 5.77364 11.2711 5.73813C11.1882 5.70214 11.1139 5.64936 11.0531 5.58324C10.9885 5.51104 10.9385 5.42727 10.906 5.33649C10.8684 5.22867 10.8502 5.11522 10.8522 5.00124C10.8502 4.88753 10.8672 4.77426 10.9026 4.66599C10.9319 4.57509 10.9799 4.4911 11.0436 4.41925C11.1027 4.35191 11.1769 4.29891 11.2602 4.26437C11.3486 4.22771 11.4436 4.20946 11.5395 4.21073C11.5923 4.20987 11.645 4.21437 11.6969 4.22414C11.7394 4.23148 11.7811 4.2427 11.8215 4.25767C11.8533 4.26857 11.8838 4.28249 11.9128 4.29923C11.938 4.31466 11.9612 4.32941 11.9809 4.34215C12.0007 4.35489 12.0191 4.36561 12.0361 4.375C12.051 4.38267 12.0676 4.3868 12.0845 4.38707C12.1035 4.38819 12.1223 4.38326 12.1383 4.37299C12.1513 4.36455 12.1624 4.3536 12.171 4.34081L12.312 4.1477C12.2172 4.05808 12.106 3.98688 11.9843 3.93783C11.8449 3.88205 11.6954 3.85469 11.545 3.85738C11.389 3.85531 11.2342 3.88427 11.0899 3.94253C10.9563 3.9955 10.8354 4.07544 10.735 4.1772C10.6343 4.28106 10.5562 4.40403 10.5054 4.5386C10.45 4.68596 10.4225 4.8421 10.4244 4.99923C10.4226 5.1552 10.4479 5.31032 10.4993 5.45785C10.5469 5.59181 10.6218 5.71479 10.7193 5.81925C10.8149 5.92043 10.9309 6.00083 11.0599 6.05527C11.2044 6.11398 11.3594 6.14296 11.5157 6.14042ZM13.0518 4.21274H14.0599L14.0593 3.88151H12.6287V6.11561H14.0593V5.78371H13.0518V5.15211H13.846V4.83228H13.0518V4.21274ZM13.7593 2.825C13.8617 2.72107 13.9409 2.59723 13.9918 2.4614L13.9884 2.46073C14.0458 2.31676 14.0751 2.16346 14.0749 2.00881C14.0755 1.90354 14.0629 1.79861 14.0375 1.69636C14.0148 1.60034 13.9788 1.50784 13.9305 1.42146C13.8842 1.33767 13.8262 1.2607 13.7582 1.19282C13.6915 1.12391 13.6149 1.06516 13.5307 1.01849C13.4433 0.96869 13.3493 0.931222 13.2514 0.907187C13.1453 0.879794 13.0361 0.866264 12.9264 0.866953C12.7657 0.864897 12.6062 0.894301 12.4571 0.953451C12.3202 1.00715 12.1961 1.08819 12.0926 1.19148C11.991 1.29584 11.9115 1.41918 11.859 1.55421C11.7482 1.8477 11.7482 2.1706 11.859 2.46408C11.9117 2.59864 11.9911 2.7215 12.0926 2.82548C12.1964 2.92873 12.3204 3.01016 12.4571 3.06485C12.7598 3.17838 13.0944 3.17838 13.3971 3.06485C13.5335 3.01062 13.6569 2.92892 13.7593 2.825ZM15.7459 3.10332C15.7737 3.11804 15.8051 3.1247 15.8365 3.12251L16.2153 3.12184L15.6471 2.29713C15.6294 2.26993 15.6083 2.24494 15.5845 2.2227C15.5614 2.20152 15.536 2.18286 15.5089 2.16705C15.5842 2.14562 15.6556 2.11282 15.7207 2.06983C15.7809 2.03096 15.8341 1.98246 15.8781 1.92634C15.9208 1.8715 15.9535 1.8098 15.9748 1.74397C15.9982 1.67527 16.01 1.60322 16.0095 1.53075C16.0105 1.44181 15.9934 1.35357 15.9591 1.27127C15.9248 1.19236 15.871 1.12319 15.8025 1.07012C15.7219 1.00752 15.6292 0.961881 15.53 0.936018C15.4012 0.901973 15.2682 0.885948 15.1349 0.888413H14.4469V3.12184H14.8685V2.25019H15.049C15.0815 2.24828 15.114 2.25403 15.1437 2.26696C15.1681 2.28068 15.1885 2.30029 15.203 2.32395L15.6798 3.03937C15.6953 3.06642 15.7182 3.0886 15.7459 3.10332Z" fill="white"/>
</g>
</svg>
