<svg width="8" height="9" viewBox="0 0 8 9" fill="none" xmlns="http://www.w3.org/2000/svg">
<path opacity="0.95" fill-rule="evenodd" clip-rule="evenodd" d="M6.41292 5.43242L7.40583 5.16798C7.49172 5.14516 7.56509 5.08919 7.60989 5.01232C7.65469 4.93544 7.66727 4.84392 7.64488 4.75779C7.62061 4.67151 7.56332 4.59832 7.48547 4.55413C7.40762 4.50994 7.3155 4.49832 7.22915 4.5218L5.59047 4.96184L4.51372 4.33718L5.59324 3.71599L7.23469 4.15534C7.26295 4.16282 7.29207 4.16655 7.3213 4.16644C7.39515 4.16651 7.46699 4.1424 7.5259 4.0978C7.58481 4.0532 7.62757 3.99054 7.64765 3.91935C7.67036 3.83368 7.65833 3.74248 7.6142 3.66565C7.57008 3.58881 7.49742 3.53257 7.41207 3.50916L6.41916 3.24472L7.51323 2.61659C7.55135 2.59525 7.58484 2.56651 7.61174 2.53206C7.63864 2.4976 7.65841 2.45812 7.6699 2.41592C7.68138 2.37371 7.68435 2.32964 7.67862 2.28628C7.6729 2.24291 7.6586 2.20112 7.63657 2.16336V2.1592C7.59117 2.0825 7.51757 2.02668 7.43156 2.00371C7.34555 1.98075 7.25397 1.99246 7.17649 2.03635L6.08242 2.66101L6.34641 1.67405C6.36932 1.58846 6.35748 1.49726 6.31347 1.4204C6.26945 1.34353 6.19684 1.28725 6.11152 1.26385H6.10736C6.02102 1.24075 5.92907 1.25253 5.85131 1.29667C5.77356 1.3408 5.71621 1.41376 5.69163 1.49984L5.25373 3.13298L4.16728 3.75972V2.5222L5.37013 1.3284C5.40122 1.2975 5.42589 1.26073 5.44273 1.22023C5.45957 1.17973 5.46824 1.13629 5.46824 1.09242C5.46824 1.04854 5.45957 1.00511 5.44273 0.964604C5.42589 0.924103 5.40122 0.887338 5.37013 0.856434C5.30704 0.793664 5.22174 0.758437 5.13282 0.758437C5.0439 0.758437 4.95859 0.793664 4.8955 0.856434L4.17421 1.57896V0.322699C4.17027 0.235793 4.13304 0.153751 4.07025 0.0936462C4.00747 0.0335411 3.92396 0 3.83712 0C3.75027 0 3.66677 0.0335411 3.60398 0.0936462C3.54119 0.153751 3.50396 0.235793 3.50003 0.322699V1.57202L2.77527 0.850188C2.71218 0.787418 2.62687 0.752188 2.53795 0.752188C2.44904 0.752188 2.36373 0.787418 2.30064 0.850188C2.26964 0.881139 2.24503 0.917916 2.22825 0.958411C2.21146 0.998907 2.20282 1.04232 2.20282 1.08617C2.20282 1.13002 2.21146 1.17344 2.22825 1.21393C2.24503 1.25443 2.26964 1.2912 2.30064 1.32215L3.50003 2.51595V3.75347L2.42051 3.13644L1.98191 1.5033C1.95784 1.41783 1.90115 1.34528 1.82411 1.30134C1.74706 1.2574 1.65585 1.2456 1.57019 1.26849C1.48453 1.29138 1.4113 1.34712 1.36633 1.42366C1.32137 1.5002 1.30828 1.59139 1.32991 1.67752V1.68099L1.59459 2.66795L0.503984 2.03704C0.426457 1.99334 0.334948 1.98172 0.248988 2.00467C0.163029 2.02763 0.0894344 2.08333 0.0439114 2.15989C0.0222307 2.1978 0.00821857 2.23962 0.00268349 2.28296C-0.00285158 2.3263 0.000194642 2.3703 0.0116491 2.41246C0.0231035 2.45462 0.0427414 2.4941 0.069439 2.52865C0.0961366 2.5632 0.12937 2.59214 0.167241 2.61381L1.26131 3.23847L0.264937 3.50708C0.179511 3.52945 0.106407 3.58479 0.06161 3.66101C0.016813 3.73723 0.00397313 3.82812 0.0258957 3.9138V3.92074C0.0447045 3.99265 0.0871191 4.05612 0.146318 4.10094C0.205516 4.14576 0.278055 4.16932 0.352246 4.16783C0.381474 4.1679 0.410588 4.16417 0.438857 4.15672L2.0803 3.71738L3.16329 4.33857L2.08862 4.96184L0.443704 4.5225C0.400885 4.50929 0.355855 4.50483 0.311282 4.50938C0.26671 4.51393 0.223504 4.5274 0.184226 4.54899C0.144948 4.57058 0.110397 4.59986 0.082623 4.63507C0.054849 4.67029 0.0344177 4.71073 0.0225389 4.754C0.01066 4.79728 0.00757315 4.8425 0.0134676 4.88699C0.019362 4.93148 0.0341165 4.97433 0.0568523 5.013C0.079588 5.05168 0.109844 5.08538 0.145826 5.11212C0.181809 5.13886 0.222787 5.15809 0.266328 5.16867H0.26979L1.2627 5.43311L0.168626 6.06124C0.130506 6.08258 0.0970211 6.11132 0.0701209 6.14577C0.0432207 6.18023 0.0234452 6.21971 0.011961 6.26192C0.000476746 6.30412 -0.00248988 6.34819 0.00323327 6.39156C0.00895641 6.43492 0.0232586 6.4767 0.0452964 6.51447V6.51863C0.0908194 6.59519 0.164414 6.6509 0.250373 6.67385C0.336333 6.6968 0.427842 6.68518 0.505369 6.64148L1.59944 6.01682L1.33476 7.00379C1.31205 7.08946 1.32408 7.18065 1.36821 7.25749C1.41233 7.33432 1.48499 7.39057 1.57034 7.41398C1.59891 7.42108 1.62821 7.42481 1.65764 7.42508C1.7314 7.42511 1.80314 7.40098 1.86194 7.35637C1.92073 7.31176 1.96335 7.24912 1.9833 7.178L2.4219 5.54486L3.50142 4.92436V6.16188L2.30203 7.35568C2.27102 7.38663 2.24642 7.42341 2.22964 7.4639C2.21285 7.5044 2.20421 7.54781 2.20421 7.59166C2.20421 7.63551 2.21285 7.67892 2.22964 7.71942C2.24642 7.75991 2.27102 7.79669 2.30203 7.82764C2.36511 7.89041 2.45042 7.92564 2.53934 7.92564C2.62826 7.92564 2.71357 7.89041 2.77665 7.82764L3.50142 7.10581V8.36138C3.50535 8.44828 3.54258 8.53032 3.60537 8.59043C3.66815 8.65053 3.75166 8.68408 3.8385 8.68408C3.92535 8.68408 4.00885 8.65053 4.07164 8.59043C4.13442 8.53032 4.17166 8.44828 4.17559 8.36138V7.10234L4.89966 7.82417C4.96275 7.88694 5.04805 7.92217 5.13697 7.92217C5.22589 7.92217 5.3112 7.88694 5.37429 7.82417C5.40537 7.79327 5.43005 7.75651 5.44689 7.716C5.46373 7.6755 5.4724 7.63206 5.4724 7.58819C5.4724 7.54432 5.46373 7.50088 5.44689 7.46037C5.43005 7.41987 5.40537 7.38311 5.37429 7.35221L4.17559 6.15494V4.92089L5.25511 5.54139L5.69302 7.17452C5.71194 7.24637 5.75438 7.30977 5.81356 7.35457C5.87273 7.39938 5.9452 7.42298 6.01936 7.42161C6.0488 7.42134 6.0781 7.41761 6.10667 7.41051C6.1922 7.3883 6.26542 7.33298 6.31025 7.25672C6.35507 7.18045 6.36783 7.08947 6.34571 7.00379V7.00031L6.08103 6.01335L7.1751 6.63801C7.25263 6.68172 7.34414 6.69333 7.4301 6.67038C7.51606 6.64743 7.58965 6.59172 7.63518 6.51516C7.65745 6.47729 7.67202 6.43537 7.67805 6.39183C7.68408 6.34829 7.68145 6.30399 7.6703 6.26147C7.65916 6.21895 7.63973 6.17906 7.61313 6.1441C7.58653 6.10914 7.55328 6.0798 7.51531 6.05777L6.41292 5.43242Z" fill="white"/>
</svg>
