<svg width="19" height="4" viewBox="0 0 19 4" fill="none" xmlns="http://www.w3.org/2000/svg">
<g opacity="0.95">
<path d="M0.637487 0.0423015H0V3.46207H0.637487V0.0423015Z" fill="white"/>
<path d="M3.72043 2.121C3.72043 2.16666 3.72043 2.21654 3.72534 2.26993C3.73024 2.32332 3.73235 2.37811 3.73656 2.43361L1.94753 0.144164C1.93384 0.125564 1.91859 0.108172 1.90194 0.092179C1.88928 0.0788743 1.87399 0.0683488 1.85706 0.061269C1.84097 0.0528867 1.82327 0.0480935 1.80516 0.047219C1.78199 0.0434172 1.75851 0.041771 1.73503 0.0423015H1.40191V3.46207H1.96295V1.3623C1.96295 1.27378 1.95804 1.17754 1.94893 1.07357L3.73095 3.35318C3.75485 3.39014 3.7884 3.41983 3.82797 3.43903C3.86753 3.45823 3.91159 3.4662 3.95536 3.46207H4.28147V0.0423015H3.72043V2.121Z" fill="white"/>
<path d="M7.59514 0.522811C7.43959 0.36905 7.25377 0.249426 7.04953 0.171561C6.82385 0.0834937 6.58339 0.0396139 6.34121 0.0423015H5.04028V3.46207H6.34121C6.58306 3.46537 6.82337 3.42294 7.04953 3.33703C7.25354 3.25976 7.43893 3.14013 7.59352 2.98601C7.74811 2.83188 7.8684 2.64674 7.9465 2.44274C8.03202 2.22271 8.07464 1.98829 8.07203 1.75219C8.07457 1.51608 8.03196 1.28168 7.9465 1.06163C7.86788 0.859591 7.74824 0.676111 7.59514 0.522811ZM7.34477 2.25588C7.30054 2.39571 7.22715 2.52454 7.12947 2.63382C7.03541 2.73715 6.91942 2.81805 6.79004 2.87057C6.64778 2.92956 6.49517 2.95942 6.34121 2.95838H5.67777V0.548804H6.34121C6.49476 0.546332 6.64729 0.574264 6.79004 0.630996C6.91982 0.68376 7.0359 0.765442 7.12947 0.869846C7.22774 0.978975 7.3012 1.10816 7.34477 1.24849C7.39724 1.41112 7.4226 1.5813 7.41982 1.75219C7.42212 1.92304 7.39678 2.09314 7.34477 2.25588Z" fill="white"/>
<path d="M11.6711 0.850879C11.6014 0.722272 11.514 0.604048 11.4116 0.499629C11.3113 0.394116 11.1959 0.303937 11.0694 0.231976C10.9375 0.156379 10.796 0.099182 10.6486 0.0619715C10.4885 0.019548 10.3234 -0.00124277 10.1577 0.00015155C9.91607 -0.00297024 9.67623 0.0421658 9.45219 0.132924C9.24639 0.214831 9.05986 0.338758 8.90447 0.496819C8.7514 0.656482 8.63213 0.845492 8.55382 1.0525C8.46885 1.27437 8.42649 1.51034 8.42899 1.74797C8.42661 1.98628 8.46896 2.22291 8.55382 2.44555C8.63193 2.65304 8.75225 2.842 8.90714 3.00043C9.06204 3.15885 9.24813 3.28329 9.4536 3.36583C9.909 3.53909 10.412 3.53909 10.8674 3.36583C11.0723 3.28328 11.2577 3.15878 11.4118 3.00032C11.5659 2.84185 11.6853 2.65289 11.7623 2.44555C11.8474 2.22295 11.89 1.98632 11.8878 1.74797C11.8885 1.58701 11.8695 1.42656 11.831 1.27027C11.7965 1.12401 11.7427 0.982988 11.6711 0.850879ZM11.1634 2.25588C11.1183 2.39605 11.0453 2.52559 10.9488 2.63663C10.8545 2.73998 10.7382 2.82087 10.6086 2.87338C10.4661 2.93075 10.3134 2.95893 10.1598 2.95627C10.0055 2.95867 9.85227 2.9305 9.70887 2.87338C9.57988 2.82014 9.46404 2.73935 9.36944 2.63663C9.27242 2.52581 9.19914 2.39622 9.15414 2.25588C9.10184 2.09225 9.07649 1.92117 9.0791 1.74938C9.07632 1.57849 9.10167 1.40831 9.15414 1.24568C9.19916 1.10535 9.27243 0.975762 9.36944 0.864929C9.46355 0.76114 9.57948 0.679562 9.70887 0.626079C9.85227 0.568958 10.0055 0.540787 10.1598 0.543184C10.3134 0.540523 10.4661 0.568709 10.6086 0.626079C10.7386 0.678836 10.8549 0.760512 10.9488 0.864929C11.0453 0.975984 11.1183 1.10552 11.1634 1.24568C11.2161 1.40827 11.2417 1.57845 11.2391 1.74938C11.2415 1.92121 11.2159 2.09229 11.1634 2.25588Z" fill="white"/>
<path d="M15.4848 0.850879C15.4151 0.722272 15.3277 0.604048 15.2253 0.499629C15.125 0.394116 15.0096 0.303937 14.8831 0.231976C14.7512 0.156379 14.6097 0.099182 14.4623 0.0619715C14.3022 0.019548 14.1371 -0.00124277 13.9714 0.00015155C13.7298 -0.00297024 13.4899 0.0421658 13.2659 0.132924C13.0601 0.214831 12.8736 0.338758 12.7182 0.496819C12.5651 0.656482 12.4458 0.845492 12.3675 1.0525C12.2825 1.27437 12.2402 1.51034 12.2427 1.74797C12.2403 1.98628 12.2827 2.22291 12.3675 2.44555C12.4456 2.65304 12.5659 2.842 12.7208 3.00043C12.8757 3.15885 13.0618 3.28329 13.2673 3.36583C13.7227 3.53909 14.2257 3.53909 14.6811 3.36583C14.8859 3.28391 15.0713 3.16013 15.2256 3.00241C15.3799 2.84468 15.4998 2.65647 15.5774 2.44977C15.6625 2.22717 15.7051 1.99054 15.7029 1.75219C15.7043 1.59057 15.6857 1.42941 15.6475 1.27238C15.6122 1.12526 15.5575 0.983507 15.4848 0.850879ZM14.9771 2.25588C14.9317 2.39505 14.8587 2.52361 14.7625 2.63382C14.6682 2.73717 14.5519 2.81806 14.4223 2.87057C14.2798 2.92794 14.1272 2.95612 13.9735 2.95346C13.8192 2.95591 13.6659 2.92774 13.5226 2.87057C13.3936 2.81733 13.2777 2.73654 13.1831 2.63382C13.0864 2.52383 13.0132 2.39522 12.9678 2.25588C12.9153 2.09229 12.8897 1.92121 12.8921 1.74938C12.8895 1.57845 12.9151 1.40827 12.9678 1.24568C13.0129 1.10535 13.0861 0.975762 13.1831 0.864929C13.2773 0.76114 13.3932 0.679562 13.5226 0.626079C13.6659 0.568905 13.8192 0.540731 13.9735 0.543184C14.1272 0.540523 14.2798 0.568709 14.4223 0.626079C14.5523 0.678836 14.6686 0.760512 14.7625 0.864929C14.859 0.975984 14.932 1.10552 14.9771 1.24568C15.0298 1.40827 15.0554 1.57845 15.0528 1.74938C15.0552 1.92121 15.0296 2.09229 14.9771 2.25588Z" fill="white"/>
<path d="M18.0705 2.19898C18.0441 2.15743 18.0126 2.11942 17.9766 2.08587C17.9422 2.05314 17.904 2.0246 17.863 2.00087C17.9761 1.96732 18.0836 1.91713 18.1821 1.85194C18.2723 1.79208 18.352 1.71752 18.4177 1.63136C18.4827 1.54704 18.5323 1.45192 18.5643 1.35036C18.5991 1.24525 18.6167 1.13515 18.6162 1.0244C18.6179 0.888103 18.5921 0.752866 18.5404 0.626781C18.4894 0.504553 18.4083 0.39725 18.3048 0.314871C18.1837 0.220359 18.0445 0.151738 17.8959 0.113254C17.702 0.0619459 17.5018 0.0382963 17.3012 0.0430041H16.2598V3.46207H16.8952V2.12732H17.1666C17.2147 2.12454 17.2628 2.13346 17.3068 2.15331C17.3438 2.17435 17.3747 2.2046 17.3966 2.24113L18.114 3.33562C18.1373 3.37716 18.1718 3.41123 18.2137 3.43387C18.2555 3.4565 18.3029 3.46677 18.3504 3.46348H18.924L18.0705 2.19898ZM17.6035 1.62363C17.5026 1.65561 17.3972 1.6708 17.2914 1.66859H16.8952V0.534051H17.3012C17.486 0.5202 17.67 0.569749 17.823 0.674551C17.881 0.72301 17.9268 0.784421 17.9567 0.853846C17.9867 0.923271 18 0.998771 17.9955 1.07427C17.9962 1.15586 17.9817 1.23686 17.9527 1.31312C17.9247 1.38535 17.8803 1.45006 17.823 1.5021C17.7592 1.55774 17.6844 1.59917 17.6035 1.62363Z" fill="white"/>
</g>
</svg>
