<svg width="9" height="5" viewBox="0 0 9 5" fill="none" xmlns="http://www.w3.org/2000/svg">
<g opacity="0.95">
<path d="M3.0487 1.89064C2.98969 1.82397 2.91621 1.77173 2.8339 1.73794C2.64935 1.66762 2.44544 1.66762 2.26089 1.73794C2.17817 1.7717 2.10423 1.82393 2.0447 1.89064C1.98269 1.96094 1.93555 2.04311 1.90613 2.13217C1.84422 2.3424 1.84422 2.56605 1.90613 2.77627C1.93525 2.86547 1.98242 2.9477 2.0447 3.0178C2.10444 3.0841 2.17834 3.13605 2.26089 3.1698C2.44544 3.24013 2.64935 3.24013 2.8339 3.1698C2.91604 3.13602 2.98947 3.08406 3.0487 3.0178C3.11147 2.94805 3.15871 2.86571 3.18728 2.77627C3.2501 2.56618 3.2501 2.34226 3.18728 2.13217C3.1584 2.04287 3.1112 1.96059 3.0487 1.89064Z" fill="white"/>
<path d="M7.47833 0H1.18553C0.871107 0 0.569561 0.125114 0.347231 0.347822C0.124901 0.570531 0 0.87259 0 1.18755V3.72714C0 4.04209 0.124901 4.34415 0.347231 4.56686C0.569561 4.78957 0.871107 4.91469 1.18553 4.91469H7.47833C7.79275 4.91469 8.0943 4.78957 8.31663 4.56686C8.53896 4.34415 8.66386 4.04209 8.66386 3.72714V1.18755C8.66386 1.0316 8.63319 0.877173 8.57362 0.733093C8.51404 0.589013 8.42671 0.458097 8.31663 0.347822C8.20654 0.237548 8.07585 0.150076 7.93201 0.0903962C7.78818 0.0307163 7.63402 0 7.47833 0ZM3.62865 2.92063C3.57585 3.05905 3.49496 3.18499 3.39108 3.29048C3.2872 3.39597 3.16259 3.47872 3.02514 3.53349C2.7181 3.65192 2.37809 3.65192 2.07104 3.53349C1.93285 3.47802 1.80742 3.39489 1.70242 3.28918C1.59882 3.18395 1.51792 3.05851 1.46476 2.92063C1.35287 2.62194 1.35287 2.29275 1.46476 1.99405C1.51792 1.85618 1.59882 1.73073 1.70242 1.6255C1.80761 1.52002 1.93299 1.43692 2.07104 1.38119C2.37809 1.26276 2.7181 1.26276 3.02514 1.38119C3.16266 1.43623 3.28729 1.51923 3.39117 1.62496C3.49504 1.73068 3.5759 1.85683 3.62865 1.99544C3.68615 2.14243 3.71486 2.29914 3.71318 2.457C3.71478 2.61553 3.68608 2.7729 3.62865 2.92063ZM5.50707 1.68658H4.53148V2.31679H5.35255V2.68812H4.53148V3.59735H4.05824V1.31734H5.50707V1.68658ZM7.28294 1.68658H6.30735V2.31679H7.12565V2.68812H6.30735V3.59735H5.83342V1.31734H7.28294V1.68658Z" fill="white"/>
</g>
</svg>
