<svg width="20" height="5" viewBox="0 0 20 5" fill="none" xmlns="http://www.w3.org/2000/svg">
<path d="M2.73096 0.942603C2.70659 0.984408 2.67466 1.02116 2.63686 1.05093C2.60018 1.07692 2.55608 1.08986 2.5114 1.08775C2.45929 1.08602 2.40845 1.07092 2.36363 1.04385C2.31135 1.01482 2.2521 0.981544 2.18519 0.946143C2.11243 0.906645 2.03639 0.873713 1.95796 0.847726C1.86389 0.816862 1.76544 0.802029 1.6666 0.803828C1.51723 0.792269 1.36876 0.835753 1.24838 0.926318C1.20233 0.967372 1.1659 1.01838 1.14178 1.07559C1.11766 1.13281 1.10645 1.19478 1.10898 1.25697C1.10775 1.29748 1.11452 1.33784 1.12888 1.37566C1.14325 1.41348 1.16492 1.44799 1.19262 1.47717C1.25543 1.54116 1.32972 1.59236 1.41149 1.62798C1.5104 1.67461 1.61242 1.71412 1.71678 1.74622C1.83342 1.78162 1.95192 1.8208 2.07227 1.86375C2.19383 1.90706 2.31256 1.95814 2.42776 2.01669C2.54212 2.07352 2.64664 2.14884 2.73724 2.23972C2.82996 2.33487 2.904 2.44709 2.95541 2.57037C3.0147 2.7196 3.04317 2.87963 3.03905 3.0405C3.04054 3.23578 3.00505 3.42952 2.9345 3.61118C2.86726 3.78551 2.76467 3.94352 2.63338 4.07494C2.49381 4.21191 2.32763 4.31778 2.14546 4.38576C1.93497 4.46482 1.71185 4.50347 1.48746 4.49976C1.34911 4.4994 1.21112 4.48517 1.07552 4.45727C0.936916 4.42938 0.800951 4.38934 0.669149 4.33762C0.541324 4.28807 0.41815 4.22693 0.301117 4.15494C0.191617 4.08918 0.0904871 4.00999 0 3.91917L0.297631 3.44196C0.322615 3.4069 0.354702 3.37769 0.391731 3.35628C0.429595 3.33317 0.473023 3.32116 0.517197 3.32159C0.581502 3.32299 0.644098 3.34287 0.697727 3.37894C0.758369 3.41717 0.826677 3.45895 0.902653 3.50568C0.986789 3.55542 1.07493 3.59782 1.16613 3.63242C1.27796 3.67267 1.39603 3.6921 1.51465 3.68977C1.66596 3.6992 1.81592 3.656 1.93983 3.56728C1.99326 3.51918 2.03484 3.45902 2.06123 3.39163C2.08762 3.32425 2.09809 3.25151 2.09179 3.17928C2.09558 3.08819 2.06603 2.9989 2.00884 2.92863C1.94765 2.86039 1.8731 2.80589 1.78997 2.76862C1.69054 2.72263 1.58748 2.68521 1.48189 2.65675C1.36688 2.62489 1.24908 2.58595 1.1278 2.54984C1.00701 2.51138 0.88913 2.46405 0.775098 2.40823C0.660183 2.35118 0.555742 2.27455 0.466312 2.18166C0.371585 2.07921 0.297474 1.95895 0.248142 1.82764C0.188637 1.66172 0.160496 1.48589 0.165196 1.30936C0.165135 1.14335 0.198336 0.979053 0.26278 0.826486C0.329302 0.667739 0.427569 0.524763 0.551351 0.406622C0.686335 0.278065 0.845062 0.177956 1.01836 0.112082C1.22064 0.0352534 1.43534 -0.00221653 1.65126 0.00162847C1.78129 0.00151382 1.91112 0.0119311 2.03951 0.0327816C2.16161 0.053608 2.28172 0.0851149 2.39848 0.12695C2.50808 0.166634 2.61399 0.216156 2.71493 0.274929C2.80937 0.330065 2.8977 0.395342 2.97841 0.469637L2.73096 0.942603Z" fill="white"/>
<path d="M4.64431 0.833559V1.86091H6.00701V2.61567H4.64431V3.66427H6.42314V4.44948H3.63501V0.0469354H6.42314V0.833559H4.64431Z" fill="white"/>
<path d="M10.3244 0.857632H9.10531V4.44948H8.09949V0.857632H6.88039V0.0469354H10.3244V0.857632Z" fill="white"/>
<path d="M15.3402 0.857632H14.1239V4.44948H13.1153V0.857632H11.8934V0.0469354H15.3375L15.3402 0.857632Z" fill="white"/>
<path d="M19.9999 2.2475C20.0027 2.55127 19.9478 2.85274 19.8382 3.13537C19.7355 3.40483 19.5789 3.64973 19.3783 3.85459C19.1777 4.05945 18.9375 4.21982 18.6728 4.32557C18.0794 4.55614 17.4231 4.55614 16.8298 4.32557C16.564 4.22027 16.3226 4.06013 16.1208 3.85528C15.919 3.65042 15.7612 3.40529 15.6574 3.13537C15.4409 2.56389 15.4409 1.93111 15.6574 1.35963C15.7607 1.09281 15.9166 0.8502 16.1153 0.646638C16.3184 0.441025 16.5605 0.279612 16.827 0.172257C17.1207 0.0545114 17.4342 -0.00392983 17.7499 0.000205034C18.0648 -0.00384143 18.3774 0.0551008 18.67 0.173673C18.9354 0.282515 19.1767 0.444301 19.3795 0.64947C19.5771 0.853634 19.7321 1.09612 19.8354 1.36246C19.9457 1.644 20.0015 1.94449 19.9999 2.2475ZM18.9718 2.2475C18.9745 2.04836 18.9462 1.85004 18.8881 1.65983C18.8391 1.49726 18.7577 1.34665 18.649 1.21731C18.5443 1.09605 18.4133 1.00106 18.2664 0.939763C18.1033 0.872802 17.9286 0.839816 17.7527 0.842763C17.5749 0.839576 17.3984 0.872557 17.2334 0.939763C17.0861 1.00069 16.9548 1.09573 16.85 1.21731C16.7409 1.34642 16.6592 1.49709 16.6102 1.65983C16.4996 2.04452 16.4996 2.45331 16.6102 2.838C16.6592 3.00073 16.7409 3.1514 16.85 3.28052C16.9545 3.4021 17.0859 3.49674 17.2334 3.55665C17.3986 3.62303 17.5751 3.65551 17.7527 3.65223C17.9285 3.65533 18.1031 3.62283 18.2664 3.55665C18.4135 3.49636 18.5446 3.40177 18.649 3.28052C18.7577 3.15118 18.8391 3.00057 18.8881 2.838C18.9464 2.64685 18.9746 2.44757 18.9718 2.2475Z" fill="white"/>
</svg>
