<svg width="9" height="5" viewBox="0 0 9 5" fill="none" xmlns="http://www.w3.org/2000/svg">
<g opacity="0.95">
<path d="M2.18467 1.89272C2.16873 1.84344 2.15349 1.79 2.13825 1.73239C2.1237 1.79139 2.10845 1.84483 2.09182 1.8948C2.07519 1.94477 2.06064 1.9885 2.04609 2.0246L1.8015 2.71866H2.47707L2.23456 2.02112C2.21654 1.98503 2.20061 1.94131 2.18467 1.89272Z" fill="white"/>
<path d="M7.47833 0H1.18553C0.871107 0 0.569561 0.125117 0.347231 0.347825C0.124901 0.570534 0 0.872593 0 1.18755V3.72714C0 4.0421 0.124901 4.34415 0.347231 4.56686C0.569561 4.78957 0.871107 4.91469 1.18553 4.91469H7.47833C7.79275 4.91469 8.0943 4.78957 8.31663 4.56686C8.53896 4.34415 8.66386 4.0421 8.66386 3.72714V1.18755C8.66386 1.0316 8.63319 0.877173 8.57362 0.733093C8.51404 0.589013 8.42671 0.458099 8.31663 0.347825C8.20654 0.237551 8.07585 0.150079 7.93201 0.0903989C7.78818 0.030719 7.63402 0 7.47833 0ZM2.90528 3.58486C2.86971 3.58648 2.83462 3.57622 2.8055 3.55571C2.77992 3.53655 2.76023 3.51057 2.74868 3.48075L2.59417 3.04626H1.6851L1.53128 3.48075C1.51917 3.50813 1.50034 3.53201 1.47654 3.55015C1.44819 3.57195 1.41318 3.58323 1.37746 3.58208H1.00884L1.89851 1.30207H2.38007L3.26765 3.58208L2.90528 3.58486ZM5.31237 2.66244C5.31285 2.79287 5.28937 2.92227 5.24308 3.04418C5.20059 3.15566 5.13574 3.25723 5.05253 3.34262C4.9668 3.42823 4.86445 3.49532 4.75182 3.53974C4.49274 3.63322 4.20922 3.63322 3.95015 3.53974C3.83721 3.49551 3.7346 3.4284 3.64874 3.34262C3.56508 3.25759 3.50016 3.15592 3.4582 3.04418C3.41158 2.92236 3.38809 2.7929 3.38891 2.66244V1.30485H3.85938V2.66244C3.85846 2.7391 3.86944 2.81543 3.89194 2.88871C3.91184 2.95177 3.94437 3.01011 3.98756 3.06014C4.03013 3.10775 4.08298 3.14502 4.14208 3.16911C4.2748 3.22001 4.42162 3.22001 4.55435 3.16911C4.61305 3.14465 4.66559 3.10743 4.70817 3.06014C4.75136 3.01011 4.78389 2.95177 4.80379 2.88871C4.82629 2.81543 4.83727 2.7391 4.83635 2.66244V1.30485H5.30682L5.31237 2.66244ZM7.18732 3.58486C7.15978 3.58577 7.13272 3.57746 7.11041 3.56126C7.09205 3.54583 7.07657 3.52726 7.06468 3.50642L6.57203 2.6673C6.56718 2.6791 6.56164 2.6902 6.55748 2.70131C6.55262 2.71185 6.54707 2.72205 6.54085 2.73185L6.07315 3.50642C6.05971 3.52653 6.04363 3.54474 6.02535 3.56056C6.00603 3.57695 5.98136 3.5856 5.95606 3.58486H5.51677L6.26162 2.41119L5.54517 1.30485H6.01634C6.04011 1.30318 6.06392 1.30747 6.08563 1.31734C6.10171 1.3276 6.11504 1.34166 6.12443 1.35829L6.6143 2.16479C6.61915 2.1523 6.62539 2.13911 6.63093 2.12593C6.63647 2.11274 6.64478 2.09955 6.65379 2.08567L7.09239 1.36662C7.10275 1.34831 7.11693 1.33244 7.13396 1.32012C7.15081 1.30971 7.1703 1.3044 7.19009 1.30485H7.64047L6.91293 2.39314L7.65432 3.58763L7.18732 3.58486Z" fill="white"/>
</g>
</svg>
