<svg width="5" height="6" viewBox="0 0 5 6" fill="none" xmlns="http://www.w3.org/2000/svg">
<g opacity="0.902">
<path fill-rule="evenodd" clip-rule="evenodd" d="M0.848094 2.00898V1.39126C0.848094 1.02227 0.994423 0.668401 1.25489 0.40749C1.51536 0.146579 1.86863 0 2.23699 0C2.60534 0 2.95861 0.146579 3.21908 0.40749C3.47955 0.668401 3.62588 1.02227 3.62588 1.39126V2.00898H3.67646C3.88816 2.00898 4.09118 2.09322 4.24088 2.24317C4.39057 2.39311 4.47466 2.59648 4.47466 2.80854V4.99693C4.47466 5.20899 4.39057 5.41237 4.24088 5.56231C4.09118 5.71226 3.88816 5.7965 3.67646 5.7965H0.798206C0.586509 5.7965 0.383482 5.71226 0.233789 5.56231C0.0840963 5.41237 0 5.20899 0 4.99693V2.80854C0 2.59648 0.0840963 2.39311 0.233789 2.24317C0.383482 2.09322 0.586509 2.00898 0.798206 2.00898H0.848094ZM1.59641 1.39126C1.59359 1.30522 1.60806 1.21949 1.63898 1.13916C1.6699 1.05884 1.71664 0.985574 1.7764 0.923709C1.83616 0.861843 1.90773 0.812648 1.98686 0.779051C2.06598 0.745455 2.15105 0.728142 2.23699 0.728142C2.32293 0.728142 2.40799 0.745455 2.48711 0.779051C2.56624 0.812648 2.63781 0.861843 2.69757 0.923709C2.75734 0.985574 2.80407 1.05884 2.83499 1.13916C2.86591 1.21949 2.88039 1.30522 2.87756 1.39126V2.00898H1.59641V1.39126Z" fill="white"/>
</g>
</svg>
