<svg width="8" height="6" viewBox="0 0 8 6" fill="none" xmlns="http://www.w3.org/2000/svg">
<g opacity="0.95">
<path d="M4.85219 0.489316H2.77353C2.49788 0.489316 2.23352 0.599002 2.03861 0.794246C1.8437 0.98949 1.7342 1.2543 1.7342 1.53042V3.61262C1.7342 3.88873 1.8437 4.15354 2.03861 4.34879C2.23352 4.54403 2.49788 4.65372 2.77353 4.65372H4.85219C5.12784 4.65372 5.3922 4.54403 5.58711 4.34879C5.78202 4.15354 5.89152 3.88873 5.89152 3.61262V1.53042C5.89152 1.2543 5.78202 0.98949 5.58711 0.794246C5.3922 0.599002 5.12784 0.489316 4.85219 0.489316ZM2.89756 3.4162L2.67583 3.63483C2.40634 3.34713 2.25635 2.96742 2.25635 2.5729C2.25635 2.17839 2.40634 1.79868 2.67583 1.51098L2.89756 1.72961C2.68598 1.95944 2.56851 2.26062 2.56851 2.57325C2.56851 2.88588 2.68598 3.18706 2.89756 3.41689V3.4162ZM3.81217 3.26697C3.67513 3.26697 3.54116 3.22626 3.42722 3.15C3.31327 3.07373 3.22447 2.96534 3.17202 2.83851C3.11958 2.71169 3.10586 2.57214 3.13259 2.4375C3.15933 2.30286 3.22532 2.17919 3.32222 2.08213C3.41912 1.98506 3.54258 1.91895 3.67699 1.89217C3.8114 1.86539 3.95071 1.87914 4.07732 1.93167C4.20393 1.9842 4.31215 2.07316 4.38828 2.1873C4.46442 2.30144 4.50505 2.43563 4.50505 2.5729C4.50505 2.66405 4.48713 2.7543 4.45231 2.83851C4.41749 2.92272 4.36645 2.99923 4.30211 3.06368C4.23777 3.12813 4.16139 3.17926 4.07732 3.21414C3.99326 3.24902 3.90316 3.26697 3.81217 3.26697ZM4.94919 3.63483L4.73094 3.41273C4.94249 3.18427 5.06004 2.88417 5.06004 2.57256C5.06004 2.26095 4.94249 1.96085 4.73094 1.73239L4.94919 1.51098C5.21858 1.79887 5.36849 2.17867 5.36849 2.57325C5.36849 2.96783 5.21858 3.34763 4.94919 3.63552V3.63483Z" fill="white"/>
<path d="M1.02607 2.7178e-08C0.367337 0.69397 0 1.61496 0 2.57256C0 3.53016 0.367337 4.45115 1.02607 5.14512L1.56652 4.61068C1.04967 4.05832 0.762047 3.32962 0.762047 2.57256C0.762047 1.81549 1.04967 1.08679 1.56652 0.534429L1.02607 2.7178e-08Z" fill="white"/>
<path d="M6.60242 0L6.06197 0.534429C6.5779 1.08726 6.86491 1.81578 6.86491 2.57256C6.86491 3.32934 6.5779 4.05785 6.06197 4.61068L6.59896 5.14512C7.25722 4.45111 7.62454 3.53055 7.62518 2.57325C7.62583 1.61595 7.25975 0.694895 6.60242 0Z" fill="white"/>
</g>
</svg>
