<svg width="25" height="4" viewBox="0 0 25 4" fill="none" xmlns="http://www.w3.org/2000/svg">
<g opacity="0.95">
<path d="M2.80953 1.74466C2.81209 1.57374 2.7865 1.40356 2.73379 1.24097C2.68873 1.10081 2.61572 0.97127 2.51919 0.860215C2.42536 0.755798 2.30905 0.674122 2.17906 0.621365C2.03646 0.56405 1.88386 0.535866 1.73023 0.53847C1.57592 0.536017 1.42266 0.564191 1.27929 0.621365C1.14979 0.675024 1.03367 0.756568 0.939153 0.860215C0.842623 0.97127 0.769614 1.10081 0.724554 1.24097C0.671845 1.40356 0.646254 1.57374 0.648811 1.74466C0.646959 1.91559 0.672775 2.0857 0.725255 2.24835C0.770642 2.38753 0.843635 2.51608 0.939854 2.6263C1.03485 2.72888 1.15088 2.80964 1.27999 2.86304C1.42302 2.9219 1.5763 2.95175 1.73093 2.95085C1.88456 2.95346 2.03716 2.92527 2.17976 2.86796C2.30935 2.81545 2.42557 2.73456 2.5199 2.63122C2.61669 2.51955 2.68971 2.38927 2.73449 2.24835C2.7865 2.08562 2.81184 1.91552 2.80953 1.74466ZM3.45894 1.74466C3.46108 1.98301 3.4185 2.21964 3.33341 2.44224C3.25642 2.64958 3.13705 2.83854 2.98296 2.99701C2.82886 3.15548 2.64344 3.27997 2.43854 3.36252C1.98314 3.53578 1.48012 3.53578 1.02471 3.36252C0.819246 3.27998 0.633157 3.15554 0.47826 2.99712C0.323364 2.83869 0.203042 2.64973 0.124936 2.44224C0.0400725 2.2196 -0.00227264 1.98297 0.000104392 1.74466C-0.0023936 1.50703 0.0399599 1.27106 0.124936 1.04919C0.203243 0.842183 0.322516 0.653172 0.475589 0.49351C0.630972 0.335449 0.817503 0.211521 1.02331 0.129615C1.24824 0.0397819 1.48882 -0.00416366 1.73093 0.000354775C1.89658 -0.000989213 2.06167 0.0198007 2.22184 0.0621748C2.36924 0.0991993 2.51083 0.156406 2.64262 0.23218C2.76952 0.303912 2.8851 0.394112 2.98556 0.499832C3.08795 0.604252 3.17529 0.722475 3.24505 0.851082C3.31702 0.983818 3.37103 1.12556 3.40564 1.27258C3.44269 1.42717 3.46082 1.58569 3.45965 1.74466H3.45894Z" fill="white"/>
<path d="M5.39104 2.94172C5.50351 2.94381 5.61522 2.92277 5.71925 2.8799C5.81324 2.84196 5.89724 2.78282 5.96471 2.70709C6.03365 2.62915 6.08528 2.53744 6.11619 2.43803C6.15336 2.32472 6.17161 2.20604 6.17019 2.08678V0.0347773H6.80698V2.08327C6.80845 2.27507 6.77494 2.46553 6.70809 2.64527C6.64695 2.81336 6.5506 2.9664 6.42553 3.09411C6.30045 3.22182 6.14955 3.32124 5.98294 3.3857C5.60071 3.52431 5.18207 3.52431 4.79984 3.3857C4.6327 3.31969 4.48089 3.21998 4.35381 3.09276C4.23147 2.96381 4.13609 2.81167 4.07329 2.64527C4.00781 2.46522 3.97504 2.27488 3.97651 2.08327V0.0347773H4.61189V2.08046C4.61074 2.19954 4.62825 2.31806 4.66379 2.43171C4.6967 2.53153 4.74889 2.62391 4.81737 2.70357C4.88552 2.77855 4.96933 2.83755 5.06283 2.87639C5.16676 2.91995 5.27837 2.94217 5.39104 2.94172Z" fill="white"/>
<path d="M9.90675 0.557437H8.87723V3.45455H8.24185V0.557437H7.21233V0.0347773H9.90675V0.557437Z" fill="white"/>
<path d="M12.733 1.74466C12.7354 1.5738 12.7101 1.40368 12.658 1.24097C12.6144 1.10064 12.5409 0.971451 12.4427 0.862322C12.349 0.757757 12.2326 0.676055 12.1025 0.623472C11.96 0.56667 11.8077 0.538734 11.6544 0.54128H10.991V2.95085H11.6544C11.8078 2.95352 11.9602 2.92533 12.1025 2.86796C12.2322 2.81564 12.3485 2.73472 12.4427 2.63122C12.541 2.5205 12.6144 2.38994 12.658 2.24835C12.7096 2.08554 12.735 1.91549 12.733 1.74466ZM13.3852 1.74466C13.3878 1.98077 13.3452 2.21519 13.2597 2.43522C13.1813 2.63904 13.0609 2.82402 12.9063 2.9781C12.7518 3.13219 12.5666 3.25192 12.3627 3.3295C12.1366 3.41542 11.8963 3.45784 11.6544 3.45455H10.3535V0.0347772H11.6544C11.8965 0.031642 12.1369 0.0750442 12.3627 0.162632C12.566 0.240292 12.7507 0.359741 12.9051 0.513282C13.0595 0.666824 13.18 0.851054 13.259 1.0541C13.3447 1.27411 13.3875 1.50851 13.3852 1.74466Z" fill="white"/>
<path d="M16.5551 1.74466C16.5577 1.57374 16.5321 1.40356 16.4794 1.24097C16.4343 1.10081 16.3613 0.97127 16.2648 0.860215C16.1709 0.755798 16.0546 0.674122 15.9246 0.621365C15.782 0.56405 15.6294 0.535866 15.4758 0.53847C15.3215 0.536017 15.1683 0.564191 15.0249 0.621365C14.8954 0.675024 14.7793 0.756568 14.6847 0.860215C14.5882 0.97127 14.5152 1.10081 14.4701 1.24097C14.4174 1.40356 14.3918 1.57374 14.3944 1.74466C14.3914 1.9154 14.416 2.0855 14.4673 2.24835C14.5127 2.38753 14.5857 2.51608 14.6819 2.6263C14.7769 2.72888 14.893 2.80964 15.0221 2.86304C15.1651 2.9219 15.3184 2.95175 15.473 2.95085C15.6266 2.95346 15.7792 2.92527 15.9218 2.86796C16.0514 2.81545 16.1677 2.73456 16.262 2.63122C16.3588 2.51955 16.4318 2.38927 16.4766 2.24835C16.5298 2.08581 16.5563 1.91571 16.5551 1.74466ZM17.2045 1.74466C17.2067 1.98301 17.1641 2.21964 17.079 2.44224C17.002 2.64958 16.8826 2.83854 16.7285 2.99701C16.5744 3.15548 16.389 3.27997 16.1841 3.36252C15.7287 3.53578 15.2257 3.53578 14.7703 3.36252C14.5648 3.27998 14.3787 3.15554 14.2238 2.99712C14.069 2.83869 13.9486 2.64973 13.8705 2.44224C13.7857 2.2196 13.7433 1.98297 13.7457 1.74466C13.7432 1.50703 13.7856 1.27106 13.8705 1.04919C13.9488 0.842183 14.0681 0.653172 14.2212 0.49351C14.3766 0.335449 14.5631 0.211522 14.7689 0.129615C14.9927 0.0402411 15.2321 -0.00369605 15.473 0.000354802C15.6387 -0.000989187 15.8038 0.0198007 15.9639 0.0621748C16.1113 0.0991994 16.2529 0.156406 16.3847 0.23218C16.5116 0.303912 16.6272 0.394112 16.7276 0.499832C16.8298 0.604434 16.9171 0.722627 16.9871 0.851082C17.0591 0.983818 17.1131 1.12556 17.1477 1.27258C17.1848 1.42717 17.2029 1.58569 17.2017 1.74466H17.2045Z" fill="white"/>
<path d="M20.366 1.74466C20.3686 1.57374 20.343 1.40356 20.2903 1.24097C20.2452 1.10081 20.1722 0.97127 20.0757 0.860215C19.9818 0.755798 19.8655 0.674122 19.7355 0.621365C19.5929 0.56405 19.4403 0.535866 19.2867 0.53847C19.1324 0.536017 18.9791 0.564191 18.8358 0.621365C18.7063 0.675024 18.5901 0.756568 18.4956 0.860215C18.3991 0.97127 18.3261 1.10081 18.281 1.24097C18.2283 1.40356 18.2027 1.57374 18.2053 1.74466C18.2032 1.91556 18.2288 2.08566 18.281 2.24835C18.3264 2.38753 18.3994 2.51608 18.4956 2.6263C18.5906 2.72888 18.7067 2.80964 18.8358 2.86304C18.9799 2.92236 19.1344 2.95221 19.2902 2.95085C19.4438 2.95346 19.5964 2.92527 19.7391 2.86796C19.8686 2.81545 19.9849 2.73456 20.0792 2.63122C20.1747 2.51924 20.2465 2.38899 20.2903 2.24835C20.3425 2.08566 20.3681 1.91556 20.366 1.74466ZM21.0154 1.74466C21.0176 1.98301 20.975 2.21964 20.8899 2.44224C20.8129 2.64958 20.6935 2.83854 20.5394 2.99701C20.3853 3.15548 20.1999 3.27997 19.995 3.36252C19.5396 3.53578 19.0366 3.53578 18.5812 3.36252C18.3756 3.28028 18.1893 3.15595 18.0344 2.99748C17.8794 2.83902 17.7592 2.64991 17.6814 2.44224C17.5963 2.21964 17.5537 1.98301 17.5559 1.74466C17.5536 1.50698 17.5962 1.27102 17.6814 1.04919C17.76 0.842296 17.8792 0.653327 18.0321 0.49351C18.1878 0.33559 18.3746 0.211691 18.5805 0.129615C18.8061 0.0395052 19.0474 -0.00444535 19.2902 0.000354786C19.4559 -0.000989203 19.621 0.0198007 19.7811 0.0621748C19.9285 0.0991993 20.0701 0.156406 20.2019 0.23218C20.3288 0.303912 20.4444 0.394112 20.5449 0.499832C20.647 0.604434 20.7343 0.722627 20.8043 0.851082C20.8763 0.983818 20.9303 1.12556 20.9649 1.27258C21.0008 1.42731 21.0178 1.58583 21.0154 1.74466Z" fill="white"/>
<path d="M24.2386 3.45455H23.665C23.6174 3.45798 23.5699 3.44778 23.5279 3.42514C23.4859 3.40249 23.4512 3.36835 23.4279 3.32669L22.7112 2.2322C22.6891 2.19583 22.6582 2.16562 22.6214 2.14438C22.5774 2.12461 22.5293 2.1157 22.4812 2.11839H22.2097V3.45314H21.5744V0.0347773H22.6144C22.8149 0.0300695 23.0152 0.0537191 23.2091 0.105027C23.3576 0.143317 23.4966 0.211961 23.6173 0.306645C23.7212 0.388807 23.8026 0.496156 23.8536 0.618555C23.9053 0.744639 23.9311 0.879877 23.9294 1.01617C23.9299 1.12693 23.9123 1.23703 23.8775 1.34213C23.8456 1.44376 23.796 1.53891 23.7309 1.62313C23.6651 1.70947 23.5852 1.78405 23.4945 1.84371C23.3963 1.90884 23.289 1.95903 23.1761 1.99264C23.2171 2.01621 23.2551 2.04476 23.2891 2.07765C23.3254 2.11101 23.3573 2.14904 23.3837 2.19075L24.2386 3.45455ZM22.6046 1.66177C22.7104 1.66398 22.8158 1.64879 22.9167 1.61681C22.9977 1.59177 23.0725 1.54988 23.1362 1.49387C23.1933 1.44164 23.2377 1.377 23.2659 1.3049C23.2946 1.22859 23.3089 1.14759 23.308 1.06605C23.3124 0.990622 23.2991 0.915211 23.2693 0.845817C23.2395 0.776423 23.1939 0.714962 23.1362 0.666325C22.9832 0.561522 22.7992 0.511974 22.6144 0.525825H22.2083V1.66177H22.6046Z" fill="white"/>
</g>
</svg>
