<svg width="18" height="7" viewBox="0 0 18 7" fill="none" xmlns="http://www.w3.org/2000/svg">
<g opacity="0.95">
<path d="M3.69189 4.55469C3.69477 4.50544 3.686 4.45622 3.66629 4.41093C3.64658 4.36564 3.61648 4.32555 3.57838 4.29387C3.47763 4.22531 3.35624 4.19313 3.23446 4.20268H2.96419V4.94425H3.22568C3.29439 4.94518 3.36282 4.93522 3.42838 4.91475C3.4818 4.89845 3.5311 4.87102 3.57297 4.83429C3.61083 4.80033 3.64021 4.75809 3.65878 4.71092C3.67977 4.66142 3.69101 4.60839 3.69189 4.55469Z" fill="white"/>
<path d="M7.41216 4.30795C7.37142 4.27205 7.3232 4.24549 7.27095 4.23018C7.20519 4.21078 7.13683 4.20151 7.06824 4.20268H6.7554V5.00728H7.07027C7.13892 5.00868 7.20735 4.99917 7.27297 4.97912C7.32345 4.9606 7.36948 4.93183 7.40811 4.89464C7.4465 4.85874 7.47589 4.81442 7.49392 4.76523C7.51322 4.71007 7.5226 4.65197 7.52162 4.59358C7.52263 4.53826 7.51324 4.48323 7.49392 4.43132C7.47687 4.38436 7.44886 4.34209 7.41216 4.30795Z" fill="white"/>
<path d="M10.7554 4.41121C10.7405 4.36561 10.7264 4.31666 10.7115 4.26437C10.698 4.31666 10.6845 4.36628 10.6696 4.41255C10.6547 4.45881 10.6412 4.4977 10.6277 4.5319L10.3574 5.26944H11.0736L10.7993 4.52653C10.7865 4.49569 10.7696 4.4568 10.7554 4.41121Z" fill="white"/>
<path d="M2.49527 2.82011H3.10878L3.58041 1.10364H2.49527V2.82011Z" fill="white"/>
<path d="M16.8324 1.95945e-07H1.16757C0.857912 1.95945e-07 0.560934 0.122068 0.341972 0.339352C0.123011 0.556635 0 0.851338 0 1.15862V5.84138C0 6.14867 0.123011 6.44336 0.341972 6.66065C0.560934 6.87793 0.857912 7 1.16757 7H16.8324C17.1421 7 17.4391 6.87793 17.658 6.66065C17.877 6.44336 18 6.14867 18 5.84138V1.16063C18.0004 1.00829 17.9704 0.85737 17.9119 0.716527C17.8534 0.575685 17.7674 0.447687 17.6589 0.339868C17.5505 0.23205 17.4216 0.146527 17.2798 0.0882066C17.138 0.0298861 16.986 -8.84273e-05 16.8324 1.95945e-07ZM2.16487 2.98774V0.960158C2.16487 0.947478 2.16738 0.934923 2.17227 0.923208C2.17716 0.911494 2.18433 0.900847 2.19336 0.891881C2.2024 0.882916 2.21312 0.875806 2.22493 0.870954C2.23673 0.866102 2.24938 0.863603 2.26216 0.863603H8.39189C8.40469 0.863514 8.41739 0.865949 8.42923 0.87077C8.44108 0.87559 8.45184 0.882698 8.46089 0.891682C8.46994 0.900665 8.47711 0.911347 8.48197 0.923101C8.48683 0.934856 8.48928 0.947453 8.48919 0.960158V1.44291H8.78108V2.50498H8.48919V2.98774C8.48919 3.01335 8.47894 3.0379 8.46069 3.05601C8.44245 3.07412 8.41769 3.08429 8.39189 3.08429H2.26216C2.23641 3.08412 2.21177 3.07389 2.19356 3.05582C2.17535 3.03775 2.16504 3.01329 2.16487 2.98774ZM3.92162 6.11494C3.89044 6.11713 3.85928 6.11048 3.83176 6.09575C3.80424 6.08103 3.78151 6.05885 3.76622 6.0318L3.29324 5.31638C3.27886 5.29272 3.25863 5.27311 3.23446 5.25939C3.20515 5.24657 3.1732 5.24082 3.14122 5.24262H2.96216V6.11427H2.54324V3.88151H3.22973C3.36218 3.87912 3.49432 3.89514 3.6223 3.92912C3.72069 3.95498 3.81268 4.00063 3.89257 4.06322C3.96072 4.11627 4.01438 4.18543 4.04865 4.26437C4.0824 4.34672 4.09917 4.43495 4.09797 4.52385C4.0983 4.59626 4.08689 4.66825 4.06419 4.73707C4.04276 4.80291 4.01007 4.8646 3.96757 4.91945C3.92413 4.97572 3.87135 5.02424 3.81149 5.06293C3.747 5.10605 3.67609 5.13886 3.60135 5.16016C3.6283 5.17597 3.65345 5.19462 3.67635 5.2158C3.70019 5.23788 3.72108 5.26289 3.73852 5.29023L4.30203 6.11494H3.92162ZM5.96284 4.21207H4.96621V4.83161H5.75405V5.15144H4.96621V5.78304H5.96554V6.11494H4.54662V3.88151H5.96554L5.96284 4.21207ZM7.88851 4.89464C7.85293 4.98317 7.7972 5.06234 7.72567 5.12596C7.64581 5.1948 7.55239 5.2464 7.45135 5.27749C7.32742 5.31593 7.19806 5.33427 7.06824 5.3318H6.75541V6.11494H6.33648V3.88151H7.07027C7.20261 3.87897 7.33455 3.89661 7.46148 3.93381C7.56084 3.96369 7.65287 4.01369 7.73176 4.08065C7.80211 4.14204 7.85657 4.2193 7.89054 4.30594C7.92638 4.39762 7.94427 4.49525 7.94325 4.59359C7.94467 4.69649 7.92609 4.79871 7.88851 4.89464ZM9.58311 6.11762H8.26419V3.88151H8.68311V5.77232H9.58311V6.11762ZM11.4872 6.11762C11.4555 6.11916 11.4243 6.10994 11.3986 6.09148C11.3759 6.07381 11.358 6.05075 11.3466 6.02442L11.1791 5.56513H10.2459L10.0777 6.02107C10.0679 6.0474 10.0511 6.07058 10.0291 6.08812C10.0039 6.10784 9.97255 6.11806 9.94054 6.11695H9.61352L10.4993 3.88352H10.9257L11.8101 6.11695L11.4872 6.11762ZM13.4108 6.05057C13.2591 6.11378 13.0956 6.14418 12.9311 6.13975C12.7764 6.14221 12.6228 6.11324 12.4797 6.0546C12.3516 6.00049 12.2364 5.92005 12.1419 5.81858C12.0451 5.71412 11.9708 5.59114 11.9236 5.45718C11.8724 5.30968 11.8471 5.15457 11.8486 4.99856C11.8467 4.84136 11.8742 4.68516 11.9297 4.53793C11.9801 4.40336 12.0576 4.28039 12.1574 4.17653C12.2567 4.07478 12.3764 3.99484 12.5088 3.94186C12.6519 3.8836 12.8054 3.85464 12.9601 3.85671C13.1096 3.85396 13.2581 3.88133 13.3966 3.93717C13.5172 3.98637 13.6274 4.05755 13.7216 4.14703L13.5818 4.34013C13.5728 4.35279 13.5616 4.36371 13.5486 4.37232C13.5331 4.38267 13.5146 4.38762 13.4959 4.3864C13.4792 4.38613 13.4628 4.382 13.448 4.37433C13.4311 4.36494 13.4128 4.35422 13.3932 4.34148C13.3736 4.32874 13.3507 4.31399 13.3257 4.29856C13.2969 4.28182 13.2666 4.2679 13.2351 4.257C13.1953 4.2423 13.1541 4.2313 13.1122 4.22414C13.0607 4.21439 13.0084 4.2099 12.9561 4.21073C12.861 4.2094 12.7667 4.22766 12.6791 4.26437C12.5964 4.29891 12.5229 4.35191 12.4642 4.41925C12.401 4.4911 12.3534 4.57509 12.3243 4.66599C12.2892 4.77426 12.2723 4.88753 12.2743 5.00124C12.2725 5.11516 12.2903 5.22855 12.327 5.33649C12.3595 5.42731 12.4093 5.51108 12.4736 5.58324C12.5338 5.64951 12.6075 5.70232 12.6899 5.73813C12.7754 5.77367 12.8674 5.79147 12.9601 5.79042C13.0119 5.79066 13.0636 5.78752 13.1149 5.78103C13.1581 5.7757 13.2007 5.76581 13.2419 5.75153C13.2806 5.73866 13.3178 5.72157 13.3527 5.70058C13.3898 5.67779 13.4247 5.65152 13.4568 5.62213C13.4667 5.61325 13.4778 5.6058 13.4899 5.6C13.5009 5.59413 13.5132 5.59113 13.5257 5.59128C13.5371 5.59131 13.5483 5.59364 13.5588 5.59814C13.5693 5.60264 13.5787 5.6092 13.5865 5.61744L13.7514 5.79512C13.6597 5.90575 13.543 5.99328 13.4108 6.05057ZM15.4554 4.21207H14.4554V4.83161H15.2459V5.15144H14.4554V5.78304H15.4554V6.11494H14.0365V3.88151H15.4554V4.21207ZM15.8351 2.50498H15.5432V2.98774C15.5432 3.01335 15.533 3.0379 15.5147 3.05601C15.4965 3.07412 15.4717 3.08429 15.4459 3.08429H9.31622C9.29047 3.08412 9.26582 3.07389 9.24761 3.05582C9.22941 3.03775 9.2191 3.01329 9.21892 2.98774V0.960158C9.21892 0.934551 9.22917 0.909988 9.24742 0.891881C9.26567 0.873774 9.29041 0.863603 9.31622 0.863603H15.4486C15.4614 0.863514 15.4741 0.865949 15.486 0.87077C15.4978 0.87559 15.5086 0.882698 15.5176 0.891682C15.5267 0.900665 15.5339 0.911347 15.5387 0.923101C15.5436 0.934856 15.546 0.947453 15.5459 0.960158V1.44291H15.8378L15.8351 2.50498Z" fill="white"/>
<path d="M9.54932 2.82011H10.1628L10.6345 1.10364H9.54932V2.82011Z" fill="white"/>
</g>
</svg>
