<svg width="8" height="4" viewBox="0 0 8 4" fill="none" xmlns="http://www.w3.org/2000/svg">
<path d="M3.61204 1.8C3.61204 2.05819 3.56848 2.2977 3.48136 2.51854C3.39589 2.73775 3.27426 2.92774 3.11646 3.0885C2.95867 3.24926 2.76882 3.3751 2.54692 3.46604C2.32502 3.55535 2.07846 3.6 1.80725 3.6C1.53768 3.6 1.29195 3.55535 1.07005 3.46604C0.848151 3.3751 0.657481 3.24926 0.498042 3.0885C0.340247 2.92774 0.217791 2.73775 0.130674 2.51854C0.0435582 2.2977 0 2.05819 0 1.8C0 1.54181 0.0435582 1.30311 0.130674 1.0839C0.217791 0.863058 0.340247 0.67226 0.498042 0.511502C0.657481 0.350744 0.848151 0.22571 1.07005 0.136401C1.29195 0.0454668 1.53768 0 1.80725 0C1.98806 0 2.15818 0.0211095 2.31762 0.0633286C2.47706 0.103924 2.62335 0.162382 2.75649 0.238701C2.88963 0.313396 3.0088 0.405142 3.114 0.513938C3.22084 0.62111 3.31124 0.741272 3.38521 0.874425C3.45917 1.00758 3.51506 1.1521 3.55287 1.30798C3.59231 1.46387 3.61204 1.62788 3.61204 1.8ZM2.93401 1.8C2.93401 1.60677 2.90771 1.43383 2.85511 1.28119C2.80252 1.12693 2.72773 0.996211 2.63075 0.889039C2.53377 0.781867 2.41542 0.699865 2.27571 0.643031C2.13764 0.586197 1.98148 0.557781 1.80725 0.557781C1.63302 0.557781 1.47605 0.586197 1.33633 0.643031C1.19826 0.699865 1.07991 0.781867 0.981291 0.889039C0.884313 0.996211 0.809524 1.12693 0.756926 1.28119C0.704327 1.43383 0.678028 1.60677 0.678028 1.8C0.678028 1.99323 0.704327 2.16698 0.756926 2.32124C0.809524 2.47388 0.884313 2.60379 0.981291 2.71096C1.07991 2.81651 1.19826 2.8977 1.33633 2.95453C1.47605 3.01137 1.63302 3.03978 1.80725 3.03978C1.98148 3.03978 2.13764 3.01137 2.27571 2.95453C2.41542 2.8977 2.53377 2.81651 2.63075 2.71096C2.72773 2.60379 2.80252 2.47388 2.85511 2.32124C2.90771 2.16698 2.93401 1.99323 2.93401 1.8Z" fill="white"/>
<path d="M7.2 0.0389714V3.56103H6.85975C6.80716 3.56103 6.76278 3.55291 6.72661 3.53667C6.6921 3.51881 6.6584 3.48958 6.62553 3.44899L4.76403 1.10095C4.77389 1.20812 4.77882 1.30717 4.77882 1.39811V3.56103H4.19449V0.0389714H4.54213C4.57007 0.0389714 4.59391 0.0405952 4.61363 0.0438428C4.635 0.0454667 4.65308 0.0503381 4.66787 0.0584572C4.68431 0.0649526 4.69993 0.0755074 4.71472 0.0901216C4.72951 0.103112 4.74595 0.120974 4.76403 0.143707L6.63292 2.50149C6.62799 2.44465 6.62388 2.38863 6.62059 2.33342C6.61731 2.27821 6.61566 2.22706 6.61566 2.17997V0.0389714H7.2Z" fill="white"/>
</svg>
