<svg width="8" height="6" viewBox="0 0 8 6" fill="none" xmlns="http://www.w3.org/2000/svg">
<g opacity="0.95">
<path d="M3.69626 3.72028C3.51374 3.72195 3.33356 3.76162 3.16716 3.83678C3.00076 3.91193 2.85178 4.02093 2.72969 4.15684C2.72769 4.15902 2.72658 4.16187 2.72658 4.16483C2.72658 4.16778 2.72769 4.17063 2.72969 4.17281L3.68795 5.22987C3.69027 5.23212 3.69338 5.23338 3.69661 5.23338C3.69984 5.23338 3.70295 5.23212 3.70527 5.22987L4.66353 4.17211C4.66553 4.16994 4.66664 4.16709 4.66664 4.16413C4.66664 4.16118 4.66553 4.15833 4.66353 4.15615C4.5413 4.02028 4.39218 3.91136 4.22566 3.83632C4.05914 3.76128 3.87885 3.72176 3.69626 3.72028Z" fill="white"/>
<path d="M7.38935 1.52911C6.40887 0.54988 5.08081 0 3.69626 0C2.31172 0 0.983653 0.54988 0.00317591 1.52911C0.0011307 1.5314 0 1.53436 0 1.53744C0 1.54051 0.0011307 1.54347 0.00317591 1.54576L0.689827 2.23428C0.692113 2.23633 0.695074 2.23746 0.698142 2.23746C0.701209 2.23746 0.70417 2.23633 0.706456 2.23428C1.50054 1.44213 2.57558 0.997382 3.69626 0.997382C4.81695 0.997382 5.89199 1.44213 6.68607 2.23428C6.68836 2.23633 6.69132 2.23746 6.69438 2.23746C6.69745 2.23746 6.70041 2.23633 6.7027 2.23428L7.38935 1.54576C7.39053 1.54472 7.39147 1.54344 7.39212 1.542C7.39277 1.54057 7.3931 1.53901 7.3931 1.53744C7.3931 1.53586 7.39277 1.5343 7.39212 1.53287C7.39147 1.53143 7.39053 1.53015 7.38935 1.52911Z" fill="white"/>
<path d="M3.69626 1.85254C2.80199 1.85262 1.94409 2.20719 1.30996 2.83881C1.30878 2.83986 1.30784 2.84114 1.30719 2.84257C1.30654 2.84401 1.30621 2.84556 1.30621 2.84714C1.30621 2.84872 1.30654 2.85027 1.30719 2.85171C1.30784 2.85315 1.30878 2.85443 1.30996 2.85547L2.01185 3.55925C2.01414 3.5613 2.0171 3.56244 2.02017 3.56244C2.02324 3.56244 2.0262 3.5613 2.02848 3.55925C2.47226 3.11867 3.07179 2.87148 3.69661 2.87148C4.32143 2.87148 4.92096 3.11867 5.36473 3.55925C5.36702 3.5613 5.36998 3.56244 5.37305 3.56244C5.37612 3.56244 5.37908 3.5613 5.38136 3.55925L6.08326 2.85339C6.08444 2.85235 6.08538 2.85106 6.08603 2.84963C6.08668 2.84819 6.08701 2.84663 6.08701 2.84506C6.08701 2.84348 6.08668 2.84193 6.08603 2.84049C6.08538 2.83905 6.08444 2.83777 6.08326 2.83673C5.44849 2.20589 4.59043 1.85211 3.69626 1.85254Z" fill="white"/>
</g>
</svg>
