<svg width="7" height="9" viewBox="0 0 7 9" fill="none" xmlns="http://www.w3.org/2000/svg">
<path opacity="0.95" fill-rule="evenodd" clip-rule="evenodd" d="M4.86318 7.03151C4.79188 7.31603 4.65117 7.57837 4.45368 7.79498C4.29961 7.94772 4.11606 8.06737 3.91424 8.14662C3.71242 8.22586 3.49659 8.26302 3.27994 8.25584C2.94693 8.26072 2.62031 8.1641 2.34337 7.97879C2.06644 7.79348 1.85226 7.52823 1.72925 7.21821C1.41052 6.28608 2.10619 5.46986 2.47549 4.68278C2.56332 4.46511 2.61595 4.23479 2.63139 4.00052C2.64179 3.90612 2.61684 3.72844 2.71454 3.67431C2.83787 3.59796 3.01525 3.74996 3.0984 3.8263C3.80168 4.45791 4.72876 5.15406 4.89159 6.15143C4.93867 6.44389 4.92902 6.7427 4.86318 7.03151ZM5.55607 1.85169C5.54318 1.82651 5.52418 1.80499 5.50081 1.7891C5.47744 1.77321 5.45046 1.76347 5.42234 1.76076C5.31009 1.75382 5.19023 1.85169 4.92554 2.19594C4.17338 1.29534 3.22529 0.579264 2.154 0.102638C2.06537 0.0643328 1.97441 0.0316453 1.88169 0.00477247C1.86067 -0.000896457 1.83861 -0.00152399 1.81731 0.00293765C1.796 0.00739929 1.77604 0.0168264 1.75905 0.0304547C1.74192 0.0443081 1.72835 0.0620469 1.71943 0.0822031C1.71051 0.102359 1.70652 0.124353 1.70777 0.146364C1.71764 0.245044 1.73832 0.342336 1.76944 0.436483C1.78399 0.491315 1.79854 0.54198 1.80963 0.592647C1.84389 0.7719 1.85853 0.954363 1.85328 1.1368C1.81781 1.70126 1.63815 2.24713 1.33154 2.72204C1.20139 2.93522 1.05983 3.1412 0.90749 3.33907C0.579344 3.70628 0.330747 4.13764 0.177383 4.60592C0.024018 5.07421 -0.0307868 5.56925 0.0164356 6.05981C0.150301 6.78948 0.530153 7.451 1.09249 7.93379C1.64711 8.45077 2.38194 8.72935 3.13928 8.70976C3.3497 8.70846 3.55992 8.69641 3.76911 8.67367C4.39015 8.59765 4.96599 8.30937 5.39948 7.85745C5.7329 7.52265 5.98471 7.11531 6.13532 6.66712C6.88433 4.41973 5.60942 1.95649 5.55468 1.85169H5.55607Z" fill="white"/>
</svg>
