<svg width="241" height="148" viewBox="0 0 241 148" fill="none" xmlns="http://www.w3.org/2000/svg">
<path d="M119.124 0.0561523C119.435 0.0570615 119.673 0.0574924 119.833 0.0581055C119.914 0.058412 119.974 0.0589089 120.015 0.059082H120.137C120.178 0.0589289 120.239 0.0583739 120.319 0.0581055C120.479 0.0575671 120.719 0.0569276 121.031 0.0561523C121.655 0.054602 122.572 0.0529351 123.745 0.0522461C126.091 0.0508679 129.461 0.0532858 133.556 0.0698242C141.746 0.102902 152.837 0.191111 164.44 0.411621C191.241 0.937309 220.849 2.02437 224.482 2.30322C231.553 2.84506 237.315 7.99089 238.099 16.3833C238.4 19.5776 239.256 32.4879 239.666 45.2603C239.908 52.3911 240.029 59.4767 240.089 64.7788C240.12 67.4295 240.135 69.6347 240.142 71.1772C240.146 71.9486 240.148 72.5545 240.149 72.9673C240.149 73.1734 240.15 73.3314 240.15 73.438V73.7622C240.15 73.8688 240.149 74.0268 240.149 74.2329C240.148 74.6457 240.147 75.2516 240.143 76.0229C240.136 77.5655 240.121 79.7707 240.092 82.4214C240.035 87.7235 239.919 94.8091 239.689 101.94C239.279 114.712 238.423 127.623 238.123 130.817C237.339 139.209 231.577 144.355 224.505 144.897C221.099 145.158 194.864 146.13 169.514 146.683L164.463 146.789C152.847 147.014 141.756 147.103 133.57 147.134C129.476 147.15 126.108 147.151 123.764 147.149C122.592 147.148 121.676 147.146 121.053 147.144C120.742 147.143 120.504 147.143 120.343 147.142C120.263 147.142 120.202 147.141 120.162 147.141H120.039C119.998 147.141 119.937 147.142 119.857 147.142C119.696 147.143 119.458 147.143 119.146 147.144C118.522 147.146 117.605 147.147 116.432 147.148C114.086 147.149 110.716 147.147 106.621 147.13C98.4305 147.097 87.3396 147.009 75.7368 146.789C48.9357 146.263 19.3278 145.176 15.6948 144.897C8.62341 144.355 2.86136 139.209 2.07764 130.817C1.77722 127.623 0.920754 114.712 0.51123 101.94C0.280872 94.8091 0.165498 87.7235 0.10791 82.4214C0.0791208 79.7707 0.0643274 77.5655 0.0571289 76.0229C0.0535296 75.2516 0.0521694 74.6457 0.0512695 74.2329C0.0508203 74.0268 0.0504056 73.8688 0.050293 73.7622V73.438C0.0504056 73.3314 0.0508203 73.1734 0.0512695 72.9673C0.0521694 72.5545 0.0535296 71.9486 0.0571289 71.1772C0.0643274 69.6347 0.0791208 67.4295 0.10791 64.7788C0.165498 59.4767 0.280872 52.3911 0.51123 45.2603C0.920755 32.4879 1.77722 19.5776 2.07764 16.3833C2.83746 7.99081 8.59933 2.85567 15.6704 2.30322C19.303 2.02437 48.912 0.937306 75.7134 0.411621C87.3296 0.185821 98.4203 0.0976714 106.607 0.065918C110.7 0.0500412 114.068 0.0490645 116.412 0.0512695C117.584 0.0523721 118.5 0.0543331 119.124 0.0561523Z" fill="url(#paint0_linear_1122_2747)" stroke="#999999" stroke-width="0.1"/>
<defs>
<linearGradient id="paint0_linear_1122_2747" x1="0.0762103" y1="73.6001" x2="240.1" y2="73.6001" gradientUnits="userSpaceOnUse">
<stop stop-color="#1D1D1D"/>
<stop offset="0.06" stop-color="#181818"/>
<stop offset="0.26" stop-color="#0A0A0A"/>
<stop offset="0.52" stop-color="#020202"/>
<stop offset="1"/>
</linearGradient>
</defs>
</svg>
