<svg width="45" height="23" viewBox="0 0 45 23" fill="none" xmlns="http://www.w3.org/2000/svg">
<path d="M8.62476 9.3688C8.6486 9.56155 8.50855 9.73355 8.31487 9.75728C8.31487 9.75728 8.31487 9.75728 8.31189 9.75728C8.28209 9.76024 8.2523 9.76024 8.2225 9.75728C7.92453 9.75728 7.50141 9.1286 6.70285 9.1286C6.14862 9.1286 5.5497 9.39252 5.5497 9.95596C5.55864 10.2792 5.77914 10.5609 6.09201 10.6469L7.30177 11.1333C8.10033 11.4535 8.77673 11.839 8.77673 12.7672C8.77673 13.8051 7.84706 14.4664 6.60452 14.4664C5.36198 14.4664 4.47998 13.728 4.47998 13.3514C4.47998 13.2298 4.65578 12.9659 4.85542 12.9659C5.23385 12.9659 5.59737 13.8051 6.64325 13.8051C7.40904 13.8051 7.91857 13.3514 7.91857 12.7998C7.91857 12.2483 7.53121 12.0703 7.09915 11.8954L5.7255 11.3319C5.12956 11.0888 4.69452 10.7388 4.69452 10.0093C4.69452 9.04853 5.64803 8.46433 6.54492 8.46433C7.69807 8.46433 8.65158 8.9477 8.63072 9.35397L8.62476 9.3688ZM15.9042 11.8034C16.381 11.8034 16.4465 11.5277 16.4465 11.3171C16.4465 9.83438 15.5943 8.4495 13.9286 8.4495C12.263 8.4495 11.3899 9.97079 11.3899 11.4506C11.3899 12.9303 12.1766 14.4724 14.0598 14.4724C15.4334 14.4724 16.3541 13.645 16.3541 13.2862C16.3541 12.9274 16.1992 12.9007 15.9757 12.9007C15.6003 12.9007 15.2665 13.7903 14.0031 13.7903C12.9841 13.7903 12.2838 12.8295 12.2511 11.8034H15.9042ZM12.2541 11.157C12.2868 10.1754 12.85 9.12563 13.9167 9.12563C14.9835 9.12563 15.5466 10.1754 15.5794 11.157H12.2541ZM20.4065 10.727C20.347 9.9441 20.934 9.25908 21.7236 9.1968C21.7653 9.19384 21.807 9.19087 21.8487 9.19384C22.7426 9.19384 23.2909 9.72466 23.2909 10.5402V13.9593C23.2909 14.2915 23.4339 14.4664 23.6902 14.4664C23.9464 14.4664 24.0895 14.2885 24.0895 13.9593V10.5609C24.1312 9.44293 23.2522 8.50288 22.1288 8.46433C22.0752 8.46137 22.0245 8.46137 21.9709 8.46433C21.3541 8.44654 20.7701 8.74605 20.4304 9.25908H20.4095V8.96253C20.4095 8.6304 20.2665 8.45544 20.0102 8.45544C19.754 8.45544 19.611 8.63336 19.611 8.96253V13.9593C19.611 14.2915 19.754 14.4664 20.0102 14.4664C20.2665 14.4664 20.4095 14.2885 20.4095 13.9593L20.4065 10.727ZM36.4523 9.36583C36.4732 8.9477 35.5197 8.47619 34.3665 8.47619C33.4726 8.47619 32.5161 9.06929 32.5161 10.0212C32.5161 10.7477 32.9482 11.1006 33.5471 11.3438L34.9207 11.9072C35.3528 12.0822 35.7401 12.2928 35.7401 12.8117C35.7401 13.3307 35.2306 13.817 34.4648 13.817C33.4219 13.817 33.0584 12.9778 32.677 12.9778C32.4774 12.9778 32.2986 13.2417 32.2986 13.3633C32.2986 13.7399 33.1418 14.4783 34.4261 14.4783C35.7104 14.4783 36.5983 13.817 36.5983 12.7791C36.5983 11.8509 35.9219 11.4654 35.1233 11.1451L33.9166 10.6588C33.6037 10.5639 33.3921 10.2762 33.3921 9.953C33.3921 9.38956 33.9881 9.12563 34.5453 9.12563C35.3438 9.12563 35.755 9.75431 36.0649 9.75431C36.2556 9.781 36.4344 9.64755 36.4612 9.45776C36.4642 9.42811 36.4642 9.39845 36.4612 9.3688L36.4523 9.36583ZM40.32 8.97143C40.32 8.63929 40.1769 8.46433 39.9207 8.46433C39.6644 8.46433 39.5214 8.64226 39.5214 8.97143V13.9564C39.5214 14.2885 39.6644 14.4635 39.9207 14.4635C40.1769 14.4635 40.32 14.2855 40.32 13.9564V8.97143ZM28.9226 1.31459C28.9166 1.04473 28.6901 0.831216 28.419 0.840112C28.1568 0.846043 27.9482 1.05659 27.9422 1.31459L28.4309 21.5598L28.9226 1.31459Z" fill="url(#paint0_linear_1120_2248)"/>
<defs>
<linearGradient id="paint0_linear_1120_2248" x1="22.4227" y1="0.839844" x2="22.4227" y2="21.5598" gradientUnits="userSpaceOnUse">
<stop stop-color="#C5C5C5"/>
<stop offset="0.17" stop-color="#C3C3C3"/>
<stop offset="0.23" stop-color="#BCBCBC"/>
<stop offset="0.28" stop-color="#B1B1B1"/>
<stop offset="0.29" stop-color="#ABABAB"/>
<stop offset="0.39" stop-color="#A8A8A8"/>
<stop offset="0.46" stop-color="#9E9E9E"/>
<stop offset="0.54" stop-color="#8D8D8D"/>
<stop offset="0.6" stop-color="#757575"/>
<stop offset="0.67" stop-color="#575757"/>
<stop offset="0.68" stop-color="#4F4F4F"/>
<stop offset="0.75" stop-color="#757575"/>
<stop offset="0.92" stop-color="#D8D8D8"/>
<stop offset="1" stop-color="white"/>
</linearGradient>
</defs>
</svg>
