<svg width="16" height="70" viewBox="0 0 16 70" fill="none" xmlns="http://www.w3.org/2000/svg">
<path opacity="0.95" d="M7.97783 70C7.86107 70.0003 7.74541 69.9772 7.63758 69.932C7.52974 69.8868 7.43189 69.8204 7.34969 69.7367L0.238588 62.5546C0.0815751 62.3844 -0.00392461 62.1593 0.000138454 61.9267C0.00420152 61.6941 0.0975023 61.4722 0.260362 61.3077C0.423222 61.1432 0.642926 61.049 0.873209 61.0449C1.10349 61.0408 1.32638 61.1272 1.49488 61.2857L7.97783 67.8334L14.4608 61.2857C14.5422 61.1975 14.6403 61.1268 14.7493 61.0777C14.8584 61.0286 14.9761 61.0023 15.0954 61.0001C15.2148 60.998 15.3333 61.0202 15.444 61.0653C15.5547 61.1105 15.6552 61.1777 15.7396 61.2629C15.824 61.3482 15.8906 61.4497 15.9353 61.5615C15.98 61.6733 16.002 61.7931 15.9999 61.9136C15.9978 62.0341 15.9716 62.153 15.923 62.2631C15.8745 62.3733 15.8044 62.4724 15.7171 62.5546L8.60599 69.7367C8.52379 69.8204 8.42592 69.8868 8.31808 69.932C8.21025 69.9772 8.09458 70.0003 7.97783 70Z" fill="white"/>
<circle cx="8" cy="27" r="2" fill="white"/>
<circle cx="8" cy="35" r="2" fill="white"/>
<circle cx="8" cy="43" r="2" fill="white"/>
<path opacity="0.95" d="M15.1106 9C14.9937 9.00033 14.8779 8.97716 14.7699 8.93184C14.6619 8.88651 14.5639 8.81993 14.4816 8.73597L7.98929 2.17139L1.49703 8.73597C1.32828 8.89496 1.10508 8.98152 0.874464 8.97741C0.64385 8.97329 0.42383 8.87883 0.260736 8.71392C0.0976424 8.54901 0.00420756 8.32653 0.000138653 8.09334C-0.00393025 7.86016 0.0816923 7.63449 0.238931 7.46386L7.36026 0.263231C7.52716 0.0946758 7.7534 0 7.98929 0C8.22519 0 8.45145 0.0946758 8.61835 0.263231L15.7397 7.46386C15.864 7.58974 15.9487 7.75004 15.9829 7.92454C16.0172 8.09903 15.9996 8.27988 15.9323 8.44425C15.865 8.60862 15.751 8.74914 15.6048 8.84805C15.4585 8.94697 15.2866 8.99984 15.1106 9Z" fill="white"/>
</svg>
