<svg width="75" height="75" viewBox="0 0 75 75" fill="none" xmlns="http://www.w3.org/2000/svg">
<g filter="url(#filter0_i_516_5627)">
<rect width="75" height="75" rx="3" fill="black"/>
</g>
<g clip-path="url(#clip0_516_5627)">
<path id="digit-tens-tr" class="lcd-seg" d="M30.8623 33.725L30.9368 20.6204C30.938 20.3651 31.0401 20.1206 31.2209 19.94L35.0858 16.0843C35.111 16.0593 35.1411 16.0399 35.1742 16.027C35.2073 16.0141 35.2427 16.0082 35.2782 16.0095C35.3137 16.0108 35.3485 16.0193 35.3806 16.0345C35.4126 16.0498 35.4412 16.0714 35.4646 16.0981C36.4583 17.222 37.0045 18.6705 36.9999 20.1694V36.2199C36.9998 36.3877 36.9561 36.5527 36.8732 36.6986C36.7902 36.8446 36.6707 36.9666 36.5264 37.0528V37.0528C36.3761 37.1425 36.2042 37.1899 36.029 37.1899C35.8538 37.1899 35.6819 37.1425 35.5315 37.0528L31.337 34.5579C31.1926 34.4718 31.073 34.3498 30.9898 34.2038C30.9066 34.0579 30.8627 33.8929 30.8623 33.725V33.725Z" fill="white" fill-opacity="0.05"/>
<path id="digit-tens-mid" class="lcd-seg" d="M18.0718 40.3882L13.818 37.8581C13.756 37.821 13.7047 37.7686 13.6691 37.7059C13.6335 37.6432 13.6147 37.5723 13.6147 37.5002C13.6147 37.4281 13.6335 37.3572 13.6691 37.2945C13.7047 37.2318 13.756 37.1794 13.818 37.1423L18.0718 34.6122C18.2225 34.5234 18.3943 34.4764 18.5693 34.4761H30.4304C30.6054 34.4764 30.7771 34.5234 30.9279 34.6122L35.1779 37.1423C35.2398 37.1794 35.2912 37.2318 35.3268 37.2945C35.3624 37.3572 35.3811 37.4281 35.3811 37.5002C35.3811 37.5723 35.3624 37.6432 35.3268 37.7059C35.2912 37.7686 35.2398 37.821 35.1779 37.8581L30.9241 40.3882C30.7736 40.4776 30.6017 40.5246 30.4266 40.5243H18.5693C18.3942 40.5246 18.2223 40.4776 18.0718 40.3882V40.3882Z" fill="white" fill-opacity="0.05"/>
<path id="digit-tens-top" class="lcd-seg" d="M17.9544 19.7648L14.092 15.9103C14.066 15.8856 14.0455 15.8558 14.0319 15.8226C14.0184 15.7895 14.012 15.7539 14.0134 15.7181C14.0147 15.6824 14.0236 15.6473 14.0396 15.6152C14.0555 15.5832 14.0781 15.5549 14.1059 15.5322C15.2324 14.5411 16.6836 13.996 18.1854 14H30.8117C32.3135 13.9959 33.7648 14.541 34.8912 15.5322C34.919 15.5549 34.9416 15.5832 34.9576 15.6152C34.9735 15.6473 34.9824 15.6824 34.9838 15.7181C34.9851 15.7539 34.9787 15.7895 34.9652 15.8226C34.9516 15.8558 34.9311 15.8856 34.9051 15.9103L31.044 19.7648C30.8617 19.9463 30.6147 20.0483 30.3571 20.0483H18.6374C18.3812 20.0473 18.1357 19.9454 17.9544 19.7648V19.7648Z" fill="white" fill-opacity="0.05"/>
<path id="digit-tens-bl" class="lcd-seg" d="M13.9142 58.9107C13.8895 58.9367 13.8596 58.9571 13.8264 58.9707C13.7932 58.9842 13.7575 58.9905 13.7216 58.9892C13.6858 58.9879 13.6507 58.979 13.6185 58.9631C13.5864 58.9471 13.5581 58.9246 13.5354 58.8969C12.5421 57.7727 11.9959 56.3244 12 54.8256V38.7751C12.0001 38.6073 12.0438 38.4423 12.1268 38.2964C12.2098 38.1504 12.3292 38.0284 12.4735 37.9422V37.9422C12.6241 37.8531 12.7959 37.8062 12.971 37.8062C13.146 37.8062 13.3179 37.8531 13.4685 37.9422L17.6642 40.4383C17.8093 40.5246 17.9293 40.6471 18.0123 40.7939C18.0954 40.9406 18.1386 41.1065 18.1377 41.275L18.0632 54.3796C18.062 54.6349 17.9599 54.8794 17.7791 55.06L13.9142 58.9107Z" fill="white" fill-opacity="0.05"/>
<path id="digit-tens-tl" class="lcd-seg" d="M12.4735 37.0499C12.3291 36.9639 12.2095 36.8419 12.1265 36.6959C12.0435 36.5499 11.9999 36.3849 12 36.217V20.1664C11.996 18.6677 12.5422 17.2194 13.5354 16.0952C13.5587 16.0685 13.5873 16.0468 13.6194 16.0316C13.6514 16.0163 13.6863 16.0078 13.7218 16.0065C13.7573 16.0052 13.7926 16.0112 13.8257 16.0241C13.8588 16.0369 13.8889 16.0564 13.9142 16.0813L17.7791 19.9371C17.9599 20.1177 18.062 20.3622 18.0632 20.6175L18.1377 33.7221C18.1384 33.8907 18.0951 34.0567 18.0121 34.2036C17.9291 34.3506 17.8092 34.4734 17.6642 34.56L13.4685 37.0549C13.318 37.1443 13.1461 37.1916 12.971 37.1916C12.7959 37.1916 12.624 37.1443 12.4735 37.0549V37.0499Z" fill="white" fill-opacity="0.05"/>
<path id="digit-tens-br" class="lcd-seg" d="M30.9368 54.3747L30.8623 41.2701C30.8617 41.1015 30.9051 40.9356 30.9884 40.7889C31.0716 40.6421 31.1918 40.5196 31.3371 40.4334L35.5315 37.9373C35.6821 37.8482 35.8539 37.8013 36.029 37.8013C36.204 37.8013 36.3758 37.8482 36.5265 37.9373V37.9373C36.6709 38.0233 36.7905 38.1453 36.8735 38.2913C36.9565 38.4373 37.0001 38.6023 36.9999 38.7702V54.8207C37.0046 56.3196 36.4584 57.7681 35.4646 58.892C35.4419 58.9197 35.4135 58.9422 35.3814 58.9582C35.3493 58.9741 35.3142 58.983 35.2783 58.9843C35.2425 58.9856 35.2068 58.9793 35.1736 58.9658C35.1404 58.9522 35.1105 58.9318 35.0858 58.9058L31.2209 55.0501C31.0413 54.8707 30.9393 54.6282 30.9368 54.3747V54.3747Z" fill="white" fill-opacity="0.05"/>
<path id="digit-tens-bot" class="lcd-seg" d="M18.1869 60.9999C16.685 61.0046 15.2335 60.4595 14.1073 59.4677C14.0796 59.445 14.057 59.4167 14.041 59.3847C14.0251 59.3526 14.0161 59.3176 14.0148 59.2818C14.0135 59.2461 14.0198 59.2104 14.0334 59.1773C14.047 59.1442 14.0674 59.1143 14.0935 59.0897L17.9546 55.2352C18.1369 55.0536 18.3839 54.9516 18.6414 54.9517H30.3586C30.6162 54.9516 30.8632 55.0536 31.0455 55.2352L34.9066 59.0897C34.9326 59.1143 34.9531 59.1442 34.9667 59.1773C34.9802 59.2104 34.9865 59.2461 34.9852 59.2818C34.9839 59.3176 34.975 59.3526 34.959 59.3847C34.9431 59.4167 34.9205 59.445 34.8927 59.4677C33.7666 60.4595 32.3151 61.0046 30.8132 60.9999H18.1869Z" fill="white" fill-opacity="0.05"/>
</g>
<g clip-path="url(#clip1_516_5627)">
<path id="digit-ones-tr" class="lcd-seg" d="M57.8623 33.725L57.9368 20.6204C57.938 20.3651 58.0401 20.1206 58.2209 19.94L62.0858 16.0843C62.111 16.0593 62.1411 16.0399 62.1742 16.027C62.2073 16.0141 62.2427 16.0082 62.2782 16.0095C62.3137 16.0108 62.3485 16.0193 62.3806 16.0345C62.4126 16.0498 62.4412 16.0714 62.4646 16.0981C63.4583 17.222 64.0045 18.6705 63.9999 20.1694V36.2199C63.9998 36.3877 63.9561 36.5527 63.8732 36.6986C63.7902 36.8446 63.6707 36.9666 63.5264 37.0528V37.0528C63.3761 37.1425 63.2042 37.1899 63.029 37.1899C62.8538 37.1899 62.6819 37.1425 62.5315 37.0528L58.337 34.5579C58.1926 34.4718 58.073 34.3498 57.9898 34.2038C57.9066 34.0579 57.8627 33.8929 57.8623 33.725V33.725Z" fill="white" fill-opacity="0.05"/>
<path id="digit-ones-mid" class="lcd-seg" d="M45.0718 40.3882L40.818 37.8581C40.756 37.821 40.7047 37.7686 40.6691 37.7059C40.6335 37.6432 40.6147 37.5723 40.6147 37.5002C40.6147 37.4281 40.6335 37.3572 40.6691 37.2945C40.7047 37.2318 40.756 37.1794 40.818 37.1423L45.0718 34.6122C45.2225 34.5234 45.3943 34.4764 45.5693 34.4761H57.4304C57.6054 34.4764 57.7771 34.5234 57.9279 34.6122L62.1779 37.1423C62.2398 37.1794 62.2912 37.2318 62.3268 37.2945C62.3624 37.3572 62.3811 37.4281 62.3811 37.5002C62.3811 37.5723 62.3624 37.6432 62.3268 37.7059C62.2912 37.7686 62.2398 37.821 62.1779 37.8581L57.9241 40.3882C57.7736 40.4776 57.6017 40.5246 57.4266 40.5243H45.5693C45.3942 40.5246 45.2223 40.4776 45.0718 40.3882V40.3882Z" fill="white" fill-opacity="0.05"/>
<path id="digit-ones-top" class="lcd-seg" d="M44.9544 19.7648L41.092 15.9103C41.066 15.8856 41.0455 15.8558 41.0319 15.8226C41.0184 15.7895 41.012 15.7539 41.0134 15.7181C41.0147 15.6824 41.0236 15.6473 41.0396 15.6152C41.0555 15.5832 41.0781 15.5549 41.1059 15.5322C42.2324 14.5411 43.6836 13.996 45.1854 14H57.8117C59.3135 13.9959 60.7648 14.541 61.8912 15.5322C61.919 15.5549 61.9416 15.5832 61.9576 15.6152C61.9735 15.6473 61.9824 15.6824 61.9838 15.7181C61.9851 15.7539 61.9787 15.7895 61.9652 15.8226C61.9516 15.8558 61.9311 15.8856 61.9051 15.9103L58.044 19.7648C57.8617 19.9463 57.6147 20.0483 57.3571 20.0483H45.6374C45.3812 20.0473 45.1357 19.9454 44.9544 19.7648V19.7648Z" fill="white" fill-opacity="0.05"/>
<path id="digit-ones-bl" class="lcd-seg" d="M40.9142 58.9107C40.8895 58.9367 40.8596 58.9571 40.8264 58.9707C40.7932 58.9842 40.7575 58.9905 40.7216 58.9892C40.6858 58.9879 40.6507 58.979 40.6185 58.9631C40.5864 58.9471 40.5581 58.9246 40.5354 58.8969C39.5421 57.7727 38.9959 56.3244 39 54.8256V38.7751C39.0001 38.6073 39.0438 38.4423 39.1268 38.2964C39.2098 38.1504 39.3292 38.0284 39.4735 37.9422V37.9422C39.6241 37.8531 39.7959 37.8062 39.971 37.8062C40.146 37.8062 40.3179 37.8531 40.4685 37.9422L44.6642 40.4383C44.8093 40.5246 44.9293 40.6471 45.0123 40.7939C45.0954 40.9406 45.1386 41.1065 45.1377 41.275L45.0632 54.3796C45.062 54.6349 44.9599 54.8794 44.7791 55.06L40.9142 58.9107Z" fill="white" fill-opacity="0.05"/>
<path id="digit-ones-tl" class="lcd-seg" d="M39.4735 37.0499C39.3291 36.9639 39.2095 36.8419 39.1265 36.6959C39.0435 36.5499 38.9999 36.3849 39 36.217V20.1664C38.996 18.6677 39.5422 17.2194 40.5354 16.0952C40.5587 16.0685 40.5873 16.0468 40.6194 16.0316C40.6514 16.0163 40.6863 16.0078 40.7218 16.0065C40.7573 16.0052 40.7926 16.0112 40.8257 16.0241C40.8588 16.0369 40.8889 16.0564 40.9142 16.0813L44.7791 19.9371C44.9599 20.1177 45.062 20.3622 45.0632 20.6175L45.1377 33.7221C45.1384 33.8907 45.0951 34.0567 45.0121 34.2036C44.9291 34.3506 44.8092 34.4734 44.6642 34.56L40.4685 37.0549C40.318 37.1443 40.1461 37.1916 39.971 37.1916C39.7959 37.1916 39.624 37.1443 39.4735 37.0549V37.0499Z" fill="white" fill-opacity="0.05"/>
<path id="digit-ones-br" class="lcd-seg" d="M57.9368 54.3747L57.8623 41.2701C57.8617 41.1015 57.9051 40.9356 57.9884 40.7889C58.0716 40.6421 58.1918 40.5196 58.3371 40.4334L62.5315 37.9373C62.6821 37.8482 62.8539 37.8013 63.029 37.8013C63.204 37.8013 63.3758 37.8482 63.5265 37.9373V37.9373C63.6709 38.0233 63.7905 38.1453 63.8735 38.2913C63.9565 38.4373 64.0001 38.6023 63.9999 38.7702V54.8207C64.0046 56.3196 63.4584 57.7681 62.4646 58.892C62.4419 58.9197 62.4135 58.9422 62.3814 58.9582C62.3493 58.9741 62.3142 58.983 62.2783 58.9843C62.2425 58.9856 62.2068 58.9793 62.1736 58.9658C62.1404 58.9522 62.1105 58.9318 62.0858 58.9058L58.2209 55.0501C58.0413 54.8707 57.9393 54.6282 57.9368 54.3747V54.3747Z" fill="white" fill-opacity="0.05"/>
<path id="digit-ones-bot" class="lcd-seg" d="M45.1869 60.9999C43.685 61.0046 42.2335 60.4595 41.1073 59.4677C41.0796 59.445 41.057 59.4167 41.041 59.3847C41.0251 59.3526 41.0161 59.3176 41.0148 59.2818C41.0135 59.2461 41.0198 59.2104 41.0334 59.1773C41.047 59.1442 41.0674 59.1143 41.0935 59.0897L44.9546 55.2352C45.1369 55.0536 45.3839 54.9516 45.6414 54.9517H57.3586C57.6162 54.9516 57.8632 55.0536 58.0455 55.2352L61.9066 59.0897C61.9326 59.1143 61.9531 59.1442 61.9667 59.1773C61.9802 59.2104 61.9865 59.2461 61.9852 59.2818C61.9839 59.3176 61.975 59.3526 61.959 59.3847C61.9431 59.4167 61.9205 59.445 61.8927 59.4677C60.7666 60.4595 59.3151 61.0046 57.8132 60.9999H45.1869Z" fill="white" fill-opacity="0.05"/>
</g>
<g id="label-service" class="lcd-seg-group" opacity="0.95">
<path class="lcd-seg" d="M11.9224 66.4181C11.9074 66.3725 11.8931 66.3236 11.8781 66.2713C11.8645 66.3236 11.8501 66.3732 11.8358 66.4194C11.8215 66.4657 11.8072 66.5046 11.7936 66.5388L11.5211 67.2763H12.2425L11.97 66.5334C11.951 66.5026 11.9367 66.4637 11.9224 66.4181Z" fill="white" fill-opacity="0.05"/>
<path class="lcd-seg" d="M13.6226 69.4107C13.6426 69.4561 13.6515 69.5054 13.6485 69.5547C13.6474 69.6084 13.6358 69.6615 13.6144 69.7109C13.5957 69.7581 13.5661 69.8003 13.5279 69.8343C13.4858 69.8712 13.4361 69.8986 13.3822 69.9147C13.3161 69.9353 13.2471 69.9452 13.1778 69.9442H12.9142V69.2027H13.1867C13.3094 69.1931 13.4318 69.2253 13.5334 69.2939C13.572 69.3254 13.6026 69.3654 13.6226 69.4107Z" fill="white" fill-opacity="0.05"/>
<path class="lcd-seg" d="M20.4469 66.4275C20.3844 66.3599 20.3071 66.3074 20.2207 66.2739C20.1259 66.2367 20.0244 66.2184 19.9223 66.2203C19.8198 66.2185 19.7179 66.2367 19.6226 66.2739C19.5363 66.3088 19.4591 66.3621 19.3965 66.4302C19.3319 66.5025 19.2832 66.5872 19.2534 66.6789C19.2186 66.7853 19.2018 66.8965 19.2037 67.0081C19.202 67.1202 19.2188 67.2319 19.2534 67.3387C19.2835 67.4297 19.3322 67.5137 19.3965 67.5854C19.4595 67.6527 19.5367 67.7055 19.6226 67.7403C19.718 67.7772 19.8198 67.7954 19.9223 67.794C20.0244 67.7955 20.1258 67.7773 20.2207 67.7403C20.3067 67.706 20.3838 67.6531 20.4462 67.5854C20.5105 67.5137 20.5592 67.4297 20.5892 67.3387C20.6241 67.2319 20.6411 67.1203 20.6397 67.0081C20.6413 66.8964 20.6243 66.7852 20.5892 66.6789C20.56 66.5863 20.5115 66.5007 20.4469 66.4275Z" fill="white" fill-opacity="0.05"/>
<path class="lcd-seg" d="M22.5961 66.5616C22.599 66.5123 22.5901 66.4631 22.5702 66.4178C22.5504 66.3725 22.52 66.3325 22.4816 66.3008C22.38 66.2323 22.2576 66.2001 22.1349 66.2096H21.8624V66.9511H22.1281C22.1974 66.9521 22.2663 66.9421 22.3324 66.9216C22.3863 66.9053 22.436 66.8779 22.4782 66.8412C22.5164 66.8072 22.546 66.765 22.5647 66.7178C22.5849 66.6681 22.5955 66.6151 22.5961 66.5616Z" fill="white" fill-opacity="0.05"/>
<path class="lcd-seg" fill-rule="evenodd" clip-rule="evenodd" d="M8.17711 65H23.8229C23.9777 64.9999 24.1309 65.0299 24.2739 65.0882C24.4169 65.1465 24.5468 65.232 24.6562 65.3399C24.7655 65.4477 24.8522 65.5757 24.9112 65.7165C24.9702 65.8574 25.0004 66.0083 25 66.1606V70.8414C25 71.1487 24.876 71.4434 24.6552 71.6606C24.4345 71.8779 24.1351 72 23.8229 72H8.17711C7.86492 72 7.56552 71.8779 7.34477 71.6606C7.12402 71.4434 7 71.1487 7 70.8414V66.1586C7 65.8513 7.12402 65.5566 7.34477 65.3394C7.56552 65.1221 7.86492 65 8.17711 65ZM15.2738 65.8884H14.8522V68.1218H16.1812V67.7792H15.2738V65.8884ZM13.6431 65.8884H13.2214V68.1218H14.5504V67.7792H13.6431V65.8884ZM10.1138 70.9292C10.1811 70.8642 10.2336 70.7858 10.2677 70.6992C10.3038 70.6078 10.3218 70.5104 10.3208 70.4123C10.3233 70.331 10.3077 70.2503 10.2752 70.1756C10.2482 70.1134 10.208 70.0577 10.1574 70.012C10.1079 69.9662 10.0514 69.9287 9.98978 69.9007C9.92715 69.8707 9.86251 69.8449 9.79632 69.8236C9.73093 69.8008 9.66621 69.78 9.60354 69.7599C9.54586 69.7422 9.48981 69.7198 9.43597 69.6928C9.39046 69.6711 9.34972 69.6408 9.31608 69.6036C9.28561 69.5656 9.27012 69.5179 9.27248 69.4695C9.27201 69.4309 9.27942 69.3926 9.29428 69.3569C9.3093 69.322 9.33267 69.2912 9.3624 69.2671C9.39546 69.241 9.43342 69.2216 9.47411 69.2101C9.52362 69.1944 9.5754 69.1869 9.62738 69.1879C9.68448 69.1869 9.74135 69.1953 9.79564 69.2127C9.83918 69.226 9.88119 69.2438 9.92098 69.2657C9.9564 69.2852 9.98706 69.3033 10.0123 69.3193C10.0337 69.3334 10.0587 69.3416 10.0845 69.3428C10.1028 69.3436 10.1209 69.3386 10.1362 69.3287C10.153 69.3158 10.1669 69.2996 10.1771 69.2811L10.282 69.0847C10.1987 69.0083 10.1004 68.9494 9.99319 68.9117C9.87435 68.8697 9.74888 68.8488 9.62262 68.85C9.51448 68.8481 9.40696 68.8665 9.30586 68.9043C9.21953 68.9365 9.14057 68.9853 9.07357 69.0478C9.01187 69.1059 8.96275 69.1757 8.92916 69.253C8.89709 69.3283 8.88065 69.4093 8.88079 69.491C8.87825 69.579 8.89306 69.6667 8.92439 69.7491C8.95204 69.814 8.99257 69.8728 9.0436 69.9221C9.09303 69.9685 9.14987 70.0066 9.21185 70.0348C9.27406 70.0634 9.33799 70.0882 9.40327 70.1092C9.46798 70.1293 9.53202 70.1488 9.59469 70.1662C9.65289 70.1824 9.70909 70.2049 9.76226 70.2332C9.80807 70.255 9.84834 70.2866 9.88011 70.3258C9.91198 70.3668 9.92813 70.4176 9.92575 70.4693C9.92864 70.5144 9.92127 70.5596 9.90419 70.6016C9.8871 70.6436 9.86072 70.6813 9.82698 70.712C9.74709 70.7719 9.64792 70.8014 9.54768 70.7951C9.47824 70.797 9.40901 70.7865 9.34332 70.7643C9.29233 70.7452 9.24329 70.7214 9.19687 70.6932C9.15668 70.6697 9.11921 70.6463 9.08856 70.6262C9.06475 70.6065 9.03511 70.595 9.00409 70.5933C8.98524 70.5933 8.96681 70.5987 8.95095 70.6087C8.93482 70.6174 8.92086 70.6296 8.91008 70.6443L8.7861 70.8454C8.83154 70.891 8.88204 70.9315 8.93665 70.9661C9.11435 71.0789 9.32126 71.1389 9.5327 71.1391C9.64674 71.1413 9.7602 71.1224 9.86717 71.0834C9.9591 71.049 10.043 70.9965 10.1138 70.9292ZM9.92779 68.1466C10.0936 68.151 10.2585 68.1206 10.4114 68.0575C10.5464 68.0006 10.6657 67.9131 10.7595 67.802L10.5926 67.6243C10.5849 67.6161 10.5755 67.6096 10.5651 67.6051C10.5546 67.6006 10.5434 67.5983 10.532 67.5982C10.5194 67.598 10.507 67.601 10.4959 67.6069C10.4838 67.6127 10.4726 67.6201 10.4625 67.629C10.4301 67.6583 10.3949 67.6845 10.3576 67.7075C10.3224 67.7285 10.2849 67.7456 10.2459 67.7584C10.2042 67.7726 10.161 67.7825 10.1172 67.7879C10.0657 67.7944 10.0138 67.7976 9.96185 67.7973C9.86835 67.7984 9.77562 67.7806 9.68937 67.745C9.60627 67.7094 9.53193 67.6566 9.47139 67.5901C9.4065 67.518 9.35632 67.4342 9.32357 67.3434C9.28653 67.2355 9.26856 67.1221 9.27044 67.0081C9.26821 66.8945 9.28501 66.7812 9.32016 66.6729C9.34996 66.5821 9.39816 66.4981 9.46185 66.4262C9.52099 66.3588 9.59512 66.3058 9.67847 66.2713C9.7668 66.2346 9.8619 66.2163 9.95776 66.2176C10.0103 66.2168 10.0628 66.2213 10.1144 66.231C10.1558 66.2383 10.1964 66.2493 10.2357 66.2639C10.2672 66.2748 10.2976 66.2887 10.3263 66.3055C10.3515 66.3209 10.3747 66.3356 10.3944 66.3484C10.4142 66.3611 10.4326 66.3718 10.4489 66.3812C10.4641 66.3888 10.4809 66.393 10.498 66.3933C10.5168 66.3945 10.5354 66.3896 10.5511 66.3792C10.5641 66.3708 10.5752 66.3598 10.5838 66.347L10.7255 66.1539C10.6304 66.0643 10.519 65.9931 10.3971 65.9441C10.2578 65.8882 10.1083 65.8608 9.95776 65.8636C9.80181 65.8615 9.64703 65.8905 9.50272 65.9488C9.36916 66.0019 9.2483 66.0818 9.14782 66.1834C9.04758 66.2875 8.96973 66.4104 8.91894 66.5448C8.86291 66.6921 8.83519 66.8483 8.83719 67.0055C8.83559 67.1615 8.86116 67.3166 8.91281 67.4641C8.96013 67.598 9.03477 67.721 9.13215 67.8255C9.22765 67.9268 9.34369 68.0072 9.47275 68.0615C9.61694 68.1201 9.7718 68.1491 9.92779 68.1466ZM11.1131 69.2121H12.1199L12.1206 68.8815H10.6901V71.1149H12.1206V70.783H11.1131V70.1514H11.9101V69.8316H11.1131V69.2121ZM11.2384 68.028L11.408 67.572L12.3481 67.5747L12.5177 68.0307C12.529 68.0569 12.5468 68.08 12.5695 68.0977C12.5956 68.1161 12.6273 68.1253 12.6594 68.1239H12.9857L12.094 65.8904H11.6642L10.7711 68.1239H11.1008C11.1331 68.125 11.1647 68.1147 11.1901 68.095C11.2121 68.0775 11.2289 68.0543 11.2384 68.028ZM13.7951 71.0955C13.8228 71.1102 13.8541 71.117 13.8856 71.1149H14.2684L13.7003 70.2902C13.6829 70.2627 13.6618 70.2377 13.6376 70.2158C13.6147 70.1946 13.5896 70.176 13.5627 70.1602C13.6379 70.1386 13.7094 70.1058 13.7745 70.0629C13.8347 70.0242 13.8877 69.9757 13.9312 69.9194C13.9744 69.8648 14.0073 69.803 14.0286 69.7371C14.052 69.6684 14.0638 69.5963 14.0634 69.5239C14.0643 69.4349 14.0472 69.3467 14.0129 69.2644C13.9786 69.1853 13.9245 69.1161 13.8556 69.0632C13.7752 69.0003 13.6824 68.9547 13.5831 68.9291C13.4541 68.8951 13.3209 68.879 13.1873 68.8815H12.4952V71.1143H12.9176V70.2426H13.0981C13.1303 70.2408 13.1625 70.2466 13.1921 70.2594C13.2167 70.2731 13.2373 70.2927 13.252 70.3164L13.7289 71.0318C13.7444 71.0587 13.7674 71.0808 13.7951 71.0955ZM15.0886 71.1149H15.47L16.3876 68.8782H16.047C16.0142 68.8769 15.982 68.8874 15.9564 68.9077C15.934 68.925 15.9169 68.9483 15.9074 68.9747L15.3753 70.3372C15.3563 70.3851 15.3401 70.4342 15.327 70.484C15.312 70.537 15.2984 70.592 15.2861 70.6496C15.2737 70.6018 15.2603 70.5563 15.2472 70.5116C15.2445 70.5024 15.2418 70.4932 15.2391 70.484C15.2234 70.4304 15.2064 70.3814 15.1887 70.3372L14.6533 68.9747C14.6424 68.9482 14.6245 68.9251 14.6015 68.9077C14.5756 68.8892 14.5442 68.88 14.5123 68.8815H14.1717L15.0886 71.1149ZM16.6213 71.1149H17.045V68.8815H16.6213V71.1149ZM18.5824 65.8884H17.1519L17.1512 68.1225H17.5749V67.2126H18.4257V66.8774H17.5749V66.219H18.5824V65.8884ZM18.5157 71.1404C18.6813 71.1449 18.8459 71.1145 18.9986 71.0512L18.998 71.0506C19.131 70.9932 19.2484 70.9057 19.3406 70.7951L19.1744 70.6174C19.1665 70.6092 19.157 70.6026 19.1465 70.5981C19.1359 70.5936 19.1246 70.5913 19.1131 70.5913C19.1005 70.5912 19.0881 70.5942 19.077 70.6C19.065 70.6057 19.0539 70.6131 19.0443 70.6221C19.0117 70.6515 18.9763 70.6778 18.9387 70.7006C18.9037 70.7216 18.8665 70.7387 18.8277 70.7515C18.7859 70.7657 18.7427 70.7756 18.6989 70.781C18.6474 70.7875 18.5955 70.7906 18.5436 70.7904C18.4501 70.7914 18.3574 70.7736 18.2711 70.7381C18.1882 70.7021 18.1139 70.6494 18.0531 70.5832C17.9885 70.511 17.9385 70.4273 17.906 70.3365C17.8684 70.2287 17.8502 70.1152 17.8522 70.0012C17.8502 69.8875 17.8672 69.7743 17.9026 69.666C17.9319 69.5751 17.9799 69.4911 18.0436 69.4193C18.1027 69.3519 18.1769 69.2989 18.2602 69.2644C18.3486 69.2277 18.4436 69.2095 18.5395 69.2107C18.5923 69.2099 18.645 69.2144 18.6969 69.2241C18.7394 69.2315 18.7811 69.2427 18.8215 69.2577C18.8533 69.2686 18.8838 69.2825 18.9128 69.2992C18.938 69.3147 18.9612 69.3294 18.9809 69.3421C19.0007 69.3549 19.0191 69.3656 19.0361 69.375C19.051 69.3827 19.0676 69.3868 19.0845 69.3871C19.1035 69.3882 19.1223 69.3833 19.1383 69.373C19.1513 69.3645 19.1624 69.3536 19.171 69.3408L19.312 69.1477C19.2172 69.0581 19.106 68.9869 18.9843 68.9378C18.8449 68.8821 18.6954 68.8547 18.545 68.8574C18.389 68.8553 18.2342 68.8843 18.0899 68.9425C17.9563 68.9955 17.8354 69.0754 17.735 69.1772C17.6343 69.2811 17.5562 69.404 17.5054 69.5386C17.45 69.686 17.4225 69.8421 17.4244 69.9992C17.4226 70.1552 17.4479 70.3103 17.4993 70.4579C17.5469 70.5918 17.6218 70.7148 17.7193 70.8193C17.8149 70.9204 17.9309 71.0008 18.0599 71.0553C18.2044 71.114 18.3594 71.143 18.5157 71.1404ZM20.0518 69.2127H21.0599L21.0593 68.8815H19.6287V71.1156H21.0593V70.7837H20.0518V70.1521H20.846V69.8323H20.0518V69.2127ZM20.7593 67.825C20.8617 67.7211 20.9409 67.5972 20.9918 67.4614L20.9884 67.4607C21.0458 67.3168 21.0751 67.1635 21.0749 67.0088C21.0755 66.9035 21.0629 66.7986 21.0375 66.6964C21.0148 66.6003 20.9788 66.5078 20.9305 66.4215C20.8842 66.3377 20.8262 66.2607 20.7582 66.1928C20.6915 66.1239 20.6149 66.0652 20.5307 66.0185C20.4433 65.9687 20.3493 65.9312 20.2514 65.9072C20.1453 65.8798 20.0361 65.8663 19.9264 65.867C19.7657 65.8649 19.6062 65.8943 19.4571 65.9535C19.3202 66.0071 19.1961 66.0882 19.0926 66.1915C18.991 66.2958 18.9115 66.4192 18.859 66.5542C18.7482 66.8477 18.7482 67.1706 18.859 67.4641C18.9117 67.5986 18.9911 67.7215 19.0926 67.8255C19.1964 67.9287 19.3204 68.0102 19.4571 68.0649C19.7598 68.1784 20.0944 68.1784 20.3971 68.0649C20.5335 68.0106 20.6569 67.9289 20.7593 67.825ZM22.7459 68.1033C22.7737 68.118 22.8051 68.1247 22.8365 68.1225L23.2153 68.1218L22.6471 67.2971C22.6294 67.2699 22.6083 67.2449 22.5845 67.2227C22.5614 67.2015 22.536 67.1829 22.5089 67.1671C22.5842 67.1456 22.6556 67.1128 22.7207 67.0698C22.7809 67.031 22.8341 66.9825 22.8781 66.9263C22.9208 66.8715 22.9535 66.8098 22.9748 66.744C22.9982 66.6753 23.01 66.6032 23.0095 66.5308C23.0105 66.4418 22.9934 66.3536 22.9591 66.2713C22.9248 66.1924 22.871 66.1232 22.8025 66.0701C22.7219 66.0075 22.6292 65.9619 22.53 65.936C22.4012 65.902 22.2682 65.8859 22.1349 65.8884H21.4469V68.1218H21.8685V67.2502H22.049C22.0815 67.2483 22.114 67.254 22.1437 67.267C22.1681 67.2807 22.1885 67.3003 22.203 67.3239L22.6798 68.0394C22.6953 68.0664 22.7182 68.0886 22.7459 68.1033Z" fill="white" fill-opacity="0.05"/>
</g>
<g id="label-battery" class="lcd-seg-group" opacity="0.95">
<path class="lcd-seg" d="M53.6919 69.5547C53.6948 69.5054 53.686 69.4562 53.6663 69.4109C53.6466 69.3656 53.6165 69.3256 53.5784 69.2939C53.4776 69.2253 53.3562 69.1931 53.2345 69.2027H52.9642V69.9443H53.2257C53.2944 69.9452 53.3628 69.9352 53.4284 69.9147C53.4818 69.8984 53.5311 69.871 53.573 69.8343C53.6108 69.8003 53.6402 69.7581 53.6588 69.7109C53.6798 69.6614 53.691 69.6084 53.6919 69.5547Z" fill="white" fill-opacity="0.05"/>
<path class="lcd-seg" d="M57.4122 69.308C57.3714 69.272 57.3232 69.2455 57.2709 69.2302C57.2052 69.2108 57.1368 69.2015 57.0682 69.2027H56.7554V70.0073H57.0703C57.1389 70.0087 57.2073 69.9992 57.273 69.9791C57.3235 69.9606 57.3695 69.9318 57.4081 69.8946C57.4465 69.8587 57.4759 69.8144 57.4939 69.7652C57.5132 69.7101 57.5226 69.652 57.5216 69.5936C57.5226 69.5383 57.5132 69.4832 57.4939 69.4313C57.4769 69.3844 57.4489 69.3421 57.4122 69.308Z" fill="white" fill-opacity="0.05"/>
<path class="lcd-seg" d="M60.7554 69.4112C60.7405 69.3656 60.7264 69.3167 60.7115 69.2644C60.698 69.3167 60.6845 69.3663 60.6696 69.4125C60.6547 69.4588 60.6412 69.4977 60.6277 69.5319L60.3574 70.2694H61.0736L60.7993 69.5265C60.7865 69.4957 60.7696 69.4568 60.7554 69.4112Z" fill="white" fill-opacity="0.05"/>
<path class="lcd-seg" d="M52.4953 67.8201H53.1088L53.5804 66.1036H52.4953V67.8201Z" fill="white" fill-opacity="0.05"/>
<path class="lcd-seg" d="M66.8324 65H51.1676C50.8579 65 50.5609 65.1221 50.342 65.3394C50.123 65.5566 50 65.8513 50 66.1586V70.8414C50 71.1487 50.123 71.4434 50.342 71.6606C50.5609 71.8779 50.8579 72 51.1676 72H66.8324C67.1421 72 67.4391 71.8779 67.658 71.6606C67.877 71.4434 68 71.1487 68 70.8414V66.1606C68.0004 66.0083 67.9704 65.8574 67.9119 65.7165C67.8534 65.5757 67.7674 65.4477 67.6589 65.3399C67.5505 65.232 67.4216 65.1465 67.2798 65.0882C67.138 65.0299 66.986 64.9999 66.8324 65ZM52.1649 67.9877V65.9602C52.1649 65.9475 52.1674 65.9349 52.1723 65.9232C52.1772 65.9115 52.1843 65.9008 52.1934 65.8919C52.2024 65.8829 52.2131 65.8758 52.2249 65.871C52.2367 65.8661 52.2494 65.8636 52.2622 65.8636H58.3919C58.4047 65.8635 58.4174 65.8659 58.4292 65.8708C58.4411 65.8756 58.4518 65.8827 58.4609 65.8917C58.4699 65.9007 58.4771 65.9113 58.482 65.9231C58.4868 65.9349 58.4893 65.9475 58.4892 65.9602V66.4429H58.7811V67.505H58.4892V67.9877C58.4892 68.0133 58.4789 68.0379 58.4607 68.056C58.4424 68.0741 58.4177 68.0843 58.3919 68.0843H52.2622C52.2364 68.0841 52.2118 68.0739 52.1936 68.0558C52.1754 68.0377 52.165 68.0133 52.1649 67.9877ZM53.9216 71.1149C53.8904 71.1171 53.8593 71.1105 53.8318 71.0958C53.8042 71.081 53.7815 71.0589 53.7662 71.0318L53.2932 70.3164C53.2789 70.2927 53.2586 70.2731 53.2345 70.2594C53.2052 70.2466 53.1732 70.2408 53.1412 70.2426H52.9622V71.1143H52.5432V68.8815H53.2297C53.3622 68.8791 53.4943 68.8951 53.6223 68.9291C53.7207 68.955 53.8127 69.0006 53.8926 69.0632C53.9607 69.1163 54.0144 69.1854 54.0487 69.2644C54.0824 69.3467 54.0992 69.435 54.098 69.5239C54.0983 69.5963 54.0869 69.6683 54.0642 69.7371C54.0428 69.8029 54.0101 69.8646 53.9676 69.9194C53.9241 69.9757 53.8713 70.0242 53.8115 70.0629C53.747 70.106 53.6761 70.1389 53.6014 70.1602C53.6283 70.176 53.6534 70.1946 53.6764 70.2158C53.7002 70.2379 53.7211 70.2629 53.7385 70.2902L54.302 71.1149H53.9216ZM55.9628 69.2121H54.9662V69.8316H55.7541V70.1514H54.9662V70.783H55.9655V71.1149H54.5466V68.8815H55.9655L55.9628 69.2121ZM57.8885 69.8946C57.8529 69.9832 57.7972 70.0623 57.7257 70.126C57.6458 70.1948 57.5524 70.2464 57.4514 70.2775C57.3274 70.3159 57.1981 70.3343 57.0682 70.3318H56.7554V71.1149H56.3365V68.8815H57.0703C57.2026 68.879 57.3345 68.8966 57.4615 68.9338C57.5608 68.9637 57.6529 69.0137 57.7318 69.0807C57.8021 69.142 57.8566 69.2193 57.8905 69.3059C57.9264 69.3976 57.9443 69.4953 57.9432 69.5936C57.9447 69.6965 57.9261 69.7987 57.8885 69.8946ZM59.5831 71.1176H58.2642V68.8815H58.6831V70.7723H59.5831V71.1176ZM61.4872 71.1176C61.4555 71.1192 61.4243 71.1099 61.3986 71.0915C61.3759 71.0738 61.358 71.0507 61.3466 71.0244L61.1791 70.5651H60.2459L60.0777 71.0211C60.0679 71.0474 60.0511 71.0706 60.0291 71.0881C60.0039 71.1078 59.9726 71.1181 59.9405 71.117H59.6135L60.4993 68.8835H60.9257L61.8101 71.117L61.4872 71.1176ZM63.4108 71.0506C63.2591 71.1138 63.0956 71.1442 62.9311 71.1398C62.7764 71.1422 62.6228 71.1132 62.4797 71.0546C62.3516 71.0005 62.2364 70.9201 62.1419 70.8186C62.0451 70.7141 61.9708 70.5911 61.9237 70.4572C61.8724 70.3097 61.8471 70.1546 61.8486 69.9986C61.8467 69.8414 61.8742 69.6852 61.9297 69.5379C61.9801 69.4034 62.0576 69.2804 62.1574 69.1765C62.2567 69.0748 62.3764 68.9948 62.5088 68.9419C62.6519 68.8836 62.8054 68.8546 62.9601 68.8567C63.1096 68.854 63.2581 68.8813 63.3966 68.9372C63.5172 68.9864 63.6274 69.0576 63.7216 69.147L63.5818 69.3401C63.5728 69.3528 63.5616 69.3637 63.5486 69.3723C63.5331 69.3827 63.5146 69.3876 63.4959 69.3864C63.4792 69.3861 63.4628 69.382 63.448 69.3743C63.4311 69.3649 63.4128 69.3542 63.3932 69.3415C63.3736 69.3287 63.3507 69.314 63.3257 69.2986C63.2969 69.2818 63.2666 69.2679 63.2351 69.257C63.1953 69.2423 63.1541 69.2313 63.1122 69.2241C63.0607 69.2144 63.0084 69.2099 62.9561 69.2107C62.861 69.2094 62.7667 69.2277 62.6791 69.2644C62.5964 69.2989 62.5228 69.3519 62.4642 69.4193C62.401 69.4911 62.3534 69.5751 62.3243 69.666C62.2892 69.7743 62.2723 69.8875 62.2743 70.0012C62.2725 70.1152 62.2903 70.2286 62.327 70.3365C62.3595 70.4273 62.4093 70.5111 62.4736 70.5832C62.5338 70.6495 62.6075 70.7023 62.6899 70.7381C62.7754 70.7737 62.8674 70.7915 62.9601 70.7904C63.0119 70.7907 63.0636 70.7875 63.1149 70.781C63.1581 70.7757 63.2007 70.7658 63.2419 70.7515C63.2806 70.7387 63.3178 70.7216 63.3527 70.7006C63.3898 70.6778 63.4247 70.6515 63.4568 70.6221C63.4667 70.6132 63.4778 70.6058 63.4899 70.6C63.5009 70.5941 63.5132 70.5911 63.5257 70.5913C63.5371 70.5913 63.5483 70.5936 63.5588 70.5981C63.5693 70.6026 63.5787 70.6092 63.5865 70.6174L63.7514 70.7951C63.6597 70.9057 63.543 70.9933 63.4108 71.0506ZM65.4554 69.2121H64.4554V69.8316H65.2459V70.1514H64.4554V70.783H65.4554V71.1149H64.0365V68.8815H65.4554V69.2121ZM65.8351 67.505H65.5432V67.9877C65.5432 68.0133 65.533 68.0379 65.5147 68.056C65.4965 68.0741 65.4717 68.0843 65.4459 68.0843H59.3162C59.2905 68.0841 59.2658 68.0739 59.2476 68.0558C59.2294 68.0377 59.2191 68.0133 59.2189 67.9877V65.9602C59.2189 65.9346 59.2292 65.91 59.2474 65.8919C59.2657 65.8738 59.2904 65.8636 59.3162 65.8636H65.4486C65.4614 65.8635 65.4741 65.8659 65.486 65.8708C65.4978 65.8756 65.5086 65.8827 65.5176 65.8917C65.5267 65.9007 65.5339 65.9113 65.5387 65.9231C65.5436 65.9349 65.546 65.9475 65.5459 65.9602V66.4429H65.8378L65.8351 67.505Z" fill="white" fill-opacity="0.05"/>
<path class="lcd-seg" d="M59.5493 67.8201H60.1628L60.6345 66.1036H59.5493V67.8201Z" fill="white" fill-opacity="0.05"/>
</g>
<g id="label-savings" class="lcd-seg-group" opacity="0.95">
<path class="lcd-seg" d="M37.0212 66.5477C37.008 66.5142 36.9948 66.4753 36.9802 66.4304C36.9657 66.3855 36.9518 66.3359 36.9379 66.2836C36.9247 66.3359 36.9108 66.3855 36.8962 66.4318C36.8817 66.478 36.8685 66.5169 36.8552 66.5504L36.5907 67.2878H37.2917L37.0212 66.5477Z" fill="white" fill-opacity="0.05"/>
<path class="lcd-seg" d="M29.0923 68.5593H29.089C29.05 68.5593 29.0126 68.5748 28.9847 68.6025C28.9569 68.6303 28.9409 68.6679 28.9402 68.7075C28.9394 68.7475 28.9544 68.7861 28.9817 68.815C29.0091 68.8438 29.0466 68.8605 29.086 68.8613C29.1255 68.8621 29.1637 68.847 29.1921 68.8193C29.2206 68.7915 29.237 68.7535 29.2378 68.7135C29.2385 68.6735 29.2236 68.6349 29.1964 68.606C29.1691 68.5772 29.1317 68.5604 29.0923 68.5593Z" fill="white" fill-opacity="0.05"/>
<path class="lcd-seg" d="M46.8546 65H28.1401C27.8371 65.0007 27.5468 65.1233 27.3331 65.3409C27.1193 65.5585 26.9995 65.8532 27 66.1603V70.8417C27 71.1489 27.1204 71.4435 27.3347 71.6607C27.549 71.878 27.8396 72 28.1427 72H46.8573C47.1604 72 47.451 71.878 47.6653 71.6607C47.8796 71.4435 48 71.1489 48 70.8417V66.1603C48.0003 66.0078 47.971 65.8567 47.9135 65.7157C47.8561 65.5747 47.7717 65.4466 47.6653 65.3388C47.5588 65.231 47.4324 65.1456 47.2933 65.0874C47.1542 65.0293 47.0051 64.9996 46.8546 65ZM41.0855 65.9002H41.3004C41.3152 65.899 41.33 65.899 41.3448 65.9002C41.3564 65.9005 41.3677 65.9037 41.3778 65.9096C41.3889 65.9141 41.3988 65.9209 41.4069 65.9297C41.418 65.94 41.4282 65.9512 41.4373 65.9632L42.5926 67.4587C42.5895 67.4225 42.5869 67.387 42.5847 67.3521C42.5847 67.3166 42.5847 67.2851 42.5847 67.2542V65.9002H42.9457V68.1337H42.7355C42.7071 68.1344 42.679 68.1291 42.6528 68.1183C42.6287 68.104 42.6075 68.0851 42.5906 68.0626L41.44 66.5739C41.4466 66.6409 41.4492 66.7046 41.4492 66.7622V68.1337H41.0855V65.9002ZM40.1809 65.9002H40.5922V68.1337H40.1809V65.9002ZM36.7296 65.9002H37.1475L38.0125 68.1337H37.6957C37.6648 68.1352 37.6342 68.126 37.6091 68.1075C37.5873 68.0896 37.57 68.0666 37.5589 68.0405L37.3942 67.5854H36.4816L36.3169 68.0405C36.308 68.0672 36.2914 68.0905 36.2693 68.1075C36.2448 68.1275 36.2141 68.1379 36.1827 68.137H35.8613L36.7296 65.9002ZM30.1444 66.5826C30.2181 66.4301 30.3335 66.3023 30.477 66.2146C30.6204 66.1268 30.7858 66.0829 30.9532 66.0879C31.1114 66.0955 31.2644 66.1475 31.3951 66.2381C31.5259 66.3286 31.6293 66.4541 31.6939 66.6007C31.7765 66.7859 31.7954 66.9939 31.7474 67.1912C31.7436 67.2077 31.7338 67.2221 31.7199 67.2316C31.7061 67.241 31.6892 67.2448 31.6727 67.2422C31.5327 67.2095 31.3906 67.1871 31.2475 67.1751C31.2389 67.1751 31.2329 67.1664 31.2296 67.157C31.2324 67.0986 31.2146 67.0412 31.1794 66.9948C31.1165 66.9131 31.016 66.8923 30.8937 66.838C30.7714 66.7837 30.8223 66.6898 30.9029 66.6778C30.9803 66.6694 31.0584 66.6831 31.1284 66.7173C31.1404 66.7234 31.1463 66.7173 31.1496 66.7079C31.1529 66.6986 31.1761 66.6087 31.1853 66.5739C31.1862 66.5719 31.1866 66.5698 31.1866 66.5676C31.1866 66.5655 31.1861 66.5634 31.1852 66.5614C31.1843 66.5595 31.1831 66.5577 31.1815 66.5563C31.1799 66.5549 31.1781 66.5538 31.1761 66.5531C31.1195 66.5295 31.0593 66.5161 30.9982 66.5136C30.9922 66.5075 30.9863 66.5015 30.9863 66.4955V66.4023C30.9865 66.4001 30.9862 66.3979 30.9855 66.3958C30.9849 66.3937 30.9838 66.3917 30.9824 66.39C30.981 66.3883 30.9792 66.387 30.9773 66.386C30.9754 66.385 30.9732 66.3844 30.9711 66.3842H30.8619C30.8581 66.3842 30.8544 66.3853 30.8512 66.3874C30.848 66.3896 30.8455 66.3927 30.8441 66.3963V66.5075C30.8442 66.5096 30.8439 66.5116 30.8431 66.5135C30.8424 66.5154 30.8413 66.5172 30.8398 66.5186C30.8384 66.5201 30.8367 66.5212 30.8348 66.522C30.8329 66.5227 30.8309 66.523 30.8289 66.5229C30.7749 66.5335 30.7252 66.56 30.686 66.5991C30.6468 66.6383 30.6199 66.6882 30.6087 66.7428C30.567 66.9439 30.7813 67.0203 30.8467 67.0444C30.9003 67.0652 30.975 67.0893 31.0015 67.1343C31.0107 67.1497 31.0015 67.1617 30.9869 67.1584C30.7082 67.146 30.4293 67.1765 30.1597 67.2489C30.1548 67.2485 30.15 67.2485 30.1451 67.2489C30.1299 67.2493 30.115 67.2444 30.103 67.235C30.091 67.2256 30.0825 67.2123 30.079 67.1973C30.0325 66.9906 30.0558 66.7742 30.1451 66.5826H30.1444ZM32.2083 70.1935C32.039 70.4409 31.8188 70.7479 31.7355 70.8638C31.7246 70.879 31.7102 70.8913 31.6937 70.8997C31.6771 70.908 31.6588 70.9123 31.6403 70.9121H31.471C31.4406 70.9123 31.4114 70.9004 31.3897 70.8789C31.3679 70.8575 31.3553 70.8282 31.3546 70.7975V70.52C31.3545 70.4329 31.3404 70.3464 31.3129 70.2639C31.3054 70.2385 31.2894 70.2166 31.2677 70.2018C31.246 70.187 31.2199 70.1803 31.1939 70.1828C30.9298 70.2013 30.6648 70.2034 30.4004 70.1888C30.3777 70.1882 30.3553 70.1942 30.3358 70.2061C30.3164 70.218 30.3007 70.2352 30.2906 70.2559C30.1743 70.4665 30.0472 70.6708 29.9097 70.8679C29.8983 70.8815 29.8843 70.8925 29.8685 70.9003C29.8526 70.908 29.8353 70.9123 29.8178 70.9128H29.6452C29.6149 70.913 29.5857 70.901 29.5641 70.8796C29.5424 70.8581 29.53 70.8288 29.5294 70.7981V70.467C29.5259 70.358 29.5058 70.2501 29.4699 70.1473C29.4641 70.1276 29.4528 70.11 29.4375 70.0966C29.4222 70.0832 29.4034 70.0745 29.3833 70.0715C29.333 70.0595 29.251 70.0414 29.1578 70.0172C28.8448 69.9387 28.5443 69.816 28.2651 69.6526C28.1161 69.4852 28.0355 69.2667 28.0396 69.0413C28.0396 68.8905 28.0124 68.7819 28.1791 68.7819C28.2473 68.794 28.3175 68.7884 28.383 68.7656C28.4486 68.7429 28.5074 68.7038 28.554 68.6518C28.6509 68.5462 28.7531 68.4458 28.8602 68.3509C28.9138 68.3086 28.9197 68.2838 28.9224 68.2543C28.9207 68.2079 28.9096 68.1623 28.89 68.1203C28.8748 68.072 28.8272 67.9192 28.884 67.8703C28.9658 67.8453 29.0526 67.8427 29.1357 67.8628C29.2188 67.883 29.2951 67.9251 29.3568 67.9849C29.3568 67.9849 29.3568 67.9909 29.3628 67.9909C29.4136 68.0505 29.4539 68.1185 29.4818 68.192C29.4899 68.2132 29.5042 68.2315 29.5227 68.2444C29.5412 68.2574 29.5632 68.2643 29.5857 68.2644C29.5992 68.2648 29.6126 68.2618 29.6247 68.2557C29.6519 68.2455 29.6741 68.2249 29.6865 68.1984C29.6988 68.1718 29.7004 68.1413 29.6908 68.1136C29.6733 68.0673 29.6523 68.0225 29.628 67.9795C29.6217 67.9719 29.617 67.9631 29.6142 67.9536C29.6114 67.9441 29.6105 67.9341 29.6116 67.9243C29.6128 67.9145 29.6158 67.9049 29.6207 67.8963C29.6255 67.8877 29.6321 67.8802 29.6399 67.8743H29.6432C30.0324 67.6282 30.484 67.5026 30.9426 67.513C32.7658 67.513 32.7989 68.6941 32.7989 68.9877C32.7145 69.4366 32.5105 69.8536 32.209 70.1935H32.2083ZM34.3245 67.8649L34.4448 67.6638C34.4553 67.6491 34.4688 67.637 34.4845 67.6283C34.4998 67.6181 34.5178 67.6127 34.5361 67.6129C34.5663 67.6146 34.5952 67.6258 34.6188 67.645C34.6478 67.6658 34.6849 67.6886 34.7239 67.7121C34.769 67.7397 34.8164 67.7635 34.8654 67.7831C34.9293 67.805 34.9964 67.8155 35.0638 67.8139C35.1612 67.8202 35.2576 67.7905 35.3349 67.7302C35.3678 67.6996 35.3935 67.6621 35.4102 67.6202C35.4269 67.5784 35.4341 67.5333 35.4315 67.4882C35.4335 67.4364 35.4178 67.3855 35.3872 67.3441C35.3537 67.3061 35.3124 67.2761 35.2662 67.2563C35.2142 67.2281 35.1595 67.2056 35.1028 67.1892C35.042 67.1718 34.9805 67.153 34.917 67.1322C34.8536 67.1115 34.7916 67.0869 34.7312 67.0585C34.6712 67.0301 34.6162 66.9918 34.5685 66.9452C34.5185 66.8963 34.4791 66.8374 34.4528 66.7723C34.4221 66.6901 34.4075 66.6027 34.4098 66.5149C34.4099 66.4332 34.4258 66.3524 34.4567 66.2769C34.4896 66.1996 34.5372 66.1297 34.5969 66.0712C34.6622 66.009 34.7388 65.9603 34.8224 65.9277C34.9208 65.89 35.0254 65.8715 35.1306 65.8734C35.2532 65.8722 35.3751 65.8933 35.4903 65.9358C35.5945 65.9734 35.6899 66.0323 35.7707 66.1087L35.6682 66.3044C35.6586 66.3232 35.645 66.3397 35.6285 66.3527C35.6135 66.3621 35.596 66.3667 35.5783 66.3661C35.5533 66.365 35.5291 66.3571 35.5082 66.3433C35.4837 66.3265 35.4546 66.3084 35.4202 66.289C35.3812 66.2677 35.3402 66.2502 35.2979 66.2367C35.1961 66.2059 35.0876 66.2059 34.9858 66.2367C34.9464 66.2486 34.9096 66.2679 34.8773 66.2937C34.8483 66.3177 34.8256 66.3485 34.8112 66.3835C34.7964 66.4191 34.7889 66.4575 34.7894 66.4961C34.7873 66.5446 34.8025 66.5922 34.8323 66.6302C34.8647 66.6676 34.904 66.6981 34.9481 66.72C35.0005 66.7471 35.0552 66.7695 35.1114 66.787C35.1723 66.8065 35.2344 66.8273 35.2986 66.85C35.3624 66.872 35.4249 66.8977 35.4857 66.9271C35.5455 66.9554 35.6007 66.9929 35.649 67.0384C35.698 67.0845 35.737 67.1404 35.7634 67.2026C35.7945 67.2772 35.8094 67.3577 35.8071 67.4386C35.8078 67.5358 35.7903 67.6322 35.7555 67.7228C35.7226 67.8094 35.6716 67.8879 35.6061 67.9527C35.5375 68.02 35.4563 68.0727 35.3673 68.1075C35.2634 68.1462 35.1533 68.165 35.0426 68.1632C34.9728 68.1632 34.9032 68.1558 34.835 68.1411C34.7672 68.1279 34.7008 68.1084 34.6366 68.0827C34.5757 68.057 34.5171 68.0261 34.4614 67.9902C34.4108 67.9536 34.3642 67.9116 34.3225 67.8649H34.3245ZM35.8871 69.2229H34.9091V69.8423H35.6801V70.1614H34.9091V70.7928H35.8871V71.1279H34.4984V68.8925H35.8871V69.2229ZM37.25 71.1259H36.8797L35.9896 68.8925H36.3203C36.3512 68.891 36.3817 68.9003 36.4069 68.9186C36.4291 68.9361 36.4465 68.9592 36.4571 68.9856L36.9769 70.3477C36.9941 70.3919 37.0106 70.4409 37.0259 70.4945C37.0411 70.5481 37.0569 70.6017 37.0715 70.6594C37.0834 70.6017 37.0966 70.5468 37.1112 70.4945C37.1239 70.4447 37.1396 70.3957 37.1581 70.3477L37.6746 68.9856C37.6838 68.9591 37.7003 68.9359 37.7222 68.9186C37.7473 68.8988 37.7784 68.8884 37.8101 68.8891H38.1408L37.25 71.1259ZM39.7557 69.2229H38.7776V69.8423H39.5487V70.1614H38.7776V70.7928H39.7557V71.1279H38.367V68.8925H39.7557V69.2229ZM39.064 68.1337H38.6936L37.8035 65.9002H38.1342C38.1651 65.8988 38.1957 65.908 38.2208 65.9264C38.2431 65.9439 38.2604 65.967 38.2711 65.9934L38.7908 67.3555C38.808 67.3997 38.8246 67.4486 38.8398 67.5023C38.855 67.5559 38.8709 67.6095 38.8854 67.6672C38.8973 67.6095 38.9105 67.5545 38.9251 67.5023C38.9379 67.4524 38.9535 67.4034 38.972 67.3555L39.4885 65.9934C39.4977 65.9669 39.5142 65.9436 39.5361 65.9264C39.5612 65.9066 39.5923 65.8962 39.6241 65.8969H39.9547L39.064 68.1337ZM41.9736 71.1259H41.7634C41.7353 71.1267 41.7073 71.1215 41.6814 71.1105C41.657 71.0963 41.6357 71.0774 41.6185 71.0549L40.4685 69.5661C40.4745 69.6332 40.4778 69.6968 40.4778 69.7545V71.1259H40.1167V68.8925H40.331C40.3457 68.8912 40.3606 68.8912 40.3753 68.8925C40.3871 68.8928 40.3987 68.8961 40.409 68.9019C40.42 68.9065 40.4299 68.9133 40.4381 68.922C40.4492 68.9322 40.4594 68.9434 40.4685 68.9555L41.6232 70.4509C41.6232 70.4147 41.6179 70.3792 41.6159 70.3443C41.6139 70.3095 41.6126 70.2773 41.6126 70.2465V68.8925H41.9736V71.1259ZM44.0031 69.2337H43.3419V71.1259H42.9319V69.2337H42.2706V68.8925H44.0091L44.0031 69.2337ZM45.2517 67.9172C45.1438 67.9989 45.0227 68.0611 44.8939 68.1008C44.7623 68.1399 44.6257 68.1594 44.4885 68.1585C44.3217 68.1606 44.1558 68.1317 43.9992 68.0734C43.8604 68.0208 43.7335 67.9403 43.6262 67.8367C43.5225 67.7348 43.4414 67.6116 43.3881 67.4754C43.3313 67.3295 43.3028 67.1738 43.3042 67.017C43.3024 66.8592 43.33 66.7025 43.3855 66.5551C43.4355 66.4186 43.514 66.2946 43.6157 66.1917C43.7174 66.0889 43.8399 66.0095 43.9747 65.9592C44.1267 65.9015 44.2879 65.8731 44.4502 65.8754C44.534 65.8749 44.6177 65.8823 44.7002 65.8975C44.7739 65.9105 44.8463 65.9305 44.9164 65.9572C44.9805 65.9808 45.0419 66.0114 45.0996 66.0484C45.1531 66.0837 45.2036 66.1236 45.2503 66.1677L45.1326 66.356C45.125 66.3697 45.1147 66.3816 45.1025 66.3911C45.0902 66.4007 45.0762 66.4077 45.0612 66.4117C45.0275 66.4167 44.9931 66.4083 44.9653 66.3882L44.8648 66.3299C44.8288 66.3092 44.791 66.2922 44.7517 66.2789C44.7067 66.2632 44.6605 66.2514 44.6135 66.2434C44.555 66.2334 44.4957 66.2287 44.4363 66.2293C44.3351 66.2281 44.2347 66.247 44.1407 66.285C44.0554 66.3203 43.979 66.3746 43.9172 66.4438C43.8533 66.5161 43.8045 66.6007 43.7737 66.6925C43.7389 66.797 43.7219 66.9067 43.7234 67.017C43.7217 67.1336 43.7398 67.2497 43.777 67.3602C43.8103 67.4545 43.862 67.5412 43.9291 67.6149C43.9962 67.6846 44.0774 67.7388 44.1671 67.7737C44.2659 67.8111 44.3706 67.8295 44.476 67.828C44.5496 67.8291 44.623 67.8201 44.6942 67.8012C44.7587 67.7836 44.8213 67.7598 44.8813 67.7302V67.328H44.6043C44.5814 67.3292 44.5589 67.3215 44.5414 67.3065C44.5276 67.2914 44.52 67.2715 44.5203 67.2509V67.0109H45.2517V67.9172ZM46.9095 67.7161C46.8766 67.8027 46.8256 67.8811 46.7601 67.946C46.6915 68.0133 46.6104 68.066 46.5213 68.1008C46.4174 68.1394 46.3073 68.1583 46.1967 68.1565C46.1269 68.1565 46.0573 68.1491 45.989 68.1344C45.9212 68.1212 45.8548 68.1017 45.7906 68.076C45.7297 68.0503 45.6711 68.0194 45.6154 67.9835C45.5625 67.9488 45.5135 67.9084 45.4692 67.8629L45.5896 67.6618C45.6 67.6471 45.6136 67.635 45.6293 67.6263C45.6446 67.6161 45.6625 67.6107 45.6808 67.6108C45.711 67.6126 45.7399 67.6238 45.7635 67.643C45.7926 67.6638 45.8296 67.6866 45.8687 67.71C45.9138 67.7377 45.9611 67.7615 46.0102 67.7811C46.074 67.803 46.1412 67.8135 46.2086 67.8119C46.306 67.8182 46.4023 67.7885 46.4797 67.7281C46.5125 67.6976 46.5382 67.6601 46.5549 67.6182C46.5716 67.5763 46.5789 67.5312 46.5762 67.4862C46.5782 67.4344 46.5626 67.3835 46.5319 67.3421C46.5009 67.3031 46.4618 67.2716 46.4175 67.2496C46.3656 67.2214 46.3108 67.1989 46.2542 67.1825C46.1933 67.1651 46.1318 67.1463 46.0684 67.1255C46.005 67.1048 45.9429 67.0802 45.8825 67.0518C45.8226 67.0234 45.7676 66.9851 45.7199 66.9385C45.6699 66.8896 45.6305 66.8307 45.6041 66.7656C45.5734 66.6834 45.5588 66.596 45.5612 66.5082C45.5613 66.4265 45.5772 66.3457 45.6081 66.2702C45.641 66.1929 45.6886 66.123 45.7483 66.0645C45.8136 66.0023 45.8902 65.9536 45.9738 65.921C46.0722 65.8833 46.1768 65.8648 46.282 65.8667C46.4046 65.8654 46.5265 65.8866 46.6417 65.929C46.7458 65.9667 46.8412 66.0256 46.9221 66.102L46.8196 66.2977C46.8099 66.3165 46.7964 66.333 46.7799 66.346C46.7648 66.3554 46.7473 66.36 46.7297 66.3594C46.7047 66.3583 46.6805 66.3504 46.6596 66.3366C46.6351 66.3198 46.606 66.3017 46.5716 66.2823C46.5325 66.261 46.4916 66.2435 46.4493 66.23C46.3474 66.1992 46.239 66.1992 46.1371 66.23C46.0977 66.2419 46.0609 66.2612 46.0287 66.287C45.9997 66.311 45.977 66.3418 45.9626 66.3768C45.9477 66.4124 45.9403 66.4508 45.9407 66.4894C45.9386 66.5379 45.9539 66.5855 45.9837 66.6235C46.0161 66.6609 46.0554 66.6914 46.0994 66.7133C46.1519 66.7404 46.2065 66.7628 46.2628 66.7803C46.3236 66.7998 46.3858 66.8206 46.4499 66.8433C46.5138 66.8653 46.5763 66.891 46.6371 66.9204C46.6969 66.9487 46.752 66.9862 46.8004 67.0317C46.8494 67.0778 46.8883 67.1337 46.9148 67.1959C46.9459 67.2705 46.9607 67.351 46.9585 67.4319C46.9599 67.5297 46.9428 67.6268 46.9082 67.7181L46.9095 67.7161Z" fill="white" fill-opacity="0.05"/>
</g>
<g id="label-indoor" class="lcd-seg-group" opacity="0.95">

<path class="lcd-seg" d="M42.4412 3.0423H41.8037V6.46207H42.4412V3.0423Z" fill="white" fill-opacity="0.05"/>
<path class="lcd-seg" d="M45.5241 5.121C45.5241 5.16666 45.5241 5.21654 45.529 5.26993C45.534 5.32332 45.5361 5.37811 45.5403 5.43361L43.7512 3.14416C43.7376 3.12556 43.7223 3.10817 43.7057 3.09218C43.693 3.07887 43.6777 3.06835 43.6608 3.06127C43.6447 3.05289 43.627 3.04809 43.6089 3.04722C43.5857 3.04342 43.5622 3.04177 43.5387 3.0423H43.2056V6.46207H43.7667V4.3623C43.7667 4.27378 43.7618 4.17754 43.7526 4.07357L45.5347 6.35318C45.5586 6.39014 45.5921 6.41983 45.6317 6.43903C45.6712 6.45823 45.7153 6.4662 45.7591 6.46207H46.0852V3.0423H45.5241V5.121Z" fill="white" fill-opacity="0.05"/>
<path class="lcd-seg" d="M49.3989 3.52281C49.2433 3.36905 49.0575 3.24943 48.8532 3.17156C48.6276 3.08349 48.3871 3.03961 48.1449 3.0423H46.844V6.46207H48.1449C48.3868 6.46537 48.6271 6.42294 48.8532 6.33703C49.0573 6.25976 49.2426 6.14013 49.3972 5.98601C49.5518 5.83188 49.6721 5.64674 49.7502 5.44274C49.8357 5.22271 49.8783 4.98829 49.8757 4.75219C49.8783 4.51608 49.8357 4.28168 49.7502 4.06163C49.6716 3.85959 49.552 3.67611 49.3989 3.52281ZM49.1485 5.25588C49.1043 5.39571 49.0309 5.52454 48.9332 5.63382C48.8391 5.73715 48.7231 5.81805 48.5938 5.87057C48.4515 5.92956 48.2989 5.95942 48.1449 5.95838H47.4815V3.5488H48.1449C48.2985 3.54633 48.451 3.57426 48.5938 3.631C48.7235 3.68376 48.8396 3.76544 48.9332 3.86985C49.0315 3.97898 49.1049 4.10816 49.1485 4.24849C49.201 4.41112 49.2263 4.5813 49.2235 4.75219C49.2258 4.92304 49.2005 5.09314 49.1485 5.25588Z" fill="white" fill-opacity="0.05"/>
<path class="lcd-seg" d="M53.4748 3.85088C53.4051 3.72227 53.3177 3.60405 53.2154 3.49963C53.115 3.39412 52.9997 3.30394 52.8731 3.23198C52.7412 3.15638 52.5997 3.09918 52.4523 3.06197C52.2922 3.01955 52.1271 2.99876 51.9614 3.00015C51.7198 2.99703 51.4799 3.04217 51.2559 3.13292C51.0501 3.21483 50.8636 3.33876 50.7082 3.49682C50.5551 3.65648 50.4358 3.84549 50.3575 4.0525C50.2726 4.27437 50.2302 4.51034 50.2327 4.74797C50.2303 4.98628 50.2727 5.22291 50.3575 5.44555C50.4356 5.65304 50.556 5.842 50.7109 6.00043C50.8658 6.15885 51.0518 6.28329 51.2573 6.36583C51.7127 6.53909 52.2157 6.53909 52.6711 6.36583C52.876 6.28328 53.0615 6.15878 53.2156 6.00032C53.3696 5.84185 53.489 5.65289 53.566 5.44555C53.6511 5.22295 53.6937 4.98632 53.6915 4.74797C53.6923 4.58701 53.6732 4.42656 53.6347 4.27027C53.6002 4.12401 53.5464 3.98299 53.4748 3.85088ZM52.9671 5.25588C52.922 5.39605 52.849 5.52559 52.7525 5.63663C52.6582 5.73998 52.5419 5.82087 52.4124 5.87338C52.2698 5.93075 52.1172 5.95893 51.9635 5.95627C51.8092 5.95867 51.656 5.9305 51.5126 5.87338C51.3836 5.82014 51.2678 5.73935 51.1732 5.63663C51.0761 5.52581 51.0029 5.39622 50.9579 5.25588C50.9055 5.09225 50.8802 4.92117 50.8828 4.74938C50.88 4.57849 50.9054 4.40831 50.9579 4.24568C51.0029 4.10535 51.0761 3.97576 51.1732 3.86493C51.2673 3.76114 51.3832 3.67956 51.5126 3.62608C51.656 3.56896 51.8092 3.54079 51.9635 3.54318C52.1172 3.54052 52.2698 3.56871 52.4124 3.62608C52.5423 3.67884 52.6587 3.76051 52.7525 3.86493C52.849 3.97598 52.922 4.10552 52.9671 4.24568C53.0198 4.40827 53.0454 4.57845 53.0428 4.74938C53.0452 4.92121 53.0196 5.09229 52.9671 5.25588Z" fill="white" fill-opacity="0.05"/>
<path class="lcd-seg" d="M57.2885 3.85088C57.2188 3.72227 57.1314 3.60405 57.0291 3.49963C56.9287 3.39412 56.8134 3.30394 56.6868 3.23198C56.5549 3.15638 56.4134 3.09918 56.266 3.06197C56.1059 3.01955 55.9408 2.99876 55.7751 3.00015C55.5335 2.99703 55.2936 3.04217 55.0696 3.13292C54.8638 3.21483 54.6773 3.33876 54.5219 3.49682C54.3688 3.65648 54.2495 3.84549 54.1712 4.0525C54.0863 4.27437 54.0439 4.51034 54.0464 4.74797C54.044 4.98628 54.0864 5.22291 54.1712 5.44555C54.2493 5.65304 54.3697 5.842 54.5246 6.00043C54.6795 6.15885 54.8655 6.28329 55.071 6.36583C55.5264 6.53909 56.0294 6.53909 56.4848 6.36583C56.6896 6.28391 56.875 6.16013 57.0293 6.00241C57.1837 5.84468 57.3035 5.65647 57.3811 5.44977C57.4662 5.22717 57.5088 4.99054 57.5066 4.75219C57.508 4.59057 57.4894 4.42941 57.4512 4.27238C57.416 4.12526 57.3612 3.98351 57.2885 3.85088ZM56.7808 5.25588C56.7354 5.39505 56.6624 5.52361 56.5662 5.63382C56.4719 5.73717 56.3556 5.81806 56.2261 5.87057C56.0835 5.92794 55.9309 5.95612 55.7772 5.95346C55.6229 5.95591 55.4697 5.92774 55.3263 5.87057C55.1973 5.81733 55.0814 5.73654 54.9868 5.63382C54.8902 5.52383 54.8169 5.39522 54.7715 5.25588C54.719 5.09229 54.6934 4.92121 54.6958 4.74938C54.6933 4.57845 54.7188 4.40827 54.7715 4.24568C54.8166 4.10535 54.8898 3.97576 54.9868 3.86493C55.081 3.76114 55.1969 3.67956 55.3263 3.62608C55.4697 3.5689 55.6229 3.54073 55.7772 3.54318C55.9309 3.54052 56.0835 3.56871 56.2261 3.62608C56.356 3.67884 56.4724 3.76051 56.5662 3.86493C56.6627 3.97598 56.7357 4.10552 56.7808 4.24568C56.8335 4.40827 56.8591 4.57845 56.8565 4.74938C56.8589 4.92121 56.8333 5.09229 56.7808 5.25588Z" fill="white" fill-opacity="0.05"/>
<path class="lcd-seg" d="M59.8743 5.19898C59.8479 5.15743 59.8163 5.11942 59.7803 5.08587C59.7459 5.05314 59.7078 5.0246 59.6667 5.00087C59.7798 4.96732 59.8873 4.91713 59.9858 4.85194C60.076 4.79208 60.1557 4.71752 60.2214 4.63136C60.2864 4.54704 60.336 4.45192 60.368 4.35036C60.4028 4.24525 60.4204 4.13515 60.4199 4.0244C60.4216 3.8881 60.3958 3.75287 60.3441 3.62678C60.2931 3.50455 60.2121 3.39725 60.1085 3.31487C59.9874 3.22036 59.8482 3.15174 59.6996 3.11325C59.5057 3.06195 59.3055 3.0383 59.1049 3.043H58.0635V6.46207H58.6989V5.12732H58.9703C59.0184 5.12454 59.0666 5.13346 59.1105 5.15331C59.1475 5.17435 59.1784 5.2046 59.2003 5.24113L59.9177 6.33562C59.941 6.37716 59.9756 6.41123 60.0174 6.43387C60.0592 6.4565 60.1066 6.46677 60.1541 6.46348H60.7277L59.8743 5.19898ZM59.4072 4.62363C59.3063 4.65561 59.2009 4.6708 59.0951 4.66859H58.6989V3.53405H59.1049C59.2897 3.5202 59.4737 3.56975 59.6267 3.67455C59.6847 3.72301 59.7305 3.78442 59.7604 3.85385C59.7904 3.92327 59.8037 3.99877 59.7992 4.07427C59.7999 4.15586 59.7854 4.23686 59.7564 4.31312C59.7284 4.38535 59.684 4.45006 59.6267 4.5021C59.563 4.55774 59.4881 4.59917 59.4072 4.62363Z" fill="white" fill-opacity="0.05"/>

</g>
<g id="icon-set-to" class="lcd-seg-group" opacity="0.95" transform="translate(0 -5)">

<path class="lcd-seg" d="M30.731 8.9426C30.7066 8.98441 30.6747 9.02116 30.6369 9.05093C30.6002 9.07692 30.5561 9.08986 30.5114 9.08775C30.4593 9.08602 30.4084 9.07092 30.3636 9.04385C30.3114 9.01482 30.2521 8.98154 30.1852 8.94614C30.1124 8.90665 30.0364 8.87371 29.958 8.84773C29.8639 8.81686 29.7654 8.80203 29.6666 8.80383C29.5172 8.79227 29.3688 8.83575 29.2484 8.92632C29.2023 8.96737 29.1659 9.01838 29.1418 9.07559C29.1177 9.13281 29.1064 9.19478 29.109 9.25697C29.1077 9.29748 29.1145 9.33784 29.1289 9.37566C29.1432 9.41348 29.1649 9.44799 29.1926 9.47717C29.2554 9.54116 29.3297 9.59236 29.4115 9.62798C29.5104 9.67461 29.6124 9.71412 29.7168 9.74622C29.8334 9.78162 29.9519 9.8208 30.0723 9.86375C30.1938 9.90706 30.3126 9.95814 30.4278 10.0167C30.5421 10.0735 30.6466 10.1488 30.7372 10.2397C30.83 10.3349 30.904 10.4471 30.9554 10.5704C31.0147 10.7196 31.0432 10.8796 31.0391 11.0405C31.0405 11.2358 31.005 11.4295 30.9345 11.6112C30.8673 11.7855 30.7647 11.9435 30.6334 12.0749C30.4938 12.2119 30.3276 12.3178 30.1455 12.3858C29.935 12.4648 29.7119 12.5035 29.4875 12.4998C29.3491 12.4994 29.2111 12.4852 29.0755 12.4573C28.9369 12.4294 28.801 12.3893 28.6691 12.3376C28.5413 12.2881 28.4181 12.2269 28.3011 12.1549C28.1916 12.0892 28.0905 12.01 28 11.9192L28.2976 11.442C28.3226 11.4069 28.3547 11.3777 28.3917 11.3563C28.4296 11.3332 28.473 11.3212 28.5172 11.3216C28.5815 11.323 28.6441 11.3429 28.6977 11.3789C28.7584 11.4172 28.8267 11.4589 28.9027 11.5057C28.9868 11.5554 29.0749 11.5978 29.1661 11.6324C29.278 11.6727 29.396 11.6921 29.5146 11.6898C29.666 11.6992 29.8159 11.656 29.9398 11.5673C29.9933 11.5192 30.0348 11.459 30.0612 11.3916C30.0876 11.3242 30.0981 11.2515 30.0918 11.1793C30.0956 11.0882 30.066 10.9989 30.0088 10.9286C29.9477 10.8604 29.8731 10.8059 29.79 10.7686C29.6905 10.7226 29.5875 10.6852 29.4819 10.6567C29.3669 10.6249 29.2491 10.5859 29.1278 10.5498C29.007 10.5114 28.8891 10.4641 28.7751 10.4082C28.6602 10.3512 28.5557 10.2745 28.4663 10.1817C28.3716 10.0792 28.2975 9.95895 28.2481 9.82764C28.1886 9.66172 28.1605 9.48589 28.1652 9.30936C28.1651 9.14335 28.1983 8.97905 28.2628 8.82649C28.3293 8.66774 28.4276 8.52476 28.5514 8.40662C28.6863 8.27806 28.8451 8.17796 29.0184 8.11208C29.2206 8.03525 29.4353 7.99778 29.6513 8.00163C29.7813 8.00151 29.9111 8.01193 30.0395 8.03278C30.1616 8.05361 30.2817 8.08511 30.3985 8.12695C30.5081 8.16663 30.614 8.21616 30.7149 8.27493C30.8094 8.33007 30.8977 8.39534 30.9784 8.46964L30.731 8.9426Z" fill="white" fill-opacity="0.05"/>
<path class="lcd-seg" d="M32.6443 8.83356V9.86091H34.007V10.6157H32.6443V11.6643H34.4231V12.4495H31.635V8.04694H34.4231V8.83356H32.6443Z" fill="white" fill-opacity="0.05"/>
<path class="lcd-seg" d="M38.3244 8.85763H37.1053V12.4495H36.0995V8.85763H34.8804V8.04694H38.3244V8.85763Z" fill="white" fill-opacity="0.05"/>
<path class="lcd-seg" d="M43.3402 8.85763H42.1239V12.4495H41.1153V8.85763H39.8934V8.04694H43.3375L43.3402 8.85763Z" fill="white" fill-opacity="0.05"/>
<path class="lcd-seg" d="M47.9999 10.2475C48.0027 10.5513 47.9478 10.8527 47.8382 11.1354C47.7355 11.4048 47.5789 11.6497 47.3783 11.8546C47.1777 12.0595 46.9375 12.2198 46.6727 12.3256C46.0794 12.5561 45.4231 12.5561 44.8298 12.3256C44.564 12.2203 44.3226 12.0601 44.1208 11.8553C43.919 11.6504 43.7612 11.4053 43.6574 11.1354C43.4409 10.5639 43.4409 9.93111 43.6574 9.35963C43.7607 9.09281 43.9166 8.8502 44.1153 8.64664C44.3184 8.44102 44.5605 8.27961 44.827 8.17226C45.1207 8.05451 45.4342 7.99607 45.7499 8.00021C46.0648 7.99616 46.3774 8.0551 46.67 8.17367C46.9354 8.28252 47.1767 8.4443 47.3795 8.64947C47.5771 8.85363 47.7321 9.09612 47.8354 9.36246C47.9457 9.644 48.0015 9.94449 47.9999 10.2475ZM46.9718 10.2475C46.9745 10.0484 46.9462 9.85004 46.8881 9.65983C46.8391 9.49726 46.7577 9.34665 46.649 9.21731C46.5443 9.09605 46.4133 9.00106 46.2664 8.93976C46.1033 8.8728 45.9286 8.83982 45.7527 8.84276C45.5749 8.83958 45.3984 8.87256 45.2334 8.93976C45.0861 9.00069 44.9548 9.09573 44.85 9.21731C44.7409 9.34642 44.6592 9.49709 44.6102 9.65983C44.4996 10.0445 44.4996 10.4533 44.6102 10.838C44.6592 11.0007 44.7409 11.1514 44.85 11.2805C44.9545 11.4021 45.0859 11.4967 45.2334 11.5566C45.3986 11.623 45.5751 11.6555 45.7527 11.6522C45.9285 11.6553 46.1031 11.6228 46.2664 11.5566C46.4135 11.4964 46.5446 11.4018 46.649 11.2805C46.7577 11.1512 46.8391 11.0006 46.8881 10.838C46.9464 10.6468 46.9746 10.4476 46.9718 10.2475Z" fill="white" fill-opacity="0.05"/>

</g>
<g id="label-outdoor" class="lcd-seg-group" opacity="0.95">
<path class="lcd-seg" d="M18.8095 4.75199C18.8121 4.58106 18.7865 4.41088 18.7338 4.24829C18.6887 4.10813 18.6157 3.97859 18.5192 3.86754C18.4254 3.76312 18.309 3.68145 18.1791 3.62869C18.0365 3.57137 17.8839 3.54319 17.7302 3.54579C17.5759 3.54334 17.4227 3.57151 17.2793 3.62869C17.1498 3.68235 17.0337 3.76389 16.9392 3.86754C16.8426 3.97859 16.7696 4.10813 16.7246 4.24829C16.6718 4.41088 16.6463 4.58106 16.6488 4.75199C16.647 4.92292 16.6728 5.09302 16.7253 5.25568C16.7706 5.39485 16.8436 5.52341 16.9399 5.63362C17.0348 5.7362 17.1509 5.81696 17.28 5.87037C17.423 5.92922 17.5763 5.95907 17.7309 5.95818C17.8846 5.96078 18.0372 5.9326 18.1798 5.87528C18.3094 5.82277 18.4256 5.74188 18.5199 5.63854C18.6167 5.52688 18.6897 5.3966 18.7345 5.25568C18.7865 5.09294 18.8118 4.92284 18.8095 4.75199ZM19.4589 4.75199C19.4611 4.99034 19.4185 5.22697 19.3334 5.44957C19.2564 5.65691 19.1371 5.84586 18.983 6.00433C18.8289 6.1628 18.6434 6.28729 18.4385 6.36984C17.9831 6.5431 17.4801 6.5431 17.0247 6.36984C16.8192 6.2873 16.6332 6.16287 16.4783 6.00444C16.3234 5.84601 16.203 5.65706 16.1249 5.44957C16.0401 5.22693 15.9977 4.99029 16.0001 4.75199C15.9976 4.51435 16.04 4.27839 16.1249 4.05651C16.2032 3.84951 16.3225 3.6605 16.4756 3.50083C16.631 3.34277 16.8175 3.21885 17.0233 3.13694C17.2482 3.04711 17.4888 3.00316 17.7309 3.00768C17.8966 3.00634 18.0617 3.02712 18.2218 3.0695C18.3692 3.10652 18.5108 3.16373 18.6426 3.2395C18.7695 3.31124 18.8851 3.40144 18.9856 3.50716C19.0879 3.61158 19.1753 3.7298 19.245 3.85841C19.317 3.99114 19.371 4.13289 19.4056 4.27991C19.4427 4.43449 19.4608 4.59301 19.4596 4.75199H19.4589Z" fill="white" fill-opacity="0.05"/>
<path class="lcd-seg" d="M21.391 5.94905C21.5035 5.95114 21.6152 5.93009 21.7193 5.88723C21.8132 5.84928 21.8972 5.79015 21.9647 5.71441C22.0336 5.63648 22.0853 5.54477 22.1162 5.44535C22.1534 5.33204 22.1716 5.21337 22.1702 5.0941V3.0421H22.807V5.09059C22.8085 5.28239 22.7749 5.47285 22.7081 5.65259C22.6469 5.82068 22.5506 5.97372 22.4255 6.10143C22.3005 6.22914 22.1495 6.32857 21.9829 6.39303C21.6007 6.53163 21.1821 6.53163 20.7998 6.39303C20.6327 6.32701 20.4809 6.2273 20.3538 6.10008C20.2315 5.97114 20.1361 5.81899 20.0733 5.65259C20.0078 5.47254 19.975 5.28221 19.9765 5.09059V3.0421H20.6119V5.08778C20.6107 5.20686 20.6282 5.32539 20.6638 5.43903C20.6967 5.53886 20.7489 5.63123 20.8174 5.7109C20.8855 5.78587 20.9693 5.84488 21.0628 5.88371C21.1668 5.92728 21.2784 5.9495 21.391 5.94905Z" fill="white" fill-opacity="0.05"/>
<path class="lcd-seg" d="M25.9067 3.56476H24.8772V6.46187H24.2418V3.56476H23.2123V3.0421H25.9067V3.56476Z" fill="white" fill-opacity="0.05"/>
<path class="lcd-seg" d="M28.733 4.75199C28.7354 4.58112 28.7101 4.411 28.658 4.24829C28.6144 4.10796 28.5409 3.97878 28.4427 3.86965C28.349 3.76508 28.2326 3.68338 28.1025 3.6308C27.96 3.57399 27.8077 3.54606 27.6544 3.5486H26.991V5.95818H27.6544C27.8078 5.96084 27.9602 5.93265 28.1025 5.87528C28.2322 5.82296 28.3485 5.74205 28.4427 5.63854C28.541 5.52782 28.6144 5.39726 28.658 5.25568C28.7096 5.09286 28.735 4.92282 28.733 4.75199ZM29.3852 4.75199C29.3878 4.98809 29.3452 5.22251 29.2597 5.44254C29.1813 5.64636 29.0609 5.83134 28.9063 5.98543C28.7518 6.13951 28.5666 6.25925 28.3627 6.33683C28.1366 6.42274 27.8963 6.46517 27.6544 6.46187H26.3535V3.0421H27.6544C27.8965 3.03897 28.1369 3.08237 28.3627 3.16996C28.566 3.24762 28.7507 3.36706 28.9051 3.52061C29.0595 3.67415 29.18 3.85838 29.259 4.06143C29.3447 4.28143 29.3875 4.51584 29.3852 4.75199Z" fill="white" fill-opacity="0.05"/>
<path class="lcd-seg" d="M32.5551 4.75199C32.5577 4.58106 32.5321 4.41088 32.4794 4.24829C32.4343 4.10813 32.3613 3.97859 32.2648 3.86754C32.1709 3.76312 32.0546 3.68145 31.9246 3.62869C31.782 3.57137 31.6294 3.54319 31.4758 3.54579C31.3215 3.54334 31.1683 3.57151 31.0249 3.62869C30.8954 3.68235 30.7793 3.76389 30.6847 3.86754C30.5882 3.97859 30.5152 4.10813 30.4701 4.24829C30.4174 4.41088 30.3918 4.58106 30.3944 4.75199C30.3914 4.92273 30.416 5.09282 30.4673 5.25568C30.5127 5.39485 30.5857 5.52341 30.6819 5.63362C30.7769 5.7362 30.893 5.81696 31.0221 5.87037C31.1651 5.92922 31.3184 5.95907 31.473 5.95818C31.6266 5.96078 31.7792 5.9326 31.9218 5.87528C32.0514 5.82277 32.1677 5.74188 32.262 5.63854C32.3588 5.52688 32.4318 5.3966 32.4766 5.25568C32.5298 5.09314 32.5563 4.92303 32.5551 4.75199ZM33.2045 4.75199C33.2067 4.99034 33.1641 5.22697 33.079 5.44957C33.002 5.65691 32.8826 5.84586 32.7285 6.00433C32.5745 6.1628 32.389 6.28729 32.1841 6.36984C31.7287 6.5431 31.2257 6.5431 30.7703 6.36984C30.5648 6.2873 30.3787 6.16287 30.2238 6.00444C30.069 5.84602 29.9486 5.65706 29.8705 5.44957C29.7857 5.22693 29.7433 4.99029 29.7457 4.75199C29.7432 4.51435 29.7856 4.27839 29.8705 4.05651C29.9488 3.84951 30.0681 3.6605 30.2212 3.50083C30.3766 3.34277 30.5631 3.21885 30.7689 3.13694C30.9927 3.04757 31.2321 3.00363 31.473 3.00768C31.6387 3.00634 31.8038 3.02712 31.9639 3.0695C32.1113 3.10652 32.2529 3.16373 32.3847 3.2395C32.5116 3.31124 32.6272 3.40144 32.7276 3.50716C32.8298 3.61176 32.9171 3.72995 32.9871 3.85841C33.0591 3.99114 33.1131 4.13289 33.1477 4.27991C33.1848 4.43449 33.2029 4.59301 33.2017 4.75199H33.2045Z" fill="white" fill-opacity="0.05"/>
<path class="lcd-seg" d="M36.366 4.75199C36.3686 4.58106 36.343 4.41088 36.2903 4.24829C36.2452 4.10813 36.1722 3.97859 36.0757 3.86754C35.9818 3.76312 35.8655 3.68145 35.7355 3.62869C35.5929 3.57137 35.4403 3.54319 35.2867 3.54579C35.1324 3.54334 34.9791 3.57151 34.8358 3.62869C34.7063 3.68235 34.5901 3.76389 34.4956 3.86754C34.3991 3.97859 34.3261 4.10813 34.281 4.24829C34.2283 4.41088 34.2027 4.58106 34.2053 4.75199C34.2032 4.92288 34.2288 5.09298 34.281 5.25568C34.3264 5.39485 34.3994 5.52341 34.4956 5.63362C34.5906 5.7362 34.7067 5.81696 34.8358 5.87037C34.9799 5.92968 35.1344 5.95954 35.2902 5.95818C35.4438 5.96078 35.5964 5.9326 35.7391 5.87528C35.8686 5.82277 35.9849 5.74188 36.0792 5.63854C36.1747 5.52657 36.2465 5.39631 36.2903 5.25568C36.3425 5.09298 36.3681 4.92288 36.366 4.75199ZM37.0154 4.75199C37.0176 4.99034 36.975 5.22697 36.8899 5.44957C36.8129 5.65691 36.6935 5.84586 36.5394 6.00433C36.3853 6.1628 36.1999 6.28729 35.995 6.36984C35.5396 6.5431 35.0366 6.5431 34.5812 6.36984C34.3756 6.2876 34.1893 6.16327 34.0344 6.00481C33.8794 5.84634 33.7592 5.65723 33.6814 5.44957C33.5963 5.22697 33.5537 4.99034 33.5559 4.75199C33.5536 4.51431 33.5962 4.27834 33.6814 4.05651C33.76 3.84962 33.8792 3.66065 34.0321 3.50083C34.1878 3.34291 34.3746 3.21901 34.5805 3.13694C34.8061 3.04683 35.0474 3.00288 35.2902 3.00768C35.4559 3.00634 35.621 3.02712 35.7811 3.0695C35.9285 3.10652 36.0701 3.16373 36.2019 3.2395C36.3288 3.31124 36.4444 3.40144 36.5449 3.50716C36.647 3.61176 36.7343 3.72995 36.8043 3.85841C36.8763 3.99114 36.9303 4.13289 36.9649 4.27991C37.0008 4.43464 37.0178 4.59316 37.0154 4.75199Z" fill="white" fill-opacity="0.05"/>
<path class="lcd-seg" d="M40.2386 6.46187H39.665C39.6174 6.4653 39.5699 6.4551 39.5279 6.43246C39.4859 6.40982 39.4512 6.37567 39.4279 6.33402L38.7112 5.23952C38.6891 5.20315 38.6582 5.17295 38.6214 5.15171C38.5774 5.13193 38.5293 5.12302 38.4812 5.12572H38.2097V6.46047H37.5744V3.0421H38.6144C38.8149 3.03739 39.0152 3.06104 39.2091 3.11235C39.3576 3.15064 39.4966 3.21929 39.6173 3.31397C39.7212 3.39613 39.8026 3.50348 39.8536 3.62588C39.9053 3.75196 39.9311 3.8872 39.9294 4.02349C39.9299 4.13425 39.9123 4.24435 39.8775 4.34945C39.8456 4.45108 39.796 4.54623 39.7309 4.63045C39.6651 4.7168 39.5852 4.79138 39.4945 4.85104C39.3963 4.91616 39.289 4.96635 39.1761 4.99997C39.2171 5.02354 39.2551 5.05209 39.2891 5.08497C39.3254 5.11834 39.3573 5.15637 39.3837 5.19807L40.2386 6.46187ZM38.6046 4.66909C38.7104 4.67131 38.8158 4.65612 38.9167 4.62413C38.9977 4.5991 39.0725 4.5572 39.1362 4.50119C39.1933 4.44897 39.2377 4.38432 39.2659 4.31222C39.2946 4.23592 39.3089 4.15492 39.308 4.07337C39.3124 3.99795 39.2991 3.92254 39.2693 3.85314C39.2395 3.78375 39.1939 3.72229 39.1362 3.67365C38.9832 3.56885 38.7992 3.5193 38.6144 3.53315H38.2083V4.66909H38.6046Z" fill="white" fill-opacity="0.05"/>
</g>
<g id="icon-lock" class="lcd-seg-group" opacity="0.902">
<path class="lcd-seg" fill-rule="evenodd" clip-rule="evenodd" d="M4.84809 54.009V53.3913C4.84809 53.0223 4.99442 52.6684 5.25489 52.4075C5.51536 52.1466 5.86863 52 6.23699 52C6.60534 52 6.95861 52.1466 7.21908 52.4075C7.47955 52.6684 7.62588 53.0223 7.62588 53.3913V54.009H7.67646C7.88816 54.009 8.09118 54.0932 8.24088 54.2432C8.39057 54.3931 8.47466 54.5965 8.47466 54.8085V56.9969C8.47466 57.209 8.39057 57.4124 8.24088 57.5623C8.09118 57.7123 7.88816 57.7965 7.67646 57.7965H4.79821C4.58651 57.7965 4.38348 57.7123 4.23379 57.5623C4.0841 57.4124 4 57.209 4 56.9969V54.8085C4 54.5965 4.0841 54.3931 4.23379 54.2432C4.38348 54.0932 4.58651 54.009 4.79821 54.009H4.84809ZM5.59641 53.3913C5.59359 53.3052 5.60806 53.2195 5.63898 53.1392C5.6699 53.0588 5.71664 52.9856 5.7764 52.9237C5.83616 52.8618 5.90773 52.8126 5.98686 52.7791C6.06598 52.7455 6.15105 52.7281 6.23699 52.7281C6.32293 52.7281 6.40799 52.7455 6.48711 52.7791C6.56624 52.8126 6.63781 52.8618 6.69757 52.9237C6.75734 52.9856 6.80407 53.0588 6.83499 53.1392C6.86591 53.2195 6.88039 53.3052 6.87756 53.3913V54.009H5.59641V53.3913Z" fill="white" fill-opacity="0.05"/>
</g>
<g id="icon-wifi" class="lcd-seg-group" opacity="0.95">
<path class="lcd-seg" d="M6.11277 36.1656C5.93024 36.1673 5.75006 36.2069 5.58366 36.2821C5.41726 36.3572 5.26829 36.4662 5.14619 36.6022C5.14419 36.6043 5.14309 36.6072 5.14309 36.6101C5.14309 36.6131 5.14419 36.6159 5.14619 36.6181L6.10445 37.6752C6.10678 37.6774 6.10988 37.6787 6.11311 37.6787C6.11634 37.6787 6.11945 37.6774 6.12177 37.6752L7.08004 36.6174C7.08203 36.6152 7.08314 36.6124 7.08314 36.6094C7.08314 36.6065 7.08203 36.6036 7.08004 36.6015C6.9578 36.4656 6.80868 36.3567 6.64216 36.2816C6.47564 36.2066 6.29536 36.1671 6.11277 36.1656Z" fill="white" fill-opacity="0.05"/>
<path class="lcd-seg" d="M9.80585 33.9744C8.82538 32.9952 7.49731 32.4453 6.11277 32.4453C4.72822 32.4453 3.40016 32.9952 2.41968 33.9744C2.41763 33.9767 2.4165 33.9797 2.4165 33.9828C2.4165 33.9858 2.41763 33.9888 2.41968 33.9911L3.10633 34.6796C3.10862 34.6816 3.11158 34.6828 3.11465 34.6828C3.11771 34.6828 3.12067 34.6816 3.12296 34.6796C3.91704 33.8874 4.99208 33.4427 6.11277 33.4427C7.23345 33.4427 8.30849 33.8874 9.10257 34.6796C9.10486 34.6816 9.10782 34.6828 9.11089 34.6828C9.11396 34.6828 9.11692 34.6816 9.1192 34.6796L9.80585 33.9911C9.80703 33.99 9.80798 33.9888 9.80863 33.9873C9.80927 33.9859 9.80961 33.9843 9.80961 33.9828C9.80961 33.9812 9.80927 33.9796 9.80863 33.9782C9.80798 33.9767 9.80703 33.9755 9.80585 33.9744Z" fill="white" fill-opacity="0.05"/>
<path class="lcd-seg" d="M6.11277 34.2979C5.2185 34.2979 4.3606 34.6525 3.72646 35.2841C3.72528 35.2852 3.72434 35.2864 3.72369 35.2879C3.72305 35.2893 3.72271 35.2909 3.72271 35.2925C3.72271 35.294 3.72305 35.2956 3.72369 35.297C3.72434 35.2985 3.72528 35.2997 3.72646 35.3008L4.42836 36.0046C4.43065 36.0066 4.43361 36.0077 4.43667 36.0077C4.43974 36.0077 4.4427 36.0066 4.44499 36.0046C4.88877 35.564 5.4883 35.3168 6.11311 35.3168C6.73793 35.3168 7.33746 35.564 7.78124 36.0046C7.78353 36.0066 7.78649 36.0077 7.78955 36.0077C7.79262 36.0077 7.79558 36.0066 7.79787 36.0046L8.49976 35.2987C8.50094 35.2977 8.50189 35.2964 8.50253 35.2949C8.50318 35.2935 8.50352 35.2919 8.50352 35.2904C8.50352 35.2888 8.50318 35.2872 8.50253 35.2858C8.50189 35.2844 8.50094 35.2831 8.49976 35.282C7.86499 34.6512 7.00693 34.2974 6.11277 34.2979Z" fill="white" fill-opacity="0.05"/>
</g>
<path id="icon-disconnected" class="lcd-seg" opacity="0.95" d="M3.47984 36.313L3.16735 36L2.23957 36.9294L1.31249 36L1 36.313L1.92708 37.2424L1 38.171L1.31249 38.4841L2.23957 37.5554L3.16735 38.4841L3.47984 38.171L2.55276 37.2424L3.47984 36.313Z" fill="white" fill-opacity="0.05"/>
<g id="icon-service" class="lcd-seg-group" opacity="0.95">
<path class="lcd-seg" d="M6.85219 40.4893H4.77353C4.49788 40.4893 4.23352 40.599 4.03861 40.7942C3.8437 40.9895 3.7342 41.2543 3.7342 41.5304V43.6126C3.7342 43.8887 3.8437 44.1535 4.03861 44.3488C4.23352 44.544 4.49788 44.6537 4.77353 44.6537H6.85219C7.12784 44.6537 7.3922 44.544 7.58711 44.3488C7.78202 44.1535 7.89152 43.8887 7.89152 43.6126V41.5304C7.89152 41.2543 7.78202 40.9895 7.58711 40.7942C7.3922 40.599 7.12784 40.4893 6.85219 40.4893ZM4.89756 43.4162L4.67583 43.6348C4.40634 43.3471 4.25635 42.9674 4.25635 42.5729C4.25635 42.1784 4.40634 41.7987 4.67583 41.511L4.89756 41.7296C4.68598 41.9594 4.56851 42.2606 4.56851 42.5733C4.56851 42.8859 4.68598 43.1871 4.89756 43.4169V43.4162ZM5.81217 43.267C5.67513 43.267 5.54116 43.2263 5.42722 43.15C5.31327 43.0737 5.22447 42.9653 5.17202 42.8385C5.11958 42.7117 5.10586 42.5721 5.13259 42.4375C5.15933 42.3029 5.22532 42.1792 5.32222 42.0821C5.41912 41.9851 5.54258 41.919 5.67699 41.8922C5.8114 41.8654 5.95071 41.8791 6.07732 41.9317C6.20393 41.9842 6.31215 42.0732 6.38828 42.1873C6.46442 42.3014 6.50505 42.4356 6.50505 42.5729C6.50505 42.664 6.48713 42.7543 6.45231 42.8385C6.41749 42.9227 6.36645 42.9992 6.30211 43.0637C6.23777 43.1281 6.16139 43.1793 6.07732 43.2141C5.99326 43.249 5.90316 43.267 5.81217 43.267ZM6.94919 43.6348L6.73093 43.4127C6.94249 43.1843 7.06004 42.8842 7.06004 42.5726C7.06004 42.2609 6.94249 41.9608 6.73093 41.7324L6.94919 41.511C7.21858 41.7989 7.36849 42.1787 7.36849 42.5733C7.36849 42.9678 7.21858 43.3476 6.94919 43.6355V43.6348Z" fill="white" fill-opacity="0.05"/>
<path class="lcd-seg" d="M3.02607 40C2.36734 40.694 2 41.615 2 42.5726C2 43.5302 2.36734 44.4511 3.02607 45.1451L3.56652 44.6107C3.04967 44.0583 2.76205 43.3296 2.76205 42.5726C2.76205 41.8155 3.04967 41.0868 3.56652 40.5344L3.02607 40Z" fill="white" fill-opacity="0.05"/>
<path class="lcd-seg" d="M8.60242 40L8.06197 40.5344C8.5779 41.0873 8.86491 41.8158 8.86491 42.5726C8.86491 43.3293 8.5779 44.0579 8.06197 44.6107L8.59896 45.1451C9.25722 44.4511 9.62454 43.5306 9.62518 42.5733C9.62583 41.6159 9.25975 40.6949 8.60242 40Z" fill="white" fill-opacity="0.05"/>
</g>
<g id="icon-fan" class="lcd-seg-group" opacity="0.95">
<path class="lcd-seg" fill-rule="evenodd" clip-rule="evenodd" d="M5.72011 18.1441C5.83542 18.144 5.94818 18.1781 6.04411 18.2422C6.14005 18.3063 6.21484 18.3974 6.25903 18.5041C6.30322 18.6108 6.31482 18.7282 6.29236 18.8415C6.2699 18.9548 6.21438 19.0589 6.13285 19.1406C6.05131 19.2223 5.94742 19.2779 5.83432 19.3004C5.72121 19.3229 5.60399 19.3112 5.49749 19.267C5.39098 19.2227 5.29998 19.1478 5.236 19.0517C5.17203 18.9556 5.13795 18.8426 5.13809 18.7271C5.13809 18.5725 5.19941 18.4242 5.30856 18.3149C5.41771 18.2055 5.56575 18.1441 5.72011 18.1441ZM4.84984 18.7271C4.84984 18.8996 4.90088 19.0681 4.99651 19.2115C5.09214 19.3548 5.22805 19.4665 5.38707 19.5325C5.54609 19.5985 5.72108 19.6158 5.88989 19.5821C6.05871 19.5485 6.21377 19.4655 6.33548 19.3436C6.45719 19.2216 6.54007 19.0663 6.57365 18.8972C6.60723 18.7281 6.59 18.5528 6.52413 18.3935C6.45826 18.2342 6.34672 18.0981 6.2036 18.0023C6.06049 17.9065 5.89223 17.8554 5.72011 17.8554C5.48941 17.8558 5.26827 17.9477 5.10514 18.1111C4.94202 18.2745 4.85021 18.496 4.84984 18.7271ZM9.43676 18.7028C9.43676 18.7119 9.43676 18.7209 9.43676 18.7306C9.43676 18.7403 9.43676 18.7493 9.43676 18.7618C9.42735 18.9499 9.38781 19.1353 9.31966 19.3108C9.05636 20.0493 8.48334 20.7753 7.80778 20.5886C7.48559 20.5019 6.89733 19.4379 6.6957 19.3761C6.64557 19.4486 6.58747 19.5151 6.52247 19.5746C6.50723 19.5871 6.49476 19.5989 6.47882 19.6114C6.4421 19.6426 6.40468 19.6704 6.36796 19.6988C6.36796 19.6988 6.36796 19.7044 6.36796 19.7079C6.48229 20.0986 6.59731 20.4928 6.69916 20.8878C6.77762 21.1341 6.80127 21.3947 6.76845 21.6512C6.73899 21.7826 6.68207 21.9061 6.60145 22.0138C6.52084 22.1215 6.41835 22.2108 6.30075 22.2759C6.13008 22.378 5.93615 22.4346 5.73743 22.4404C5.72773 22.4404 5.71872 22.4404 5.70902 22.4404C5.69932 22.4404 5.69378 22.4466 5.68131 22.4466C5.49352 22.4372 5.30847 22.3976 5.13324 22.3293C4.396 22.0656 3.67124 21.4965 3.85694 20.8184C3.94424 20.4956 5.00644 19.9057 5.0681 19.7044C4.99506 19.654 4.92769 19.5958 4.86717 19.5309C4.85469 19.5149 4.84222 19.5024 4.82975 19.4871C4.79857 19.4497 4.77085 19.4129 4.74314 19.3754H4.73344C4.34334 19.4899 3.94978 19.6044 3.55553 19.7072C3.30978 19.7868 3.04941 19.8105 2.79336 19.7766C2.66143 19.7474 2.53716 19.6905 2.42873 19.6098C2.3203 19.529 2.23015 19.4262 2.16421 19.3081C2.06256 19.1367 2.00605 18.9423 2 18.7431C2 18.7341 2.00346 18.7244 2.00346 18.7153C2.00346 18.7063 2 18.6966 2 18.6876C2.00985 18.4995 2.04961 18.3141 2.11779 18.1386C2.38109 17.3966 2.94926 16.6741 3.62621 16.8566C3.9484 16.9441 4.53666 18.0081 4.73483 18.0699C4.78477 17.9972 4.84289 17.9306 4.90805 17.8714C4.92398 17.8589 4.93576 17.8464 4.9517 17.8339C4.98842 17.8033 5.02584 17.7756 5.06325 17.7471C5.06325 17.7471 5.06325 17.7409 5.06325 17.7381C4.94893 17.3411 4.83391 16.9503 4.73205 16.5526C4.6539 16.3062 4.63026 16.0457 4.66276 15.7892C4.69243 15.6579 4.74943 15.5344 4.83003 15.4268C4.91062 15.3192 5.013 15.2298 5.13046 15.1645C5.30151 15.0627 5.49559 15.0061 5.69447 15C5.70348 15 5.71249 15.0035 5.72219 15.0035C5.73189 15.0035 5.7409 15 5.75337 15C5.94115 15.01 6.12614 15.0498 6.30144 15.118C7.04145 15.3817 7.76343 15.9557 7.57705 16.6324C7.49044 16.9552 6.42824 17.5444 6.36657 17.743C6.44104 17.7904 6.50865 17.8478 6.56751 17.9137C6.57998 17.9297 6.59245 17.9415 6.60493 17.9574C6.63541 17.9942 6.66382 18.0317 6.69154 18.0692H6.70055C7.20757 17.8929 7.72739 17.756 8.25538 17.6597C8.4525 17.6244 8.65569 17.6511 8.83706 17.7361C9.01843 17.8211 9.1691 17.9602 9.26839 18.1344C9.37347 18.3057 9.43155 18.5018 9.43676 18.7028Z" fill="white" fill-opacity="0.05"/>
</g>
<g id="label-aux" class="lcd-seg-group" opacity="0.95">
<path class="lcd-seg" d="M67.3849 47.0138C67.3689 46.9645 67.3537 46.9111 67.3384 46.8535C67.3239 46.9125 67.3086 46.9659 67.292 47.0159C67.2754 47.0659 67.2608 47.1096 67.2463 47.1457L67.0017 47.8398H67.6773L67.4348 47.1422C67.4167 47.1061 67.4008 47.0624 67.3849 47.0138Z" fill="white" fill-opacity="0.05"/>
<path class="lcd-seg" d="M72.6785 45.1211H66.3857C66.0713 45.1211 65.7698 45.2462 65.5474 45.4689C65.3251 45.6916 65.2002 45.9937 65.2002 46.3086V48.8482C65.2002 49.1632 65.3251 49.4652 65.5474 49.688C65.7698 49.9107 66.0713 50.0358 66.3857 50.0358H72.6785C72.9929 50.0358 73.2945 49.9107 73.5168 49.688C73.7392 49.4652 73.8641 49.1632 73.8641 48.8482V46.3086C73.8641 46.1527 73.8334 45.9983 73.7738 45.8542C73.7142 45.7101 73.6269 45.5792 73.5168 45.4689C73.4067 45.3586 73.276 45.2712 73.1322 45.2115C72.9884 45.1518 72.8342 45.1211 72.6785 45.1211ZM68.1055 48.706C68.0699 48.7076 68.0348 48.6973 68.0057 48.6768C67.9801 48.6576 67.9604 48.6317 67.9489 48.6018L67.7944 48.1674H66.8853L66.7315 48.6018C66.7194 48.6292 66.7005 48.6531 66.6767 48.6712C66.6484 48.693 66.6134 48.7043 66.5777 48.7032H66.209L67.0987 46.4232H67.5803L68.4678 48.7032L68.1055 48.706ZM70.5126 47.7835C70.513 47.914 70.4896 48.0434 70.4433 48.1653C70.4008 48.2768 70.3359 48.3783 70.2527 48.4637C70.167 48.5493 70.0647 48.6164 69.952 48.6608C69.6929 48.7543 69.4094 48.7543 69.1503 48.6608C69.0374 48.6166 68.9348 48.5495 68.8489 48.4637C68.7653 48.3787 68.7004 48.277 68.6584 48.1653C68.6118 48.0435 68.5883 47.914 68.5891 47.7835V46.4259H69.0596V47.7835C69.0587 47.8602 69.0696 47.9365 69.0921 48.0098C69.112 48.0729 69.1446 48.1312 69.1878 48.1812C69.2303 48.2288 69.2832 48.2661 69.3423 48.2902C69.475 48.3411 69.6218 48.3411 69.7545 48.2902C69.8132 48.2657 69.8658 48.2285 69.9084 48.1812C69.9516 48.1312 69.9841 48.0729 70.004 48.0098C70.0265 47.9365 70.0375 47.8602 70.0365 47.7835V46.4259H70.507L70.5126 47.7835ZM72.3875 48.706C72.36 48.7069 72.3329 48.6986 72.3106 48.6824C72.2922 48.6669 72.2768 48.6484 72.2649 48.6275L71.7722 47.7884C71.7674 47.8002 71.7618 47.8113 71.7577 47.8224C71.7528 47.8329 71.7473 47.8431 71.741 47.8529L71.2734 48.6275C71.2599 48.6476 71.2438 48.6658 71.2255 48.6817C71.2062 48.698 71.1816 48.7067 71.1563 48.706H70.717L71.4618 47.5323L70.7454 46.4259H71.2165C71.2403 46.4243 71.2641 46.4286 71.2858 46.4384C71.3019 46.4487 71.3152 46.4628 71.3246 46.4794L71.8145 47.2859C71.8193 47.2734 71.8256 47.2602 71.8311 47.247C71.8367 47.2338 71.845 47.2206 71.854 47.2068L72.2926 46.4877C72.3029 46.4694 72.3171 46.4535 72.3342 46.4412C72.351 46.4308 72.3705 46.4255 72.3903 46.4259H72.8407L72.1131 47.5142L72.8545 48.7087L72.3875 48.706Z" fill="white" fill-opacity="0.05"/>
</g>
<path id="icon-aux-heat" class="lcd-seg" fill-rule="evenodd" clip-rule="evenodd" d="M71.0634 41.9973C70.9921 42.2818 70.8514 42.5442 70.6539 42.7608C70.4998 42.9135 70.3163 43.0332 70.1144 43.1124C69.9126 43.1917 69.6968 43.2288 69.4801 43.2217C69.1471 43.2265 68.8205 43.1299 68.5436 42.9446C68.2666 42.7593 68.0525 42.494 67.9294 42.184C67.6107 41.2519 68.3064 40.4357 68.6757 39.6486C68.7635 39.4309 68.8161 39.2006 68.8316 38.9663C68.842 38.8719 68.817 38.6943 68.9147 38.6401C69.0381 38.5638 69.2154 38.7158 69.2986 38.7921C70.0019 39.4237 70.929 40.1199 71.0918 41.1173C71.1389 41.4097 71.1292 41.7085 71.0634 41.9973ZM71.7563 36.8175C71.7434 36.7923 71.7244 36.7708 71.701 36.7549C71.6776 36.739 71.6507 36.7293 71.6225 36.7266C71.5103 36.7196 71.3904 36.8175 71.1257 37.1618C70.3736 36.2612 69.4255 35.5451 68.3542 35.0685C68.2656 35.0302 68.1746 34.9975 68.0819 34.9706C68.0609 34.9649 68.0388 34.9643 68.0175 34.9688C67.9962 34.9732 67.9762 34.9826 67.9592 34.9963C67.9421 35.0101 67.9285 35.0279 67.9196 35.048C67.9107 35.0682 67.9067 35.0902 67.908 35.1122C67.9178 35.2109 67.9385 35.3082 67.9696 35.4023C67.9842 35.4571 67.9987 35.5078 68.0098 35.5585C68.0441 35.7377 68.0587 35.9202 68.0535 36.1026C68.018 36.6671 67.8384 37.2129 67.5317 37.6879C67.4016 37.901 67.26 38.107 67.1077 38.3049C66.7795 38.6721 66.5309 39.1035 66.3776 39.5717C66.2242 40.04 66.1694 40.5351 66.2166 41.0256C66.3505 41.7553 66.7303 42.4168 67.2927 42.8996C67.8473 43.4166 68.5821 43.6952 69.3395 43.6756C69.5499 43.6743 69.7601 43.6622 69.9693 43.6395C70.5903 43.5635 71.1662 43.2752 71.5997 42.8233C71.9331 42.4885 72.1849 42.0811 72.3355 41.6329C73.0845 39.3856 71.8096 36.9223 71.7549 36.8175H71.7563Z" fill="white" fill-opacity="0.05"/>
<g id="icon-off" class="lcd-seg-group" opacity="0.95">
<path class="lcd-seg" d="M68.2489 52.6504C68.1899 52.5837 68.1164 52.5315 68.0341 52.4977C67.8495 52.4274 67.6456 52.4274 67.4611 52.4977C67.3784 52.5315 67.3044 52.5837 67.2449 52.6504C67.1829 52.7207 67.1357 52.8029 67.1063 52.8919C67.0444 53.1022 67.0444 53.3258 67.1063 53.536C67.1354 53.6252 67.1826 53.7075 67.2449 53.7776C67.3046 53.8439 67.3785 53.8958 67.4611 53.9296C67.6456 53.9999 67.8495 53.9999 68.0341 53.9296C68.1162 53.8958 68.1897 53.8438 68.2489 53.7776C68.3117 53.7078 68.3589 53.6255 68.3875 53.536C68.4503 53.3259 68.4503 53.102 68.3875 52.8919C68.3586 52.8026 68.3114 52.7204 68.2489 52.6504Z" fill="white" fill-opacity="0.05"/>
<path class="lcd-seg" d="M72.6785 50.7598H66.3857C66.0713 50.7598 65.7698 50.8849 65.5474 51.1076C65.3251 51.3303 65.2002 51.6324 65.2002 51.9473V54.4869C65.2002 54.8019 65.3251 55.1039 65.5474 55.3266C65.7698 55.5493 66.0713 55.6745 66.3857 55.6745H72.6785C72.9929 55.6745 73.2945 55.5493 73.5168 55.3266C73.7392 55.1039 73.8641 54.8019 73.8641 54.4869V51.9473C73.8641 51.7914 73.8334 51.6369 73.7738 51.4929C73.7142 51.3488 73.6269 51.2179 73.5168 51.1076C73.4067 50.9973 73.276 50.9098 73.1322 50.8502C72.9884 50.7905 72.8342 50.7598 72.6785 50.7598ZM68.8288 53.6804C68.776 53.8188 68.6952 53.9448 68.5913 54.0502C68.4874 54.1557 68.3628 54.2385 68.2253 54.2933C67.9183 54.4117 67.5783 54.4117 67.2712 54.2933C67.133 54.2378 67.0076 54.1547 66.9026 54.0489C66.799 53.9437 66.7181 53.8183 66.665 53.6804C66.5531 53.3817 66.5531 53.0525 66.665 52.7538C66.7181 52.6159 66.799 52.4905 66.9026 52.3853C67.0078 52.2798 67.1332 52.1967 67.2712 52.141C67.5783 52.0225 67.9183 52.0225 68.2253 52.141C68.3629 52.196 68.4875 52.279 68.5914 52.3847C68.6952 52.4904 68.7761 52.6166 68.8288 52.7552C68.8863 52.9022 68.9151 53.0589 68.9134 53.2168C68.915 53.3753 68.8863 53.5327 68.8288 53.6804ZM70.7073 52.4463H69.7317V53.0766H70.5527V53.4479H69.7317V54.3571H69.2584V52.0771H70.7073V52.4463ZM72.4831 52.4463H71.5075V53.0766H72.3258V53.4479H71.5075V54.3571H71.0336V52.0771H72.4831V52.4463Z" fill="white" fill-opacity="0.05"/>
</g>
<path id="icon-on-degree" class="lcd-seg" d="M69.4118 58.8C69.4118 59.0582 69.3683 59.2977 69.2812 59.5185C69.1957 59.7378 69.0741 59.9277 68.9163 60.0885C68.7585 60.2493 68.5686 60.3751 68.3467 60.466C68.1248 60.5553 67.8783 60.6 67.6071 60.6C67.3375 60.6 67.0918 60.5553 66.8699 60.466C66.648 60.3751 66.4573 60.2493 66.2978 60.0885C66.1401 59.9277 66.0176 59.7378 65.9305 59.5185C65.8434 59.2977 65.7998 59.0582 65.7998 58.8C65.7998 58.5418 65.8434 58.3031 65.9305 58.0839C66.0176 57.8631 66.1401 57.6723 66.2978 57.5115C66.4573 57.3507 66.648 57.2257 66.8699 57.1364C67.0918 57.0455 67.3375 57 67.6071 57C67.7879 57 67.958 57.0211 68.1174 57.0633C68.2769 57.1039 68.4232 57.1624 68.5563 57.2387C68.6894 57.3134 68.8086 57.4051 68.9138 57.5139C69.0206 57.6211 69.111 57.7413 69.185 57.8744C69.259 58.0076 69.3149 58.1521 69.3527 58.308C69.3921 58.4639 69.4118 58.6279 69.4118 58.8ZM68.7338 58.8C68.7338 58.6068 68.7075 58.4338 68.6549 58.2812C68.6023 58.1269 68.5275 57.9962 68.4306 57.889C68.3336 57.7819 68.2152 57.6999 68.0755 57.643C67.9374 57.5862 67.7813 57.5578 67.6071 57.5578C67.4328 57.5578 67.2759 57.5862 67.1361 57.643C66.9981 57.6999 66.8797 57.7819 66.7811 57.889C66.6841 57.9962 66.6093 58.1269 66.5567 58.2812C66.5041 58.4338 66.4778 58.6068 66.4778 58.8C66.4778 58.9932 66.5041 59.167 66.5567 59.3212C66.6093 59.4739 66.6841 59.6038 66.7811 59.711C66.8797 59.8165 66.9981 59.8977 67.1361 59.9545C67.2759 60.0114 67.4328 60.0398 67.6071 60.0398C67.7813 60.0398 67.9374 60.0114 68.0755 59.9545C68.2152 59.8977 68.3336 59.8165 68.4306 59.711C68.5275 59.6038 68.6023 59.4739 68.6549 59.3212C68.7075 59.167 68.7338 58.9932 68.7338 58.8Z" fill="white" fill-opacity="0.05"/>
<path id="icon-on-text" class="lcd-seg" d="M72.9998 57.039V60.561H72.6596C72.607 60.561 72.5626 60.5529 72.5264 60.5367C72.4919 60.5188 72.4582 60.4896 72.4253 60.449L70.5638 58.1009C70.5737 58.2081 70.5786 58.3072 70.5786 58.3981V60.561H69.9943V57.039H70.3419C70.3699 57.039 70.3937 57.0406 70.4134 57.0438C70.4348 57.0455 70.4529 57.0503 70.4677 57.0585C70.4841 57.065 70.4997 57.0755 70.5145 57.0901C70.5293 57.1031 70.5458 57.121 70.5638 57.1437L72.4327 59.5015C72.4278 59.4447 72.4237 59.3886 72.4204 59.3334C72.4171 59.2782 72.4155 59.2271 72.4155 59.18V57.039H72.9998Z" fill="white" fill-opacity="0.05"/>
<g id="icon-percent" class="lcd-seg-group" opacity="0.95">
<path class="lcd-seg" fill-rule="evenodd" clip-rule="evenodd" d="M67.2022 16.7359C67.4036 16.7361 67.6004 16.6764 67.7679 16.5645C67.9354 16.4525 68.0659 16.2933 68.1431 16.107C68.2202 15.9207 68.2405 15.7157 68.2013 15.5179C68.1621 15.3201 68.0652 15.1383 67.9229 14.9957C67.7806 14.853 67.5992 14.7558 67.4017 14.7164C67.2043 14.677 66.9996 14.6972 66.8136 14.7743C66.6275 14.8515 66.4685 14.9822 66.3566 15.1498C66.2448 15.3175 66.1851 15.5147 66.1851 15.7164C66.1851 15.9867 66.2922 16.2459 66.4829 16.4371C66.6737 16.6283 66.9324 16.7358 67.2022 16.7359Z" fill="white" fill-opacity="0.05"/>
<path class="lcd-seg" fill-rule="evenodd" clip-rule="evenodd" d="M71.7358 19.2353C71.5345 19.2353 71.3377 19.2951 71.1703 19.4071C71.0029 19.5191 70.8724 19.6784 70.7954 19.8647C70.7184 20.051 70.6982 20.256 70.7375 20.4538C70.7768 20.6516 70.8737 20.8332 71.016 20.9758C71.1584 21.1184 71.3398 21.2155 71.5372 21.2549C71.7346 21.2942 71.9393 21.274 72.1253 21.1968C72.3113 21.1197 72.4702 20.989 72.5821 20.8213C72.6939 20.6536 72.7536 20.4565 72.7536 20.2549C72.7536 19.9845 72.6464 19.7251 72.4555 19.5339C72.2646 19.3427 72.0057 19.2353 71.7358 19.2353Z" fill="white" fill-opacity="0.05"/>
<path class="lcd-seg" fill-rule="evenodd" clip-rule="evenodd" d="M71.7642 14.6968L66.1851 20.2854V21.2738H67.1482L72.7509 15.6622V14.6968H71.7642Z" fill="white" fill-opacity="0.05"/>
</g>
<g id="icon-cool" class="lcd-seg-group" opacity="0.95">
<path class="lcd-seg" fill-rule="evenodd" clip-rule="evenodd" d="M72.013 29.9393L73.0059 29.6748C73.0918 29.652 73.1652 29.596 73.21 29.5192C73.2548 29.4423 73.2674 29.3508 73.245 29.2646C73.2207 29.1783 73.1634 29.1052 73.0856 29.061C73.0077 29.0168 72.9156 29.0052 72.8292 29.0286L71.1906 29.4687L70.1138 28.844L71.1933 28.2228L72.8348 28.6622C72.863 28.6697 72.8922 28.6734 72.9214 28.6733C72.9952 28.6733 73.0671 28.6492 73.126 28.6046C73.1849 28.56 73.2277 28.4974 73.2477 28.4262C73.2705 28.3405 73.2584 28.2493 73.2143 28.1725C73.1702 28.0956 73.0975 28.0394 73.0122 28.016L72.0193 27.7516L73.1133 27.1234C73.1514 27.1021 73.1849 27.0734 73.2118 27.0389C73.2387 27.0044 73.2585 26.965 73.27 26.9228C73.2815 26.8806 73.2844 26.8365 73.2787 26.7931C73.273 26.7497 73.2587 26.708 73.2367 26.6702V26.666C73.1913 26.5893 73.1177 26.5335 73.0317 26.5105C72.9456 26.4876 72.8541 26.4993 72.7766 26.5432L71.6825 27.1678L71.9465 26.1809C71.9694 26.0953 71.9576 26.0041 71.9136 25.9272C71.8695 25.8504 71.7969 25.7941 71.7116 25.7707H71.7075C71.6211 25.7476 71.5292 25.7594 71.4514 25.8035C71.3737 25.8476 71.3163 25.9206 71.2917 26.0067L70.8538 27.6398L69.7674 28.2666V27.029L70.9702 25.8352C71.0013 25.8043 71.026 25.7676 71.0428 25.7271C71.0597 25.6866 71.0683 25.6431 71.0683 25.5993C71.0683 25.5554 71.0597 25.5119 71.0428 25.4714C71.026 25.4309 71.0013 25.3942 70.9702 25.3633C70.9071 25.3005 70.8218 25.2653 70.7329 25.2653C70.644 25.2653 70.5587 25.3005 70.4956 25.3633L69.7743 26.0858V24.8295C69.7704 24.7426 69.7331 24.6606 69.6704 24.6005C69.6076 24.5404 69.5241 24.5068 69.4372 24.5068C69.3504 24.5068 69.2669 24.5404 69.2041 24.6005C69.1413 24.6606 69.1041 24.7426 69.1001 24.8295V26.0789L68.3754 25.357C68.3123 25.2943 68.227 25.259 68.1381 25.259C68.0491 25.259 67.9638 25.2943 67.9007 25.357C67.8697 25.388 67.8451 25.4248 67.8283 25.4652C67.8116 25.5057 67.8029 25.5492 67.8029 25.593C67.8029 25.6369 67.8116 25.6803 67.8283 25.7208C67.8451 25.7613 67.8697 25.798 67.9007 25.829L69.1001 27.0228V28.2603L68.0206 27.6433L67.582 26.0101C67.5579 25.9247 67.5013 25.8521 67.4242 25.8082C67.3472 25.7642 67.256 25.7524 67.1703 25.7753C67.0846 25.7982 67.0114 25.854 66.9664 25.9305C66.9215 26.007 66.9084 26.0982 66.93 26.1844V26.1878L67.1947 27.1748L66.1041 26.5439C66.0266 26.5002 65.935 26.4886 65.8491 26.5115C65.7631 26.5345 65.6895 26.5902 65.644 26.6667C65.6223 26.7046 65.6083 26.7465 65.6028 26.7898C65.5972 26.8331 65.6003 26.8771 65.6117 26.9193C65.6232 26.9615 65.6428 27.0009 65.6695 27.0355C65.6962 27.07 65.7295 27.099 65.7673 27.1206V27.1206L66.8614 27.7453L65.865 28.0139C65.7796 28.0363 65.7065 28.0916 65.6617 28.1678C65.6169 28.2441 65.6041 28.335 65.626 28.4206V28.4276C65.6448 28.4995 65.6872 28.563 65.7464 28.6078C65.8056 28.6526 65.8782 28.6762 65.9523 28.6747C65.9816 28.6747 66.0107 28.671 66.039 28.6636L67.6804 28.2242L68.7634 28.8454L67.6887 29.4687L66.0438 29.0293C66.001 29.0161 65.956 29.0117 65.9114 29.0162C65.8668 29.0208 65.8236 29.0342 65.7843 29.0558C65.745 29.0774 65.7105 29.1067 65.6827 29.1419C65.6549 29.1771 65.6345 29.2176 65.6226 29.2608C65.6108 29.3041 65.6077 29.3493 65.6136 29.3938C65.6195 29.4383 65.6342 29.4812 65.6569 29.5198C65.6797 29.5585 65.7099 29.5922 65.7459 29.619C65.7819 29.6457 65.8229 29.6649 65.8664 29.6755H65.8699L66.8628 29.9399L65.7687 30.5681C65.7306 30.5894 65.6971 30.6182 65.6702 30.6526C65.6433 30.6871 65.6235 30.7265 65.6121 30.7688C65.6006 30.811 65.5976 30.855 65.6033 30.8984C65.6091 30.9418 65.6234 30.9835 65.6454 31.0213V31.0255C65.6909 31.102 65.7645 31.1577 65.8505 31.1807C65.9364 31.2036 66.0279 31.192 66.1055 31.1483L67.1995 30.5237L66.9349 31.5106C66.9122 31.5963 66.9242 31.6875 66.9683 31.7643C67.0124 31.8412 67.0851 31.8974 67.1704 31.9208C67.199 31.9279 67.2283 31.9316 67.2577 31.9319C67.3315 31.9319 67.4032 31.9078 67.462 31.8632C67.5208 31.8186 67.5634 31.756 67.5834 31.6848L68.022 30.0517L69.1015 29.4312V30.6687L67.9021 31.8625C67.8711 31.8935 67.8465 31.9302 67.8297 31.9707C67.8129 32.0112 67.8043 32.0546 67.8043 32.0985C67.8043 32.1423 67.8129 32.1858 67.8297 32.2263C67.8465 32.2667 67.8711 32.3035 67.9021 32.3345C67.9652 32.3972 68.0505 32.4325 68.1394 32.4325C68.2284 32.4325 68.3137 32.3972 68.3767 32.3345L69.1015 31.6126V32.8682C69.1054 32.9551 69.1427 33.0372 69.2055 33.0973C69.2682 33.1574 69.3518 33.1909 69.4386 33.1909C69.5254 33.1909 69.609 33.1574 69.6717 33.0973C69.7345 33.0372 69.7718 32.9551 69.7757 32.8682V31.6092L70.4998 32.331C70.5628 32.3938 70.6482 32.429 70.7371 32.429C70.826 32.429 70.9113 32.3938 70.9744 32.331C71.0055 32.3001 71.0302 32.2633 71.047 32.2228C71.0638 32.1823 71.0725 32.1389 71.0725 32.095C71.0725 32.0512 71.0638 32.0077 71.047 31.9672C71.0302 31.9267 71.0055 31.8899 70.9744 31.859L69.7757 30.6618V29.4277L70.8552 30.0482L71.2931 31.6814C71.312 31.7532 71.3545 31.8166 71.4137 31.8614C71.4728 31.9062 71.5453 31.9298 71.6195 31.9284C71.6489 31.9282 71.6782 31.9244 71.7068 31.9173C71.7923 31.8951 71.8655 31.8398 71.9103 31.7636C71.9552 31.6873 71.9679 31.5963 71.9458 31.5106V31.5072L71.6811 30.5202L72.7752 31.1448C72.8527 31.1886 72.9442 31.2002 73.0302 31.1772C73.1162 31.1543 73.1898 31.0986 73.2353 31.022C73.2575 30.9841 73.2721 30.9422 73.2782 30.8987C73.2842 30.8551 73.2815 30.8108 73.2704 30.7683C73.2593 30.7258 73.2398 30.6859 73.2132 30.6509C73.1866 30.616 73.1534 30.5866 73.1154 30.5646V30.5646L72.013 29.9393Z" fill="white" fill-opacity="0.05"/>
</g>
<g id="label-setto" class="lcd-seg-group" opacity="0.95">
<path class="lcd-seg" d="M30.731 8.9426C30.7066 8.98441 30.6747 9.02116 30.6369 9.05093C30.6002 9.07692 30.5561 9.08986 30.5114 9.08775C30.4593 9.08602 30.4084 9.07092 30.3636 9.04385C30.3114 9.01482 30.2521 8.98154 30.1852 8.94614C30.1124 8.90665 30.0364 8.87371 29.958 8.84773C29.8639 8.81686 29.7654 8.80203 29.6666 8.80383C29.5172 8.79227 29.3688 8.83575 29.2484 8.92632C29.2023 8.96737 29.1659 9.01838 29.1418 9.07559C29.1177 9.13281 29.1064 9.19478 29.109 9.25697C29.1077 9.29748 29.1145 9.33784 29.1289 9.37566C29.1432 9.41348 29.1649 9.44799 29.1926 9.47717C29.2554 9.54116 29.3297 9.59236 29.4115 9.62798C29.5104 9.67461 29.6124 9.71412 29.7168 9.74622C29.8334 9.78162 29.9519 9.8208 30.0723 9.86375C30.1938 9.90706 30.3126 9.95814 30.4278 10.0167C30.5421 10.0735 30.6466 10.1488 30.7372 10.2397C30.83 10.3349 30.904 10.4471 30.9554 10.5704C31.0147 10.7196 31.0432 10.8796 31.0391 11.0405C31.0405 11.2358 31.005 11.4295 30.9345 11.6112C30.8673 11.7855 30.7647 11.9435 30.6334 12.0749C30.4938 12.2119 30.3276 12.3178 30.1455 12.3858C29.935 12.4648 29.7119 12.5035 29.4875 12.4998C29.3491 12.4994 29.2111 12.4852 29.0755 12.4573C28.9369 12.4294 28.801 12.3893 28.6691 12.3376C28.5413 12.2881 28.4181 12.2269 28.3011 12.1549C28.1916 12.0892 28.0905 12.01 28 11.9192L28.2976 11.442C28.3226 11.4069 28.3547 11.3777 28.3917 11.3563C28.4296 11.3332 28.473 11.3212 28.5172 11.3216C28.5815 11.323 28.6441 11.3429 28.6977 11.3789C28.7584 11.4172 28.8267 11.4589 28.9027 11.5057C28.9868 11.5554 29.0749 11.5978 29.1661 11.6324C29.278 11.6727 29.396 11.6921 29.5146 11.6898C29.666 11.6992 29.8159 11.656 29.9398 11.5673C29.9933 11.5192 30.0348 11.459 30.0612 11.3916C30.0876 11.3242 30.0981 11.2515 30.0918 11.1793C30.0956 11.0882 30.066 10.9989 30.0088 10.9286C29.9477 10.8604 29.8731 10.8059 29.79 10.7686C29.6905 10.7226 29.5875 10.6852 29.4819 10.6567C29.3669 10.6249 29.2491 10.5859 29.1278 10.5498C29.007 10.5114 28.8891 10.4641 28.7751 10.4082C28.6602 10.3512 28.5557 10.2745 28.4663 10.1817C28.3716 10.0792 28.2975 9.95895 28.2481 9.82764C28.1886 9.66172 28.1605 9.48589 28.1652 9.30936C28.1651 9.14335 28.1983 8.97905 28.2628 8.82649C28.3293 8.66774 28.4276 8.52476 28.5514 8.40662C28.6863 8.27806 28.8451 8.17796 29.0184 8.11208C29.2206 8.03525 29.4353 7.99778 29.6513 8.00163C29.7813 8.00151 29.9111 8.01193 30.0395 8.03278C30.1616 8.05361 30.2817 8.08511 30.3985 8.12695C30.5081 8.16663 30.614 8.21616 30.7149 8.27493C30.8094 8.33007 30.8977 8.39534 30.9784 8.46964L30.731 8.9426Z" fill="white" fill-opacity="0.05"/>
<path class="lcd-seg" d="M32.6443 8.83356V9.86091H34.007V10.6157H32.6443V11.6643H34.4231V12.4495H31.635V8.04694H34.4231V8.83356H32.6443Z" fill="white" fill-opacity="0.05"/>
<path class="lcd-seg" d="M38.3244 8.85763H37.1053V12.4495H36.0995V8.85763H34.8804V8.04694H38.3244V8.85763Z" fill="white" fill-opacity="0.05"/>
<path class="lcd-seg" d="M43.3402 8.85763H42.1239V12.4495H41.1153V8.85763H39.8934V8.04694H43.3375L43.3402 8.85763Z" fill="white" fill-opacity="0.05"/>
<path class="lcd-seg" d="M47.9999 10.2475C48.0027 10.5513 47.9478 10.8527 47.8382 11.1354C47.7355 11.4048 47.5789 11.6497 47.3783 11.8546C47.1777 12.0595 46.9375 12.2198 46.6727 12.3256C46.0794 12.5561 45.4231 12.5561 44.8298 12.3256C44.564 12.2203 44.3226 12.0601 44.1208 11.8553C43.919 11.6504 43.7612 11.4053 43.6574 11.1354C43.4409 10.5639 43.4409 9.93111 43.6574 9.35963C43.7607 9.09281 43.9166 8.8502 44.1153 8.64664C44.3184 8.44102 44.5605 8.27961 44.827 8.17226C45.1207 8.05451 45.4342 7.99607 45.7499 8.00021C46.0648 7.99616 46.3774 8.0551 46.67 8.17367C46.9354 8.28252 47.1767 8.4443 47.3795 8.64947C47.5771 8.85363 47.7321 9.09612 47.8354 9.36246C47.9457 9.644 48.0015 9.94449 47.9999 10.2475ZM46.9718 10.2475C46.9745 10.0484 46.9462 9.85004 46.8881 9.65983C46.8391 9.49726 46.7577 9.34665 46.649 9.21731C46.5443 9.09605 46.4133 9.00106 46.2664 8.93976C46.1033 8.8728 45.9286 8.83982 45.7527 8.84276C45.5749 8.83958 45.3984 8.87256 45.2334 8.93976C45.0861 9.00069 44.9548 9.09573 44.85 9.21731C44.7409 9.34642 44.6592 9.49709 44.6102 9.65983C44.4996 10.0445 44.4996 10.4533 44.6102 10.838C44.6592 11.0007 44.7409 11.1514 44.85 11.2805C44.9545 11.4021 45.0859 11.4967 45.2334 11.5566C45.3986 11.623 45.5751 11.6555 45.7527 11.6522C45.9285 11.6553 46.1031 11.6228 46.2664 11.5566C46.4135 11.4964 46.5446 11.4018 46.649 11.2805C46.7577 11.1512 46.8391 11.0006 46.8881 10.838C46.9464 10.6468 46.9746 10.4476 46.9718 10.2475Z" fill="white" fill-opacity="0.05"/>
</g>
<g id="label-setup" class="lcd-seg-group" opacity="0.95">
<path class="lcd-seg" fill-rule="evenodd" clip-rule="evenodd" d="M3.28209 2H13.7179C14.0579 2 14.384 2.13727 14.6245 2.38162C14.8649 2.62596 15 2.95737 15 3.30292V5.69708C15 6.04263 14.8649 6.37404 14.6245 6.61838C14.384 6.86273 14.0579 7 13.7179 7H3.28209C3.11372 7 2.94701 6.9663 2.79146 6.90082C2.63591 6.83534 2.49457 6.73937 2.37552 6.61838C2.13508 6.37404 2 6.04263 2 5.69708V3.30292C2 2.95737 2.13508 2.62596 2.37552 2.38162C2.49457 2.26063 2.63591 2.16466 2.79146 2.09918C2.94701 2.0337 3.11372 2 3.28209 2ZM4.81895 5.46406C4.8865 5.39503 4.93975 5.31295 4.97556 5.22266C5.01172 5.12772 5.03002 5.02672 5.02951 4.92492C5.03153 4.8404 5.01622 4.75637 4.98455 4.67819C4.95652 4.61352 4.9163 4.55506 4.86616 4.50609C4.81696 4.45911 4.76115 4.41985 4.70056 4.38958C4.63837 4.36046 4.57457 4.33503 4.50948 4.31343C4.44579 4.28983 4.3821 4.26927 4.3199 4.25023C4.26313 4.23274 4.20777 4.21085 4.1543 4.18474C4.10983 4.16327 4.06968 4.13358 4.03591 4.09717C4.00562 4.06209 3.98955 4.01664 3.99095 3.97C3.98953 3.93361 3.99612 3.89736 4.01025 3.8639C4.02439 3.83043 4.0457 3.8006 4.07263 3.77658C4.14236 3.72098 4.23001 3.69382 4.3184 3.70043C4.37331 3.69942 4.428 3.70765 4.48026 3.72479C4.52226 3.73935 4.56309 3.75717 4.6024 3.7781C4.63837 3.7979 4.66984 3.81541 4.69606 3.83217C4.71857 3.8467 4.74437 3.85509 4.771 3.85653C4.79199 3.85759 4.81276 3.85171 4.83019 3.83978C4.84861 3.82532 4.86391 3.80718 4.87515 3.78648L4.9913 3.55803C4.90558 3.47844 4.8049 3.4173 4.69531 3.37831C4.57288 3.33424 4.44379 3.31233 4.31391 3.31359C4.20244 3.3115 4.09158 3.33088 3.9872 3.3707C3.89849 3.40554 3.81711 3.45723 3.74742 3.523C3.68462 3.58456 3.63511 3.65872 3.60205 3.74079C3.56803 3.81877 3.54993 3.90297 3.54885 3.98827C3.54654 4.08024 3.56181 4.17179 3.59381 4.25784C3.62085 4.32579 3.66083 4.38764 3.71145 4.43984C3.75898 4.48912 3.81482 4.52936 3.8763 4.55864C3.93794 4.58845 4.00154 4.6139 4.06663 4.63479C4.13182 4.65611 4.19552 4.67514 4.25696 4.69266C4.31368 4.70862 4.36885 4.72978 4.42181 4.75586C4.4665 4.77825 4.50646 4.80929 4.53945 4.84724C4.5706 4.88774 4.5863 4.93831 4.58367 4.98964C4.58671 5.03216 4.5802 5.07482 4.56462 5.1144C4.54904 5.15398 4.5248 5.18944 4.49375 5.21809C4.42004 5.27324 4.32956 5.30021 4.23823 5.29424C4.17188 5.29621 4.10577 5.28535 4.0434 5.26226C3.99421 5.2436 3.94681 5.22041 3.90178 5.19296C3.86057 5.16707 3.82385 5.14347 3.79238 5.12214C3.76647 5.10266 3.73541 5.09152 3.70321 5.09016C3.68216 5.0905 3.66153 5.09626 3.64326 5.10691C3.6254 5.11763 3.61006 5.13219 3.59831 5.14956L3.45968 5.37801C3.50631 5.42514 3.55781 5.46701 3.61329 5.50289C3.67277 5.54143 3.73575 5.57407 3.80137 5.60037C3.86873 5.62702 3.93816 5.6479 4.00893 5.66281C4.08018 5.67769 4.15275 5.68509 4.22549 5.68489C4.34173 5.687 4.45734 5.66712 4.56643 5.62626C4.66065 5.59034 4.7466 5.53514 4.81895 5.46406ZM5.92495 3.71566H6.90507V3.34024H5.45213V5.65976H6.90507V5.28434H5.92495V4.67514H6.68776V4.31267H5.92495V3.71566ZM8.43144 3.72708H9.09759V3.34024H7.29022V3.72708H7.95787V5.65976H8.43144V3.72708ZM11.3538 5.1092C11.3991 4.98523 11.4218 4.85385 11.4205 4.7216L11.425 3.34024H10.9537V4.7216C10.9545 4.79903 10.9433 4.87611 10.9207 4.95005C10.9005 5.0141 10.8679 5.0734 10.8248 5.12443C10.7821 5.17245 10.7293 5.21018 10.6704 5.23485C10.5374 5.28768 10.3898 5.28768 10.2568 5.23485C10.1978 5.21039 10.145 5.17263 10.1024 5.12443C10.0588 5.07377 10.0261 5.01436 10.0065 4.95005C9.98386 4.87611 9.97273 4.79903 9.97354 4.7216V3.34024H9.50147V4.7216C9.49984 4.85388 9.52246 4.98532 9.56816 5.1092C9.61025 5.22334 9.67562 5.32715 9.75999 5.4138C9.8453 5.50077 9.94733 5.56894 10.0597 5.61407C10.3194 5.7085 10.6033 5.7085 10.863 5.61407C10.9753 5.56875 11.0773 5.5006 11.1627 5.4138C11.2464 5.32671 11.3114 5.22301 11.3538 5.1092ZM13.3163 4.64621C13.3902 4.57942 13.4472 4.4956 13.4826 4.40177H13.4841C13.5221 4.30198 13.5412 4.19579 13.5403 4.08879C13.5409 3.98656 13.5228 3.8851 13.4871 3.78952C13.4521 3.69864 13.3963 3.61749 13.3245 3.5527C13.2426 3.48112 13.1469 3.4277 13.0435 3.39583C12.9122 3.35654 12.7758 3.33779 12.6389 3.34024H11.8656V5.65976H12.3377V4.86171H12.6374C12.7721 4.86443 12.9064 4.84541 13.0353 4.80536C13.1388 4.77281 13.2346 4.7186 13.3163 4.64621Z" fill="white" fill-opacity="0.05"/>
<path class="lcd-seg" d="M12.8285 3.73317C12.878 3.7481 12.9235 3.77413 12.9618 3.80932C12.9968 3.84333 13.0237 3.885 13.0405 3.93116C13.0584 3.98169 13.0673 4.03508 13.0667 4.08879C13.0698 4.14279 13.0622 4.19686 13.0444 4.24785C13.0267 4.29884 12.9991 4.34573 12.9633 4.38577C12.9193 4.4253 12.8679 4.45533 12.8121 4.47405C12.7563 4.49277 12.6974 4.49978 12.6389 4.49467H12.3392V3.70576H12.6389C12.7031 3.70407 12.7672 3.71334 12.8285 3.73317Z" fill="white" fill-opacity="0.05"/>
</g>

<defs>
<filter id="filter0_i_516_5627" x="0" y="0" width="75" height="75" filterUnits="userSpaceOnUse" color-interpolation-filters="sRGB">
<feFlood flood-opacity="0" result="BackgroundImageFix"/>
<feBlend mode="normal" in="SourceGraphic" in2="BackgroundImageFix" result="shape"/>
<feColorMatrix in="SourceAlpha" type="matrix" values="0 0 0 0 0 0 0 0 0 0 0 0 0 0 0 0 0 0 127 0" result="hardAlpha"/>
<feOffset/>
<feGaussianBlur stdDeviation="6"/>
<feComposite in2="hardAlpha" operator="arithmetic" k2="-1" k3="1"/>
<feColorMatrix type="matrix" values="0 0 0 0 1 0 0 0 0 1 0 0 0 0 1 0 0 0 0.08 0"/>
<feBlend mode="normal" in2="shape" result="effect1_innerShadow_516_5627"/>
</filter>
<clipPath id="clip0_516_5627">
<rect width="25" height="47" fill="white" transform="translate(12 14)"/>
</clipPath>
<clipPath id="clip1_516_5627">
<rect width="25" height="47" fill="white" transform="translate(39 14)"/>
</clipPath>
</defs>
</svg>
