<svg width="21" height="7" viewBox="0 0 21 7" fill="none" xmlns="http://www.w3.org/2000/svg">
<path d="M3.94118 5.76477L0.0788063 1.91025C0.05278 1.88563 0.0323052 1.85577 0.0187461 1.82264C0.00518692 1.78951 -0.00114433 1.75389 0.000169638 1.71812C0.00148361 1.68236 0.0104138 1.64729 0.0263677 1.61524C0.0423217 1.58319 0.0649303 1.55489 0.0926934 1.53224C1.21919 0.541083 2.67045 -0.00397806 4.17224 2.31657e-05H16.7985C18.3003 -0.004095 19.7516 0.540981 20.878 1.53224C20.9058 1.55489 20.9284 1.58319 20.9444 1.61524C20.9603 1.64729 20.9693 1.68236 20.9706 1.71812C20.9719 1.75389 20.9656 1.78951 20.952 1.82264C20.9384 1.85577 20.918 1.88563 20.8919 1.91025L17.0308 5.76477C16.8485 5.94633 16.6015 6.0483 16.344 6.04828H4.62426C4.36803 6.0473 4.12254 5.94541 3.94118 5.76477Z" fill="white"/>
</svg>
