<svg width="7" height="22" viewBox="0 0 7 22" fill="none" xmlns="http://www.w3.org/2000/svg">
<path d="M0 17.7157L0.0744945 4.61117C0.0756716 4.35587 0.177764 4.11135 0.358586 3.93075L4.22348 0.0749746C4.24874 0.0500585 4.27884 0.0305749 4.31193 0.0177092C4.34502 0.00484355 4.3804 -0.00112426 4.41588 0.000174315C4.45137 0.00147289 4.48622 0.0100121 4.51827 0.0252616C4.55033 0.040511 4.57891 0.0621539 4.60227 0.0888487C5.59596 1.21274 6.14222 2.66123 6.13763 4.16007V20.2106C6.13751 20.3785 6.09384 20.5434 6.01086 20.6893C5.92788 20.8353 5.80843 20.9573 5.66414 21.0435C5.51377 21.1332 5.34185 21.1806 5.16667 21.1806C4.99148 21.1806 4.81957 21.1332 4.66919 21.0435L0.474745 18.5486C0.330309 18.4625 0.210674 18.3405 0.12748 18.1946C0.0442867 18.0486 0.00037022 17.8836 0 17.7157Z" fill="white"/>
</svg>
