<svg width="7" height="22" viewBox="0 0 7 22" fill="none" xmlns="http://www.w3.org/2000/svg">
<path d="M1.91417 21.1046C1.8895 21.1305 1.85957 21.151 1.82637 21.1645C1.79317 21.178 1.75747 21.1844 1.72163 21.183C1.6858 21.1817 1.65065 21.1728 1.61854 21.1569C1.58642 21.141 1.55807 21.1184 1.53538 21.0907C0.542098 19.9666 -0.00410336 18.5182 2.32125e-05 17.0195V0.968928C0.000139338 0.801109 0.0438162 0.636174 0.126794 0.490209C0.209773 0.344244 0.329222 0.222229 0.473508 0.136034C0.62411 0.0469939 0.795936 0 0.970983 0C1.14603 0 1.31786 0.0469939 1.46846 0.136034L5.66417 2.63219C5.80926 2.71843 5.92927 2.84099 6.01232 2.98774C6.09536 3.13448 6.13857 3.30034 6.13765 3.46887L6.06316 16.5734C6.06198 16.8287 5.95989 17.0733 5.77907 17.2539L1.91417 21.1046Z" fill="white"/>
</svg>
