<svg width="21" height="7" viewBox="0 0 21 7" fill="none" xmlns="http://www.w3.org/2000/svg">
<path d="M4.17224 6.04826C2.67032 6.05296 1.21883 5.50779 0.0926972 4.51603C0.0649341 4.49338 0.0423255 4.46508 0.0263715 4.43303C0.0104176 4.40098 0.00148353 4.36592 0.000169557 4.33016C-0.00114441 4.2944 0.00519069 4.25875 0.0187498 4.22563C0.032309 4.1925 0.0527838 4.16263 0.0788101 4.13801L3.93992 0.283512C4.12221 0.101946 4.36924 -1.87123e-05 4.62679 2.57578e-09H16.344C16.6015 -1.87123e-05 16.8485 0.101946 17.0308 0.283512L20.8919 4.13801C20.918 4.16263 20.9384 4.1925 20.952 4.22563C20.9656 4.25875 20.9719 4.2944 20.9706 4.33016C20.9693 4.36592 20.9603 4.40098 20.9444 4.43303C20.9284 4.46508 20.9058 4.49338 20.8781 4.51603C19.7519 5.50779 18.3004 6.05296 16.7985 6.04826H4.17224Z" fill="white"/>
</svg>
