<svg width="7" height="22" viewBox="0 0 7 22" fill="none" xmlns="http://www.w3.org/2000/svg">
<path d="M0.0745019 16.5734L7.40689e-06 3.46885C-0.000652521 3.30023 0.0427962 3.13435 0.126058 2.98761C0.20932 2.84088 0.32951 2.71835 0.474752 2.63218L4.6692 0.136019C4.8198 0.0469785 4.99162 0 5.16667 0C5.34172 0 5.51354 0.0469785 5.66415 0.136019C5.8086 0.222026 5.92819 0.344017 6.01119 0.490024C6.09419 0.636032 6.13776 0.801045 6.13763 0.968912V17.0195C6.14234 18.5183 5.59607 19.9669 4.60228 21.0907C4.57958 21.1184 4.55123 21.141 4.51912 21.1569C4.487 21.1728 4.45186 21.1817 4.41602 21.1831C4.38019 21.1844 4.34448 21.178 4.31129 21.1645C4.27809 21.151 4.24816 21.1305 4.22349 21.1046L0.358593 17.2488C0.178994 17.0694 0.0770022 16.827 0.0745019 16.5734Z" fill="white"/>
</svg>
