<svg width="22" height="7" viewBox="0 0 22 7" fill="none" xmlns="http://www.w3.org/2000/svg">
<path d="M4.45705 5.91216L0.203262 3.38198C0.141279 3.34495 0.0899742 3.29251 0.0543498 3.22979C0.0187254 3.16708 0 3.09622 0 3.02413C0 2.95203 0.0187254 2.88117 0.0543498 2.81845C0.0899742 2.75573 0.141279 2.70329 0.203262 2.66626L4.45705 0.13608C4.60777 0.0473032 4.77951 0.000326969 4.95453 0H16.8156C16.9907 0.000326969 17.1624 0.0473032 17.3131 0.13608L21.5631 2.66626C21.6251 2.70329 21.6764 2.75573 21.712 2.81845C21.7477 2.88117 21.7664 2.95203 21.7664 3.02413C21.7664 3.09622 21.7477 3.16708 21.712 3.22979C21.6764 3.29251 21.6251 3.34495 21.5631 3.38198L17.3093 5.91216C17.1589 6.00151 16.9869 6.04855 16.8119 6.04826H4.95453C4.77943 6.04855 4.60752 6.00151 4.45705 5.91216Z" fill="white"/>
</svg>
