<svg width="7" height="22" viewBox="0 0 7 22" fill="none" xmlns="http://www.w3.org/2000/svg">
<path d="M0.473507 21.0435C0.329052 20.9575 0.209464 20.8355 0.126462 20.6895C0.0434594 20.5435 -0.000109818 20.3785 2.1918e-05 20.2106V4.16007C-0.00398748 2.66134 0.542198 1.21304 1.53538 0.0888334C1.55873 0.0621385 1.58732 0.0404957 1.61938 0.0252462C1.65143 0.0099967 1.68628 0.00147289 1.72177 0.000174315C1.75726 -0.00112426 1.79264 0.00484355 1.82572 0.0177092C1.85881 0.0305749 1.88891 0.0500585 1.91416 0.0749746L5.77906 3.93074C5.95989 4.11134 6.06198 4.35587 6.06316 4.61117L6.13765 17.7157C6.13841 17.8844 6.09515 18.0504 6.01213 18.1973C5.92911 18.3442 5.80919 18.467 5.66417 18.5537L1.46846 21.0486C1.31799 21.138 1.14611 21.1852 0.970982 21.1852C0.795852 21.1852 0.623973 21.138 0.473507 21.0486V21.0435Z" fill="white"/>
</svg>
