<svg width="21" height="13" viewBox="0 0 21 13" fill="none" xmlns="http://www.w3.org/2000/svg">
<path d="M1.17871 10.4507C0.84668 10.4507 0.56722 10.3372 0.340332 10.1104C0.113444 9.88346 0 9.60677 0 9.28027V3.00488C0 2.67285 0.113444 2.39339 0.340332 2.1665C0.56722 1.93408 0.84668 1.81787 1.17871 1.81787C1.51628 1.81787 1.7985 1.93408 2.02539 2.1665C2.25228 2.39339 2.36572 2.67285 2.36572 3.00488V9.28027C2.36572 9.60677 2.25228 9.88346 2.02539 10.1104C1.7985 10.3372 1.51628 10.4507 1.17871 10.4507ZM5.12158 12.2852C4.57373 12.2852 4.12549 12.1191 3.77686 11.7871C3.42822 11.4551 3.25391 11.0262 3.25391 10.5005V1.79297C3.25391 1.26172 3.42822 0.830078 3.77686 0.498047C4.12549 0.166016 4.57373 0 5.12158 0C5.67497 0 6.12598 0.166016 6.47461 0.498047C6.82324 0.830078 6.99756 1.26172 6.99756 1.79297V10.5005C6.99756 11.0262 6.82324 11.4551 6.47461 11.7871C6.12598 12.1191 5.67497 12.2852 5.12158 12.2852ZM7.96045 7.74463V4.54053H13.1152V7.74463H7.96045ZM15.9541 12.2852C15.4062 12.2852 14.958 12.1191 14.6094 11.7871C14.2607 11.4551 14.0864 11.0262 14.0864 10.5005V1.79297C14.0864 1.26172 14.2607 0.830078 14.6094 0.498047C14.958 0.166016 15.4062 0 15.9541 0C16.5075 0 16.9585 0.166016 17.3071 0.498047C17.6558 0.830078 17.8301 1.26172 17.8301 1.79297V10.5005C17.8301 11.0262 17.6558 11.4551 17.3071 11.7871C16.9585 12.1191 16.5075 12.2852 15.9541 12.2852ZM19.814 10.4507C19.4819 10.4507 19.2025 10.3372 18.9756 10.1104C18.7487 9.88346 18.6353 9.60677 18.6353 9.28027V3.00488C18.6353 2.67285 18.7487 2.39339 18.9756 2.1665C19.2025 1.93408 19.4819 1.81787 19.814 1.81787C20.146 1.81787 20.4255 1.93408 20.6523 2.1665C20.8848 2.39339 21.001 2.67285 21.001 3.00488V9.28027C21.001 9.60677 20.8848 9.88346 20.6523 10.1104C20.4255 10.3372 20.146 10.4507 19.814 10.4507Z" fill="#CB30E0"/>
</svg>
