<svg width="24" height="23" viewBox="0 0 24 23" fill="none" xmlns="http://www.w3.org/2000/svg">
<path d="M11.6543 11.1895C11.0732 11.1895 10.7827 10.9211 10.7827 10.3843C10.7827 10.3566 10.7827 10.3289 10.7827 10.3013C10.7827 10.2736 10.7827 10.2459 10.7827 10.2183C10.7827 9.74235 10.9017 9.35221 11.1396 9.04785C11.3776 8.74349 11.6903 8.45573 12.0776 8.18457C12.5425 7.85807 12.8828 7.58138 13.0986 7.35449C13.32 7.1276 13.4307 6.84261 13.4307 6.49951C13.4307 6.11768 13.2896 5.80501 13.0073 5.56152C12.7251 5.3125 12.3433 5.18799 11.8618 5.18799C11.6128 5.18799 11.3831 5.23226 11.1729 5.3208C10.9681 5.40381 10.7855 5.52555 10.625 5.68604C10.4701 5.84098 10.3428 6.02637 10.2432 6.24219L10.1021 6.44971C10.019 6.57699 9.91667 6.67936 9.79492 6.75684C9.67318 6.82878 9.52376 6.86475 9.34668 6.86475C9.15299 6.86475 8.98145 6.79834 8.83203 6.66553C8.68815 6.53271 8.61621 6.35286 8.61621 6.12598C8.61621 6.0319 8.62174 5.94336 8.63281 5.86035C8.64941 5.77734 8.67432 5.69157 8.70752 5.60303C8.8016 5.26546 8.99251 4.95557 9.28027 4.67334C9.57357 4.39111 9.9471 4.16423 10.4009 3.99268C10.8547 3.82113 11.3776 3.73535 11.9697 3.73535C12.5785 3.73535 13.1346 3.84049 13.6382 4.05078C14.1473 4.26107 14.554 4.5682 14.8584 4.97217C15.1628 5.37061 15.3149 5.84928 15.3149 6.4082C15.3149 6.99479 15.1655 7.4707 14.8667 7.83594C14.5679 8.20117 14.1528 8.55534 13.6216 8.89844C13.2619 9.14193 12.9907 9.36882 12.8081 9.5791C12.6255 9.78939 12.5286 10.0412 12.5176 10.3345C12.5176 10.3566 12.5148 10.3843 12.5093 10.4175C12.5093 10.4451 12.5093 10.4728 12.5093 10.5005C12.4982 10.6942 12.418 10.8574 12.2686 10.9902C12.1191 11.123 11.9144 11.1895 11.6543 11.1895ZM11.646 14.3604C11.3306 14.3604 11.0594 14.2552 10.8325 14.0449C10.6112 13.8346 10.5005 13.5801 10.5005 13.2812C10.5005 12.9714 10.6112 12.714 10.8325 12.5093C11.0594 12.3045 11.3306 12.2021 11.646 12.2021C11.9614 12.2021 12.2298 12.3045 12.4512 12.5093C12.6725 12.714 12.7832 12.9714 12.7832 13.2812C12.7832 13.5856 12.6698 13.8429 12.4429 14.0532C12.2215 14.258 11.9559 14.3604 11.646 14.3604ZM6.62402 22.2295C6.24219 22.2295 5.94613 22.1077 5.73584 21.8643C5.53109 21.6208 5.42871 21.2887 5.42871 20.8682V18.1455H4.78125C3.78516 18.1455 2.93018 17.9546 2.21631 17.5728C1.50244 17.1965 0.95459 16.6486 0.572754 15.9292C0.190918 15.2043 0 14.3354 0 13.3228V4.83105C0 3.81836 0.188151 2.95231 0.564453 2.23291C0.946289 1.50798 1.49691 0.95459 2.21631 0.572754C2.93571 0.190918 3.80729 0 4.83105 0H18.9092C19.9385 0 20.8128 0.190918 21.5322 0.572754C22.2516 0.95459 22.7995 1.50798 23.1758 2.23291C23.5576 2.95231 23.7485 3.81836 23.7485 4.83105V13.3228C23.7485 14.3299 23.5576 15.196 23.1758 15.9209C22.7995 16.6403 22.2516 17.1909 21.5322 17.5728C20.8128 17.9546 19.9385 18.1455 18.9092 18.1455H11.8867L8.17627 21.4077C7.86084 21.6844 7.58968 21.8892 7.36279 22.022C7.1359 22.1603 6.88965 22.2295 6.62402 22.2295ZM7.07227 20.1709L10.5254 16.834C10.7301 16.6237 10.9211 16.4854 11.0981 16.4189C11.2808 16.3525 11.5187 16.3193 11.812 16.3193H18.8594C19.5345 16.3193 20.0962 16.2031 20.5444 15.9707C20.9982 15.7327 21.3385 15.3869 21.5654 14.9331C21.7979 14.4793 21.9141 13.9204 21.9141 13.2563V4.88086C21.9141 4.22233 21.7979 3.66618 21.5654 3.2124C21.3385 2.75863 20.9982 2.41553 20.5444 2.18311C20.0962 1.94515 19.5345 1.82617 18.8594 1.82617H4.88916C4.2085 1.82617 3.64128 1.94515 3.1875 2.18311C2.73926 2.41553 2.40169 2.75863 2.1748 3.2124C1.94792 3.66618 1.83447 4.22233 1.83447 4.88086V13.2563C1.83447 13.9204 1.94792 14.4793 2.1748 14.9331C2.40169 15.3869 2.73926 15.7327 3.1875 15.9707C3.64128 16.2031 4.2085 16.3193 4.88916 16.3193H6.30029C6.56592 16.3193 6.7596 16.3774 6.88135 16.4937C7.00863 16.6099 7.07227 16.8091 7.07227 17.0913V20.1709Z" fill="#1A1A1A"/>
</svg>
