<svg width="16" height="13" viewBox="0 0 16 13" fill="none" xmlns="http://www.w3.org/2000/svg">
<path d="M12.6123 12.7954C12.0264 12.7954 11.4941 12.6562 11.0156 12.3779C10.542 12.1045 10.1636 11.7334 9.88037 11.2646C9.59717 10.8008 9.45557 10.2808 9.45557 9.70459C9.45557 9.23096 9.55078 8.76465 9.74121 8.30566C9.93164 7.84668 10.1318 7.42432 10.3418 7.03857L11.9971 3.94043C12.1338 3.68652 12.3389 3.55957 12.6123 3.55957C12.8857 3.55957 13.0884 3.68652 13.2202 3.94043L14.8828 7.03857C15.0928 7.42432 15.293 7.84668 15.4834 8.30566C15.6787 8.76465 15.7764 9.23096 15.7764 9.70459C15.7764 10.2808 15.6348 10.8008 15.3516 11.2646C15.0684 11.7334 14.6875 12.1045 14.209 12.3779C13.7305 12.6562 13.1982 12.7954 12.6123 12.7954ZM2.99561 3.94043C2.52197 3.94043 2.07031 3.88428 1.64062 3.77197C1.21094 3.65479 0.788574 3.47656 0.373535 3.2373C0.17334 3.12012 0.0610352 2.97607 0.0366211 2.80518C0.012207 2.62939 0.0415039 2.47559 0.124512 2.34375C0.202637 2.23145 0.310059 2.15332 0.446777 2.10938C0.583496 2.06543 0.72998 2.0874 0.88623 2.17529C1.25732 2.39014 1.61133 2.5415 1.94824 2.62939C2.28516 2.71729 2.63428 2.76123 2.99561 2.76123C3.59619 2.76123 4.15771 2.66846 4.68018 2.48291C5.20264 2.29736 5.70557 2.06787 6.18896 1.79443C6.67725 1.521 7.17041 1.24756 7.66846 0.974121C8.17139 0.695801 8.70117 0.463867 9.25781 0.27832C9.81445 0.0927734 10.4248 0 11.0889 0C11.5576 0 12.0068 0.0585938 12.4365 0.175781C12.8711 0.288086 13.2935 0.463867 13.7036 0.703125C13.9087 0.825195 14.0234 0.974121 14.0479 1.1499C14.0723 1.3208 14.0405 1.47217 13.9526 1.604C13.8745 1.71143 13.7671 1.78711 13.6304 1.83105C13.4937 1.875 13.3472 1.85303 13.1909 1.76514C12.8198 1.55029 12.4658 1.39893 12.1289 1.31104C11.792 1.22314 11.4453 1.1792 11.0889 1.1792C10.4736 1.1792 9.90234 1.27197 9.375 1.45752C8.84766 1.64307 8.3374 1.875 7.84424 2.15332C7.35596 2.42676 6.86279 2.7002 6.36475 2.97363C5.8667 3.24707 5.3418 3.47656 4.79004 3.66211C4.24316 3.84766 3.64502 3.94043 2.99561 3.94043ZM3.00293 7.87354C2.53418 7.87354 2.08252 7.81494 1.64795 7.69775C1.21826 7.58057 0.795898 7.40234 0.380859 7.16309C0.180664 7.0459 0.0683594 6.90186 0.0439453 6.73096C0.0195312 6.55518 0.0512695 6.40137 0.13916 6.26953C0.212402 6.15723 0.317383 6.0791 0.454102 6.03516C0.59082 5.99121 0.737305 6.01318 0.893555 6.10107C1.26953 6.31592 1.62354 6.46973 1.95557 6.5625C2.29248 6.65039 2.6416 6.69434 3.00293 6.69434C3.59375 6.69434 4.14062 6.60645 4.64355 6.43066C5.15137 6.25 5.63965 6.02783 6.1084 5.76416C6.58203 5.50049 7.05811 5.23438 7.53662 4.96582C8.02002 4.69727 8.53271 4.46533 9.07471 4.27002C9.6167 4.07471 10.2124 3.9624 10.8618 3.93311C10.7495 4.14795 10.6348 4.36279 10.5176 4.57764C10.4004 4.7876 10.2856 5 10.1733 5.21484C9.66553 5.30273 9.18213 5.44922 8.72314 5.6543C8.26904 5.85938 7.82227 6.08887 7.38281 6.34277C6.94824 6.5918 6.50391 6.8335 6.0498 7.06787C5.5957 7.29736 5.11963 7.49023 4.62158 7.64648C4.12354 7.79785 3.58398 7.87354 3.00293 7.87354ZM2.99561 11.7993C2.52197 11.7993 2.07031 11.7407 1.64062 11.6235C1.21094 11.5063 0.788574 11.3281 0.373535 11.0889C0.17334 10.9717 0.0610352 10.8276 0.0366211 10.6567C0.012207 10.481 0.0415039 10.3271 0.124512 10.1953C0.202637 10.083 0.310059 10.0049 0.446777 9.96094C0.583496 9.91699 0.72998 9.93896 0.88623 10.0269C1.25732 10.2417 1.61133 10.3955 1.94824 10.4883C2.28516 10.5762 2.63428 10.6201 2.99561 10.6201C3.54248 10.6201 4.05518 10.542 4.53369 10.3857C5.01221 10.2246 5.47363 10.0244 5.91797 9.78516C6.36719 9.5459 6.81396 9.29932 7.2583 9.04541C7.70752 8.78662 8.17627 8.55957 8.66455 8.36426C8.60107 8.5791 8.5498 8.81592 8.51074 9.07471C8.47168 9.32861 8.46191 9.53613 8.48145 9.69727C8.04688 9.89746 7.61963 10.1172 7.19971 10.3564C6.77979 10.5957 6.35254 10.8252 5.91797 11.0449C5.4834 11.2646 5.02441 11.4453 4.54102 11.5869C4.0625 11.7285 3.54736 11.7993 2.99561 11.7993Z" fill="#00C8B3"/>
</svg>
