<svg width="13" height="12" viewBox="0 0 13 12" fill="none" xmlns="http://www.w3.org/2000/svg">
<path d="M0.856934 6.37939C0.662272 6.37516 0.501465 6.33496 0.374512 6.25879C0.247559 6.17839 0.152344 6.07682 0.0888672 5.9541C0.0296224 5.82715 0.00634766 5.69385 0.019043 5.5542C0.0317383 5.41032 0.0804036 5.27702 0.165039 5.1543C0.249674 5.03158 0.374512 4.93213 0.539551 4.85596L10.6831 0.152344C10.9074 0.0507812 11.1126 0.00846354 11.2988 0.0253906C11.4893 0.0380859 11.6458 0.101562 11.7686 0.21582C11.8955 0.325846 11.9717 0.471842 11.9971 0.653809C12.0225 0.835775 11.9823 1.04313 11.8765 1.27588L7.18555 11.3623C7.10091 11.5443 6.993 11.6818 6.86182 11.7749C6.73486 11.8722 6.59945 11.9272 6.45557 11.9399C6.31169 11.9569 6.17627 11.9336 6.04932 11.8701C5.92236 11.8109 5.81868 11.7178 5.73828 11.5908C5.66211 11.4639 5.62402 11.3052 5.62402 11.1147L5.61133 6.52539C5.61133 6.44076 5.56901 6.39844 5.48438 6.39844L0.856934 6.37939Z" fill="#3C3C43" fill-opacity="0.3"/>
</svg>
