<svg preserveAspectRatio="none" width="100%" height="100%" overflow="visible" style="display: block;" viewBox="0 0 21.02 21" fill="none" xmlns="http://www.w3.org/2000/svg">
<path id="Calendar" d="M17.49 21H3.51C1.57 21 0.01 19.43 0 17.49V16.5H2.25V17.47C2.25 17.81 2.38 18.14 2.62 18.38C2.86 18.62 3.18 18.75 3.51 18.75H17.49C17.82 18.75 18.15 18.62 18.38 18.38C18.62 18.14 18.75 17.81 18.75 17.47V16.5H21V17.49C21 19.43 19.43 21 17.49 21ZM2.25 8.5H0V3.51C0 1.57 1.57 0 3.51 0H4.88V0.75C4.88 1.79 5.72 2.62 6.76 2.63C7.8 2.63 8.63 1.79 8.64 0.75V0H12.77V0.75C12.77 1.79 13.61 2.62 14.65 2.63C15.68 2.63 16.52 1.79 16.52 0.75V0H17.51C19.45 0 21.01 1.57 21.02 3.51V8.5H18.77V7.75C18.77 6.99 18.16 6.38 17.4 6.38H3.62C2.86 6.38 2.25 6.99 2.25 7.75V8.5Z" fill="var(--fill-0, black)"/>
</svg>
