<svg preserveAspectRatio="none" width="100%" height="100%" overflow="visible" style="display: block;" viewBox="0 0 21 24" fill="none" xmlns="http://www.w3.org/2000/svg">
<path id="Union" d="M4.87988 3.73047C4.86113 3.98801 4.89584 4.24661 4.98145 4.49023C5.06714 4.73404 5.20198 4.95818 5.37793 5.14746C5.55385 5.33665 5.76707 5.48762 6.00391 5.59082C6.24077 5.69403 6.49651 5.74705 6.75488 5.74707C7.01322 5.74707 7.26901 5.69398 7.50586 5.59082C7.74265 5.48764 7.95594 5.3366 8.13184 5.14746C8.30779 4.95818 8.44263 4.73404 8.52832 4.49023C8.61395 4.24659 8.64864 3.98804 8.62988 3.73047V2.98047H12.75V3.73047C12.7312 3.98803 12.7659 4.2466 12.8516 4.49023C12.9373 4.73404 13.0721 4.95818 13.248 5.14746C13.424 5.33663 13.6372 5.48763 13.874 5.59082C14.1109 5.69401 14.3666 5.74707 14.625 5.74707C14.8834 5.74707 15.1391 5.69401 15.376 5.59082C15.6128 5.48763 15.826 5.33663 16.002 5.14746C16.1779 4.95818 16.3127 4.73404 16.3984 4.49023C16.4841 4.2466 16.5188 3.98802 16.5 3.73047V2.98047H17.5C18.4292 2.98312 19.3195 3.35375 19.9756 4.01172C20.6316 4.66967 21 5.56111 21 6.49023V20.4902C21 21.4175 20.6332 22.3072 19.9795 22.9648C19.3256 23.6225 18.4372 23.9947 17.5098 24H3.50977C2.57895 23.9999 1.68651 23.6299 1.02832 22.9717C0.370125 22.3135 6.46487e-05 21.4211 0 20.4902V6.49023C0 5.55932 0.370068 4.66607 1.02832 4.00781C1.68649 3.34977 2.57906 2.98053 3.50977 2.98047H4.87988V3.73047ZM7.00977 11.25C6.86161 11.2502 6.7169 11.2946 6.59375 11.377C6.47059 11.4594 6.37408 11.576 6.31738 11.7129C6.26067 11.8499 6.24651 12.0011 6.27539 12.1465C6.30433 12.2917 6.37581 12.4255 6.48047 12.5303L9.48047 15.5303L6.48047 18.5303C6.34011 18.6708 6.26085 18.861 6.26074 19.0596C6.26074 19.2583 6.34002 19.4492 6.48047 19.5898C6.62182 19.7248 6.80944 19.8007 7.00488 19.8008C7.20044 19.8008 7.38887 19.7249 7.53027 19.5898L10.5303 16.5898L13.5303 19.5898C13.6732 19.7255 13.8625 19.8016 14.0596 19.8018C14.2568 19.8018 14.4468 19.7256 14.5898 19.5898C14.7256 19.4468 14.8018 19.2568 14.8018 19.0596C14.8017 18.8625 14.7255 18.6732 14.5898 18.5303L11.5898 15.5303L14.54 12.5801C14.6758 12.437 14.751 12.247 14.751 12.0498C14.7509 11.8526 14.6757 11.6626 14.54 11.5195C14.3994 11.3792 14.2084 11.3008 14.0098 11.3008C13.8113 11.3008 13.621 11.3794 13.4805 11.5195L10.4805 14.5195L7.48047 11.5195C7.33999 11.3789 7.14897 11.3 6.9502 11.2998L7.00977 11.25ZM6.75977 0C6.95862 0 7.1494 0.0791506 7.29004 0.219727C7.43069 0.360379 7.50977 0.551088 7.50977 0.75V3.75C7.51111 3.84886 7.49327 3.94746 7.45605 4.03906C7.41884 4.13056 7.36282 4.21335 7.29297 4.2832C7.22316 4.35298 7.14025 4.40812 7.04883 4.44531C6.95723 4.48253 6.85863 4.50135 6.75977 4.5C6.56094 4.49994 6.37009 4.42087 6.22949 4.28027C6.08892 4.13963 6.00977 3.94885 6.00977 3.75V0.75C6.00977 0.551138 6.08891 0.360369 6.22949 0.219727C6.37009 0.0791318 6.56094 6.46494e-05 6.75977 0ZM14.6396 0C14.8385 0 15.0293 0.0792007 15.1699 0.219727C15.3106 0.360379 15.3896 0.551088 15.3896 0.75V3.75C15.3896 3.94891 15.3106 4.13962 15.1699 4.28027C15.0293 4.42081 14.8385 4.5 14.6396 4.5C14.5409 4.50129 14.443 4.48248 14.3516 4.44531C14.26 4.4081 14.1764 4.35311 14.1064 4.2832C14.0367 4.21342 13.9815 4.13043 13.9443 4.03906C13.9071 3.94746 13.8883 3.84886 13.8896 3.75V0.75C13.8896 0.551176 13.9688 0.360361 14.1094 0.219727C14.2499 0.0791624 14.4409 9.89241e-05 14.6396 0Z" fill="var(--fill-0, black)"/>
</svg>
