<svg preserveAspectRatio="none" width="100%" height="100%" overflow="visible" style="display: block;" viewBox="0 0 18 24" fill="none" xmlns="http://www.w3.org/2000/svg">
<path id="Geo" d="M7.83 23.3661L0.960002 12.9292C0.269745 11.5692 -0.0578589 10.0568 0.00837216 8.5358C0.0746032 7.01483 0.532477 5.53595 1.33839 4.23995C2.1443 2.94395 3.27144 1.87394 4.61253 1.13178C5.95362 0.38962 7.46404 0 9.00001 0C10.536 0 12.0464 0.38962 13.3875 1.13178C14.7286 1.87394 15.8557 2.94395 16.6616 4.23995C17.4676 5.53595 17.9254 7.01483 17.9916 8.5358C18.0579 10.0568 17.7303 11.5692 17.04 12.9292L10.17 23.3661C10.0442 23.5605 9.87115 23.7204 9.6667 23.8312C9.46226 23.942 9.23301 24 9.00001 24C8.76702 24 8.53777 23.942 8.33333 23.8312C8.12888 23.7204 7.95579 23.5605 7.83 23.3661ZM4.67 8.49875C4.67 9.34995 4.92478 10.182 5.40211 10.8896C5.87944 11.5972 6.55787 12.1486 7.35148 12.4739C8.1451 12.7992 9.01822 12.8838 9.86037 12.717C10.7025 12.5502 11.4758 12.1395 12.0824 11.537C12.6889 10.9344 13.1015 10.1669 13.2678 9.33186C13.4342 8.49677 13.3468 7.63155 13.0168 6.8457C12.6868 6.05986 12.1289 5.38873 11.4139 4.91726C10.6989 4.44578 9.85881 4.19516 9.00001 4.19712V4.19712C8.42876 4.19972 7.8636 4.31382 7.33684 4.5329C6.81007 4.75198 6.33202 5.07173 5.92994 5.47394C5.52787 5.87614 5.20963 6.35291 4.99345 6.87701C4.77727 7.40111 4.66736 7.96228 4.67 8.52848V8.49875ZM6.00001 8.49875C6.00001 7.91065 6.17595 7.33575 6.5056 6.84676C6.83524 6.35778 7.30376 5.97667 7.85194 5.75161C8.40012 5.52656 9.00334 5.46767 9.58528 5.58241C10.1672 5.69714 10.7018 5.98034 11.1213 6.39619C11.5409 6.81204 11.8266 7.34186 11.9424 7.91865C12.0581 8.49545 11.9987 9.0933 11.7717 9.63664C11.5446 10.18 11.1601 10.6444 10.6667 10.9711C10.1734 11.2978 9.59336 11.4722 9.00001 11.4722C8.20954 11.4723 7.45096 11.1631 6.8892 10.6119C6.32745 10.0606 6.00792 9.31193 6.00001 8.52848V8.49875Z" fill="var(--fill-0, black)"/>
</svg>
