<svg width="19" height="19" viewBox="0 0 19 19" fill="none" xmlns="http://www.w3.org/2000/svg">
<path d="M10.8496 16.8115C10.8496 17.2555 10.6885 17.6351 10.3662 17.9502C10.0511 18.2725 9.66797 18.4336 9.2168 18.4336C8.76562 18.4336 8.38249 18.2725 8.06738 17.9502C7.75228 17.6351 7.59473 17.2555 7.59473 16.8115V1.63281C7.59473 1.18164 7.75228 0.798503 8.06738 0.483398C8.38249 0.161133 8.76562 0 9.2168 0C9.66797 0 10.0511 0.161133 10.3662 0.483398C10.6885 0.798503 10.8496 1.18164 10.8496 1.63281V16.8115ZM1.63281 10.8496C1.18164 10.8496 0.794922 10.6921 0.472656 10.377C0.157552 10.0547 0 9.66797 0 9.2168C0 8.76562 0.157552 8.38249 0.472656 8.06738C0.794922 7.74512 1.18164 7.58398 1.63281 7.58398H16.8115C17.2555 7.58398 17.6351 7.74512 17.9502 8.06738C18.2725 8.38249 18.4336 8.76562 18.4336 9.2168C18.4336 9.66797 18.2725 10.0547 17.9502 10.377C17.6351 10.6921 17.2555 10.8496 16.8115 10.8496H1.63281Z" fill="#1A1A1A"/>
</svg>
