<svg width="19" height="4" viewBox="0 0 19 4" fill="none" xmlns="http://www.w3.org/2000/svg">
<path d="M1.60059 3.25488C1.32845 3.25488 1.07064 3.17969 0.827148 3.0293C0.583659 2.87891 0.383138 2.68197 0.225586 2.43848C0.0751953 2.18783 0 1.91569 0 1.62207C0 1.32845 0.0751953 1.0599 0.225586 0.816406C0.383138 0.565755 0.583659 0.368815 0.827148 0.225586C1.07064 0.0751953 1.32845 0 1.60059 0H16.79C17.0765 0 17.3415 0.0751953 17.585 0.225586C17.8285 0.368815 18.0218 0.565755 18.165 0.816406C18.3154 1.0599 18.3906 1.32845 18.3906 1.62207C18.3906 1.91569 18.3154 2.18783 18.165 2.43848C18.0218 2.68197 17.8285 2.87891 17.585 3.0293C17.3415 3.17969 17.0765 3.25488 16.79 3.25488H1.60059Z" fill="#1A1A1A"/>
</svg>
