<svg width="24" height="24" viewBox="0 0 24 24" fill="none" xmlns="http://www.w3.org/2000/svg">
<path d="M11.623 4.17871C11.3652 4.17871 11.1432 4.08919 10.957 3.91016C10.778 3.72396 10.6885 3.50195 10.6885 3.24414V0.93457C10.6885 0.676758 10.778 0.458333 10.957 0.279297C11.1432 0.093099 11.3652 0 11.623 0C11.8737 0 12.0885 0.093099 12.2676 0.279297C12.4538 0.458333 12.5469 0.676758 12.5469 0.93457V3.24414C12.5469 3.50195 12.4538 3.72396 12.2676 3.91016C12.0885 4.08919 11.8737 4.17871 11.623 4.17871ZM16.8867 6.38086C16.7077 6.20182 16.6182 5.9834 16.6182 5.72559C16.6182 5.46777 16.7077 5.24935 16.8867 5.07031L18.541 3.41602C18.7201 3.23698 18.9385 3.14746 19.1963 3.14746C19.4541 3.14746 19.6725 3.23698 19.8516 3.41602C20.0306 3.59505 20.1201 3.81706 20.1201 4.08203C20.1201 4.33984 20.0306 4.55827 19.8516 4.7373L18.208 6.38086C18.029 6.56706 17.807 6.66016 17.542 6.66016C17.2842 6.65299 17.0658 6.5599 16.8867 6.38086ZM19.0674 11.6553C19.0674 11.3975 19.1569 11.179 19.3359 11C19.5221 10.8138 19.7441 10.7207 20.002 10.7207H22.3115C22.5622 10.7207 22.777 10.8138 22.9561 11C23.1423 11.179 23.2354 11.3975 23.2354 11.6553C23.2354 11.9059 23.1423 12.1243 22.9561 12.3105C22.777 12.4896 22.5622 12.5791 22.3115 12.5791H20.002C19.7441 12.5791 19.5221 12.4896 19.3359 12.3105C19.1569 12.1243 19.0674 11.9059 19.0674 11.6553ZM16.8867 16.9297C17.0658 16.7578 17.2842 16.6719 17.542 16.6719C17.7998 16.6719 18.0182 16.7578 18.1973 16.9297L19.8516 18.584C20.0306 18.7559 20.1201 18.9707 20.1201 19.2285C20.1201 19.4863 20.0306 19.7083 19.8516 19.8945C19.6725 20.0664 19.4541 20.1523 19.1963 20.1523C18.9385 20.1595 18.7201 20.0771 18.541 19.9053L16.8867 18.2402C16.7077 18.0684 16.6182 17.8535 16.6182 17.5957C16.6182 17.3379 16.7077 17.1159 16.8867 16.9297ZM11.623 19.1318C11.8737 19.1318 12.0885 19.2249 12.2676 19.4111C12.4538 19.5902 12.5469 19.805 12.5469 20.0557V22.376C12.5469 22.6266 12.4538 22.8415 12.2676 23.0205C12.0885 23.2067 11.8737 23.2998 11.623 23.2998C11.3652 23.2998 11.1432 23.2067 10.957 23.0205C10.778 22.8415 10.6885 22.6266 10.6885 22.376V20.0557C10.6885 19.805 10.778 19.5902 10.957 19.4111C11.1432 19.2249 11.3652 19.1318 11.623 19.1318ZM6.34863 16.9297C6.52051 17.1159 6.60645 17.3379 6.60645 17.5957C6.60645 17.8535 6.51693 18.0684 6.33789 18.2402L4.69434 19.8945C4.5153 20.0664 4.29329 20.1488 4.02832 20.1416C3.77051 20.1416 3.55208 20.0557 3.37305 19.8838C3.20117 19.6976 3.11523 19.4756 3.11523 19.2178C3.11523 18.96 3.20475 18.7451 3.38379 18.5732L5.02734 16.9297C5.20638 16.7578 5.4248 16.6719 5.68262 16.6719C5.94759 16.6719 6.1696 16.7578 6.34863 16.9297ZM4.16797 11.6553C4.16797 11.9059 4.07487 12.1243 3.88867 12.3105C3.70964 12.4896 3.49121 12.5791 3.2334 12.5791H0.923828C0.673177 12.5791 0.454753 12.4896 0.268555 12.3105C0.0895182 12.1243 0 11.9059 0 11.6553C0 11.3975 0.0895182 11.179 0.268555 11C0.454753 10.8138 0.673177 10.7207 0.923828 10.7207H3.2334C3.49121 10.7207 3.70964 10.8138 3.88867 11C4.07487 11.179 4.16797 11.3975 4.16977 11.6553ZM6.33789 6.38086C6.15885 6.5599 5.94043 6.64941 5.68262 6.64941C5.4248 6.64941 5.20638 6.5599 5.02734 6.38086L3.38379 4.72656C3.21191 4.55469 3.12598 4.33984 3.12598 4.08203C3.12598 3.81706 3.21549 3.59505 3.39453 3.41602C3.57357 3.23698 3.79199 3.15104 4.0498 3.1582C4.31478 3.1582 4.5332 3.24414 4.70508 3.41602L6.34863 5.07031C6.52051 5.24219 6.60645 5.46061 6.60645 5.72559C6.60645 5.99056 6.51693 6.20898 6.33789 6.38086ZM11.6123 17.123C10.8604 17.123 10.1514 16.9834 9.48535 16.7041C8.8265 16.4176 8.24642 16.0238 7.74512 15.5225C7.24382 15.0212 6.84993 14.4411 6.56348 13.7822C6.28418 13.1162 6.14453 12.4072 6.14453 11.6553C6.14453 10.8962 6.28418 10.1872 6.56348 9.52832C6.84993 8.86947 7.24382 8.28939 7.74512 7.78809C8.24642 7.28678 8.8265 6.8929 9.48535 6.60645C10.1514 6.31999 10.8604 6.17676 11.6123 6.17676C12.3643 6.17676 13.0697 6.31999 13.7285 6.60645C14.3945 6.8929 14.9782 7.28678 15.4795 7.78809C15.9808 8.28939 16.3711 8.86947 16.6504 9.52832C16.9368 10.1872 17.0801 10.8962 17.0801 11.6553C17.0801 12.4072 16.9368 13.1162 16.6504 13.7822C16.3711 14.4411 15.9808 15.0212 15.4795 15.5225C14.9782 16.0238 14.3945 16.4176 13.7285 16.7041C13.0697 16.9834 12.3643 17.123 11.6123 17.123Z" fill="black"/>
</svg>
