<svg preserveAspectRatio="none" width="100%" height="100%" overflow="visible" style="display: block;" viewBox="0 0 14.6853 23.3316" fill="none" xmlns="http://www.w3.org/2000/svg">
<path id="Symbol_Cool" d="M9.73222 21.1523L9.70889 21.0357C9.48726 18.7049 10.0005 16.3624 11.1903 14.3463V13.2158L11.7269 13.5188C11.9368 13.2158 12.1701 12.9245 12.4151 12.6448C12.5434 12.4699 12.6834 12.2718 12.8234 12.0737L12.1001 11.6542L13.6165 10.7801C14.1648 9.8128 14.4914 8.72896 14.5614 7.61016C14.5614 7.36542 14.5497 7.12069 14.5147 6.87595L14.0948 8.43761L11.1903 10.1042V6.78272L14.4214 3.58948C14.7714 3.23985 14.7714 2.68046 14.4331 2.33083L14.4214 2.31918C14.0715 1.96955 13.4882 1.96955 13.1383 2.31918L11.1903 4.25377V0.89737C11.1903 0.396241 10.782 0 10.2921 0C9.79054 0 9.38228 0.396241 9.38228 0.89737V4.25377L7.43428 2.31918C7.08434 1.96955 6.50111 1.96955 6.15117 2.31918C5.80123 2.6688 5.80123 3.2282 6.1395 3.57782L6.15117 3.58948L9.38228 6.78272V10.1042L6.48944 8.44926L5.31131 4.07895C5.183 3.58948 4.68142 3.30978 4.20317 3.43798C3.71325 3.56617 3.4333 4.05565 3.56161 4.54512L4.27315 7.19061L1.34532 5.50076C0.913732 5.25602 0.365493 5.40753 0.120535 5.82708C-0.124423 6.25828 0.0155529 6.79437 0.435481 7.05076L3.36331 8.72896L0.703768 9.43986C0.225517 9.56806 -0.0544351 10.0575 0.0622115 10.5354C0.167194 10.9316 0.528798 11.1996 0.937061 11.1996C1.01871 11.1996 1.0887 11.188 1.17035 11.1647L5.5796 9.99926L8.4841 11.6542L5.59126 13.309L1.18202 12.1436C0.715433 11.9921 0.202187 12.2485 0.0505469 12.7147C-0.101094 13.1808 0.155529 13.6936 0.622115 13.8451C0.645445 13.8568 0.680439 13.8568 0.715433 13.8684L3.37498 14.5793L0.435481 16.2575C0.0155529 16.5023 -0.124423 17.05 0.120535 17.4812C0.377157 17.9124 0.925397 18.0523 1.35699 17.8075L4.28482 16.1293L3.57327 18.7748C3.44496 19.2527 3.72492 19.7421 4.20317 19.8703C4.28482 19.8936 4.35481 19.9053 4.43646 19.9053C4.84472 19.9053 5.20633 19.6372 5.31131 19.241L6.48944 14.8707L9.38228 13.2158V16.5372L6.15117 19.7305C5.80123 20.0801 5.80123 20.6395 6.1395 20.9891L6.15117 21.0008C6.50111 21.3504 7.08434 21.3504 7.43428 21.0008L9.38228 19.0778V22.4342C9.38228 22.9354 9.79054 23.3316 10.2805 23.3316C10.3154 23.3316 10.3388 23.32 10.3738 23.3083C10.0822 22.6091 9.86053 21.8865 9.73222 21.1523Z" fill="var(--fill-0, #0093C8)"/>
</svg>
