<svg preserveAspectRatio="none" width="100%" height="100%" overflow="visible" style="display: block;" viewBox="0 0 9.36392 9.36321" fill="none" xmlns="http://www.w3.org/2000/svg">
<path id="Symbol_Auto" fill-rule="evenodd" clip-rule="evenodd" d="M3.88279 5.24708C3.85946 5.24708 3.83612 5.23542 3.83612 5.20042V5.18875L4.60612 2.71542C4.61779 2.69208 4.64112 2.68042 4.66446 2.69208C4.67612 2.69208 4.68779 2.70375 4.68779 2.71542L5.45779 5.18875C5.46946 5.21208 5.45779 5.23542 5.43446 5.24708H5.42279H3.88279ZM5.98279 6.84542C6.00612 6.93875 6.09946 6.99708 6.19279 6.99708H6.50779C6.58946 6.99708 6.65946 6.92708 6.65946 6.85708C6.65946 6.84542 6.65946 6.82208 6.64779 6.81042L5.14279 2.24875C5.10779 2.13208 4.99112 2.05042 4.86279 2.05042H4.46612C4.33779 2.05042 4.23279 2.13208 4.18612 2.24875L2.66946 6.81042C2.64612 6.89208 2.69279 6.97375 2.76279 6.99708C2.77446 6.99708 2.79779 7.00875 2.80946 7.00875H3.08946C3.18279 7.00875 3.27612 6.95042 3.29946 6.85708L3.62613 5.80708C3.63779 5.76042 3.68446 5.71375 3.74279 5.71375H5.51612C5.57446 5.71375 5.62112 5.74875 5.63279 5.80708L5.98279 6.84542ZM4.96779 0.00875C7.54612 0.172083 9.51779 2.38875 9.35446 4.96708C9.19112 7.54542 6.97446 9.51708 4.39613 9.35375C1.81779 9.19042 -0.153874 6.97375 0.00945893 4.39542C0.149459 2.03875 2.03946 0.14875 4.39613 0.00875C4.58279 -0.00291667 4.76946 -0.00291667 4.95612 0.00875H4.96779V0.00875Z" fill="var(--fill-0, #3C3C43)" fill-opacity="0.6"/>
</svg>
