<svg width="22" height="25" viewBox="0 0 22 25" fill="none" xmlns="http://www.w3.org/2000/svg">
<path d="M1.78418 19.4766C1.23926 19.4766 0.805664 19.333 0.483398 19.0459C0.161133 18.7646 0 18.3896 0 17.9209C0 17.5166 0.102539 17.1328 0.307617 16.7695C0.512695 16.4004 0.773438 16.0459 1.08984 15.7061C1.40625 15.3662 1.73438 15.0352 2.07422 14.7129C2.29688 14.4961 2.47559 14.2295 2.61035 13.9131C2.74512 13.5967 2.85352 13.2451 2.93555 12.8584C3.01758 12.4658 3.08496 12.0557 3.1377 11.6279C3.19629 11.2002 3.24902 10.7695 3.2959 10.3359C3.37207 9.03516 3.56836 7.86621 3.88477 6.8291C4.20703 5.79199 4.67285 4.91602 5.28223 4.20117C5.8916 3.48047 6.67383 2.95605 7.62891 2.62793C7.85742 1.87207 8.26465 1.24512 8.85059 0.74707C9.43652 0.249023 10.1396 0 10.96 0C11.7744 0 12.4746 0.249023 13.0605 0.74707C13.6523 1.24512 14.0625 1.87207 14.291 2.62793C15.2402 2.95605 16.0195 3.48047 16.6289 4.20117C17.2441 4.91602 17.71 5.79199 18.0264 6.8291C18.3428 7.86621 18.542 9.03516 18.624 10.3359C18.6709 10.7695 18.7178 11.2002 18.7646 11.6279C18.8174 12.0557 18.8848 12.4658 18.9668 12.8584C19.0547 13.2451 19.166 13.5967 19.3008 13.9131C19.4414 14.2295 19.6201 14.4961 19.8369 14.7129C20.1768 15.0352 20.5049 15.3662 20.8213 15.7061C21.1377 16.0459 21.3984 16.4004 21.6035 16.7695C21.8145 17.1328 21.9199 17.5166 21.9199 17.9209C21.9199 18.3896 21.7588 18.7646 21.4365 19.0459C21.1143 19.333 20.6777 19.4766 20.127 19.4766H1.78418ZM10.96 24.0469C10.292 24.0469 9.69434 23.9062 9.16699 23.625C8.64551 23.3438 8.22363 22.9688 7.90137 22.5C7.58496 22.0371 7.40039 21.5303 7.34766 20.9795H14.5723C14.5137 21.5303 14.3232 22.0371 14.001 22.5C13.6846 22.9688 13.2627 23.3438 12.7354 23.625C12.2139 23.9062 11.6221 24.0469 10.96 24.0469Z" fill="#1A1A1A"/>
</svg>
