<svg width="24" height="26" viewBox="0 0 24 26" fill="none" xmlns="http://www.w3.org/2000/svg">
<path d="M11.6982 25.8926C10.415 25.8926 9.19043 25.6934 8.02441 25.2949C6.8584 24.9023 5.78613 24.3457 4.80762 23.625C3.83496 22.9102 2.98828 22.0635 2.26758 21.085C1.55273 20.1064 0.996094 19.0342 0.597656 17.8682C0.199219 16.7021 0 15.4775 0 14.1943C0 12.9111 0.196289 11.6865 0.588867 10.5205C0.987305 9.35449 1.54688 8.28516 2.26758 7.3125C2.98828 6.33398 3.83496 5.48438 4.80762 4.76367C5.78027 4.04297 6.84961 3.48633 8.01562 3.09375C9.18164 2.69531 10.4062 2.49609 11.6895 2.49609C12.9727 2.49609 14.1973 2.69531 15.3633 3.09375C16.5352 3.48633 17.6074 4.04297 18.5801 4.76367C19.5586 5.48438 20.4082 6.33398 21.1289 7.3125C21.8496 8.28516 22.4092 9.35449 22.8076 10.5205C23.2061 11.6865 23.4053 12.9111 23.4053 14.1943C23.4053 15.4775 23.2061 16.7021 22.8076 17.8682C22.4092 19.0342 21.8496 20.1064 21.1289 21.085C20.4082 22.0635 19.5586 22.9102 18.5801 23.625C17.6074 24.3457 16.5381 24.9023 15.3721 25.2949C14.2061 25.6934 12.9814 25.8926 11.6982 25.8926ZM11.6982 16.1191C12.0498 16.1191 12.3691 16.0342 12.6562 15.8643C12.9492 15.6885 13.1777 15.457 13.3418 15.1699C13.5117 14.8828 13.5967 14.5605 13.5967 14.2031C13.5967 13.8516 13.5059 13.5322 13.3242 13.2451C13.1426 12.9521 12.8877 12.7178 12.5596 12.542V6.93457C12.5596 6.7002 12.4746 6.50098 12.3047 6.33691C12.1406 6.16699 11.9355 6.08203 11.6895 6.08203C11.4492 6.08203 11.2471 6.16699 11.083 6.33691C10.9189 6.50098 10.8369 6.7002 10.8369 6.93457V12.5332C10.5146 12.7148 10.2598 12.9521 10.0723 13.2451C9.88477 13.5322 9.79102 13.8516 9.79102 14.2031C9.79102 14.5605 9.87598 14.8828 10.0459 15.1699C10.2158 15.457 10.4443 15.6885 10.7314 15.8643C11.0244 16.0342 11.3467 16.1191 11.6982 16.1191ZM10.4502 3.03223V1.27441C10.4502 0.916992 10.5732 0.615234 10.8193 0.369141C11.0654 0.123047 11.3584 0 11.6982 0C12.0439 0 12.3369 0.123047 12.5771 0.369141C12.8232 0.615234 12.9463 0.916992 12.9463 1.27441V3.04102L10.4502 3.03223ZM19.0547 5.73926L20.3291 4.48242C20.5986 4.22461 20.918 4.0957 21.2871 4.0957C21.6328 4.0957 21.9199 4.21289 22.1484 4.44727C22.3828 4.68164 22.5 4.96289 22.5 5.29102C22.5 5.63086 22.3564 5.94434 22.0693 6.23145L20.7334 7.57617L19.0547 5.73926Z" fill="#1A1A1A"/>
</svg>
