<?xml version="1.0" encoding="UTF-8"?>
<svg id="Layer_1" data-name="Layer 1" xmlns="http://www.w3.org/2000/svg" viewBox="0 0 754 722">
  <defs>
    <style>
      .cls-1 {
        fill: #077bbf;
      }

      .cls-2 {
        fill: none;
        stroke: #f0ead2;
        stroke-miterlimit: 10;
      }

      .cls-3 {
        fill: #262626;
      }

      .cls-4 {
        fill: #8a2209;
      }

      .cls-5 {
        fill: #614da0;
      }

      .cls-6 {
        opacity: .8;
      }

      .cls-7 {
        fill: #0baa4b;
      }

      .cls-8 {
        fill: #f0ead2;
      }
    </style>
  </defs>
  <rect class="cls-3" width="754" height="722" rx="33.25" ry="33.25"/>
  <path class="cls-8" d="M426.42,32.14c0-.09-.01-.18-.02-.27-.22-1.88-1.59-4.48-3.77-4.48-1.51,0-2.74,1.22-2.74,2.73s1.22,2.73,2.74,2.73c.21,0,.41-.03.6-.07-.77,4.99-7.91,2.46-7.91,2.46,2.06-.12,1.52-3.22,1.52-3.22-1.67.48-3.82-.72-3.82-.72,1.31-.84.6-2.74.6-2.74-1.19.6-4.3,0-4.3,0-5.38-.72-7.77-6.09-7.77-6.09,1.54,2.3,8.36,3.46,8.36,3.46,4.38.56,6.49-1.14,7.49-2.66.54-.53.87-1.27.87-2.09,0-1.63-1.32-2.95-2.95-2.95s-2.95,1.32-2.95,2.95c0,.99.49,1.86,1.24,2.4-1.07,1.6-5.43.18-7.55-.63-.25-.09-.18-.45.08-.47.9-.05,2.13-.24,3.06-.84,1.67-1.07,0-2.74,0-2.74-.6,2.27-8.48.95-18.16,1.19-9.68.24-12.66,7.76-12.66,7.76l-.6-1.98c2.4-6.18,8.91-6.85,8.91-6.85,0,0-1.08-1.79-4.84-1.25,0,0,1.25-.54,0-3.94l-3.05,2.68s1.61-3.76-1.79-6.09c-3.4,2.33-1.79,6.09-1.79,6.09l-3.05-2.68c-1.25,3.4,0,3.94,0,3.94-3.76-.54-4.84,1.25-4.84,1.25,0,0,6.5.68,8.91,6.85l-.6,1.98s-2.99-7.52-12.66-7.76-17.56,1.07-18.16-1.19c0,0-1.67,1.67,0,2.74.93.6,2.15.79,3.06.84.26.02.33.38.08.47-2.12.81-6.48,2.23-7.55.63.75-.54,1.24-1.41,1.24-2.4,0-1.63-1.32-2.95-2.95-2.95s-2.95,1.32-2.95,2.95c0,.82.33,1.56.87,2.09,1,1.52,3.11,3.22,7.49,2.66,0,0,6.82-1.16,8.36-3.46,0,0-2.39,5.37-7.77,6.09,0,0-3.11.6-4.3,0,0,0-.72,1.91.6,2.74,0,0-2.15,1.19-3.82.72,0,0-.54,3.1,1.52,3.22,0,0-7.14,2.53-7.91-2.46.19.04.4.07.6.07,1.51,0,2.74-1.22,2.74-2.73s-1.22-2.73-2.74-2.73c-2.18,0-3.55,2.6-3.77,4.48-.01.09-.02.18-.02.27-.13,1.85.62,3.74,2.22,4.77,2.63,1.7,6.45,1.36,9.29.42,4.98-1.65,9.05-6.21,12.22-10.14.87-1.07,1.7-2.18,2.5-3.3.15-.21.48-.05.41.2-.76,2.49-1.64,5.35-1.08,7.96.65,3.01,3.98,3.96,6.66,2.96.87-.32,1.67-.79,2.21-1.57.27-.39.51-2.56.56-2.59-.85.56-1.72,1.14-2.71,1.35-3.98.85-5.01-5.57-3.34-8.06,0,0,1.43-.71,1.43-.71,0,0-1.19,4.85,1.91,5.05,0,0,.12-4.69,2.63-5.29,0,0,3.82-.74,4.84.94,0,0-3.64,2.23-1.97,4.34,1.67,2.11,3.58-1.71,3.58-1.71,0,0,5.73-.72,5.26,4.53,0,0-2.27,1.91-1.08,2.51,1.19.6,2.51.84,2.51-.36,0,0,.12,5.13-1.55,7.76,0,0,.48,2.39,2.93,3.22,2.45-.84,2.93-3.22,2.93-3.22-1.67-2.63-1.55-7.76-1.55-7.76,0,1.19,1.31.95,2.51.36,1.19-.6-1.08-2.51-1.08-2.51-.48-5.25,5.26-4.53,5.26-4.53,0,0,1.91,3.82,3.58,1.71,1.67-2.11-1.97-4.34-1.97-4.34,1.02-1.68,4.84-.94,4.84-.94,2.51.6,2.63,5.29,2.63,5.29,3.11-.2,1.91-5.05,1.91-5.05,0,0,1.43.71,1.43.71,1.66,2.49.63,8.9-3.34,8.06-.99-.21-1.87-.79-2.71-1.35.04.03.29,2.2.56,2.59.54.78,1.34,1.25,2.21,1.57,2.68,1,6.01.05,6.66-2.96.56-2.61-.32-5.47-1.08-7.96-.08-.25.26-.41.41-.2.8,1.12,1.64,2.22,2.5,3.3,3.17,3.94,7.24,8.49,12.22,10.14,2.84.94,6.66,1.28,9.29-.42,1.6-1.03,2.35-2.92,2.22-4.77Z"/>
  <path class="cls-8" d="M720.35,410.36c.09,0,.18-.01.27-.02,1.89-.21,4.49-1.59,4.49-3.76,0-1.51-1.22-2.73-2.74-2.73s-2.74,1.22-2.74,2.73c0,.21.03.41.07.6-5-.77-2.46-7.9-2.46-7.9.12,2.06,3.23,1.52,3.23,1.52-.48-1.67.72-3.82.72-3.82.84,1.31,2.75.6,2.75.6-.6-1.19,0-4.3,0-4.3.72-5.37,6.09-7.76,6.09-7.76-2.3,1.54-3.46,8.35-3.46,8.35-.56,4.37,1.14,6.48,2.66,7.48.54.54,1.27.87,2.09.87,1.63,0,2.95-1.32,2.95-2.95s-1.32-2.95-2.95-2.95c-.99,0-1.86.49-2.4,1.24-1.6-1.07-.18-5.42.63-7.54.09-.25.46-.18.47.08.05.9.24,2.13.84,3.05,1.08,1.67,2.75,0,2.75,0-2.27-.6-.96-8.47-1.19-18.14-.24-9.66-7.77-12.65-7.77-12.65l1.98-.6c6.18,2.4,6.86,8.89,6.86,8.89,0,0,1.79-1.07,1.25-4.83,0,0,.54,1.25,3.94,0l-2.69-3.04s3.76,1.61,6.09-1.79c-2.33-3.4-6.09-1.79-6.09-1.79l2.69-3.04c-3.4-1.25-3.94,0-3.94,0,.54-3.76-1.25-4.83-1.25-4.83,0,0-.68,6.49-6.86,8.89l-1.98-.6s7.53-2.98,7.77-12.65c.24-9.66-1.08-17.54,1.19-18.14,0,0-1.67-1.67-2.75,0-.6.93-.79,2.15-.84,3.05-.02.26-.38.33-.47.08-.82-2.12-2.24-6.47-.63-7.54.54.75,1.41,1.24,2.4,1.24,1.63,0,2.95-1.32,2.95-2.95s-1.32-2.95-2.95-2.95c-.82,0-1.56.33-2.09.87-1.52,1-3.22,3.11-2.66,7.48,0,0,1.17,6.81,3.46,8.35,0,0-5.38-2.39-6.09-7.76,0,0-.6-3.1,0-4.3,0,0-1.91-.72-2.75.6,0,0-1.19-2.15-.72-3.82,0,0-3.11-.54-3.23,1.52,0,0-2.53-7.13,2.46-7.9-.04.19-.07.4-.07.6,0,1.51,1.22,2.73,2.74,2.73s2.74-1.22,2.74-2.73c0-2.18-2.6-3.55-4.49-3.76-.09-.01-.18-.02-.27-.02-1.86-.13-3.74.62-4.78,2.22-1.7,2.63-1.36,6.44-.42,9.27,1.65,4.97,6.22,9.04,10.16,12.21,1.08.87,2.18,1.7,3.3,2.5.21.15.05.48-.2.41-2.49-.76-5.35-1.64-7.97-1.08-3.01.64-3.96,3.97-2.97,6.65.32.87.79,1.67,1.57,2.21.39.26,2.56.51,2.59.56-.56-.84-1.14-1.72-1.35-2.71-.85-3.97,5.58-5,8.07-3.34,0,0,.71,1.43.71,1.43,0,0-4.85-1.19-5.05,1.91,0,0,4.7.12,5.29,2.63,0,0,.74,3.82-.95,4.83,0,0-2.23-3.64-4.35-1.97-2.11,1.67,1.71,3.58,1.71,3.58,0,0,.72,5.73-4.54,5.25,0,0-1.91-2.27-2.51-1.07-.6,1.19-.84,2.51.36,2.51,0,0-5.14.12-7.77-1.55,0,0-2.39.48-3.23,2.92.84,2.45,3.23,2.92,3.23,2.92,2.63-1.67,7.77-1.55,7.77-1.55-1.19,0-.96,1.31-.36,2.51.6,1.19,2.51-1.07,2.51-1.07,5.26-.48,4.54,5.25,4.54,5.25,0,0-3.82,1.91-1.71,3.58,2.11,1.67,4.35-1.97,4.35-1.97,1.68,1.01.95,4.83.95,4.83-.6,2.51-5.29,2.63-5.29,2.63.2,3.1,5.05,1.91,5.05,1.91,0,0-.71,1.43-.71,1.43-2.49,1.66-8.92.63-8.07-3.34.21-.99.79-1.86,1.35-2.71-.03.04-2.2.29-2.59.56-.78.54-1.25,1.34-1.57,2.21-1,2.68-.05,6,2.97,6.65,2.62.56,5.48-.32,7.97-1.08.25-.08.41.26.2.41-1.12.8-2.23,1.63-3.3,2.5-3.94,3.17-8.5,7.23-10.16,12.21-.94,2.83-1.28,6.65.42,9.27,1.03,1.6,2.92,2.35,4.78,2.22Z"/>
  <path class="cls-8" d="M33.65,311.64c-.09,0-.18.01-.27.02-1.89.21-4.49,1.59-4.49,3.76,0,1.51,1.22,2.73,2.74,2.73s2.74-1.22,2.74-2.73c0-.21-.03-.41-.07-.6,5,.77,2.46,7.9,2.46,7.9-.12-2.06-3.23-1.52-3.23-1.52.48,1.67-.72,3.82-.72,3.82-.84-1.31-2.75-.6-2.75-.6.6,1.19,0,4.3,0,4.3-.72,5.37-6.09,7.76-6.09,7.76,2.3-1.54,3.46-8.35,3.46-8.35.56-4.37-1.14-6.48-2.66-7.48-.54-.54-1.27-.87-2.09-.87-1.63,0-2.95,1.32-2.95,2.95s1.32,2.95,2.95,2.95c.99,0,1.86-.49,2.4-1.24,1.6,1.07.18,5.42-.63,7.54-.09.25-.46.18-.47-.08-.05-.9-.24-2.13-.84-3.05-1.08-1.67-2.75,0-2.75,0,2.27.6.96,8.47,1.19,18.14.24,9.66,7.77,12.65,7.77,12.65l-1.98.6c-6.18-2.4-6.86-8.89-6.86-8.89,0,0-1.79,1.07-1.25,4.83,0,0-.54-1.25-3.94,0l2.69,3.04s-3.76-1.61-6.09,1.79c2.33,3.4,6.09,1.79,6.09,1.79l-2.69,3.04c3.4,1.25,3.94,0,3.94,0-.54,3.76,1.25,4.83,1.25,4.83,0,0,.68-6.49,6.86-8.89l1.98.6s-7.53,2.98-7.77,12.65c-.24,9.66,1.08,17.54-1.19,18.14,0,0,1.67,1.67,2.75,0,.6-.93.79-2.15.84-3.05.02-.26.38-.33.47-.08.82,2.12,2.24,6.47.63,7.54-.54-.75-1.41-1.24-2.4-1.24-1.63,0-2.95,1.32-2.95,2.95s1.32,2.95,2.95,2.95c.82,0,1.56-.33,2.09-.87,1.52-1,3.22-3.11,2.66-7.48,0,0-1.17-6.81-3.46-8.35,0,0,5.38,2.39,6.09,7.76,0,0,.6,3.1,0,4.3,0,0,1.91.72,2.75-.6,0,0,1.19,2.15.72,3.82,0,0,3.11.54,3.23-1.52,0,0,2.53,7.13-2.46,7.9.04-.19.07-.4.07-.6,0-1.51-1.22-2.73-2.74-2.73s-2.74,1.22-2.74,2.73c0,2.18,2.6,3.55,4.49,3.76.09.01.18.02.27.02,1.86.13,3.74-.62,4.78-2.22,1.7-2.63,1.36-6.44.42-9.27-1.65-4.97-6.22-9.04-10.16-12.21-1.08-.87-2.18-1.7-3.3-2.5-.21-.15-.05-.48.2-.41,2.49.76,5.35,1.64,7.97,1.08,3.01-.64,3.96-3.97,2.97-6.65-.32-.87-.79-1.67-1.57-2.21-.39-.26-2.56-.51-2.59-.56.56.84,1.14,1.72,1.35,2.71.85,3.97-5.58,5-8.07,3.34,0,0-.71-1.43-.71-1.43,0,0,4.85,1.19,5.05-1.91,0,0-4.7-.12-5.29-2.63,0,0-.74-3.82.95-4.83,0,0,2.23,3.64,4.35,1.97,2.11-1.67-1.71-3.58-1.71-3.58,0,0-.72-5.73,4.54-5.25,0,0,1.91,2.27,2.51,1.07.6-1.19.84-2.51-.36-2.51,0,0,5.14-.12,7.77,1.55,0,0,2.39-.48,3.23-2.92-.84-2.45-3.23-2.92-3.23-2.92-2.63,1.67-7.77,1.55-7.77,1.55,1.19,0,.96-1.31.36-2.51-.6-1.19-2.51,1.07-2.51,1.07-5.26.48-4.54-5.25-4.54-5.25,0,0,3.82-1.91,1.71-3.58-2.11-1.67-4.35,1.97-4.35,1.97-1.68-1.01-.95-4.83-.95-4.83.6-2.51,5.29-2.63,5.29-2.63-.2-3.1-5.05-1.91-5.05-1.91,0,0,.71-1.43.71-1.43,2.49-1.66,8.92-.63,8.07,3.34-.21.99-.79,1.86-1.35,2.71.03-.04,2.2-.29,2.59-.56.78-.54,1.25-1.34,1.57-2.21,1-2.68.05-6-2.97-6.65-2.62-.56-5.48.32-7.97,1.08-.25.08-.41-.26-.2-.41,1.12-.8,2.23-1.63,3.3-2.5,3.94-3.17,8.5-7.23,10.16-12.21.94-2.83,1.28-6.65-.42-9.27-1.03-1.6-2.92-2.35-4.78-2.22Z"/>
  <path class="cls-8" d="M327.58,685.65c0,.09.01.18.02.27.22,1.88,1.59,4.48,3.77,4.48,1.51,0,2.74-1.22,2.74-2.73s-1.22-2.73-2.74-2.73c-.21,0-.41.03-.6.07.77-4.99,7.91-2.46,7.91-2.46-2.06.12-1.52,3.22-1.52,3.22,1.67-.48,3.82.72,3.82.72-1.31.84-.6,2.74-.6,2.74,1.19-.6,4.3,0,4.3,0,5.38.72,7.77,6.09,7.77,6.09-1.54-2.3-8.36-3.46-8.36-3.46-4.38-.56-6.49,1.14-7.49,2.66-.54.53-.87,1.27-.87,2.09,0,1.63,1.32,2.95,2.95,2.95s2.95-1.32,2.95-2.95c0-.99-.49-1.86-1.24-2.4,1.07-1.6,5.43-.18,7.55.63.25.09.18.45-.08.47-.9.05-2.13.24-3.06.84-1.67,1.07,0,2.74,0,2.74.6-2.27,8.48-.95,18.16-1.19,9.68-.24,12.66-7.76,12.66-7.76l.6,1.98c-2.4,6.18-8.91,6.85-8.91,6.85,0,0,1.08,1.79,4.84,1.25,0,0-1.25.54,0,3.94l3.05-2.68s-1.61,3.76,1.79,6.09c3.4-2.33,1.79-6.09,1.79-6.09l3.05,2.68c1.25-3.4,0-3.94,0-3.94,3.76.54,4.84-1.25,4.84-1.25,0,0-6.5-.68-8.91-6.85l.6-1.98s2.99,7.52,12.66,7.76c9.68.24,17.56-1.07,18.16,1.19,0,0,1.67-1.67,0-2.74-.93-.6-2.15-.79-3.06-.84-.26-.02-.33-.38-.08-.47,2.12-.81,6.48-2.23,7.55-.63-.75.54-1.24,1.41-1.24,2.4,0,1.63,1.32,2.95,2.95,2.95s2.95-1.32,2.95-2.95c0-.82-.33-1.56-.87-2.09-1-1.52-3.11-3.22-7.49-2.66,0,0-6.82,1.16-8.36,3.46,0,0,2.39-5.37,7.77-6.09,0,0,3.11-.6,4.3,0,0,0,.72-1.91-.6-2.74,0,0,2.15-1.19,3.82-.72,0,0,.54-3.1-1.52-3.22,0,0,7.14-2.53,7.91,2.46-.19-.04-.4-.07-.6-.07-1.51,0-2.74,1.22-2.74,2.73s1.22,2.73,2.74,2.73c2.18,0,3.55-2.6,3.77-4.48.01-.09.02-.18.02-.27.13-1.85-.62-3.74-2.22-4.77-2.63-1.7-6.45-1.36-9.29-.42-4.98,1.65-9.05,6.21-12.22,10.14-.87,1.07-1.7,2.18-2.5,3.3-.15.21-.48.05-.41-.2.76-2.49,1.64-5.35,1.08-7.96-.65-3.01-3.98-3.96-6.66-2.96-.87.32-1.67.79-2.21,1.57-.27.39-.51,2.56-.56,2.59.85-.56,1.72-1.14,2.71-1.35,3.98-.85,5.01,5.57,3.34,8.06,0,0-1.43.71-1.43.71,0,0,1.19-4.85-1.91-5.05,0,0-.12,4.69-2.63,5.29,0,0-3.82.74-4.84-.94,0,0,3.64-2.23,1.97-4.34-1.67-2.11-3.58,1.71-3.58,1.71,0,0-5.73.72-5.26-4.53,0,0,2.27-1.91,1.08-2.51-1.19-.6-2.51-.84-2.51.36,0,0-.12-5.13,1.55-7.76,0,0-.48-2.39-2.93-3.22-2.45.84-2.93,3.22-2.93,3.22,1.67,2.63,1.55,7.76,1.55,7.76,0-1.19-1.31-.95-2.51-.36-1.19.6,1.08,2.51,1.08,2.51.48,5.25-5.26,4.53-5.26,4.53,0,0-1.91-3.82-3.58-1.71-1.67,2.11,1.97,4.34,1.97,4.34-1.02,1.68-4.84.94-4.84.94-2.51-.6-2.63-5.29-2.63-5.29-3.11.2-1.91,5.05-1.91,5.05,0,0-1.43-.71-1.43-.71-1.66-2.49-.63-8.9,3.34-8.06.99.21,1.87.79,2.71,1.35-.04-.03-.29-2.2-.56-2.59-.54-.78-1.34-1.25-2.21-1.57-2.68-1-6.01-.05-6.66,2.96-.56,2.61.32,5.47,1.08,7.96.08.25-.26.41-.41.2-.8-1.12-1.64-2.22-2.5-3.3-3.17-3.94-7.24-8.49-12.22-10.14-2.84-.94-6.66-1.28-9.29.42-1.6,1.03-2.35,2.92-2.22,4.77Z"/>
  <g>
    <path class="cls-8" d="M28.81,33.01c-1.16.34-8.79,2.83-6.25,8.17.04.09.08.18.12.26.23.52,1.53,2.94,5.24,1.46,0,0-2.59-1.97.31-4.03,2.9-2.07,7.8-3.65,10.8-1.48-2.17-3-.59-7.89,1.48-10.79,2.07-2.9,4.04-.31,4.04-.31,1.48-3.71-.94-5.01-1.46-5.24-.09-.04-.18-.08-.26-.12-5.35-2.53-7.83,5.09-8.18,6.25.23-.96.8-6.41-14.75-8.89,2.49,15.53,7.94,14.96,8.9,14.73Z"/>
    <path class="cls-8" d="M107.11,23.02c-.38-.97-1.49-1.43-2.49-1.11-4.43,1.42-9.31,1.29-14.5-.39-1.46-.47-2.89-1.06-4.27-1.74-1.17-.58-2.2-1.35-3.46-1.75-1.27-.4-2.52-.66-3.86-.6-4.04.19-7.26,3.31-7.71,7.2-.23,1.95.71,4.71,2.15,6.04,1.37,1.27,3.16,1.93,5.03,1.84,1.77-.08,3.39-.94,4.45-2.36.62-.82.52-2.05-.3-2.68-.84-.65-2.05-.48-2.67.37-.37.5-.91.86-1.53.91-1.78.16-3.33-1.2-3.42-2.97-.12-2.42,1.76-4.48,4.18-4.59,1.07-.05,2.03.18,2.95.72.96.56,1.81,1.13,2.4,2.1.52.87.84,1.82.89,2.85.21,4.36-3.17,8.08-7.54,8.28-2.3.11-5.55-1.07-7.53-2.35-.14-.34-.3-.67-.49-1.01-3.48-6.2-11.32-10.29-18.32-7.41-.11.05-.22.09-.34.14-7.14,3.17-9.69,11.6-6.43,18.15-6.56-3.26-14.99-.71-18.17,6.42-.05.11-.1.22-.14.34-2.89,6.98,1.22,14.82,7.42,18.29.24.13.48.25.72.36,1.35,1.94,2.63,5.37,2.52,7.76-.1,2.11-1.02,4.06-2.59,5.48-1.57,1.42-3.59,2.15-5.71,2.05-3.1-.15-5.82-3.1-5.67-6.23.06-1.17.57-2.25,1.43-3.04.87-.79,1.99-1.19,3.17-1.14,1.77.08,3.14,1.63,2.98,3.41-.05.62-.41,1.16-.91,1.53-.85.62-1.02,1.82-.37,2.67.63.81,1.86.91,2.69.3,1.42-1.06,2.28-2.67,2.36-4.44.18-3.8-2.76-7.03-6.56-7.21-2.18-.1-4.26.65-5.87,2.11-1.61,1.46-2.56,3.47-2.66,5.64-.08,1.73.31,3.36,1.08,4.9,1.11,2.2,2.27,4.29,3.04,6.65,1.69,5.19,1.82,10.06.39,14.49-.32.99.14,2.1,1.11,2.48.75.29,1.56.09,2.09-.44.21-.21.37-.47.47-.77,1.7-5.2,1.56-11.11-.41-17.08-.03-.09-.06-.18-.09-.26.51.11,1.03.18,1.56.2,3.12.15,6.11-.92,8.42-3.02.14-.13.28-.26.41-.39,2.06-2.06,3.26-4.76,3.4-7.69.11-2.29-.58-4.92-1.57-7.15,6.38-.62,11.62-7.65,8.3-12.59-2.52-3.74-5.48-2.24-6.89-.93-.73.68-.89,1.92-.31,2.73.63.87.44,1.65-.03,2.28-.95,1.27-2.77,1.52-4.09.64-4.32-2.89-4.66-8.8,1.84-12.14,3.11-1.6,7.46-.72,10.26,1.16,2.68,1.8,4.51,4.81,4.88,8.02,0,0,2.31-.58,5.46.11.71.15,1.45.37,2.23.68-.3-.77-.52-1.52-.68-2.22-.69-3.15-.11-5.46-.11-5.46-3.21-.37-6.22-2.2-8.03-4.88-1.88-2.79-2.76-7.14-1.16-10.24,3.34-6.49,9.25-6.15,12.15-1.83.89,1.33.63,3.15-.67,4.1-.62.45-1.39.63-2.25.01-.81-.58-2.06-.42-2.74.31-1.31,1.41-2.81,4.37.93,6.88,4.9,3.29,11.86-1.83,12.58-8.12,2.21.96,4.8,1.63,7.06,1.52,3.02-.14,5.71-1.42,7.7-3.41,2.25-2.25,3.58-5.39,3.42-8.81-.03-.55-.1-1.08-.21-1.6.1.03.2.07.3.1,5.98,1.96,11.9,2.11,17.11.41.3-.1.56-.26.77-.47.53-.53.73-1.34.44-2.09Z"/>
  </g>
  <g>
    <path class="cls-8" d="M719.47,27.3c-.34-1.16-2.83-8.78-8.18-6.25-.09.04-.18.08-.26.12-.52.23-2.94,1.53-1.46,5.24,0,0,1.97-2.59,4.04.31,2.07,2.9,3.66,7.79,1.48,10.79,3-2.17,7.9-.59,10.8,1.48,2.9,2.07.31,4.03.31,4.03,3.71,1.48,5.01-.94,5.24-1.46.04-.09.08-.18.12-.26,2.54-5.34-5.09-7.82-6.25-8.17.96.23,6.42.8,8.9-14.73-15.55,2.48-14.98,7.93-14.75,8.89Z"/>
    <path class="cls-8" d="M729.47,105.5c.97-.38,1.43-1.49,1.11-2.48-1.43-4.42-1.29-9.3.39-14.49.47-1.46,1.06-2.89,1.74-4.26.58-1.17,1.35-2.2,1.75-3.46.4-1.27.66-2.52.6-3.86-.19-4.04-3.31-7.26-7.21-7.7-1.96-.23-4.71.71-6.05,2.15-1.28,1.37-1.93,3.16-1.84,5.02.08,1.77.94,3.38,2.36,4.44.83.62,2.05.52,2.69-.3.65-.84.48-2.04-.37-2.67-.5-.37-.86-.91-.91-1.53-.16-1.78,1.21-3.33,2.98-3.41,2.42-.12,4.48,1.76,4.6,4.18.05,1.07-.18,2.03-.72,2.95-.56.96-1.13,1.81-2.11,2.39-.87.52-1.83.84-2.85.89-4.37.21-8.09-3.17-8.29-7.53-.11-2.3,1.07-5.55,2.35-7.52.34-.14.67-.3,1.01-.49,6.2-3.47,10.31-11.31,7.42-18.29-.05-.11-.09-.22-.14-.34-3.18-7.13-11.61-9.68-18.17-6.42,3.26-6.55.71-14.98-6.43-18.15-.11-.05-.22-.1-.34-.14-6.99-2.88-14.84,1.22-18.32,7.41-.13.24-.25.48-.37.72-1.94,1.34-5.37,2.63-7.77,2.51-2.11-.1-4.06-1.02-5.49-2.58-1.42-1.56-2.15-3.59-2.05-5.7.15-3.09,3.1-5.82,6.24-5.67,1.17.06,2.25.57,3.04,1.43.79.87,1.19,1.99,1.14,3.16-.08,1.77-1.63,3.13-3.41,2.97-.62-.05-1.16-.41-1.53-.91-.62-.85-1.83-1.02-2.67-.37-.81.63-.91,1.86-.3,2.68,1.06,1.42,2.67,2.28,4.44,2.36,3.8.18,7.04-2.76,7.22-6.56.1-2.17-.65-4.26-2.11-5.87-1.47-1.61-3.47-2.55-5.65-2.66-1.73-.08-3.36.31-4.9,1.08-2.21,1.11-4.3,2.27-6.66,3.03-5.2,1.69-10.08,1.82-14.51.39-1-.32-2.1.14-2.49,1.11-.29.75-.09,1.56.44,2.09.21.21.47.37.77.47,5.21,1.7,11.12,1.56,17.11-.41.09-.03.18-.06.27-.09-.11.51-.18,1.03-.2,1.56-.15,3.11.93,6.1,3.03,8.41.13.14.26.28.39.41,2.06,2.06,4.77,3.26,7.7,3.4,2.29.11,4.93-.58,7.16-1.57.62,6.37,7.66,11.61,12.6,8.29,3.75-2.51,2.24-5.48.93-6.88-.68-.73-1.93-.89-2.74-.31-.87.63-1.65.44-2.28-.03-1.27-.95-1.52-2.76-.64-4.08,2.9-4.31,8.81-4.66,12.15,1.83,1.6,3.1.72,7.45-1.16,10.24-1.81,2.68-4.82,4.51-8.03,4.88,0,0,.58,2.31-.11,5.46-.15.7-.37,1.45-.68,2.22.77-.3,1.52-.52,2.23-.68,3.15-.69,5.46-.11,5.46-.11.37-3.21,2.2-6.21,4.88-8.02,2.79-1.88,7.15-2.76,10.26-1.16,6.5,3.34,6.16,9.24,1.83,12.14-1.33.89-3.16.63-4.1-.67-.45-.62-.63-1.39-.01-2.25.58-.81.42-2.05-.31-2.73-1.41-1.31-4.38-2.81-6.89.93-3.29,4.89,1.83,11.84,8.13,12.57-.96,2.21-1.63,4.8-1.52,7.05.14,3.01,1.43,5.71,3.41,7.69,2.25,2.25,5.4,3.58,8.82,3.41.55-.03,1.08-.1,1.6-.21-.03.1-.07.2-.1.3-1.97,5.97-2.11,11.88-.41,17.08.1.3.26.56.47.77.53.53,1.34.73,2.09.44Z"/>
  </g>
  <g>
    <path class="cls-8" d="M725.19,684.78c1.16-.34,8.79-2.83,6.25-8.17-.04-.09-.08-.18-.12-.26-.23-.52-1.53-2.94-5.24-1.46,0,0,2.59,1.97-.31,4.03-2.9,2.07-7.8,3.65-10.8,1.48,2.17,3,.59,7.89-1.48,10.79-2.07,2.9-4.04.31-4.04.31-1.48,3.71.94,5.01,1.46,5.24.09.04.18.08.26.12,5.35,2.53,7.83-5.09,8.18-6.25-.23.96-.8,6.41,14.75,8.89-2.49-15.53-7.94-14.96-8.9-14.73Z"/>
    <path class="cls-8" d="M646.89,694.77c.38.97,1.49,1.43,2.49,1.11,4.43-1.42,9.31-1.29,14.5.39,1.46.47,2.89,1.06,4.27,1.74,1.17.58,2.2,1.35,3.46,1.75,1.27.4,2.52.66,3.86.6,4.04-.19,7.26-3.31,7.71-7.2.23-1.95-.71-4.71-2.15-6.04-1.37-1.27-3.16-1.93-5.03-1.84-1.77.08-3.39.94-4.45,2.36-.62.82-.52,2.05.3,2.68.84.65,2.05.48,2.67-.37.37-.5.91-.86,1.53-.91,1.78-.16,3.33,1.2,3.42,2.97.12,2.42-1.76,4.48-4.18,4.59-1.07.05-2.03-.18-2.95-.72-.96-.56-1.81-1.13-2.4-2.1-.52-.87-.84-1.82-.89-2.85-.21-4.36,3.17-8.08,7.54-8.28,2.3-.11,5.55,1.07,7.53,2.35.14.34.3.67.49,1.01,3.48,6.2,11.32,10.29,18.32,7.41.11-.05.22-.09.34-.14,7.14-3.17,9.69-11.6,6.43-18.15,6.56,3.26,14.99.71,18.17-6.42.05-.11.1-.22.14-.34,2.89-6.98-1.22-14.82-7.42-18.29-.24-.13-.48-.25-.72-.36-1.35-1.94-2.63-5.37-2.52-7.76.1-2.11,1.02-4.06,2.59-5.48,1.57-1.42,3.59-2.15,5.71-2.05,3.1.15,5.82,3.1,5.67,6.23-.06,1.17-.57,2.25-1.43,3.04-.87.79-1.99,1.19-3.17,1.14-1.77-.08-3.14-1.63-2.98-3.41.05-.62.41-1.16.91-1.53.85-.62,1.02-1.82.37-2.67-.63-.81-1.86-.91-2.69-.3-1.42,1.06-2.28,2.67-2.36,4.44-.18,3.8,2.76,7.03,6.56,7.21,2.18.1,4.26-.65,5.87-2.11,1.61-1.46,2.56-3.47,2.66-5.64.08-1.73-.31-3.36-1.08-4.9-1.11-2.2-2.27-4.29-3.04-6.65-1.69-5.19-1.82-10.06-.39-14.49.32-.99-.14-2.1-1.11-2.48-.75-.29-1.56-.09-2.09.44-.21.21-.37.47-.47.77-1.7,5.2-1.56,11.11.41,17.08.03.09.06.18.09.26-.51-.11-1.03-.18-1.56-.2-3.12-.15-6.11.92-8.42,3.02-.14.13-.28.26-.41.39-2.06,2.06-3.26,4.76-3.4,7.69-.11,2.29.58,4.92,1.57,7.15-6.38.62-11.62,7.65-8.3,12.59,2.52,3.74,5.48,2.24,6.89.93.73-.68.89-1.92.31-2.73-.63-.87-.44-1.65.03-2.28.95-1.27,2.77-1.52,4.09-.64,4.32,2.89,4.66,8.8-1.84,12.14-3.11,1.6-7.46.72-10.26-1.16-2.68-1.8-4.51-4.81-4.88-8.02,0,0-2.31.58-5.46-.11-.71-.15-1.45-.37-2.23-.68.3.77.52,1.52.68,2.22.69,3.15.11,5.46.11,5.46,3.21.37,6.22,2.2,8.03,4.88,1.88,2.79,2.76,7.14,1.16,10.24-3.34,6.49-9.25,6.15-12.15,1.83-.89-1.33-.63-3.15.67-4.1.62-.45,1.39-.63,2.25-.01.81.58,2.06.42,2.74-.31,1.31-1.41,2.81-4.37-.93-6.88-4.9-3.29-11.86,1.83-12.58,8.12-2.21-.96-4.8-1.63-7.06-1.52-3.02.14-5.71,1.42-7.7,3.41-2.25,2.25-3.58,5.39-3.42,8.81.03.55.1,1.08.21,1.6-.1-.03-.2-.07-.3-.1-5.98-1.96-11.9-2.11-17.11-.41-.3.1-.56.26-.77.47-.53.53-.73,1.34-.44,2.09Z"/>
  </g>
  <g>
    <path class="cls-8" d="M34.53,690.49c.34,1.16,2.83,8.78,8.18,6.25.09-.04.18-.08.26-.12.52-.23,2.94-1.53,1.46-5.24,0,0-1.97,2.59-4.04-.31-2.07-2.9-3.66-7.79-1.48-10.79-3,2.17-7.9.59-10.8-1.48-2.9-2.07-.31-4.03-.31-4.03-3.71-1.48-5.01.94-5.24,1.46-.04.09-.08.18-.12.26-2.54,5.34,5.09,7.82,6.25,8.17-.96-.23-6.42-.8-8.9,14.73,15.55-2.48,14.98-7.93,14.75-8.89Z"/>
    <path class="cls-8" d="M24.53,612.29c-.97.38-1.43,1.49-1.11,2.48,1.43,4.42,1.29,9.3-.39,14.49-.47,1.46-1.06,2.89-1.74,4.26-.58,1.17-1.35,2.2-1.75,3.46-.4,1.27-.66,2.52-.6,3.86.19,4.04,3.31,7.26,7.21,7.7,1.96.23,4.71-.71,6.05-2.15,1.28-1.37,1.93-3.16,1.84-5.02-.08-1.77-.94-3.38-2.36-4.44-.83-.62-2.05-.52-2.69.3-.65.84-.48,2.04.37,2.67.5.37.86.91.91,1.53.16,1.78-1.21,3.33-2.98,3.41-2.42.12-4.48-1.76-4.6-4.18-.05-1.07.18-2.03.72-2.95.56-.96,1.13-1.81,2.11-2.39.87-.52,1.83-.84,2.85-.89,4.37-.21,8.09,3.17,8.29,7.53.11,2.3-1.07,5.55-2.35,7.52-.34.14-.67.3-1.01.49-6.2,3.47-10.31,11.31-7.42,18.29.05.11.09.22.14.34,3.18,7.13,11.61,9.68,18.17,6.42-3.26,6.55-.71,14.98,6.43,18.15.11.05.22.1.34.14,6.99,2.88,14.84-1.22,18.32-7.41.13-.24.25-.48.37-.72,1.94-1.34,5.37-2.63,7.77-2.51,2.11.1,4.06,1.02,5.49,2.58,1.42,1.56,2.15,3.59,2.05,5.7-.15,3.09-3.1,5.82-6.24,5.67-1.17-.06-2.25-.57-3.04-1.43-.79-.87-1.19-1.99-1.14-3.16.08-1.77,1.63-3.13,3.41-2.97.62.05,1.16.41,1.53.91.62.85,1.83,1.02,2.67.37.81-.63.91-1.86.3-2.68-1.06-1.42-2.67-2.28-4.44-2.36-3.8-.18-7.04,2.76-7.22,6.56-.1,2.17.65,4.26,2.11,5.87,1.47,1.61,3.47,2.55,5.65,2.66,1.73.08,3.36-.31,4.9-1.08,2.21-1.11,4.3-2.27,6.66-3.03,5.2-1.69,10.08-1.82,14.51-.39,1,.32,2.1-.14,2.49-1.11.29-.75.09-1.56-.44-2.09-.21-.21-.47-.37-.77-.47-5.21-1.7-11.12-1.56-17.11.41-.09.03-.18.06-.27.09.11-.51.18-1.03.2-1.56.15-3.11-.93-6.1-3.03-8.41-.13-.14-.26-.28-.39-.41-2.06-2.06-4.77-3.26-7.7-3.4-2.29-.11-4.93.58-7.16,1.57-.62-6.37-7.66-11.61-12.6-8.29-3.75,2.51-2.24,5.48-.93,6.88.68.73,1.93.89,2.74.31.87-.63,1.65-.44,2.28.03,1.27.95,1.52,2.76.64,4.08-2.9,4.31-8.81,4.66-12.15-1.83-1.6-3.1-.72-7.45,1.16-10.24,1.81-2.68,4.82-4.51,8.03-4.88,0,0-.58-2.31.11-5.46.15-.7.37-1.45.68-2.22-.77.3-1.52.52-2.23.68-3.15.69-5.46.11-5.46.11-.37,3.21-2.2,6.21-4.88,8.02-2.79,1.88-7.15,2.76-10.26,1.16-6.5-3.34-6.16-9.24-1.83-12.14,1.33-.89,3.16-.63,4.1.67.45.62.63,1.39.01,2.25-.58.81-.42,2.05.31,2.73,1.41,1.31,4.38,2.81,6.89-.93,3.29-4.89-1.83-11.84-8.13-12.57.96-2.21,1.63-4.8,1.52-7.05-.14-3.01-1.43-5.71-3.41-7.69-2.25-2.25-5.4-3.58-8.82-3.41-.55.03-1.08.1-1.6.21.03-.1.07-.2.1-.3,1.97-5.97,2.11-11.88.41-17.08-.1-.3-.26-.56-.47-.77-.53-.53-1.34-.73-2.09-.44Z"/>
  </g>
  <line class="cls-2" x1="377" y1="130.22" x2="377" y2="240.65"/>
  <line class="cls-2" x1="377" y1="473.96" x2="377" y2="584.39"/>
  <path class="cls-2" d="M290.07,361H119.16h170.91Z"/>
  <path class="cls-2" d="M634.84,361h-170.91,170.91Z"/>
  <g class="cls-6">
    <rect class="cls-4" x="92.98" y="100.49" width="223.26" height="169.89" rx="17.87" ry="17.87"/>
    <g>
      <path class="cls-8" d="M130.54,120.41h22.02c.88,0,1.6-.72,1.6-1.6v-9c0-.88-.72-1.6-1.6-1.6h-22.02c-.88,0-1.6.72-1.6,1.6v9c0,.88.72,1.6,1.6,1.6ZM130.14,109.81c0-.22.18-.4.4-.4h22.02c.22,0,.4.18.4.4v9c0,.22-.18.4-.4.4h-22.02c-.22,0-.4-.18-.4-.4v-9Z"/>
      <path class="cls-8" d="M156.57,120.41h22.02c.88,0,1.6-.72,1.6-1.6v-9c0-.88-.72-1.6-1.6-1.6h-22.02c-.88,0-1.6.72-1.6,1.6v9c0,.88.72,1.6,1.6,1.6ZM156.17,109.81c0-.22.18-.4.4-.4h22.02c.22,0,.4.18.4.4v9c0,.22-.18.4-.4.4h-22.02c-.22,0-.4-.18-.4-.4v-9Z"/>
      <path class="cls-8" d="M182.59,120.41h22.02c.88,0,1.6-.72,1.6-1.6v-9c0-.88-.72-1.6-1.6-1.6h-22.02c-.88,0-1.6.72-1.6,1.6v9c0,.88.72,1.6,1.6,1.6ZM182.19,109.81c0-.22.18-.4.4-.4h22.02c.22,0,.4.18.4.4v9c0,.22-.18.4-.4.4h-22.02c-.22,0-.4-.18-.4-.4v-9Z"/>
      <path class="cls-8" d="M208.62,120.41h22.02c.88,0,1.6-.72,1.6-1.6v-9c0-.88-.72-1.6-1.6-1.6h-22.02c-.88,0-1.6.72-1.6,1.6v9c0,.88.72,1.6,1.6,1.6ZM208.22,109.81c0-.22.18-.4.4-.4h22.02c.22,0,.4.18.4.4v9c0,.22-.18.4-.4.4h-22.02c-.22,0-.4-.18-.4-.4v-9Z"/>
      <rect class="cls-8" x="142.95" y="122.81" width="1.2" height="139.85"/>
      <path class="cls-8" d="M106.52,128.81h30.03c.55,0,1,.45,1,1v2c0,.55-.45,1-1,1h-30.03c-.55,0-1-.45-1-1v-2c0-.55.45-1,1-1Z"/>
      <path class="cls-8" d="M110.52,136.8h24.03c.55,0,1,.45,1,1v1c0,.55-.45,1-1,1h-24.02c-.55,0-1-.45-1-1v-1c0-.55.45-1,1-1Z"/>
      <path class="cls-8" d="M110.52,143.8h24.02c.55,0,1,.45,1,1v1c0,.55-.45,1-1,1h-24.02c-.55,0-1-.45-1-1v-1c0-.55.45-1,1-1Z"/>
      <rect class="cls-8" x="113.52" y="150.8" width="22.02" height="3" rx="1" ry="1"/>
      <path class="cls-8" d="M110.52,157.8h24.02c.55,0,1,.45,1,1v1c0,.55-.45,1-1,1h-24.02c-.55,0-1-.45-1-1v-1c0-.55.45-1,1-1Z"/>
      <path class="cls-8" d="M110.52,164.79h18.02c.55,0,1,.45,1,1v1c0,.55-.45,1-1,1h-18.02c-.55,0-1-.45-1-1v-1c0-.55.45-1,1-1Z"/>
      <path class="cls-8" d="M150.56,126.81h53.05c.55,0,1,.45,1,1v1c0,.55-.45,1-1,1h-53.05c-.55,0-1-.45-1-1v-1c0-.55.45-1,1-1Z"/>
      <path class="cls-8" d="M150.56,134.8h68.07c.55,0,1,.45,1,1v3c0,.55-.45,1-1,1h-68.07c-.55,0-1-.45-1-1v-3c0-.55.45-1,1-1Z"/>
      <path class="cls-8" d="M152.56,144.7c-2.54,0-4.6,2.06-4.6,4.6s2.07,4.6,4.6,4.6,4.6-2.06,4.6-4.6-2.07-4.6-4.6-4.6ZM152.56,152.7c-1.88,0-3.4-1.52-3.4-3.4s1.53-3.4,3.4-3.4,3.4,1.52,3.4,3.4-1.53,3.4-3.4,3.4Z"/>
      <circle class="cls-8" cx="152.56" cy="149.3" r="2"/>
      <path class="cls-8" d="M161.57,147.8h53.05c.55,0,1,.45,1,1v1c0,.55-.45,1-1,1h-53.05c-.55,0-1-.45-1-1v-1c0-.55.45-1,1-1Z"/>
      <path class="cls-8" d="M161.57,158.8h48.05c.55,0,1,.45,1,1v1c0,.55-.45,1-1,1h-48.05c-.55,0-1-.45-1-1v-1c0-.55.45-1,1-1Z"/>
      <rect class="cls-8" x="160.57" y="165.79" width="35.03" height="3" rx="1" ry="1"/>
      <path class="cls-8" d="M222.63,134.8h48.05c.55,0,1,.45,1,1v1c0,.55-.45,1-1,1h-48.05c-.55,0-1-.45-1-1v-1c0-.55.45-1,1-1Z"/>
      <path class="cls-8" d="M302.71,142.8h-80.08c-.55,0-1,.45-1,1s.45,1,1,1h80.08c.55,0,1-.45,1-1s-.45-1-1-1Z"/>
      <path class="cls-8" d="M222.63,150.8h76.07c.55,0,1-.45,1-1s-.45-1-1-1h-76.07c-.55,0-1,.45-1,1s.45,1,1,1Z"/>
      <path class="cls-8" d="M300.7,154.8h-78.07c-.55,0-1,.45-1,1s.45,1,1,1h78.07c.55,0,1-.45,1-1s-.45-1-1-1Z"/>
      <path class="cls-8" d="M295.7,160.8h-73.07c-.55,0-1,.45-1,1s.45,1,1,1h73.07c.55,0,1-.45,1-1s-.45-1-1-1Z"/>
      <path class="cls-8" d="M290.69,166.79h-68.07c-.55,0-1,.45-1,1s.45,1,1,1h68.07c.55,0,1-.45,1-1s-.45-1-1-1Z"/>
      <rect class="cls-8" x="155.56" y="182.29" width="3" height="1"/>
      <rect class="cls-8" x="149.56" y="182.29" width="3" height="1"/>
      <rect class="cls-8" x="197.61" y="182.29" width="3" height="1"/>
      <rect class="cls-8" x="191.6" y="182.29" width="3" height="1"/>
      <rect class="cls-8" x="185.59" y="182.29" width="3" height="1"/>
      <rect class="cls-8" x="209.62" y="182.29" width="3" height="1"/>
      <rect class="cls-8" x="203.61" y="182.29" width="3" height="1"/>
      <rect class="cls-8" x="179.59" y="182.29" width="3" height="1"/>
      <rect class="cls-8" x="173.58" y="182.29" width="3" height="1"/>
      <rect class="cls-8" x="161.57" y="182.29" width="3" height="1"/>
      <rect class="cls-8" x="215.62" y="182.29" width="1" height="1"/>
      <rect class="cls-8" x="167.58" y="182.29" width="3" height="1"/>
      <path class="cls-8" d="M157.17,192.29c0-2.54-2.07-4.6-4.6-4.6s-4.6,2.06-4.6,4.6,2.07,4.6,4.6,4.6,4.6-2.06,4.6-4.6ZM149.16,192.29c0-1.87,1.53-3.4,3.4-3.4s3.4,1.52,3.4,3.4-1.53,3.4-3.4,3.4-3.4-1.52-3.4-3.4Z"/>
      <path class="cls-8" d="M161.57,190.79h53.05c.55,0,1,.45,1,1v1c0,.55-.45,1-1,1h-53.05c-.55,0-1-.45-1-1v-1c0-.55.45-1,1-1Z"/>
      <path class="cls-8" d="M159.17,200.78c0-.88-.72-1.6-1.6-1.6h-4c-.88,0-1.6.72-1.6,1.6v4c0,.88.72,1.6,1.6,1.6h4c.88,0,1.6-.72,1.6-1.6v-4ZM157.97,204.78c0,.22-.18.4-.4.4h-4c-.22,0-.4-.18-.4-.4v-4c0-.22.18-.4.4-.4h4c.22,0,.4.18.4.4v4Z"/>
      <path class="cls-8" d="M164.57,201.78h40.04c.55,0,1,.45,1,1v1c0,.55-.45,1-1,1h-40.04c-.55,0-1-.45-1-1v-1c0-.55.45-1,1-1Z"/>
      <path class="cls-8" d="M159.17,210.78c0-.88-.72-1.6-1.6-1.6h-4c-.88,0-1.6.72-1.6,1.6v4c0,.88.72,1.6,1.6,1.6h4c.88,0,1.6-.72,1.6-1.6v-4ZM157.97,214.78c0,.22-.18.4-.4.4h-4c-.22,0-.4-.18-.4-.4v-4c0-.22.18-.4.4-.4h4c.22,0,.4.18.4.4v4Z"/>
      <path class="cls-8" d="M164.57,211.78h36.04c.55,0,1,.45,1,1v1c0,.55-.45,1-1,1h-36.03c-.55,0-1-.45-1-1v-1c0-.55.45-1,1-1Z"/>
      <path class="cls-8" d="M157.57,219.18h-4c-.88,0-1.6.72-1.6,1.6v4c0,.88.72,1.6,1.6,1.6h4c.88,0,1.6-.72,1.6-1.6v-4c0-.88-.72-1.6-1.6-1.6ZM157.97,224.78c0,.22-.18.4-.4.4h-4c-.22,0-.4-.18-.4-.4v-4c0-.22.18-.4.4-.4h4c.22,0,.4.18.4.4v4Z"/>
      <path class="cls-8" d="M164.57,221.78h42.04c.55,0,1,.45,1,1v1c0,.55-.45,1-1,1h-42.04c-.55,0-1-.45-1-1v-1c0-.55.45-1,1-1Z"/>
      <path class="cls-8" d="M150.56,234.77h53.05c.55,0,1,.45,1,1v1c0,.55-.45,1-1,1h-53.05c-.55,0-1-.45-1-1v-1c0-.55.45-1,1-1Z"/>
      <path class="cls-8" d="M151.6,239.77h47.97c1.13,0,2.04.91,2.04,2.04v5.92c0,1.13-.91,2.04-2.04,2.04h-47.97c-1.13,0-2.04-.91-2.04-2.04v-5.92c0-1.13.91-2.04,2.04-2.04Z"/>
      <path class="cls-8" d="M151.56,251.77h20.02c1.1,0,2,.9,2,2v4c0,1.1-.9,2-2,2h-20.02c-1.1,0-2-.9-2-2v-3.99c0-1.1.9-2,2-2Z"/>
      <path class="cls-8" d="M179.59,251.77h20.02c1.1,0,2,.9,2,2v4c0,1.1-.9,2-2,2h-20.02c-1.1,0-2-.9-2-2v-3.99c0-1.1.9-2,2-2Z"/>
    </g>
  </g>
  <g class="cls-6">
    <rect class="cls-7" x="437.76" y="444.23" width="223.26" height="169.89" rx="17.87" ry="17.87"/>
    <g>
      <path class="cls-8" d="M449.59,452.05h71.07c1.1,0,2,.9,2,2v5c0,1.1-.9,2-2,2h-71.07c-1.1,0-2-.9-2-2v-5c0-1.1.9-2,2-2Z"/>
      <path class="cls-8" d="M527.66,452.05h71.07c1.1,0,2,.9,2,2v5c0,1.1-.9,2-2,2h-71.07c-1.1,0-2-.9-2-2v-5c0-1.1.9-2,2-2Z"/>
      <path class="cls-8" d="M449.59,463.05h58.06c1.1,0,2,.9,2,2v5c0,1.1-.9,2-2,2h-58.06c-1.1,0-2-.9-2-2v-5c0-1.1.9-2,2-2Z"/>
      <path class="cls-8" d="M513.65,463.05h66.07c1.1,0,2,.9,2,2v4.99c0,1.1-.9,2-2,2h-66.07c-1.1,0-2-.9-2-2v-5c0-1.1.9-2,2-2Z"/>
      <path class="cls-8" d="M614.75,461.65h34.03c.88,0,1.6-.72,1.6-1.6v-7c0-.88-.72-1.6-1.6-1.6h-34.03c-.88,0-1.6.72-1.6,1.6v7c0,.88.72,1.6,1.6,1.6ZM614.35,453.05c0-.22.18-.4.4-.4h34.03c.22,0,.4.18.4.4v7c0,.22-.18.4-.4.4h-34.03c-.22,0-.4-.18-.4-.4v-7Z"/>
      <rect class="cls-8" x="459" y="474.04" width="1.2" height="132.86"/>
      <path class="cls-8" d="M456.6,483.44h-8.01c-.88,0-1.6.72-1.6,1.6v16c0,.88.72,1.6,1.6,1.6h8.01c.88,0,1.6-.72,1.6-1.6v-16c0-.88-.72-1.6-1.6-1.6ZM457,501.04c0,.22-.18.4-.4.4h-8.01c-.22,0-.4-.18-.4-.4v-16c0-.22.18-.4.4-.4h8.01c.22,0,.4.18.4.4v16Z"/>
      <path class="cls-8" d="M456.6,505.43h-8.01c-.88,0-1.6.72-1.6,1.6v16c0,.88.72,1.6,1.6,1.6h8.01c.88,0,1.6-.72,1.6-1.6v-16c0-.88-.72-1.6-1.6-1.6ZM457,523.03c0,.22-.18.4-.4.4h-8.01c-.22,0-.4-.18-.4-.4v-16c0-.22.18-.4.4-.4h8.01c.22,0,.4.18.4.4v16Z"/>
      <path class="cls-8" d="M456.6,527.43h-8.01c-.88,0-1.6.72-1.6,1.6v16c0,.88.72,1.6,1.6,1.6h8.01c.88,0,1.6-.72,1.6-1.6v-16c0-.88-.72-1.6-1.6-1.6ZM457,545.02c0,.22-.18.4-.4.4h-8.01c-.22,0-.4-.18-.4-.4v-16c0-.22.18-.4.4-.4h8.01c.22,0,.4.18.4.4v16Z"/>
      <path class="cls-8" d="M456.6,549.42h-8.01c-.88,0-1.6.72-1.6,1.6v16c0,.88.72,1.6,1.6,1.6h8.01c.88,0,1.6-.72,1.6-1.6v-16c0-.88-.72-1.6-1.6-1.6ZM457,567.02c0,.22-.18.4-.4.4h-8.01c-.22,0-.4-.18-.4-.4v-16c0-.22.18-.4.4-.4h8.01c.22,0,.4.18.4.4v16Z"/>
      <path class="cls-8" d="M456.6,571.41h-8.01c-.88,0-1.6.72-1.6,1.6v16c0,.88.72,1.6,1.6,1.6h8.01c.88,0,1.6-.72,1.6-1.6v-16c0-.88-.72-1.6-1.6-1.6ZM457,589.01c0,.22-.18.4-.4.4h-8.01c-.22,0-.4-.18-.4-.4v-16c0-.22.18-.4.4-.4h8.01c.22,0,.4.18.4.4v16Z"/>
      <path class="cls-8" d="M463.61,476.04h34.03c1.1,0,2,.9,2,2v6c0,1.1-.9,2-2,2h-34.04c-1.1,0-2-.9-2-2v-6c0-1.1.9-2,2-2Z"/>
      <path class="cls-8" d="M540.28,484.04v-6c0-1.43-1.17-2.6-2.6-2.6h-34.03c-1.43,0-2.6,1.17-2.6,2.6v6c0,1.43,1.17,2.6,2.6,2.6h34.03c1.43,0,2.6-1.17,2.6-2.6ZM502.24,484.04v-6c0-.77.63-1.4,1.4-1.4h34.03c.77,0,1.4.63,1.4,1.4v6c0,.77-.63,1.4-1.4,1.4h-34.03c-.77,0-1.4-.63-1.4-1.4Z"/>
      <path class="cls-8" d="M462.6,490.04h18.02c.55,0,1,.45,1,1v2c0,.55-.45,1-1,1h-18.02c-.55,0-1-.45-1-1v-2c0-.55.45-1,1-1Z"/>
      <path class="cls-8" d="M520.26,494.04v-4c0-.88-.72-1.6-1.6-1.6h-34.03c-.88,0-1.6.72-1.6,1.6v4c0,.88.72,1.6,1.6,1.6h34.03c.88,0,1.6-.72,1.6-1.6ZM484.23,494.04v-4c0-.22.18-.4.4-.4h34.03c.22,0,.4.18.4.4v4c0,.22-.18.4-.4.4h-34.03c-.22,0-.4-.18-.4-.4Z"/>
      <path class="cls-8" d="M524.66,490.04h12.01c.55,0,1,.45,1,1v2c0,.55-.45,1-1,1h-12.01c-.55,0-1-.45-1-1v-2c0-.55.45-1,1-1Z"/>
      <path class="cls-8" d="M540.68,495.64h38.04c.88,0,1.6-.72,1.6-1.6v-4c0-.88-.72-1.6-1.6-1.6h-38.04c-.88,0-1.6.72-1.6,1.6v4c0,.88.72,1.6,1.6,1.6ZM540.28,490.04c0-.22.18-.4.4-.4h38.04c.22,0,.4.18.4.4v4c0,.22-.18.4-.4.4h-38.04c-.22,0-.4-.18-.4-.4v-4Z"/>
      <path class="cls-8" d="M585.72,488.44c-1.43,0-2.6,1.17-2.6,2.6v2c0,1.43,1.17,2.6,2.6,2.6h14.01c1.43,0,2.6-1.17,2.6-2.6v-2c0-1.43-1.17-2.6-2.6-2.6h-14.01ZM601.14,491.04v2c0,.77-.63,1.4-1.4,1.4h-14.01c-.77,0-1.4-.63-1.4-1.4v-2c0-.77.63-1.4,1.4-1.4h14.01c.77,0,1.4.63,1.4,1.4Z"/>
      <path class="cls-8" d="M614.75,490.04h36.04c.55,0,1,.45,1,1v2c0,.55-.45,1-1,1h-36.04c-.55,0-1-.45-1-1v-2c0-.55.45-1,1-1Z"/>
      <path class="cls-8" d="M465.61,503.64c.88,0,1.6-.72,1.6-1.6v-3c0-.88-.72-1.6-1.6-1.6h-3c-.88,0-1.6.72-1.6,1.6v3c0,.88.72,1.6,1.6,1.6h3ZM462.2,502.04v-3c0-.22.18-.4.4-.4h3c.22,0,.4.18.4.4v3c0,.22-.18.4-.4.4h-3c-.22,0-.4-.18-.4-.4Z"/>
      <path class="cls-8" d="M470.61,499.04h34.03c.55,0,1,.45,1,1v1c0,.55-.45,1-1,1h-34.03c-.55,0-1-.45-1-1v-1c0-.55.45-1,1-1Z"/>
      <path class="cls-8" d="M554.69,498.04h96.09c.55,0,1,.45,1,1v1c0,.55-.45,1-1,1h-96.09c-.55,0-1-.45-1-1v-1c0-.55.45-1,1-1Z"/>
      <path class="cls-8" d="M461.6,513.03v84.97h190.18v-92.97h-190.18v8ZM650.59,596.81h-187.78v-19.59h187.78v19.59ZM650.59,556.22v19.59h-187.78v-19.59h187.78ZM650.59,535.23v19.59h-187.78v-19.59h187.78ZM650.59,514.23v19.59h-187.78v-19.59h187.78Z"/>
      <rect class="cls-8" x="463.61" y="516.03" width="44.04" height="3" rx="1" ry="1"/>
      <path class="cls-8" d="M464.61,525.03h34.03c.55,0,1-.45,1-1s-.45-1-1-1h-34.03c-.55,0-1,.45-1,1s.45,1,1,1Z"/>
      <path class="cls-8" d="M546.68,516.03h28.03c.55,0,1,.45,1,1v1c0,.55-.45,1-1,1h-28.03c-.55,0-1-.45-1-1v-1c0-.55.45-1,1-1Z"/>
      <path class="cls-8" d="M616.75,516.03h26.03c.55,0,1,.45,1,1v1c0,.55-.45,1-1,1h-26.03c-.55,0-1-.45-1-1v-1c0-.55.45-1,1-1Z"/>
      <path class="cls-8" d="M616.75,523.03h22.02c.55,0,1-.45,1-1s-.45-1-1-1h-22.02c-.55,0-1,.45-1,1s.45,1,1,1Z"/>
      <path class="cls-8" d="M616.75,529.03h26.02c.55,0,1-.45,1-1s-.45-1-1-1h-26.02c-.55,0-1,.45-1,1s.45,1,1,1Z"/>
      <path class="cls-8" d="M464.61,538.03h42.04c.55,0,1,.45,1,1v1c0,.55-.45,1-1,1h-42.04c-.55,0-1-.45-1-1v-1c0-.55.45-1,1-1Z"/>
      <path class="cls-8" d="M464.61,547.02h34.03c.55,0,1-.45,1-1s-.45-1-1-1h-34.03c-.55,0-1,.45-1,1s.45,1,1,1Z"/>
      <path class="cls-8" d="M511.65,538.03h20.02c.55,0,1,.45,1,1v1c0,.55-.45,1-1,1h-20.02c-.55,0-1-.45-1-1v-1c0-.55.45-1,1-1Z"/>
      <path class="cls-8" d="M546.68,538.03h28.03c.55,0,1,.45,1,1v1c0,.55-.45,1-1,1h-28.03c-.55,0-1-.45-1-1v-1c0-.55.45-1,1-1Z"/>
      <rect class="cls-8" x="615.75" y="537.03" width="28.03" height="3" rx="1" ry="1"/>
      <path class="cls-8" d="M616.75,545.02h22.02c.55,0,1-.45,1-1s-.45-1-1-1h-22.02c-.55,0-1,.45-1,1s.45,1,1,1Z"/>
      <rect class="cls-8" x="463.61" y="560.02" width="44.04" height="3" rx="1" ry="1"/>
      <path class="cls-8" d="M464.61,569.02h34.03c.55,0,1-.45,1-1s-.45-1-1-1h-34.03c-.55,0-1,.45-1,1s.45,1,1,1Z"/>
      <path class="cls-8" d="M511.65,560.02h20.02c.55,0,1,.45,1,1v1c0,.55-.45,1-1,1h-20.02c-.55,0-1-.45-1-1v-1c0-.55.45-1,1-1Z"/>
      <path class="cls-8" d="M546.68,560.02h28.03c.55,0,1,.45,1,1v1c0,.55-.45,1-1,1h-28.03c-.55,0-1-.45-1-1v-1c0-.55.45-1,1-1Z"/>
      <path class="cls-8" d="M616.75,559.02h26.03c.55,0,1,.45,1,1v1c0,.55-.45,1-1,1h-26.03c-.55,0-1-.45-1-1v-1c0-.55.45-1,1-1Z"/>
      <path class="cls-8" d="M616.75,567.02h22.02c.55,0,1-.45,1-1s-.45-1-1-1h-22.02c-.55,0-1,.45-1,1s.45,1,1,1Z"/>
      <path class="cls-8" d="M464.61,582.01h42.04c.55,0,1,.45,1,1v1c0,.55-.45,1-1,1h-42.04c-.55,0-1-.45-1-1v-1c0-.55.45-1,1-1Z"/>
      <path class="cls-8" d="M464.61,591.01h34.03c.55,0,1-.45,1-1s-.45-1-1-1h-34.03c-.55,0-1,.45-1,1s.45,1,1,1Z"/>
      <path class="cls-8" d="M511.65,582.01h20.02c.55,0,1,.45,1,1v1c0,.55-.45,1-1,1h-20.02c-.55,0-1-.45-1-1v-1c0-.55.45-1,1-1Z"/>
      <path class="cls-8" d="M546.68,582.01h28.03c.55,0,1,.45,1,1v1c0,.55-.45,1-1,1h-28.03c-.55,0-1-.45-1-1v-1c0-.55.45-1,1-1Z"/>
      <path class="cls-8" d="M578.71,582.01h16.02c.55,0,1,.45,1,1v1c0,.55-.45,1-1,1h-16.02c-.55,0-1-.45-1-1v-1c0-.55.45-1,1-1Z"/>
      <rect class="cls-8" x="615.75" y="581.01" width="28.03" height="3" rx="1" ry="1"/>
      <path class="cls-8" d="M616.75,589.01h22.02c.55,0,1-.45,1-1s-.45-1-1-1h-22.02c-.55,0-1,.45-1,1s.45,1,1,1Z"/>
    </g>
  </g>
  <g class="cls-6">
    <rect class="cls-5" x="437.76" y="100.49" width="223.26" height="169.89" rx="17.87" ry="17.87"/>
    <g>
      <path class="cls-8" d="M449.29,112.16h26.03c.55,0,1,.45,1,1v7c0,.55-.45,1-1,1h-26.03c-.55,0-1-.45-1-1v-7c0-.55.45-1,1-1Z"/>
      <path class="cls-8" d="M483.32,112.16h20.02c.55,0,1,.45,1,1v4c0,.55-.45,1-1,1h-20.02c-.55,0-1-.45-1-1v-4c0-.55.45-1,1-1Z"/>
      <path class="cls-8" d="M509.35,112.16h20.02c.55,0,1,.45,1,1v4c0,.55-.45,1-1,1h-20.02c-.55,0-1-.45-1-1v-4c0-.55.45-1,1-1Z"/>
      <path class="cls-8" d="M535.37,112.16h20.02c.55,0,1,.45,1,1v4c0,.55-.45,1-1,1h-20.02c-.55,0-1-.45-1-1v-4c0-.55.45-1,1-1Z"/>
      <path class="cls-8" d="M561.4,112.16h20.02c.55,0,1,.45,1,1v4c0,.55-.45,1-1,1h-20.02c-.55,0-1-.45-1-1v-4c0-.55.45-1,1-1Z"/>
      <path class="cls-8" d="M648.48,112.16h-30.03c-1.43,0-2.6,1.17-2.6,2.6v5c0,1.43,1.17,2.6,2.6,2.6h30.03c1.43,0,2.6-1.17,2.6-2.6v-5c0-1.43-1.17-2.6-2.6-2.6ZM649.88,119.75c0,.77-.63,1.4-1.4,1.4h-30.03c-.77,0-1.4-.63-1.4-1.4v-5c0-.77.63-1.4,1.4-1.4h30.03c.77,0,1.4.63,1.4,1.4v5Z"/>
      <path class="cls-8" d="M449.29,127.15h36.03c.55,0,1,.45,1,1v4c0,.55-.45,1-1,1h-36.04c-.55,0-1-.45-1-1v-4c0-.55.45-1,1-1Z"/>
      <path class="cls-8" d="M563.8,127.15v6c0,.88.72,1.6,1.6,1.6h20.02c.88,0,1.6-.72,1.6-1.6v-6c0-.88-.72-1.6-1.6-1.6h-20.02c-.88,0-1.6.72-1.6,1.6ZM585.82,127.15v6c0,.22-.18.4-.4.4h-20.02c-.22,0-.4-.18-.4-.4v-6c0-.22.18-.4.4-.4h20.02c.22,0,.4.18.4.4Z"/>
      <path class="cls-8" d="M590.43,134.75h20.02c.88,0,1.6-.72,1.6-1.6v-6c0-.88-.72-1.6-1.6-1.6h-20.02c-.88,0-1.6.72-1.6,1.6v6c0,.88.72,1.6,1.6,1.6ZM590.03,127.15c0-.22.18-.4.4-.4h20.02c.22,0,.4.18.4.4v6c0,.22-.18.4-.4.4h-20.02c-.22,0-.4-.18-.4-.4v-6Z"/>
      <path class="cls-8" d="M615.45,134.75h20.02c.88,0,1.6-.72,1.6-1.6v-6c0-.88-.72-1.6-1.6-1.6h-20.02c-.88,0-1.6.72-1.6,1.6v6c0,.88.72,1.6,1.6,1.6ZM615.05,127.15c0-.22.18-.4.4-.4h20.02c.22,0,.4.18.4.4v6c0,.22-.18.4-.4.4h-20.02c-.22,0-.4-.18-.4-.4v-6Z"/>
      <path class="cls-8" d="M639.47,126.15h10.01c.55,0,1,.45,1,1v6c0,.55-.45,1-1,1h-10.01c-.55,0-1-.45-1-1v-6c0-.55.45-1,1-1Z"/>
      <path class="cls-8" d="M648.48,136.55h-198.19c-1.43,0-2.6,1.17-2.6,2.6v4c0,1.43,1.17,2.6,2.6,2.6h198.19c1.43,0,2.6-1.17,2.6-2.6v-4c0-1.43-1.17-2.6-2.6-2.6ZM649.88,143.15c0,.77-.63,1.4-1.4,1.4h-198.19c-.77,0-1.4-.63-1.4-1.4v-4c0-.77.63-1.4,1.4-1.4h198.19c.77,0,1.4.63,1.4,1.4v4Z"/>
      <path class="cls-8" d="M449.29,149.15h20.02c.55,0,1,.45,1,1v2c0,.55-.45,1-1,1h-20.02c-.55,0-1-.45-1-1v-2c0-.55.45-1,1-1Z"/>
      <path class="cls-8" d="M501.34,154.14c1.66,0,3-1.34,3-3s-1.34-3-3-3h-24.02c-1.66,0-3,1.34-3,3s1.34,3,3,3h24.02Z"/>
      <path class="cls-8" d="M531.37,154.14c1.66,0,3-1.34,3-3s-1.34-3-3-3h-20.02c-1.66,0-3,1.34-3,3s1.34,3,3,3h20.02Z"/>
      <path class="cls-8" d="M555.39,154.14c1.66,0,3-1.34,3-3s-1.34-3-3-3h-14.01c-1.66,0-3,1.34-3,3s1.34,3,3,3h14.01Z"/>
      <path class="cls-8" d="M563.4,149.15h24.02c.55,0,1,.45,1,1v2c0,.55-.45,1-1,1h-24.02c-.55,0-1-.45-1-1v-2c0-.55.45-1,1-1Z"/>
      <path class="cls-8" d="M549.39,187.73c-1.88,0-3.4,1.52-3.4,3.4s1.53,3.4,3.4,3.4,3.4-1.52,3.4-3.4-1.53-3.4-3.4-3.4ZM549.39,193.13c-1.11,0-2-.9-2-2s.9-2,2-2,2,.9,2,2-.9,2-2,2Z"/>
      <path class="cls-8" d="M532.37,177.74c-1.88,0-3.4,1.52-3.4,3.4s1.53,3.4,3.4,3.4,3.4-1.52,3.4-3.4-1.53-3.4-3.4-3.4ZM532.37,183.13c-1.11,0-2-.9-2-2s.9-2,2-2,2,.9,2,2-.9,2-2,2Z"/>
      <path class="cls-8" d="M570.41,181.54c1.32,0,2.4-1.08,2.4-2.4,0-.52-.17-.99-.45-1.39l-2.76-.86c-.93.33-1.59,1.21-1.59,2.25,0,1.32,1.08,2.4,2.4,2.4Z"/>
      <path class="cls-8" d="M558.4,180.74c-1.88,0-3.4,1.52-3.4,3.4s1.53,3.4,3.4,3.4,3.4-1.52,3.4-3.4-1.53-3.4-3.4-3.4ZM558.4,186.13c-1.11,0-2-.9-2-2s.9-2,2-2,2,.9,2,2-.9,2-2,2Z"/>
      <path class="cls-8" d="M589.33,174.76l-15.71,2.77c.24.48.39,1.02.39,1.6,0,1.98-1.62,3.6-3.6,3.6s-3.6-1.61-3.6-3.6c0-1.09.5-2.06,1.27-2.72l-11.86-3.7-16.79-2.95-15.02,5-14.98-2.99-12.59,5.8-3.79,13.25,11.4,5.69,15.93-1.99,16.02,3,16.02-2,15.96,2.99,16.02-5,15.85,2.97,5.5-5.49-3.78-9.43-12.64-6.8ZM532.37,185.73c-2.54,0-4.6-2.06-4.6-4.6s2.07-4.6,4.6-4.6,4.6,2.06,4.6,4.6-2.07,4.6-4.6,4.6ZM544.38,175.64c.83,0,1.5.67,1.5,1.5s-.67,1.5-1.5,1.5-1.5-.67-1.5-1.5.67-1.5,1.5-1.5ZM549.39,195.73c-2.54,0-4.6-2.06-4.6-4.6s2.07-4.6,4.6-4.6,4.6,2.06,4.6,4.6-2.07,4.6-4.6,4.6ZM558.4,188.73c-2.54,0-4.6-2.06-4.6-4.6s2.07-4.6,4.6-4.6,4.6,2.06,4.6,4.6-2.07,4.6-4.6,4.6Z"/>
      <path class="cls-8" d="M649.48,157.14h-200.19c-.55,0-1,.45-1,1v57.98c0,.55.45,1,1,1h200.19c.55,0,1-.45,1-1v-57.98c0-.55-.45-1-1-1ZM600.64,197.78l-16.18-3.03-16.02,5-16.07-3.01-16.02,2-16.02-3-16.1,2.01-12.62-6.3,4.22-14.74,13.44-6.19,15.05,3.01,15.01-5,17.17,3.03,13.11,4.09c.26-.06.53-.1.8-.1.92,0,1.75.36,2.39.92l16.73-2.95,13.39,7.2,4.23,10.57-6.51,6.5Z"/>
      <polygon class="cls-8" points="448.29 225.52 448.29 226.12 448.29 226.72 650.49 226.72 650.49 226.12 650.49 225.52 650.49 219.12 448.29 219.12 448.29 225.52"/>
      <path class="cls-8" d="M453.3,228.12h26.03c.55,0,1,.45,1,1v1c0,.55-.45,1-1,1h-26.03c-.55,0-1-.45-1-1v-1c0-.55.45-1,1-1Z"/>
      <path class="cls-8" d="M487.33,228.12h12.01c.55,0,1,.45,1,1v1c0,.55-.45,1-1,1h-12.01c-.55,0-1-.45-1-1v-1c0-.55.45-1,1-1Z"/>
      <circle class="cls-8" cx="508.35" cy="230.12" r="2"/>
      <path class="cls-8" d="M515.36,228.12h18.02c.55,0,1,.45,1,1v1c0,.55-.45,1-1,1h-18.02c-.55,0-1-.45-1-1v-1c0-.55.45-1,1-1Z"/>
      <path class="cls-8" d="M541.38,228.12h22.02c.55,0,1,.45,1,1v1c0,.55-.45,1-1,1h-22.02c-.55,0-1-.45-1-1v-1c0-.55.45-1,1-1Z"/>
      <path class="cls-8" d="M571.41,228.12h10.01c.55,0,1,.45,1,1v1c0,.55-.45,1-1,1h-10.01c-.55,0-1-.45-1-1v-1c0-.55.45-1,1-1Z"/>
      <path class="cls-8" d="M607.44,228.12h26.03c.55,0,1,.45,1,1v1c0,.55-.45,1-1,1h-26.03c-.55,0-1-.45-1-1v-1c0-.55.45-1,1-1Z"/>
      <rect class="cls-8" x="448.29" y="233.52" width="202.19" height="1.2"/>
      <path class="cls-8" d="M453.3,236.12h26.03c.55,0,1,.45,1,1v1c0,.55-.45,1-1,1h-26.03c-.55,0-1-.45-1-1v-1c0-.55.45-1,1-1Z"/>
      <path class="cls-8" d="M487.33,236.12h12.01c.55,0,1,.45,1,1v1c0,.55-.45,1-1,1h-12.01c-.55,0-1-.45-1-1v-1c0-.55.45-1,1-1Z"/>
      <circle class="cls-8" cx="508.35" cy="238.12" r="2"/>
      <path class="cls-8" d="M515.36,236.12h18.02c.55,0,1,.45,1,1v1c0,.55-.45,1-1,1h-18.02c-.55,0-1-.45-1-1v-1c0-.55.45-1,1-1Z"/>
      <path class="cls-8" d="M541.38,236.12h22.02c.55,0,1,.45,1,1v1c0,.55-.45,1-1,1h-22.02c-.55,0-1-.45-1-1v-1c0-.55.45-1,1-1Z"/>
      <path class="cls-8" d="M571.41,236.12h10.01c.55,0,1,.45,1,1v1c0,.55-.45,1-1,1h-10.01c-.55,0-1-.45-1-1v-1c0-.55.45-1,1-1Z"/>
      <path class="cls-8" d="M607.44,236.12h26.03c.55,0,1,.45,1,1v1c0,.55-.45,1-1,1h-26.03c-.55,0-1-.45-1-1v-1c0-.55.45-1,1-1Z"/>
      <rect class="cls-8" x="448.29" y="241.52" width="202.19" height="1.2"/>
      <path class="cls-8" d="M453.3,244.12h26.03c.55,0,1,.45,1,1v1c0,.55-.45,1-1,1h-26.03c-.55,0-1-.45-1-1v-1c0-.55.45-1,1-1Z"/>
      <path class="cls-8" d="M487.33,244.12h12.01c.55,0,1,.45,1,1v1c0,.55-.45,1-1,1h-12.01c-.55,0-1-.45-1-1v-1c0-.55.45-1,1-1Z"/>
      <circle class="cls-8" cx="508.35" cy="246.12" r="2"/>
      <path class="cls-8" d="M515.36,244.12h18.02c.55,0,1,.45,1,1v1c0,.55-.45,1-1,1h-18.02c-.55,0-1-.45-1-1v-1c0-.55.45-1,1-1Z"/>
      <path class="cls-8" d="M541.38,244.12h22.02c.55,0,1,.45,1,1v1c0,.55-.45,1-1,1h-22.02c-.55,0-1-.45-1-1v-1c0-.55.45-1,1-1Z"/>
      <path class="cls-8" d="M571.41,244.12h10.01c.55,0,1,.45,1,1v1c0,.55-.45,1-1,1h-10.01c-.55,0-1-.45-1-1v-1c0-.55.45-1,1-1Z"/>
      <path class="cls-8" d="M607.44,244.12h26.03c.55,0,1,.45,1,1v1c0,.55-.45,1-1,1h-26.03c-.55,0-1-.45-1-1v-1c0-.55.45-1,1-1Z"/>
      <rect class="cls-8" x="448.29" y="249.51" width="202.19" height="1.2"/>
      <path class="cls-8" d="M453.3,252.11h36.04c.55,0,1,.45,1,1v1c0,.55-.45,1-1,1h-36.04c-.55,0-1-.45-1-1v-1c0-.55.45-1,1-1Z"/>
      <path class="cls-8" d="M495.34,252.11h12.01c.55,0,1,.45,1,1v1c0,.55-.45,1-1,1h-12.01c-.55,0-1-.45-1-1v-1c0-.55.45-1,1-1Z"/>
      <circle class="cls-8" cx="517.36" cy="254.11" r="2"/>
      <path class="cls-8" d="M524.36,252.11h18.02c.55,0,1,.45,1,1v1c0,.55-.45,1-1,1h-18.02c-.55,0-1-.45-1-1v-1c0-.55.45-1,1-1Z"/>
      <path class="cls-8" d="M550.39,252.11h22.02c.55,0,1,.45,1,1v1c0,.55-.45,1-1,1h-22.02c-.55,0-1-.45-1-1v-1c0-.55.45-1,1-1Z"/>
      <path class="cls-8" d="M580.42,252.11h6.01c.55,0,1,.45,1,1v1c0,.55-.45,1-1,1h-6.01c-.55,0-1-.45-1-1v-1c0-.55.45-1,1-1Z"/>
      <path class="cls-8" d="M607.44,252.11h30.03c.55,0,1,.45,1,1v1c0,.55-.45,1-1,1h-30.03c-.55,0-1-.45-1-1v-1c0-.55.45-1,1-1Z"/>
      <rect class="cls-8" x="448.29" y="257.51" width="202.19" height="1.2"/>
    </g>
  </g>
  <g class="cls-6">
    <rect class="cls-1" x="92.98" y="444.23" width="223.26" height="169.89" rx="17.87" ry="17.87"/>
    <g>
      <path class="cls-8" d="M104.51,451.9h34.03c.55,0,1,.45,1,1v8c0,.55-.45,1-1,1h-34.03c-.55,0-1-.45-1-1v-8c0-.55.45-1,1-1Z"/>
      <path class="cls-8" d="M148.56,452.9h20.02c.55,0,1,.45,1,1v3c0,.55-.45,1-1,1h-20.02c-.55,0-1-.45-1-1v-3c0-.55.45-1,1-1Z"/>
      <path class="cls-8" d="M174.58,452.9h18.02c.55,0,1,.45,1,1v3c0,.55-.45,1-1,1h-18.02c-.55,0-1-.45-1-1v-3c0-.55.45-1,1-1Z"/>
      <path class="cls-8" d="M198.6,452.9h14.01c.55,0,1,.45,1,1v3c0,.55-.45,1-1,1h-14.01c-.55,0-1-.45-1-1v-3c0-.55.45-1,1-1Z"/>
      <path class="cls-8" d="M218.62,452.9h24.02c.55,0,1,.45,1,1v3c0,.55-.45,1-1,1h-24.02c-.55,0-1-.45-1-1v-3c0-.55.45-1,1-1Z"/>
      <path class="cls-8" d="M104.51,466.89h48.05c.55,0,1,.45,1,1v5c0,.55-.45,1-1,1h-48.05c-.55,0-1-.45-1-1v-5c0-.55.45-1,1-1Z"/>
      <path class="cls-8" d="M105.52,488.49h91.09c1.43,0,2.6-1.17,2.6-2.6v-5c0-1.43-1.17-2.6-2.6-2.6h-91.09c-1.43,0-2.6,1.17-2.6,2.6v5c0,1.43,1.17,2.6,2.6,2.6ZM104.12,480.89c0-.77.63-1.4,1.4-1.4h91.09c.77,0,1.4.63,1.4,1.4v5c0,.77-.63,1.4-1.4,1.4h-91.09c-.77,0-1.4-.63-1.4-1.4v-5Z"/>
      <path class="cls-8" d="M203.01,480.89v5c0,1.43,1.17,2.6,2.6,2.6h56.05c1.43,0,2.6-1.17,2.6-2.6v-5c0-1.43-1.17-2.6-2.6-2.6h-56.05c-1.43,0-2.6,1.17-2.6,2.6ZM263.07,480.89v5c0,.77-.63,1.4-1.4,1.4h-56.05c-.77,0-1.4-.63-1.4-1.4v-5c0-.77.63-1.4,1.4-1.4h56.05c.77,0,1.4.63,1.4,1.4Z"/>
      <path class="cls-8" d="M268.67,478.89h16.02c1.1,0,2,.9,2,2v5c0,1.1-.9,2-2,2h-16.02c-1.1,0-2-.9-2-2v-5c0-1.1.9-2,2-2Z"/>
      <path class="cls-8" d="M303.71,478.29h-12.01c-1.43,0-2.6,1.17-2.6,2.6v5c0,1.43,1.17,2.6,2.6,2.6h12.01c1.43,0,2.6-1.17,2.6-2.6v-5c0-1.43-1.17-2.6-2.6-2.6ZM305.11,485.89c0,.77-.63,1.4-1.4,1.4h-12.01c-.77,0-1.4-.63-1.4-1.4v-5c0-.77.63-1.4,1.4-1.4h12.01c.77,0,1.4.63,1.4,1.4v5Z"/>
      <path class="cls-8" d="M108.52,504.95h-4c-.88,0-1.6.72-1.6,1.6v4c0,.88.72,1.6,1.6,1.6h4c.88,0,1.6-.72,1.6-1.6v-4c0-.88-.72-1.6-1.6-1.6ZM108.92,510.55c0,.22-.18.4-.4.4h-4c-.22,0-.4-.18-.4-.4v-4c0-.22.18-.4.4-.4h4c.22,0,.4.18.4.4v4Z"/>
      <path class="cls-8" d="M114.53,507.05h30.03c.55,0,1,.45,1,1v1c0,.55-.45,1-1,1h-30.03c-.55,0-1-.45-1-1v-1c0-.55.45-1,1-1Z"/>
      <path class="cls-8" d="M150.56,506.05h6.01c.55,0,1,.45,1,1v3c0,.55-.45,1-1,1h-6.01c-.55,0-1-.45-1-1v-3c0-.55.45-1,1-1Z"/>
      <path class="cls-8" d="M160.17,554.87v-37.99c0-1.43-1.17-2.6-2.6-2.6h-42.04c-1.43,0-2.6,1.17-2.6,2.6v37.99c0,1.43,1.17,2.6,2.6,2.6h42.04c1.43,0,2.6-1.17,2.6-2.6ZM158.97,554.87c0,.77-.63,1.4-1.4,1.4h-42.04c-.77,0-1.4-.63-1.4-1.4v-37.99c0-.77.63-1.4,1.4-1.4h42.04c.77,0,1.4.63,1.4,1.4v37.99Z"/>
      <path class="cls-8" d="M120.53,523.48c.88,0,1.6-.72,1.6-1.6v-4c0-.88-.72-1.6-1.6-1.6h-4c-.88,0-1.6.72-1.6,1.6v4c0,.88.72,1.6,1.6,1.6h4ZM116.13,521.88v-4c0-.22.18-.4.4-.4h4c.22,0,.4.18.4.4v4c0,.22-.18.4-.4.4h-4c-.22,0-.4-.18-.4-.4Z"/>
      <path class="cls-8" d="M125.53,518.88h28.03c.55,0,1,.45,1,1v1c0,.55-.45,1-1,1h-28.03c-.55,0-1-.45-1-1v-1c0-.55.45-1,1-1Z"/>
      <path class="cls-8" d="M116.53,550.87h40.04c.55,0,1,.45,1,1v1c0,.55-.45,1-1,1h-40.04c-.55,0-1-.45-1-1v-1c0-.55.45-1,1-1Z"/>
      <path class="cls-8" d="M165.57,514.28c-1.43,0-2.6,1.17-2.6,2.6v37.99c0,1.43,1.17,2.6,2.6,2.6h42.04c1.43,0,2.6-1.17,2.6-2.6v-37.99c0-1.43-1.17-2.6-2.6-2.6h-42.04ZM209.02,516.88v37.99c0,.77-.63,1.4-1.4,1.4h-42.04c-.77,0-1.4-.63-1.4-1.4v-37.99c0-.77.63-1.4,1.4-1.4h42.04c.77,0,1.4.63,1.4,1.4Z"/>
      <path class="cls-8" d="M170.58,523.48c.88,0,1.6-.72,1.6-1.6v-4c0-.88-.72-1.6-1.6-1.6h-4c-.88,0-1.6.72-1.6,1.6v4c0,.88.72,1.6,1.6,1.6h4ZM166.17,521.88v-4c0-.22.18-.4.4-.4h4c.22,0,.4.18.4.4v4c0,.22-.18.4-.4.4h-4c-.22,0-.4-.18-.4-.4Z"/>
      <path class="cls-8" d="M175.58,518.88h28.03c.55,0,1,.45,1,1v1c0,.55-.45,1-1,1h-28.03c-.55,0-1-.45-1-1v-1c0-.55.45-1,1-1Z"/>
      <path class="cls-8" d="M166.58,550.87h40.04c.55,0,1,.45,1,1v1c0,.55-.45,1-1,1h-40.04c-.55,0-1-.45-1-1v-1c0-.55.45-1,1-1Z"/>
      <path class="cls-8" d="M108.52,560.52h-4c-.88,0-1.6.72-1.6,1.6v4c0,.88.72,1.6,1.6,1.6h4c.88,0,1.6-.72,1.6-1.6v-4c0-.88-.72-1.6-1.6-1.6ZM108.92,566.11c0,.22-.18.4-.4.4h-4c-.22,0-.4-.18-.4-.4v-4c0-.22.18-.4.4-.4h4c.22,0,.4.18.4.4v4Z"/>
      <rect class="cls-8" x="113.52" y="562.62" width="42.04" height="3" rx="1" ry="1"/>
      <path class="cls-8" d="M154.56,570.26h-39.04c-1.43,0-2.6,1.17-2.6,2.6v30.99c0,1.43,1.17,2.6,2.6,2.6h39.04c1.43,0,2.6-1.17,2.6-2.6v-30.99c0-1.43-1.17-2.6-2.6-2.6ZM155.97,603.85c0,.77-.63,1.4-1.4,1.4h-39.04c-.77,0-1.4-.63-1.4-1.4v-30.99c0-.77.63-1.4,1.4-1.4h39.04c.77,0,1.4.63,1.4,1.4v30.99Z"/>
      <path class="cls-8" d="M119.53,578.46c.88,0,1.6-.72,1.6-1.6v-3c0-.88-.72-1.6-1.6-1.6h-3c-.88,0-1.6.72-1.6,1.6v3c0,.88.72,1.6,1.6,1.6h3ZM116.13,576.86v-3c0-.22.18-.4.4-.4h3c.22,0,.4.18.4.4v3c0,.22-.18.4-.4.4h-3c-.22,0-.4-.18-.4-.4Z"/>
      <path class="cls-8" d="M116.53,600.85h36.04c.55,0,1,.45,1,1v1c0,.55-.45,1-1,1h-36.04c-.55,0-1-.45-1-1v-1c0-.55.45-1,1-1Z"/>
      <path class="cls-8" d="M200.61,570.26h-39.04c-1.43,0-2.6,1.17-2.6,2.6v30.99c0,1.43,1.17,2.6,2.6,2.6h39.04c1.43,0,2.6-1.17,2.6-2.6v-30.99c0-1.43-1.17-2.6-2.6-2.6ZM202.01,603.85c0,.77-.63,1.4-1.4,1.4h-39.04c-.77,0-1.4-.63-1.4-1.4v-30.99c0-.77.63-1.4,1.4-1.4h39.04c.77,0,1.4.63,1.4,1.4v30.99Z"/>
      <path class="cls-8" d="M165.57,578.46c.88,0,1.6-.72,1.6-1.6v-3c0-.88-.72-1.6-1.6-1.6h-3c-.88,0-1.6.72-1.6,1.6v3c0,.88.72,1.6,1.6,1.6h3ZM162.17,576.86v-3c0-.22.18-.4.4-.4h3c.22,0,.4.18.4.4v3c0,.22-.18.4-.4.4h-3c-.22,0-.4-.18-.4-.4Z"/>
      <path class="cls-8" d="M162.57,600.85h36.04c.55,0,1,.45,1,1v1c0,.55-.45,1-1,1h-36.04c-.55,0-1-.45-1-1v-1c0-.55.45-1,1-1Z"/>
      <path class="cls-8" d="M246.65,570.26h-39.04c-1.43,0-2.6,1.17-2.6,2.6v30.99c0,1.43,1.17,2.6,2.6,2.6h39.04c1.43,0,2.6-1.17,2.6-2.6v-30.99c0-1.43-1.17-2.6-2.6-2.6ZM248.05,603.85c0,.77-.63,1.4-1.4,1.4h-39.04c-.77,0-1.4-.63-1.4-1.4v-30.99c0-.77.63-1.4,1.4-1.4h39.04c.77,0,1.4.63,1.4,1.4v30.99Z"/>
      <path class="cls-8" d="M211.62,578.46c.88,0,1.6-.72,1.6-1.6v-3c0-.88-.72-1.6-1.6-1.6h-3c-.88,0-1.6.72-1.6,1.6v3c0,.88.72,1.6,1.6,1.6h3ZM208.22,576.86v-3c0-.22.18-.4.4-.4h3c.22,0,.4.18.4.4v3c0,.22-.18.4-.4.4h-3c-.22,0-.4-.18-.4-.4Z"/>
      <path class="cls-8" d="M223.63,593.86h8.01c3.32,0,6.01-2.69,6.01-6s-2.69-6-6.01-6h-8.01c-3.32,0-6.01,2.69-6.01,6s2.69,6,6.01,6Z"/>
      <path class="cls-8" d="M178.7,593.86h8.01c3.32,0,6.01-2.69,6.01-6s-2.69-6-6.01-6h-8.01c-3.32,0-6.01,2.69-6.01,6s2.69,6,6.01,6Z"/>
      <path class="cls-8" d="M130.54,593.86h8.01c3.32,0,6.01-2.69,6.01-6s-2.69-6-6.01-6h-8.01c-3.32,0-6.01,2.69-6.01,6s2.69,6,6.01,6Z"/>
      <path class="cls-8" d="M130.54,541.47h8.01c3.32,0,6.01-2.69,6.01-6s-2.69-6-6.01-6h-8.01c-3.32,0-6.01,2.69-6.01,6s2.69,6,6.01,6Z"/>
      <path class="cls-8" d="M181.63,529.48c-3.32,0-6.01,2.69-6.01,6s2.69,6,6.01,6h8.01c3.32,0,6.01-2.69,6.01-6s-2.69-6-6.01-6h-8.01Z"/>
      <path class="cls-8" d="M268.67,593.86h8.01c3.32,0,6.01-2.69,6.01-6s-2.69-6-6.01-6h-8.01c-3.32,0-6.01,2.69-6.01,6s2.69,6,6.01,6Z"/>
      <path class="cls-8" d="M208.61,600.85h36.04c.55,0,1,.45,1,1v1c0,.55-.45,1-1,1h-36.04c-.55,0-1-.45-1-1v-1c0-.55.45-1,1-1Z"/>
      <path class="cls-8" d="M292.7,570.26h-39.04c-1.43,0-2.6,1.17-2.6,2.6v30.99c0,1.43,1.17,2.6,2.6,2.6h39.04c1.43,0,2.6-1.17,2.6-2.6v-30.99c0-1.43-1.17-2.6-2.6-2.6ZM294.1,603.85c0,.77-.63,1.4-1.4,1.4h-39.04c-.77,0-1.4-.63-1.4-1.4v-30.99c0-.77.63-1.4,1.4-1.4h39.04c.77,0,1.4.63,1.4,1.4v30.99Z"/>
      <path class="cls-8" d="M257.66,578.46c.88,0,1.6-.72,1.6-1.6v-3c0-.88-.72-1.6-1.6-1.6h-3c-.88,0-1.6.72-1.6,1.6v3c0,.88.72,1.6,1.6,1.6h3ZM254.26,576.86v-3c0-.22.18-.4.4-.4h3c.22,0,.4.18.4.4v3c0,.22-.18.4-.4.4h-3c-.22,0-.4-.18-.4-.4Z"/>
      <path class="cls-8" d="M254.66,600.85h36.04c.55,0,1,.45,1,1v1c0,.55-.45,1-1,1h-36.04c-.55,0-1-.45-1-1v-1c0-.55.45-1,1-1Z"/>
    </g>
  </g>
  <g>
    <g>
      <path class="cls-8" d="M380.67,357.33c-2.03-2.03-5.32-2.03-7.34,0-2.03,2.03-2.03,5.31,0,7.33s5.32,2.03,7.34,0c2.03-2.03,2.03-5.31,0-7.33ZM379.81,363.81c-1.55,1.55-4.07,1.55-5.62,0s-1.55-4.07,0-5.62c1.55-1.55,4.07-1.55,5.62,0,1.55,1.55,1.55,4.07,0,5.62Z"/>
      <path class="cls-8" d="M379,359c-1.11-1.1-2.9-1.1-4,0s-1.11,2.89,0,4c1.11,1.1,2.9,1.1,4,0s1.11-2.89,0-4ZM378.37,362.37c-.76.76-1.99.76-2.75,0-.76-.76-.76-1.98,0-2.74.76-.76,1.99-.76,2.75,0,.76.76.76,1.98,0,2.74Z"/>
    </g>
    <g>
      <g>
        <path class="cls-8" d="M382.97,352.11c-.37-1.13-1.03-2.16-1.89-2.98-.16.31-.49.48-.73.73,0,0-.22.23-.23.55,0,.12-.16.16-.22.06-.21-.31-.39-.75-.23-1.24.17-.54.05-1.13-.29-1.57-.66-.86-1.62-2.17-2.17-3.14-.05-.1-.2-.06-.2.05,0-.11-.15-.15-.2-.05-.54.98-1.5,2.28-2.17,3.14-.34.45-.47,1.04-.29,1.57.15.49-.03.93-.23,1.24-.07.1-.22.05-.22-.06-.01-.32-.23-.55-.23-.55-.24-.25-.57-.42-.73-.73-.87.82-1.52,1.85-1.89,2.98-.16.49-.27,1.02-.21,1.53.09.8.6,1.54,1.32,1.91.72.37,1.62.34,2.32-.05.49-.28.88-.74,1-1.28.12-.54-.06-1.16-.5-1.5-.24-.18-.56-.28-.84-.19-.28.09-.5.41-.42.69s.5.44.71.22c0,0,0,.88-.74.88s-2.07-1.72.07-2.87c0,0,1.23-.39,1.93.81,0,0,.1-1.4,1.33-2.07,1.23.67,1.33,2.07,1.33,2.07.7-1.19,1.93-.81,1.93-.81,2.14,1.16.81,2.87.07,2.87s-.74-.88-.74-.88c.21.21.63.06.71-.22.08-.29-.13-.6-.42-.69-.28-.09-.6,0-.84.19-.44.34-.63.96-.5,1.5.12.54.51,1.01,1,1.28.7.4,1.6.42,2.32.05.72-.37,1.23-1.11,1.32-1.91.06-.52-.05-1.04-.21-1.53Z"/>
        <path class="cls-8" d="M377.84,355.02s.54-1.57-.8-2.62h-.09c-1.34,1.05-.8,2.62-.8,2.62h1.69Z"/>
      </g>
      <g>
        <path class="cls-8" d="M382.97,369.89c-.37,1.13-1.03,2.16-1.89,2.98-.16-.31-.49-.48-.73-.73,0,0-.22-.23-.23-.55,0-.12-.16-.16-.22-.06-.21.31-.39.75-.23,1.24.17.54.05,1.13-.29,1.57-.66.86-1.62,2.17-2.17,3.14-.05.1-.2.06-.2-.05,0,.11-.15.15-.2.05-.54-.98-1.5-2.28-2.17-3.14-.34-.45-.47-1.04-.29-1.57.15-.49-.03-.93-.23-1.24-.07-.1-.22-.05-.22.06-.01.32-.23.55-.23.55-.24.25-.57.42-.73.73-.87-.82-1.52-1.85-1.89-2.98-.16-.49-.27-1.02-.21-1.53.09-.8.6-1.54,1.32-1.91.72-.37,1.62-.34,2.32.05.49.28.88.74,1,1.28.12.54-.06,1.16-.5,1.5-.24.18-.56.28-.84.19s-.5-.41-.42-.69.5-.44.71-.22c0,0,0-.88-.74-.88s-2.07,1.72.07,2.87c0,0,1.23.39,1.93-.81,0,0,.1,1.4,1.33,2.07,1.23-.67,1.33-2.07,1.33-2.07.7,1.19,1.93.81,1.93.81,2.14-1.16.81-2.87.07-2.87s-.74.88-.74.88c.21-.21.63-.06.71.22.08.29-.13.6-.42.69s-.6,0-.84-.19c-.44-.34-.63-.96-.5-1.5.12-.54.51-1.01,1-1.28.7-.4,1.6-.42,2.32-.05.72.37,1.23,1.11,1.32,1.91.06.52-.05,1.04-.21,1.53Z"/>
        <path class="cls-8" d="M377.84,366.98s.54,1.57-.8,2.62h-.09c-1.34-1.05-.8-2.62-.8-2.62h1.69Z"/>
      </g>
    </g>
    <g>
      <g>
        <path class="cls-8" d="M368.1,355.04c-1.13.37-2.17,1.03-2.98,1.89.31.16.48.49.73.73,0,0,.23.22.55.23.12,0,.16.16.06.22-.31.21-.75.39-1.24.23-.54-.17-1.13-.05-1.58.29-.86.66-2.17,1.62-3.15,2.16-.1.05-.06.2.05.2-.11,0-.15.15-.05.2.98.54,2.28,1.5,3.15,2.16.45.34,1.04.46,1.58.29.49-.15.93.03,1.24.23.1.07.05.22-.06.22-.32.01-.55.23-.55.23-.25.24-.42.57-.73.73.82.86,1.85,1.52,2.98,1.89.49.16,1.02.27,1.54.21.8-.09,1.54-.6,1.91-1.32.37-.72.35-1.62-.05-2.32-.28-.48-.74-.88-1.28-1-.55-.12-1.16.06-1.5.5-.18.24-.28.56-.19.84.09.28.41.5.69.42.29-.08.44-.49.23-.71,0,0,.88,0,.88.74s-1.72,2.07-2.88-.07c0,0-.39-1.23.81-1.93,0,0-1.4-.1-2.07-1.33.67-1.23,2.07-1.33,2.07-1.33-1.19-.7-.81-1.93-.81-1.93,1.16-2.14,2.88-.81,2.88-.07s-.88.74-.88.74c.21-.21.06-.63-.23-.71-.29-.08-.6.13-.69.42-.09.28,0,.6.19.84.34.44.96.62,1.5.5.54-.12,1.01-.51,1.28-1,.4-.7.42-1.6.05-2.32-.37-.72-1.11-1.23-1.91-1.32-.52-.06-1.04.05-1.54.21Z"/>
        <path class="cls-8" d="M371.01,360.16s-1.57-.54-2.62.8v.09c1.05,1.33,2.62.8,2.62.8v-1.68Z"/>
      </g>
      <g>
        <path class="cls-8" d="M385.9,366.96c1.13-.37,2.17-1.03,2.98-1.89-.31-.16-.48-.49-.73-.73,0,0-.23-.22-.55-.23-.12,0-.16-.16-.06-.22.31-.21.75-.39,1.24-.23.54.17,1.13.05,1.58-.29.86-.66,2.17-1.62,3.15-2.16.1-.05.06-.2-.05-.2.11,0,.15-.15.05-.2-.98-.54-2.28-1.5-3.15-2.16-.45-.34-1.04-.46-1.58-.29-.49.15-.93-.03-1.24-.23-.1-.07-.05-.22.06-.22.32-.01.55-.23.55-.23.25-.24.42-.57.73-.73-.82-.86-1.85-1.52-2.98-1.89-.49-.16-1.02-.27-1.54-.21-.8.09-1.54.6-1.91,1.32-.37.72-.35,1.62.05,2.32.28.48.74.88,1.28,1,.54.12,1.16-.06,1.5-.5.18-.24.28-.56.19-.84s-.41-.5-.69-.42-.44.49-.23.71c0,0-.88,0-.88-.74s1.72-2.07,2.88.07c0,0,.39,1.23-.81,1.93,0,0,1.4.1,2.07,1.33-.67,1.23-2.07,1.33-2.07,1.33,1.19.7.81,1.93.81,1.93-1.16,2.14-2.88.81-2.88.07s.88-.74.88-.74c-.21.21-.06.63.23.71.29.08.6-.13.69-.42s0-.6-.19-.84c-.34-.44-.96-.62-1.5-.5-.55.12-1.01.51-1.28,1-.4.7-.42,1.6-.05,2.32.37.72,1.11,1.23,1.91,1.32.52.06,1.04-.05,1.54-.21Z"/>
        <path class="cls-8" d="M382.99,361.84s1.57.54,2.62-.8v-.09c-1.05-1.33-2.62-.8-2.62-.8v1.68Z"/>
      </g>
    </g>
  </g>
</svg>