<?xml version="1.0" encoding="UTF-8"?>
<svg id="Layer_1" data-name="Layer 1" xmlns="http://www.w3.org/2000/svg" viewBox="0 0 754 722">
  <defs>
    <style>
      .cls-1 {
        stroke: #1d1b15;
      }

      .cls-1, .cls-2, .cls-3, .cls-4, .cls-5 {
        fill: none;
      }

      .cls-6 {
        fill: #070604;
      }

      .cls-2 {
        stroke: #474237;
      }

      .cls-3 {
        stroke: #2f2b23;
      }

      .cls-7 {
        fill: #13110d;
      }

      .cls-4 {
        stroke: #6d6659;
        stroke-linecap: round;
        stroke-width: 1.6px;
      }

      .cls-8 {
        fill: #0c0b08;
      }

      .cls-9 {
        fill: #1d1b15;
      }

      .cls-10 {
        fill: #6d6659;
      }

      .cls-11 {
        fill: #000000;
      }

      .cls-12 {
        fill: #d9d9d9;
      }

      .cls-13 {
        fill: #eeece7;
      }

      .cls-14 {
        fill: #bab5aa;
      }

      .cls-15 {
        fill: #948e7f;
      }

      .cls-16 {
        fill: #2f2b23;
      }

      .cls-17 {
        fill: #474237;
      }

      .cls-18 {
        fill: rgba(238, 236, 231, .16);
      }

      .cls-5 {
        stroke: #000000;
        stroke-width: 1.5px;
      }

      .cls-19 {
        fill: #0f152d;
      }

      .cls-20 {
        fill: #dad7cf;
      }

      .cls-21 {
        fill: rgba(0, 0, 0, .75);
      }

      .cls-22 {
        fill: rgba(0, 0, 0, .88);
      }
    </style>
  </defs>
  <g>
    <path class="cls-19" d="M33.25,7.09h687.5c14.44,0,26.16,11.72,26.16,26.16v655.5c0,14.44-11.72,26.16-26.16,26.16H33.25c-14.44,0-26.16-11.72-26.16-26.16V33.25c0-14.44,11.72-26.16,26.16-26.16Z"/>
    <path class="cls-12" d="M720.75,14.17c10.52,0,19.08,8.56,19.08,19.08v655.5c0,10.52-8.56,19.08-19.08,19.08H33.25c-10.52,0-19.08-8.56-19.08-19.08V33.25c0-10.52,8.56-19.08,19.08-19.08h687.5M720.75,0H33.25C14.89,0,0,14.89,0,33.25v655.5C0,707.11,14.89,722,33.25,722h687.5c18.36,0,33.25-14.89,33.25-33.25V33.25C754,14.89,739.11,0,720.75,0h0Z"/>
  </g>
  <g>
    <rect class="cls-11" x="73.98" y="150.78" width="606.04" height="382.18" rx="5.82" ry="5.82"/>
    <rect class="cls-13" x="82.72" y="159.99" width="55.36" height="8.73" rx="2.18" ry="2.18"/>
    <rect class="cls-13" x="140.99" y="159.99" width="2.91" height="2.91" rx=".73" ry=".73"/>
    <rect class="cls-6" x="73.98" y="176" width="85.47" height="356.96" rx="5.16" ry="5.16"/>
    <line class="cls-1" x1="159.45" y1="176" x2="159.45" y2="532.95"/>
    <rect class="cls-8" x="77.87" y="179.88" width="10.68" height="10.67" rx="2.43" ry="2.43"/>
    <path class="cls-17" d="M80.29,182.79h5.83c.27,0,.49.22.49.48h0c0,.27-.22.48-.49.48h-5.83c-.27,0-.49-.22-.49-.48h0c0-.27.22-.48.49-.48Z"/>
    <path class="cls-17" d="M80.29,184.73h5.83c.27,0,.49.22.49.48h0c0,.27-.22.48-.49.48h-5.83c-.27,0-.49-.22-.49-.48h0c0-.27.22-.48.49-.48Z"/>
    <path class="cls-17" d="M80.29,186.67h3.88c.27,0,.49.22.49.48h0c0,.27-.22.48-.49.48h-3.88c-.27,0-.49-.22-.49-.48h0c0-.27.22-.48.49-.48Z"/>
    <line class="cls-1" x1="77.87" y1="194.43" x2="155.56" y2="194.43"/>
    <rect class="cls-10" x="79.81" y="198.31" width="14.57" height="2.91" rx=".49" ry=".49"/>
    <rect class="cls-8" x="77.87" y="204.13" width="77.7" height="13.58" rx="2.91" ry="2.91"/>
    <rect class="cls-17" x="80.78" y="207.52" width="6.8" height="6.79" rx="1.46" ry="1.46"/>
    <rect class="cls-20" x="90.49" y="209.46" width="22.34" height="2.91" rx=".49" ry=".49"/>
    <rect class="cls-8" x="77.87" y="219.65" width="77.7" height="13.58" rx="2.91" ry="2.91"/>
    <rect class="cls-17" x="80.78" y="223.04" width="6.8" height="6.79" rx="1.46" ry="1.46"/>
    <rect class="cls-14" x="90.49" y="224.98" width="28.17" height="2.91" rx=".49" ry=".49"/>
    <rect class="cls-8" x="77.87" y="235.17" width="77.7" height="13.58" rx="2.91" ry="2.91"/>
    <rect class="cls-17" x="80.78" y="238.56" width="6.8" height="6.79" rx="1.46" ry="1.46"/>
    <rect class="cls-14" x="90.49" y="240.5" width="34.96" height="2.91" rx=".49" ry=".49"/>
    <rect class="cls-8" x="77.87" y="250.69" width="77.7" height="13.58" rx="2.91" ry="2.91"/>
    <rect class="cls-17" x="80.78" y="254.08" width="6.8" height="6.79" rx="1.46" ry="1.46"/>
    <rect class="cls-14" x="90.49" y="256.02" width="31.08" height="2.91" rx=".49" ry=".49"/>
    <path class="cls-15" d="M147.31,278.33h2.91c1.88,0,3.4,1.52,3.4,3.39h0c0,1.87-1.52,3.39-3.4,3.39h-2.91c-1.88,0-3.4-1.52-3.4-3.39h0c0-1.87,1.52-3.39,3.4-3.39Z"/>
    <rect class="cls-8" x="145.85" y="280.27" width="5.83" height="2.91" rx=".49" ry=".49"/>
    <line class="cls-1" x1="77.87" y1="270.09" x2="155.56" y2="270.09"/>
    <rect class="cls-8" x="77.87" y="273.97" width="77.7" height="13.58" rx="2.91" ry="2.91"/>
    <rect class="cls-17" x="80.78" y="277.36" width="6.8" height="6.79" rx="1.46" ry="1.46"/>
    <rect class="cls-14" x="90.49" y="279.3" width="27.19" height="2.91" rx=".49" ry=".49"/>
    <rect class="cls-8" x="77.87" y="289.49" width="77.7" height="13.58" rx="2.91" ry="2.91"/>
    <rect class="cls-17" x="80.78" y="292.88" width="6.8" height="6.79" rx="1.46" ry="1.46"/>
    <rect class="cls-14" x="90.49" y="294.82" width="38.85" height="2.91" rx=".49" ry=".49"/>
    <rect class="cls-8" x="77.87" y="305.01" width="77.7" height="13.58" rx="2.91" ry="2.91"/>
    <rect class="cls-17" x="80.78" y="308.4" width="6.8" height="6.79" rx="1.46" ry="1.46"/>
    <rect class="cls-14" x="90.49" y="310.34" width="22.34" height="2.91" rx=".49" ry=".49"/>
    <line class="cls-1" x1="77.87" y1="324.41" x2="155.56" y2="324.41"/>
    <rect class="cls-8" x="77.87" y="328.29" width="77.7" height="11.64" rx="2.91" ry="2.91"/>
    <rect class="cls-15" x="80.78" y="332.17" width="36.91" height="2.91" rx=".49" ry=".49"/>
    <polygon class="cls-17" points="150.71 356.42 152.65 359.33 148.76 359.33 150.71 356.42"/>
    <rect class="cls-7" x="77.87" y="341.87" width="77.7" height="13.58" rx="2.91" ry="2.91"/>
    <rect class="cls-20" x="77.87" y="344.29" width="1.46" height="8.73" rx=".49" ry=".49"/>
    <rect class="cls-17" x="80.78" y="345.26" width="6.8" height="6.79" rx="1.46" ry="1.46"/>
    <rect class="cls-13" x="90.49" y="347.2" width="32.05" height="2.91" rx=".49" ry=".49"/>
    <rect class="cls-8" x="77.87" y="357.39" width="77.7" height="13.58" rx="2.91" ry="2.91"/>
    <rect class="cls-17" x="80.78" y="360.78" width="6.8" height="6.79" rx="1.46" ry="1.46"/>
    <rect class="cls-14" x="90.49" y="362.72" width="27.19" height="2.91" rx=".49" ry=".49"/>
    <rect class="cls-8" x="77.87" y="372.91" width="77.7" height="13.58" rx="2.91" ry="2.91"/>
    <rect class="cls-17" x="80.78" y="376.3" width="6.8" height="6.79" rx="1.46" ry="1.46"/>
    <rect class="cls-14" x="90.49" y="378.24" width="23.31" height="2.91" rx=".49" ry=".49"/>
    <line class="cls-1" x1="77.87" y1="392.31" x2="155.56" y2="392.31"/>
    <rect class="cls-8" x="77.87" y="396.19" width="77.7" height="11.64" rx="2.91" ry="2.91"/>
    <rect class="cls-15" x="80.78" y="400.06" width="23.31" height="2.91" rx=".49" ry=".49"/>
    <polygon class="cls-17" points="150.71 424.31 152.65 427.22 148.76 427.22 150.71 424.31"/>
    <rect class="cls-8" x="77.87" y="409.76" width="77.7" height="13.58" rx="2.91" ry="2.91"/>
    <rect class="cls-17" x="80.78" y="413.16" width="6.8" height="6.79" rx="1.46" ry="1.46"/>
    <rect class="cls-14" x="90.49" y="415.1" width="17.48" height="2.91" rx=".49" ry=".49"/>
    <rect class="cls-8" x="77.87" y="425.28" width="77.7" height="13.58" rx="2.91" ry="2.91"/>
    <rect class="cls-17" x="80.78" y="428.68" width="6.8" height="6.79" rx="1.46" ry="1.46"/>
    <rect class="cls-14" x="90.49" y="430.62" width="24.28" height="2.91" rx=".49" ry=".49"/>
    <line class="cls-1" x1="77.87" y1="444.68" x2="155.56" y2="444.68"/>
    <rect class="cls-8" x="77.87" y="448.56" width="77.7" height="11.64" rx="2.91" ry="2.91"/>
    <rect class="cls-15" x="80.78" y="452.44" width="45.65" height="2.91" rx=".49" ry=".49"/>
    <polygon class="cls-17" points="150.71 476.69 152.65 479.6 148.76 479.6 150.71 476.69"/>
    <rect class="cls-8" x="77.87" y="462.14" width="77.7" height="13.58" rx="2.91" ry="2.91"/>
    <rect class="cls-17" x="80.78" y="465.54" width="6.8" height="6.79" rx="1.46" ry="1.46"/>
    <rect class="cls-14" x="90.49" y="467.48" width="28.17" height="2.91" rx=".49" ry=".49"/>
    <rect class="cls-8" x="77.87" y="477.66" width="77.7" height="13.58" rx="2.91" ry="2.91"/>
    <rect class="cls-17" x="80.78" y="481.06" width="6.8" height="6.79" rx="1.46" ry="1.46"/>
    <rect class="cls-14" x="90.49" y="483" width="34.96" height="2.91" rx=".49" ry=".49"/>
    <rect class="cls-11" x="159.45" y="176" width="520.57" height="23.28"/>
    <line class="cls-1" x1="159.45" y1="199.28" x2="680.02" y2="199.28"/>
    <rect class="cls-8" x="165.28" y="181.82" width="13.6" height="11.64" rx="2.91" ry="2.91"/>
    <polygon class="cls-10" points="171.59 184.73 169.16 187.64 171.59 190.55 171.59 184.73"/>
    <rect class="cls-11" x="182.76" y="181.82" width="241.83" height="11.64" rx="2.91" ry="2.91"/>
    <rect class="cls-3" x="182.76" y="181.82" width="241.83" height="11.64" rx="2.91" ry="2.91"/>
    <rect class="cls-16" x="187.61" y="184.73" width="5.83" height="5.82" rx="1.94" ry="1.94"/>
    <rect class="cls-16" x="196.35" y="186.67" width="43.7" height="2.42" rx=".49" ry=".49"/>
    <rect class="cls-8" x="428.47" y="181.82" width="25.25" height="11.64" rx="2.91" ry="2.91"/>
    <rect class="cls-20" x="429.45" y="182.79" width="10.68" height="9.7" rx="2.43" ry="2.43"/>
    <path class="cls-21" d="M432.84,185.7h3.88c.27,0,.49.22.49.48h0c0,.27-.22.48-.49.48h-3.88c-.27,0-.49-.22-.49-.48h0c0-.27.22-.48.49-.48Z"/>
    <path class="cls-21" d="M432.84,187.64h3.88c.27,0,.49.22.49.48h0c0,.27-.22.48-.49.48h-3.88c-.27,0-.49-.22-.49-.48h0c0-.27.22-.48.49-.48Z"/>
    <path class="cls-21" d="M432.84,189.58h3.88c.27,0,.49.22.49.48h0c0,.27-.22.48-.49.48h-3.88c-.27,0-.49-.22-.49-.48h0c0-.27.22-.48.49-.48Z"/>
    <rect class="cls-10" x="441.59" y="185.21" width="1.94" height="1.94" rx=".49" ry=".49"/>
    <rect class="cls-10" x="444.5" y="185.21" width="1.94" height="1.94" rx=".49" ry=".49"/>
    <rect class="cls-10" x="441.59" y="188.12" width="1.94" height="1.94" rx=".49" ry=".49"/>
    <rect class="cls-10" x="444.5" y="188.12" width="1.94" height="1.94" rx=".49" ry=".49"/>
    <rect class="cls-10" x="441.59" y="191.03" width="1.94" height="1.94" rx=".49" ry=".49"/>
    <rect class="cls-10" x="444.5" y="191.03" width="1.94" height="1.94" rx=".49" ry=".49"/>
    <rect class="cls-20" x="457.61" y="181.82" width="63.13" height="11.64" rx="2.91" ry="2.91"/>
    <rect class="cls-22" x="464.41" y="185.7" width="49.53" height="3.88" rx=".97" ry=".97"/>
    <rect class="cls-11" x="159.45" y="199.28" width="520.57" height="15.52"/>
    <line class="cls-1" x1="159.45" y1="214.8" x2="680.02" y2="214.8"/>
    <rect class="cls-10" x="165.28" y="205.1" width="25.25" height="3.39" rx=".97" ry=".97"/>
    <path class="cls-16" d="M192.95,206.55h.97c.27,0,.49.11.49.24h0c0,.13-.22.24-.49.24h-.97c-.27,0-.49-.11-.49-.24h0c0-.13.22-.24.49-.24Z"/>
    <rect class="cls-13" x="196.35" y="205.1" width="37.88" height="3.39" rx=".97" ry=".97"/>
    <rect class="cls-11" x="159.45" y="214.8" width="520.57" height="29.1"/>
    <line class="cls-1" x1="159.45" y1="243.9" x2="680.02" y2="243.9"/>
    <rect class="cls-13" x="165.28" y="222.56" width="63.13" height="6.79" rx=".97" ry=".97"/>
    <rect class="cls-10" x="165.28" y="232.26" width="140.83" height="3.88" rx=".97" ry=".97"/>
    <rect class="cls-11" x="159.45" y="243.9" width="520.57" height="23.28"/>
    <line class="cls-1" x1="159.45" y1="267.18" x2="680.02" y2="267.18"/>
    <rect class="cls-8" x="165.28" y="249.72" width="42.73" height="12.61" rx="2.91" ry="2.91"/>
    <path class="cls-15" d="M170.62,253.6h3.4c.27,0,.49.22.49.48h0c0,.27-.22.48-.49.48h-3.4c-.27,0-.49-.22-.49-.48h0c0-.27.22-.48.49-.48Z"/>
    <path class="cls-15" d="M170.62,255.54h2.43c.27,0,.49.22.49.48h0c0,.27-.22.48-.49.48h-2.43c-.27,0-.49-.22-.49-.48h0c0-.27.22-.48.49-.48Z"/>
    <path class="cls-15" d="M170.62,257.48h3.4c.27,0,.49.22.49.48h0c0,.27-.22.48-.49.48h-3.4c-.27,0-.49-.22-.49-.48h0c0-.27.22-.48.49-.48Z"/>
    <rect class="cls-15" x="176.44" y="253.6" width="23.31" height="3.88" rx=".49" ry=".49"/>
    <rect class="cls-8" x="210.92" y="249.72" width="33.02" height="12.61" rx="2.91" ry="2.91"/>
    <rect class="cls-15" x="216.75" y="253.6" width="21.37" height="3.88" rx=".49" ry=".49"/>
    <rect class="cls-8" x="482.86" y="251.66" width="37.88" height="8.73" rx="2.43" ry="2.43"/>
    <rect class="cls-10" x="486.75" y="254.57" width="28.17" height="2.91" rx=".49" ry=".49"/>
    <polygon class="cls-17" points="517.83 253.6 519.77 256.51 515.88 256.51 517.83 253.6"/>
    <rect class="cls-8" x="523.65" y="249.72" width="12.63" height="12.61" rx="2.91" ry="2.91"/>
    <polygon class="cls-10" points="529.97 252.63 527.05 256.02 529.97 259.42 529.97 252.63"/>
    <rect class="cls-20" x="538.22" y="249.72" width="12.63" height="12.61" rx="2.91" ry="2.91"/>
    <rect class="cls-11" x="541.14" y="253.6" width="6.8" height="4.85" rx=".97" ry=".97"/>
    <rect class="cls-8" x="552.79" y="249.72" width="12.63" height="12.61" rx="2.91" ry="2.91"/>
    <rect class="cls-14" x="555.7" y="253.6" width="6.8" height="4.85" rx=".97" ry=".97"/>
    <rect class="cls-8" x="567.36" y="249.72" width="12.63" height="12.61" rx="2.91" ry="2.91"/>
    <rect class="cls-14" x="570.27" y="253.6" width="6.8" height="4.85" rx=".97" ry=".97"/>
    <rect class="cls-8" x="581.93" y="249.72" width="12.63" height="12.61" rx="2.91" ry="2.91"/>
    <polygon class="cls-10" points="588.24 252.63 591.15 256.02 588.24 259.42 588.24 252.63"/>
    <rect class="cls-10" x="598.44" y="254.57" width="23.31" height="2.91" rx=".49" ry=".49"/>
    <rect class="cls-8" x="159.45" y="267.18" width="520.57" height="18.43"/>
    <line class="cls-1" x1="159.45" y1="267.18" x2="680.02" y2="267.18"/>
    <line class="cls-1" x1="159.45" y1="285.61" x2="680.02" y2="285.61"/>
    <rect class="cls-2" x="166.25" y="273" width="6.8" height="6.79" rx="1.46" ry="1.46"/>
    <rect class="cls-14" x="178.87" y="273.48" width="14.57" height="3.39" rx=".49" ry=".49"/>
    <rect class="cls-14" x="219.66" y="273.48" width="12.63" height="3.39" rx=".49" ry=".49"/>
    <rect class="cls-14" x="291.53" y="273.48" width="26.22" height="3.39" rx=".49" ry=".49"/>
    <rect class="cls-14" x="361.46" y="273.48" width="24.28" height="3.39" rx=".49" ry=".49"/>
    <rect class="cls-14" x="416.82" y="273.48" width="19.42" height="3.39" rx=".49" ry=".49"/>
    <rect class="cls-14" x="468.29" y="273.48" width="26.22" height="3.39" rx=".49" ry=".49"/>
    <rect class="cls-14" x="518.8" y="273.48" width="22.34" height="3.39" rx=".49" ry=".49"/>
    <rect class="cls-14" x="573.19" y="273.48" width="24.28" height="3.39" rx=".49" ry=".49"/>
    <rect class="cls-14" x="623.69" y="273.48" width="16.51" height="3.39" rx=".49" ry=".49"/>
    <polygon class="cls-20" points="247.83 273 249.77 276.39 245.89 276.39 247.83 273"/>
    <line class="cls-1" x1="174.99" y1="267.18" x2="174.99" y2="443.71"/>
    <line class="cls-1" x1="212.86" y1="267.18" x2="212.86" y2="443.71"/>
    <line class="cls-1" x1="281.82" y1="267.18" x2="281.82" y2="443.71"/>
    <line class="cls-1" x1="354.66" y1="267.18" x2="354.66" y2="443.71"/>
    <line class="cls-1" x1="410.02" y1="267.18" x2="410.02" y2="443.71"/>
    <line class="cls-1" x1="459.55" y1="267.18" x2="459.55" y2="443.71"/>
    <line class="cls-1" x1="511.03" y1="267.18" x2="511.03" y2="443.71"/>
    <line class="cls-1" x1="561.53" y1="267.18" x2="561.53" y2="443.71"/>
    <line class="cls-1" x1="615.92" y1="267.18" x2="615.92" y2="443.71"/>
    <rect class="cls-7" x="159.45" y="285.61" width="520.57" height="27.16"/>
    <rect class="cls-20" x="159.45" y="288.03" width="1.46" height="22.31" rx=".49" ry=".49"/>
    <line class="cls-1" x1="159.45" y1="312.77" x2="680.02" y2="312.77"/>
    <rect class="cls-20" x="166.25" y="295.79" width="6.8" height="6.79" rx="1.46" ry="1.46"/>
    <polyline class="cls-5" points="167.7 299.19 169.16 300.64 172.07 297.25"/>
    <rect class="cls-13" x="178.87" y="293.85" width="26.22" height="3.39" rx=".97" ry=".97"/>
    <rect class="cls-17" x="178.87" y="299.19" width="21.37" height="2.42" rx=".49" ry=".49"/>
    <rect class="cls-13" x="217.72" y="292.88" width="46.62" height="3.39" rx=".97" ry=".97"/>
    <rect class="cls-10" x="217.72" y="298.22" width="57.3" height="2.42" rx=".49" ry=".49"/>
    <rect class="cls-16" x="217.72" y="302.58" width="39.82" height="1.94" rx=".49" ry=".49"/>
    <rect class="cls-13" x="286.68" y="294.34" width="43.7" height="3.39" rx=".49" ry=".49"/>
    <rect class="cls-15" x="359.52" y="294.34" width="42.73" height="3.39" rx=".49" ry=".49"/>
    <rect class="cls-15" x="414.88" y="294.34" width="34.96" height="3.39" rx=".49" ry=".49"/>
    <rect class="cls-15" x="464.41" y="294.34" width="13.6" height="3.39" rx=".49" ry=".49"/>
    <path class="cls-9" d="M520.74,293.85h16.51c2.68,0,4.86,1.95,4.86,4.36h0c0,2.41-2.17,4.36-4.86,4.36h-16.51c-2.68,0-4.86-1.95-4.86-4.36h0c0-2.41,2.17-4.36,4.86-4.36Z"/>
    <rect class="cls-20" x="520.25" y="296.76" width="17.48" height="2.91" rx=".49" ry=".49"/>
    <rect class="cls-8" x="572.21" y="293.85" width="27.19" height="8.73" rx="1.94" ry="1.94"/>
    <rect class="cls-14" x="576.1" y="296.76" width="19.42" height="2.91" rx=".49" ry=".49"/>
    <rect class="cls-16" x="622.23" y="295.79" width="2.43" height="2.42" rx=".97" ry=".97"/>
    <rect class="cls-16" x="622.23" y="299.67" width="2.43" height="2.42" rx=".97" ry=".97"/>
    <rect class="cls-16" x="622.23" y="303.55" width="2.43" height="2.42" rx=".97" ry=".97"/>
    <rect class="cls-11" x="159.45" y="312.77" width="520.57" height="27.16"/>
    <line class="cls-1" x1="159.45" y1="339.93" x2="680.02" y2="339.93"/>
    <rect class="cls-2" x="166.25" y="322.95" width="6.8" height="6.79" rx="1.46" ry="1.46"/>
    <rect class="cls-13" x="178.87" y="321.01" width="12.63" height="3.39" rx=".97" ry=".97"/>
    <rect class="cls-17" x="178.87" y="326.35" width="21.37" height="2.42" rx=".49" ry=".49"/>
    <rect class="cls-13" x="217.72" y="320.04" width="50.5" height="3.39" rx=".97" ry=".97"/>
    <rect class="cls-10" x="217.72" y="325.38" width="59.24" height="2.42" rx=".49" ry=".49"/>
    <rect class="cls-16" x="217.72" y="329.74" width="35.93" height="1.94" rx=".49" ry=".49"/>
    <rect class="cls-13" x="286.68" y="321.5" width="47.59" height="3.39" rx=".49" ry=".49"/>
    <rect class="cls-15" x="359.52" y="321.5" width="40.79" height="3.39" rx=".49" ry=".49"/>
    <rect class="cls-16" x="414.88" y="321.5" width="18.45" height="3.39" rx=".49" ry=".49"/>
    <rect class="cls-15" x="464.41" y="321.5" width="15.54" height="3.39" rx=".49" ry=".49"/>
    <path class="cls-9" d="M520.74,321.01h16.51c2.68,0,4.86,1.95,4.86,4.36h0c0,2.41-2.17,4.36-4.86,4.36h-16.51c-2.68,0-4.86-1.95-4.86-4.36h0c0-2.41,2.17-4.36,4.86-4.36Z"/>
    <rect class="cls-20" x="520.25" y="323.92" width="17.48" height="2.91" rx=".49" ry=".49"/>
    <rect class="cls-8" x="572.21" y="321.01" width="27.19" height="8.73" rx="1.94" ry="1.94"/>
    <rect class="cls-14" x="576.1" y="323.92" width="19.42" height="2.91" rx=".49" ry=".49"/>
    <rect class="cls-16" x="622.23" y="322.95" width="2.43" height="2.42" rx=".97" ry=".97"/>
    <rect class="cls-16" x="622.23" y="326.83" width="2.43" height="2.42" rx=".97" ry=".97"/>
    <rect class="cls-16" x="622.23" y="330.71" width="2.43" height="2.42" rx=".97" ry=".97"/>
    <rect class="cls-6" x="159.45" y="339.93" width="520.57" height="27.16"/>
    <line class="cls-1" x1="159.45" y1="367.09" x2="680.02" y2="367.09"/>
    <rect class="cls-2" x="166.25" y="350.11" width="6.8" height="6.79" rx="1.46" ry="1.46"/>
    <rect class="cls-13" x="178.87" y="348.17" width="36.91" height="3.39" rx=".97" ry=".97"/>
    <rect class="cls-17" x="178.87" y="353.51" width="21.37" height="2.42" rx=".49" ry=".49"/>
    <rect class="cls-13" x="217.72" y="347.2" width="54.39" height="3.39" rx=".97" ry=".97"/>
    <rect class="cls-10" x="217.72" y="352.54" width="57.3" height="2.42" rx=".49" ry=".49"/>
    <rect class="cls-16" x="217.72" y="356.9" width="41.76" height="1.94" rx=".49" ry=".49"/>
    <rect class="cls-13" x="286.68" y="348.66" width="44.68" height="3.39" rx=".49" ry=".49"/>
    <rect class="cls-15" x="359.52" y="348.66" width="42.73" height="3.39" rx=".49" ry=".49"/>
    <rect class="cls-15" x="414.88" y="348.66" width="36.91" height="3.39" rx=".49" ry=".49"/>
    <rect class="cls-15" x="464.41" y="348.66" width="14.57" height="3.39" rx=".49" ry=".49"/>
    <path class="cls-7" d="M520.74,348.17h11.65c2.68,0,4.86,1.95,4.86,4.36h0c0,2.41-2.17,4.36-4.86,4.36h-11.65c-2.68,0-4.86-1.95-4.86-4.36h0c0-2.41,2.17-4.36,4.86-4.36Z"/>
    <rect class="cls-15" x="519.28" y="351.08" width="14.57" height="2.91" rx=".49" ry=".49"/>
    <rect class="cls-8" x="572.21" y="348.17" width="27.19" height="8.73" rx="1.94" ry="1.94"/>
    <rect class="cls-14" x="576.1" y="351.08" width="19.42" height="2.91" rx=".49" ry=".49"/>
    <rect class="cls-16" x="622.23" y="350.11" width="2.43" height="2.42" rx=".97" ry=".97"/>
    <rect class="cls-16" x="622.23" y="353.99" width="2.43" height="2.42" rx=".97" ry=".97"/>
    <rect class="cls-16" x="622.23" y="357.87" width="2.43" height="2.42" rx=".97" ry=".97"/>
    <rect class="cls-11" x="159.45" y="367.09" width="520.57" height="27.16"/>
    <line class="cls-1" x1="159.45" y1="394.25" x2="680.02" y2="394.25"/>
    <rect class="cls-2" x="166.25" y="377.27" width="6.8" height="6.79" rx="1.46" ry="1.46"/>
    <rect class="cls-13" x="178.87" y="375.33" width="30.11" height="3.39" rx=".97" ry=".97"/>
    <rect class="cls-17" x="178.87" y="380.67" width="21.37" height="2.42" rx=".49" ry=".49"/>
    <rect class="cls-13" x="217.72" y="374.36" width="47.59" height="3.39" rx=".97" ry=".97"/>
    <rect class="cls-10" x="217.72" y="379.7" width="63.13" height="2.42" rx=".49" ry=".49"/>
    <rect class="cls-16" x="217.72" y="384.06" width="43.7" height="1.94" rx=".49" ry=".49"/>
    <rect class="cls-13" x="286.68" y="375.82" width="42.73" height="3.39" rx=".49" ry=".49"/>
    <rect class="cls-15" x="359.52" y="375.82" width="41.76" height="3.39" rx=".49" ry=".49"/>
    <rect class="cls-15" x="414.88" y="375.82" width="36.91" height="3.39" rx=".49" ry=".49"/>
    <rect class="cls-15" x="464.41" y="375.82" width="15.54" height="3.39" rx=".49" ry=".49"/>
    <path class="cls-9" d="M520.74,375.33h16.51c2.68,0,4.86,1.95,4.86,4.36h0c0,2.41-2.17,4.36-4.86,4.36h-16.51c-2.68,0-4.86-1.95-4.86-4.36h0c0-2.41,2.17-4.36,4.86-4.36Z"/>
    <rect class="cls-20" x="520.25" y="378.24" width="17.48" height="2.91" rx=".49" ry=".49"/>
    <rect class="cls-8" x="572.21" y="375.33" width="27.19" height="8.73" rx="1.94" ry="1.94"/>
    <rect class="cls-14" x="576.1" y="378.24" width="19.42" height="2.91" rx=".49" ry=".49"/>
    <rect class="cls-16" x="622.23" y="377.27" width="2.43" height="2.42" rx=".97" ry=".97"/>
    <rect class="cls-16" x="622.23" y="381.15" width="2.43" height="2.42" rx=".97" ry=".97"/>
    <rect class="cls-16" x="622.23" y="385.03" width="2.43" height="2.42" rx=".97" ry=".97"/>
    <rect class="cls-6" x="159.45" y="394.25" width="520.57" height="27.16"/>
    <line class="cls-1" x1="159.45" y1="421.4" x2="680.02" y2="421.4"/>
    <rect class="cls-2" x="166.25" y="404.43" width="6.8" height="6.79" rx="1.46" ry="1.46"/>
    <rect class="cls-13" x="178.87" y="402.49" width="21.37" height="3.39" rx=".97" ry=".97"/>
    <rect class="cls-17" x="178.87" y="407.82" width="21.37" height="2.42" rx=".49" ry=".49"/>
    <rect class="cls-13" x="217.72" y="401.52" width="51.47" height="3.39" rx=".97" ry=".97"/>
    <rect class="cls-10" x="217.72" y="406.85" width="53.42" height="2.42" rx=".49" ry=".49"/>
    <rect class="cls-16" x="217.72" y="411.22" width="36.91" height="1.94" rx=".49" ry=".49"/>
    <rect class="cls-13" x="286.68" y="402.97" width="45.65" height="3.39" rx=".49" ry=".49"/>
    <rect class="cls-15" x="359.52" y="402.97" width="40.79" height="3.39" rx=".49" ry=".49"/>
    <rect class="cls-15" x="414.88" y="402.97" width="35.93" height="3.39" rx=".49" ry=".49"/>
    <rect class="cls-15" x="464.41" y="402.97" width="13.6" height="3.39" rx=".49" ry=".49"/>
    <path class="cls-9" d="M520.74,402.49h16.51c2.68,0,4.86,1.95,4.86,4.36h0c0,2.41-2.17,4.36-4.86,4.36h-16.51c-2.68,0-4.86-1.95-4.86-4.36h0c0-2.41,2.17-4.36,4.86-4.36Z"/>
    <rect class="cls-20" x="520.25" y="405.4" width="17.48" height="2.91" rx=".49" ry=".49"/>
    <rect class="cls-8" x="572.21" y="402.49" width="27.19" height="8.73" rx="1.94" ry="1.94"/>
    <rect class="cls-14" x="576.1" y="405.4" width="19.42" height="2.91" rx=".49" ry=".49"/>
    <rect class="cls-16" x="622.23" y="404.43" width="2.43" height="2.42" rx=".97" ry=".97"/>
    <rect class="cls-16" x="622.23" y="408.31" width="2.43" height="2.42" rx=".97" ry=".97"/>
    <rect class="cls-16" x="622.23" y="412.19" width="2.43" height="2.42" rx=".97" ry=".97"/>
    <rect class="cls-11" x="159.45" y="421.4" width="520.57" height="20.37"/>
    <line class="cls-1" x1="159.45" y1="421.4" x2="680.02" y2="421.4"/>
    <line class="cls-1" x1="159.45" y1="441.77" x2="680.02" y2="441.77"/>
    <rect class="cls-10" x="165.28" y="429.16" width="58.27" height="2.91" rx=".49" ry=".49"/>
    <rect class="cls-8" x="522.68" y="425.28" width="12.63" height="12.61" rx="2.91" ry="2.91"/>
    <polygon class="cls-10" points="529 428.19 526.08 431.59 529 434.98 529 428.19"/>
    <rect class="cls-20" x="537.25" y="425.28" width="12.63" height="12.61" rx="2.91" ry="2.91"/>
    <rect class="cls-11" x="540.16" y="428.68" width="6.8" height="4.85" rx=".97" ry=".97"/>
    <rect class="cls-8" x="551.82" y="425.28" width="12.63" height="12.61" rx="2.91" ry="2.91"/>
    <rect class="cls-14" x="554.73" y="428.68" width="6.8" height="4.85" rx=".97" ry=".97"/>
    <rect class="cls-8" x="566.39" y="425.28" width="12.63" height="12.61" rx="2.91" ry="2.91"/>
    <rect class="cls-14" x="569.3" y="428.68" width="6.8" height="4.85" rx=".97" ry=".97"/>
    <rect class="cls-8" x="580.96" y="425.28" width="12.63" height="12.61" rx="2.91" ry="2.91"/>
    <polygon class="cls-10" points="587.27 428.19 590.18 431.59 587.27 434.98 587.27 428.19"/>
    <rect class="cls-10" x="597.47" y="429.16" width="24.28" height="2.91" rx=".49" ry=".49"/>
    <rect class="cls-8" x="623.69" y="426.25" width="37.88" height="10.67" rx="2.43" ry="2.43"/>
    <rect class="cls-15" x="627.57" y="429.65" width="30.11" height="3.88" rx=".49" ry=".49"/>
    <rect class="cls-6" x="159.45" y="441.77" width="520.57" height="91.18"/>
    <rect class="cls-11" x="159.45" y="523.25" width="520.57" height="9.7"/>
    <rect class="cls-18" x="159.45" y="176" width="271.94" height="356.96"/>
    <rect class="cls-11" x="431.39" y="176" width="248.63" height="356.96"/>
    <line class="cls-1" x1="431.39" y1="176" x2="431.39" y2="532.95"/>
    <rect class="cls-20" x="431.39" y="176" width="248.63" height=".97"/>
    <rect class="cls-6" x="431.39" y="176.97" width="248.63" height="25.22"/>
    <line class="cls-1" x1="431.39" y1="202.19" x2="680.02" y2="202.19"/>
    <rect class="cls-13" x="440.13" y="183.27" width="58.27" height="5.82" rx=".97" ry=".97"/>
    <rect class="cls-10" x="440.13" y="191.52" width="87.41" height="3.39" rx=".49" ry=".49"/>
    <rect class="cls-8" x="658.65" y="180.85" width="12.63" height="12.61" rx="2.91" ry="2.91"/>
    <line class="cls-4" x1="661.57" y1="183.76" x2="668.36" y2="190.55"/>
    <line class="cls-4" x1="668.36" y1="183.76" x2="661.57" y2="190.55"/>
    <rect class="cls-11" x="431.39" y="202.19" width="248.63" height="32.98"/>
    <rect class="cls-13" x="440.13" y="208.01" width="18.45" height="3.88" rx=".49" ry=".49"/>
    <rect class="cls-11" x="440.13" y="214.31" width="231.15" height="15.52" rx="3.88" ry="3.88"/>
    <rect class="cls-3" x="440.13" y="214.31" width="231.15" height="15.52" rx="3.88" ry="3.88"/>
    <rect class="cls-13" x="446.93" y="220.13" width="34.96" height="3.39" rx=".49" ry=".49"/>
    <line class="cls-1" x1="431.39" y1="235.17" x2="680.02" y2="235.17"/>
    <rect class="cls-11" x="431.39" y="235.17" width="248.63" height="32.98"/>
    <rect class="cls-13" x="440.13" y="240.99" width="15.54" height="3.88" rx=".49" ry=".49"/>
    <rect class="cls-11" x="440.13" y="247.29" width="231.15" height="15.52" rx="3.88" ry="3.88"/>
    <rect class="cls-3" x="440.13" y="247.29" width="231.15" height="15.52" rx="3.88" ry="3.88"/>
    <rect class="cls-14" x="446.93" y="253.11" width="63.13" height="3.39" rx=".49" ry=".49"/>
    <line class="cls-1" x1="431.39" y1="268.15" x2="680.02" y2="268.15"/>
    <rect class="cls-11" x="431.39" y="268.15" width="248.63" height="25.22"/>
    <rect class="cls-13" x="440.13" y="274.94" width="26.22" height="3.88" rx=".49" ry=".49"/>
    <path class="cls-20" d="M649.43,272.51h8.74c2.41,0,4.37,1.95,4.37,4.36h0c0,2.41-1.96,4.36-4.37,4.36h-8.74c-2.41,0-4.37-1.95-4.37-4.36h0c0-2.41,1.96-4.36,4.37-4.36Z"/>
    <path class="cls-11" d="M656.22,273.97h0c1.88,0,3.4,1.3,3.4,2.91h0c0,1.61-1.52,2.91-3.4,2.91h0c-1.88,0-3.4-1.3-3.4-2.91h0c0-1.61,1.52-2.91,3.4-2.91Z"/>
    <line class="cls-1" x1="431.39" y1="293.37" x2="680.02" y2="293.37"/>
    <rect class="cls-11" x="431.39" y="293.37" width="248.63" height="32.98"/>
    <rect class="cls-13" x="440.13" y="299.19" width="26.22" height="3.88" rx=".49" ry=".49"/>
    <rect class="cls-11" x="440.13" y="305.49" width="231.15" height="15.52" rx="3.88" ry="3.88"/>
    <rect class="cls-3" x="440.13" y="305.49" width="231.15" height="15.52" rx="3.88" ry="3.88"/>
    <rect class="cls-14" x="446.93" y="311.31" width="48.56" height="3.39" rx=".49" ry=".49"/>
    <line class="cls-1" x1="431.39" y1="326.35" x2="680.02" y2="326.35"/>
    <rect class="cls-11" x="431.39" y="326.35" width="248.63" height="32.98"/>
    <rect class="cls-13" x="440.13" y="332.17" width="37.88" height="3.88" rx=".49" ry=".49"/>
    <rect class="cls-11" x="440.13" y="338.47" width="231.15" height="15.52" rx="3.88" ry="3.88"/>
    <rect class="cls-3" x="440.13" y="338.47" width="231.15" height="15.52" rx="3.88" ry="3.88"/>
    <rect class="cls-10" x="446.93" y="344.29" width="52.45" height="3.39" rx=".49" ry=".49"/>
    <line class="cls-1" x1="431.39" y1="359.33" x2="680.02" y2="359.33"/>
    <rect class="cls-11" x="431.39" y="359.33" width="248.63" height="32.98"/>
    <rect class="cls-13" x="440.13" y="365.15" width="33.02" height="3.88" rx=".49" ry=".49"/>
    <rect class="cls-11" x="440.13" y="371.45" width="231.15" height="15.52" rx="3.88" ry="3.88"/>
    <rect class="cls-3" x="440.13" y="371.45" width="231.15" height="15.52" rx="3.88" ry="3.88"/>
    <rect class="cls-14" x="446.93" y="377.27" width="40.79" height="3.39" rx=".49" ry=".49"/>
    <line class="cls-1" x1="431.39" y1="392.31" x2="680.02" y2="392.31"/>
    <rect class="cls-11" x="431.39" y="392.31" width="248.63" height="32.98"/>
    <rect class="cls-13" x="440.13" y="398.13" width="14.57" height="3.88" rx=".49" ry=".49"/>
    <rect class="cls-11" x="440.13" y="404.43" width="231.15" height="15.52" rx="3.88" ry="3.88"/>
    <rect class="cls-3" x="440.13" y="404.43" width="231.15" height="15.52" rx="3.88" ry="3.88"/>
    <rect class="cls-15" x="446.93" y="410.25" width="17.48" height="3.39" rx=".49" ry=".49"/>
    <line class="cls-1" x1="431.39" y1="425.28" x2="680.02" y2="425.28"/>
    <rect class="cls-6" x="431.39" y="425.28" width="248.63" height="46.56"/>
    <line class="cls-1" x1="431.39" y1="471.84" x2="680.02" y2="471.84"/>
    <rect class="cls-11" x="431.39" y="471.84" width="248.63" height="61.11"/>
    <rect class="cls-20" x="440.13" y="478.63" width="231.15" height="17.46" rx="3.88" ry="3.88"/>
    <rect class="cls-8" x="440.13" y="499.97" width="231.15" height="17.46" rx="3.88" ry="3.88"/>
    <g>
      <rect class="cls-6" x="592.61" y="155.63" width="77.7" height="17.46" rx="3.88" ry="3.88"/>
      <rect class="cls-20" x="654.77" y="158.54" width="11.65" height="11.64" rx="5.82" ry="5.82"/>
      <rect class="cls-13" x="596.49" y="160.96" width="30.11" height="3.39" rx=".49" ry=".49"/>
      <rect class="cls-10" x="596.49" y="165.81" width="19.42" height="2.42" rx=".49" ry=".49"/>
    </g>
    <path class="cls-20" d="M146.82,207.52h2.91c1.88,0,3.4,1.52,3.4,3.39h0c0,1.87-1.52,3.39-3.4,3.39h-2.91c-1.88,0-3.4-1.52-3.4-3.39h0c0-1.87,1.52-3.39,3.4-3.39Z"/>
    <path class="cls-20" d="M146.82,223.04h2.91c1.88,0,3.4,1.52,3.4,3.39h0c0,1.87-1.52,3.39-3.4,3.39h-2.91c-1.88,0-3.4-1.52-3.4-3.39h0c0-1.87,1.52-3.39,3.4-3.39Z"/>
    <path class="cls-15" d="M146.82,238.56h2.91c1.88,0,3.4,1.52,3.4,3.39h0c0,1.87-1.52,3.39-3.4,3.39h-2.91c-1.88,0-3.4-1.52-3.4-3.39h0c0-1.87,1.52-3.39,3.4-3.39Z"/>
  </g>
</svg>