<?xml version="1.0" encoding="UTF-8"?>
<svg id="Layer_1" data-name="Layer 1" xmlns="http://www.w3.org/2000/svg" viewBox="0 0 805.73 1274.34">
  <defs>
    <style>
      .cls-1 {
        fill: #f4f4f4;
      }

      .cls-3 {
        fill: #10110f;
      }
    </style>
  </defs>
  <rect class="cls-1" width="805.73" height="1274.34"/>
  <g>
    <path class="cls-3" d="M400,928.07l-.13-8-23.79-.02c-.89,2.6-1.22,4.52-1.18,7.88,2.88-.97,5.05-2.25,8.46-2.54l.33,26.64c.04,3.36-.44,6.01-1.44,9.28h10.92c-1.08-2.4-1.88-3.73-1.87-5.49l.02-30.33c3.39-.05,5.5,1.41,8.67,2.59Z"/>
    <rect class="cls-3" x="374.55" y="969.5" width="56.64" height="2.7"/>
    <path class="cls-3" d="M377.17,911.54h51.39c1.26-.28,2.4-1.33,2.55-2.71h-56.48c.15,1.38,1.29,2.43,2.55,2.71Z"/>
    <path class="cls-3" d="M415.75,919.79c-4.72.21-9.16,3.19-11.04,8.5-5.39,15.23-.71,34.2,12.31,33.52,12.25-.64,17.38-20.56,10.76-34.58-2.42-5.12-7.01-7.66-12.02-7.44ZM415.75,956.13c-7.16-1.27-6.26-29.86.08-31.02,8.35-1.53,9.2,32.67-.08,31.02Z"/>
  </g>
  <g>
    <path class="cls-3" d="M552.91,876.49c1.79-.4,1.82-1.11,1.82-2.14l-.22-69.51c-.02-5.67,1.03-10.22,5.49-14.58-4.48.45-6.98,4.55-6.98,6.9l-.12,79.33Z"/>
    <rect class="cls-3" x="477.31" y="882.93" width="30.19" height="2.65"/>
    <rect class="cls-3" x="498.07" y="832.63" width="1.89" height="41.7"/>
    <rect class="cls-3" x="539.57" y="882.93" width="20.75" height="2.65"/>
    <path class="cls-3" d="M526.16,825.37c.39.63,1.63.85,2.31-.11l-9.04-13.64c-.76.37-1.14,1.2-.72,1.87l7.44,11.87Z"/>
    <path class="cls-3" d="M506.66,790.24c-.09.03-.92.57-1.2.76,1.65,3.86,3.8,7.54,7.14,11.03,1.03-3.22-2.64-8.36-5.93-11.79Z"/>
    <path class="cls-3" d="M513.64,802c-1.43,4.13,2.38,6.88,4.7,9.05.01-5.87-3.04-6.42-4.7-9.05Z"/>
    <path class="cls-3" d="M552.48,880.3c-3.02-3.71-4.48-6.32-4.47-9.86l.27-70.9c.02-4.57,2.16-7.95,5.93-12.54l-29.09.04c3.33,3.54,5.58,6.23,5.53,9.78l-.58,40.57-31.13-50.48-29.39-.04c3.97,4.55,6.05,8.03,6.05,12.67l.07,66.14c0,5.4-1.31,9.75-5.17,15.02l29.76-.32c-3.9-3.01-6.32-5.6-6.34-9.36l-.27-53.6,39.07,62.66c6.67,1.3,12.98.97,19.77.22ZM481.15,853c1.34-.41,3.71-1.32,7.58.26.52,1.56-3.83,2.91-8.33,1.73-1.72-.71-.2-1.7.75-1.99ZM479.2,851.16v-2.65h9.43v2.65h-9.43ZM488.76,845.34c-2.84.91-5.85.59-8.61.48-.56-.34-.98-.67-1-.69,3.15-1.02,7.94-1.03,9.6.21ZM488.76,858.57c-2.84.91-5.85.59-8.61.48-.56-.34-.98-.67-1-.69,3.15-1.02,7.94-1.03,9.6.21ZM488.63,861.75v2.65h-9.43v-2.65h9.43ZM488.76,867.84c-2.84.91-5.85.59-8.61.48-.56-.34-.98-.67-1-.69,3.15-1.02,7.94-1.03,9.6.21ZM490.52,877.63h-11.32v-2.65h11.32v2.65ZM480.15,872.29c-.61-.32-.97-.68-.99-.73,4.01-.93,9.53-1.04,11.51.27-3.52.9-7.11.52-10.51.46ZM543.48,845.34c-2.84.91-5.85.59-8.61.48-.56-.34-.98-.67-1-.69,3.15-1.02,7.94-1.03,9.6.21ZM516.9,845.03l12.32-.51c1.53-.06,2.27.09,2.99.88-4.84.88-9.63.41-14.32.42-.68-.28-.96-.69-.99-.79ZM519.76,848.51h23.58v2.65h-23.58v-2.65ZM543.97,854.35c-7.7,1.35-15.17,1.13-23.76.19,6.09-3.22,16.05-3.31,23.76-.19ZM525.42,857.78h17.92v1.32h-17.92v-1.32ZM527.31,861.75h16.04v2.65h-16.04v-2.65ZM543.55,867.72c-4.26.93-9.47,1.57-14.66-.56,4.72-2.52,10.54-2.38,14.66.56ZM531.99,871.57c4.01-.93,9.53-1.04,11.51.27-3.52.9-7.11.52-10.51.46-.61-.32-.97-.68-.99-.73ZM535.72,876.19c-.16-1.47,6.42-2.65,7.44.3.52,1.52-7.16,2.35-7.44-.3Z"/>
    <path class="cls-3" d="M426.7,800.35c-18.83-4.58-23.28,17.32-23.05,34.92.12,8.91-.54,17.69,5.66,24.89-5.17-18.98-5.81-36.01,3.79-52.72,1.87-4.32,6.49-6.45,13.59-7.09Z"/>
    <path class="cls-3" d="M451.22,805.96c-1.12,5.05-6.71,6.83-10.27,11.61,13.74-3.92,15.98-15.67,12.33-27.04-5.31,5.24-1,10.65-2.06,15.43Z"/>
    <path class="cls-3" d="M454.68,841.94l.29,41.15c1.6-.45,1.6-1.08,1.61-2.1l.12-39.15c0-1.8,5.05-3.8,3.05-6.71-2.57,1.29-5.09,3.95-5.07,6.8Z"/>
    <path class="cls-3" d="M409.22,884.39c11.01,4.92,26.47,3.45,36.06-4.04-12.29,3.46-22.41,7.14-36.06,4.04Z"/>
    <path class="cls-3" d="M420.36,830.91c-.55,3.55,5.28,4.31,5.77,6.36,2.44,10.11,3.83,27.39-1.82,31.59-.32.24-3.78.81-5.82.73-7.49-1-12.92-4.82-15.05-10.53-10.9-29.13-1.37-68.86,21.12-62.34,9.43,2.73,10.98,10.62,9.4,17.6,9.58-2.49,13.34-9.19,13.2-16.05l-.22-10.86c-3.21,1.01-6.53,1.6-9.59.47-21.03-7.78-44.97-1.34-54.75,14.5-12.18,19.72-11.13,42.96.52,63.04,8.89,15.33,34.51,22.05,54.09,13.3,4.4-1.96,7.18-2.78,13.11.45l.22-38.69,5.09-9.41-35.28-.17ZM445.4,841.41c-4.18.89-8.37.46-12.42.44-.65-.29-.96-.69-.99-.76,4.79-.85,11.03-1.06,13.41.32ZM445.4,845.38c-4.18.89-8.37.46-12.42.44-.65-.29-.96-.69-.99-.76,4.79-.85,11.03-1.06,13.41.32ZM445.24,848.51v2.65h-13.21v-2.65h13.21ZM445.4,854.65c-4.18.89-8.37.46-12.42.44-.65-.29-.96-.69-.99-.76,4.79-.85,11.03-1.06,13.41.32ZM445.4,858.62c-4.18.89-8.37.46-12.42.44-.65-.29-.96-.69-.99-.76,4.79-.85,11.03-1.06,13.41.32ZM394.46,841.41c-4.18.89-8.37.46-12.42.44-.65-.29-.96-.69-.99-.76,4.79-.85,11.03-1.06,13.41.32ZM394.46,845.38c-4.18.89-8.37.46-12.42.44-.65-.29-.96-.69-.99-.76,4.79-.85,11.03-1.06,13.41.32ZM381.09,848.51h13.21v2.65h-13.21v-2.65ZM382.94,854.33c4.79-.85,11.03-1.06,13.41.32-4.18.89-8.37.46-12.42.44-.65-.29-.96-.69-.99-.76ZM384.83,858.3c4.79-.85,11.03-1.06,13.41.32-4.18.89-8.37.46-12.42.44-.65-.29-.96-.69-.99-.76ZM386.75,861.75h13.21v2.65h-13.21v-2.65ZM391.47,868.33c-.68-.28-.96-.69-.99-.79l12.32-.51c1.53-.06,2.27.09,2.99.88-4.84.88-9.63.41-14.32.42ZM426.5,877.71l-24.68-.41-.03-2.01,33.91-.2c-1.39,2.99-5,2.69-9.2,2.62ZM442.78,873.55l-48.51-.12.03-2.14c8.04-.88,49.02-1.45,50.81.26.39.37-1.66,1.99-2.34,1.99ZM432.98,868.32c-.65-.29-.96-.69-.99-.76,4.79-.85,11.03-1.06,13.41.32-4.18.89-8.37.46-12.42.44ZM431.83,863.95c3.03-2.89,9.56-3.55,14.69-.72-5.18,2.01-9.44,1.41-14.69.72Z"/>
    <path class="cls-3" d="M296.23,816.37c15.04-2.21,17.78-12.82,13.63-21.01,1.04,9.35-3.87,15.83-13.63,21.01Z"/>
    <path class="cls-3" d="M315.31,859.95c-.79,8.32-5.52,16.68-15.83,21.28-10.18,4.54-21.5,4.16-33.65,4.87,26.92,3.07,45.03-2.1,51.78-21.03,2.83-7.95,1.21-15.65-6.29-21.68,1.91,6.82,4.53,10.82,3.99,16.57Z"/>
    <path class="cls-3" d="M280.87,800.19c-6.25-2.26-9.9.98-11.71,4.64-1.05,2.13-1.11,5.64,2.32,7.75-.66-6.75,1.01-11.19,9.39-12.39Z"/>
    <path class="cls-3" d="M265.66,865.91c.2-4.67,1.91-7.58,6.36-10.57-5-.61-6.69,2.19-8.39,4.16-1.74,2-.87,4.36,2.02,6.42Z"/>
    <path class="cls-3" d="M306.35,870.23c10.68-13.9,2.89-29.21-13.42-39.38-14.25-8.89-30.7-15.54-28.59-26.45.59-3.04,3.18-6.64,8.88-7.89,6.57-1.45,12.46,1.29,14.9,4.28,3.17,3.9,3.17,7.74.69,12.34,8.37.1,13.2-4.32,15.48-8.81,2.01-3.96,2.33-10.35-3.38-13.58-12.97-7.36-35-8.5-48.1-.56-18.63,11.28-14.13,30.76,4.15,40.8,17.65,9.7,37.77,19.08,29.67,33.3-1.79,3.15-5.64,5.07-9.36,5.97-3.23.78-8.24,0-8.24,0-6.77-1.1-10.5-4.94-10.62-9.13-.12-4.28,3.73-7.52,10.79-9.85-7.75-4.76-16.78-3.5-23.06-.06-6.35,3.48-8.88,9.66-6.15,15.83,4.23,9.56,18.17,14.93,31.02,15.76,14.15.92,28.43-3.54,35.36-12.55ZM289.6,868.32c-.65-.29-.96-.69-.99-.76,4.79-.85,11.03-1.06,13.41.32-4.18.89-8.37.46-12.42.44ZM290.33,863.95c3.03-2.89,9.56-3.55,14.69-.72-5.18,2.01-9.44,1.41-14.69.72ZM305.62,860.42h-13.21v-2.65h13.21v2.65ZM293.37,855.09c-.65-.29-.96-.69-.99-.76,4.79-.85,11.03-1.06,13.41.32-4.18.89-8.37.46-12.42.44ZM304.68,851.16h-14.15v-2.65h14.15v2.65ZM273.55,837.92v-2.65h20.75v2.65h-20.75ZM282.04,840.57h17.92v1.32h-17.92v-1.32ZM287.71,845.82c-.68-.28-.96-.69-.99-.79l12.32-.51c1.53-.06,2.27.09,2.99.88-4.84.88-9.63.41-14.32.42ZM256.7,854.6c-2.84.91-5.85.59-8.61.48-.56-.34-.98-.67-1-.69,3.15-1.02,7.94-1.03,9.6.21ZM254.83,858.6c-3.52.9-7.11.52-10.51.46-.61-.32-.97-.68-.99-.73,4.01-.93,9.53-1.04,11.51.27ZM243.36,861.75h11.32v2.65h-11.32v-2.65ZM246.2,868.32c-.65-.29-.96-.69-.99-.76,4.79-.85,11.03-1.06,13.41.32-4.18.89-8.37.46-12.42.44ZM249.15,872.13c.93-.71,47.39-1.06,48.8,0,.37.28-1.63,1.39-2.32,1.39l-44.17-.02c-.69,0-2.67-1.1-2.31-1.37ZM257.51,874.99h33.02v2.65h-33.02v-2.65Z"/>
    <path class="cls-3" d="M230.12,866.97l.93,16.4-65.08-.3v2.3s67.88.24,67.88.24l.04-19.74c-2.05-.85-3.78.03-3.77,1.1Z"/>
    <path class="cls-3" d="M192.49,822.01c1.79-.14,3.65-1.45,3.66-2.46l.13-17.49c6.67.11,10.33.7,15.18-.59-6.1-1.14-11.96-.59-19.03-.52l.05,21.07Z"/>
    <rect class="cls-3" x="215.06" y="823.36" width="3.77" height="19.86"/>
    <path class="cls-3" d="M192.92,837.67l-.17,28.1c.56.01,1.2-.19,1.53-.71l.4-24.5c4.41-.89,3.34-3.97-1.77-2.88Z"/>
    <rect class="cls-3" x="228.27" y="790.26" width="1.89" height="17.21"/>
    <path class="cls-3" d="M225.46,881.2l.3-19.7c-4.54,3.56-8.94,7.05-16.32,7.03l-21.21-.05.17-33.01c10.79-.83,15.99.72,23.03,4.16l-.26-20.51c-6.73,4.49-14.83,5.69-23.06,4.84l-.15-25.36c12.24-2.18,26.05-1.3,35.75,6.01l-.1-17.81-64.93-.1c3.58,3.17,6.31,6.6,6.32,10.99l.19,68.99c.02,5.55-2.73,9.92-7.06,14.54,23.15-.46,43.89-1.81,67.33-.03ZM217.04,877.77l-47.29-.4.03-2.14,52.07-.25c.63,1.76-1.97,2.82-4.81,2.8ZM220.72,871.01v2.65h-50.94v-2.65h50.94ZM183.15,841.41c-4.18.89-8.37.46-12.42.44-.65-.29-.96-.69-.99-.76,4.79-.85,11.03-1.06,13.41.32ZM183.15,845.38c-4.18.89-8.37.46-12.42.44-.65-.29-.96-.69-.99-.76,4.79-.85,11.03-1.06,13.41.32ZM182.99,848.51v2.65h-13.21v-2.65h13.21ZM183.15,854.65c-4.18.89-8.37.46-12.42.44-.65-.29-.96-.69-.99-.76,4.79-.85,11.03-1.06,13.41.32ZM183.15,858.62c-4.18.89-8.37.46-12.42.44-.65-.29-.96-.69-.99-.76,4.79-.85,11.03-1.06,13.41.32ZM182.99,861.75v2.65h-13.21v-2.65h13.21ZM183.15,867.89c-4.18.89-8.37.46-12.42.44-.65-.29-.96-.69-.99-.76,4.79-.85,11.03-1.06,13.41.32Z"/>
    <path class="cls-3" d="M640.83,883.87c-13.29-.46-25.04-1.34-36.9-.54l-26.23,1.76,66.43-.08.7-19.29h-2.81s-1.19,18.15-1.19,18.15Z"/>
    <path class="cls-3" d="M608.42,837.74c-.53.23-3.29.2-4.09,1.22l-.27,26.75h2.95s1.05-25.92,1.05-25.92c5.15-.46,1.55-2.58.37-2.05Z"/>
    <path class="cls-3" d="M622.78,801.45c-6.27-1.12-11.75-.61-19.69-.46,3.2,6.97,2.02,13.16,3.26,19.81,2.54-6.5.53-12.08,1.17-18.71,6.7.03,10.38.67,15.26-.64Z"/>
    <rect class="cls-3" x="639.57" y="790.26" width="3.77" height="17.21"/>
    <rect class="cls-3" x="628.25" y="823.36" width="1.89" height="19.86"/>
    <path class="cls-3" d="M609.38,880.24l28.2.36-.36-19.36c-5.03,4.2-10.12,7.65-18.35,7.42l-18.84-.53-.54-32.22c7.86-1.56,16.32-1.04,23.26,3.75,1.33-7.52.96-13.18-.14-20.72-7.11,4.39-14.63,5.84-22.7,5l-.18-25.28c12.34-2.16,26.59-1.44,35.71,6.19l.26-18.06-64.67.06c4.51,4.51,6.35,8.03,6.36,12.7l.14,66.16c.01,5.48-2.05,9.91-6.62,15.14l38.48-.6ZM633.91,874.99v2.65h-50.94v-2.65h50.94ZM633.16,871.01c.62,1.75-1.98,2.82-4.82,2.79l-45.4-.41.03-2.13,50.2-.26ZM582.97,835.27h11.32v2.65h-11.32v-2.65ZM594.44,841.39c-3.52.9-7.11.52-10.51.46-.61-.32-.97-.68-.99-.73,4.01-.93,9.53-1.04,11.51.27ZM594.44,845.36c-3.52.9-7.11.52-10.51.46-.61-.32-.97-.68-.99-.73,4.01-.93,9.53-1.04,11.51.27ZM594.29,848.51v2.65h-11.32v-2.65h11.32ZM594.44,854.63c-3.52.9-7.11.52-10.51.46-.61-.32-.97-.68-.99-.73,4.01-.93,9.53-1.04,11.51.27ZM594.44,858.6c-3.52.9-7.11.52-10.51.46-.61-.32-.97-.68-.99-.73,4.01-.93,9.53-1.04,11.51.27ZM594.29,861.75v2.65h-11.32v-2.65h11.32ZM594.44,867.87c-3.52.9-7.11.52-10.51.46-.61-.32-.97-.68-.99-.73,4.01-.93,9.53-1.04,11.51.27Z"/>
    <path class="cls-3" d="M358.57,799.67l.04,74.17c1.72-.4,1.81-1.1,1.8-2.14l-.29-64.21c-.03-6.46,2.2-11.19,6.46-17.26-5.63,1.46-8.01,5.52-8.01,9.44Z"/>
    <rect class="cls-3" x="332.04" y="882.93" width="33.96" height="2.65"/>
    <path class="cls-3" d="M360.26,880.5c-4.13-4.01-5.78-6.79-6.21-10.83l-.02-70.12c0-4.78,2.15-8.46,6.2-12.81l-34.62.14c4,4.63,5.86,8.17,5.87,12.71l.14,64.79c.01,5.87-1.52,10.46-6.04,16.3l34.68-.18ZM349.18,867.89c-4.18.89-8.37.46-12.42.44-.65-.29-.96-.69-.99-.76,4.79-.85,11.03-1.06,13.41.32ZM335.81,864.4v-2.65h13.21v2.65h-13.21ZM336.76,859.06c-.65-.29-.96-.69-.99-.76,4.79-.85,11.03-1.06,13.41.32-4.18.89-8.37.46-12.42.44ZM335.65,854.76c2.75-3.05,9.42-3.91,13.41-.07-4.74.75-8.51.69-13.41.07ZM349.18,871.86c-4.18.89-8.37.46-12.42.44-.65-.29-.96-.69-.99-.76,4.79-.85,11.03-1.06,13.41.32ZM350.9,877.63h-15.09v-2.65h15.09v2.65ZM349.18,845.38c-4.18.89-8.37.46-12.42.44-.65-.29-.96-.69-.99-.76,4.79-.85,11.03-1.06,13.41.32ZM348.95,849.25c-2.78,2.42-9.12,3.25-14.42.51,4.5-1.93,8.19-1.79,14.42-.51Z"/>
    <path class="cls-3" d="M150.53,822.08c-.72-5.09-2.67-10.15-6.88-14.78l5.21,17.41c2.36,25.59-6.18,56.87-45.05,58.58l-34.19,1.51c30.86,2.71,62.56,1.64,74.41-19.89,5.86-10.65,9.16-21.99,8.5-33.47-.19-3.4-1.61-6.57-2-9.36Z"/>
    <path class="cls-3" d="M98.05,865.06l.17-61.45c4.78-.93,3.65-4.18-1.75-2.99l-.09,65.16c.63.15,1.67-.31,1.67-.72Z"/>
    <path class="cls-3" d="M99.35,880.78c17.64-.04,30.69-7.87,37.5-18.58,16.23-28.52,9.05-75.58-37.13-75.43l-36.34.12c3.79,4.72,5.68,8.4,5.7,12.98l.21,65.78c.02,5.49-1.85,9.82-6.44,15.21l36.5-.08ZM100.08,877.71l-26.54-.45-.03-2.01,37.63.08c-2.77,1.78-6.57,2.45-11.06,2.38ZM118.84,872.34h-44.34v-1.32h44.34v1.32ZM76.4,859.06c-.61-.32-.97-.68-.99-.73,4.01-.93,9.53-1.04,11.51.27-3.52.9-7.11.52-10.51.46ZM86.77,861.75v2.65h-11.32v-2.65h11.32ZM86.92,867.87c-3.52.9-7.11.52-10.51.46-.61-.32-.97-.68-.99-.73,4.01-.93,9.53-1.04,11.51.27ZM111.09,867.92c3.03-2.89,9.56-3.55,14.69-.72-5.18,2.01-9.44,1.41-14.69.72ZM130.16,864.4h-13.21v-2.65h13.21v2.65ZM126.39,835.27h11.32v2.65h-11.32v-2.65ZM137.87,841.41c-4.18.89-8.37.46-12.42.44-.65-.29-.96-.69-.99-.76,4.79-.85,11.03-1.06,13.41.32ZM137.87,845.38c-4.18.89-8.37.46-12.42.44-.65-.29-.96-.69-.99-.76,4.79-.85,11.03-1.06,13.41.32ZM135.82,848.51v2.65h-11.32v-2.65h11.32ZM136.03,854.48c-4.26.93-9.47,1.57-14.66-.56,4.72-2.52,10.54-2.38,14.66.56ZM132.2,858.6c-3.52.9-7.11.52-10.51.46-.61-.32-.97-.68-.99-.73,4.01-.93,9.53-1.04,11.51.27ZM114.56,806.81c10.46,22.46,9.51,65-21.89,61.3l-.34-70.17c9.18-1.87,18.99,1.91,22.23,8.87ZM75.45,835.27h11.32v2.65h-11.32v-2.65ZM86.93,841.41c-4.18.89-8.37.46-12.42.44-.65-.29-.96-.69-.99-.76,4.79-.85,11.03-1.06,13.41.32ZM76.4,845.82c-.61-.32-.97-.68-.99-.73,4.01-.93,9.53-1.04,11.51.27-3.52.9-7.11.52-10.51.46ZM86.77,848.51v2.65h-12.26v-2.65h12.26ZM88.05,853.95c-5.18,2.01-9.44,1.41-14.69.72,3.03-2.89,9.56-3.55,14.69-.72Z"/>
    <path class="cls-3" d="M742.81,831.71c-.19-3.4-1.61-6.57-2-9.36-.72-5.09-2.67-10.15-6.88-14.78l5.21,17.41c2.36,25.59-6.18,56.87-45.05,58.58l-34.19,1.51c30.86,2.71,62.56,1.64,74.41-19.89,5.86-10.65,9.16-21.99,8.5-33.47Z"/>
    <path class="cls-3" d="M688.32,865.34l.17-61.45c4.78-.93,3.65-4.18-1.75-2.99l-.09,65.16c.63.15,1.67-.31,1.67-.72Z"/>
    <path class="cls-3" d="M689.62,881.06c17.64-.04,30.69-7.87,37.5-18.58,16.23-28.52,9.05-75.58-37.13-75.43l-36.34.12c3.79,4.72,5.68,8.4,5.7,12.98l.21,65.78c.02,5.49-1.85,9.82-6.44,15.21l36.5-.08ZM690.35,877.99l-26.54-.45-.03-2.01,37.63.08c-2.77,1.78-6.57,2.45-11.06,2.38ZM709.11,872.62h-44.34v-1.32h44.34v1.32ZM666.67,859.33c-.61-.32-.97-.68-.99-.73,4.01-.93,9.53-1.04,11.51.27-3.52.9-7.11.52-10.51.46ZM677.04,862.03v2.65h-11.32v-2.65h11.32ZM677.19,868.14c-3.52.9-7.11.52-10.51.46-.61-.32-.97-.68-.99-.73,4.01-.93,9.53-1.04,11.51.27ZM701.36,868.2c3.03-2.89,9.56-3.55,14.69-.72-5.18,2.01-9.44,1.41-14.69.72ZM720.43,864.67h-13.21v-2.65h13.21v2.65ZM716.66,835.55h11.32v2.65h-11.32v-2.65ZM728.14,841.69c-4.18.89-8.37.46-12.42.44-.65-.29-.96-.69-.99-.76,4.79-.85,11.03-1.06,13.41.32ZM728.14,845.66c-4.18.89-8.37.46-12.42.44-.65-.29-.96-.69-.99-.76,4.79-.85,11.03-1.06,13.41.32ZM726.09,848.79v2.65h-11.32v-2.65h11.32ZM726.3,854.76c-4.26.93-9.47,1.57-14.66-.56,4.72-2.52,10.54-2.38,14.66.56ZM722.47,858.88c-3.52.9-7.11.52-10.51.46-.61-.32-.97-.68-.99-.73,4.01-.93,9.53-1.04,11.51.27ZM704.83,807.09c10.46,22.46,9.51,65-21.89,61.3l-.34-70.17c9.18-1.87,18.99,1.91,22.23,8.87ZM665.72,835.55h11.32v2.65h-11.32v-2.65ZM677.2,841.69c-4.18.89-8.37.46-12.42.44-.65-.29-.96-.69-.99-.76,4.79-.85,11.03-1.06,13.41.32ZM666.67,846.1c-.61-.32-.97-.68-.99-.73,4.01-.93,9.53-1.04,11.51.27-3.52.9-7.11.52-10.51.46ZM677.04,848.79v2.65h-12.26v-2.65h12.26ZM678.32,854.23c-5.18,2.01-9.44,1.41-14.69.72,3.03-2.89,9.56-3.55,14.69-.72Z"/>
  </g>
  <g>
    <path class="cls-3" d="M372.83,1032.53c-14.46,55.82-28.6,111.71-42.31,167.71-1.82,7.45-2.99,15.1,2.04,22.88,3.99-23.88,11.47-46.72,17.69-70.08,10.51-42.29,21.23-84.52,32.1-126.71,2.13-8.25,14.55-13.07,14.77-22.33-12.3,5.14-21.13,15.64-24.3,28.53Z"/>
    <path class="cls-3" d="M145.13,998.24c6.13,33.3,12.43,66.57,18.9,99.81,9.82-43.65-23.81-87.8-10.12-130.83,8.75.97,4.44-8.03-3.47-8.35-13.02,6.86-7.48,28.56-5.31,39.38Z"/>
    <path class="cls-3" d="M284.97,1107.17c3.88-14.55,1.81-21.75-2.16-36.27-4.77-19.46-9.5-38.93-14.21-58.4,2.68-8.36,4.02-12.52,6.72-20.82-13.49.58-14.64,13.53-11.63,23.54,7.02,30.67,14.12,61.32,21.28,91.96Z"/>
    <path class="cls-3" d="M204.82,1221.74c5.71-24.19,11.5-48.37,17.39-72.52,4.22-11.87,3.27-20.56-.43-32.17-7.61,35.01-17.96,68.47-16.96,104.69Z"/>
    <path class="cls-3" d="M141.32,1239.39c23.94.02,47.89.03,71.83.04-.05-2.9-.07-4.35-.11-7.25-23.94-.2-47.88-.43-71.81-.69.04,3.16.06,4.74.09,7.9Z"/>
    <path class="cls-3" d="M271.53,1239.46c23.95,0,47.9.01,71.84.02-.02-2.64-.03-3.96-.05-6.6-23.96-.07-47.93-.16-71.89-.29.04,2.75.06,4.13.1,6.88Z"/>
    <path class="cls-3" d="M324.55,1227.16c-5.22-13.26-5.63-19.74-3.44-33.82,13.17-54.27,26.77-108.42,40.7-162.5,3.35-13.59,10.25-24.22,18.61-35.22-24.89-.94-49.51-2.96-74.22-6.07,8.6,13.19,14.07,24.59,9.82,40.62-9.59,41.65-18.96,83.35-28.09,125.1-10.2-40.76-20.28-81.54-30.2-122.37-4.11-16.51-6.79-35.71,1.84-51.4-26.44-5.73-52.31-12.65-78.08-20.88,6.71,13.46,13.8,27.02,10.93,42.59-7.58,38.08-14.98,76.2-22.22,114.34,1.94,5.88,1.35,11.48-3.51,15.22.8,3.61,2.39,9.16-3.83,11.14-9.9-52.8-19.39-105.68-28.47-158.63-1.39-14.46-1.78-27.97,8.33-39.7-27.39-10.61-53.98-22.55-80.11-35.96,8.2,17.55,17.48,35.52,20.65,54.86,13.32,75.83,27.91,151.41,43.78,226.75,2.85,11.31-.08,21.82-3.31,32.57,25.16,1,50.32,1.9,75.49,2.7-4.92-10.41-9.58-20.66-6.28-32.53,9.27-42.52,18.8-84.98,28.63-127.37,9.58,40.61,19.38,81.17,29.36,121.69,3.41,12.63,4.55,25.73.72,38.42,24.3.2,48.61.35,72.92.45ZM124.42,1118.17c-1.44-1.21-2.31-2.47-2.36-2.62,8.24-1.21,20.19-.02,27.09,5.27-8.26,1.37-16.74-1.1-24.74-2.65ZM126.78,1134.77c-.03-3.22-.05-4.83-.08-8.05,8.87,1.39,13.32,2.06,22.23,3.33.04,3.12.06,4.69.1,7.81-8.91-1.19-13.36-1.81-22.24-3.1ZM131.23,1145.18c7.38-2.11,18.7-.66,22.69,3.42-6.69,1.87-13.81.12-20.31-1.04-1.33-1.2-2.34-2.31-2.38-2.38ZM178.88,1197.99c.02,1.51.03,2.26.06,3.77-12.69-.58-25.39-1.2-38.07-1.88-.02-1.58-.03-2.37-.05-3.95,12.69.74,25.37,1.43,38.07,2.06ZM140.72,1188.03c-.02-1.58-.03-2.37-.05-3.95,12.67.94,25.36,1.81,38.04,2.62.02,1.51.03,2.26.06,3.77-12.69-.75-25.37-1.56-38.05-2.43ZM181.39,1216.88c-11.96-.32-23.92-.68-35.87-1.05-.04-3.14-.06-4.71-.1-7.86,11.95.5,23.9.97,35.86,1.4.04,3,.07,4.51.11,7.51ZM185.32,1179.64c-16.41-1.14-32.82-2.44-49.21-3.85-.04-3.18-.05-4.77-.09-7.95,16.38,1.58,32.78,3.04,49.19,4.33.04,2.99.07,4.48.11,7.47ZM185.1,1164.7c-17.15-1.54-34.27-3.22-51.39-5.04-.02-1.59-.03-2.39-.04-3.99,17.11,1.91,34.24,3.68,51.38,5.3.02,1.49.03,2.24.06,3.74ZM170.97,1150.55c2.82-1.67,8.06-3.92,18.24,1.85-4.7,1.6-9.93,2.09-18.24-1.85ZM264.14,1194.52c-.02-1.38-.03-2.07-.05-3.46,14.27.53,28.55,1,42.82,1.41.02,1.34.02,2.01.04,3.36-14.27-.38-28.54-.81-42.81-1.31ZM304.77,1202.49c.02,1.34.02,2.02.04,3.36-12.76-.25-25.52-.55-38.27-.9-.02-1.38-.03-2.07-.05-3.45,12.76.39,25.52.72,38.28.99ZM265.85,1213.51c14.11-2.58,27.7-1.42,41.78.56-11.95,9.05-29.83,7.01-41.78-.56ZM311.35,1185.89c-16.54-.47-33.08-1.1-49.61-1.84-.04-2.77-.06-4.16-.1-6.93,16.54.83,33.09,1.54,49.64,2.07.03,2.68.04,4.02.07,6.7ZM319.57,1149.91c1.3,3.91-17.12,5.14-17.88-1.64-.42-3.77,15.37-5.91,17.88,1.64ZM315.43,1161.25c-4.76,1.67-10.05,2.33-18.44-.77,2.86-1.62,8.18-3.91,18.44.77ZM313.43,1169.22c.01,1.34.02,2.01.04,3.35-18.82-.71-37.63-1.59-56.44-2.64-.02-1.39-.03-2.09-.05-3.48,18.81,1.1,37.63,2.02,56.45,2.77ZM252.1,1141.75c9.03.75,13.54,1.1,22.59,1.75.04,2.74.06,4.11.09,6.86-9.04-.6-13.56-.92-22.58-1.62-.04-2.79-.06-4.19-.1-6.98ZM252.24,1157.15c8.12-1.68,20.01-1.8,27.55,2.46-8.39,1.85-17,.34-25.14-.38-1.47-.94-2.36-1.95-2.41-2.08Z"/>
    <path class="cls-3" d="M726.16,962.3c-.35,81.58-.7,163.17-1.05,244.75,0,1.33,2.56,2.72,3.98,2.21.44-82.41.88-164.82,1.3-247.23h0s0,0,0,0c4.34-13.88,8.58-27.79,12.75-41.72-10.75,11.1-16.67,26.68-16.98,41.98,0,0,0,0,0,0Z"/>
    <path class="cls-3" d="M599.86,1207.72c.56-38.75,1.12-77.5,1.69-116.25.02-1.19-2.41-1.92-3.75-1.32-.77,41.34-1.54,82.68-2.32,124.02,6.83,6.26,14.4-2.32,4.38-6.46Z"/>
    <path class="cls-3" d="M549.76,1232.28c-4.39,1.21-7.54,3.25-8.77,7.18,26.74-.65,52.81,1.97,79.27-3.09-23.7-6.61-46.3-3.24-70.5-4.1Z"/>
    <path class="cls-3" d="M739.33,1227.73c-4.44-2.86-7.67,3.21-9.88,3.3-11.94.49-23.88.95-35.82,1.39-.03,2.29-.04,3.43-.07,5.72,14.48.02,28.97.03,43.45.05,6.55,0,5.25-8.58,2.32-10.47Z"/>
    <path class="cls-3" d="M724.69,1222.3c-7.16-9.74-9.68-15.79-9.64-25.34.31-77.69.61-155.38.93-233.07.3-17.72,7.54-32.91,15.24-48.47-22,11.39-44.29,21.72-67.2,31.13,7.99,11.08,10.79,16.84,12.43,30.4-.66,39.72-1.32,79.44-1.98,119.17-23.32-43.75-48.07-86.6-74.31-128.66-22.97,6.67-46.02,12.31-69.47,17,6.52,6.48,13.34,17.42,12.92,27.05-.35,56.34-.7,112.68-1.06,169.02.33,16.89-5.41,33.43-15.13,47.1,24.31-.77,48.61-1.63,72.91-2.58-6.66-4.98-16.09-13.66-16.29-22.84,1.03-50.32,2.05-100.64,3.08-150.95,32.96,56.47,63.42,114.19,91.72,173.13,15.67.57,30.38.42,45.87-2.09ZM555.85,1153.41c3.24-1.39,9.09-4.04,18.05-.8,1.2,4.23-9.22,8.55-19.89,6.18-4.1-1.6-.43-4.4,1.84-5.38ZM573.82,1166.93c-6.82,2.91-13.99,2.51-20.56,2.61-1.33-.83-2.32-1.62-2.36-1.67,7.56-3.13,18.99-3.98,22.92-.94ZM550.75,1183.73c.04-2.79.06-4.18.1-6.97,9.01-.48,13.51-.74,22.51-1.29-.04,2.84-.07,4.26-.11,7.11-9,.49-13.5.72-22.5,1.15ZM572.94,1191.79c-4.78,2.2-10.06,3.3-18.33.85,2.9-1.94,8.26-4.93,18.33-.85ZM573.26,1202.48c-6.81,2.68-13.97,2.06-20.53,1.96-1.32-.87-2.32-1.69-2.35-1.74,7.54-2.91,18.96-3.39,22.89-.22ZM545.37,1212.7c10.57-2,21.17-2.21,31.75-.03-8.61,8.32-23.19,8.71-31.75.03ZM703.77,1112.68c-6.66,4.09-13.71,4.34-20.18,5.1-1.31-.83-2.29-1.64-2.32-1.71,7.42-4.37,18.62-6.55,22.5-3.4ZM632.49,1112.11c9.73-1.98,19.44-4.08,29.11-6.32,3.6-.83,5.33-.69,7,1.38-11.45,3.48-21.96,5.23-33.8,6.84-1.59-.55-2.24-1.63-2.3-1.91ZM641.26,1122.19c9.71-1.9,19.42-3.93,29.08-6.07,3.6-.79,5.33-.63,7,1.48-11.45,3.38-21.95,5.03-33.78,6.54-1.59-.57-2.24-1.67-2.3-1.95ZM647.9,1131.32c18.54-2.63,37.03-5.49,55.49-8.58-.02,3.33-.04,5-.06,8.33-18.48,2.88-36.99,5.53-55.54,7.97.04-3.09.06-4.63.1-7.72ZM654.43,1142.06c16.31-2.08,32.61-4.33,48.87-6.83-.02,3.33-.04,5-.06,8.33-16.27,2.3-32.58,4.37-48.91,6.29.04-3.12.06-4.67.1-7.79ZM660.93,1156.91c14.1-1.58,28.18-3.25,42.26-5.02-.01,1.67-.02,2.5-.03,4.17-14.08,1.69-28.17,3.28-42.27,4.78l.05-3.93ZM667.48,1168.06c11.88-1.14,23.75-2.37,35.62-3.67-.02,3.33-.04,5-.06,8.33-11.88,1.16-23.76,2.25-35.65,3.27.04-3.17.05-4.76.09-7.93ZM678.45,1186.94c-1.44-.86-2.29-1.89-2.33-2.03,7.35-3.02,19.64-5.36,27.2-1.3-8.32,3.52-16.82,2.95-24.87,3.33ZM680.46,1196.79c7.48-3.54,18.81-4.39,22.73-.76-6.74,3.28-13.86,2.69-20.39,2.73-1.32-.98-2.31-1.9-2.34-1.97ZM684.92,1206.89c8.95-.41,13.42-.63,22.35-1.07-.02,3.35-.03,5.03-.05,8.38-8.95.34-13.42.5-22.37.81.03-3.25.05-4.87.08-8.12Z"/>
    <path class="cls-3" d="M487.02,1129.44c-1.56,23.78-5.3,44.89,1.01,68.38-.38,6.61-.57,9.91-.95,16.51.83,1.29,2.65,1.96,4.14,1.95,1.11-66.61,2.22-133.22,3.34-199.82,3.8-5.67,12.09-12.29,7.59-19.3-7.62,4.92-12.27,11.35-12.45,18.84-.9,37.81-1.79,75.63-2.67,113.44Z"/>
    <path class="cls-3" d="M424.19,1239.48c26.94,0,53.88,0,80.83-.01.03-2.7.05-4.04.08-6.74-26.96.11-53.92.18-80.89.21,0,2.62-.01,3.92-.02,6.54Z"/>
    <path class="cls-3" d="M488.11,1227.58c-6.37-8.31-12.71-17.89-12.43-28.8.43-58.2.86-116.41,1.28-174.61.27-12.63,6.94-23.78,13.89-33.88-27.23,3.29-54.4,5.21-81.82,5.8,5.9,8.09,13.15,16.87,12.94,27.61-.09,55.54-.18,111.08-.27,166.62.21,14.57-5.61,25.54-13.4,37.35,26.6.04,53.21.01,79.81-.08ZM464.76,1219.65c-11.25.08-22.51.14-33.76.19,0-2.62.01-3.93.02-6.55,11.26-.06,22.52-.14,33.79-.25-.02,2.64-.03,3.97-.05,6.61ZM435.58,1206.61c-1.54-.72-2.3-1.68-2.36-1.87,10.08-1.91,22.28-3.67,32.05.49-9.5,2.15-20.02,1.73-29.69,1.37ZM430.38,1193.93c10.89-6.04,24.69-6.38,35.07.97-11.54,3.01-23.83,3.62-35.07-.97ZM435.72,1173.84c-1.55-.71-2.31-1.67-2.37-1.85,10.11-1.97,22.33-3.86,32.18.2-9.51,2.27-20.11,1.95-29.81,1.65ZM465.07,1180c-.02,2.64-.03,3.97-.05,6.61-10.54.21-21.09.37-31.64.47.01-2.62.02-3.93.03-6.55,10.55-.11,21.11-.28,31.66-.52ZM430.5,1161.19c10.89-6.07,24.73-6.59,35.21.65-11.55,3.14-23.9,3.88-35.21-.65ZM465.79,1139.13c-9.52,2.39-20.19,2.17-29.93,1.93-1.56-.7-2.32-1.66-2.38-1.84,10.13-2.02,22.38-4.04,32.31-.1ZM465.15,1148.8c-9.69,7.88-23.95,7.53-34.71,2.1,10.95-5.15,23.14-4.51,34.71-2.1Z"/>
  </g>
  <g>
    <path class="cls-3" d="M477.48,941.4c-.14-1.39.12-2.82.9-3.98.99-1.48,2.61-2.52,4.52-2.71,2.97-.3,5.66,1.55,6.53,4.29l51.49-5.21c-4.42-.91-8.73-2.77-12.11-5.19-2.69-1.93-5.09-4.35-8.13-5.67-3.04-1.31-7.11-1.13-9.06,1.55.17-1.68,1.28-3.16,2.67-4.1,1.4-.94,3.07-1.4,4.74-1.66,3.8-.59,7.95-.14,10.99,2.21-.54-3.54,1.79-7.39,5.26-8.25,3.48-.86,7.49,1.76,7.82,5.33.09.96-.17,2.08-1.03,2.51.06-1.16-1.2-2.12-2.35-1.96-1.16.16-2.06,1.19-2.33,2.33-.27,1.13,0,2.34.45,3.41,1.39,3.28,4.44,5.51,7.66,6.8.61.24,3.2,1.03,4.54,1.77l18.92-1.91c-3.27-.76-6.44-2.17-8.96-3.97-2.13-1.52-4.02-3.44-6.43-4.48-2.4-1.04-5.62-.89-7.16,1.22.14-1.33,1.01-2.5,2.12-3.25,1.11-.74,2.43-1.1,3.75-1.31,3-.47,6.29-.11,8.69,1.75-.43-2.8,1.41-5.85,4.16-6.52,2.75-.68,5.93,1.39,6.19,4.21.07.76-.13,1.65-.81,1.98.05-.92-.95-1.68-1.86-1.55-.91.13-1.63.94-1.84,1.84-.21.9,0,1.85.35,2.7,1.1,2.59,3.51,4.36,6.06,5.38.44.18,2.16.7,3.27,1.24l12.56-1.27c-2.32-.63-4.54-1.66-6.33-2.95-1.68-1.2-3.17-2.72-5.07-3.54-1.9-.82-4.44-.71-5.65.96.11-1.05.8-1.97,1.67-2.56.87-.59,1.92-.87,2.95-1.03,2.37-.37,4.96-.09,6.86,1.38-.34-2.21,1.11-4.61,3.28-5.14,2.17-.53,4.67,1.1,4.88,3.32.05.6-.1,1.3-.64,1.56.04-.73-.75-1.32-1.47-1.22-.72.1-1.28.74-1.45,1.45-.17.71,0,1.46.28,2.13.87,2.04,2.77,3.44,4.78,4.24.29.12,1.28.42,2.1.76l18.57-1.88,8.43-10.53c2.29,3.12,24.18,7.81,26.4,8.28l.18-.02s-.03.01-.09.04c.06.01.09.02.09.02l-.18.02c-2.08.9-22.59,9.88-24.21,13.39l-10.41-8.66-18.62,1.88c-.73.48-1.59.96-1.84,1.12-1.81,1.19-3.39,2.93-3.83,5.11-.14.71-.16,1.48.15,2.14.31.66.99,1.18,1.71,1.13.73-.05,1.38-.79,1.19-1.49.58.15.88.81.94,1.4.24,2.22-1.88,4.32-4.11,4.23-2.23-.09-4.14-2.15-4.25-4.38-1.56,1.82-4.05,2.61-6.44,2.72-1.05.05-2.13-.02-3.1-.42-.97-.4-1.83-1.17-2.15-2.17,1.52,1.39,4.04,1,5.73-.19,1.69-1.18,2.85-2.97,4.26-4.48,1.48-1.59,3.41-3.03,5.52-4.1l-12.53,1.27c-.98.73-2.51,1.56-2.9,1.82-2.29,1.51-4.3,3.72-4.86,6.48-.18.9-.2,1.88.19,2.71.39.84,1.25,1.49,2.17,1.43.92-.06,1.75-1,1.51-1.89.74.19,1.11,1.03,1.19,1.78.31,2.81-2.39,5.48-5.22,5.37-2.83-.11-5.24-2.73-5.38-5.56-1.98,2.3-5.13,3.31-8.17,3.46-1.33.06-2.7-.03-3.93-.53-1.23-.51-2.32-1.48-2.72-2.76,1.93,1.77,5.12,1.26,7.26-.24,2.15-1.5,3.62-3.76,5.4-5.68,2.08-2.24,4.86-4.23,7.87-5.63l-18.86,1.91c-1.19.99-3.5,2.24-4.04,2.6-2.9,1.91-5.44,4.7-6.15,8.19-.23,1.14-.25,2.37.24,3.43.49,1.06,1.59,1.89,2.75,1.81,1.16-.08,2.21-1.26,1.91-2.39.93.25,1.4,1.3,1.51,2.25.39,3.56-3.02,6.93-6.6,6.79-3.58-.14-6.63-3.45-6.81-7.03-2.51,2.91-6.49,4.19-10.33,4.37-1.68.08-3.41-.03-4.97-.67-1.56-.64-2.94-1.88-3.44-3.49,2.45,2.23,6.47,1.6,9.19-.3,2.72-1.9,4.57-4.75,6.83-7.18,2.8-3.01,6.61-5.68,10.7-7.45l-51.36,5.19c-.3,2.86-2.57,5.21-5.54,5.51-1.91.19-3.71-.5-4.97-1.75-.99-.98-1.53-2.33-1.68-3.72l-.02-.16Z"/>
    <path class="cls-3" d="M328.23,941.52c.14-1.39-.11-2.82-.89-3.98-.99-1.48-2.61-2.52-4.52-2.72-2.97-.3-5.66,1.54-6.54,4.28l-51.48-5.28c4.42-.9,8.73-2.76,12.12-5.17,2.7-1.92,5.09-4.35,8.13-5.66,3.04-1.31,7.11-1.12,9.06,1.56-.17-1.68-1.27-3.16-2.67-4.11-1.4-.94-3.07-1.4-4.74-1.66-3.8-.6-7.95-.15-11,2.2.55-3.54-1.78-7.4-5.25-8.26s-7.5,1.75-7.83,5.32c-.09.96.16,2.08,1.02,2.51-.06-1.16,1.2-2.12,2.36-1.96,1.16.16,2.06,1.19,2.33,2.33.27,1.13,0,2.34-.45,3.41-1.4,3.28-4.45,5.5-7.67,6.79-.61.24-3.2,1.03-4.54,1.76l-18.92-1.94c3.28-.75,6.45-2.16,8.96-3.96,2.13-1.52,4.03-3.44,6.43-4.47,2.41-1.04,5.63-.89,7.16,1.23-.13-1.33-1-2.5-2.11-3.25-1.11-.75-2.43-1.11-3.74-1.31-3-.47-6.29-.12-8.7,1.74.43-2.8-1.4-5.85-4.15-6.53-2.75-.68-5.93,1.39-6.19,4.2-.07.76.13,1.65.81,1.99-.05-.92.95-1.68,1.86-1.55.91.13,1.63.94,1.84,1.84.21.9,0,1.85-.36,2.7-1.11,2.59-3.52,4.35-6.07,5.37-.44.18-2.16.7-3.27,1.23l-12.56-1.29c2.32-.62,4.54-1.66,6.34-2.94,1.68-1.2,3.18-2.71,5.07-3.53,1.9-.82,4.44-.7,5.65.97-.11-1.05-.79-1.97-1.66-2.56-.87-.59-1.91-.87-2.95-1.04-2.37-.37-4.96-.09-6.86,1.37.34-2.21-1.11-4.61-3.27-5.15-2.17-.54-4.67,1.09-4.88,3.32-.06.6.1,1.3.64,1.57-.04-.73.75-1.32,1.47-1.22s1.28.74,1.45,1.45,0,1.46-.28,2.13c-.87,2.04-2.77,3.43-4.79,4.23-.29.11-1.28.42-2.1.76l-18.57-1.9-8.42-10.54c-2.29,3.12-24.19,7.77-26.41,8.24l-.18-.02s.03.01.09.04c-.06.01-.09.02-.09.02l.18.02c2.08.91,22.58,9.91,24.19,13.43l10.42-8.65,18.61,1.91c.73.49,1.58.96,1.84,1.13,1.81,1.19,3.39,2.94,3.83,5.12.14.71.15,1.48-.15,2.14s-.99,1.18-1.72,1.13-1.38-.79-1.19-1.49c-.58.15-.88.81-.94,1.4-.25,2.22,1.88,4.32,4.11,4.24,2.23-.09,4.14-2.15,4.25-4.38,1.56,1.82,4.04,2.62,6.44,2.73,1.05.05,2.13-.02,3.1-.42.97-.4,1.83-1.17,2.15-2.17-1.53,1.39-4.04.99-5.73-.19-1.69-1.18-2.85-2.97-4.25-4.48-1.48-1.59-3.4-3.03-5.51-4.11l12.52,1.28c.98.73,2.51,1.57,2.89,1.82,2.29,1.51,4.3,3.73,4.85,6.49.18.9.19,1.88-.2,2.71-.39.84-1.26,1.49-2.18,1.43-.92-.06-1.75-1-1.51-1.89-.74.19-1.11,1.02-1.2,1.78-.31,2.81,2.38,5.48,5.21,5.37,2.83-.11,5.25-2.72,5.39-5.55,1.98,2.31,5.13,3.32,8.16,3.47,1.33.06,2.7-.02,3.93-.53,1.23-.51,2.33-1.48,2.73-2.75-1.94,1.76-5.12,1.26-7.26-.25-2.15-1.5-3.61-3.77-5.39-5.69-2.08-2.24-4.85-4.24-7.86-5.64l18.86,1.93c1.18.99,3.5,2.25,4.04,2.6,2.9,1.91,5.43,4.71,6.14,8.2.23,1.14.25,2.37-.25,3.43-.49,1.06-1.59,1.89-2.75,1.81-1.16-.08-2.21-1.27-1.91-2.4-.93.24-1.41,1.29-1.51,2.25-.4,3.56,3.01,6.93,6.59,6.8s6.64-3.44,6.82-7.02c2.5,2.92,6.48,4.2,10.32,4.38,1.68.08,3.41-.03,4.97-.67,1.56-.64,2.94-1.87,3.45-3.48-2.45,2.23-6.47,1.59-9.19-.31-2.71-1.9-4.57-4.76-6.82-7.19-2.8-3.02-6.6-5.69-10.69-7.47l51.35,5.26c.3,2.86,2.56,5.21,5.53,5.52,1.91.2,3.71-.5,4.98-1.75,1-.98,1.54-2.33,1.68-3.72l.02-.16Z"/>
  </g>
</svg>