<svg width="379" height="374" viewBox="0 0 379 374" fill="none" xmlns="http://www.w3.org/2000/svg">
<g filter="url(#filter0_dii_200_476)">
<path d="M53.9346 207.856C62.3294 207.856 69.1347 214.662 69.1348 223.057V245.635C69.1348 254.03 62.3295 260.835 53.9346 260.835C45.5397 260.835 38.7344 254.03 38.7344 245.635V237.59C38.95 237.634 39.1737 237.657 39.4023 237.657H52.6064C54.435 237.657 55.917 236.174 55.917 234.346C55.9169 232.517 54.4349 231.035 52.6064 231.035H39.4023C39.1737 231.035 38.95 231.057 38.7344 231.102V223.057C38.7344 214.662 45.5398 207.856 53.9346 207.856Z" fill="url(#paint0_linear_200_476)"/>
</g>
<g filter="url(#filter1_dii_200_476)">
<path d="M49.6389 209.168C49.6389 208.443 49.0498 207.848 48.3309 207.935C47.3482 208.054 46.3842 208.307 45.4659 208.688C44.1429 209.237 42.9408 210.042 41.9282 211.057C40.9157 212.071 40.1124 213.276 39.5644 214.602C39.1834 215.524 38.9309 216.491 38.8125 217.478C38.7263 218.195 39.3202 218.783 40.0429 218.783V218.783C40.7656 218.783 41.341 218.194 41.4541 217.48C41.556 216.838 41.7329 216.209 41.9823 215.605C42.3988 214.598 43.0092 213.682 43.7788 212.911C44.5484 212.14 45.462 211.528 46.4675 211.111C47.068 210.862 47.6943 210.685 48.3332 210.583C49.0483 210.468 49.6389 209.892 49.6389 209.168V209.168Z" fill="url(#paint1_linear_200_476)"/>
</g>
<g filter="url(#filter2_dii_200_476)">
<path d="M40.0429 249.908C39.3202 249.908 38.7263 250.496 38.8125 251.214C38.9309 252.2 39.1834 253.168 39.5644 254.09C40.1124 255.416 40.9157 256.62 41.9282 257.635C42.9408 258.649 44.1429 259.454 45.4659 260.003C46.3842 260.385 47.3482 260.637 48.3309 260.756C49.0498 260.843 49.6389 260.248 49.6389 259.524V259.524C49.6389 258.8 49.0483 258.223 48.3332 258.109C47.6943 258.007 47.068 257.83 46.4675 257.581C45.462 257.163 44.5484 256.552 43.7788 255.78C43.0092 255.009 42.3988 254.094 41.9823 253.086C41.7329 252.483 41.556 251.854 41.4541 251.212C41.341 250.498 40.7656 249.908 40.0429 249.908V249.908Z" fill="url(#paint2_linear_200_476)"/>
</g>
<g filter="url(#filter3_dii_200_476)">
<path d="M310.357 260.835C301.962 260.835 295.157 254.03 295.157 245.635L295.157 223.057C295.157 214.662 301.962 207.857 310.357 207.857C318.752 207.857 325.557 214.662 325.557 223.057L325.557 245.635C325.557 254.03 318.752 260.835 310.357 260.835ZM317.626 242.955C319.451 242.955 320.931 241.475 320.931 239.651L320.931 229.041C320.931 227.216 319.451 225.737 317.626 225.737C315.801 225.737 314.322 227.216 314.322 229.041L314.322 239.651C314.322 241.475 315.802 242.955 317.626 242.955Z" fill="url(#paint3_linear_200_476)"/>
</g>
<g filter="url(#filter4_dii_200_476)">
<path d="M314.653 259.524C314.653 260.248 315.242 260.843 315.961 260.756C316.943 260.637 317.907 260.385 318.826 260.003C320.149 259.454 321.351 258.649 322.363 257.635C323.376 256.62 324.179 255.416 324.727 254.09C325.108 253.168 325.361 252.2 325.479 251.214C325.565 250.496 324.971 249.908 324.249 249.908V249.908C323.526 249.908 322.951 250.498 322.837 251.211C322.736 251.853 322.559 252.483 322.309 253.086C321.893 254.094 321.282 255.009 320.513 255.78C319.743 256.552 318.83 257.163 317.824 257.581C317.224 257.83 316.597 258.007 315.958 258.109C315.243 258.223 314.653 258.8 314.653 259.524V259.524Z" fill="url(#paint4_linear_200_476)"/>
</g>
<g filter="url(#filter5_dii_200_476)">
<path d="M324.249 218.783C324.971 218.783 325.565 218.195 325.479 217.478C325.361 216.491 325.108 215.524 324.727 214.602C324.179 213.276 323.376 212.071 322.363 211.057C321.351 210.042 320.149 209.237 318.826 208.688C317.907 208.307 316.943 208.054 315.961 207.935C315.242 207.848 314.653 208.443 314.653 209.168V209.168C314.653 209.892 315.243 210.468 315.958 210.583C316.597 210.685 317.224 210.862 317.824 211.111C318.83 211.528 319.743 212.14 320.513 212.911C321.282 213.682 321.893 214.598 322.309 215.605C322.559 216.209 322.736 216.838 322.837 217.48C322.951 218.194 323.526 218.783 324.249 218.783V218.783Z" fill="url(#paint5_linear_200_476)"/>
</g>
<g filter="url(#filter6_dii_200_476)">
<rect x="153.067" y="335.668" width="59.4794" height="35.0984" rx="8" fill="url(#paint6_linear_200_476)"/>
</g>
<path d="M189.415 355.535C189.415 351.877 186.457 348.912 182.807 348.912C179.157 348.912 176.198 351.877 176.198 355.535C176.198 359.192 179.157 362.157 182.807 362.157C186.457 362.157 189.415 359.192 189.415 355.535Z" fill="url(#paint7_linear_200_476)"/>
<g filter="url(#filter7_dii_200_476)">
<path d="M189.415 355.535C189.415 351.877 186.457 348.912 182.807 348.912C179.157 348.912 176.198 351.877 176.198 355.535C176.198 359.192 179.157 362.157 182.807 362.157C186.457 362.157 189.415 359.192 189.415 355.535Z" fill="url(#paint8_linear_200_476)"/>
</g>
<path d="M184.046 350.982L184.046 354.293L187.35 354.293L187.35 356.776L184.046 356.776L184.046 360.088L181.568 360.088L181.568 356.776L178.263 356.776L178.263 354.293L181.568 354.293L181.568 350.982L184.046 350.982Z" fill="url(#paint9_linear_200_476)"/>
<g filter="url(#filter8_i_200_476)">
<path d="M183.633 359.674L183.633 356.362L186.937 356.362L186.937 354.707L183.633 354.707L183.633 351.396L181.981 351.396L181.981 354.707L178.676 354.707L178.676 356.362L181.981 356.362L181.981 359.674L183.633 359.674Z" fill="#666D74"/>
</g>
<g filter="url(#filter9_diii_200_476)">
<rect x="46.665" y="121.766" width="270.962" height="223.835" rx="16" fill="url(#paint10_linear_200_476)"/>
</g>
<g filter="url(#filter10_i_200_476)">
<path d="M142.832 239.012C143.266 238.635 143.925 238.682 144.311 239.116C145.169 240.07 146.94 241.515 149.804 241.515C151.792 241.515 154.533 240.722 154.533 238.332C154.533 236.264 152.31 235.622 149.484 234.989C145.508 234.102 143.049 232.591 143.049 229.569C143.049 226.981 145.47 224.432 149.436 224.432C152.178 224.432 154.072 225.489 155.07 226.245C155.551 226.604 155.626 227.302 155.221 227.756C154.872 228.143 154.288 228.218 153.864 227.907C153.045 227.312 151.528 226.471 149.436 226.471C146.978 226.471 145.15 227.708 145.15 229.578C145.15 231.807 147.533 232.449 150.595 233.12C153.968 233.875 156.672 235.074 156.672 238.332C156.672 241.798 153.214 243.545 149.794 243.545C146.064 243.545 143.774 241.675 142.729 240.542C142.324 240.098 142.371 239.409 142.823 239.022L142.832 239.012ZM177.492 233.988C177.492 233.988 177.492 233.988 177.492 233.998C177.492 234.451 177.125 234.819 176.663 234.819H161.834C161.995 237.567 164.256 241.505 169.06 241.505C171.397 241.505 173.309 240.41 174.6 239.135C174.986 238.748 175.617 238.767 175.994 239.154C176.371 239.541 176.371 240.164 175.994 240.552C174.232 242.299 171.698 243.536 169.07 243.536C163.672 243.536 159.771 239.154 159.771 233.979C159.771 228.804 163.304 224.432 168.712 224.432C173.516 224.432 177.492 228.417 177.492 233.988ZM175.344 232.912C175.269 230.844 173.479 226.462 168.712 226.462C163.662 226.462 161.995 230.919 161.919 232.912H175.344ZM196.635 231.476V242.025C196.635 242.601 196.174 243.064 195.599 243.064C195.024 243.064 194.563 242.601 194.563 242.025V231.788C194.563 228.048 192.377 226.452 189.438 226.452C185.425 226.452 183.832 230.513 183.832 230.513V242.025C183.832 242.601 183.371 243.064 182.796 243.064C182.221 243.064 181.76 242.601 181.76 242.025V225.839C181.76 225.319 182.174 224.904 182.692 224.904C183.211 224.904 183.625 225.319 183.625 225.839V228.209C183.625 228.209 185.377 224.422 189.824 224.422C193.197 224.422 196.617 226.528 196.617 231.467L196.635 231.476ZM201.4 239.012C201.833 238.635 202.493 238.682 202.879 239.116C203.736 240.07 205.508 241.515 208.371 241.515C210.359 241.515 213.101 240.722 213.101 238.332C213.101 236.264 210.877 235.622 208.051 234.989C204.076 234.111 201.617 232.6 201.617 229.578C201.617 226.991 204.038 224.441 208.013 224.441C210.755 224.441 212.649 225.499 213.647 226.254C214.128 226.613 214.203 227.312 213.798 227.765C213.449 228.152 212.865 228.228 212.441 227.916C211.622 227.321 210.105 226.481 208.013 226.481C205.555 226.481 203.727 227.718 203.727 229.588C203.727 231.816 206.11 232.459 209.172 233.129C212.545 233.885 215.249 235.084 215.249 238.342C215.249 241.808 211.791 243.555 208.371 243.555C204.641 243.555 202.351 241.685 201.306 240.552C200.901 240.108 200.948 239.418 201.4 239.031V239.012ZM219.985 225.942V242.034C219.985 242.61 220.447 243.073 221.021 243.073C221.596 243.073 222.058 242.61 222.058 242.034V225.942C222.058 225.366 221.596 224.904 221.021 224.904C220.447 224.904 219.985 225.366 219.985 225.942Z" fill="#E9ECEE"/>
</g>
<g filter="url(#filter11_d_200_476)">
<path d="M186.289 136.298C183.706 136.298 182.226 136.298 182.226 136.298C182.146 136.298 182.057 136.298 181.964 136.298H178.184C171.183 136.298 157.202 136.254 142.205 135.971C117.922 135.511 91.2978 134.563 87.9929 134.317C80.2748 133.744 74.7895 128.265 74.0278 120.373C73.7779 117.787 72.9879 106.454 72.6091 95.0565C72.2061 82.6905 72.2061 70.389 72.2061 70.268C72.2061 70.147 72.2061 57.8415 72.6091 45.4755C72.9879 34.0818 73.7779 22.7487 74.0278 20.1585C74.7895 12.2628 80.2748 6.7879 87.9929 6.21499C91.2978 5.96888 117.922 5.00461 142.205 4.56081C157.198 4.27839 171.183 4.23804 178.184 4.23804H182.243C182.33 4.23165 182.417 4.23165 182.505 4.23804H186.289C193.286 4.23804 207.271 4.27839 222.264 4.56081C246.547 5.02075 273.171 5.96888 276.476 6.21499C284.198 6.7879 289.68 12.2669 290.441 20.1585C290.691 22.7487 291.481 34.0818 291.86 45.4755C292.263 57.8415 292.263 70.1429 292.263 70.268C292.263 70.3931 292.263 82.6945 291.86 95.0565C291.481 106.454 290.691 117.787 290.441 120.373C289.68 128.273 284.198 133.744 276.476 134.317C273.171 134.563 246.547 135.527 222.264 135.971C207.271 136.254 193.286 136.298 186.289 136.298Z" fill="#E9ECEE"/>
<path d="M292.098 45.4674C291.719 34.0657 290.929 22.7285 290.679 20.1343C289.901 12.1176 284.335 6.56196 276.492 5.98098C273.188 5.73487 246.559 4.77061 222.268 4.3268C207.275 4.04438 193.29 4 186.285 4H182.255C182.255 4 180.776 4 178.196 4C171.192 4 157.206 4.04438 142.213 4.3268C117.922 4.78271 91.2939 5.73487 87.989 5.98098C80.1459 6.56196 74.5801 12.1176 73.8022 20.1343C73.5523 22.7285 72.7664 34.0697 72.3835 45.4674C71.9805 57.8415 71.9805 70.1429 71.9805 70.268C71.9805 70.3931 71.9805 82.6945 72.3835 95.0646C72.7865 106.462 73.5523 117.807 73.8022 120.398C74.5801 128.414 80.1459 133.97 87.989 134.555C91.2939 134.801 117.922 135.765 142.213 136.205C157.206 136.488 171.192 136.532 178.196 136.532H182.227C182.227 136.532 183.706 136.532 186.285 136.532C193.29 136.532 207.275 136.488 222.268 136.205C246.559 135.749 273.188 134.801 276.492 134.555C284.335 133.97 289.901 128.414 290.679 120.398C290.929 117.807 291.719 106.466 292.098 95.0646C292.501 82.6986 292.501 70.389 292.501 70.268C292.501 70.147 292.509 57.8375 292.098 45.4674ZM186.285 136.06H182.464V136.02L182.202 136.048C182.123 136.052 182.044 136.052 181.965 136.048H178.184C171.183 136.048 157.202 136.003 142.209 135.721C117.926 135.265 91.3141 134.317 88.0132 134.071C80.4079 133.51 75.0113 128.116 74.2617 120.353C74.0118 117.767 73.2218 106.442 72.843 95.0525C72.4399 82.6905 72.4399 70.3931 72.4399 70.272C72.4399 70.151 72.4399 57.8496 72.843 45.4916C73.2218 34.098 74.0118 22.7729 74.2617 20.1867C75.0113 12.4081 80.4079 7.01787 88.0132 6.46916C91.3141 6.22306 117.926 5.25879 142.209 4.81499C157.202 4.53257 171.183 4.48818 178.184 4.48818H182.005V4.53256L182.267 4.50432C182.346 4.4999 182.425 4.4999 182.505 4.50432H186.285C193.286 4.50432 207.267 4.5487 222.26 4.83112C246.543 5.28703 273.155 6.23919 276.46 6.4853C284.061 7.04611 289.454 12.4363 290.208 20.2029C290.458 22.789 291.247 34.1141 291.626 45.5078C292.029 57.8657 292.029 70.1631 292.029 70.2882C292.029 70.4133 292.029 82.7107 291.626 95.0686C291.247 106.462 290.458 117.787 290.208 120.369C289.454 128.148 284.061 133.542 276.46 134.087C273.155 134.333 246.543 135.297 222.26 135.737C207.267 136.016 193.286 136.06 186.285 136.06Z" fill="url(#paint11_linear_200_476)"/>
<path d="M186.289 135.354H178.184C171.187 135.354 157.226 135.314 142.225 135.031C117.954 134.571 91.3622 133.623 88.0654 133.377C80.8107 132.84 75.6801 127.7 74.9627 120.285C74.7128 117.703 73.9269 106.402 73.5481 95.0242C73.145 82.7106 73.145 70.389 73.145 70.268C73.145 70.147 73.145 57.8253 73.5481 45.5078C73.9269 34.1343 74.7128 22.8294 74.9627 20.2513C75.6801 12.8317 80.8228 7.69164 88.0654 7.15505C91.3622 6.90894 117.954 5.94467 142.225 5.5049C157.21 5.22248 171.187 5.1781 178.184 5.1781C180.763 5.1781 182.238 5.1781 182.238 5.1781C182.238 5.1781 183.706 5.1781 186.269 5.1781C193.261 5.1781 207.227 5.22248 222.224 5.5049C246.498 5.96081 273.091 6.90894 276.387 7.15505C283.642 7.69164 288.769 12.8317 289.486 20.2513C289.736 22.8294 290.522 34.1343 290.901 45.5078C291.304 57.8253 291.304 70.1429 291.304 70.268C291.304 70.3931 291.304 82.7106 290.901 95.0242C290.522 106.402 289.736 117.703 289.486 120.285C288.769 127.7 283.626 132.84 276.387 133.377C273.091 133.623 246.498 134.587 222.224 135.031C207.259 135.334 193.282 135.354 186.289 135.354Z" fill="url(#paint12_linear_200_476)"/>
<path d="M255.374 27.7057H109.094C107.99 27.7057 107.094 28.6011 107.094 29.7057V110.826C107.094 111.93 107.99 112.826 109.094 112.826H255.374C256.479 112.826 257.374 111.93 257.374 110.826V29.7057C257.374 28.6011 256.479 27.7057 255.374 27.7057Z" fill="black"/>
<path d="M243.23 98.6391C246.16 98.6391 248.534 96.2572 248.534 93.3191C248.534 90.3809 246.16 87.9991 243.23 87.9991C240.301 87.9991 237.926 90.3809 237.926 93.3191C237.926 96.2572 240.301 98.6391 243.23 98.6391Z" fill="#343A40"/>
<path d="M243.23 77.3591C247.136 77.3591 250.302 74.1833 250.302 70.2657C250.302 66.3482 247.136 63.1724 243.23 63.1724C239.324 63.1724 236.158 66.3482 236.158 70.2657C236.158 74.1833 239.324 77.3591 243.23 77.3591Z" fill="white"/>
<path d="M243.23 52.5324C246.16 52.5324 248.534 50.1506 248.534 47.2124C248.534 44.2742 246.16 41.8924 243.23 41.8924C240.301 41.8924 237.926 44.2742 237.926 47.2124C237.926 50.1506 240.301 52.5324 243.23 52.5324Z" fill="#343A40"/>
<path d="M126.542 65.669C126.542 62.3314 123.772 59.6257 120.354 59.6257C116.936 59.6257 114.166 62.3314 114.166 65.669V76.6358C114.166 79.9734 116.936 82.6791 120.354 82.6791C123.772 82.6791 126.542 79.9734 126.542 76.6358V65.669Z" fill="white"/>
<path d="M212.901 90.9536C212.806 90.8525 212.689 90.7733 212.56 90.7216C212.431 90.67 212.291 90.6472 212.152 90.6548H193.829C193.127 90.655 192.425 90.6955 191.728 90.776C191.062 90.851 190.402 90.9711 189.753 91.1354L203.039 77.6875C204.261 76.4558 205.417 75.2645 206.517 74.0893C207.596 72.9511 208.578 71.726 209.452 70.4265C210.276 69.2167 210.942 67.9087 211.435 66.5335C211.944 65.1074 212.198 63.604 212.184 62.0913C212.224 60.3838 211.886 58.6884 211.195 57.1241C210.579 55.7559 209.656 54.5458 208.495 53.5864C207.355 52.6238 206.028 51.9048 204.595 51.4744C203.104 50.9927 201.545 50.7514 199.977 50.7596C198.326 50.7461 196.684 51.0068 195.119 51.5309C193.667 52.0026 192.321 52.7517 191.158 53.7359C189.998 54.7346 189.043 55.9452 188.344 57.3018C187.569 58.8121 187.061 60.443 186.841 62.1236L188.311 62.3619C188.63 62.413 188.957 62.3606 189.244 62.2124C189.533 62.0026 189.734 61.6952 189.81 61.3482C190.015 60.2015 190.41 59.0962 190.978 58.0771C191.537 57.0928 192.269 56.216 193.141 55.4885C194.03 54.7503 195.047 54.1771 196.142 53.7964C197.332 53.3694 198.589 53.1561 199.855 53.1664C201.057 53.1647 202.251 53.3459 203.398 53.7035C204.497 54.0339 205.517 54.5836 206.394 55.3189C207.287 56.0978 207.995 57.0632 208.467 58.1458C209.015 59.421 209.28 60.7983 209.245 62.1842C209.254 63.498 209.042 64.8042 208.618 66.0489C208.176 67.2973 207.582 68.4868 206.846 69.5906C206.06 70.7999 205.177 71.9439 204.204 73.0111C203.188 74.1365 202.08 75.3049 200.877 76.5164L186.394 91.0546C186.205 91.2226 186.051 91.4257 185.942 91.6523C185.844 91.8569 185.794 92.0803 185.795 92.3065V93.3161H213.174V91.6523C213.178 91.5236 213.156 91.3954 213.109 91.2754C213.062 91.1554 212.992 91.0459 212.901 90.9536V90.9536ZM151.294 51.2442V53.0453C151.293 53.1506 151.315 53.2549 151.357 53.3516C151.399 53.4482 151.461 53.5351 151.539 53.6066C151.612 53.6831 151.701 53.7437 151.799 53.7847C151.897 53.8257 152.002 53.8462 152.109 53.8449H176.58C176.213 54.2703 175.901 54.7398 175.652 55.2422L156.038 93.3161H158.017C158.39 93.3385 158.76 93.233 159.064 93.0173C159.346 92.8198 159.573 92.5544 159.723 92.2459L179.158 54.0226C179.267 53.8235 179.358 53.6154 179.431 53.4007C179.513 53.1103 179.553 52.8098 179.549 52.5082V51.2442H151.294Z" fill="#0093C8"/>
<path d="M165.17 20.2805C165.363 20.1054 165.657 20.1273 165.829 20.3286C166.211 20.7707 167 21.4402 168.276 21.4402C169.162 21.4402 170.383 21.0726 170.383 19.9654C170.383 19.0069 169.393 18.7093 168.134 18.4161C166.362 18.0047 165.267 17.3045 165.267 15.9041C165.267 14.7049 166.346 13.5233 168.113 13.5233C169.334 13.5233 170.178 14.0134 170.623 14.3635C170.837 14.5298 170.87 14.8537 170.69 15.0638C170.535 15.2432 170.274 15.2782 170.085 15.1338C169.72 14.8581 169.044 14.4686 168.113 14.4686C167.017 14.4686 166.203 15.0419 166.203 15.9084C166.203 16.9413 167.265 17.2389 168.629 17.5496C170.132 17.8997 171.336 18.4555 171.336 19.9654C171.336 21.5715 169.796 22.3812 168.272 22.3812C166.61 22.3812 165.59 21.5146 165.124 20.9895C164.944 20.7838 164.965 20.4643 165.166 20.2849L165.17 20.2805ZM180.612 17.9522C180.612 17.9522 180.612 17.9522 180.612 17.9566C180.612 18.1667 180.449 18.3373 180.243 18.3373H173.636C173.708 19.6109 174.715 21.4359 176.856 21.4359C177.897 21.4359 178.749 20.9282 179.324 20.3374C179.496 20.1579 179.777 20.1667 179.945 20.3461C180.113 20.5256 180.113 20.8144 179.945 20.9938C179.16 21.8035 178.031 22.3768 176.86 22.3768C174.455 22.3768 172.717 20.3461 172.717 17.9478C172.717 15.5496 174.291 13.5233 176.7 13.5233C178.841 13.5233 180.612 15.3701 180.612 17.9522ZM179.655 17.4533C179.622 16.4949 178.824 14.4642 176.7 14.4642C174.451 14.4642 173.708 16.5299 173.674 17.4533H179.655ZM189.141 16.7881V21.6766C189.141 21.9435 188.936 22.158 188.68 22.158C188.424 22.158 188.218 21.9435 188.218 21.6766V16.9325C188.218 15.1994 187.244 14.4598 185.935 14.4598C184.146 14.4598 183.437 16.3417 183.437 16.3417V21.6766C183.437 21.9435 183.231 22.158 182.975 22.158C182.719 22.158 182.514 21.9435 182.514 21.6766V14.1754C182.514 13.9347 182.698 13.7421 182.929 13.7421C183.16 13.7421 183.345 13.9347 183.345 14.1754V15.2738C183.345 15.2738 184.125 13.5189 186.107 13.5189C187.609 13.5189 189.133 14.4948 189.133 16.7837L189.141 16.7881ZM191.264 20.2805C191.457 20.1054 191.751 20.1273 191.923 20.3286C192.305 20.7707 193.094 21.4402 194.37 21.4402C195.256 21.4402 196.477 21.0726 196.477 19.9654C196.477 19.0069 195.487 18.7093 194.227 18.4161C192.456 18.0091 191.361 17.3089 191.361 15.9084C191.361 14.7093 192.439 13.5276 194.211 13.5276C195.432 13.5276 196.276 14.0178 196.721 14.3679C196.935 14.5342 196.968 14.8581 196.788 15.0681C196.632 15.2476 196.372 15.2826 196.183 15.1382C195.818 14.8625 195.142 14.473 194.211 14.473C193.115 14.473 192.301 15.0463 192.301 15.9128C192.301 16.9456 193.363 17.2432 194.727 17.554C196.229 17.9041 197.434 18.4599 197.434 19.9698C197.434 21.5759 195.894 22.3856 194.37 22.3856C192.708 22.3856 191.688 21.519 191.222 20.9938C191.042 20.7882 191.063 20.4687 191.264 20.2892V20.2805ZM199.544 14.2235V21.6809C199.544 21.9479 199.75 22.1624 200.006 22.1624C200.262 22.1624 200.468 21.9479 200.468 21.6809V14.2235C200.468 13.9565 200.262 13.7421 200.006 13.7421C199.75 13.7421 199.544 13.9565 199.544 14.2235Z" fill="url(#paint13_linear_200_476)"/>
</g>
<path d="M305.068 67.814C306.17 67.7392 307.124 68.5715 307.199 69.6734C307.274 70.7754 306.441 71.7292 305.34 71.8043C302.914 71.9694 300.473 72.1716 298.025 72.3912C296.925 72.4897 295.953 71.6777 295.854 70.5777C295.755 69.4776 296.568 68.5056 297.668 68.4068C300.134 68.1856 302.605 67.9818 305.068 67.814ZM316.254 67.3658C318.776 67.3517 321.281 67.4077 323.757 67.5562C324.86 67.6223 325.7 68.57 325.634 69.6724C325.568 70.775 324.621 71.6155 323.518 71.5494C321.141 71.4068 318.724 71.3521 316.275 71.3658C315.171 71.3717 314.271 70.4818 314.264 69.3775C314.258 68.273 315.149 67.372 316.254 67.3658ZM332.652 70.5464C332.875 69.4645 333.932 68.7682 335.014 68.9908C337.52 69.5064 339.98 70.1643 342.381 70.9918C343.425 71.3517 343.979 72.4896 343.62 73.5338C343.26 74.578 342.121 75.1329 341.077 74.773C338.854 74.0069 336.562 73.3922 334.208 72.9078C333.126 72.6851 332.43 71.6282 332.652 70.5464ZM350.001 76.5757C350.595 75.6445 351.831 75.3715 352.762 75.9654C353.838 76.6515 354.894 77.3875 355.927 78.1763C357.087 79.0615 358.202 79.9959 359.27 80.9761C360.084 81.7229 360.139 82.9884 359.392 83.8023C358.645 84.6162 357.38 84.6711 356.566 83.9244C355.585 83.0241 354.563 82.1666 353.501 81.356C352.557 80.636 351.594 79.9638 350.612 79.3375C349.681 78.7435 349.407 77.507 350.001 76.5757ZM364.89 90.3365C365.814 89.7309 367.053 89.9889 367.659 90.9127C369.231 93.3117 370.63 95.8394 371.856 98.4644C372.323 99.4651 371.891 100.655 370.89 101.123C369.89 101.59 368.7 101.157 368.232 100.157C367.082 97.6957 365.777 95.3359 364.314 93.105C363.709 92.1813 363.967 90.942 364.89 90.3365ZM373.739 109.174C374.809 108.901 375.898 109.548 376.172 110.618C376.877 113.382 377.425 116.199 377.818 119.041C377.969 120.135 377.206 121.145 376.112 121.296C375.018 121.448 374.008 120.684 373.856 119.589C373.483 116.892 372.963 114.222 372.296 111.607C372.022 110.537 372.669 109.447 373.739 109.174ZM376.596 129.824C377.701 129.849 378.576 130.765 378.55 131.87C378.484 134.74 378.264 137.599 377.892 140.418C377.748 141.513 376.743 142.284 375.648 142.139C374.553 141.995 373.782 140.989 373.926 139.894C374.279 137.22 374.489 134.506 374.551 131.778C374.577 130.674 375.492 129.799 376.596 129.824ZM371.303 151.782C371.637 150.729 372.761 150.146 373.814 150.48C374.867 150.814 375.45 151.939 375.116 152.992C374.235 155.767 373.186 158.455 371.968 161.025C371.496 162.023 370.304 162.449 369.305 161.976C368.307 161.503 367.881 160.311 368.354 159.313C369.49 156.915 370.474 154.395 371.303 151.782ZM361.97 169.497C362.672 168.644 363.932 168.52 364.785 169.221C365.638 169.923 365.761 171.183 365.06 172.037C364.132 173.166 363.155 174.248 362.131 175.276C361.328 176.081 360.472 176.835 359.546 177.542C358.667 178.211 357.412 178.043 356.742 177.165C356.072 176.286 356.242 175.032 357.12 174.362C357.899 173.767 358.62 173.133 359.298 172.453C360.229 171.518 361.121 170.531 361.97 169.497ZM349.257 178.426C350.299 178.058 351.441 178.602 351.81 179.643C352.179 180.684 351.634 181.828 350.592 182.197C348.706 182.865 346.625 183.469 344.313 184.029C343.24 184.289 342.159 183.63 341.899 182.556C341.639 181.483 342.298 180.401 343.372 180.141C345.579 179.607 347.526 179.04 349.257 178.426ZM334.19 181.947C335.28 181.77 336.308 182.51 336.485 183.6C336.662 184.69 335.923 185.718 334.833 185.895C333.813 186.061 332.758 186.224 331.668 186.385C329.723 186.673 327.904 186.794 326.193 186.771C325.089 186.756 324.206 185.849 324.22 184.745C324.235 183.64 325.142 182.757 326.247 182.772C327.73 182.792 329.335 182.687 331.084 182.428C332.157 182.27 333.192 182.109 334.19 181.947ZM302.929 173.025C303.718 172.251 304.984 172.263 305.757 173.051C306.588 173.897 307.526 174.715 308.597 175.491C309.998 176.505 311.352 177.482 312.753 178.385C313.681 178.984 313.948 180.222 313.349 181.15C312.751 182.078 311.513 182.345 310.585 181.747C309.079 180.776 307.642 179.737 306.252 178.73C304.996 177.821 303.887 176.856 302.903 175.853C302.129 175.065 302.141 173.799 302.929 173.025ZM295.487 155.12C296.584 154.995 297.576 155.783 297.701 156.88C297.803 157.781 298.016 158.665 298.362 159.529C298.606 160.138 298.849 160.769 299.091 161.401C299.336 162.038 299.583 162.68 299.844 163.332C300.255 164.357 299.757 165.521 298.732 165.932C297.707 166.343 296.543 165.845 296.132 164.82C295.858 164.138 295.602 163.47 295.358 162.836C295.112 162.196 294.88 161.594 294.649 161.017C294.161 159.799 293.866 158.563 293.726 157.333C293.601 156.235 294.39 155.245 295.487 155.12ZM299.341 140.583C300.141 139.82 301.407 139.851 302.17 140.65C302.932 141.449 302.902 142.716 302.102 143.478C301.461 144.09 300.957 144.751 300.593 145.472C300.135 146.381 299.69 147.329 299.29 148.304C298.87 149.326 297.701 149.814 296.679 149.394C295.658 148.974 295.17 147.805 295.59 146.784C296.039 145.69 296.53 144.647 297.022 143.671C297.616 142.493 298.411 141.47 299.341 140.583ZM311.839 134.97C312.982 134.706 314.163 134.732 315.321 134.951C316.406 135.156 317.12 136.201 316.916 137.287C316.711 138.372 315.664 139.086 314.579 138.881C313.842 138.742 313.235 138.753 312.74 138.868C311.72 139.104 310.722 139.359 309.76 139.642C308.701 139.954 307.588 139.348 307.276 138.289C306.964 137.229 307.571 136.117 308.631 135.805C309.683 135.495 310.759 135.22 311.839 134.97ZM320.466 139.317C321.138 138.44 322.393 138.274 323.27 138.946C324.001 139.506 324.729 140.111 325.448 140.752C327.01 142.145 328.096 143.88 328.847 145.753C329.258 146.779 328.76 147.943 327.735 148.354C326.71 148.765 325.545 148.267 325.134 147.242C324.561 145.812 323.793 144.635 322.786 143.737C322.135 143.156 321.483 142.616 320.838 142.121C319.961 141.449 319.795 140.194 320.466 139.317ZM328.47 159.863C329.573 159.921 330.42 160.862 330.362 161.965C330.261 163.871 330.148 165.576 330.104 167.089C330.059 168.647 329.769 170.167 329.307 171.628C328.974 172.681 327.851 173.264 326.798 172.931C325.744 172.598 325.161 171.475 325.494 170.421C325.861 169.261 326.073 168.109 326.106 166.973C326.152 165.397 326.271 163.581 326.368 161.754C326.426 160.652 327.367 159.805 328.47 159.863ZM319.523 179.993C320.258 179.168 321.521 179.095 322.346 179.829C323.171 180.563 323.245 181.828 322.51 182.653C321.546 183.736 320.562 184.752 319.608 185.689C318.684 186.596 317.541 187.281 316.269 187.81C315.249 188.234 314.078 187.752 313.654 186.732C313.23 185.712 313.713 184.542 314.732 184.118C315.671 183.727 316.34 183.292 316.805 182.835C317.709 181.947 318.63 180.996 319.523 179.993ZM305.898 185.747C307 185.666 307.958 186.494 308.039 187.595C308.119 188.697 307.292 189.655 306.19 189.736C304.183 189.883 301.998 189.969 299.66 190.021C298.556 190.046 297.64 189.17 297.615 188.066C297.59 186.962 298.466 186.047 299.57 186.022C301.871 185.971 303.982 185.887 305.898 185.747ZM282.874 186.025C284.132 186.092 285.417 186.124 286.727 186.119C287.824 186.115 288.899 186.112 289.95 186.109C291.054 186.106 291.952 186.999 291.956 188.103C291.959 189.208 291.066 190.106 289.962 190.109C288.91 190.112 287.837 190.115 286.742 190.119C285.357 190.124 283.996 190.091 282.66 190.019C281.557 189.96 280.71 189.018 280.769 187.915C280.828 186.812 281.771 185.966 282.874 186.025ZM261.879 183.12C262.295 182.097 263.462 181.605 264.485 182.021C266.771 182.952 269.157 183.738 271.652 184.364C272.723 184.633 273.373 185.719 273.104 186.791C272.835 187.862 271.749 188.513 270.677 188.244C268 187.572 265.436 186.727 262.977 185.726C261.954 185.31 261.462 184.143 261.879 183.12ZM245.659 172.262C246.382 171.427 247.645 171.336 248.48 172.059C250.408 173.728 252.412 175.273 254.502 176.68C255.418 177.297 255.66 178.54 255.044 179.456C254.427 180.372 253.183 180.615 252.267 179.998C250.035 178.494 247.903 176.851 245.862 175.084C245.027 174.361 244.936 173.097 245.659 172.262ZM232.822 157.495C233.709 156.837 234.962 157.022 235.62 157.909C237.169 159.998 238.765 162.005 240.416 163.919C241.137 164.756 241.044 166.019 240.208 166.741C239.371 167.462 238.109 167.369 237.387 166.533C235.665 164.537 234.008 162.451 232.407 160.293C231.749 159.405 231.935 158.153 232.822 157.495ZM222.397 140.896C223.355 140.346 224.577 140.677 225.128 141.634C226.432 143.905 227.758 146.133 229.115 148.306C229.699 149.243 229.414 150.476 228.477 151.061C227.54 151.646 226.306 151.361 225.721 150.424C224.335 148.203 222.983 145.933 221.659 143.627C221.109 142.669 221.439 141.446 222.397 140.896ZM213.189 123.587C214.171 123.081 215.377 123.467 215.883 124.449C217.084 126.778 218.286 129.093 219.5 131.385C220.016 132.362 219.644 133.572 218.668 134.088C217.691 134.605 216.481 134.233 215.964 133.256C214.742 130.946 213.532 128.618 212.328 126.282C211.822 125.3 212.207 124.094 213.189 123.587ZM204.174 106.177C205.151 105.661 206.361 106.034 206.878 107.01C208.102 109.324 209.311 111.653 210.511 113.983C211.017 114.965 210.632 116.171 209.65 116.677C208.668 117.183 207.462 116.797 206.956 115.815C205.758 113.492 204.556 111.177 203.341 108.88C202.825 107.904 203.198 106.694 204.174 106.177ZM194.393 89.1929C195.332 88.611 196.565 88.8998 197.147 89.8384C198.528 92.0657 199.873 94.3358 201.189 96.6353C201.738 97.5938 201.405 98.8151 200.447 99.3638C199.488 99.9126 198.266 99.5811 197.717 98.6226C196.42 96.3573 195.099 94.1278 193.747 91.9459C193.165 91.0072 193.455 89.7749 194.393 89.1929ZM182.8 73.4078C183.647 72.6985 184.908 72.8101 185.618 73.6568C187.311 75.6782 188.942 77.7771 190.519 79.94C191.17 80.8325 190.973 82.0833 190.081 82.734C189.188 83.3846 187.937 83.1889 187.287 82.2965C185.757 80.1985 184.181 78.1707 182.551 76.2252C181.842 75.3785 181.954 74.117 182.8 73.4078ZM168.332 60.2466C168.986 59.3571 170.239 59.167 171.129 59.8218C173.29 61.4132 175.358 63.1272 177.341 64.9468C178.155 65.6935 178.21 66.9581 177.464 67.772C176.717 68.586 175.451 68.6408 174.637 67.8941C172.752 66.165 170.796 64.5439 168.757 63.0435C167.868 62.3887 167.677 61.1362 168.332 60.2466ZM150.058 51.4732C150.421 50.4298 151.561 49.8772 152.604 50.2398C154.097 50.7588 155.581 51.3153 157.054 51.9117C158.319 52.4237 159.557 52.9741 160.769 53.5591C161.764 54.0392 162.182 55.2344 161.702 56.2291C161.222 57.2238 160.026 57.6409 159.031 57.1607C157.896 56.613 156.737 56.0989 155.553 55.6197C154.144 55.0492 152.723 54.5158 151.291 54.0181C150.248 53.6554 149.696 52.5164 150.058 51.4732ZM129.567 44.9488C132.694 45.3603 135.804 45.8726 138.887 46.5045C139.969 46.7263 140.666 47.7829 140.445 48.8648C140.223 49.9467 139.166 50.6448 138.085 50.4234C135.103 49.8124 132.087 49.3149 129.046 48.9146C127.951 48.7705 127.179 47.7664 127.323 46.6714C127.467 45.5763 128.472 44.8047 129.567 44.9488ZM106.12 43.439C109.248 43.4735 112.377 43.5582 115.5 43.7125C116.603 43.767 117.454 44.7059 117.399 45.8091C117.345 46.9123 116.406 47.7621 115.302 47.7076C112.239 47.5562 109.161 47.473 106.076 47.439C104.971 47.4269 104.085 46.5211 104.097 45.4166C104.11 44.3121 105.015 43.4269 106.12 43.439ZM92.0875 43.5621C93.1917 43.5353 94.1085 44.4091 94.1354 45.5132C94.1623 46.6173 93.2892 47.534 92.1852 47.5611C90.6373 47.5988 89.0899 47.6421 87.5446 47.689C86.1831 47.7304 84.8096 47.8339 83.4264 47.9957C82.3294 48.1239 81.336 47.3379 81.2077 46.2408C81.0795 45.1439 81.8647 44.1504 82.9616 44.022C84.4542 43.8475 85.943 43.736 87.4235 43.691C88.9747 43.6438 90.5299 43.6 92.0875 43.5621ZM69.9831 47.0347C71.028 46.6774 72.1645 47.2349 72.5221 48.2798C72.8797 49.3249 72.323 50.4622 71.278 50.8199C68.6872 51.7066 66.0941 52.7684 63.5163 53.9908C62.5182 54.464 61.3255 54.0386 60.8522 53.0406C60.3789 52.0425 60.8043 50.8498 61.8024 50.3765C64.5075 49.0938 67.2406 47.9734 69.9831 47.0347ZM50.3219 56.8853C51.2432 56.2761 52.4841 56.5285 53.0934 57.4498C53.7027 58.3711 53.4493 59.6119 52.528 60.2213C50.2044 61.758 47.9185 63.4132 45.6842 65.1724C44.8165 65.8555 43.5589 65.706 42.8756 64.8384C42.1924 63.9707 42.3421 62.7132 43.2096 62.0298C45.5278 60.2046 47.9036 58.4848 50.3219 56.8853ZM33.3708 70.7496C34.1541 69.9712 35.4202 69.9753 36.1989 70.7584C36.9776 71.5418 36.9745 72.8088 36.1911 73.5875C34.1917 75.5748 32.2621 77.6415 30.4166 79.775C29.694 80.6101 28.4307 80.7016 27.5954 79.9791C26.7601 79.2565 26.6688 77.9931 27.3913 77.1578C29.3026 74.9481 31.3004 72.8075 33.3708 70.7496ZM19.3776 87.5845C19.9978 86.6705 21.2409 86.4321 22.1549 87.0523C23.0689 87.6725 23.3072 88.9156 22.6872 89.8297C21.0932 92.1788 19.6073 94.5763 18.2428 97.0074C17.7022 97.9705 16.4833 98.3126 15.5202 97.772C14.557 97.2314 14.2139 96.0126 14.7545 95.0494C16.1762 92.5163 17.7225 90.0238 19.3776 87.5845ZM9.12075 106.992C9.51587 105.96 10.6723 105.444 11.7038 105.839C12.735 106.235 13.2511 107.391 12.8561 108.422C12.3521 109.738 11.8869 111.057 11.4635 112.377C11.0735 113.592 10.7281 114.785 10.4264 115.955C10.1506 117.024 9.06041 117.668 7.99087 117.392C6.9213 117.116 6.2775 116.025 6.55337 114.956C6.87502 113.709 7.24217 112.442 7.65493 111.155C8.10153 109.763 8.59116 108.374 9.12075 106.992ZM6.86391 124.735C7.96777 124.772 8.83326 125.696 8.79653 126.8C8.71247 129.327 8.85791 131.73 9.20962 134.018C9.3774 135.11 8.62829 136.131 7.53676 136.299C6.44516 136.467 5.42352 135.718 5.25551 134.627C4.86483 132.085 4.70648 129.433 4.79848 126.668C4.83522 125.564 5.75995 124.698 6.86391 124.735ZM9.77114 143.386C10.7615 142.897 11.9608 143.304 12.4499 144.294C13.5132 146.447 14.7907 148.494 16.2604 150.444C16.9253 151.326 16.7489 152.58 15.8668 153.245C14.9848 153.909 13.7308 153.733 13.0661 152.851C11.4568 150.716 10.0444 148.457 8.86294 146.065C8.3742 145.075 8.78095 143.875 9.77114 143.386ZM21.0182 158.603C21.734 157.762 22.9963 157.661 23.8375 158.377C25.6756 159.941 27.6488 161.431 29.7379 162.853C30.6508 163.475 30.8876 164.718 30.2663 165.631C29.6446 166.544 28.4 166.78 27.487 166.159C25.2931 164.665 23.2044 163.089 21.2457 161.422C20.4045 160.707 20.3024 159.444 21.0182 158.603ZM36.6686 169.416C37.1799 168.436 38.3887 168.058 39.3678 168.569C41.5539 169.71 43.8102 170.801 46.1198 171.846C47.126 172.302 47.5724 173.487 47.1168 174.494C46.6612 175.5 45.4756 175.946 44.4694 175.491C42.0997 174.418 39.7762 173.294 37.5163 172.114C36.5372 171.603 36.1574 170.395 36.6686 169.416ZM53.9909 177.331C54.3839 176.298 55.5397 175.78 56.5719 176.172C58.922 177.067 61.2972 177.928 63.6823 178.757C64.7254 179.12 65.2767 180.26 64.9137 181.303C64.5507 182.346 63.411 182.898 62.3678 182.535C59.9518 181.694 57.5402 180.821 55.1491 179.911C54.1169 179.518 53.5981 178.363 53.9909 177.331ZM71.9782 183.631C72.3112 182.579 73.435 181.995 74.4879 182.328C76.9298 183.1 79.3564 183.849 81.7516 184.582C82.8079 184.905 83.4026 186.022 83.0797 187.079C82.7568 188.135 81.6389 188.73 80.5827 188.407C78.1808 187.672 75.7405 186.919 73.2819 186.141C72.2291 185.808 71.6452 184.684 71.9782 183.631ZM90.1862 189.237C90.5112 188.181 91.6305 187.589 92.6862 187.914C93.9204 188.294 95.1376 188.672 96.3346 189.048C97.6602 189.465 98.9833 189.83 100.301 190.148C101.375 190.407 102.036 191.487 101.777 192.561C101.518 193.635 100.438 194.296 99.3639 194.037C97.9593 193.698 96.5485 193.309 95.1344 192.864C93.9471 192.49 92.738 192.115 91.5094 191.737C90.4537 191.412 89.8613 190.293 90.1862 189.237ZM120.811 191.748C121.913 191.672 122.867 192.504 122.943 193.606C123.018 194.708 122.186 195.662 121.085 195.738C118.262 195.931 115.345 195.984 112.36 195.851C111.257 195.802 110.402 194.868 110.451 193.764C110.5 192.661 111.434 191.806 112.538 191.855C115.36 191.981 118.126 191.931 120.811 191.748ZM140.732 187.913C141.766 187.523 142.92 188.045 143.309 189.079C143.699 190.112 143.177 191.265 142.144 191.655C140.912 192.12 139.597 192.534 138.202 192.893C136.848 193.241 135.441 193.576 133.987 193.888C132.907 194.12 131.844 193.432 131.612 192.352C131.38 191.272 132.067 190.209 133.147 189.977C134.545 189.677 135.9 189.355 137.206 189.019C138.47 188.694 139.644 188.323 140.732 187.913ZM152.582 175.893C152.834 174.818 153.91 174.15 154.985 174.402C156.06 174.654 156.728 175.73 156.476 176.805C155.827 179.574 154.571 182.21 152.621 184.561C151.916 185.411 150.656 185.529 149.805 184.825C148.955 184.12 148.837 182.859 149.542 182.008C151.082 180.151 152.069 178.082 152.582 175.893ZM149.304 156.074C150.231 155.472 151.469 155.735 152.071 156.661C153.607 159.024 154.841 161.555 155.691 164.153C156.034 165.203 155.461 166.332 154.412 166.675C153.362 167.019 152.233 166.447 151.889 165.397C151.155 163.152 150.078 160.934 148.717 158.84C148.116 157.914 148.378 156.676 149.304 156.074ZM133.687 144.77C134.077 143.737 135.231 143.215 136.264 143.604C138.873 144.587 141.335 145.964 143.586 147.626C144.474 148.282 144.662 149.534 144.006 150.422C143.35 151.311 142.098 151.499 141.21 150.843C139.229 149.381 137.089 148.189 134.854 147.347C133.821 146.958 133.298 145.804 133.687 144.77ZM123.718 142.219C124.809 142.048 125.834 142.792 126.006 143.883C126.177 144.975 125.432 145.999 124.34 146.17C122.121 146.52 119.868 147.271 117.627 148.506C116.659 149.04 115.442 148.688 114.909 147.72C114.376 146.753 114.729 145.537 115.696 145.003C118.337 143.548 121.031 142.642 123.718 142.219ZM106.259 153.045C106.965 152.196 108.226 152.078 109.076 152.784C109.926 153.489 110.043 154.75 109.338 155.6C108.573 156.522 107.816 157.519 107.07 158.597C106.25 159.782 105.622 161.002 105.144 162.269C104.754 163.303 103.6 163.824 102.567 163.434C101.534 163.044 101.012 161.89 101.402 160.857C101.991 159.295 102.77 157.784 103.781 156.322C104.59 155.153 105.417 154.061 106.259 153.045ZM101.735 173.326C102.838 173.276 103.774 174.13 103.824 175.233C103.89 176.709 103.986 178.236 104.087 179.836C104.155 180.934 104.28 182 104.456 183.047C104.638 184.137 103.903 185.168 102.813 185.35C101.724 185.533 100.693 184.798 100.51 183.709C100.312 182.526 100.172 181.322 100.094 180.086C99.9945 178.495 99.8962 176.931 99.8278 175.414C99.7781 174.31 100.632 173.376 101.735 173.326ZM104.752 191.368C105.762 190.921 106.943 191.376 107.39 192.386C108.244 194.315 109.245 196.3 110.38 198.415C110.901 199.388 110.536 200.601 109.562 201.123C108.589 201.644 107.376 201.278 106.854 200.304C105.693 198.14 104.642 196.059 103.733 194.005C103.286 192.996 103.742 191.815 104.752 191.368ZM112.661 206.626C113.624 206.085 114.843 206.427 115.384 207.389C115.932 208.364 116.494 209.369 117.069 210.407C117.759 211.654 118.428 212.889 119.075 214.111C119.591 215.087 119.219 216.297 118.243 216.814C117.267 217.33 116.056 216.958 115.54 215.982C114.905 214.782 114.248 213.569 113.57 212.344C113.001 211.316 112.442 210.319 111.897 209.349C111.356 208.386 111.698 207.167 112.661 206.626ZM121.869 224.199C122.876 223.746 124.06 224.196 124.513 225.203C125.682 227.802 126.747 230.341 127.712 232.822C128.112 233.851 127.601 235.01 126.572 235.411C125.543 235.811 124.383 235.3 123.983 234.271C123.045 231.858 122.008 229.382 120.866 226.843C120.413 225.836 120.862 224.652 121.869 224.199ZM129.191 243.145C130.254 242.844 131.36 243.461 131.661 244.524C132.449 247.306 133.101 250.006 133.625 252.626C133.841 253.709 133.138 254.762 132.055 254.978C130.972 255.194 129.919 254.492 129.703 253.409C129.201 250.898 128.573 248.301 127.812 245.615C127.511 244.552 128.129 243.446 129.191 243.145ZM133.106 263.129C134.209 263.075 135.148 263.926 135.203 265.029C135.347 267.955 135.313 270.763 135.115 273.458C135.034 274.559 134.076 275.387 132.974 275.306C131.873 275.225 131.045 274.266 131.126 273.165C131.311 270.64 131.344 267.995 131.208 265.226C131.153 264.123 132.003 263.184 133.106 263.129ZM129.028 284.749C129.346 283.691 130.46 283.09 131.518 283.408C132.576 283.725 133.177 284.841 132.859 285.899C132.023 288.683 130.989 291.308 129.786 293.781C129.302 294.774 128.106 295.187 127.113 294.704C126.12 294.22 125.706 293.024 126.189 292.031C127.299 289.75 128.254 287.326 129.028 284.749ZM119.816 301.873C120.522 301.024 121.783 300.908 122.632 301.614C123.481 302.32 123.597 303.581 122.891 304.43C121.067 306.623 119.099 308.644 117.024 310.504C116.202 311.242 114.937 311.173 114.2 310.351C113.462 309.529 113.531 308.263 114.353 307.526C116.292 305.787 118.125 303.906 119.816 301.873ZM104.808 314.549C105.753 313.977 106.982 314.279 107.554 315.224C108.126 316.169 107.824 317.399 106.88 317.971C104.46 319.436 101.987 320.746 99.5026 321.916C98.5034 322.386 97.3122 321.958 96.8415 320.959C96.3709 319.959 96.7992 318.767 97.7985 318.296C100.167 317.181 102.517 315.936 104.808 314.549ZM86.6481 322.635C87.7014 322.303 88.8244 322.888 89.1569 323.941C89.4892 324.994 88.9046 326.118 87.8512 326.451C85.0808 327.325 82.3786 328.043 79.8073 328.627C78.73 328.871 77.659 328.195 77.4147 327.118C77.1706 326.041 77.8454 324.969 78.9225 324.725C81.3927 324.165 83.9884 323.474 86.6481 322.635ZM67.1178 326.592C68.2187 326.503 69.1836 327.322 69.2731 328.423C69.3626 329.524 68.5429 330.489 67.442 330.579C65.8736 330.706 64.4583 330.766 63.234 330.766C61.7621 330.766 60.3114 330.717 58.8825 330.622C57.7805 330.548 56.9469 329.596 57.0202 328.494C57.0937 327.392 58.047 326.557 59.1491 326.63C60.4887 326.72 61.8505 326.766 63.234 326.766C64.3331 326.766 65.6389 326.713 67.1178 326.592ZM36.9333 322.783C37.3873 321.776 38.571 321.328 39.5778 321.782C42.0053 322.876 44.5451 323.812 47.193 324.567C48.2552 324.87 48.8709 325.977 48.568 327.04C48.2649 328.102 47.1584 328.717 46.0963 328.414C43.2585 327.604 40.5362 326.602 37.9342 325.428C36.9273 324.974 36.4792 323.79 36.9333 322.783ZM20.1012 310.402C20.8721 309.611 22.1383 309.594 22.9293 310.365C24.8581 312.245 26.9223 314.01 29.1159 315.633C30.0035 316.291 30.19 317.543 29.5329 318.431C28.8756 319.319 27.6236 319.505 26.736 318.848C24.3928 317.114 22.1914 315.232 20.1374 313.23C19.3465 312.459 19.3307 311.193 20.1012 310.402ZM8.14712 293.241C9.12557 292.728 10.3348 293.106 10.8473 294.085C12.0953 296.467 13.5023 298.798 15.0631 301.049C15.6925 301.957 15.4667 303.203 14.5592 303.833C13.6515 304.462 12.4054 304.236 11.776 303.329C10.1199 300.94 8.62692 298.468 7.30337 295.941C6.79084 294.963 7.16871 293.753 8.14712 293.241ZM2.12856 273.207C3.22002 273.037 4.24303 273.784 4.41274 274.876C4.81946 277.491 5.42356 280.141 6.22133 282.789C6.53987 283.846 5.94095 284.961 4.88344 285.28C3.82599 285.598 2.71009 285 2.39126 283.943C1.54202 281.125 0.895677 278.294 0.459616 275.49C0.289983 274.398 1.0373 273.376 2.12856 273.207ZM1.77407 253.794C2.11614 252.745 3.24451 252.171 4.29458 252.512C5.34486 252.854 5.91979 253.983 5.57778 255.034C4.78499 257.468 4.25601 260.079 3.99087 262.818C3.88419 263.917 2.90734 264.722 1.80825 264.616C0.708896 264.509 -0.0968963 263.532 0.00942057 262.432C0.30001 259.431 0.882906 256.531 1.77407 253.794ZM15.5592 236.721C16.5304 236.195 17.744 236.556 18.2702 237.527C18.7961 238.498 18.4355 239.712 17.4645 240.238C15.1138 241.511 13.0862 243.1 11.3659 244.949C10.6134 245.757 9.34828 245.803 8.53969 245.05C7.73112 244.298 7.68563 243.033 8.43813 242.224C10.4517 240.061 12.8236 238.203 15.5592 236.721ZM32.734 232.766C33.8386 232.766 34.734 233.662 34.734 234.766C34.7339 235.871 33.8385 236.766 32.734 236.766C31.337 236.766 29.9972 236.832 28.7145 236.959C27.6155 237.067 26.6369 236.265 26.528 235.166C26.4192 234.066 27.2218 233.087 28.3209 232.978C29.7405 232.838 31.2115 232.766 32.734 232.766Z" fill="#F5431B"/>
<defs>
<filter id="filter0_dii_200_476" x="35.7344" y="204.856" width="36.4004" height="58.9785" filterUnits="userSpaceOnUse" color-interpolation-filters="sRGB">
<feFlood flood-opacity="0" result="BackgroundImageFix"/>
<feColorMatrix in="SourceAlpha" type="matrix" values="0 0 0 0 0 0 0 0 0 0 0 0 0 0 0 0 0 0 127 0" result="hardAlpha"/>
<feOffset/>
<feGaussianBlur stdDeviation="1.5"/>
<feComposite in2="hardAlpha" operator="out"/>
<feColorMatrix type="matrix" values="0 0 0 0 0.133333 0 0 0 0 0.168627 0 0 0 0 0.196078 0 0 0 0.4 0"/>
<feBlend mode="normal" in2="BackgroundImageFix" result="effect1_dropShadow_200_476"/>
<feBlend mode="normal" in="SourceGraphic" in2="effect1_dropShadow_200_476" result="shape"/>
<feColorMatrix in="SourceAlpha" type="matrix" values="0 0 0 0 0 0 0 0 0 0 0 0 0 0 0 0 0 0 127 0" result="hardAlpha"/>
<feOffset/>
<feGaussianBlur stdDeviation="1"/>
<feComposite in2="hardAlpha" operator="arithmetic" k2="-1" k3="1"/>
<feColorMatrix type="matrix" values="0 0 0 0 0 0 0 0 0 0 0 0 0 0 0 0 0 0 0.25 0"/>
<feBlend mode="normal" in2="shape" result="effect2_innerShadow_200_476"/>
<feColorMatrix in="SourceAlpha" type="matrix" values="0 0 0 0 0 0 0 0 0 0 0 0 0 0 0 0 0 0 127 0" result="hardAlpha"/>
<feOffset/>
<feGaussianBlur stdDeviation="0.5"/>
<feComposite in2="hardAlpha" operator="arithmetic" k2="-1" k3="1"/>
<feColorMatrix type="matrix" values="0 0 0 0 0 0 0 0 0 0 0 0 0 0 0 0 0 0 0.25 0"/>
<feBlend mode="normal" in2="effect2_innerShadow_200_476" result="effect3_innerShadow_200_476"/>
</filter>
<filter id="filter1_dii_200_476" x="35.8042" y="204.927" width="16.8345" height="16.8564" filterUnits="userSpaceOnUse" color-interpolation-filters="sRGB">
<feFlood flood-opacity="0" result="BackgroundImageFix"/>
<feColorMatrix in="SourceAlpha" type="matrix" values="0 0 0 0 0 0 0 0 0 0 0 0 0 0 0 0 0 0 127 0" result="hardAlpha"/>
<feOffset/>
<feGaussianBlur stdDeviation="1.5"/>
<feComposite in2="hardAlpha" operator="out"/>
<feColorMatrix type="matrix" values="0 0 0 0 0.133333 0 0 0 0 0.168627 0 0 0 0 0.196078 0 0 0 0.4 0"/>
<feBlend mode="normal" in2="BackgroundImageFix" result="effect1_dropShadow_200_476"/>
<feBlend mode="normal" in="SourceGraphic" in2="effect1_dropShadow_200_476" result="shape"/>
<feColorMatrix in="SourceAlpha" type="matrix" values="0 0 0 0 0 0 0 0 0 0 0 0 0 0 0 0 0 0 127 0" result="hardAlpha"/>
<feOffset/>
<feGaussianBlur stdDeviation="1"/>
<feComposite in2="hardAlpha" operator="arithmetic" k2="-1" k3="1"/>
<feColorMatrix type="matrix" values="0 0 0 0 0 0 0 0 0 0 0 0 0 0 0 0 0 0 0.25 0"/>
<feBlend mode="normal" in2="shape" result="effect2_innerShadow_200_476"/>
<feColorMatrix in="SourceAlpha" type="matrix" values="0 0 0 0 0 0 0 0 0 0 0 0 0 0 0 0 0 0 127 0" result="hardAlpha"/>
<feOffset/>
<feGaussianBlur stdDeviation="0.5"/>
<feComposite in2="hardAlpha" operator="arithmetic" k2="-1" k3="1"/>
<feColorMatrix type="matrix" values="0 0 0 0 0 0 0 0 0 0 0 0 0 0 0 0 0 0 0.25 0"/>
<feBlend mode="normal" in2="effect2_innerShadow_200_476" result="effect3_innerShadow_200_476"/>
</filter>
<filter id="filter2_dii_200_476" x="35.8042" y="246.908" width="16.8345" height="16.8564" filterUnits="userSpaceOnUse" color-interpolation-filters="sRGB">
<feFlood flood-opacity="0" result="BackgroundImageFix"/>
<feColorMatrix in="SourceAlpha" type="matrix" values="0 0 0 0 0 0 0 0 0 0 0 0 0 0 0 0 0 0 127 0" result="hardAlpha"/>
<feOffset/>
<feGaussianBlur stdDeviation="1.5"/>
<feComposite in2="hardAlpha" operator="out"/>
<feColorMatrix type="matrix" values="0 0 0 0 0.133333 0 0 0 0 0.168627 0 0 0 0 0.196078 0 0 0 0.4 0"/>
<feBlend mode="normal" in2="BackgroundImageFix" result="effect1_dropShadow_200_476"/>
<feBlend mode="normal" in="SourceGraphic" in2="effect1_dropShadow_200_476" result="shape"/>
<feColorMatrix in="SourceAlpha" type="matrix" values="0 0 0 0 0 0 0 0 0 0 0 0 0 0 0 0 0 0 127 0" result="hardAlpha"/>
<feOffset/>
<feGaussianBlur stdDeviation="1"/>
<feComposite in2="hardAlpha" operator="arithmetic" k2="-1" k3="1"/>
<feColorMatrix type="matrix" values="0 0 0 0 0 0 0 0 0 0 0 0 0 0 0 0 0 0 0.25 0"/>
<feBlend mode="normal" in2="shape" result="effect2_innerShadow_200_476"/>
<feColorMatrix in="SourceAlpha" type="matrix" values="0 0 0 0 0 0 0 0 0 0 0 0 0 0 0 0 0 0 127 0" result="hardAlpha"/>
<feOffset/>
<feGaussianBlur stdDeviation="0.5"/>
<feComposite in2="hardAlpha" operator="arithmetic" k2="-1" k3="1"/>
<feColorMatrix type="matrix" values="0 0 0 0 0 0 0 0 0 0 0 0 0 0 0 0 0 0 0.25 0"/>
<feBlend mode="normal" in2="effect2_innerShadow_200_476" result="effect3_innerShadow_200_476"/>
</filter>
<filter id="filter3_dii_200_476" x="292.157" y="204.857" width="36.4004" height="58.9785" filterUnits="userSpaceOnUse" color-interpolation-filters="sRGB">
<feFlood flood-opacity="0" result="BackgroundImageFix"/>
<feColorMatrix in="SourceAlpha" type="matrix" values="0 0 0 0 0 0 0 0 0 0 0 0 0 0 0 0 0 0 127 0" result="hardAlpha"/>
<feOffset/>
<feGaussianBlur stdDeviation="1.5"/>
<feComposite in2="hardAlpha" operator="out"/>
<feColorMatrix type="matrix" values="0 0 0 0 0.133333 0 0 0 0 0.168627 0 0 0 0 0.196078 0 0 0 0.4 0"/>
<feBlend mode="normal" in2="BackgroundImageFix" result="effect1_dropShadow_200_476"/>
<feBlend mode="normal" in="SourceGraphic" in2="effect1_dropShadow_200_476" result="shape"/>
<feColorMatrix in="SourceAlpha" type="matrix" values="0 0 0 0 0 0 0 0 0 0 0 0 0 0 0 0 0 0 127 0" result="hardAlpha"/>
<feOffset/>
<feGaussianBlur stdDeviation="1"/>
<feComposite in2="hardAlpha" operator="arithmetic" k2="-1" k3="1"/>
<feColorMatrix type="matrix" values="0 0 0 0 0 0 0 0 0 0 0 0 0 0 0 0 0 0 0.25 0"/>
<feBlend mode="normal" in2="shape" result="effect2_innerShadow_200_476"/>
<feColorMatrix in="SourceAlpha" type="matrix" values="0 0 0 0 0 0 0 0 0 0 0 0 0 0 0 0 0 0 127 0" result="hardAlpha"/>
<feOffset/>
<feGaussianBlur stdDeviation="0.5"/>
<feComposite in2="hardAlpha" operator="arithmetic" k2="-1" k3="1"/>
<feColorMatrix type="matrix" values="0 0 0 0 0 0 0 0 0 0 0 0 0 0 0 0 0 0 0.25 0"/>
<feBlend mode="normal" in2="effect2_innerShadow_200_476" result="effect3_innerShadow_200_476"/>
</filter>
<filter id="filter4_dii_200_476" x="311.652" y="246.908" width="16.835" height="16.8564" filterUnits="userSpaceOnUse" color-interpolation-filters="sRGB">
<feFlood flood-opacity="0" result="BackgroundImageFix"/>
<feColorMatrix in="SourceAlpha" type="matrix" values="0 0 0 0 0 0 0 0 0 0 0 0 0 0 0 0 0 0 127 0" result="hardAlpha"/>
<feOffset/>
<feGaussianBlur stdDeviation="1.5"/>
<feComposite in2="hardAlpha" operator="out"/>
<feColorMatrix type="matrix" values="0 0 0 0 0.133333 0 0 0 0 0.168627 0 0 0 0 0.196078 0 0 0 0.4 0"/>
<feBlend mode="normal" in2="BackgroundImageFix" result="effect1_dropShadow_200_476"/>
<feBlend mode="normal" in="SourceGraphic" in2="effect1_dropShadow_200_476" result="shape"/>
<feColorMatrix in="SourceAlpha" type="matrix" values="0 0 0 0 0 0 0 0 0 0 0 0 0 0 0 0 0 0 127 0" result="hardAlpha"/>
<feOffset/>
<feGaussianBlur stdDeviation="1"/>
<feComposite in2="hardAlpha" operator="arithmetic" k2="-1" k3="1"/>
<feColorMatrix type="matrix" values="0 0 0 0 0 0 0 0 0 0 0 0 0 0 0 0 0 0 0.25 0"/>
<feBlend mode="normal" in2="shape" result="effect2_innerShadow_200_476"/>
<feColorMatrix in="SourceAlpha" type="matrix" values="0 0 0 0 0 0 0 0 0 0 0 0 0 0 0 0 0 0 127 0" result="hardAlpha"/>
<feOffset/>
<feGaussianBlur stdDeviation="0.5"/>
<feComposite in2="hardAlpha" operator="arithmetic" k2="-1" k3="1"/>
<feColorMatrix type="matrix" values="0 0 0 0 0 0 0 0 0 0 0 0 0 0 0 0 0 0 0.25 0"/>
<feBlend mode="normal" in2="effect2_innerShadow_200_476" result="effect3_innerShadow_200_476"/>
</filter>
<filter id="filter5_dii_200_476" x="311.652" y="204.927" width="16.835" height="16.8564" filterUnits="userSpaceOnUse" color-interpolation-filters="sRGB">
<feFlood flood-opacity="0" result="BackgroundImageFix"/>
<feColorMatrix in="SourceAlpha" type="matrix" values="0 0 0 0 0 0 0 0 0 0 0 0 0 0 0 0 0 0 127 0" result="hardAlpha"/>
<feOffset/>
<feGaussianBlur stdDeviation="1.5"/>
<feComposite in2="hardAlpha" operator="out"/>
<feColorMatrix type="matrix" values="0 0 0 0 0.133333 0 0 0 0 0.168627 0 0 0 0 0.196078 0 0 0 0.4 0"/>
<feBlend mode="normal" in2="BackgroundImageFix" result="effect1_dropShadow_200_476"/>
<feBlend mode="normal" in="SourceGraphic" in2="effect1_dropShadow_200_476" result="shape"/>
<feColorMatrix in="SourceAlpha" type="matrix" values="0 0 0 0 0 0 0 0 0 0 0 0 0 0 0 0 0 0 127 0" result="hardAlpha"/>
<feOffset/>
<feGaussianBlur stdDeviation="1"/>
<feComposite in2="hardAlpha" operator="arithmetic" k2="-1" k3="1"/>
<feColorMatrix type="matrix" values="0 0 0 0 0 0 0 0 0 0 0 0 0 0 0 0 0 0 0.25 0"/>
<feBlend mode="normal" in2="shape" result="effect2_innerShadow_200_476"/>
<feColorMatrix in="SourceAlpha" type="matrix" values="0 0 0 0 0 0 0 0 0 0 0 0 0 0 0 0 0 0 127 0" result="hardAlpha"/>
<feOffset/>
<feGaussianBlur stdDeviation="0.5"/>
<feComposite in2="hardAlpha" operator="arithmetic" k2="-1" k3="1"/>
<feColorMatrix type="matrix" values="0 0 0 0 0 0 0 0 0 0 0 0 0 0 0 0 0 0 0.25 0"/>
<feBlend mode="normal" in2="effect2_innerShadow_200_476" result="effect3_innerShadow_200_476"/>
</filter>
<filter id="filter6_dii_200_476" x="150.067" y="332.668" width="65.4795" height="41.0984" filterUnits="userSpaceOnUse" color-interpolation-filters="sRGB">
<feFlood flood-opacity="0" result="BackgroundImageFix"/>
<feColorMatrix in="SourceAlpha" type="matrix" values="0 0 0 0 0 0 0 0 0 0 0 0 0 0 0 0 0 0 127 0" result="hardAlpha"/>
<feOffset/>
<feGaussianBlur stdDeviation="1.5"/>
<feComposite in2="hardAlpha" operator="out"/>
<feColorMatrix type="matrix" values="0 0 0 0 0.133333 0 0 0 0 0.168627 0 0 0 0 0.196078 0 0 0 0.4 0"/>
<feBlend mode="normal" in2="BackgroundImageFix" result="effect1_dropShadow_200_476"/>
<feBlend mode="normal" in="SourceGraphic" in2="effect1_dropShadow_200_476" result="shape"/>
<feColorMatrix in="SourceAlpha" type="matrix" values="0 0 0 0 0 0 0 0 0 0 0 0 0 0 0 0 0 0 127 0" result="hardAlpha"/>
<feOffset/>
<feGaussianBlur stdDeviation="1"/>
<feComposite in2="hardAlpha" operator="arithmetic" k2="-1" k3="1"/>
<feColorMatrix type="matrix" values="0 0 0 0 0 0 0 0 0 0 0 0 0 0 0 0 0 0 0.25 0"/>
<feBlend mode="normal" in2="shape" result="effect2_innerShadow_200_476"/>
<feColorMatrix in="SourceAlpha" type="matrix" values="0 0 0 0 0 0 0 0 0 0 0 0 0 0 0 0 0 0 127 0" result="hardAlpha"/>
<feOffset/>
<feGaussianBlur stdDeviation="0.5"/>
<feComposite in2="hardAlpha" operator="arithmetic" k2="-1" k3="1"/>
<feColorMatrix type="matrix" values="0 0 0 0 0 0 0 0 0 0 0 0 0 0 0 0 0 0 0.25 0"/>
<feBlend mode="normal" in2="effect2_innerShadow_200_476" result="effect3_innerShadow_200_476"/>
</filter>
<filter id="filter7_dii_200_476" x="173.198" y="345.912" width="19.2178" height="19.2447" filterUnits="userSpaceOnUse" color-interpolation-filters="sRGB">
<feFlood flood-opacity="0" result="BackgroundImageFix"/>
<feColorMatrix in="SourceAlpha" type="matrix" values="0 0 0 0 0 0 0 0 0 0 0 0 0 0 0 0 0 0 127 0" result="hardAlpha"/>
<feOffset/>
<feGaussianBlur stdDeviation="1.5"/>
<feComposite in2="hardAlpha" operator="out"/>
<feColorMatrix type="matrix" values="0 0 0 0 0.133333 0 0 0 0 0.168627 0 0 0 0 0.196078 0 0 0 0.4 0"/>
<feBlend mode="normal" in2="BackgroundImageFix" result="effect1_dropShadow_200_476"/>
<feBlend mode="normal" in="SourceGraphic" in2="effect1_dropShadow_200_476" result="shape"/>
<feColorMatrix in="SourceAlpha" type="matrix" values="0 0 0 0 0 0 0 0 0 0 0 0 0 0 0 0 0 0 127 0" result="hardAlpha"/>
<feOffset/>
<feGaussianBlur stdDeviation="3"/>
<feComposite in2="hardAlpha" operator="arithmetic" k2="-1" k3="1"/>
<feColorMatrix type="matrix" values="0 0 0 0 0 0 0 0 0 0 0 0 0 0 0 0 0 0 1 0"/>
<feBlend mode="normal" in2="shape" result="effect2_innerShadow_200_476"/>
<feColorMatrix in="SourceAlpha" type="matrix" values="0 0 0 0 0 0 0 0 0 0 0 0 0 0 0 0 0 0 127 0" result="hardAlpha"/>
<feOffset/>
<feGaussianBlur stdDeviation="0.5"/>
<feComposite in2="hardAlpha" operator="arithmetic" k2="-1" k3="1"/>
<feColorMatrix type="matrix" values="0 0 0 0 0 0 0 0 0 0 0 0 0 0 0 0 0 0 0.25 0"/>
<feBlend mode="normal" in2="effect2_innerShadow_200_476" result="effect3_innerShadow_200_476"/>
</filter>
<filter id="filter8_i_200_476" x="178.676" y="351.396" width="8.26123" height="8.27795" filterUnits="userSpaceOnUse" color-interpolation-filters="sRGB">
<feFlood flood-opacity="0" result="BackgroundImageFix"/>
<feBlend mode="normal" in="SourceGraphic" in2="BackgroundImageFix" result="shape"/>
<feColorMatrix in="SourceAlpha" type="matrix" values="0 0 0 0 0 0 0 0 0 0 0 0 0 0 0 0 0 0 127 0" result="hardAlpha"/>
<feOffset/>
<feGaussianBlur stdDeviation="2.5"/>
<feComposite in2="hardAlpha" operator="arithmetic" k2="-1" k3="1"/>
<feColorMatrix type="matrix" values="0 0 0 0 0 0 0 0 0 0 0 0 0 0 0 0 0 0 0.8 0"/>
<feBlend mode="normal" in2="shape" result="effect1_innerShadow_200_476"/>
</filter>
<filter id="filter9_diii_200_476" x="43.665" y="118.766" width="276.962" height="229.835" filterUnits="userSpaceOnUse" color-interpolation-filters="sRGB">
<feFlood flood-opacity="0" result="BackgroundImageFix"/>
<feColorMatrix in="SourceAlpha" type="matrix" values="0 0 0 0 0 0 0 0 0 0 0 0 0 0 0 0 0 0 127 0" result="hardAlpha"/>
<feOffset/>
<feGaussianBlur stdDeviation="1.5"/>
<feComposite in2="hardAlpha" operator="out"/>
<feColorMatrix type="matrix" values="0 0 0 0 0.133333 0 0 0 0 0.168627 0 0 0 0 0.196078 0 0 0 0.4 0"/>
<feBlend mode="normal" in2="BackgroundImageFix" result="effect1_dropShadow_200_476"/>
<feBlend mode="normal" in="SourceGraphic" in2="effect1_dropShadow_200_476" result="shape"/>
<feColorMatrix in="SourceAlpha" type="matrix" values="0 0 0 0 0 0 0 0 0 0 0 0 0 0 0 0 0 0 127 0" result="hardAlpha"/>
<feOffset/>
<feGaussianBlur stdDeviation="1"/>
<feComposite in2="hardAlpha" operator="arithmetic" k2="-1" k3="1"/>
<feColorMatrix type="matrix" values="0 0 0 0 0 0 0 0 0 0 0 0 0 0 0 0 0 0 0.25 0"/>
<feBlend mode="normal" in2="shape" result="effect2_innerShadow_200_476"/>
<feColorMatrix in="SourceAlpha" type="matrix" values="0 0 0 0 0 0 0 0 0 0 0 0 0 0 0 0 0 0 127 0" result="hardAlpha"/>
<feOffset/>
<feGaussianBlur stdDeviation="0.5"/>
<feComposite in2="hardAlpha" operator="arithmetic" k2="-1" k3="1"/>
<feColorMatrix type="matrix" values="0 0 0 0 0 0 0 0 0 0 0 0 0 0 0 0 0 0 0.25 0"/>
<feBlend mode="normal" in2="effect2_innerShadow_200_476" result="effect3_innerShadow_200_476"/>
<feColorMatrix in="SourceAlpha" type="matrix" values="0 0 0 0 0 0 0 0 0 0 0 0 0 0 0 0 0 0 127 0" result="hardAlpha"/>
<feOffset/>
<feGaussianBlur stdDeviation="3"/>
<feComposite in2="hardAlpha" operator="arithmetic" k2="-1" k3="1"/>
<feColorMatrix type="matrix" values="0 0 0 0 0 0 0 0 0 0 0 0 0 0 0 0 0 0 0.2 0"/>
<feBlend mode="normal" in2="effect3_innerShadow_200_476" result="effect4_innerShadow_200_476"/>
</filter>
<filter id="filter10_i_200_476" x="142.452" y="224.422" width="79.6055" height="19.1327" filterUnits="userSpaceOnUse" color-interpolation-filters="sRGB">
<feFlood flood-opacity="0" result="BackgroundImageFix"/>
<feBlend mode="normal" in="SourceGraphic" in2="BackgroundImageFix" result="shape"/>
<feColorMatrix in="SourceAlpha" type="matrix" values="0 0 0 0 0 0 0 0 0 0 0 0 0 0 0 0 0 0 127 0" result="hardAlpha"/>
<feOffset/>
<feGaussianBlur stdDeviation="2"/>
<feComposite in2="hardAlpha" operator="arithmetic" k2="-1" k3="1"/>
<feColorMatrix type="matrix" values="0 0 0 0 0 0 0 0 0 0 0 0 0 0 0 0 0 0 0.19 0"/>
<feBlend mode="normal" in2="shape" result="effect1_innerShadow_200_476"/>
</filter>
<filter id="filter11_d_200_476" x="67.7344" y="-0.234009" width="229" height="141" filterUnits="userSpaceOnUse" color-interpolation-filters="sRGB">
<feFlood flood-opacity="0" result="BackgroundImageFix"/>
<feColorMatrix in="SourceAlpha" type="matrix" values="0 0 0 0 0 0 0 0 0 0 0 0 0 0 0 0 0 0 127 0" result="hardAlpha"/>
<feOffset/>
<feGaussianBlur stdDeviation="2"/>
<feColorMatrix type="matrix" values="0 0 0 0 0 0 0 0 0 0 0 0 0 0 0 0 0 0 0.5 0"/>
<feBlend mode="normal" in2="BackgroundImageFix" result="effect1_dropShadow_200_476"/>
<feBlend mode="normal" in="SourceGraphic" in2="effect1_dropShadow_200_476" result="shape"/>
</filter>
<linearGradient id="paint0_linear_200_476" x1="53.9346" y1="207.856" x2="53.9346" y2="260.835" gradientUnits="userSpaceOnUse">
<stop offset="0.004" stop-color="white"/>
<stop offset="0.992" stop-color="#E9ECEE"/>
</linearGradient>
<linearGradient id="paint1_linear_200_476" x1="49.6389" y1="207.856" x2="49.6389" y2="229.71" gradientUnits="userSpaceOnUse">
<stop offset="0.004" stop-color="white"/>
<stop offset="0.992" stop-color="#E9ECEE"/>
</linearGradient>
<linearGradient id="paint2_linear_200_476" x1="38.7344" y1="249.908" x2="60.5435" y2="249.908" gradientUnits="userSpaceOnUse">
<stop offset="0.004" stop-color="white"/>
<stop offset="0.992" stop-color="#E9ECEE"/>
</linearGradient>
<linearGradient id="paint3_linear_200_476" x1="310.357" y1="260.835" x2="310.357" y2="207.857" gradientUnits="userSpaceOnUse">
<stop offset="0.004" stop-color="white"/>
<stop offset="0.992" stop-color="#E9ECEE"/>
</linearGradient>
<linearGradient id="paint4_linear_200_476" x1="314.653" y1="260.835" x2="314.653" y2="238.981" gradientUnits="userSpaceOnUse">
<stop offset="0.004" stop-color="white"/>
<stop offset="0.992" stop-color="#E9ECEE"/>
</linearGradient>
<linearGradient id="paint5_linear_200_476" x1="325.557" y1="218.783" x2="303.748" y2="218.783" gradientUnits="userSpaceOnUse">
<stop offset="0.004" stop-color="white"/>
<stop offset="0.992" stop-color="#E9ECEE"/>
</linearGradient>
<linearGradient id="paint6_linear_200_476" x1="182.807" y1="335.668" x2="182.807" y2="370.766" gradientUnits="userSpaceOnUse">
<stop offset="0.004" stop-color="white"/>
<stop offset="0.992" stop-color="#E9ECEE"/>
</linearGradient>
<linearGradient id="paint7_linear_200_476" x1="189.352" y1="360.713" x2="174.027" y2="348.638" gradientUnits="userSpaceOnUse">
<stop stop-color="#E5E2DF"/>
<stop offset="0.01" stop-color="#D6D3D1"/>
<stop offset="0.02" stop-color="#AFADAB"/>
<stop offset="0.05" stop-color="#706F6D"/>
<stop offset="0.07" stop-color="#1A1A19"/>
<stop offset="0.08" stop-color="#020202"/>
<stop offset="1" stop-color="#D1D3D4"/>
</linearGradient>
<linearGradient id="paint8_linear_200_476" x1="189.355" y1="360.717" x2="177.314" y2="351.231" gradientUnits="userSpaceOnUse">
<stop stop-color="#CCC7C2"/>
<stop offset="0.07" stop-color="#BDB9B4"/>
<stop offset="0.15" stop-color="#A7A3A0"/>
<stop offset="0.52" stop-color="#E0E1E2"/>
<stop offset="0.62" stop-color="#D3D3D3"/>
<stop offset="0.82" stop-color="#B2AFAC"/>
<stop offset="0.88" stop-color="#A7A3A0"/>
<stop offset="1" stop-color="#A7A9AC"/>
</linearGradient>
<linearGradient id="paint9_linear_200_476" x1="186.045" y1="359.588" x2="180.861" y2="353.129" gradientUnits="userSpaceOnUse">
<stop stop-color="white"/>
<stop offset="0.09" stop-color="white" stop-opacity="0.94"/>
<stop offset="0.27" stop-color="white" stop-opacity="0.79"/>
<stop offset="0.51" stop-color="white" stop-opacity="0.54"/>
<stop offset="0.81" stop-color="white" stop-opacity="0.2"/>
<stop offset="0.97" stop-color="white" stop-opacity="0"/>
</linearGradient>
<linearGradient id="paint10_linear_200_476" x1="182.146" y1="121.766" x2="182.146" y2="345.601" gradientUnits="userSpaceOnUse">
<stop offset="0.004" stop-color="white"/>
<stop offset="0.992" stop-color="#E9ECEE"/>
</linearGradient>
<linearGradient id="paint11_linear_200_476" x1="182.235" y1="4" x2="182.235" y2="136.532" gradientUnits="userSpaceOnUse">
<stop stop-color="white"/>
<stop offset="1" stop-opacity="0.5"/>
</linearGradient>
<linearGradient id="paint12_linear_200_476" x1="73.1206" y1="70.268" x2="291.304" y2="70.268" gradientUnits="userSpaceOnUse">
<stop stop-color="#1D1D1D"/>
<stop offset="0.06" stop-color="#181818"/>
<stop offset="0.26" stop-color="#0A0A0A"/>
<stop offset="0.52" stop-color="#020202"/>
<stop offset="1"/>
</linearGradient>
<linearGradient id="paint13_linear_200_476" x1="182.757" y1="13.5189" x2="182.757" y2="22.3856" gradientUnits="userSpaceOnUse">
<stop stop-color="#C5C5C5"/>
<stop offset="0.17" stop-color="#C3C3C3"/>
<stop offset="0.23" stop-color="#BCBCBC"/>
<stop offset="0.28" stop-color="#B1B1B1"/>
<stop offset="0.29" stop-color="#ABABAB"/>
<stop offset="0.39" stop-color="#A8A8A8"/>
<stop offset="0.46" stop-color="#9E9E9E"/>
<stop offset="0.54" stop-color="#8D8D8D"/>
<stop offset="0.6" stop-color="#757575"/>
<stop offset="0.67" stop-color="#575757"/>
<stop offset="0.68" stop-color="#4F4F4F"/>
<stop offset="0.75" stop-color="#757575"/>
<stop offset="0.92" stop-color="#D8D8D8"/>
<stop offset="1" stop-color="white"/>
</linearGradient>
</defs>
</svg>
