<svg width="237" height="206" viewBox="0 0 237 206" fill="none" xmlns="http://www.w3.org/2000/svg">
<g filter="url(#filter0_dii_3111_8064)">
<path d="M15.2344 72.1489C21.9909 72.1491 27.4678 77.6267 27.4678 84.3833V102.468C27.4677 109.225 21.9908 114.701 15.2344 114.702C8.47776 114.702 3.0001 109.225 3 102.468V96.0308C3.17194 96.0657 3.34998 96.0854 3.53223 96.0854H14.1699C15.6388 96.0854 16.8301 94.8941 16.8301 93.4253C16.8299 91.9566 15.6387 90.7661 14.1699 90.7661H3.53223C3.35008 90.7661 3.17185 90.784 3 90.8188V84.3833C3 77.6266 8.4777 72.1489 15.2344 72.1489Z" fill="url(#paint0_linear_3111_8064)"/>
</g>
<g filter="url(#filter1_dii_3111_8064)">
<path d="M11.7766 73.2021C11.7766 72.6205 11.3034 72.1424 10.7259 72.212C9.93426 72.3075 9.15765 72.5106 8.41794 72.817C7.35311 73.2581 6.38559 73.9045 5.57061 74.7195C4.75562 75.5345 4.10914 76.502 3.66808 77.5669C3.36168 78.3066 3.15858 79.0832 3.06312 79.8748C2.99348 80.4523 3.47153 80.9255 4.05319 80.9255V80.9255C4.63485 80.9255 5.0979 80.4511 5.18936 79.8767C5.27135 79.3617 5.41364 78.8569 5.61412 78.3729C5.94933 77.5637 6.44066 76.8284 7.06004 76.209C7.67943 75.5896 8.41475 75.0983 9.22402 74.763C9.70802 74.5626 10.2128 74.4203 10.7278 74.3383C11.3022 74.2468 11.7766 73.7838 11.7766 73.2021V73.2021Z" fill="url(#paint1_linear_3111_8064)"/>
</g>
<g filter="url(#filter2_dii_3111_8064)">
<path d="M4.05319 105.926C3.47153 105.926 2.99348 106.399 3.06312 106.976C3.15858 107.768 3.36168 108.544 3.66808 109.284C4.10914 110.349 4.75562 111.317 5.57061 112.132C6.38559 112.947 7.35311 113.593 8.41794 114.034C9.15766 114.34 9.93427 114.544 10.7259 114.639C11.3034 114.709 11.7766 114.231 11.7766 113.649V113.649C11.7766 113.067 11.3022 112.604 10.7278 112.513C10.2128 112.431 9.70802 112.289 9.22402 112.088C8.41475 111.753 7.67943 111.261 7.06004 110.642C6.44066 110.023 5.94933 109.287 5.61412 108.478C5.41364 107.994 5.27135 107.489 5.18936 106.974C5.0979 106.4 4.63485 105.926 4.05319 105.926V105.926Z" fill="url(#paint2_linear_3111_8064)"/>
</g>
<g filter="url(#filter3_dii_3111_8064)">
<path d="M221.617 114.702C214.86 114.702 209.383 109.224 209.383 102.468L209.383 84.3828C209.383 77.6263 214.86 72.1496 221.617 72.1494C228.373 72.1494 233.851 77.6262 233.851 84.3828L233.851 102.468C233.851 109.224 228.373 114.702 221.617 114.702ZM227.468 100.341C228.937 100.341 230.127 99.1495 230.127 97.6807L230.127 89.1699C230.127 87.7013 228.937 86.5108 227.468 86.5107C226 86.5107 224.808 87.7012 224.808 89.1699L224.808 97.6807C224.808 99.1495 225.999 100.341 227.468 100.341Z" fill="url(#paint3_linear_3111_8064)"/>
</g>
<g filter="url(#filter4_dii_3111_8064)">
<path d="M225.074 113.649C225.074 114.231 225.548 114.709 226.125 114.639C226.917 114.544 227.693 114.34 228.433 114.034C229.498 113.593 230.465 112.947 231.28 112.132C232.095 111.317 232.742 110.349 233.183 109.284C233.489 108.544 233.692 107.768 233.788 106.976C233.858 106.399 233.38 105.926 232.798 105.926V105.926C232.216 105.926 231.753 106.4 231.662 106.974C231.58 107.489 231.437 107.994 231.237 108.478C230.902 109.287 230.41 110.023 229.791 110.642C229.172 111.261 228.436 111.753 227.627 112.088C227.143 112.289 226.638 112.431 226.123 112.513C225.549 112.604 225.074 113.067 225.074 113.649V113.649Z" fill="url(#paint4_linear_3111_8064)"/>
</g>
<g filter="url(#filter5_dii_3111_8064)">
<path d="M232.798 80.9255C233.38 80.9255 233.858 80.4523 233.788 79.8748C233.692 79.0832 233.489 78.3066 233.183 77.5669C232.742 76.502 232.095 75.5345 231.28 74.7195C230.465 73.9045 229.498 73.2581 228.433 72.817C227.693 72.5106 226.917 72.3075 226.125 72.212C225.548 72.1424 225.074 72.6205 225.074 73.2021V73.2021C225.074 73.7838 225.549 74.2468 226.123 74.3383C226.638 74.4203 227.143 74.5626 227.627 74.763C228.436 75.0983 229.172 75.5896 229.791 76.209C230.41 76.8284 230.902 77.5637 231.237 78.3729C231.437 78.8569 231.58 79.3617 231.662 79.8767C231.753 80.4511 232.216 80.9255 232.798 80.9255V80.9255Z" fill="url(#paint5_linear_3111_8064)"/>
</g>
<g filter="url(#filter6_dii_3111_8064)">
<rect x="95.0212" y="174.809" width="47.8723" height="28.1915" rx="8" fill="url(#paint6_linear_3111_8064)"/>
</g>
<path d="M124.277 190.766C124.277 187.828 121.895 185.447 118.957 185.447C116.02 185.447 113.638 187.828 113.638 190.766C113.638 193.703 116.02 196.085 118.957 196.085C121.895 196.085 124.277 193.703 124.277 190.766Z" fill="url(#paint7_linear_3111_8064)"/>
<g filter="url(#filter7_dii_3111_8064)">
<path d="M124.277 190.766C124.277 187.828 121.895 185.447 118.957 185.447C116.02 185.447 113.638 187.828 113.638 190.766C113.638 193.703 116.02 196.085 118.957 196.085C121.895 196.085 124.277 193.703 124.277 190.766Z" fill="url(#paint8_linear_3111_8064)"/>
</g>
<path d="M119.955 187.109L119.955 189.769L122.614 189.769L122.614 191.763L119.955 191.763L119.955 194.423L117.96 194.423L117.96 191.763L115.301 191.763L115.301 189.769L117.96 189.769L117.96 187.109L119.955 187.109Z" fill="url(#paint9_linear_3111_8064)"/>
<g filter="url(#filter8_i_3111_8064)">
<path d="M119.622 194.09L119.622 191.431L122.282 191.431L122.282 190.101L119.622 190.101L119.622 187.441L118.293 187.441L118.293 190.101L115.633 190.101L115.633 191.431L118.293 191.431L118.293 194.09L119.622 194.09Z" fill="#666D74"/>
</g>
<g filter="url(#filter9_diii_3111_8064)">
<rect x="9.38293" y="3" width="218.085" height="179.787" rx="16" fill="url(#paint10_linear_3111_8064)"/>
</g>
<g filter="url(#filter10_i_3111_8064)">
<path d="M86.8163 97.1779C87.1648 96.8742 87.695 96.9121 88.0056 97.2614C88.6949 98.0283 90.1189 99.19 92.4216 99.19C94.0199 99.19 96.2242 98.5522 96.2242 96.6312C96.2242 94.9683 94.4365 94.452 92.1641 93.9433C88.9675 93.2295 86.9905 92.0147 86.9905 89.5849C86.9905 87.5045 88.9372 85.4544 92.1262 85.4544C94.3305 85.4544 95.853 86.3048 96.6559 86.9122C97.0423 87.2007 97.1029 87.7626 96.7771 88.1271C96.4969 88.4384 96.0272 88.4991 95.6864 88.2486C95.0274 87.7702 93.8078 87.0944 92.1262 87.0944C90.1492 87.0944 88.6797 88.0891 88.6797 89.5925C88.6797 91.3845 90.5961 91.9008 93.0579 92.4399C95.7697 93.0473 97.9437 94.0116 97.9437 96.6312C97.9437 99.4178 95.1637 100.822 92.4141 100.822C89.4145 100.822 87.5738 99.3191 86.733 98.4079C86.4073 98.0511 86.4451 97.4968 86.8087 97.1855L86.8163 97.1779ZM114.684 93.1384C114.684 93.1384 114.684 93.1384 114.684 93.146C114.684 93.5105 114.388 93.8066 114.017 93.8066H102.095C102.223 96.0162 104.041 99.1824 107.904 99.1824C109.783 99.1824 111.321 98.3016 112.358 97.2766C112.669 96.9653 113.177 96.9805 113.48 97.2918C113.783 97.6031 113.783 98.1042 113.48 98.4155C112.063 99.8202 110.025 100.815 107.912 100.815C103.572 100.815 100.436 97.2918 100.436 93.1308C100.436 88.9699 103.276 85.4544 107.624 85.4544C111.487 85.4544 114.684 88.6586 114.684 93.1384ZM112.957 92.2728C112.896 90.61 111.457 87.0869 107.624 87.0869C103.564 87.0869 102.223 90.6707 102.163 92.2728H112.957ZM130.076 91.1187V99.6C130.076 100.063 129.705 100.435 129.243 100.435C128.781 100.435 128.409 100.063 128.409 99.6V91.3693C128.409 88.3625 126.652 87.0793 124.289 87.0793C121.062 87.0793 119.782 90.3442 119.782 90.3442V99.6C119.782 100.063 119.411 100.435 118.949 100.435C118.486 100.435 118.115 100.063 118.115 99.6V86.5857C118.115 86.1681 118.449 85.834 118.865 85.834C119.282 85.834 119.615 86.1681 119.615 86.5857V88.4915C119.615 88.4915 121.024 85.4468 124.599 85.4468C127.311 85.4468 130.061 87.14 130.061 91.1111L130.076 91.1187ZM133.907 97.1779C134.255 96.8742 134.785 96.9121 135.096 97.2614C135.785 98.0283 137.209 99.19 139.512 99.19C141.11 99.19 143.315 98.5522 143.315 96.6312C143.315 94.9683 141.527 94.452 139.254 93.9433C136.058 93.2371 134.081 92.0223 134.081 89.5925C134.081 87.5121 136.028 85.462 139.224 85.462C141.428 85.462 142.951 86.3124 143.754 86.9198C144.14 87.2083 144.201 87.7702 143.875 88.1347C143.595 88.446 143.125 88.5067 142.784 88.2562C142.125 87.7778 140.906 87.102 139.224 87.102C137.247 87.102 135.778 88.0967 135.778 89.6001C135.778 91.392 137.694 91.9084 140.156 92.4475C142.868 93.0549 145.042 94.0192 145.042 96.6388C145.042 99.4254 142.262 100.83 139.512 100.83C136.512 100.83 134.672 99.3267 133.831 98.4155C133.505 98.0587 133.543 97.5044 133.907 97.1931V97.1779ZM148.85 86.6692V99.6076C148.85 100.071 149.221 100.443 149.683 100.443C150.145 100.443 150.516 100.071 150.516 99.6076V86.6692C150.516 86.2061 150.145 85.834 149.683 85.834C149.221 85.834 148.85 86.2061 148.85 86.6692Z" fill="#E9ECEE"/>
</g>
<defs>
<filter id="filter0_dii_3111_8064" x="0" y="69.1489" width="30.4678" height="48.5527" filterUnits="userSpaceOnUse" color-interpolation-filters="sRGB">
<feFlood flood-opacity="0" result="BackgroundImageFix"/>
<feColorMatrix in="SourceAlpha" type="matrix" values="0 0 0 0 0 0 0 0 0 0 0 0 0 0 0 0 0 0 127 0" result="hardAlpha"/>
<feOffset/>
<feGaussianBlur stdDeviation="1.5"/>
<feComposite in2="hardAlpha" operator="out"/>
<feColorMatrix type="matrix" values="0 0 0 0 0.133333 0 0 0 0 0.168627 0 0 0 0 0.196078 0 0 0 0.4 0"/>
<feBlend mode="normal" in2="BackgroundImageFix" result="effect1_dropShadow_3111_8064"/>
<feBlend mode="normal" in="SourceGraphic" in2="effect1_dropShadow_3111_8064" result="shape"/>
<feColorMatrix in="SourceAlpha" type="matrix" values="0 0 0 0 0 0 0 0 0 0 0 0 0 0 0 0 0 0 127 0" result="hardAlpha"/>
<feOffset/>
<feGaussianBlur stdDeviation="1"/>
<feComposite in2="hardAlpha" operator="arithmetic" k2="-1" k3="1"/>
<feColorMatrix type="matrix" values="0 0 0 0 0 0 0 0 0 0 0 0 0 0 0 0 0 0 0.25 0"/>
<feBlend mode="normal" in2="shape" result="effect2_innerShadow_3111_8064"/>
<feColorMatrix in="SourceAlpha" type="matrix" values="0 0 0 0 0 0 0 0 0 0 0 0 0 0 0 0 0 0 127 0" result="hardAlpha"/>
<feOffset/>
<feGaussianBlur stdDeviation="0.5"/>
<feComposite in2="hardAlpha" operator="arithmetic" k2="-1" k3="1"/>
<feColorMatrix type="matrix" values="0 0 0 0 0 0 0 0 0 0 0 0 0 0 0 0 0 0 0.25 0"/>
<feBlend mode="normal" in2="effect2_innerShadow_3111_8064" result="effect3_innerShadow_3111_8064"/>
</filter>
<filter id="filter1_dii_3111_8064" x="0.0563965" y="69.2051" width="14.7202" height="14.7202" filterUnits="userSpaceOnUse" color-interpolation-filters="sRGB">
<feFlood flood-opacity="0" result="BackgroundImageFix"/>
<feColorMatrix in="SourceAlpha" type="matrix" values="0 0 0 0 0 0 0 0 0 0 0 0 0 0 0 0 0 0 127 0" result="hardAlpha"/>
<feOffset/>
<feGaussianBlur stdDeviation="1.5"/>
<feComposite in2="hardAlpha" operator="out"/>
<feColorMatrix type="matrix" values="0 0 0 0 0.133333 0 0 0 0 0.168627 0 0 0 0 0.196078 0 0 0 0.4 0"/>
<feBlend mode="normal" in2="BackgroundImageFix" result="effect1_dropShadow_3111_8064"/>
<feBlend mode="normal" in="SourceGraphic" in2="effect1_dropShadow_3111_8064" result="shape"/>
<feColorMatrix in="SourceAlpha" type="matrix" values="0 0 0 0 0 0 0 0 0 0 0 0 0 0 0 0 0 0 127 0" result="hardAlpha"/>
<feOffset/>
<feGaussianBlur stdDeviation="1"/>
<feComposite in2="hardAlpha" operator="arithmetic" k2="-1" k3="1"/>
<feColorMatrix type="matrix" values="0 0 0 0 0 0 0 0 0 0 0 0 0 0 0 0 0 0 0.25 0"/>
<feBlend mode="normal" in2="shape" result="effect2_innerShadow_3111_8064"/>
<feColorMatrix in="SourceAlpha" type="matrix" values="0 0 0 0 0 0 0 0 0 0 0 0 0 0 0 0 0 0 127 0" result="hardAlpha"/>
<feOffset/>
<feGaussianBlur stdDeviation="0.5"/>
<feComposite in2="hardAlpha" operator="arithmetic" k2="-1" k3="1"/>
<feColorMatrix type="matrix" values="0 0 0 0 0 0 0 0 0 0 0 0 0 0 0 0 0 0 0.25 0"/>
<feBlend mode="normal" in2="effect2_innerShadow_3111_8064" result="effect3_innerShadow_3111_8064"/>
</filter>
<filter id="filter2_dii_3111_8064" x="0.0563965" y="102.926" width="14.7202" height="14.7202" filterUnits="userSpaceOnUse" color-interpolation-filters="sRGB">
<feFlood flood-opacity="0" result="BackgroundImageFix"/>
<feColorMatrix in="SourceAlpha" type="matrix" values="0 0 0 0 0 0 0 0 0 0 0 0 0 0 0 0 0 0 127 0" result="hardAlpha"/>
<feOffset/>
<feGaussianBlur stdDeviation="1.5"/>
<feComposite in2="hardAlpha" operator="out"/>
<feColorMatrix type="matrix" values="0 0 0 0 0.133333 0 0 0 0 0.168627 0 0 0 0 0.196078 0 0 0 0.4 0"/>
<feBlend mode="normal" in2="BackgroundImageFix" result="effect1_dropShadow_3111_8064"/>
<feBlend mode="normal" in="SourceGraphic" in2="effect1_dropShadow_3111_8064" result="shape"/>
<feColorMatrix in="SourceAlpha" type="matrix" values="0 0 0 0 0 0 0 0 0 0 0 0 0 0 0 0 0 0 127 0" result="hardAlpha"/>
<feOffset/>
<feGaussianBlur stdDeviation="1"/>
<feComposite in2="hardAlpha" operator="arithmetic" k2="-1" k3="1"/>
<feColorMatrix type="matrix" values="0 0 0 0 0 0 0 0 0 0 0 0 0 0 0 0 0 0 0.25 0"/>
<feBlend mode="normal" in2="shape" result="effect2_innerShadow_3111_8064"/>
<feColorMatrix in="SourceAlpha" type="matrix" values="0 0 0 0 0 0 0 0 0 0 0 0 0 0 0 0 0 0 127 0" result="hardAlpha"/>
<feOffset/>
<feGaussianBlur stdDeviation="0.5"/>
<feComposite in2="hardAlpha" operator="arithmetic" k2="-1" k3="1"/>
<feColorMatrix type="matrix" values="0 0 0 0 0 0 0 0 0 0 0 0 0 0 0 0 0 0 0.25 0"/>
<feBlend mode="normal" in2="effect2_innerShadow_3111_8064" result="effect3_innerShadow_3111_8064"/>
</filter>
<filter id="filter3_dii_3111_8064" x="206.383" y="69.1494" width="30.4678" height="48.5527" filterUnits="userSpaceOnUse" color-interpolation-filters="sRGB">
<feFlood flood-opacity="0" result="BackgroundImageFix"/>
<feColorMatrix in="SourceAlpha" type="matrix" values="0 0 0 0 0 0 0 0 0 0 0 0 0 0 0 0 0 0 127 0" result="hardAlpha"/>
<feOffset/>
<feGaussianBlur stdDeviation="1.5"/>
<feComposite in2="hardAlpha" operator="out"/>
<feColorMatrix type="matrix" values="0 0 0 0 0.133333 0 0 0 0 0.168627 0 0 0 0 0.196078 0 0 0 0.4 0"/>
<feBlend mode="normal" in2="BackgroundImageFix" result="effect1_dropShadow_3111_8064"/>
<feBlend mode="normal" in="SourceGraphic" in2="effect1_dropShadow_3111_8064" result="shape"/>
<feColorMatrix in="SourceAlpha" type="matrix" values="0 0 0 0 0 0 0 0 0 0 0 0 0 0 0 0 0 0 127 0" result="hardAlpha"/>
<feOffset/>
<feGaussianBlur stdDeviation="1"/>
<feComposite in2="hardAlpha" operator="arithmetic" k2="-1" k3="1"/>
<feColorMatrix type="matrix" values="0 0 0 0 0 0 0 0 0 0 0 0 0 0 0 0 0 0 0.25 0"/>
<feBlend mode="normal" in2="shape" result="effect2_innerShadow_3111_8064"/>
<feColorMatrix in="SourceAlpha" type="matrix" values="0 0 0 0 0 0 0 0 0 0 0 0 0 0 0 0 0 0 127 0" result="hardAlpha"/>
<feOffset/>
<feGaussianBlur stdDeviation="0.5"/>
<feComposite in2="hardAlpha" operator="arithmetic" k2="-1" k3="1"/>
<feColorMatrix type="matrix" values="0 0 0 0 0 0 0 0 0 0 0 0 0 0 0 0 0 0 0.25 0"/>
<feBlend mode="normal" in2="effect2_innerShadow_3111_8064" result="effect3_innerShadow_3111_8064"/>
</filter>
<filter id="filter4_dii_3111_8064" x="222.074" y="102.926" width="14.7202" height="14.7202" filterUnits="userSpaceOnUse" color-interpolation-filters="sRGB">
<feFlood flood-opacity="0" result="BackgroundImageFix"/>
<feColorMatrix in="SourceAlpha" type="matrix" values="0 0 0 0 0 0 0 0 0 0 0 0 0 0 0 0 0 0 127 0" result="hardAlpha"/>
<feOffset/>
<feGaussianBlur stdDeviation="1.5"/>
<feComposite in2="hardAlpha" operator="out"/>
<feColorMatrix type="matrix" values="0 0 0 0 0.133333 0 0 0 0 0.168627 0 0 0 0 0.196078 0 0 0 0.4 0"/>
<feBlend mode="normal" in2="BackgroundImageFix" result="effect1_dropShadow_3111_8064"/>
<feBlend mode="normal" in="SourceGraphic" in2="effect1_dropShadow_3111_8064" result="shape"/>
<feColorMatrix in="SourceAlpha" type="matrix" values="0 0 0 0 0 0 0 0 0 0 0 0 0 0 0 0 0 0 127 0" result="hardAlpha"/>
<feOffset/>
<feGaussianBlur stdDeviation="1"/>
<feComposite in2="hardAlpha" operator="arithmetic" k2="-1" k3="1"/>
<feColorMatrix type="matrix" values="0 0 0 0 0 0 0 0 0 0 0 0 0 0 0 0 0 0 0.25 0"/>
<feBlend mode="normal" in2="shape" result="effect2_innerShadow_3111_8064"/>
<feColorMatrix in="SourceAlpha" type="matrix" values="0 0 0 0 0 0 0 0 0 0 0 0 0 0 0 0 0 0 127 0" result="hardAlpha"/>
<feOffset/>
<feGaussianBlur stdDeviation="0.5"/>
<feComposite in2="hardAlpha" operator="arithmetic" k2="-1" k3="1"/>
<feColorMatrix type="matrix" values="0 0 0 0 0 0 0 0 0 0 0 0 0 0 0 0 0 0 0.25 0"/>
<feBlend mode="normal" in2="effect2_innerShadow_3111_8064" result="effect3_innerShadow_3111_8064"/>
</filter>
<filter id="filter5_dii_3111_8064" x="222.074" y="69.2051" width="14.7202" height="14.7202" filterUnits="userSpaceOnUse" color-interpolation-filters="sRGB">
<feFlood flood-opacity="0" result="BackgroundImageFix"/>
<feColorMatrix in="SourceAlpha" type="matrix" values="0 0 0 0 0 0 0 0 0 0 0 0 0 0 0 0 0 0 127 0" result="hardAlpha"/>
<feOffset/>
<feGaussianBlur stdDeviation="1.5"/>
<feComposite in2="hardAlpha" operator="out"/>
<feColorMatrix type="matrix" values="0 0 0 0 0.133333 0 0 0 0 0.168627 0 0 0 0 0.196078 0 0 0 0.4 0"/>
<feBlend mode="normal" in2="BackgroundImageFix" result="effect1_dropShadow_3111_8064"/>
<feBlend mode="normal" in="SourceGraphic" in2="effect1_dropShadow_3111_8064" result="shape"/>
<feColorMatrix in="SourceAlpha" type="matrix" values="0 0 0 0 0 0 0 0 0 0 0 0 0 0 0 0 0 0 127 0" result="hardAlpha"/>
<feOffset/>
<feGaussianBlur stdDeviation="1"/>
<feComposite in2="hardAlpha" operator="arithmetic" k2="-1" k3="1"/>
<feColorMatrix type="matrix" values="0 0 0 0 0 0 0 0 0 0 0 0 0 0 0 0 0 0 0.25 0"/>
<feBlend mode="normal" in2="shape" result="effect2_innerShadow_3111_8064"/>
<feColorMatrix in="SourceAlpha" type="matrix" values="0 0 0 0 0 0 0 0 0 0 0 0 0 0 0 0 0 0 127 0" result="hardAlpha"/>
<feOffset/>
<feGaussianBlur stdDeviation="0.5"/>
<feComposite in2="hardAlpha" operator="arithmetic" k2="-1" k3="1"/>
<feColorMatrix type="matrix" values="0 0 0 0 0 0 0 0 0 0 0 0 0 0 0 0 0 0 0.25 0"/>
<feBlend mode="normal" in2="effect2_innerShadow_3111_8064" result="effect3_innerShadow_3111_8064"/>
</filter>
<filter id="filter6_dii_3111_8064" x="92.0212" y="171.809" width="53.8723" height="34.1914" filterUnits="userSpaceOnUse" color-interpolation-filters="sRGB">
<feFlood flood-opacity="0" result="BackgroundImageFix"/>
<feColorMatrix in="SourceAlpha" type="matrix" values="0 0 0 0 0 0 0 0 0 0 0 0 0 0 0 0 0 0 127 0" result="hardAlpha"/>
<feOffset/>
<feGaussianBlur stdDeviation="1.5"/>
<feComposite in2="hardAlpha" operator="out"/>
<feColorMatrix type="matrix" values="0 0 0 0 0.133333 0 0 0 0 0.168627 0 0 0 0 0.196078 0 0 0 0.4 0"/>
<feBlend mode="normal" in2="BackgroundImageFix" result="effect1_dropShadow_3111_8064"/>
<feBlend mode="normal" in="SourceGraphic" in2="effect1_dropShadow_3111_8064" result="shape"/>
<feColorMatrix in="SourceAlpha" type="matrix" values="0 0 0 0 0 0 0 0 0 0 0 0 0 0 0 0 0 0 127 0" result="hardAlpha"/>
<feOffset/>
<feGaussianBlur stdDeviation="1"/>
<feComposite in2="hardAlpha" operator="arithmetic" k2="-1" k3="1"/>
<feColorMatrix type="matrix" values="0 0 0 0 0 0 0 0 0 0 0 0 0 0 0 0 0 0 0.25 0"/>
<feBlend mode="normal" in2="shape" result="effect2_innerShadow_3111_8064"/>
<feColorMatrix in="SourceAlpha" type="matrix" values="0 0 0 0 0 0 0 0 0 0 0 0 0 0 0 0 0 0 127 0" result="hardAlpha"/>
<feOffset/>
<feGaussianBlur stdDeviation="0.5"/>
<feComposite in2="hardAlpha" operator="arithmetic" k2="-1" k3="1"/>
<feColorMatrix type="matrix" values="0 0 0 0 0 0 0 0 0 0 0 0 0 0 0 0 0 0 0.25 0"/>
<feBlend mode="normal" in2="effect2_innerShadow_3111_8064" result="effect3_innerShadow_3111_8064"/>
</filter>
<filter id="filter7_dii_3111_8064" x="110.638" y="182.447" width="16.6383" height="16.6382" filterUnits="userSpaceOnUse" color-interpolation-filters="sRGB">
<feFlood flood-opacity="0" result="BackgroundImageFix"/>
<feColorMatrix in="SourceAlpha" type="matrix" values="0 0 0 0 0 0 0 0 0 0 0 0 0 0 0 0 0 0 127 0" result="hardAlpha"/>
<feOffset/>
<feGaussianBlur stdDeviation="1.5"/>
<feComposite in2="hardAlpha" operator="out"/>
<feColorMatrix type="matrix" values="0 0 0 0 0.133333 0 0 0 0 0.168627 0 0 0 0 0.196078 0 0 0 0.4 0"/>
<feBlend mode="normal" in2="BackgroundImageFix" result="effect1_dropShadow_3111_8064"/>
<feBlend mode="normal" in="SourceGraphic" in2="effect1_dropShadow_3111_8064" result="shape"/>
<feColorMatrix in="SourceAlpha" type="matrix" values="0 0 0 0 0 0 0 0 0 0 0 0 0 0 0 0 0 0 127 0" result="hardAlpha"/>
<feOffset/>
<feGaussianBlur stdDeviation="3"/>
<feComposite in2="hardAlpha" operator="arithmetic" k2="-1" k3="1"/>
<feColorMatrix type="matrix" values="0 0 0 0 0 0 0 0 0 0 0 0 0 0 0 0 0 0 1 0"/>
<feBlend mode="normal" in2="shape" result="effect2_innerShadow_3111_8064"/>
<feColorMatrix in="SourceAlpha" type="matrix" values="0 0 0 0 0 0 0 0 0 0 0 0 0 0 0 0 0 0 127 0" result="hardAlpha"/>
<feOffset/>
<feGaussianBlur stdDeviation="0.5"/>
<feComposite in2="hardAlpha" operator="arithmetic" k2="-1" k3="1"/>
<feColorMatrix type="matrix" values="0 0 0 0 0 0 0 0 0 0 0 0 0 0 0 0 0 0 0.25 0"/>
<feBlend mode="normal" in2="effect2_innerShadow_3111_8064" result="effect3_innerShadow_3111_8064"/>
</filter>
<filter id="filter8_i_3111_8064" x="115.633" y="187.441" width="6.64893" height="6.64893" filterUnits="userSpaceOnUse" color-interpolation-filters="sRGB">
<feFlood flood-opacity="0" result="BackgroundImageFix"/>
<feBlend mode="normal" in="SourceGraphic" in2="BackgroundImageFix" result="shape"/>
<feColorMatrix in="SourceAlpha" type="matrix" values="0 0 0 0 0 0 0 0 0 0 0 0 0 0 0 0 0 0 127 0" result="hardAlpha"/>
<feOffset/>
<feGaussianBlur stdDeviation="2.5"/>
<feComposite in2="hardAlpha" operator="arithmetic" k2="-1" k3="1"/>
<feColorMatrix type="matrix" values="0 0 0 0 0 0 0 0 0 0 0 0 0 0 0 0 0 0 0.8 0"/>
<feBlend mode="normal" in2="shape" result="effect1_innerShadow_3111_8064"/>
</filter>
<filter id="filter9_diii_3111_8064" x="6.38293" y="0" width="224.085" height="185.787" filterUnits="userSpaceOnUse" color-interpolation-filters="sRGB">
<feFlood flood-opacity="0" result="BackgroundImageFix"/>
<feColorMatrix in="SourceAlpha" type="matrix" values="0 0 0 0 0 0 0 0 0 0 0 0 0 0 0 0 0 0 127 0" result="hardAlpha"/>
<feOffset/>
<feGaussianBlur stdDeviation="1.5"/>
<feComposite in2="hardAlpha" operator="out"/>
<feColorMatrix type="matrix" values="0 0 0 0 0.133333 0 0 0 0 0.168627 0 0 0 0 0.196078 0 0 0 0.4 0"/>
<feBlend mode="normal" in2="BackgroundImageFix" result="effect1_dropShadow_3111_8064"/>
<feBlend mode="normal" in="SourceGraphic" in2="effect1_dropShadow_3111_8064" result="shape"/>
<feColorMatrix in="SourceAlpha" type="matrix" values="0 0 0 0 0 0 0 0 0 0 0 0 0 0 0 0 0 0 127 0" result="hardAlpha"/>
<feOffset/>
<feGaussianBlur stdDeviation="1"/>
<feComposite in2="hardAlpha" operator="arithmetic" k2="-1" k3="1"/>
<feColorMatrix type="matrix" values="0 0 0 0 0 0 0 0 0 0 0 0 0 0 0 0 0 0 0.25 0"/>
<feBlend mode="normal" in2="shape" result="effect2_innerShadow_3111_8064"/>
<feColorMatrix in="SourceAlpha" type="matrix" values="0 0 0 0 0 0 0 0 0 0 0 0 0 0 0 0 0 0 127 0" result="hardAlpha"/>
<feOffset/>
<feGaussianBlur stdDeviation="0.5"/>
<feComposite in2="hardAlpha" operator="arithmetic" k2="-1" k3="1"/>
<feColorMatrix type="matrix" values="0 0 0 0 0 0 0 0 0 0 0 0 0 0 0 0 0 0 0.25 0"/>
<feBlend mode="normal" in2="effect2_innerShadow_3111_8064" result="effect3_innerShadow_3111_8064"/>
<feColorMatrix in="SourceAlpha" type="matrix" values="0 0 0 0 0 0 0 0 0 0 0 0 0 0 0 0 0 0 127 0" result="hardAlpha"/>
<feOffset/>
<feGaussianBlur stdDeviation="3"/>
<feComposite in2="hardAlpha" operator="arithmetic" k2="-1" k3="1"/>
<feColorMatrix type="matrix" values="0 0 0 0 0 0 0 0 0 0 0 0 0 0 0 0 0 0 0.2 0"/>
<feBlend mode="normal" in2="effect3_innerShadow_3111_8064" result="effect4_innerShadow_3111_8064"/>
</filter>
<filter id="filter10_i_3111_8064" x="86.5106" y="85.4468" width="64.0055" height="15.3833" filterUnits="userSpaceOnUse" color-interpolation-filters="sRGB">
<feFlood flood-opacity="0" result="BackgroundImageFix"/>
<feBlend mode="normal" in="SourceGraphic" in2="BackgroundImageFix" result="shape"/>
<feColorMatrix in="SourceAlpha" type="matrix" values="0 0 0 0 0 0 0 0 0 0 0 0 0 0 0 0 0 0 127 0" result="hardAlpha"/>
<feOffset/>
<feGaussianBlur stdDeviation="2"/>
<feComposite in2="hardAlpha" operator="arithmetic" k2="-1" k3="1"/>
<feColorMatrix type="matrix" values="0 0 0 0 0 0 0 0 0 0 0 0 0 0 0 0 0 0 0.19 0"/>
<feBlend mode="normal" in2="shape" result="effect1_innerShadow_3111_8064"/>
</filter>
<linearGradient id="paint0_linear_3111_8064" x1="15.2339" y1="72.1489" x2="15.2339" y2="114.702" gradientUnits="userSpaceOnUse">
<stop offset="0.004" stop-color="white"/>
<stop offset="0.992" stop-color="#E9ECEE"/>
</linearGradient>
<linearGradient id="paint1_linear_3111_8064" x1="11.7766" y1="72.1489" x2="11.7766" y2="89.7021" gradientUnits="userSpaceOnUse">
<stop offset="0.004" stop-color="white"/>
<stop offset="0.992" stop-color="#E9ECEE"/>
</linearGradient>
<linearGradient id="paint2_linear_3111_8064" x1="3" y1="105.926" x2="20.5532" y2="105.926" gradientUnits="userSpaceOnUse">
<stop offset="0.004" stop-color="white"/>
<stop offset="0.992" stop-color="#E9ECEE"/>
</linearGradient>
<linearGradient id="paint3_linear_3111_8064" x1="221.617" y1="114.702" x2="221.617" y2="72.1494" gradientUnits="userSpaceOnUse">
<stop offset="0.004" stop-color="white"/>
<stop offset="0.992" stop-color="#E9ECEE"/>
</linearGradient>
<linearGradient id="paint4_linear_3111_8064" x1="225.074" y1="114.702" x2="225.074" y2="97.149" gradientUnits="userSpaceOnUse">
<stop offset="0.004" stop-color="white"/>
<stop offset="0.992" stop-color="#E9ECEE"/>
</linearGradient>
<linearGradient id="paint5_linear_3111_8064" x1="233.851" y1="80.9255" x2="216.298" y2="80.9255" gradientUnits="userSpaceOnUse">
<stop offset="0.004" stop-color="white"/>
<stop offset="0.992" stop-color="#E9ECEE"/>
</linearGradient>
<linearGradient id="paint6_linear_3111_8064" x1="118.957" y1="174.809" x2="118.957" y2="203" gradientUnits="userSpaceOnUse">
<stop offset="0.004" stop-color="white"/>
<stop offset="0.992" stop-color="#E9ECEE"/>
</linearGradient>
<linearGradient id="paint7_linear_3111_8064" x1="124.226" y1="194.925" x2="111.911" y2="185.202" gradientUnits="userSpaceOnUse">
<stop stop-color="#E5E2DF"/>
<stop offset="0.01" stop-color="#D6D3D1"/>
<stop offset="0.02" stop-color="#AFADAB"/>
<stop offset="0.05" stop-color="#706F6D"/>
<stop offset="0.07" stop-color="#1A1A19"/>
<stop offset="0.08" stop-color="#020202"/>
<stop offset="1" stop-color="#D1D3D4"/>
</linearGradient>
<linearGradient id="paint8_linear_3111_8064" x1="124.228" y1="194.929" x2="114.552" y2="187.29" gradientUnits="userSpaceOnUse">
<stop stop-color="#CCC7C2"/>
<stop offset="0.07" stop-color="#BDB9B4"/>
<stop offset="0.15" stop-color="#A7A3A0"/>
<stop offset="0.52" stop-color="#E0E1E2"/>
<stop offset="0.62" stop-color="#D3D3D3"/>
<stop offset="0.82" stop-color="#B2AFAC"/>
<stop offset="0.88" stop-color="#A7A3A0"/>
<stop offset="1" stop-color="#A7A9AC"/>
</linearGradient>
<linearGradient id="paint9_linear_3111_8064" x1="121.564" y1="194.021" x2="117.402" y2="188.826" gradientUnits="userSpaceOnUse">
<stop stop-color="white"/>
<stop offset="0.09" stop-color="white" stop-opacity="0.94"/>
<stop offset="0.27" stop-color="white" stop-opacity="0.79"/>
<stop offset="0.51" stop-color="white" stop-opacity="0.54"/>
<stop offset="0.81" stop-color="white" stop-opacity="0.2"/>
<stop offset="0.97" stop-color="white" stop-opacity="0"/>
</linearGradient>
<linearGradient id="paint10_linear_3111_8064" x1="118.425" y1="3" x2="118.425" y2="182.787" gradientUnits="userSpaceOnUse">
<stop offset="0.004" stop-color="white"/>
<stop offset="0.992" stop-color="#E9ECEE"/>
</linearGradient>
</defs>
</svg>
