<svg width="132" height="158" viewBox="0 0 132 158" fill="none" xmlns="http://www.w3.org/2000/svg">
<g filter="url(#filter0_d_2012_16211)">
<path d="M86.811 26.7447V64.0794C86.811 65.4051 85.7379 66.4784 84.4185 66.4784H47.5492C46.2298 66.4784 45.1567 65.4051 45.1567 64.0794V26.7447C45.1567 25.419 46.2298 24.3457 47.5492 24.3457H84.4185C85.7379 24.3457 86.811 25.419 86.811 26.7447Z" fill="url(#paint0_linear_2012_16211)"/>
<path d="M70.0034 43.6355H61.9645C61.7437 43.6355 61.5647 43.815 61.5647 44.0364V61.3977C61.5647 61.6191 61.7437 61.7986 61.9645 61.7986H70.0034C70.2242 61.7986 70.4032 61.6191 70.4032 61.3977V44.0364C70.4032 43.815 70.2242 43.6355 70.0034 43.6355Z" fill="#E9ECEE"/>
<path d="M70.4032 52.9504H61.5647V58.1709H70.4032V52.9504Z" fill="url(#paint1_linear_2012_16211)"/>
<path d="M70.4032 52.9504H61.5647V55.1954H70.4032V52.9504Z" fill="#E9ECEE"/>
<path d="M70.4032 55.9259H61.5647V58.1708H70.4032V55.9259Z" fill="#ADB4BD"/>
<path d="M82.4315 60.8807C83.1131 60.8807 83.6656 60.3267 83.6656 59.6433C83.6656 58.9598 83.1131 58.4058 82.4315 58.4058C81.7499 58.4058 81.1974 58.9598 81.1974 59.6433C81.1974 60.3267 81.7499 60.8807 82.4315 60.8807Z" fill="url(#paint2_linear_2012_16211)"/>
<path d="M49.643 60.8807C50.3246 60.8807 50.8771 60.3267 50.8771 59.6433C50.8771 58.9598 50.3246 58.4058 49.643 58.4058C48.9615 58.4058 48.4089 58.9598 48.4089 59.6433C48.4089 60.3267 48.9615 60.8807 49.643 60.8807Z" fill="url(#paint3_linear_2012_16211)"/>
<path d="M82.4315 32.5852C83.1131 32.5852 83.6656 32.0312 83.6656 31.3477C83.6656 30.6643 83.1131 30.1102 82.4315 30.1102C81.7499 30.1102 81.1974 30.6643 81.1974 31.3477C81.1974 32.0312 81.7499 32.5852 82.4315 32.5852Z" fill="url(#paint4_linear_2012_16211)"/>
<path d="M49.643 32.5852C50.3246 32.5852 50.8771 32.0312 50.8771 31.3477C50.8771 30.6643 50.3246 30.1102 49.643 30.1102C48.9615 30.1102 48.4089 30.6643 48.4089 31.3477C48.4089 32.0312 48.9615 32.5852 49.643 32.5852Z" fill="url(#paint5_linear_2012_16211)"/>
<path d="M65.9335 40.9581C65.3819 40.9581 64.8504 40.8656 64.3884 40.6898H63.456V37.3333L63.1015 37.0607H58.6396V33.8408C58.6396 29.7904 61.9271 26.495 65.968 26.495C70.0089 26.495 73.2933 29.7904 73.2933 33.8408V37.0607H68.7072L68.4105 37.3157V40.6898H67.4779C67.0139 40.8656 66.4822 40.9581 65.9332 40.9581H65.9335Z" fill="#E9ECEE"/>
<path d="M72.7637 33.5751V36.2636H68.5114L67.8809 36.8056V39.8927H67.3775C66.9668 40.0627 66.4687 40.161 65.9335 40.161C65.3983 40.161 64.8976 40.0627 64.4896 39.8927H63.9862V36.8056L63.2815 36.2636H59.1696V33.5751C59.1696 29.8105 62.2111 26.7606 65.968 26.7606C69.7249 26.7606 72.7637 29.8105 72.7637 33.5751Z" fill="url(#paint6_linear_2012_16211)"/>
<path d="M54.7702 24.3457L53.5157 35.7961V24.3457H54.7702Z" fill="#E9ECEE"/>
<path d="M77.1285 24.3457L78.383 35.7961V24.3457H77.1285Z" fill="#E9ECEE"/>
<path d="M116.276 148.421H15.7244V154H116.276V148.421Z" fill="url(#paint7_linear_2012_16211)"/>
<path d="M76.3334 66.5231V66.5548C75.9553 66.658 75.5385 66.9021 75.5385 67.3201V148.421H55.8654L55.9535 67.3201C55.8654 66.8228 55.5573 66.5231 55.0706 66.5231H76.3334Z" fill="url(#paint8_linear_2012_16211)"/>
</g>
<g filter="url(#filter1_d_2012_16211)">
<path d="M65.9925 128C65.9465 127.999 61.315 127.966 55.261 127.849C44.1775 127.635 30.0996 127.186 25.9749 126.258C19.4429 124.785 15.9606 123.36 11.3235 118.352C10.9922 118.022 7.74684 114.67 6.47199 108.892C6.13102 107.348 5.22914 101.525 4.77093 94.2797C4.03711 82.6475 4 68.6803 4 65.9985C4 63.3168 4.03711 49.3523 4.7712 37.72C5.22914 30.4806 6.13102 24.6524 6.47226 23.1051C7.74711 17.3288 10.993 13.9742 11.3235 13.6451C15.9606 8.63913 19.4434 7.21448 25.9744 5.74196C32.5834 4.25465 64.6313 4.00968 65.9925 4C67.3687 4.00968 99.4139 4.25465 106.022 5.74196C112.554 7.21475 116.036 8.6394 120.674 13.6453C121.004 13.9747 124.25 17.3288 125.528 23.1048C125.87 24.6543 126.771 30.4844 127.226 37.7206C127.963 49.394 128 63.3246 128 65.9988C128 68.6731 127.963 82.6061 127.226 94.28C126.771 101.522 125.869 107.347 125.528 108.893C124.25 114.67 121.005 118.022 120.674 118.352C116.037 123.361 112.554 124.786 106.023 126.258C101.798 127.21 87.2129 127.659 75.7218 127.868C70.176 127.969 66.0492 127.999 66.0081 128H65.9927H65.9925Z" fill="#E9ECEE"/>
<path d="M126.153 37.7879C125.712 30.7722 124.841 24.9827 124.478 23.337C123.214 17.6227 119.901 14.3932 119.901 14.3932C115.496 9.63361 112.358 8.27295 105.786 6.79129C99.2145 5.31232 66.0001 5.07568 66.0001 5.07568C66.0001 5.07568 32.783 5.31232 26.2111 6.79129C19.6392 8.27295 16.5012 9.63361 12.0966 14.3932C12.0966 14.3932 8.7838 17.6227 7.52266 23.337C7.15965 24.9827 6.28842 30.7722 5.84473 37.7879C5.22358 47.6324 5.07568 59.8461 5.07568 65.9986C5.07568 72.1511 5.22358 84.3674 5.84473 94.212C6.28842 101.228 7.15965 107.017 7.52266 108.66C8.7838 114.377 12.0966 117.604 12.0966 117.604C16.5012 122.366 19.6392 123.727 26.2111 125.209C30.336 126.136 44.9641 126.575 55.2818 126.774C61.3992 126.892 66.0001 126.924 66.0001 126.924C66.0001 126.924 70.0981 126.895 75.702 126.792C86.0465 126.604 101.524 126.169 105.786 125.209C112.358 123.727 115.496 122.366 119.901 117.604C119.901 117.604 123.214 114.377 124.478 108.66C124.841 107.017 125.712 101.228 126.153 94.212C126.774 84.3674 126.925 72.1538 126.925 65.9986C126.925 59.8434 126.774 47.6324 126.153 37.7879ZM124.007 94.0776C123.563 101.131 122.7 106.727 122.375 108.198C121.28 113.156 118.422 116.044 118.392 116.071L118.322 116.144C114.286 120.505 111.535 121.707 105.313 123.108C100.295 124.241 77.4122 124.692 66.0001 124.773C54.5853 124.692 31.702 124.241 26.6844 123.108C20.4621 121.707 17.7112 120.505 13.6751 116.144L13.6374 116.104L13.5998 116.066C13.5783 116.044 10.7172 113.156 9.62276 108.198C9.2974 106.727 8.43692 101.131 7.99324 94.0776C7.26452 82.5147 7.22687 68.6607 7.22687 65.9986C7.22687 63.3364 7.26452 49.4852 7.99324 37.9223C8.43692 30.869 9.2974 25.2731 9.62276 23.8022C10.7172 18.8436 13.5783 15.9555 13.6052 15.9287L13.6374 15.8964L13.6751 15.856C17.7112 11.4944 20.4621 10.2924 26.6844 8.89143C31.8876 7.71901 56.8118 7.29145 66.0001 7.22692C77.4122 7.30759 100.295 7.75935 105.313 8.89143C111.535 10.2924 114.289 11.4944 118.322 15.856L118.36 15.8964L118.4 15.934C118.422 15.9555 121.28 18.8436 122.375 23.8022C122.7 25.2731 123.563 30.869 124.007 37.9223C124.736 49.4852 124.773 63.3391 124.773 65.9986C124.773 68.6581 124.736 82.5147 124.007 94.0776Z" fill="url(#paint9_linear_2012_16211)"/>
<path d="M124.773 65.9986C124.773 68.6608 124.736 82.5147 124.007 94.0776C123.563 101.131 122.7 106.727 122.375 108.198C121.28 113.156 118.422 116.044 118.393 116.071L118.323 116.144C114.286 120.505 111.536 121.707 105.313 123.108C100.296 124.241 77.4123 124.692 66.0003 124.773C54.5855 124.692 31.7022 124.241 26.6846 123.108C20.4623 121.707 17.7114 120.505 13.6752 116.144L13.6376 116.104L13.6 116.066C13.5784 116.044 10.7174 113.156 9.62294 108.198C9.29757 106.727 8.4371 101.131 7.99341 94.0776C7.2647 82.5147 7.22705 68.6608 7.22705 65.9986C7.22705 63.3365 7.2647 49.4852 7.99341 37.9223C8.4371 30.869 9.29757 25.2731 9.62294 23.8022C10.7174 18.8436 13.5784 15.9556 13.6053 15.9287L13.6376 15.8964L13.6752 15.8561C17.7114 11.4944 20.4623 10.2924 26.6846 8.89145C31.8878 7.71902 56.812 7.29147 66.0003 7.22693C77.4123 7.3076 100.296 7.75936 105.313 8.89145C111.536 10.2924 114.289 11.4944 118.323 15.8561L118.36 15.8964L118.401 15.934C118.422 15.9556 121.28 18.8436 122.375 23.8022C122.7 25.2731 123.563 30.869 124.007 37.9223C124.736 49.4852 124.773 63.3391 124.773 65.9986Z" fill="url(#paint10_linear_2012_16211)"/>
<g filter="url(#filter2_i_2012_16211)">
<path d="M65.9993 123.698C56.8382 123.632 32.0293 123.21 26.9213 122.06C20.8469 120.692 18.3362 119.596 14.4654 115.413L14.4089 115.352L14.3492 115.294C14.3396 115.284 11.6936 112.584 10.6731 107.965C10.3179 106.357 9.48164 100.612 9.06538 94.0094C8.33882 82.4783 8.30225 68.6539 8.30225 65.9996C8.30225 63.3452 8.33909 49.5211 9.06538 37.9897C9.48137 31.3868 10.3179 25.6425 10.6731 24.0341C11.6936 19.4154 14.3396 16.7151 14.3662 16.6885L14.4259 16.6304L14.4654 16.586C18.3362 12.403 20.8469 11.3077 26.9213 9.9398C32.0304 8.78889 56.8385 8.36725 65.9993 8.30164C75.1604 8.36752 99.9693 8.78916 105.077 9.9398C111.152 11.308 113.663 12.4032 117.533 16.586L117.59 16.6473L117.649 16.7054C117.659 16.7154 120.305 19.4157 121.326 24.0344C121.681 25.6427 122.517 31.3873 122.933 37.9903C123.66 49.5214 123.696 63.3458 123.696 65.9999C123.696 68.6539 123.66 82.4786 122.933 94.0097C122.517 100.613 121.681 106.357 121.326 107.965C120.305 112.584 117.659 115.284 117.632 115.311L117.573 115.369L117.533 115.413C113.662 119.596 111.152 120.692 105.077 122.06C99.9693 123.21 75.1604 123.632 65.9993 123.698Z" fill="#E9ECEE"/>
</g>
<path d="M65.9993 122.084C53.3629 121.994 31.6861 121.479 27.2757 120.486C21.483 119.181 19.2544 118.213 15.6493 114.318L15.5635 114.225L15.499 114.162C15.2629 113.909 13.1082 111.51 12.2483 107.617C11.9022 106.051 11.0858 100.422 10.6755 93.9082C9.95212 82.426 9.91528 68.6457 9.91528 66C9.91528 63.3542 9.95185 49.5742 10.6755 38.0917C11.0858 31.5783 11.9022 25.9488 12.2483 24.3825C13.1251 20.4132 15.3581 17.9879 15.51 17.8269L15.5923 17.7467L15.6595 17.6712C19.2587 13.7842 21.4882 12.8174 27.2757 11.5141C31.6891 10.5199 53.3769 10.0058 66.0108 9.91516C78.6222 10.0058 100.311 10.5202 104.723 11.5138C110.515 12.8185 112.744 13.7863 116.349 17.6819L116.434 17.7733L116.5 17.8379C116.697 18.0492 118.885 20.4637 119.75 24.3825C120.096 25.9488 120.913 31.5781 121.323 38.0917C122.046 49.5739 122.083 63.3539 122.083 66C122.083 68.646 122.047 82.426 121.323 93.9084C120.913 100.422 120.096 106.051 119.75 107.618C118.873 111.59 116.637 114.016 116.488 114.174L116.407 114.253L116.34 114.328C112.741 118.215 110.511 119.182 104.723 120.486C100.313 121.479 78.6359 121.994 65.9995 122.085L65.9993 122.084Z" fill="url(#paint11_linear_2012_16211)"/>
<g filter="url(#filter3_i_2012_16211)">
<path d="M42.2292 27.1505C42.4906 26.9136 42.8882 26.9432 43.1211 27.2157C43.638 27.8139 44.706 28.7201 46.4329 28.7201C47.6315 28.7201 49.2845 28.2226 49.2845 26.7241C49.2845 25.427 47.9439 25.0242 46.2397 24.6273C43.8425 24.0706 42.3599 23.1229 42.3599 21.2275C42.3599 19.6046 43.8198 18.0054 46.2113 18.0054C47.8644 18.0054 49.0062 18.6688 49.6083 19.1427C49.898 19.3677 49.9435 19.806 49.6992 20.0903C49.489 20.3332 49.1368 20.3806 48.8812 20.1851C48.387 19.8119 47.4724 19.2848 46.2113 19.2848C44.7287 19.2848 43.6267 20.0607 43.6267 21.2335C43.6267 22.6313 45.0639 23.0341 46.9101 23.4546C48.9437 23.9284 50.574 24.6807 50.574 26.7241C50.574 28.8978 48.4893 29.9936 46.4272 29.9936C44.1777 29.9936 42.7973 28.8208 42.1668 28.1101C41.9225 27.8317 41.9509 27.3993 42.2236 27.1565L42.2292 27.1505ZM63.1281 23.9995C63.1281 23.9995 63.1281 23.9995 63.1281 24.0054C63.1281 24.2897 62.9066 24.5207 62.6283 24.5207H53.687C53.7836 26.2443 55.1469 28.7142 58.044 28.7142C59.4528 28.7142 60.606 28.0272 61.3842 27.2275C61.6171 26.9847 61.9977 26.9966 62.2249 27.2394C62.4522 27.4822 62.4522 27.8732 62.2249 28.116C61.1627 29.2118 59.6346 29.9877 58.0497 29.9877C54.7947 29.9877 52.443 27.2394 52.443 23.9936C52.443 20.7478 54.5732 18.0054 57.8338 18.0054C60.7309 18.0054 63.1281 20.5049 63.1281 23.9995ZM61.833 23.3243C61.7875 22.0272 60.7082 19.2789 57.8338 19.2789C54.789 19.2789 53.7836 22.0745 53.7381 23.3243H61.833ZM74.6711 22.424V29.04C74.6711 29.4013 74.3928 29.6915 74.0462 29.6915C73.6997 29.6915 73.4214 29.4013 73.4214 29.04V22.6195C73.4214 20.2739 72.1035 19.273 70.3311 19.273C67.9112 19.273 66.9512 21.8198 66.9512 21.8198V29.04C66.9512 29.4013 66.6728 29.6915 66.3263 29.6915C65.9798 29.6915 65.7015 29.4013 65.7015 29.04V18.888C65.7015 18.5622 65.9514 18.3016 66.2638 18.3016C66.5763 18.3016 66.8262 18.5622 66.8262 18.888V20.3746C66.8262 20.3746 67.8828 17.9995 70.564 17.9995C72.5977 17.9995 74.6597 19.3203 74.6597 22.4181L74.6711 22.424ZM77.544 27.1505C77.8053 26.9136 78.2029 26.9432 78.4358 27.2157C78.9528 27.8139 80.0207 28.7201 81.7476 28.7201C82.9462 28.7201 84.5993 28.2226 84.5993 26.7241C84.5993 25.427 83.2586 25.0242 81.5545 24.6273C79.1573 24.0765 77.6746 23.1288 77.6746 21.2335C77.6746 19.6106 79.1345 18.0114 81.5317 18.0114C83.1848 18.0114 84.3266 18.6747 84.9287 19.1486C85.2185 19.3736 85.2639 19.812 85.0196 20.0963C84.8094 20.3391 84.4573 20.3865 84.2016 20.191C83.7074 19.8179 82.7928 19.2907 81.5317 19.2907C80.0491 19.2907 78.9471 20.0666 78.9471 21.2394C78.9471 22.6372 80.3843 23.04 82.2305 23.4605C84.2641 23.9344 85.8944 24.6866 85.8944 26.73C85.8944 28.9038 83.8097 29.9995 81.7476 29.9995C79.4981 29.9995 78.1177 28.8268 77.4872 28.116C77.2429 27.8376 77.2713 27.4052 77.544 27.1624V27.1505ZM88.7503 18.9531V29.0459C88.7503 29.4072 89.0286 29.6974 89.3751 29.6974C89.7217 29.6974 90 29.4072 90 29.0459V18.9531C90 18.5918 89.7217 18.3016 89.3751 18.3016C89.0286 18.3016 88.7503 18.5918 88.7503 18.9531Z" fill="#E9ECEE"/>
</g>
</g>
<defs>
<filter id="filter0_d_2012_16211" x="11.7244" y="20.3457" width="108.551" height="137.654" filterUnits="userSpaceOnUse" color-interpolation-filters="sRGB">
<feFlood flood-opacity="0" result="BackgroundImageFix"/>
<feColorMatrix in="SourceAlpha" type="matrix" values="0 0 0 0 0 0 0 0 0 0 0 0 0 0 0 0 0 0 127 0" result="hardAlpha"/>
<feOffset/>
<feGaussianBlur stdDeviation="2"/>
<feColorMatrix type="matrix" values="0 0 0 0 0 0 0 0 0 0 0 0 0 0 0 0 0 0 0.5 0"/>
<feBlend mode="normal" in2="BackgroundImageFix" result="effect1_dropShadow_2012_16211"/>
<feBlend mode="normal" in="SourceGraphic" in2="effect1_dropShadow_2012_16211" result="shape"/>
</filter>
<filter id="filter1_d_2012_16211" x="0" y="0" width="132" height="132" filterUnits="userSpaceOnUse" color-interpolation-filters="sRGB">
<feFlood flood-opacity="0" result="BackgroundImageFix"/>
<feColorMatrix in="SourceAlpha" type="matrix" values="0 0 0 0 0 0 0 0 0 0 0 0 0 0 0 0 0 0 127 0" result="hardAlpha"/>
<feOffset/>
<feGaussianBlur stdDeviation="2"/>
<feColorMatrix type="matrix" values="0 0 0 0 0 0 0 0 0 0 0 0 0 0 0 0 0 0 0.5 0"/>
<feBlend mode="normal" in2="BackgroundImageFix" result="effect1_dropShadow_2012_16211"/>
<feBlend mode="normal" in="SourceGraphic" in2="effect1_dropShadow_2012_16211" result="shape"/>
</filter>
<filter id="filter2_i_2012_16211" x="8.30225" y="8.30164" width="115.394" height="115.396" filterUnits="userSpaceOnUse" color-interpolation-filters="sRGB">
<feFlood flood-opacity="0" result="BackgroundImageFix"/>
<feBlend mode="normal" in="SourceGraphic" in2="BackgroundImageFix" result="shape"/>
<feColorMatrix in="SourceAlpha" type="matrix" values="0 0 0 0 0 0 0 0 0 0 0 0 0 0 0 0 0 0 127 0" result="hardAlpha"/>
<feOffset/>
<feGaussianBlur stdDeviation="5"/>
<feComposite in2="hardAlpha" operator="arithmetic" k2="-1" k3="1"/>
<feColorMatrix type="matrix" values="0 0 0 0 0 0 0 0 0 0 0 0 0 0 0 0 0 0 0.6 0"/>
<feBlend mode="normal" in2="shape" result="effect1_innerShadow_2012_16211"/>
</filter>
<filter id="filter3_i_2012_16211" x="42" y="17.9995" width="48" height="12" filterUnits="userSpaceOnUse" color-interpolation-filters="sRGB">
<feFlood flood-opacity="0" result="BackgroundImageFix"/>
<feBlend mode="normal" in="SourceGraphic" in2="BackgroundImageFix" result="shape"/>
<feColorMatrix in="SourceAlpha" type="matrix" values="0 0 0 0 0 0 0 0 0 0 0 0 0 0 0 0 0 0 127 0" result="hardAlpha"/>
<feOffset/>
<feGaussianBlur stdDeviation="0.5"/>
<feComposite in2="hardAlpha" operator="arithmetic" k2="-1" k3="1"/>
<feColorMatrix type="matrix" values="0 0 0 0 0 0 0 0 0 0 0 0 0 0 0 0 0 0 0.25 0"/>
<feBlend mode="normal" in2="shape" result="effect1_innerShadow_2012_16211"/>
</filter>
<linearGradient id="paint0_linear_2012_16211" x1="42.8735" y1="20.7119" x2="86.8409" y2="67.4467" gradientUnits="userSpaceOnUse">
<stop offset="0.004" stop-color="#F3F3F3"/>
<stop offset="0.5" stop-color="#F0F0F1"/>
<stop offset="0.783" stop-color="#E9E8EC"/>
<stop offset="0.992" stop-color="#DEDCE4"/>
</linearGradient>
<linearGradient id="paint1_linear_2012_16211" x1="65.8152" y1="53.0665" x2="65.9913" y2="55.6549" gradientUnits="userSpaceOnUse">
<stop offset="0.004" stop-color="#F3F3F3"/>
<stop offset="0.5" stop-color="#F0F0F1"/>
<stop offset="0.783" stop-color="#E9E8EC"/>
<stop offset="0.992" stop-color="#DEDCE4"/>
</linearGradient>
<linearGradient id="paint2_linear_2012_16211" x1="81.8611" y1="58.9472" x2="83.2074" y2="60.5814" gradientUnits="userSpaceOnUse">
<stop stop-color="#F3F3F3"/>
<stop offset="0.235" stop-color="#EFEFEF"/>
<stop offset="0.444" stop-color="#E4E4E5"/>
<stop offset="0.644" stop-color="#D2D2D4"/>
<stop offset="0.837" stop-color="#B9B8BC"/>
<stop offset="1" stop-color="#9E9DA3"/>
</linearGradient>
<linearGradient id="paint3_linear_2012_16211" x1="49.0726" y1="58.9472" x2="50.4189" y2="60.5814" gradientUnits="userSpaceOnUse">
<stop stop-color="#F3F3F3"/>
<stop offset="0.235" stop-color="#EFEFEF"/>
<stop offset="0.444" stop-color="#E4E4E5"/>
<stop offset="0.644" stop-color="#D2D2D4"/>
<stop offset="0.837" stop-color="#B9B8BC"/>
<stop offset="1" stop-color="#9E9DA3"/>
</linearGradient>
<linearGradient id="paint4_linear_2012_16211" x1="81.8611" y1="30.6517" x2="83.2074" y2="32.2859" gradientUnits="userSpaceOnUse">
<stop stop-color="#F3F3F3"/>
<stop offset="0.235" stop-color="#EFEFEF"/>
<stop offset="0.444" stop-color="#E4E4E5"/>
<stop offset="0.644" stop-color="#D2D2D4"/>
<stop offset="0.837" stop-color="#B9B8BC"/>
<stop offset="1" stop-color="#9E9DA3"/>
</linearGradient>
<linearGradient id="paint5_linear_2012_16211" x1="49.0726" y1="30.6517" x2="50.4189" y2="32.2859" gradientUnits="userSpaceOnUse">
<stop stop-color="#F3F3F3"/>
<stop offset="0.235" stop-color="#EFEFEF"/>
<stop offset="0.444" stop-color="#E4E4E5"/>
<stop offset="0.644" stop-color="#D2D2D4"/>
<stop offset="0.837" stop-color="#B9B8BC"/>
<stop offset="1" stop-color="#9E9DA3"/>
</linearGradient>
<linearGradient id="paint6_linear_2012_16211" x1="65.9666" y1="26.9349" x2="65.9666" y2="40.4809" gradientUnits="userSpaceOnUse">
<stop offset="0.004" stop-color="#F3F3F3"/>
<stop offset="0.5" stop-color="#F0F0F1"/>
<stop offset="0.783" stop-color="#E9E8EC"/>
<stop offset="0.992" stop-color="#DEDCE4"/>
</linearGradient>
<linearGradient id="paint7_linear_2012_16211" x1="15.7244" y1="151.21" x2="116.276" y2="151.21" gradientUnits="userSpaceOnUse">
<stop stop-color="#F3F3F3"/>
<stop offset="0.028" stop-color="#F0F0F1"/>
<stop offset="0.044" stop-color="#E9E8EB"/>
<stop offset="0.054" stop-color="#E0DEE5"/>
<stop offset="0.506" stop-color="#F3F3F3"/>
<stop offset="0.728" stop-color="#F0F0F1"/>
<stop offset="0.854" stop-color="#E9E8EC"/>
<stop offset="0.948" stop-color="#DEDCE4"/>
<stop offset="1" stop-color="#F3F3F3"/>
</linearGradient>
<linearGradient id="paint8_linear_2012_16211" x1="65.702" y1="125.703" x2="65.702" y2="66.4606" gradientUnits="userSpaceOnUse">
<stop offset="0.004" stop-color="#F3F3F3"/>
<stop offset="0.5" stop-color="#F0F0F1"/>
<stop offset="0.783" stop-color="#E9E8EC"/>
<stop offset="0.992" stop-color="#DEDCE4"/>
</linearGradient>
<linearGradient id="paint9_linear_2012_16211" x1="66.0001" y1="3.77204" x2="66.0001" y2="128.127" gradientUnits="userSpaceOnUse">
<stop offset="0.004" stop-color="#F3F3F3"/>
<stop offset="0.5" stop-color="#F0F0F1"/>
<stop offset="0.783" stop-color="#E9E8EC"/>
<stop offset="0.992" stop-color="#DEDCE4"/>
</linearGradient>
<linearGradient id="paint10_linear_2012_16211" x1="4.00026" y1="126.955" x2="66.0021" y2="13.2258" gradientUnits="userSpaceOnUse">
<stop offset="0.004" stop-color="#F3F3F3"/>
<stop offset="0.5" stop-color="#F0F0F1"/>
<stop offset="0.783" stop-color="#E9E8EC"/>
<stop offset="0.992" stop-color="#DEDCE4"/>
</linearGradient>
<linearGradient id="paint11_linear_2012_16211" x1="18.8917" y1="-3.67632" x2="133.46" y2="165.775" gradientUnits="userSpaceOnUse">
<stop offset="0.004" stop-color="#F3F3F3"/>
<stop offset="0.5" stop-color="#F0F0F1"/>
<stop offset="0.783" stop-color="#E9E8EC"/>
<stop offset="0.992" stop-color="#DEDCE4"/>
</linearGradient>
</defs>
</svg>
