<svg width="256" height="156" viewBox="0 0 256 156" fill="none" xmlns="http://www.w3.org/2000/svg">
<g filter="url(#filter0_d_2012_16250)">
<g clip-path="url(#clip0_2012_16250)">
<path d="M252 78.0737C252 94.6644 251.06 126.55 250.117 140.197C249.982 142.155 249.172 144.004 247.826 145.428C246.479 146.852 244.68 147.761 242.737 148C229.923 149.58 176.816 152.008 128.058 152.008H127.94C79.1868 152.008 26.0796 149.577 13.2657 147.997C11.323 147.758 9.52368 146.849 8.17658 145.425C6.82948 144.002 6.0186 142.152 5.88309 140.194C4.94286 126.548 4 94.9383 4 78.3344C4 61.7304 4.94286 29.4601 5.88309 15.8162C6.01909 13.8585 6.83014 12.0093 8.17714 10.5856C9.52415 9.1619 11.3232 8.25248 13.2657 8.0133C26.077 6.43323 79.1869 4.00781 127.942 4.00781H128.06C176.821 4.00781 229.926 6.44376 242.74 8.0133C244.682 8.25218 246.482 9.16192 247.828 10.5863C249.175 12.0106 249.985 13.8608 250.12 15.8189C251.062 29.4628 251.884 61.4697 251.884 78.0737H252Z" fill="url(#paint0_linear_2012_16250)"/>
<path d="M128.063 4.53458C175.6 4.53458 229.519 6.92576 242.679 8.53743C244.5 8.76331 246.186 9.61692 247.448 10.952C248.71 12.2871 249.469 14.0207 249.597 15.8558C250.548 29.6208 251.362 61.5725 251.362 78.0737V78.6004H251.475C251.454 95.6547 250.498 127.056 249.592 140.16C249.463 141.993 248.703 143.724 247.442 145.057C246.181 146.391 244.498 147.244 242.679 147.47C229.519 149.082 175.592 151.473 128.063 151.473H127.945C80.4081 151.473 26.492 149.082 13.3314 147.47C11.5105 147.245 9.82441 146.391 8.56194 145.056C7.29947 143.721 6.53911 141.987 6.41104 140.152C5.49707 126.906 4.52795 95.1201 4.52795 78.3292C4.52795 61.2118 5.49707 29.0836 6.41104 15.8479C6.53911 14.0126 7.29947 12.279 8.56194 10.9439C9.82441 9.60883 11.5105 8.75534 13.3314 8.52954C26.492 6.91787 80.416 4.52669 127.945 4.52669H128.063V4.53458ZM128.063 4H127.945C79.1869 4.0079 26.0797 6.44384 13.2658 8.01338C11.3233 8.25323 9.52456 9.16327 8.17803 10.5874C6.8315 12.0116 6.02109 13.8612 5.88577 15.8189C4.94554 29.4629 4.00269 61.7332 4.00269 78.3371C4.00269 94.941 4.94554 126.55 5.88577 140.197C6.02177 142.154 6.83253 144.002 8.17905 145.426C9.52557 146.849 11.3239 147.758 13.2658 147.997C26.0771 149.577 79.1869 152.005 127.942 152.005H128.06C176.821 152.005 229.926 149.567 242.74 147.997C244.682 147.759 246.481 146.85 247.828 145.426C249.175 144.002 249.985 142.152 250.12 140.194C251.062 126.548 252.003 94.675 252.003 78.0711H251.884C251.884 61.4672 251.062 29.4602 250.12 15.8163C249.985 13.8582 249.175 12.0081 247.828 10.5837C246.482 9.15936 244.682 8.24962 242.74 8.01074C229.926 6.43067 176.818 4.00526 128.06 4.00526L128.063 4Z" fill="url(#paint1_linear_2012_16250)"/>
<path d="M118.163 15.6995C118.18 15.8372 118.08 15.9601 117.942 15.977C117.942 15.977 117.942 15.977 117.94 15.977C117.918 15.9791 117.897 15.9791 117.876 15.977C117.663 15.977 117.361 15.528 116.79 15.528C116.395 15.528 115.967 15.7165 115.967 16.1189C115.973 16.3498 116.131 16.551 116.354 16.6125L117.218 16.9599C117.789 17.1886 118.272 17.464 118.272 18.127C118.272 18.8683 117.608 19.3407 116.72 19.3407C115.833 19.3407 115.203 18.8133 115.203 18.5443C115.203 18.4574 115.328 18.2689 115.471 18.2689C115.741 18.2689 116.001 18.8683 116.748 18.8683C117.295 18.8683 117.659 18.5443 117.659 18.1503C117.659 17.7563 117.382 17.6292 117.073 17.5042L116.092 17.1018C115.667 16.9281 115.356 16.6781 115.356 16.1571C115.356 15.4708 116.037 15.0535 116.678 15.0535C117.501 15.0535 118.182 15.3988 118.167 15.6889L118.163 15.6995ZM123.363 17.4386C123.703 17.4386 123.75 17.2416 123.75 17.0912C123.75 16.0321 123.141 15.0429 121.952 15.0429C120.762 15.0429 120.138 16.1295 120.138 17.1865C120.138 18.2435 120.7 19.3449 122.045 19.3449C123.027 19.3449 123.684 18.754 123.684 18.4977C123.684 18.2414 123.574 18.2223 123.414 18.2223C123.146 18.2223 122.907 18.8578 122.005 18.8578C121.277 18.8578 120.777 18.1715 120.753 17.4386H123.363ZM120.756 16.9768C120.779 16.2757 121.181 15.5258 121.943 15.5258C122.705 15.5258 123.107 16.2757 123.131 16.9768H120.756ZM126.579 16.6697C126.536 16.1105 126.955 15.6212 127.519 15.5767C127.549 15.5746 127.579 15.5724 127.609 15.5746C128.247 15.5746 128.639 15.9537 128.639 16.5362V18.9785C128.639 19.2157 128.741 19.3407 128.924 19.3407C129.107 19.3407 129.209 19.2136 129.209 18.9785V16.551C129.239 15.7525 128.611 15.081 127.809 15.0535C127.771 15.0514 127.734 15.0514 127.696 15.0535C127.256 15.0408 126.838 15.2547 126.596 15.6212H126.581V15.4093C126.581 15.1721 126.479 15.0471 126.296 15.0471C126.113 15.0471 126.01 15.1742 126.01 15.4093V18.9785C126.01 19.2157 126.113 19.3407 126.296 19.3407C126.479 19.3407 126.581 19.2136 126.581 18.9785L126.579 16.6697ZM138.04 15.6974C138.055 15.3988 137.374 15.062 136.55 15.062C135.912 15.062 135.228 15.4856 135.228 16.1655C135.228 16.6845 135.537 16.9366 135.965 17.1102L136.946 17.5127C137.255 17.6377 137.531 17.7881 137.531 18.1588C137.531 18.5294 137.167 18.8768 136.62 18.8768C135.875 18.8768 135.616 18.2774 135.343 18.2774C135.201 18.2774 135.073 18.4659 135.073 18.5527C135.073 18.8217 135.675 19.3492 136.593 19.3492C137.51 19.3492 138.144 18.8768 138.144 18.1355C138.144 17.4725 137.661 17.1971 137.091 16.9683L136.229 16.6209C136.005 16.5532 135.854 16.3477 135.854 16.1168C135.854 15.7144 136.28 15.5258 136.678 15.5258C137.248 15.5258 137.542 15.9749 137.763 15.9749C137.9 15.994 138.027 15.8986 138.046 15.7631C138.049 15.7419 138.049 15.7207 138.046 15.6995L138.04 15.6974ZM140.803 15.4157C140.803 15.1785 140.7 15.0535 140.517 15.0535C140.334 15.0535 140.232 15.1806 140.232 15.4157V18.9764C140.232 19.2136 140.334 19.3386 140.517 19.3386C140.7 19.3386 140.803 19.2115 140.803 18.9764V15.4157ZM132.662 9.94652C132.657 9.75377 132.496 9.60126 132.302 9.60761C132.115 9.61185 131.966 9.76224 131.961 9.94652L132.31 24.4074L132.662 9.94652Z" fill="url(#paint2_linear_2012_16250)"/>
<rect x="43.0027" y="30.0073" width="170" height="96" rx="2" fill="#485057"/>
<path d="M43.0027 110.007H213.003V124.007C213.003 125.112 212.107 126.007 211.003 126.007H45.0027C43.8981 126.007 43.0027 125.112 43.0027 124.007V110.007Z" fill="#343A40"/>
<path d="M119.808 48.2357H92.0027V51.9147H115.41L96.0584 97.8753L100.14 99.2425L119.808 51.5132V48.2357Z" fill="white"/>
<path d="M139.677 47.2544C133.63 47.2544 129.169 49.6161 125.163 54.4759L128.261 56.7562C131.286 53.0326 134.611 50.9832 139.45 50.9832C145.191 50.9832 148.973 54.7829 148.973 60.7867C148.973 69.6797 144.588 74.9226 125.905 94.8997V98.5078H154.266L154.871 94.5717H131.059C147.916 76.8854 153.504 70.5772 153.504 60.5453C153.509 52.9565 148.294 47.2544 139.677 47.2544Z" fill="white"/>
<path d="M159.417 56.3205C158.582 56.3216 157.765 56.0735 157.07 55.6076C156.375 55.1417 155.833 54.4789 155.512 53.7032C155.192 52.9275 155.108 52.0736 155.27 51.2497C155.432 50.4258 155.834 49.6688 156.424 49.0744C157.015 48.4801 157.767 48.0753 158.587 47.911C159.406 47.7468 160.255 47.8305 161.027 48.1517C161.799 48.4729 162.459 49.0171 162.923 49.7154C163.387 50.4138 163.635 51.2348 163.635 52.0748C163.634 53.1997 163.19 54.2784 162.399 55.0744C161.609 55.8703 160.536 56.3185 159.417 56.3205ZM159.417 49.4323C158.897 49.4313 158.388 49.5856 157.954 49.8757C157.521 50.1659 157.183 50.5788 156.983 51.0622C156.783 51.5455 156.73 52.0777 156.832 52.5912C156.933 53.1047 157.183 53.5765 157.551 53.9468C157.919 54.3172 158.388 54.5694 158.899 54.6716C159.409 54.7738 159.939 54.7213 160.42 54.5209C160.901 54.3204 161.312 53.981 161.601 53.5456C161.89 53.1101 162.043 52.5983 162.043 52.0748C162.041 51.3755 161.764 50.7056 161.272 50.2114C160.78 49.7172 160.113 49.439 159.417 49.4376V49.4323Z" fill="white"/>
<path d="M43.0027 38.0073H63.0027C67.421 38.0073 71.0027 41.589 71.0027 46.0073C71.0027 50.4256 67.421 54.0073 63.0027 54.0073H43.0027V38.0073Z" fill="#343A40"/>
<rect x="173.003" y="65.0073" width="32" height="16" rx="8" fill="#343A40"/>
</g>
</g>
<defs>
<filter id="filter0_d_2012_16250" x="-0.997314" y="-0.992188" width="258" height="158" filterUnits="userSpaceOnUse" color-interpolation-filters="sRGB">
<feFlood flood-opacity="0" result="BackgroundImageFix"/>
<feColorMatrix in="SourceAlpha" type="matrix" values="0 0 0 0 0 0 0 0 0 0 0 0 0 0 0 0 0 0 127 0" result="hardAlpha"/>
<feOffset/>
<feGaussianBlur stdDeviation="2"/>
<feColorMatrix type="matrix" values="0 0 0 0 0 0 0 0 0 0 0 0 0 0 0 0 0 0 0.5 0"/>
<feBlend mode="normal" in2="BackgroundImageFix" result="effect1_dropShadow_2012_16250"/>
<feBlend mode="normal" in="SourceGraphic" in2="effect1_dropShadow_2012_16250" result="shape"/>
</filter>
<linearGradient id="paint0_linear_2012_16250" x1="3.97227" y1="78.0102" x2="252" y2="78.0102" gradientUnits="userSpaceOnUse">
<stop stop-color="#1D1D1D"/>
<stop offset="0.06" stop-color="#181818"/>
<stop offset="0.26" stop-color="#0A0A0A"/>
<stop offset="0.52" stop-color="#020202"/>
<stop offset="1"/>
</linearGradient>
<linearGradient id="paint1_linear_2012_16250" x1="128.005" y1="4.0079" x2="128.005" y2="152.008" gradientUnits="userSpaceOnUse">
<stop stop-color="white"/>
<stop offset="0.45" stop-color="#2E2E2E" stop-opacity="0"/>
<stop offset="0.99" stop-opacity="0.8"/>
</linearGradient>
<linearGradient id="paint2_linear_2012_16250" x1="128.019" y1="9.60742" x2="128.019" y2="24.4074" gradientUnits="userSpaceOnUse">
<stop stop-color="#C5C5C5"/>
<stop offset="0.17" stop-color="#C3C3C3"/>
<stop offset="0.23" stop-color="#BCBCBC"/>
<stop offset="0.28" stop-color="#B1B1B1"/>
<stop offset="0.29" stop-color="#ABABAB"/>
<stop offset="0.39" stop-color="#A8A8A8"/>
<stop offset="0.46" stop-color="#9E9E9E"/>
<stop offset="0.54" stop-color="#8D8D8D"/>
<stop offset="0.6" stop-color="#757575"/>
<stop offset="0.67" stop-color="#575757"/>
<stop offset="0.68" stop-color="#4F4F4F"/>
<stop offset="0.75" stop-color="#757575"/>
<stop offset="0.92" stop-color="#D8D8D8"/>
<stop offset="1" stop-color="white"/>
</linearGradient>
<clipPath id="clip0_2012_16250">
<rect width="250" height="150" fill="white" transform="translate(3.00269 3.00781)"/>
</clipPath>
</defs>
</svg>
