<svg width="258" height="158" viewBox="0 0 258 158" fill="none" xmlns="http://www.w3.org/2000/svg">
<g filter="url(#filter0_d_2012_16241)">
<path d="M133.309 153.208C130.386 153.208 128.713 153.208 128.713 153.208C128.622 153.208 128.521 153.208 128.416 153.208H124.14C116.221 153.208 100.405 153.158 83.4398 152.84C55.9705 152.321 25.8523 151.252 22.1138 150.974C13.3829 150.328 7.17784 144.149 6.31615 135.248C6.03347 132.331 5.13986 119.55 4.71129 106.695C4.25537 92.7486 4.25537 78.8747 4.25537 78.7382C4.25537 78.6017 4.25537 64.7234 4.71129 50.7768C5.13986 37.9268 6.03347 25.145 6.31615 22.2238C7.17784 13.3189 13.3829 7.14412 22.1138 6.49798C25.8523 6.22042 55.9705 5.1329 83.4398 4.63237C100.4 4.31385 116.221 4.26835 124.14 4.26835H128.731C128.83 4.26114 128.929 4.26114 129.027 4.26835H133.309C141.223 4.26835 157.044 4.31385 174.004 4.63237C201.473 5.1511 231.592 6.22042 235.33 6.49798C244.066 7.14412 250.266 13.3234 251.128 22.2238C251.41 25.145 252.304 37.9268 252.733 50.7768C253.189 64.7234 253.189 78.5972 253.189 78.7382C253.189 78.8793 253.189 92.7531 252.733 106.695C252.304 119.55 251.41 132.331 251.128 135.248C250.266 144.158 244.066 150.328 235.33 150.974C231.592 151.252 201.473 152.339 174.004 152.84C157.044 153.158 141.223 153.208 133.309 153.208Z" fill="#E9ECEE"/>
<path d="M253.002 50.7678C252.573 37.9087 251.679 25.1224 251.397 22.1966C250.517 13.1552 244.221 6.88943 235.348 6.23419C231.61 5.95662 201.487 4.8691 174.009 4.36857C157.048 4.05005 141.228 4 133.304 4H128.745C128.745 4 127.072 4 124.154 4C116.23 4 100.409 4.05005 83.4489 4.36857C55.9705 4.88276 25.8478 5.95662 22.1092 6.23419C13.237 6.88943 6.9407 13.1552 6.06077 22.1966C5.7781 25.1224 4.88905 37.9132 4.45592 50.7678C4 64.7235 4 78.5973 4 78.7384C4 78.8794 4 92.7532 4.45592 106.704C4.91184 119.559 5.7781 132.354 6.06077 135.276C6.9407 144.317 13.237 150.583 22.1092 151.243C25.8478 151.52 55.9705 152.608 83.4489 153.104C100.409 153.422 116.23 153.472 124.154 153.472H128.713C128.713 153.472 130.386 153.472 133.304 153.472C141.228 153.472 157.048 153.422 174.009 153.104C201.487 152.589 231.61 151.52 235.348 151.243C244.221 150.583 250.517 144.317 251.397 135.276C251.679 132.354 252.573 119.563 253.002 106.704C253.458 92.7578 253.458 78.8749 253.458 78.7384C253.458 78.6019 253.467 64.7189 253.002 50.7678ZM133.304 152.94H128.982V152.894L128.685 152.926C128.596 152.931 128.506 152.931 128.416 152.926H124.14C116.221 152.926 100.405 152.876 83.4444 152.558C55.9751 152.043 25.8706 150.974 22.1366 150.697C13.5333 150.064 7.42855 143.98 6.58053 135.226C6.29786 132.309 5.40425 119.536 4.97568 106.691C4.51976 92.7487 4.51976 78.8794 4.51976 78.7429C4.51976 78.6064 4.51976 64.7326 4.97568 50.7951C5.40425 37.9451 6.29786 25.1725 6.58053 22.2557C7.42855 13.4828 13.5333 7.40361 22.1366 6.78477C25.8706 6.50721 55.9751 5.41969 83.4444 4.91916C100.405 4.60064 116.221 4.55058 124.14 4.55058H128.462V4.60064L128.758 4.56879C128.848 4.5638 128.938 4.5638 129.027 4.56879H133.304C141.223 4.56879 157.039 4.61884 173.999 4.93736C201.469 5.45154 231.573 6.52541 235.312 6.80297C243.911 7.43546 250.011 13.5146 250.863 22.2739C251.146 25.1907 252.04 37.9633 252.468 50.8133C252.924 64.7508 252.924 78.6201 252.924 78.7611C252.924 78.9022 252.924 92.7714 252.468 106.709C252.04 119.559 251.146 132.332 250.863 135.244C250.011 144.017 243.911 150.1 235.312 150.715C231.573 150.992 201.469 152.08 173.999 152.576C157.039 152.89 141.223 152.94 133.304 152.94Z" fill="url(#paint0_linear_2012_16241)"/>
<path d="M133.309 152.143H124.14C116.225 152.143 100.432 152.098 83.4626 151.779C56.007 151.261 25.9253 150.191 22.1959 149.914C13.9893 149.309 8.18538 143.512 7.37384 135.148C7.09117 132.236 6.20211 119.491 5.77355 106.659C5.31763 92.7713 5.31763 78.8748 5.31763 78.7383C5.31763 78.6018 5.31763 64.7052 5.77355 50.8132C6.20211 37.986 7.09117 25.2361 7.37384 22.3285C8.18538 13.9605 14.0029 8.16344 22.1959 7.55825C25.9253 7.28068 56.007 6.19317 83.4626 5.69719C100.414 5.37867 116.225 5.32861 124.14 5.32861C127.058 5.32861 128.727 5.32861 128.727 5.32861C128.727 5.32861 130.386 5.32861 133.286 5.32861C141.196 5.32861 156.994 5.37867 173.959 5.69719C201.419 6.21137 231.5 7.28068 235.23 7.55825C243.436 8.16344 249.236 13.9605 250.047 22.3285C250.33 25.2361 251.219 37.986 251.648 50.8132C252.103 64.7052 252.103 78.5972 252.103 78.7383C252.103 78.8793 252.103 92.7713 251.648 106.659C251.219 119.491 250.33 132.236 250.047 135.148C249.236 143.512 243.418 149.309 235.23 149.914C231.5 150.191 201.419 151.279 173.959 151.779C157.03 152.121 141.219 152.143 133.309 152.143Z" fill="url(#paint1_linear_2012_16241)"/>
<path d="M211.722 30.7358H45.7219C44.6174 30.7358 43.7219 31.6313 43.7219 32.7358V124.736C43.7219 125.84 44.6174 126.736 45.7219 126.736H211.722C212.826 126.736 213.722 125.84 213.722 124.736V32.7358C213.722 31.6313 212.826 30.7358 211.722 30.7358Z" fill="black"/>
<path d="M197.722 110.736C201.036 110.736 203.722 108.05 203.722 104.736C203.722 101.422 201.036 98.7358 197.722 98.7358C194.408 98.7358 191.722 101.422 191.722 104.736C191.722 108.05 194.408 110.736 197.722 110.736Z" fill="#343A40"/>
<path d="M197.722 86.7358C202.14 86.7358 205.722 83.1541 205.722 78.7358C205.722 74.3176 202.14 70.7358 197.722 70.7358C193.304 70.7358 189.722 74.3176 189.722 78.7358C189.722 83.1541 193.304 86.7358 197.722 86.7358Z" fill="white"/>
<path d="M197.722 58.7358C201.036 58.7358 203.722 56.0496 203.722 52.7358C203.722 49.4221 201.036 46.7358 197.722 46.7358C194.408 46.7358 191.722 49.4221 191.722 52.7358C191.722 56.0496 194.408 58.7358 197.722 58.7358Z" fill="#343A40"/>
<path d="M65.7219 73.5515C65.7219 69.7873 62.5879 66.7358 58.7219 66.7358C54.8559 66.7358 51.7219 69.7873 51.7219 73.5515V85.9201C51.7219 89.6843 54.8559 92.7358 58.7219 92.7358C62.5879 92.7358 65.7219 89.6843 65.7219 85.9201V73.5515Z" fill="white"/>
<path d="M163.413 102.068C163.305 101.954 163.173 101.865 163.027 101.806C162.88 101.748 162.723 101.722 162.565 101.731H141.838C141.043 101.731 140.25 101.777 139.461 101.868C138.708 101.952 137.961 102.088 137.227 102.273L152.257 87.1063C153.639 85.7172 154.947 84.3736 156.19 83.0482C157.411 81.7645 158.522 80.3827 159.511 78.9172C160.443 77.5527 161.196 76.0775 161.755 74.5266C162.33 72.9181 162.617 71.2226 162.602 69.5165C162.647 67.5908 162.265 65.6787 161.483 63.9144C160.786 62.3714 159.742 61.0066 158.429 59.9246C157.139 58.8389 155.637 58.028 154.016 57.5426C152.33 56.9994 150.566 56.7272 148.793 56.7364C146.925 56.7212 145.068 57.0153 143.298 57.6063C141.654 58.1384 140.132 58.9831 138.816 60.0931C137.504 61.2195 136.424 62.5849 135.633 64.1148C134.757 65.8182 134.182 67.6575 133.934 69.553L135.596 69.8217C135.957 69.8794 136.327 69.8203 136.651 69.6532C136.978 69.4165 137.205 69.0698 137.291 68.6785C137.524 67.3852 137.97 66.1387 138.613 64.9893C139.245 63.8791 140.074 62.8903 141.059 62.0698C142.066 61.2373 143.216 60.5908 144.454 60.1614C145.8 59.6799 147.223 59.4393 148.655 59.4509C150.014 59.449 151.365 59.6533 152.662 60.0567C153.906 60.4293 155.059 61.0492 156.052 61.8785C157.062 62.757 157.863 63.8458 158.397 65.0667C159.017 66.5049 159.317 68.0583 159.276 69.6213C159.287 71.1031 159.047 72.5762 158.567 73.98C158.068 75.388 157.395 76.7296 156.563 77.9744C155.674 79.3383 154.675 80.6285 153.574 81.8321C152.426 83.1013 151.171 84.4191 149.811 85.7855L133.427 102.182C133.213 102.371 133.04 102.6 132.916 102.856C132.806 103.087 132.749 103.339 132.75 103.594V104.733H163.721V102.856C163.726 102.711 163.701 102.566 163.648 102.431C163.595 102.296 163.515 102.172 163.413 102.068ZM93.722 57.2829V59.3143C93.7208 59.433 93.7449 59.5507 93.7925 59.6597C93.8401 59.7688 93.9102 59.8667 93.9983 59.9474C94.0813 60.0336 94.1815 60.102 94.2924 60.1482C94.4034 60.1945 94.5228 60.2176 94.6432 60.2161H122.326C121.911 60.6959 121.558 61.2253 121.276 61.792L99.0881 104.733H101.327C101.749 104.758 102.167 104.639 102.51 104.395C102.83 104.173 103.087 103.873 103.257 103.526L125.242 60.4165C125.365 60.1919 125.468 59.9572 125.55 59.7151C125.643 59.3876 125.688 59.0486 125.684 58.7085V57.2829H93.722Z" fill="#0093C8"/>
<path d="M108.913 22.3615C109.131 22.164 109.462 22.1887 109.656 22.4158C110.087 22.9143 110.977 23.6695 112.416 23.6695C113.415 23.6695 114.792 23.2548 114.792 22.0061C114.792 20.9251 113.675 20.5895 112.255 20.2588C110.257 19.7948 109.022 19.0051 109.022 17.4256C109.022 16.0732 110.238 14.7405 112.231 14.7405C113.609 14.7405 114.56 15.2933 115.062 15.6882C115.304 15.8758 115.341 16.241 115.138 16.4779C114.963 16.6803 114.669 16.7198 114.456 16.5569C114.044 16.246 113.282 15.8067 112.231 15.8067C110.996 15.8067 110.077 16.4533 110.077 17.4306C110.077 18.5954 111.275 18.9311 112.814 19.2815C114.508 19.6764 115.867 20.3032 115.867 22.0061C115.867 23.8175 114.13 24.7307 112.411 24.7307C110.537 24.7307 109.386 23.7534 108.861 23.1611C108.657 22.9291 108.681 22.5688 108.908 22.3664L108.913 22.3615ZM126.329 19.7356C126.329 19.7356 126.329 19.7356 126.329 19.7405C126.329 19.9775 126.144 20.1699 125.912 20.1699H118.461C118.542 21.6063 119.678 23.6645 122.092 23.6645C123.266 23.6645 124.227 23.092 124.875 22.4256C125.07 22.2233 125.387 22.2331 125.576 22.4355C125.765 22.6379 125.765 22.9636 125.576 23.166C124.691 24.0791 123.417 24.7257 122.097 24.7257C119.384 24.7257 117.424 22.4355 117.424 19.7307C117.424 17.0258 119.2 14.7405 121.917 14.7405C124.331 14.7405 126.329 16.8235 126.329 19.7356ZM125.249 19.1729C125.212 18.092 124.312 15.8017 121.917 15.8017C119.379 15.8017 118.542 18.1314 118.504 19.1729H125.249ZM135.948 18.4227V23.936C135.948 24.2371 135.716 24.4789 135.427 24.4789C135.138 24.4789 134.906 24.2371 134.906 23.936V18.5855C134.906 16.631 133.808 15.7968 132.331 15.7968C130.315 15.7968 129.515 17.9192 129.515 17.9192V23.936C129.515 24.2371 129.283 24.4789 128.994 24.4789C128.705 24.4789 128.473 24.2371 128.473 23.936V15.476C128.473 15.2045 128.681 14.9873 128.942 14.9873C129.202 14.9873 129.41 15.2045 129.41 15.476V16.7149C129.41 16.7149 130.291 14.7356 132.525 14.7356C134.22 14.7356 135.938 15.8363 135.938 18.4177L135.948 18.4227ZM138.342 22.3615C138.56 22.164 138.891 22.1887 139.085 22.4158C139.516 22.9143 140.406 23.6695 141.845 23.6695C142.844 23.6695 144.221 23.2548 144.221 22.0061C144.221 20.9251 143.104 20.5895 141.684 20.2588C139.686 19.7998 138.451 19.01 138.451 17.4306C138.451 16.0781 139.667 14.7455 141.665 14.7455C143.043 14.7455 143.994 15.2983 144.496 15.6931C144.737 15.8807 144.775 16.246 144.572 16.4829C144.396 16.6853 144.103 16.7247 143.89 16.5619C143.478 16.2509 142.716 15.8116 141.665 15.8116C140.43 15.8116 139.511 16.4582 139.511 17.4355C139.511 18.6004 140.709 18.936 142.247 19.2864C143.942 19.6813 145.301 20.3082 145.301 22.011C145.301 23.8225 143.563 24.7356 141.845 24.7356C139.97 24.7356 138.82 23.7583 138.295 23.166C138.091 22.934 138.115 22.5737 138.342 22.3713V22.3615ZM147.68 15.5303V23.9409C147.68 24.242 147.912 24.4839 148.201 24.4839C148.49 24.4839 148.722 24.242 148.722 23.9409V15.5303C148.722 15.2292 148.49 14.9873 148.201 14.9873C147.912 14.9873 147.68 15.2292 147.68 15.5303Z" fill="url(#paint2_linear_2012_16241)"/>
</g>
<defs>
<filter id="filter0_d_2012_16241" x="-0.278076" y="-0.263916" width="258" height="158" filterUnits="userSpaceOnUse" color-interpolation-filters="sRGB">
<feFlood flood-opacity="0" result="BackgroundImageFix"/>
<feColorMatrix in="SourceAlpha" type="matrix" values="0 0 0 0 0 0 0 0 0 0 0 0 0 0 0 0 0 0 127 0" result="hardAlpha"/>
<feOffset/>
<feGaussianBlur stdDeviation="2"/>
<feColorMatrix type="matrix" values="0 0 0 0 0 0 0 0 0 0 0 0 0 0 0 0 0 0 0.5 0"/>
<feBlend mode="normal" in2="BackgroundImageFix" result="effect1_dropShadow_2012_16241"/>
<feBlend mode="normal" in="SourceGraphic" in2="effect1_dropShadow_2012_16241" result="shape"/>
</filter>
<linearGradient id="paint0_linear_2012_16241" x1="128.722" y1="4" x2="128.722" y2="153.472" gradientUnits="userSpaceOnUse">
<stop stop-color="white"/>
<stop offset="1" stop-opacity="0.5"/>
</linearGradient>
<linearGradient id="paint1_linear_2012_16241" x1="5.29004" y1="78.7383" x2="252.103" y2="78.7383" gradientUnits="userSpaceOnUse">
<stop stop-color="#1D1D1D"/>
<stop offset="0.06" stop-color="#181818"/>
<stop offset="0.26" stop-color="#0A0A0A"/>
<stop offset="0.52" stop-color="#020202"/>
<stop offset="1"/>
</linearGradient>
<linearGradient id="paint2_linear_2012_16241" x1="128.747" y1="14.7356" x2="128.747" y2="24.7356" gradientUnits="userSpaceOnUse">
<stop stop-color="#C5C5C5"/>
<stop offset="0.17" stop-color="#C3C3C3"/>
<stop offset="0.23" stop-color="#BCBCBC"/>
<stop offset="0.28" stop-color="#B1B1B1"/>
<stop offset="0.29" stop-color="#ABABAB"/>
<stop offset="0.39" stop-color="#A8A8A8"/>
<stop offset="0.46" stop-color="#9E9E9E"/>
<stop offset="0.54" stop-color="#8D8D8D"/>
<stop offset="0.6" stop-color="#757575"/>
<stop offset="0.67" stop-color="#575757"/>
<stop offset="0.68" stop-color="#4F4F4F"/>
<stop offset="0.75" stop-color="#757575"/>
<stop offset="0.92" stop-color="#D8D8D8"/>
<stop offset="1" stop-color="white"/>
</linearGradient>
</defs>
</svg>
