<svg width="137" height="228" viewBox="0 0 137 228" fill="none" xmlns="http://www.w3.org/2000/svg">
<path d="M104.793 90.4154C104.581 90.8395 104.902 91.3294 105.377 91.3294H114.265C124.161 91.3294 132.601 97.6542 135.789 106.483C136.034 107.156 137 106.992 137 106.279V47.542C137 46.9681 136.285 46.6902 135.884 47.0997C120.988 62.3084 111.205 77.4551 104.793 90.4154Z" fill="#BBBBBB"/>
<path d="M92.1718 182.816H136.361C136.711 182.816 136.996 182.531 136.996 182.18V122.27C136.996 121.557 136.026 121.392 135.785 122.065C132.597 130.894 124.157 137.219 114.261 137.219L92.0988 137.38C91.7888 137.38 91.5371 137.636 91.5371 137.947V182.176C91.5371 182.527 91.8216 182.816 92.1718 182.816Z" fill="#BBBBBB"/>
<path d="M90.513 45.8969H46.9218C45.9916 45.8969 45.915 45.9919 45.915 46.1125V91.1174C45.915 91.2344 46.0099 91.3331 46.1302 91.3331H58.2472C58.3275 91.3331 58.4004 91.2892 58.4369 91.2161C64.9367 77.8499 75.0294 62.0744 90.6553 46.2624C90.7866 46.1272 90.699 45.8969 90.513 45.8969Z" fill="#BBBBBB"/>
<path d="M90.6225 91.6438H59.0936C58.7726 91.6438 58.4772 91.8376 58.3385 92.1264C55.4133 98.2282 53.2357 103.814 51.6308 108.637C46.7942 123.169 46.0501 133.687 45.9371 136.451C45.9225 136.806 46.2106 137.076 46.5644 137.076H90.6444C90.9654 137.076 91.2244 136.817 91.2244 136.495V92.247C91.2244 91.9143 90.9545 91.6438 90.6225 91.6438Z" fill="black"/>
<path d="M92.1207 91.3331H103.603C103.844 91.3331 104.059 91.2015 104.165 90.9858C110.566 77.8718 120.429 62.4583 135.566 46.979C135.96 46.5768 135.719 45.8969 135.158 45.8969H91.5371V90.7444C91.5371 91.0662 91.7997 91.3331 92.1207 91.3331Z" fill="black"/>
<path d="M0.00390625 183.77V201.418C0.00390625 216.096 11.8765 227.996 26.5212 227.996H44.9666C45.3168 227.996 45.6013 227.711 45.6013 227.36V183.77C45.6013 183.419 45.3168 183.134 44.9666 183.134H0.63857C0.28841 183.134 0.00390625 183.419 0.00390625 183.77Z" fill="black"/>
<path d="M90.5896 183.13H46.5497C46.1992 183.13 45.915 183.415 45.915 183.767V227.36C45.915 227.712 46.1992 227.996 46.5497 227.996H90.5896C90.9401 227.996 91.2242 227.712 91.2242 227.36V183.767C91.2242 183.415 90.9401 183.13 90.5896 183.13Z" fill="black"/>
<path d="M114.265 136.908C127.695 136.908 138.423 125.096 136.654 111.295C135.191 99.888 124.953 91.6401 113.477 91.6401H104.705C104.392 91.6401 104.1 91.8303 103.965 92.1154C101.036 98.2209 98.862 103.811 97.2534 108.633C92.4862 122.95 91.6983 133.366 91.567 136.316C91.5524 136.645 91.8114 136.908 92.1396 136.908H114.265Z" fill="#BBBBBB"/>
<path d="M90.5896 0H46.5497C46.1992 0 45.915 0.284807 45.915 0.636136V44.95C45.915 45.3013 46.1992 45.5861 46.5497 45.5861H90.5896C90.9401 45.5861 91.2242 45.3013 91.2242 44.95V0.636136C91.2242 0.284807 90.9401 0 90.5896 0Z" fill="#BBBBBB"/>
<path d="M92.1757 91.6438C91.8255 91.6438 91.541 91.929 91.541 92.2799V130.101C91.541 130.101 91.7052 131.179 91.8146 130.335C92.4821 125.279 93.9082 117.707 96.9539 108.553C98.5114 103.866 100.609 98.4622 103.406 92.5651C103.607 92.1447 103.311 91.6475 102.848 91.6475H92.1793L92.1757 91.6438Z" fill="black"/>
<path d="M45.915 132.656C46.4257 127.768 47.7753 119.239 51.3279 108.553C52.8891 103.866 54.9827 98.4622 57.7804 92.5615C57.981 92.141 57.6855 91.6438 57.2223 91.6438H46.5497C46.1995 91.6438 45.915 91.929 45.915 92.2799V132.656Z" fill="#BBBBBB"/>
<path d="M44.9666 0.00372314H26.5212C11.8765 0.00372314 0.00390625 11.9039 0.00390625 26.5825V44.9537C0.00390625 45.3047 0.28841 45.5898 0.63857 45.5898H44.9666C45.3168 45.5898 45.6013 45.3047 45.6013 44.9537V0.639859C45.6013 0.288887 45.3168 0.00372314 44.9666 0.00372314Z" fill="black"/>
<path d="M110.48 0.00366211H92.1728C91.8226 0.00366211 91.5381 0.288826 91.5381 0.639798V44.9536C91.5381 45.3046 91.8226 45.5898 92.1728 45.5898H136.362C136.712 45.5898 136.997 45.3046 136.997 44.9536V26.5825C136.997 11.9038 125.124 0.00366211 110.48 0.00366211Z" fill="black"/>
<path d="M137 201.414V183.767C137 183.416 136.715 183.13 136.365 183.13H92.1757C91.8255 183.13 91.541 183.416 91.541 183.767V227.357C91.541 227.708 91.8255 227.993 92.1757 227.993H110.482C125.127 227.993 137 216.093 137 201.414Z" fill="#BBBBBB"/>
<path d="M17.3037 0.00372314H10.3151C4.61773 0.00372314 0 4.63216 0 10.3428V17.3476C0 18.0093 0.900919 18.1336 1.11247 17.5084C3.72408 9.82362 9.79353 3.74011 17.4606 1.12244C18.0843 0.910399 17.9603 0.00737709 17.3001 0.00737709L17.3037 0.00372314Z" fill="black"/>
<path d="M126.685 0.00365395H119.696C119.036 0.00365395 118.912 0.906676 119.536 1.11872C127.203 3.73639 133.272 9.8199 135.884 17.5047C136.096 18.1299 136.997 18.0056 136.997 17.3439V10.339C136.997 4.62844 132.379 0 126.681 0L126.685 0.00365395Z" fill="black"/>
<path d="M17.4606 226.881C9.79352 224.264 3.72408 218.18 1.11247 210.495C0.900919 209.87 0 209.995 0 210.656V217.661C0 223.372 4.61773 228 10.3151 228H17.3037C17.9639 228 18.0879 227.097 17.4642 226.885L17.4606 226.881Z" fill="#BBBBBB"/>
<path d="M135.884 210.495C133.272 218.18 127.203 224.264 119.536 226.881C118.912 227.093 119.036 227.996 119.696 227.996H126.685C132.382 227.996 137 223.368 137 217.657V210.653C137 209.991 136.099 209.866 135.888 210.492L135.884 210.495Z" fill="#BBBBBB"/>
<path d="M14.375 91.6438H0.63857C0.28841 91.6438 0.00390625 91.929 0.00390625 92.2799V106.29C0.00390625 107.002 0.974129 107.167 1.21486 106.498C3.47996 100.228 8.40043 95.2266 14.6121 92.8576C15.2614 92.609 15.0717 91.6438 14.375 91.6438Z" fill="black"/>
<path d="M44.9666 45.9005H0.63857C0.28841 45.9005 0.00390625 46.1857 0.00390625 46.5366V90.6969C0.00390625 91.0479 0.28841 91.3331 0.63857 91.3331H44.9885C45.3277 91.3331 45.6013 91.0589 45.6013 90.7189V46.5366C45.6013 46.1857 45.3168 45.9005 44.9666 45.9005Z" fill="black"/>
<path d="M15.0061 135.866C8.60835 133.556 3.52373 128.467 1.21122 122.054C0.970484 121.389 0.00390625 121.557 0.00390625 122.266V136.437C0.00390625 136.788 0.28841 137.073 0.63857 137.073H14.7945C15.5021 137.073 15.6735 136.108 15.0061 135.866Z" fill="black"/>
<path d="M44.9702 137.391H0.63857C0.288054 137.391 0.00390625 137.676 0.00390625 138.027V182.187C0.00390625 182.539 0.288054 182.823 0.63857 182.823H44.9702C45.3208 182.823 45.6049 182.539 45.6049 182.187V138.027C45.6049 137.676 45.3208 137.391 44.9702 137.391Z" fill="black"/>
<path d="M44.988 91.6438H23.435C12.7624 91.6438 2.99076 98.7546 0.711076 109.207C-2.48778 123.886 8.63343 136.912 22.7383 136.912L44.9734 137.073C45.32 137.073 45.6045 136.795 45.6045 136.444V92.258C45.6045 91.918 45.3273 91.6438 44.988 91.6438Z" fill="black"/>
<path d="M90.5896 137.391H46.5497C46.1992 137.391 45.915 137.676 45.915 138.027V182.187C45.915 182.539 46.1992 182.823 46.5497 182.823H90.5896C90.9401 182.823 91.2242 182.539 91.2242 182.187V138.027C91.2242 137.676 90.9401 137.391 90.5896 137.391Z" fill="black"/>
<path d="M90.6441 46.7195C75.3647 62.228 65.418 77.6927 58.9583 90.8578C58.8489 91.0772 59.0057 91.3294 59.2537 91.3294H90.9249C91.1073 91.3294 91.2277 91.2124 91.2277 91.0296V46.9205C91.2277 46.6244 90.852 46.5074 90.6441 46.7195Z" fill="black"/>
</svg>
