<?xml version="1.0" encoding="UTF-8"?>
<svg id="Layer_1" data-name="Layer 1" xmlns="http://www.w3.org/2000/svg" viewBox="0 0 412.23 334">
  <defs>
    <style>
      .cls-1 {
        fill: #0092c8;
      }

      .cls-2 {
        fill: #009fda;
      }

      .cls-3 {
        fill: #00aeef;
      }
    </style>
  </defs>
  <polygon class="cls-3" points="275.39 238 412.23 159 136.83 0 0 79 275.39 238"/>
  <polygon class="cls-1" points="275.39 334 275.39 238 0 79 0 175 275.39 334"/>
  <polygon class="cls-2" points="275.39 334 412.23 255 412.23 159 275.39 238 275.39 334"/>
  <path class="cls-1" d="M246,201v-20h58.79v20h0c0,4.34-2.87,8.69-8.61,12-11.48,6.63-30.09,6.63-41.57,0-5.74-3.31-8.61-7.66-8.61-12Z"/>
  <path class="cls-2" d="M254.61,193c11.48,6.63,30.09,6.63,41.57,0,11.48-6.63,11.48-17.37,0-24-11.48-6.63-30.09-6.63-41.57,0-11.48,6.63-11.48,17.37,0,24Z"/>
  <g>
    <path class="cls-1" d="M315.28,161v-20h58.79v20h0c0,4.34-2.87,8.69-8.61,12-11.48,6.63-30.09,6.63-41.57,0-5.74-3.31-8.61-7.66-8.61-12Z"/>
    <path class="cls-2" d="M323.89,153c11.48,6.63,30.09,6.63,41.57,0,11.48-6.63,11.48-17.37,0-24-11.48-6.63-30.09-6.63-41.57,0-11.48,6.63-11.48,17.37,0,24Z"/>
  </g>
  <g>
    <path class="cls-1" d="M176.72,161v-20h58.79v20h0c0,4.34-2.87,8.69-8.61,12-11.48,6.63-30.09,6.63-41.57,0-5.74-3.31-8.61-7.66-8.61-12Z"/>
    <path class="cls-2" d="M185.33,153c11.48,6.63,30.09,6.63,41.57,0s11.48-17.37,0-24c-11.48-6.63-30.09-6.63-41.57,0s-11.48,17.37,0,24Z"/>
  </g>
  <g>
    <path class="cls-1" d="M246,121v-20h58.79v20h0c0,4.34-2.87,8.69-8.61,12-11.48,6.63-30.09,6.63-41.57,0-5.74-3.31-8.61-7.66-8.61-12Z"/>
    <path class="cls-2" d="M254.61,113c11.48,6.63,30.09,6.63,41.57,0,11.48-6.63,11.48-17.37,0-24-11.48-6.63-30.09-6.63-41.57,0s-11.48,17.37,0,24Z"/>
  </g>
  <g>
    <path class="cls-1" d="M176.72,81v-20h58.79v20h0c0,4.34-2.87,8.69-8.61,12-11.48,6.63-30.09,6.63-41.57,0-5.74-3.31-8.61-7.66-8.61-12Z"/>
    <path class="cls-2" d="M185.33,73c11.48,6.63,30.09,6.63,41.57,0,11.48-6.63,11.48-17.37,0-24s-30.09-6.63-41.57,0-11.48,17.37,0,24Z"/>
  </g>
  <g>
    <path class="cls-1" d="M107.44,121v-20h58.79v20h0c0,4.34-2.87,8.69-8.61,12-11.48,6.63-30.09,6.63-41.57,0-5.74-3.31-8.61-7.66-8.61-12Z"/>
    <path class="cls-2" d="M116.05,113c11.48,6.63,30.09,6.63,41.57,0,11.48-6.63,11.48-17.37,0-24-11.48-6.63-30.09-6.63-41.57,0-11.48,6.63-11.48,17.37,0,24Z"/>
  </g>
  <g>
    <path class="cls-1" d="M38.16,81v-20h58.79v20h0c0,4.34-2.87,8.69-8.61,12-11.48,6.63-30.09,6.63-41.57,0-5.74-3.31-8.61-7.66-8.61-12Z"/>
    <path class="cls-2" d="M46.77,73c11.48,6.63,30.09,6.63,41.57,0,11.48-6.63,11.48-17.37,0-24-11.48-6.63-30.09-6.63-41.57,0-11.48,6.63-11.48,17.37,0,24Z"/>
  </g>
  <g>
    <path class="cls-1" d="M107.44,41v-20h58.79v20h0c0,4.34-2.87,8.69-8.61,12-11.48,6.63-30.09,6.63-41.57,0-5.74-3.31-8.61-7.66-8.61-12Z"/>
    <path class="cls-2" d="M116.05,33c11.48,6.63,30.09,6.63,41.57,0,11.48-6.63,11.48-17.37,0-24s-30.09-6.63-41.57,0c-11.48,6.63-11.48,17.37,0,24Z"/>
  </g>
</svg>