<?xml version="1.0" encoding="UTF-8"?>
<svg id="Layer_1" data-name="Layer 1" xmlns="http://www.w3.org/2000/svg" viewBox="0 0 412.23 334">
  <defs>
    <style>
      .cls-1 {
        fill: #363639;
      }

      .cls-2 {
        fill: #2d292d;
      }

      .cls-3 {
        fill: #322f32;
      }
    </style>
  </defs>
  <polygon class="cls-1" points="136.83 238 0 159 275.39 0 412.23 79 136.83 238"/>
  <polygon class="cls-3" points="136.83 334 136.83 238 412.23 79 412.23 175 136.83 334"/>
  <polygon class="cls-2" points="136.83 334 0 255 0 159 136.83 238 136.83 334"/>
  <path class="cls-2" d="M166.23,201v-20h-58.79s0,20,0,20h0c0,4.34,2.87,8.69,8.61,12,11.48,6.63,30.09,6.63,41.57,0,5.74-3.31,8.61-7.66,8.61-12Z"/>
  <path class="cls-3" d="M157.62,193c-11.48,6.63-30.09,6.63-41.57,0-11.48-6.63-11.48-17.37,0-24s30.09-6.63,41.57,0c11.48,6.63,11.48,17.37,0,24Z"/>
  <g>
    <path class="cls-2" d="M96.94,161v-20h-58.79v20h0c0,4.34,2.87,8.69,8.61,12,11.48,6.63,30.09,6.63,41.57,0,5.74-3.31,8.61-7.66,8.61-12Z"/>
    <path class="cls-3" d="M88.33,153c-11.48,6.63-30.09,6.63-41.57,0-11.48-6.63-11.48-17.37,0-24,11.48-6.63,30.09-6.63,41.57,0s11.48,17.37,0,24Z"/>
  </g>
  <g>
    <path class="cls-2" d="M235.51,161v-20h-58.79s0,20,0,20h0c0,4.34,2.87,8.69,8.61,12,11.48,6.63,30.09,6.63,41.57,0,5.74-3.31,8.61-7.66,8.61-12Z"/>
    <path class="cls-3" d="M226.9,153c-11.48,6.63-30.09,6.63-41.57,0-11.48-6.63-11.48-17.37,0-24,11.48-6.63,30.09-6.63,41.57,0,11.48,6.63,11.48,17.37,0,24Z"/>
  </g>
  <g>
    <path class="cls-2" d="M166.23,121v-20h-58.79v20h0c0,4.34,2.87,8.69,8.61,12,11.48,6.63,30.09,6.63,41.57,0,5.74-3.31,8.61-7.66,8.61-12Z"/>
    <path class="cls-3" d="M157.62,113c-11.48,6.63-30.09,6.63-41.57,0-11.48-6.63-11.48-17.37,0-24,11.48-6.63,30.09-6.63,41.57,0,11.48,6.63,11.48,17.37,0,24Z"/>
  </g>
  <g>
    <path class="cls-2" d="M235.51,81v-20h-58.79v20h0c0,4.34,2.87,8.69,8.61,12,11.48,6.63,30.09,6.63,41.57,0,5.74-3.31,8.61-7.66,8.61-12Z"/>
    <path class="cls-3" d="M226.9,73c-11.48,6.63-30.09,6.63-41.57,0-11.48-6.63-11.48-17.37,0-24,11.48-6.63,30.09-6.63,41.57,0,11.48,6.63,11.48,17.37,0,24Z"/>
  </g>
  <g>
    <path class="cls-2" d="M304.79,121v-20h-58.79v20h0c0,4.34,2.87,8.69,8.61,12,11.48,6.63,30.09,6.63,41.57,0,5.74-3.31,8.61-7.66,8.61-12Z"/>
    <path class="cls-3" d="M296.18,113c-11.48,6.63-30.09,6.63-41.57,0-11.48-6.63-11.48-17.37,0-24,11.48-6.63,30.09-6.63,41.57,0,11.48,6.63,11.48,17.37,0,24Z"/>
  </g>
  <g>
    <path class="cls-2" d="M374.07,81v-20h-58.79v20h0c0,4.34,2.87,8.69,8.61,12,11.48,6.63,30.09,6.63,41.57,0,5.74-3.31,8.61-7.66,8.61-12Z"/>
    <path class="cls-3" d="M365.46,73c-11.48,6.63-30.09,6.63-41.57,0-11.48-6.63-11.48-17.37,0-24,11.48-6.63,30.09-6.63,41.57,0,11.48,6.63,11.48,17.37,0,24Z"/>
  </g>
  <g>
    <path class="cls-2" d="M304.79,41v-20h-58.79v20h0c0,4.34,2.87,8.69,8.61,12,11.48,6.63,30.09,6.63,41.57,0,5.74-3.31,8.61-7.66,8.61-12Z"/>
    <path class="cls-3" d="M296.18,33c-11.48,6.63-30.09,6.63-41.57,0-11.48-6.63-11.48-17.37,0-24,11.48-6.63,30.09-6.63,41.57,0,11.48,6.63,11.48,17.37,0,24Z"/>
  </g>
</svg>