<?xml version="1.0" encoding="UTF-8"?>
<svg id="Layer_1" xmlns="http://www.w3.org/2000/svg" version="1.1" viewBox="0 0 414.22 380.98">
  <!-- Generator: Adobe Illustrator 30.6.0, SVG Export Plug-In . SVG Version: 2.1.4 Build 27)  -->
  <defs>
    <style>
      .st0, .st1 {
        fill: none;
      }

      .st2 {
        fill: #ff4e00;
      }

      .st3 {
        opacity: .15;
      }

      .st3, .st4, .st5, .st6 {
        isolation: isolate;
      }

      .st3, .st4, .st5, .st6, .st7 {
        fill: #f5431b;
      }

      .st4 {
        opacity: .25;
      }

      .st5 {
        opacity: .1;
      }

      .st6 {
        opacity: .4;
      }

      .st1 {
        stroke: #f5431b;
        stroke-miterlimit: 10;
      }
    </style>
  </defs>
  <path class="st1" d="M255.61,193.58c11.48,6.63,30.09,6.63,41.57,0,11.48-6.63,11.48-17.37,0-24s-30.09-6.63-41.57,0c-11.48,6.63-11.48,17.37,0,24h0Z"/>
  <path class="st1" d="M324.89,153.58c11.48,6.63,30.09,6.63,41.57,0s11.48-17.37,0-24c-11.48-6.63-30.09-6.63-41.57,0-11.48,6.63-11.48,17.37,0,24Z"/>
  <path class="st1" d="M186.33,153.58c11.48,6.63,30.09,6.63,41.57,0s11.48-17.37,0-24c-11.48-6.63-30.09-6.63-41.57,0-11.48,6.63-11.48,17.37,0,24h0Z"/>
  <path class="st1" d="M255.61,113.58c11.48,6.63,30.09,6.63,41.57,0s11.48-17.37,0-24-30.09-6.63-41.57,0c-11.48,6.63-11.48,17.37,0,24h0Z"/>
  <path class="st1" d="M186.33,73.58c11.48,6.63,30.09,6.63,41.57,0s11.48-17.37,0-24c-11.48-6.63-30.09-6.63-41.57,0-11.48,6.63-11.48,17.37,0,24h0Z"/>
  <path class="st1" d="M117.05,113.58c11.48,6.63,30.09,6.63,41.57,0s11.48-17.37,0-24-30.09-6.63-41.57,0-11.48,17.37,0,24Z"/>
  <path class="st1" d="M47.77,73.58c11.48,6.63,30.09,6.63,41.57,0s11.48-17.37,0-24c-11.48-6.63-30.09-6.63-41.57,0s-11.48,17.37,0,24Z"/>
  <path class="st1" d="M145.96,5.27l-8.13-4.69-8.13,4.69c5.31-.88,10.96-.88,16.26,0h0Z"/>
  <path class="st1" d="M373.93,136.89c2.85,5.74.36,12.17-7.46,16.69-11.48,6.63-30.09,6.63-41.57,0s-11.48-17.37,0-24c7.83-4.52,18.98-5.95,28.92-4.3l-49.17-28.39c2.85,5.74.36,12.17-7.46,16.69-11.48,6.63-30.09,6.63-41.57,0-11.48-6.63-11.48-17.37,0-24,7.83-4.52,18.98-5.95,28.92-4.3l-49.16-28.39c2.85,5.74.36,12.17-7.46,16.69-11.48,6.63-30.09,6.63-41.57,0s-11.48-17.37,0-24c7.83-4.52,18.98-5.95,28.92-4.3l-49.16-28.39c2.85,5.74.36,12.17-7.46,16.69-11.48,6.63-30.09,6.63-41.57,0-7.83-4.52-10.31-10.95-7.46-16.69l-49.16,28.39c9.94-1.65,21.09-.22,28.92,4.3,11.48,6.63,11.48,17.37,0,24-11.48,6.63-30.09,6.63-41.57,0-7.83-4.52-10.31-10.95-7.46-16.69L1,79.58l275.39,159,136.83-79-39.3-22.69h0Z"/>
  <path class="st1" d="M117.05,33.58c11.48,6.63,30.09,6.63,41.57,0s11.48-17.37,0-24c-11.48-6.63-30.09-6.63-41.57,0-11.48,6.63-11.48,17.37,0,24Z"/>
  <polygon class="st1" points="276.39 334.58 276.39 238.58 1 79.58 1 175.58 276.39 334.58"/>
  <path class="st1" d="M255.61,193.58c11.48,6.63,30.09,6.63,41.57,0,5.74-3.31,8.61-7.66,8.61-12v20c0,4.34-2.87,8.69-8.61,12-11.48,6.63-30.09,6.63-41.57,0-5.74-3.31-8.61-7.66-8.61-12v-20c0,4.34,2.87,8.69,8.61,12h0Z"/>
  <path class="st1" d="M324.89,153.58c11.48,6.63,30.09,6.63,41.57,0,5.74-3.31,8.61-7.66,8.61-12h0v20c0,4.34-2.87,8.69-8.61,12-11.48,6.63-30.09,6.63-41.57,0-5.74-3.31-8.61-7.66-8.61-12v-20c0,4.34,2.87,8.69,8.61,12Z"/>
  <path class="st1" d="M186.33,153.58c11.48,6.63,30.09,6.63,41.57,0,5.74-3.31,8.61-7.66,8.61-12v20c0,4.34-2.87,8.69-8.61,12-11.48,6.63-30.09,6.63-41.57,0-5.74-3.31-8.61-7.66-8.61-12v-20c0,4.34,2.87,8.69,8.61,12h0Z"/>
  <path class="st1" d="M255.61,113.58c11.48,6.63,30.09,6.63,41.57,0,5.74-3.31,8.61-7.66,8.61-12v20c0,4.34-2.87,8.69-8.61,12-11.48,6.63-30.09,6.63-41.57,0-5.74-3.31-8.61-7.66-8.61-12v-20c0,4.34,2.87,8.69,8.61,12h0Z"/>
  <path class="st1" d="M186.33,73.58c11.48,6.63,30.09,6.63,41.57,0,5.74-3.31,8.61-7.66,8.61-12v20c0,4.34-2.87,8.69-8.61,12-11.48,6.63-30.09,6.63-41.57,0-5.74-3.31-8.61-7.66-8.61-12v-20c0,4.34,2.87,8.69,8.61,12h0Z"/>
  <path class="st1" d="M117.05,113.58c11.48,6.63,30.09,6.63,41.57,0,5.74-3.31,8.61-7.66,8.61-12v20c0,4.34-2.87,8.69-8.61,12-11.48,6.63-30.09,6.63-41.57,0-5.74-3.31-8.61-7.66-8.61-12v-20c0,4.34,2.87,8.69,8.61,12Z"/>
  <path class="st1" d="M47.77,73.58c11.48,6.63,30.09,6.63,41.57,0,5.74-3.31,8.61-7.66,8.61-12h0v20c0,4.34-2.87,8.69-8.61,12-11.48,6.63-30.09,6.63-41.57,0-5.74-3.31-8.61-7.66-8.61-12v-20c0,4.34,2.87,8.69,8.61,12Z"/>
  <path class="st1" d="M117.05,33.58c11.48,6.63,30.09,6.63,41.57,0,5.74-3.31,8.61-7.66,8.61-12h0v20c0,4.34-2.87,8.69-8.61,12-11.48,6.63-30.09,6.63-41.57,0-5.74-3.31-8.61-7.66-8.61-12v-20c0,4.34,2.87,8.69,8.61,12Z"/>
  <polygon class="st1" points="276.39 334.58 413.23 255.58 413.23 159.58 276.39 238.58 276.39 334.58"/>
  <path class="st0" d="M158.62,89.58c-11.48-6.63-30.09-6.63-41.57,0-5.74,3.31-8.61,7.66-8.61,12,0,.27.01.54.03.81.04.54.13,1.08.27,1.62.27,1.08.72,2.14,1.35,3.18.47.78,1.04,1.54,1.72,2.28.45.49.94.98,1.48,1.45,1.08.94,2.33,1.83,3.77,2.66.72.41,1.46.8,2.23,1.16,3.85,1.81,8.31,2.98,12.94,3.49.93.1,1.86.18,2.8.23,1.87.1,3.76.1,5.63,0,1.87-.1,3.73-.31,5.55-.62,4.54-.78,8.83-2.2,12.42-4.27,1.79-1.04,3.31-2.17,4.54-3.38.41-.4.79-.81,1.13-1.23.07-.08.14-.16.21-.25.19-.24.37-.48.54-.72,0-.01.02-.03.03-.04.68-.97,1.19-1.96,1.55-2.97.02-.06.05-.12.07-.18.06-.17.1-.35.15-.52.03-.09.06-.19.08-.28.2-.81.3-1.62.3-2.44h0c0-4.34-2.87-8.69-8.61-12v.02h0Z"/>
  <path class="st0" d="M227.9,129.58c-11.48-6.63-30.09-6.63-41.57,0-7.17,4.14-9.86,9.89-8.07,15.24.09.27.19.53.3.8.45,1.06,1.08,2.1,1.88,3.11.2.25.41.5.64.75.43.47.91.94,1.42,1.39.29.25.59.5.9.75.87.69,1.85,1.34,2.93,1.97,1.02.59,2.12,1.11,3.24,1.59,3.5,1.51,7.44,2.52,11.54,3.01,1.08.13,2.17.23,3.26.29,3.72.2,7.5,0,11.11-.62.91-.16,1.81-.34,2.69-.54,3.54-.83,6.85-2.07,9.72-3.73,1.43-.82,2.67-1.71,3.74-2.64l.02-.02c.75-.65,1.4-1.33,1.98-2.03.05-.05.1-.11.14-.16.97-1.21,1.68-2.47,2.13-3.76.02-.05.04-.1.06-.15.07-.21.13-.43.19-.64,0-.05.03-.11.05-.16.2-.81.3-1.62.3-2.44h0c0-4.34-2.87-8.69-8.61-12h.01Z"/>
  <path class="st0" d="M297.18,169.58c-11.48-6.63-30.09-6.63-41.57,0-5.74,3.31-8.61,7.66-8.61,12,0,1.09.18,2.17.54,3.24.09.27.19.53.3.8.16.38.35.76.56,1.14.37.67.8,1.33,1.32,1.97.4.49.84.98,1.32,1.45l.02.02c.74.72,1.58,1.42,2.52,2.09.63.44,1.3.87,2.02,1.29,1.02.59,2.12,1.11,3.24,1.59,3.52,1.52,7.47,2.53,11.59,3.02,1.04.12,2.08.22,3.14.28,3.75.21,7.55,0,11.19-.62,4.54-.78,8.83-2.2,12.42-4.27.36-.21.71-.42,1.04-.63.67-.43,1.3-.87,1.88-1.33.58-.46,1.12-.93,1.61-1.41,1.73-1.69,2.9-3.51,3.53-5.38.09-.27.17-.54.24-.81.2-.81.3-1.62.3-2.44h0c0-4.34-2.87-8.69-8.61-12h0Z"/>
  <path class="st4" d="M255.61,193.58c11.48,6.63,30.09,6.63,41.57,0,11.48-6.63,11.48-17.37,0-24s-30.09-6.63-41.57,0c-11.48,6.63-11.48,17.37,0,24h0Z"/>
  <path class="st4" d="M324.89,153.58c11.48,6.63,30.09,6.63,41.57,0s11.48-17.37,0-24c-11.48-6.63-30.09-6.63-41.57,0-11.48,6.63-11.48,17.37,0,24Z"/>
  <path class="st4" d="M186.33,153.58c11.48,6.63,30.09,6.63,41.57,0s11.48-17.37,0-24c-11.48-6.63-30.09-6.63-41.57,0-11.48,6.63-11.48,17.37,0,24h0Z"/>
  <path class="st4" d="M255.61,113.58c11.48,6.63,30.09,6.63,41.57,0s11.48-17.37,0-24-30.09-6.63-41.57,0c-11.48,6.63-11.48,17.37,0,24h0Z"/>
  <path class="st4" d="M186.33,73.58c11.48,6.63,30.09,6.63,41.57,0s11.48-17.37,0-24c-11.48-6.63-30.09-6.63-41.57,0-11.48,6.63-11.48,17.37,0,24h0Z"/>
  <path class="st4" d="M117.05,113.58c11.48,6.63,30.09,6.63,41.57,0s11.48-17.37,0-24-30.09-6.63-41.57,0-11.48,17.37,0,24Z"/>
  <path class="st4" d="M47.77,73.58c11.48,6.63,30.09,6.63,41.57,0s11.48-17.37,0-24c-11.48-6.63-30.09-6.63-41.57,0s-11.48,17.37,0,24Z"/>
  <path class="st4" d="M117.05,33.58c11.48,6.63,30.09,6.63,41.57,0s11.48-17.37,0-24c-11.48-6.63-30.09-6.63-41.57,0-11.48,6.63-11.48,17.37,0,24Z"/>
  <polygon class="st6" points="276.39 334.58 276.39 238.58 1 79.58 1 175.58 276.39 334.58"/>
  <polygon class="st4" points="276.39 334.58 413.23 255.58 413.23 159.58 276.39 238.58 276.39 334.58"/>
  <path class="st5" d="M145.96,5.27l-8.13-4.69-8.13,4.69c5.31-.88,10.96-.88,16.26,0h0Z"/>
  <path class="st5" d="M371.45,149.73c.23-.25.46-.5.67-.75-.21.25-.43.5-.67.75Z"/>
  <path class="st5" d="M372.27,148.81c.25-.31.49-.63.71-.95-.22.32-.46.63-.71.95Z"/>
  <path class="st5" d="M373.09,147.7c.18-.27.35-.54.51-.82-.16.27-.33.55-.51.82Z"/>
  <path class="st5" d="M374.63,144.49c.09-.3.16-.6.23-.9-.06.3-.14.6-.23.9Z"/>
  <path class="st5" d="M373.72,146.66c.17-.31.33-.63.46-.94-.14.32-.29.63-.46.94Z"/>
  <path class="st5" d="M374.2,145.68c.15-.34.27-.69.38-1.03-.11.35-.24.69-.38,1.03Z"/>
  <path class="st5" d="M366.47,153.57c.44-.25.85-.51,1.25-.77-.4.26-.82.52-1.25.77Z"/>
  <path class="st5" d="M305.35,104.49c.09-.3.16-.6.23-.89-.06.3-.14.6-.23.89Z"/>
  <path class="st5" d="M369.24,151.72c.36-.28.71-.56,1.03-.85-.33.29-.67.57-1.03.85Z"/>
  <path class="st5" d="M110.53,27.86c.22.32.46.64.71.95-.26-.31-.49-.63-.71-.95Z"/>
  <path class="st5" d="M111.39,28.98c.21.25.44.5.67.75-.24-.25-.46-.5-.67-.75Z"/>
  <path class="st5" d="M317.12,145.62c.22.53.49,1.06.81,1.57-.31-.52-.58-1.04-.81-1.57Z"/>
  <path class="st5" d="M368.07,152.56c.3-.2.59-.41.88-.62-.28.21-.58.42-.88.62Z"/>
  <path class="st5" d="M304.92,105.68c.15-.34.27-.69.38-1.03-.11.35-.24.69-.38,1.03Z"/>
  <path class="st5" d="M251.84,110.91c-1.08-.94-1.97-1.93-2.69-2.95.72,1.02,1.61,2.01,2.69,2.95Z"/>
  <path class="st5" d="M108.93,24.65c.11.35.24.69.38,1.03-.15-.34-.27-.69-.38-1.03Z"/>
  <path class="st5" d="M109.32,25.71c.14.32.3.63.47.95-.17-.31-.33-.63-.47-.95Z"/>
  <path class="st5" d="M232.65,69.98c-.26.26-.52.52-.81.77.28-.25.55-.51.81-.77Z"/>
  <path class="st5" d="M247.14,103.2c-.09-.54-.13-1.08-.13-1.63h0c0,.54.04,1.09.13,1.63Z"/>
  <path class="st5" d="M371.21,149.98c-.26.26-.52.51-.8.77.28-.25.55-.51.8-.77Z"/>
  <path class="st5" d="M229.16,72.8c-.41.27-.82.53-1.26.78-2.87,1.66-6.19,2.9-9.72,3.73,3.54-.83,6.85-2.07,9.72-3.73.44-.25.86-.52,1.26-.78Z"/>
  <path class="st5" d="M209.93,78.47c-1.87.1-3.76.1-5.63,0,1.87.1,3.76.1,5.63,0Z"/>
  <path class="st5" d="M182.56,70.91c-.54-.47-1.03-.95-1.48-1.45.45.49.94.98,1.48,1.45Z"/>
  <path class="st5" d="M109.91,26.88c.16.28.33.55.51.82-.18-.27-.35-.55-.51-.82Z"/>
  <path class="st5" d="M320.72,150.54c-.64-.59-1.22-1.2-1.72-1.82.5.62,1.08,1.23,1.72,1.82Z"/>
  <path class="st5" d="M327.12,154.74c-.77-.36-1.51-.75-2.23-1.16-1.24-.72-2.34-1.48-3.31-2.28.97.8,2.07,1.57,3.31,2.28.72.41,1.46.8,2.23,1.16Z"/>
  <path class="st5" d="M279.21,118.47c-1.87.1-3.76.1-5.63,0,1.87.1,3.76.1,5.63,0Z"/>
  <path class="st5" d="M273.58,118.47c-6.56-.36-12.95-1.99-17.97-4.89-1.08-.62-2.05-1.28-2.93-1.97.87.69,1.85,1.34,2.93,1.97,5.02,2.9,11.41,4.53,17.97,4.89Z"/>
  <path class="st5" d="M301.93,109.98c-.26.26-.53.52-.81.77.28-.25.55-.51.81-.77Z"/>
  <path class="st5" d="M298.44,112.8c-.41.27-.82.53-1.26.78-2.68,1.55-5.75,2.72-9.02,3.54,3.27-.82,6.35-1.99,9.02-3.54.44-.25.86-.52,1.26-.78Z"/>
  <path class="st5" d="M235.16,66.66c.17-.31.33-.63.46-.94-.14.32-.29.63-.46.94Z"/>
  <path class="st5" d="M108.65,23.6c.06.3.14.6.23.9-.09-.3-.17-.6-.23-.9Z"/>
  <path class="st5" d="M164.42,28.81c.26-.31.49-.63.71-.95-.22.32-.46.64-.71.95Z"/>
  <path class="st5" d="M165.87,26.66c.17-.31.33-.63.47-.95-.14.32-.3.63-.47.95Z"/>
  <path class="st5" d="M234.52,67.7c.18-.27.35-.54.51-.82-.16.27-.32.55-.51.82Z"/>
  <path class="st5" d="M236.06,64.49c.09-.3.16-.59.23-.89-.06.3-.14.6-.23.89Z"/>
  <path class="st5" d="M165.24,27.71c.18-.27.35-.55.51-.82-.16.28-.33.55-.51.82Z"/>
  <path class="st5" d="M235.64,65.68c.15-.34.27-.69.38-1.03-.11.35-.23.69-.38,1.03Z"/>
  <path class="st5" d="M166.35,25.68c.15-.34.27-.69.38-1.03-.11.35-.24.69-.38,1.03Z"/>
  <path class="st5" d="M188.56,74.74c3.85,1.81,8.31,2.98,12.94,3.49-4.63-.52-9.09-1.68-12.94-3.49Z"/>
  <path class="st5" d="M166.78,24.5c.09-.3.17-.6.23-.9-.06.3-.14.6-.23.9Z"/>
  <path class="st5" d="M209.93,78.47c1.87-.1,3.73-.31,5.55-.62-1.82.31-3.68.52-5.55.62Z"/>
  <path class="st5" d="M230.67,71.72c.36-.28.71-.56,1.04-.85-.33.29-.67.57-1.04.85Z"/>
  <path class="st5" d="M232.89,69.73c.23-.25.46-.5.67-.75-.21.25-.43.5-.67.75Z"/>
  <path class="st5" d="M233.71,68.81c.25-.31.49-.63.71-.95-.22.32-.46.63-.71.95Z"/>
  <path class="st5" d="M178.02,64.01c.27,1.08.72,2.14,1.35,3.18-.63-1.04-1.08-2.1-1.35-3.18Z"/>
  <path class="st5" d="M298.78,112.57c.3-.21.6-.42.88-.63-.28.21-.58.42-.88.63Z"/>
  <path class="st5" d="M302.99,108.81c.25-.31.49-.63.71-.95-.22.32-.46.63-.71.95Z"/>
  <path class="st5" d="M140.65,38.47c1.87-.1,3.73-.31,5.55-.62-1.82.31-3.68.52-5.55.62Z"/>
  <path class="st5" d="M302.17,109.73c.24-.25.46-.5.67-.75-.21.25-.44.5-.67.75Z"/>
  <path class="st5" d="M115.79,32.8c.41.27.82.53,1.26.78-.44-.25-.86-.52-1.26-.78Z"/>
  <path class="st5" d="M304.44,106.66c.17-.31.33-.63.47-.95-.14.32-.3.63-.47.95Z"/>
  <path class="st5" d="M303.81,107.7c.18-.27.35-.54.51-.82-.16.27-.32.55-.51.82Z"/>
  <path class="st5" d="M114.56,31.94c.28.21.58.42.88.63-.3-.21-.6-.42-.88-.63Z"/>
  <path class="st5" d="M163.61,29.74c.24-.25.46-.5.67-.75-.21.25-.44.5-.67.75Z"/>
  <path class="st5" d="M247.14,103.2c.22,1.35.73,2.69,1.51,3.99-.78-1.3-1.29-2.64-1.51-3.99Z"/>
  <path class="st5" d="M113.24,30.87c.33.29.67.57,1.04.85-.36-.28-.71-.56-1.04-.85Z"/>
  <path class="st5" d="M279.21,118.47c1.87-.1,3.73-.31,5.55-.62-1.82.31-3.68.52-5.55.62Z"/>
  <path class="st5" d="M160.22,32.57c.3-.21.6-.42.88-.63-.28.21-.58.42-.88.63Z"/>
  <path class="st5" d="M299.95,111.72c.36-.28.71-.56,1.04-.85-.33.29-.67.57-1.04.85Z"/>
  <path class="st5" d="M161.39,31.72c.36-.28.71-.56,1.04-.85-.33.29-.67.57-1.04.85Z"/>
  <path class="st5" d="M40.63,66.88c.16.28.33.55.51.82-.18-.27-.35-.55-.51-.82Z"/>
  <path class="st5" d="M186.33,153.58c1.02.59,2.12,1.11,3.24,1.59-1.12-.48-2.22-1-3.24-1.59Z"/>
  <path class="st5" d="M39.64,64.65c.11.35.24.69.38,1.03-.15-.34-.27-.69-.38-1.03Z"/>
  <path class="st5" d="M177.75,62.39c-.02-.27-.03-.54-.03-.81h0c0,.27,0,.54.03.81Z"/>
  <path class="st5" d="M39.37,63.6c.06.3.14.6.23.9-.09-.3-.17-.6-.23-.9Z"/>
  <path class="st5" d="M178.56,145.62c.45,1.06,1.08,2.1,1.88,3.11-.81-1-1.43-2.04-1.88-3.11Z"/>
  <path class="st5" d="M113.28,110.91c-.54-.47-1.03-.95-1.48-1.45.45.49.94.98,1.48,1.45Z"/>
  <path class="st5" d="M229.5,72.57c.3-.21.6-.41.88-.63-.28.21-.58.42-.88.63Z"/>
  <path class="st5" d="M166.62,104.99c.02-.06.05-.12.07-.18-.02.06-.05.12-.07.18Z"/>
  <path class="st5" d="M166.84,104.3c.03-.09.06-.19.08-.28-.02.09-.06.19-.08.28Z"/>
  <path class="st5" d="M163.16,110.2c-1.23,1.21-2.75,2.34-4.54,3.38-3.59,2.07-7.87,3.49-12.42,4.27,4.54-.78,8.83-2.2,12.42-4.27,1.79-1.04,3.31-2.17,4.54-3.38Z"/>
  <path class="st5" d="M40.04,65.71c.14.32.3.63.47.95-.17-.31-.33-.63-.47-.95Z"/>
  <path class="st5" d="M231.64,150.93l.02-.02-.02.02Z"/>
  <path class="st5" d="M255.61,193.58c1.02.59,2.12,1.11,3.24,1.59-1.12-.48-2.22-1-3.24-1.59Z"/>
  <path class="st5" d="M201.11,158.18c1.08.13,2.17.23,3.26.29-1.09-.06-2.18-.16-3.26-.29Z"/>
  <path class="st5" d="M247.84,185.62c.16.38.35.76.56,1.14-.21-.38-.4-.75-.56-1.14Z"/>
  <path class="st5" d="M251.07,190.2l-.02-.02.02.02Z"/>
  <path class="st3" d="M373.93,136.89c1.06,2.13,1.38,4.36.96,6.54.12-.62.18-1.23.18-1.85v20c0,4.34-2.87,8.69-8.61,12-11.48,6.63-30.09,6.63-41.57,0-5.74-3.31-8.61-7.66-8.61-12v-20h0c0-4.34,2.87-8.69,8.61-12,7.83-4.52,18.98-5.95,28.92-4.3l-49.17-28.39c1.06,2.13,1.38,4.36.96,6.54.12-.62.18-1.23.18-1.85v20c0,4.34-2.87,8.69-8.61,12-11.48,6.63-30.09,6.63-41.57,0-5.74-3.31-8.61-7.66-8.61-12v-20h0c0-4.34,2.87-8.69,8.61-12,7.83-4.52,18.98-5.95,28.92-4.3l-49.16-28.39c1.06,2.13,1.38,4.35.96,6.54.12-.62.18-1.23.18-1.85v20c0,4.34-2.87,8.69-8.61,12-11.48,6.63-30.09,6.63-41.57,0-5.74-3.31-8.61-7.66-8.61-12v-20h0c0-4.34,2.87-8.69,8.61-12,7.83-4.52,18.98-5.95,28.92-4.3l-49.16-28.39c1.06,2.13,1.38,4.36.96,6.54.12-.62.18-1.24.18-1.85v20c0,4.34-2.87,8.69-8.61,12-11.48,6.63-30.09,6.63-41.57,0-5.74-3.31-8.61-7.66-8.61-12v-20c0,.62.07,1.24.18,1.85-.41-2.19-.09-4.41.96-6.55l-49.16,28.39c9.94-1.65,21.09-.22,28.92,4.3,7.53,4.35,10.12,10.47,7.77,16.04.56-1.33.84-2.68.84-4.04v20c0,4.34-2.87,8.69-8.61,12-11.48,6.63-30.09,6.63-41.57,0-5.74-3.31-8.61-7.66-8.61-12v-20c0,.62.07,1.24.18,1.85-.41-2.19-.09-4.41.96-6.55L1,79.58l275.39,159,136.83-79-39.3-22.69h0ZM167.23,121.58c0,4.34-2.87,8.69-8.61,12-11.48,6.63-30.09,6.63-41.57,0-5.74-3.31-8.61-7.66-8.61-12v-20h0c0-4.34,2.87-8.69,8.61-12,11.48-6.63,30.09-6.63,41.57,0,5.74,3.31,8.61,7.66,8.61,12v20ZM236.51,161.58c0,4.34-2.87,8.69-8.61,12-11.48,6.63-30.09,6.63-41.57,0-5.74-3.31-8.61-7.66-8.61-12v-20h0c0,1.09.18,2.17.54,3.24-1.79-5.35.9-11.1,8.07-15.24,11.48-6.63,30.09-6.63,41.57,0,5.74,3.31,8.61,7.66,8.61,12v20ZM305.79,201.58c0,4.34-2.87,8.69-8.61,12-11.48,6.63-30.09,6.63-41.57,0-5.74-3.31-8.61-7.66-8.61-12v-20h0c0-4.34,2.87-8.69,8.61-12,11.48-6.63,30.09-6.63,41.57,0,5.74,3.31,8.61,7.66,8.61,12v20Z"/>
  <path class="st5" d="M270.44,198.19c1.04.12,2.08.22,3.14.28-1.05-.06-2.1-.16-3.14-.28Z"/>
  <path class="st5" d="M233.64,148.89c.05-.05.1-.11.14-.16-.04.06-.09.11-.14.16Z"/>
  <path class="st5" d="M41.24,67.86c.22.32.46.64.71.95-.26-.31-.49-.63-.71-.95Z"/>
  <path class="st5" d="M182.5,150.86c-.51-.45-.99-.92-1.42-1.39.43.47.91.94,1.42,1.39Z"/>
  <path class="st5" d="M236.16,144.18c0-.05.03-.11.05-.16,0,.06-.03.11-.05.16Z"/>
  <path class="st5" d="M235.91,144.97s.04-.1.06-.15c-.02.05-.04.1-.06.15Z"/>
  <path class="st5" d="M140.65,118.47c-1.87.1-3.76.1-5.63,0,1.87.1,3.76.1,5.63,0Z"/>
  <path class="st5" d="M119.28,114.74c3.85,1.81,8.31,2.98,12.94,3.49-4.63-.52-9.09-1.68-12.94-3.49Z"/>
  <path class="st5" d="M46.5,72.8c.41.27.82.53,1.26.78-.44-.25-.86-.52-1.26-.78Z"/>
  <path class="st5" d="M140.65,118.47c1.87-.1,3.73-.31,5.55-.62-1.82.31-3.68.52-5.55.62Z"/>
  <path class="st5" d="M71.37,78.47c2.81-.16,5.59-.54,8.24-1.16-2.65.62-5.43,1.01-8.24,1.16Z"/>
  <path class="st5" d="M113.11,30.76c-.28-.25-.55-.51-.81-.77.26.26.53.52.81.77Z"/>
  <path class="st5" d="M43.95,70.87c.33.29.67.57,1.04.85-.36-.28-.71-.56-1.04-.85Z"/>
  <path class="st5" d="M159.88,32.8c-.41.27-.82.53-1.26.78-2.87,1.66-6.19,2.9-9.72,3.73,3.54-.83,6.85-2.07,9.72-3.73.44-.25.86-.52,1.26-.78Z"/>
  <path class="st5" d="M108.74,104.01c.27,1.08.72,2.14,1.35,3.18-.63-1.04-1.08-2.1-1.35-3.18Z"/>
  <path class="st5" d="M45.28,71.94c.28.21.58.42.88.63-.3-.21-.6-.42-.88-.63Z"/>
  <path class="st5" d="M95.22,68.72c-1.41,1.76-3.37,3.4-5.89,4.85-2.87,1.66-6.19,2.9-9.72,3.73,3.54-.83,6.85-2.07,9.72-3.73,2.51-1.45,4.47-3.1,5.89-4.85Z"/>
  <path class="st5" d="M108.44,101.58h0c0,.27.01.54.03.81-.02-.27-.03-.54-.03-.81Z"/>
  <path class="st5" d="M43.83,70.76c-.28-.25-.55-.51-.81-.77.26.26.53.52.81.77Z"/>
  <path class="st5" d="M163.37,29.98c-.26.26-.53.52-.81.77.28-.25.55-.51.81-.77Z"/>
  <path class="st5" d="M42.1,68.98c.21.25.44.5.67.75-.24-.25-.46-.5-.67-.75Z"/>
  <path class="st5" d="M164.29,108.97c.07-.08.14-.16.21-.25-.07.08-.14.16-.21.25Z"/>
  <path class="st5" d="M95.22,68.72c.81-1,1.43-2.04,1.88-3.11-.45,1.06-1.08,2.1-1.88,3.11Z"/>
  <path class="st5" d="M165.04,108.01s.02-.03.03-.04c0,.01-.02.03-.03.04Z"/>
  <path class="st4" d="M305.49,184.01c.2-.81.3-1.62.3-2.43h0c0,.81-.1,1.63-.3,2.43Z"/>
  <path class="st4" d="M253.59,192.29c-.94-.67-1.78-1.36-2.52-2.09.74.72,1.58,1.42,2.52,2.09Z"/>
  <path class="st4" d="M247,181.58h0c0,1.09.18,2.17.54,3.24-.36-1.07-.54-2.16-.54-3.24Z"/>
  <path class="st4" d="M249.72,188.72c.4.49.84.98,1.32,1.45-.48-.47-.92-.96-1.32-1.45Z"/>
  <path class="st4" d="M298.22,192.94c.67-.43,1.3-.87,1.88-1.33-.58.46-1.21.9-1.88,1.33Z"/>
  <path class="st4" d="M258.85,195.17c3.52,1.52,7.47,2.53,11.59,3.02-4.12-.49-8.07-1.5-11.59-3.02Z"/>
  <path class="st4" d="M284.76,197.85c-3.64.62-7.44.83-11.19.62,3.75.21,7.55,0,11.19-.62Z"/>
  <path class="st4" d="M301.72,190.2c1.73-1.69,2.9-3.51,3.53-5.38-.63,1.87-1.8,3.69-3.53,5.38Z"/>
  <path class="st4" d="M248.4,186.75c.37.67.8,1.33,1.32,1.97-.52-.64-.95-1.3-1.32-1.97Z"/>
  <path class="st7" d="M368.94,151.94c.1-.07.2-.14.29-.22-.1.07-.2.15-.29.22Z"/>
  <path class="st7" d="M370.27,150.87s.09-.08.13-.12c-.05.04-.09.08-.13.12Z"/>
  <path class="st7" d="M371.45,149.73c-.08.08-.16.17-.24.25.08-.08.16-.17.24-.25Z"/>
  <path class="st7" d="M367.72,152.8c.12-.08.23-.15.35-.23-.11.08-.23.16-.35.23Z"/>
  <path class="st7" d="M320.72,150.54c.27.25.56.51.86.75-.3-.25-.59-.5-.86-.75Z"/>
  <path class="st7" d="M366.47,153.57h0c-5.02,2.9-11.41,4.53-17.97,4.89,6.56-.36,12.95-1.99,17.97-4.89h0Z"/>
  <path class="st7" d="M327.12,154.74c3.85,1.81,8.31,2.98,12.94,3.49-4.63-.52-9.09-1.68-12.94-3.49Z"/>
  <path class="st7" d="M373.59,146.89c.04-.08.09-.15.13-.23-.04.08-.08.15-.13.23Z"/>
  <path class="st7" d="M374.58,144.65c.02-.05.03-.1.05-.16-.02.05-.03.1-.05.16Z"/>
  <path class="st7" d="M372.12,148.99c.05-.06.1-.12.15-.17-.05.06-.1.12-.15.17Z"/>
  <path class="st7" d="M372.98,147.86c.04-.05.07-.11.1-.16-.04.05-.07.11-.1.16Z"/>
  <path class="st7" d="M374.85,143.6c.01-.06.02-.11.03-.17-.01.06-.02.11-.03.17Z"/>
  <path class="st7" d="M316.32,142.39c.04.54.13,1.08.27,1.62-.13-.54-.22-1.08-.27-1.62Z"/>
  <path class="st7" d="M374.18,145.71s.01-.02.01-.03c0,0-.01.02-.01.03Z"/>
  <path class="st7" d="M348.49,158.47c-1.87.1-3.76.1-5.63,0,1.87.1,3.76.1,5.63,0Z"/>
  <path class="st7" d="M215.48,157.85c-3.61.62-7.39.82-11.11.62,3.72.2,7.5,0,11.11-.62Z"/>
  <path class="st7" d="M233.64,148.89c-.57.7-1.23,1.37-1.98,2.03.75-.65,1.4-1.33,1.98-2.03Z"/>
  <path class="st7" d="M231.64,150.93c-1.07.93-2.32,1.82-3.74,2.64-2.87,1.66-6.19,2.9-9.72,3.73,3.54-.83,6.85-2.07,9.72-3.73,1.43-.82,2.67-1.71,3.74-2.64Z"/>
  <path class="st7" d="M189.57,155.17c3.5,1.51,7.44,2.52,11.54,3.01-4.1-.49-8.04-1.5-11.54-3.01Z"/>
  <path class="st7" d="M235.97,144.82c.07-.21.13-.43.19-.64-.06.21-.12.43-.19.64Z"/>
  <path class="st7" d="M236.2,144.01c.2-.81.3-1.62.3-2.44h0c0,.81-.1,1.63-.3,2.44Z"/>
  <path class="st7" d="M182.5,150.86c.29.25.59.5.9.75-.31-.25-.61-.5-.9-.75Z"/>
  <path class="st7" d="M233.78,148.72c.97-1.21,1.68-2.47,2.13-3.76-.45,1.29-1.16,2.55-2.13,3.76Z"/>
  <path class="st7" d="M284.76,117.85c1.15-.2,2.28-.45,3.39-.73-1.11.28-2.24.53-3.39.73Z"/>
  <path class="st7" d="M302.84,108.98c.05-.06.1-.11.15-.17-.05.06-.1.11-.15.17Z"/>
  <path class="st7" d="M303.7,107.87c.04-.05.07-.11.11-.16-.04.05-.07.11-.11.16Z"/>
  <path class="st7" d="M304.31,106.89c.04-.08.09-.15.13-.23-.04.08-.08.15-.13.23Z"/>
  <path class="st7" d="M300.99,110.87s.09-.08.13-.12c-.04.04-.09.08-.13.12Z"/>
  <path class="st7" d="M298.44,112.8c.12-.08.23-.15.34-.23-.11.08-.23.15-.34.23Z"/>
  <path class="st7" d="M299.67,111.94c.1-.07.2-.14.29-.22-.09.07-.19.14-.29.22Z"/>
  <path class="st7" d="M305.57,103.6c.01-.06.02-.11.04-.17-.01.06-.02.11-.04.17Z"/>
  <path class="st7" d="M304.9,105.71s0-.02.01-.03c0,0,0,.02-.01.03Z"/>
  <path class="st7" d="M302.17,109.73c-.08.08-.16.17-.24.25.08-.08.16-.17.24-.25Z"/>
  <path class="st7" d="M305.3,104.65c.02-.05.03-.1.05-.16-.02.05-.03.11-.05.16Z"/>
  <path class="st7" d="M236.29,63.6c0-.06.02-.11.04-.17,0,.06-.02.11-.04.17Z"/>
  <path class="st7" d="M229.16,72.8c.12-.08.23-.15.34-.23-.11.08-.23.15-.34.23Z"/>
  <path class="st7" d="M232.89,69.73c-.08.08-.16.17-.24.25.08-.08.16-.17.24-.25Z"/>
  <path class="st7" d="M230.38,71.94c.1-.07.2-.14.29-.22-.09.07-.19.14-.29.22Z"/>
  <path class="st7" d="M235.62,65.71v-.03.03Z"/>
  <path class="st7" d="M233.56,68.99c.05-.06.1-.12.15-.17-.05.06-.1.12-.15.17Z"/>
  <path class="st7" d="M231.71,70.87s.09-.08.13-.12c-.04.04-.09.08-.13.12Z"/>
  <path class="st7" d="M234.42,67.87c.04-.05.07-.11.11-.16-.04.05-.07.11-.11.16Z"/>
  <path class="st7" d="M235.03,66.89c.04-.08.09-.15.13-.23-.04.08-.08.15-.13.23Z"/>
  <path class="st7" d="M236.02,64.65c.02-.05.03-.11.05-.16-.02.05-.03.11-.05.16Z"/>
  <path class="st7" d="M166.92,104.01c.2-.81.3-1.62.3-2.44h0c0,.81-.1,1.63-.3,2.44Z"/>
  <path class="st7" d="M166.69,104.82c.06-.17.1-.35.15-.52-.05.17-.09.35-.15.52Z"/>
  <path class="st7" d="M164.5,108.72c.19-.24.37-.48.54-.72-.17.24-.35.48-.54.72Z"/>
  <path class="st7" d="M165.07,107.96c.68-.97,1.19-1.96,1.55-2.97-.36,1.01-.87,2-1.55,2.97Z"/>
  <path class="st7" d="M164.29,108.97c-.35.42-.72.83-1.13,1.23.41-.4.79-.81,1.13-1.23Z"/>
  <path class="st4" d="M60.18,77.85c2.73.47,5.55.7,8.37.7-2.82,0-5.64-.23-8.37-.7Z"/>
  <path class="st4" d="M43.02,69.98c-.08-.08-.16-.17-.24-.25.08.08.16.17.24.25Z"/>
  <path class="st4" d="M44.99,71.72c.09.07.19.14.29.22-.1-.07-.19-.14-.29-.22Z"/>
  <path class="st4" d="M39.34,63.43s.02.11.03.16c0-.05-.02-.11-.03-.16Z"/>
  <path class="st4" d="M40.03,65.68v.03-.03Z"/>
  <path class="st4" d="M39.6,64.5c.02.05.03.1.04.15-.02-.05-.03-.1-.04-.15Z"/>
  <path class="st4" d="M40.51,66.66c.04.08.08.15.13.22-.04-.07-.08-.15-.13-.22Z"/>
  <path class="st4" d="M43.83,70.76s.08.08.13.12c-.04-.04-.08-.08-.13-.12Z"/>
  <path class="st4" d="M41.96,68.81c.05.06.1.11.15.17-.05-.06-.1-.11-.15-.17Z"/>
  <path class="st4" d="M41.14,67.71c.04.05.07.11.1.16-.04-.05-.07-.11-.1-.16Z"/>
  <path class="st4" d="M46.16,72.57c.11.08.23.15.34.23-.12-.08-.23-.15-.34-.23Z"/>
  <path class="st4" d="M115.44,32.57c.11.08.23.15.34.23-.12-.08-.23-.15-.34-.23Z"/>
  <path class="st4" d="M166.34,25.71v-.03.03Z"/>
  <path class="st4" d="M166.74,24.65s.03-.1.04-.15c-.02.05-.03.1-.04.15Z"/>
  <path class="st4" d="M114.27,31.72c.09.07.19.14.29.22-.1-.07-.19-.14-.29-.22Z"/>
  <path class="st4" d="M161.1,31.94c.1-.07.19-.14.29-.22-.09.07-.19.14-.29.22Z"/>
  <path class="st4" d="M162.43,30.87s.09-.08.13-.12c-.04.04-.09.08-.13.12Z"/>
  <path class="st4" d="M165.14,27.87s.07-.11.1-.16c-.04.05-.07.11-.1.16Z"/>
  <path class="st4" d="M159.88,32.8c.12-.08.23-.15.34-.23-.11.08-.23.15-.34.23Z"/>
  <path class="st4" d="M165.75,26.88c.04-.08.09-.15.13-.23-.04.08-.08.15-.13.23Z"/>
  <path class="st4" d="M113.11,30.76s.08.08.13.12c-.04-.04-.08-.08-.13-.12Z"/>
  <path class="st4" d="M167.01,23.6c0-.06.02-.11.03-.17,0,.06-.02.11-.03.17Z"/>
  <path class="st4" d="M112.3,29.98c-.08-.08-.16-.17-.24-.25.08.08.16.17.24.25Z"/>
  <path class="st4" d="M108.88,24.5s.03.1.04.15c-.02-.05-.03-.1-.04-.15Z"/>
  <path class="st4" d="M163.61,29.74c-.08.08-.16.17-.24.25.08-.08.16-.16.24-.25Z"/>
  <path class="st4" d="M111.24,28.81c.05.06.1.11.15.17-.05-.06-.1-.11-.15-.17Z"/>
  <path class="st4" d="M164.28,28.98c.05-.06.1-.11.15-.17-.05.06-.1.11-.15.17Z"/>
  <path class="st4" d="M110.42,27.71s.07.11.1.16c-.04-.05-.07-.11-.1-.16Z"/>
  <path class="st4" d="M109.31,25.68s0,.02.01.03c0,0,0-.02-.01-.03Z"/>
  <path class="st4" d="M108.62,23.43s.02.11.03.16c-.01-.05-.02-.11-.03-.16Z"/>
  <path class="st4" d="M109.79,26.66c.04.08.08.15.13.22-.04-.07-.08-.15-.13-.22Z"/>
  <path class="st6" d="M305.25,184.82c-.63,1.87-1.8,3.69-3.53,5.38-.49.48-1.03.95-1.61,1.41s-1.21.9-1.88,1.33c-.34.21-.68.43-1.04.63-3.59,2.07-7.87,3.49-12.42,4.27-3.64.62-7.44.83-11.19.62-1.05-.06-2.1-.16-3.14-.28-4.12-.49-8.07-1.5-11.59-3.02-1.12-.48-2.22-1-3.24-1.59-.72-.41-1.39-.84-2.02-1.29-.94-.67-1.78-1.36-2.52-2.09l-.02-.02c-.48-.47-.92-.96-1.32-1.45-.52-.64-.95-1.3-1.32-1.97-.21-.38-.4-.75-.56-1.14-.11-.27-.21-.53-.3-.8-.36-1.07-.54-2.16-.54-3.24v20c0,4.34,2.87,8.69,8.61,12,11.48,6.63,30.09,6.63,41.57,0,5.74-3.31,8.61-7.66,8.61-12v-20c0,.81-.1,1.63-.3,2.43-.07.27-.15.54-.24.81h0Z"/>
  <path class="st6" d="M324.89,173.58c11.48,6.63,30.09,6.63,41.57,0,5.74-3.31,8.61-7.66,8.61-12v-20c0,.62-.07,1.24-.18,1.85-.01.06-.02.11-.03.17-.06.3-.14.6-.23.9-.02.05-.03.1-.05.16-.11.35-.24.69-.38,1.03,0,0-.01.02-.01.03-.14.32-.29.63-.46.94-.04.08-.08.15-.13.23-.16.28-.32.55-.51.82-.04.05-.07.11-.1.16-.22.32-.46.63-.71.95-.05.06-.1.12-.15.17-.21.25-.43.5-.67.75-.08.08-.16.17-.24.25-.26.26-.52.51-.8.77-.05.04-.09.08-.13.12-.33.29-.67.57-1.03.85-.1.07-.2.15-.29.22-.28.21-.58.42-.88.62-.11.08-.23.16-.35.23-.4.26-.82.52-1.25.77h0c-5.02,2.9-11.41,4.53-17.97,4.89-1.87.1-3.76.1-5.63,0-.94-.05-1.87-.13-2.8-.23-4.63-.52-9.09-1.68-12.94-3.49-.77-.36-1.52-.75-2.23-1.16-1.24-.72-2.34-1.48-3.31-2.28-.3-.25-.59-.5-.86-.75-.64-.59-1.22-1.2-1.72-1.82-.4-.5-.76-1.01-1.08-1.53s-.58-1.04-.81-1.57-.4-1.07-.54-1.6c-.13-.54-.22-1.08-.27-1.62-.02-.27-.03-.54-.03-.81v20c0,4.34,2.87,8.69,8.61,12l-.02-.02h0Z"/>
  <path class="st6" d="M236.16,144.18c-.06.21-.12.43-.19.64-.02.05-.04.1-.06.15-.45,1.29-1.16,2.55-2.13,3.76-.04.06-.09.11-.14.16-.57.7-1.23,1.37-1.98,2.03l-.02.02c-1.07.93-2.32,1.82-3.74,2.64-2.87,1.66-6.19,2.9-9.72,3.73-.88.21-1.78.39-2.69.54-3.61.62-7.39.82-11.11.62-1.09-.06-2.18-.16-3.26-.29-4.1-.49-8.04-1.5-11.54-3.01-1.12-.48-2.22-1-3.24-1.59-1.08-.62-2.05-1.28-2.93-1.97-.31-.25-.61-.5-.9-.75-.51-.45-.99-.92-1.42-1.39-.22-.25-.44-.5-.64-.75-.81-1-1.43-2.04-1.88-3.11-.11-.27-.21-.53-.3-.8-.36-1.07-.54-2.16-.54-3.24v20c0,4.34,2.87,8.69,8.61,12,11.48,6.63,30.09,6.63,41.57,0,5.74-3.31,8.61-7.66,8.61-12v-20c0,.81-.1,1.63-.3,2.44,0,.06-.03.11-.05.16h0Z"/>
  <path class="st6" d="M247,121.58c0,4.34,2.87,8.69,8.61,12,11.48,6.63,30.09,6.63,41.57,0,5.74-3.31,8.61-7.66,8.61-12v-20c0,.62-.07,1.24-.18,1.85-.01.06-.02.11-.04.17-.06.3-.14.6-.23.89-.02.05-.03.11-.05.16-.11.35-.24.69-.38,1.03,0,0,0,.02-.01.03-.14.32-.3.63-.47.95-.04.08-.08.15-.13.23-.16.27-.32.55-.51.82-.04.05-.07.11-.11.16-.22.32-.46.63-.71.95-.05.06-.1.11-.15.17-.21.25-.44.5-.67.75-.08.08-.16.17-.24.25-.26.26-.53.52-.81.77-.04.04-.09.08-.13.12-.33.29-.67.57-1.04.85-.09.07-.19.14-.29.22-.28.21-.58.42-.88.63-.11.08-.23.15-.34.23-.41.27-.82.53-1.26.78-2.68,1.55-5.75,2.72-9.02,3.54-1.11.28-2.24.53-3.39.73-1.82.31-3.68.52-5.55.62-1.87.1-3.76.1-5.63,0-6.56-.36-12.95-1.99-17.97-4.89-1.08-.62-2.05-1.28-2.93-1.97-.29-.23-.57-.46-.84-.7-1.08-.94-1.97-1.93-2.69-2.95-.18-.26-.35-.51-.5-.77-.78-1.3-1.29-2.64-1.51-3.99-.09-.54-.13-1.08-.13-1.63v20h0Z"/>
  <path class="st6" d="M177.72,81.58c0,4.34,2.87,8.69,8.61,12,11.48,6.63,30.09,6.63,41.57,0,5.74-3.31,8.61-7.66,8.61-12v-20c0,.62-.07,1.24-.18,1.85,0,.06-.02.11-.04.17-.06.3-.14.6-.23.89-.02.05-.03.11-.05.16-.11.35-.23.69-.38,1.03v.03c-.14.32-.29.63-.46.94-.04.08-.08.15-.13.23-.16.27-.32.55-.51.82-.04.05-.07.11-.11.16-.22.32-.46.63-.71.95-.05.06-.1.12-.15.17-.21.25-.43.5-.67.75-.08.08-.16.17-.24.25-.26.26-.52.52-.81.77-.04.04-.09.08-.13.12-.33.29-.67.57-1.04.85-.09.07-.19.14-.29.22-.28.21-.58.42-.88.63-.11.08-.23.15-.34.23-.41.27-.82.53-1.26.78-2.87,1.66-6.19,2.9-9.72,3.73-.88.21-1.78.39-2.69.54-1.82.31-3.68.52-5.55.62-1.87.1-3.76.1-5.63,0-.94-.05-1.87-.13-2.8-.23-4.63-.52-9.09-1.68-12.94-3.49-.77-.36-1.52-.75-2.23-1.16-1.43-.83-2.69-1.72-3.77-2.66-.54-.47-1.03-.95-1.48-1.45-.67-.74-1.24-1.5-1.72-2.28-.63-1.04-1.08-2.1-1.35-3.18-.13-.54-.22-1.08-.27-1.62-.02-.27-.03-.54-.03-.81v20h0,0Z"/>
  <path class="st6" d="M166.84,104.3c-.05.17-.09.35-.15.52-.02.06-.05.12-.07.18-.36,1.01-.87,2-1.55,2.97,0,.01-.02.03-.03.04-.17.24-.35.48-.54.72-.07.08-.14.16-.21.25-.35.42-.72.83-1.13,1.23-1.23,1.21-2.75,2.34-4.54,3.38-3.59,2.07-7.87,3.49-12.42,4.27-1.82.31-3.68.52-5.55.62-1.87.1-3.76.1-5.63,0-.94-.05-1.87-.13-2.8-.23-4.63-.52-9.09-1.68-12.94-3.49-.77-.36-1.52-.75-2.23-1.16-1.43-.83-2.69-1.72-3.77-2.66-.54-.47-1.03-.95-1.48-1.45-.67-.74-1.24-1.5-1.72-2.28-.63-1.04-1.08-2.1-1.35-3.18-.13-.54-.22-1.08-.27-1.62-.02-.27-.03-.54-.03-.81v20c0,4.34,2.87,8.69,8.61,12,11.48,6.63,30.09,6.63,41.57,0,5.74-3.31,8.61-7.66,8.61-12v-20c0,.81-.1,1.63-.3,2.44-.02.09-.06.19-.08.28v-.02h0Z"/>
  <path class="st6" d="M39.16,81.58c0,4.34,2.87,8.69,8.61,12,11.48,6.63,30.09,6.63,41.57,0,5.74-3.31,8.61-7.66,8.61-12v-20c0,1.36-.28,2.71-.84,4.04-.45,1.06-1.08,2.1-1.88,3.11-1.41,1.76-3.37,3.4-5.89,4.85-2.87,1.66-6.19,2.9-9.72,3.73-2.65.62-5.43,1.01-8.24,1.16-.94.05-1.88.08-2.82.08-2.82,0-5.64-.23-8.37-.7-4.54-.78-8.83-2.2-12.42-4.27-.44-.25-.86-.52-1.26-.78-.12-.08-.23-.15-.34-.23-.3-.21-.6-.42-.88-.63-.1-.07-.19-.14-.29-.22-.36-.28-.71-.56-1.04-.85-.04-.04-.08-.08-.13-.12-.28-.25-.55-.51-.81-.77-.08-.08-.16-.17-.24-.25-.24-.25-.46-.5-.67-.75-.05-.06-.1-.11-.15-.17-.26-.31-.49-.63-.71-.95-.04-.05-.07-.11-.1-.16-.18-.27-.35-.55-.51-.82-.04-.07-.08-.15-.13-.22-.17-.31-.33-.63-.47-.95v-.03c-.15-.34-.27-.69-.38-1.03-.02-.05-.03-.1-.04-.15-.09-.3-.17-.6-.23-.9,0-.05-.02-.11-.03-.16-.12-.62-.18-1.23-.18-1.85v20h-.02Z"/>
  <path class="st6" d="M108.44,41.58c0,4.34,2.87,8.69,8.61,12,11.48,6.63,30.09,6.63,41.57,0,5.74-3.31,8.61-7.66,8.61-12v-20c0,.62-.07,1.24-.18,1.85,0,.06-.02.11-.03.17-.06.3-.14.6-.23.9-.02.05-.03.1-.04.15-.11.35-.24.69-.38,1.03v.03c-.14.32-.3.63-.47.95-.04.08-.08.15-.13.23-.16.28-.33.55-.51.82-.04.05-.07.11-.1.16-.22.32-.46.64-.71.95-.05.06-.1.11-.15.17-.21.25-.44.5-.67.75-.08.08-.16.17-.24.25-.26.26-.53.52-.81.77-.04.04-.09.08-.13.12-.33.29-.67.57-1.04.85-.09.07-.19.14-.29.22-.28.21-.58.42-.88.63-.11.08-.23.15-.34.23-.41.27-.82.53-1.26.78-2.87,1.66-6.19,2.9-9.72,3.73-.88.21-1.78.39-2.69.54-1.82.31-3.68.52-5.55.62-8.43.47-17.15-1.16-23.6-4.89-.44-.25-.86-.52-1.26-.78-.12-.08-.23-.15-.34-.23-.3-.21-.6-.42-.88-.63-.1-.07-.19-.14-.29-.22-.36-.28-.71-.56-1.04-.85-.04-.04-.08-.08-.13-.12-.28-.25-.55-.51-.81-.77-.08-.08-.16-.17-.24-.25-.24-.25-.46-.5-.67-.75-.05-.06-.1-.11-.15-.17-.26-.31-.49-.63-.71-.95-.04-.05-.07-.11-.1-.16-.18-.27-.35-.55-.51-.82-.04-.07-.08-.15-.13-.22-.17-.31-.33-.63-.47-.95,0,0,0-.02-.01-.03-.15-.34-.27-.69-.38-1.03-.02-.05-.03-.1-.04-.15-.09-.3-.17-.6-.23-.9-.01-.05-.02-.11-.03-.16-.12-.62-.18-1.23-.18-1.85v20l-.03-.02h-.01Z"/>
  <path class="st2" d="M213.68,297.93l27.06,15.62c-16.31,10.74-15.6,27.1,2.15,37.34,18.5,10.68,48.5,10.68,67,0,17.75-10.25,18.46-26.6,2.15-37.34l27.06-15.62c31.22,19.38,30.5,49.7-2.18,68.57-33.43,19.3-87.63,19.3-121.06,0-32.68-18.87-33.39-49.19-2.18-68.57Z"/>
</svg>