<?xml version="1.0" encoding="UTF-8"?>
<svg id="Layer_1" data-name="Layer 1" xmlns="http://www.w3.org/2000/svg" viewBox="0 0 414.23 335.44">
  <defs>
    <style>
      .cls-1, .cls-2 {
        fill: none;
      }

      .cls-3 {
        opacity: .1;
      }

      .cls-3, .cls-4, .cls-5, .cls-6 {
        fill: #f5431b;
      }

      .cls-4 {
        opacity: .25;
      }

      .cls-5 {
        opacity: .4;
      }

      .cls-2 {
        stroke: #f5431b;
        stroke-miterlimit: 10;
      }
    </style>
  </defs>
  <path class="cls-2" d="M158.62,193.58c-11.48,6.63-30.09,6.63-41.57,0-11.48-6.63-11.48-17.37,0-24,11.48-6.63,30.09-6.63,41.57,0,11.48,6.63,11.48,17.37,0,24Z"/>
  <path class="cls-2" d="M89.33,153.58c-11.48,6.63-30.09,6.63-41.57,0-11.48-6.63-11.48-17.37,0-24,11.48-6.63,30.09-6.63,41.57,0s11.48,17.37,0,24Z"/>
  <path class="cls-2" d="M227.9,153.58c-11.48,6.63-30.09,6.63-41.57,0-11.48-6.63-11.48-17.37,0-24,11.48-6.63,30.09-6.63,41.57,0,11.48,6.63,11.48,17.37,0,24Z"/>
  <path class="cls-2" d="M158.62,113.58c-11.48,6.63-30.09,6.63-41.57,0s-11.48-17.37,0-24,30.09-6.63,41.57,0c11.48,6.63,11.48,17.37,0,24Z"/>
  <path class="cls-2" d="M227.9,73.58c-11.48,6.63-30.09,6.63-41.57,0-11.48-6.63-11.48-17.37,0-24,11.48-6.63,30.09-6.63,41.57,0,11.48,6.63,11.48,17.37,0,24Z"/>
  <path class="cls-2" d="M297.18,113.58c-11.48,6.63-30.09,6.63-41.57,0-11.48-6.63-11.48-17.37,0-24,11.48-6.63,30.09-6.63,41.57,0,11.48,6.63,11.48,17.37,0,24Z"/>
  <path class="cls-2" d="M366.46,73.58c-11.48,6.63-30.09,6.63-41.57,0-11.48-6.63-11.48-17.37,0-24,11.48-6.63,30.09-6.63,41.57,0,11.48,6.63,11.48,17.37,0,24Z"/>
  <path class="cls-2" d="M268.26,5.27l8.13-4.69,8.13,4.69c-5.31-.88-10.96-.88-16.26,0Z"/>
  <path class="cls-2" d="M40.3,136.89c-2.85,5.74-.36,12.17,7.46,16.69,11.48,6.63,30.09,6.63,41.57,0,11.48-6.63,11.48-17.37,0-24-7.83-4.52-18.98-5.95-28.92-4.3l49.17-28.39c-2.85,5.74-.36,12.17,7.46,16.69,11.48,6.63,30.09,6.63,41.57,0,11.48-6.63,11.48-17.37,0-24-7.83-4.52-18.98-5.95-28.92-4.3l49.16-28.39c-2.85,5.74-.36,12.17,7.46,16.69,11.48,6.63,30.09,6.63,41.57,0,11.48-6.63,11.48-17.37,0-24-7.83-4.52-18.98-5.95-28.92-4.3l49.16-28.39c-2.85,5.74-.36,12.17,7.46,16.69,11.48,6.63,30.09,6.63,41.57,0,7.83-4.52,10.31-10.95,7.46-16.69l49.16,28.39c-9.94-1.65-21.09-.22-28.92,4.3-11.48,6.63-11.48,17.37,0,24,11.48,6.63,30.09,6.63,41.57,0,7.83-4.52,10.31-10.95,7.46-16.69l39.3,22.69L137.83,238.58,1,159.58l39.3-22.69Z"/>
  <path class="cls-2" d="M297.18,33.58c-11.48,6.63-30.09,6.63-41.57,0-11.48-6.63-11.48-17.37,0-24,11.48-6.63,30.09-6.63,41.57,0,11.48,6.63,11.48,17.37,0,24Z"/>
  <polygon class="cls-2" points="137.83 334.58 137.83 238.58 413.23 79.58 413.23 175.58 137.83 334.58"/>
  <path class="cls-2" d="M158.62,193.58c-11.48,6.63-30.09,6.63-41.57,0-5.74-3.31-8.61-7.66-8.61-12v20c0,4.34,2.87,8.69,8.61,12,11.48,6.63,30.09,6.63,41.57,0,5.74-3.31,8.61-7.66,8.61-12v-20c0,4.34-2.87,8.69-8.61,12Z"/>
  <path class="cls-2" d="M89.33,153.58c-11.48,6.63-30.09,6.63-41.57,0-5.74-3.31-8.61-7.66-8.61-12h0v20c0,4.34,2.87,8.69,8.61,12,11.48,6.63,30.09,6.63,41.57,0,5.74-3.31,8.61-7.66,8.61-12v-20c0,4.34-2.87,8.69-8.61,12Z"/>
  <path class="cls-2" d="M227.9,153.58c-11.48,6.63-30.09,6.63-41.57,0-5.74-3.31-8.61-7.66-8.61-12v20c0,4.34,2.87,8.69,8.61,12,11.48,6.63,30.09,6.63,41.57,0,5.74-3.31,8.61-7.66,8.61-12v-20c0,4.34-2.87,8.69-8.61,12Z"/>
  <path class="cls-2" d="M158.62,113.58c-11.48,6.63-30.09,6.63-41.57,0-5.74-3.31-8.61-7.66-8.61-12v20c0,4.34,2.87,8.69,8.61,12,11.48,6.63,30.09,6.63,41.57,0,5.74-3.31,8.61-7.66,8.61-12v-20c0,4.34-2.87,8.69-8.61,12Z"/>
  <path class="cls-2" d="M227.9,73.58c-11.48,6.63-30.09,6.63-41.57,0-5.74-3.31-8.61-7.66-8.61-12v20c0,4.34,2.87,8.69,8.61,12,11.48,6.63,30.09,6.63,41.57,0,5.74-3.31,8.61-7.66,8.61-12v-20c0,4.34-2.87,8.69-8.61,12Z"/>
  <path class="cls-2" d="M297.18,113.58c-11.48,6.63-30.09,6.63-41.57,0-5.74-3.31-8.61-7.66-8.61-12v20c0,4.34,2.87,8.69,8.61,12,11.48,6.63,30.09,6.63,41.57,0,5.74-3.31,8.61-7.66,8.61-12v-20c0,4.34-2.87,8.69-8.61,12Z"/>
  <path class="cls-2" d="M366.46,73.58c-11.48,6.63-30.09,6.63-41.57,0-5.74-3.31-8.61-7.66-8.61-12h0v20c0,4.34,2.87,8.69,8.61,12,11.48,6.63,30.09,6.63,41.57,0,5.74-3.31,8.61-7.66,8.61-12v-20c0,4.34-2.87,8.69-8.61,12Z"/>
  <path class="cls-2" d="M297.18,33.58c-11.48,6.63-30.09,6.63-41.57,0-5.74-3.31-8.61-7.66-8.61-12h0v20c0,4.34,2.87,8.69,8.61,12,11.48,6.63,30.09,6.63,41.57,0,5.74-3.31,8.61-7.66,8.61-12v-20c0,4.34-2.87,8.69-8.61,12Z"/>
  <polygon class="cls-2" points="137.83 334.58 1 255.58 1 159.58 137.83 238.58 137.83 334.58"/>
  <path class="cls-1" d="M255.61,89.58c11.48-6.63,30.09-6.63,41.57,0,5.74,3.31,8.61,7.66,8.61,12,0,.27-.01.54-.03.81-.04.54-.13,1.08-.27,1.62-.27,1.08-.72,2.14-1.35,3.18-.47.78-1.04,1.54-1.72,2.28-.45.49-.94.98-1.48,1.45-1.08.94-2.33,1.83-3.77,2.66-.72.41-1.46.8-2.23,1.16-3.85,1.81-8.31,2.98-12.94,3.49-.93.1-1.86.18-2.8.23-1.87.1-3.76.1-5.63,0-1.87-.1-3.73-.31-5.55-.62-4.54-.78-8.83-2.2-12.42-4.27-1.79-1.04-3.31-2.17-4.54-3.38-.41-.4-.79-.81-1.13-1.23-.07-.08-.14-.16-.21-.25-.19-.24-.37-.48-.54-.72-.01-.01-.02-.03-.03-.04-.68-.97-1.19-1.96-1.55-2.97-.02-.06-.05-.12-.07-.18-.06-.17-.1-.35-.15-.52-.03-.09-.06-.19-.08-.28-.2-.81-.3-1.62-.3-2.44h0c0-4.34,2.87-8.69,8.61-12Z"/>
  <path class="cls-1" d="M186.33,129.58c11.48-6.63,30.09-6.63,41.57,0,7.17,4.14,9.86,9.89,8.07,15.24-.09.27-.19.53-.3.8-.45,1.06-1.08,2.1-1.88,3.11-.2.25-.41.5-.64.75-.43.47-.91.94-1.42,1.39-.29.25-.59.5-.9.75-.87.69-1.85,1.34-2.93,1.97-1.02.59-2.12,1.11-3.24,1.59-3.5,1.51-7.44,2.52-11.54,3.01-1.08.13-2.17.23-3.26.29-3.72.2-7.5,0-11.11-.62-.91-.16-1.81-.34-2.69-.54-3.54-.83-6.85-2.07-9.72-3.73-1.43-.82-2.67-1.71-3.74-2.64,0,0-.01-.01-.02-.02-.75-.65-1.4-1.33-1.98-2.03-.05-.05-.1-.11-.14-.16-.97-1.21-1.68-2.47-2.13-3.76-.02-.05-.04-.1-.06-.15-.07-.21-.13-.43-.19-.64-.01-.05-.03-.11-.05-.16-.2-.81-.3-1.62-.3-2.44h0c0-4.34,2.87-8.69,8.61-12Z"/>
  <path class="cls-1" d="M117.05,169.58c11.48-6.63,30.09-6.63,41.57,0,5.74,3.31,8.61,7.66,8.61,12,0,1.09-.18,2.17-.54,3.24-.09.27-.19.53-.3.8-.16.38-.35.76-.56,1.14-.37.67-.8,1.33-1.32,1.97-.4.49-.84.98-1.32,1.45,0,0-.02.02-.02.02-.74.72-1.58,1.42-2.52,2.09-.63.44-1.3.87-2.02,1.29-1.02.59-2.12,1.11-3.24,1.59-3.52,1.52-7.47,2.53-11.59,3.02-1.04.12-2.08.22-3.14.28-3.75.21-7.55,0-11.19-.62-4.54-.78-8.83-2.2-12.42-4.27-.36-.21-.71-.42-1.04-.63-.67-.43-1.3-.87-1.88-1.33-.58-.46-1.12-.93-1.61-1.41-1.73-1.69-2.9-3.51-3.53-5.38-.09-.27-.17-.54-.24-.81-.2-.81-.3-1.62-.3-2.44h0c0-4.34,2.87-8.69,8.61-12Z"/>
  <path class="cls-4" d="M158.62,193.58c-11.48,6.63-30.09,6.63-41.57,0-11.48-6.63-11.48-17.37,0-24,11.48-6.63,30.09-6.63,41.57,0,11.48,6.63,11.48,17.37,0,24Z"/>
  <path class="cls-4" d="M89.33,153.58c-11.48,6.63-30.09,6.63-41.57,0-11.48-6.63-11.48-17.37,0-24,11.48-6.63,30.09-6.63,41.57,0s11.48,17.37,0,24Z"/>
  <path class="cls-4" d="M227.9,153.58c-11.48,6.63-30.09,6.63-41.57,0-11.48-6.63-11.48-17.37,0-24,11.48-6.63,30.09-6.63,41.57,0,11.48,6.63,11.48,17.37,0,24Z"/>
  <path class="cls-4" d="M158.62,113.58c-11.48,6.63-30.09,6.63-41.57,0s-11.48-17.37,0-24,30.09-6.63,41.57,0c11.48,6.63,11.48,17.37,0,24Z"/>
  <path class="cls-4" d="M227.9,73.58c-11.48,6.63-30.09,6.63-41.57,0-11.48-6.63-11.48-17.37,0-24,11.48-6.63,30.09-6.63,41.57,0,11.48,6.63,11.48,17.37,0,24Z"/>
  <path class="cls-4" d="M297.18,113.58c-11.48,6.63-30.09,6.63-41.57,0-11.48-6.63-11.48-17.37,0-24,11.48-6.63,30.09-6.63,41.57,0,11.48,6.63,11.48,17.37,0,24Z"/>
  <path class="cls-4" d="M366.46,73.58c-11.48,6.63-30.09,6.63-41.57,0-11.48-6.63-11.48-17.37,0-24,11.48-6.63,30.09-6.63,41.57,0,11.48,6.63,11.48,17.37,0,24Z"/>
  <path class="cls-4" d="M297.18,33.58c-11.48,6.63-30.09,6.63-41.57,0s-11.48-17.37,0-24c11.48-6.63,30.09-6.63,41.57,0,11.48,6.63,11.48,17.37,0,24Z"/>
  <polygon class="cls-4" points="137.83 334.58 137.83 238.58 413.23 79.58 413.23 175.58 137.83 334.58"/>
  <polygon class="cls-3" points="167.23 181.58 167.23 181.58 167.23 181.58 167.23 181.58"/>
  <polygon class="cls-5" points="137.83 334.58 1 255.58 1 159.58 137.83 238.58 137.83 334.58"/>
  <path class="cls-3" d="M268.26,5.27l8.13-4.69,8.13,4.69c-5.31-.88-10.96-.88-16.26,0Z"/>
  <path class="cls-3" d="M42.77,149.73c-.23-.25-.46-.5-.67-.75.21.25.43.5.67.75Z"/>
  <path class="cls-3" d="M41.96,148.81c-.25-.31-.49-.63-.71-.95.22.32.46.63.71.95Z"/>
  <path class="cls-3" d="M41.14,147.7c-.18-.27-.35-.54-.51-.82.16.27.33.55.51.82Z"/>
  <path class="cls-3" d="M39.6,144.49c-.09-.3-.16-.6-.23-.9.06.3.14.6.23.9Z"/>
  <path class="cls-3" d="M40.51,146.66c-.17-.31-.33-.63-.46-.94.14.32.29.63.46.94Z"/>
  <path class="cls-3" d="M40.03,145.68c-.15-.34-.27-.69-.38-1.03.11.35.24.69.38,1.03Z"/>
  <path class="cls-3" d="M47.76,153.57c-.44-.25-.85-.51-1.25-.77.4.26.82.52,1.25.77Z"/>
  <path class="cls-3" d="M108.88,104.49c-.09-.3-.16-.6-.23-.89.06.3.14.6.23.89Z"/>
  <path class="cls-3" d="M44.99,151.72c-.36-.28-.71-.56-1.03-.85.33.29.67.57,1.03.85Z"/>
  <path class="cls-3" d="M303.7,27.86c-.22.32-.46.64-.71.95.26-.31.49-.63.71-.95Z"/>
  <path class="cls-3" d="M302.84,28.98c-.21.25-.44.5-.67.75.24-.25.46-.5.67-.75Z"/>
  <path class="cls-3" d="M97.1,145.62c-.22.53-.49,1.06-.81,1.57.31-.52.58-1.04.81-1.57Z"/>
  <path class="cls-3" d="M46.16,152.56c-.3-.2-.59-.41-.88-.62.28.21.58.42.88.62Z"/>
  <path class="cls-3" d="M109.31,105.68c-.15-.34-.27-.69-.38-1.03.11.35.24.69.38,1.03Z"/>
  <path class="cls-3" d="M162.38,110.91c1.08-.94,1.97-1.93,2.69-2.95-.72,1.02-1.61,2.01-2.69,2.95Z"/>
  <path class="cls-3" d="M305.3,24.65c-.11.35-.24.69-.38,1.03.15-.34.27-.69.38-1.03Z"/>
  <path class="cls-3" d="M304.9,25.71c-.14.32-.3.63-.47.95.17-.31.33-.63.47-.95Z"/>
  <path class="cls-3" d="M181.58,69.98c.26.26.52.52.81.77-.28-.25-.55-.51-.81-.77Z"/>
  <path class="cls-3" d="M167.09,103.2c.09-.54.13-1.08.13-1.63,0,0,0,0,0,0,0,.54-.04,1.09-.13,1.63Z"/>
  <path class="cls-3" d="M43.02,149.98c.26.26.52.51.8.77-.28-.25-.55-.51-.8-.77Z"/>
  <path class="cls-3" d="M185.07,72.8c.41.27.82.53,1.26.78,2.87,1.66,6.19,2.9,9.72,3.73-3.54-.83-6.85-2.07-9.72-3.73-.44-.25-.86-.52-1.26-.78Z"/>
  <path class="cls-3" d="M204.3,78.47c1.87.1,3.76.1,5.63,0-1.87.1-3.76.1-5.63,0Z"/>
  <path class="cls-3" d="M231.66,70.91c.54-.47,1.03-.95,1.48-1.45-.45.49-.94.98-1.48,1.45Z"/>
  <path class="cls-3" d="M304.31,26.88c-.16.28-.33.55-.51.82.18-.27.35-.55.51-.82Z"/>
  <path class="cls-3" d="M93.5,150.54c.64-.59,1.22-1.2,1.72-1.82-.5.62-1.08,1.23-1.72,1.82Z"/>
  <path class="cls-3" d="M87.1,154.74c.77-.36,1.51-.75,2.23-1.16,1.24-.72,2.34-1.48,3.31-2.28-.97.8-2.07,1.57-3.31,2.28-.72.41-1.46.8-2.23,1.16Z"/>
  <path class="cls-3" d="M135.01,118.47c1.87.1,3.76.1,5.63,0-1.87.1-3.76.1-5.63,0Z"/>
  <path class="cls-3" d="M140.65,118.47c6.56-.36,12.95-1.99,17.97-4.89,1.08-.62,2.05-1.28,2.93-1.97-.87.69-1.85,1.34-2.93,1.97-5.02,2.9-11.41,4.53-17.97,4.89Z"/>
  <path class="cls-3" d="M112.3,109.98c.26.26.53.52.81.77-.28-.25-.55-.51-.81-.77Z"/>
  <path class="cls-3" d="M115.79,112.8c.41.27.82.53,1.26.78,2.68,1.55,5.75,2.72,9.02,3.54-3.27-.82-6.35-1.99-9.02-3.54-.44-.25-.86-.52-1.26-.78Z"/>
  <path class="cls-3" d="M179.07,66.66c-.17-.31-.33-.63-.46-.94.14.32.29.63.46.94Z"/>
  <path class="cls-3" d="M305.57,23.6c-.06.3-.14.6-.23.9.09-.3.17-.6.23-.9Z"/>
  <path class="cls-3" d="M249.8,28.81c-.26-.31-.49-.63-.71-.95.22.32.46.64.71.95Z"/>
  <path class="cls-3" d="M248.35,26.66c-.17-.31-.33-.63-.47-.95.14.32.3.63.47.95Z"/>
  <path class="cls-3" d="M179.7,67.7c-.18-.27-.35-.54-.51-.82.16.27.32.55.51.82Z"/>
  <path class="cls-3" d="M178.16,64.49c-.09-.3-.16-.59-.23-.89.06.3.14.6.23.89Z"/>
  <path class="cls-3" d="M248.99,27.71c-.18-.27-.35-.55-.51-.82.16.28.33.55.51.82Z"/>
  <path class="cls-3" d="M178.59,65.68c-.15-.34-.27-.69-.38-1.03.11.35.23.69.38,1.03Z"/>
  <path class="cls-3" d="M247.87,25.68c-.15-.34-.27-.69-.38-1.03.11.35.24.69.38,1.03Z"/>
  <path class="cls-3" d="M225.67,74.74c-3.85,1.81-8.31,2.98-12.94,3.49,4.63-.52,9.09-1.68,12.94-3.49Z"/>
  <path class="cls-3" d="M247.44,24.5c-.09-.3-.17-.6-.23-.9.06.3.14.6.23.9Z"/>
  <path class="cls-3" d="M204.3,78.47c-1.87-.1-3.73-.31-5.55-.62,1.82.31,3.68.52,5.55.62Z"/>
  <path class="cls-3" d="M183.55,71.72c-.36-.28-.71-.56-1.04-.85.33.29.67.57,1.04.85Z"/>
  <path class="cls-3" d="M181.34,69.73c-.23-.25-.46-.5-.67-.75.21.25.43.5.67.75Z"/>
  <path class="cls-3" d="M180.52,68.81c-.25-.31-.49-.63-.71-.95.22.32.46.63.71.95Z"/>
  <path class="cls-3" d="M236.2,64.01c-.27,1.08-.72,2.14-1.35,3.18.63-1.04,1.08-2.1,1.35-3.18Z"/>
  <path class="cls-3" d="M115.44,112.57c-.3-.21-.6-.42-.88-.63.28.21.58.42.88.63Z"/>
  <path class="cls-3" d="M111.24,108.81c-.25-.31-.49-.63-.71-.95.22.32.46.63.71.95Z"/>
  <path class="cls-3" d="M273.58,38.47c-1.87-.1-3.73-.31-5.55-.62,1.82.31,3.68.52,5.55.62Z"/>
  <path class="cls-3" d="M112.06,109.73c-.24-.25-.46-.5-.67-.75.21.25.44.5.67.75Z"/>
  <path class="cls-3" d="M298.44,32.8c-.41.27-.82.53-1.26.78.44-.25.86-.52,1.26-.78Z"/>
  <path class="cls-3" d="M109.79,106.66c-.17-.31-.33-.63-.47-.95.14.32.3.63.47.95Z"/>
  <path class="cls-3" d="M110.42,107.7c-.18-.27-.35-.54-.51-.82.16.27.32.55.51.82Z"/>
  <path class="cls-3" d="M299.67,31.94c-.28.21-.58.42-.88.63.3-.21.6-.42.88-.63Z"/>
  <path class="cls-3" d="M250.62,29.74c-.24-.25-.46-.5-.67-.75.21.25.44.5.67.75Z"/>
  <path class="cls-3" d="M167.09,103.2c-.22,1.35-.73,2.69-1.51,3.99.78-1.3,1.29-2.64,1.51-3.99Z"/>
  <path class="cls-3" d="M300.99,30.87c-.33.29-.67.57-1.04.85.36-.28.71-.56,1.04-.85Z"/>
  <path class="cls-3" d="M135.01,118.47c-1.87-.1-3.73-.31-5.55-.62,1.82.31,3.68.52,5.55.62Z"/>
  <path class="cls-3" d="M254.01,32.57c-.3-.21-.6-.42-.88-.63.28.21.58.42.88.63Z"/>
  <path class="cls-3" d="M114.27,111.72c-.36-.28-.71-.56-1.04-.85.33.29.67.57,1.04.85Z"/>
  <path class="cls-3" d="M252.83,31.72c-.36-.28-.71-.56-1.04-.85.33.29.67.57,1.04.85Z"/>
  <path class="cls-3" d="M373.59,66.88c-.16.28-.33.55-.51.82.18-.27.35-.55.51-.82Z"/>
  <path class="cls-3" d="M227.9,153.58c-1.02.59-2.12,1.11-3.24,1.59,1.12-.48,2.22-1,3.24-1.59Z"/>
  <path class="cls-3" d="M374.58,64.65c-.11.35-.24.69-.38,1.03.15-.34.27-.69.38-1.03Z"/>
  <path class="cls-3" d="M236.47,62.39c.02-.27.03-.54.03-.81,0,0,0,0,0,0,0,.27-.01.54-.03.81Z"/>
  <path class="cls-3" d="M374.85,63.6c-.06.3-.14.6-.23.9.09-.3.17-.6.23-.9Z"/>
  <path class="cls-3" d="M235.67,145.62c-.45,1.06-1.08,2.1-1.88,3.11.81-1,1.43-2.04,1.88-3.11Z"/>
  <path class="cls-3" d="M300.95,110.91c.54-.47,1.03-.95,1.48-1.45-.45.49-.94.98-1.48,1.45Z"/>
  <path class="cls-3" d="M184.72,72.57c-.3-.21-.6-.41-.88-.63.28.21.58.42.88.63Z"/>
  <path class="cls-3" d="M247.61,104.99c-.02-.06-.05-.12-.07-.18.02.06.05.12.07.18Z"/>
  <path class="cls-3" d="M247.39,104.3c-.03-.09-.06-.19-.08-.28.02.09.06.19.08.28Z"/>
  <path class="cls-3" d="M251.07,110.2c1.23,1.21,2.75,2.34,4.54,3.38,3.59,2.07,7.87,3.49,12.42,4.27-4.54-.78-8.83-2.2-12.42-4.27-1.79-1.04-3.31-2.17-4.54-3.38Z"/>
  <path class="cls-3" d="M374.19,65.71c-.14.32-.3.63-.47.95.17-.31.33-.63.47-.95Z"/>
  <path class="cls-3" d="M182.58,150.93s-.01-.01-.02-.02c0,0,.01.01.02.02Z"/>
  <path class="cls-3" d="M158.62,193.58c-1.02.59-2.12,1.11-3.24,1.59,1.12-.48,2.22-1,3.24-1.59Z"/>
  <path class="cls-3" d="M213.12,158.18c-1.08.13-2.17.23-3.26.29,1.09-.06,2.18-.16,3.26-.29Z"/>
  <path class="cls-3" d="M166.38,185.62c-.16.38-.35.76-.56,1.14.21-.38.4-.75.56-1.14Z"/>
  <path class="cls-3" d="M163.16,190.2s.02-.02.02-.02c0,0-.02.02-.02.02Z"/>
  <path class="cls-3" d="M1,159.58l136.83,79L413.23,79.58l-39.3-22.69c1.06,2.13,1.38,4.36.96,6.55.12-.62.18-1.23.18-1.85v20c0,4.34-2.87,8.69-8.61,12-11.48,6.63-30.09,6.63-41.57,0-5.74-3.31-8.61-7.66-8.61-12v-20c0,1.36.28,2.71.84,4.04-2.35-5.57.24-11.69,7.77-16.04,7.83-4.52,18.98-5.95,28.92-4.3l-49.16-28.39c1.06,2.13,1.38,4.36.96,6.55.12-.62.18-1.23.18-1.85v20c0,4.34-2.87,8.69-8.61,12-11.48,6.63-30.09,6.63-41.57,0-5.74-3.31-8.61-7.66-8.61-12v-20c0,.62.07,1.24.18,1.85-.41-2.19-.09-4.41.96-6.54l-49.16,28.39c9.94-1.65,21.09-.22,28.92,4.3,5.74,3.31,8.61,7.66,8.61,12,0,0,0,0,0,0v20c0,4.34-2.87,8.69-8.61,12-11.48,6.63-30.09,6.63-41.57,0-5.74-3.31-8.61-7.66-8.61-12v-20c0,.62.07,1.24.18,1.85-.41-2.19-.09-4.41.96-6.54l-49.16,28.39c9.94-1.65,21.09-.22,28.92,4.3,5.74,3.31,8.61,7.66,8.61,12,0,0,0,0,0,0v20c0,4.34-2.87,8.69-8.61,12-11.48,6.63-30.09,6.63-41.57,0-5.74-3.31-8.61-7.66-8.61-12v-20c0,.62.07,1.24.18,1.85-.41-2.19-.09-4.41.96-6.54l-49.17,28.39c9.94-1.65,21.09-.22,28.92,4.3,5.74,3.31,8.61,7.66,8.61,12,0,0,0,0,0,0,0,0,0,0,0,0v20c0,4.34-2.87,8.69-8.61,12-11.48,6.63-30.09,6.63-41.57,0-5.74-3.31-8.61-7.66-8.61-12v-20c0,.62.07,1.24.18,1.85-.41-2.19-.09-4.41.96-6.54L1,159.58ZM247,101.58c0-4.34,2.87-8.69,8.61-12,11.48-6.63,30.09-6.63,41.57,0,5.74,3.31,8.61,7.66,8.61,12,0,0,0,0,0,0v20c0,4.34-2.87,8.69-8.61,12-11.48,6.63-30.09,6.63-41.57,0-5.74-3.31-8.61-7.66-8.61-12v-20ZM177.72,141.58c0-4.34,2.87-8.69,8.61-12,11.48-6.63,30.09-6.63,41.57,0,7.17,4.14,9.86,9.89,8.07,15.24.36-1.07.54-2.16.54-3.24,0,0,0,0,0,0,0,0,0,0,0,0v20c0,4.34-2.87,8.69-8.61,12-11.48,6.63-30.09,6.63-41.57,0-5.74-3.31-8.61-7.66-8.61-12v-20ZM108.44,181.58c0-4.34,2.87-8.69,8.61-12,11.48-6.63,30.09-6.63,41.57,0,5.74,3.31,8.61,7.66,8.61,12h0v20c0,4.34-2.87,8.69-8.61,12-11.48,6.63-30.09,6.63-41.57,0-5.74-3.31-8.61-7.66-8.61-12v-20Z"/>
  <path class="cls-3" d="M143.79,198.19c-1.04.12-2.08.22-3.14.28,1.05-.06,2.1-.16,3.14-.28Z"/>
  <path class="cls-3" d="M180.58,148.89c-.05-.05-.1-.11-.14-.16.04.06.09.11.14.16Z"/>
  <path class="cls-3" d="M372.98,67.86c-.22.32-.46.64-.71.95.26-.31.49-.63.71-.95Z"/>
  <path class="cls-3" d="M231.72,150.86c.51-.45.99-.92,1.42-1.39-.43.47-.91.94-1.42,1.39Z"/>
  <path class="cls-3" d="M178.07,144.18c-.01-.05-.03-.11-.05-.16.01.06.03.11.05.16Z"/>
  <path class="cls-3" d="M178.31,144.97s-.04-.1-.06-.15c.02.05.04.1.06.15Z"/>
  <path class="cls-3" d="M273.58,118.47c1.87.1,3.76.1,5.63,0-1.87.1-3.76.1-5.63,0Z"/>
  <path class="cls-3" d="M294.95,114.74c-3.85,1.81-8.31,2.98-12.94,3.49,4.63-.52,9.09-1.68,12.94-3.49Z"/>
  <path class="cls-3" d="M367.72,72.8c-.41.27-.82.53-1.26.78.44-.25.86-.52,1.26-.78Z"/>
  <path class="cls-3" d="M273.58,118.47c-1.87-.1-3.73-.31-5.55-.62,1.82.31,3.68.52,5.55.62Z"/>
  <path class="cls-3" d="M342.86,78.47c-2.81-.16-5.59-.54-8.24-1.16,2.65.62,5.43,1.01,8.24,1.16Z"/>
  <path class="cls-3" d="M301.12,30.76c.28-.25.55-.51.81-.77-.26.26-.53.52-.81.77Z"/>
  <path class="cls-3" d="M370.27,70.87c-.33.29-.67.57-1.04.85.36-.28.71-.56,1.04-.85Z"/>
  <path class="cls-3" d="M254.35,32.8c.41.27.82.53,1.26.78,2.87,1.66,6.19,2.9,9.72,3.73-3.54-.83-6.85-2.07-9.72-3.73-.44-.25-.86-.52-1.26-.78Z"/>
  <path class="cls-3" d="M305.49,104.01c-.27,1.08-.72,2.14-1.35,3.18.63-1.04,1.08-2.1,1.35-3.18Z"/>
  <path class="cls-3" d="M368.95,71.94c-.28.21-.58.42-.88.63.3-.21.6-.42.88-.63Z"/>
  <path class="cls-3" d="M319.01,68.72c1.41,1.76,3.37,3.4,5.89,4.85,2.87,1.66,6.19,2.9,9.72,3.73-3.54-.83-6.85-2.07-9.72-3.73-2.51-1.45-4.47-3.1-5.89-4.85Z"/>
  <path class="cls-3" d="M305.79,101.58s0,0,0,0c0,.27-.01.54-.03.81.02-.27.03-.54.03-.81Z"/>
  <path class="cls-3" d="M370.4,70.76c.28-.25.55-.51.81-.77-.26.26-.53.52-.81.77Z"/>
  <path class="cls-3" d="M250.86,29.98c.26.26.53.52.81.77-.28-.25-.55-.51-.81-.77Z"/>
  <path class="cls-3" d="M372.12,68.98c-.21.25-.44.5-.67.75.24-.25.46-.5.67-.75Z"/>
  <path class="cls-3" d="M249.94,108.97c-.07-.08-.14-.16-.21-.25.07.08.14.16.21.25Z"/>
  <path class="cls-3" d="M319.01,68.72c-.81-1-1.43-2.04-1.88-3.11.45,1.06,1.08,2.1,1.88,3.11Z"/>
  <path class="cls-3" d="M249.19,108.01s-.02-.03-.03-.04c.01.01.02.03.03.04Z"/>
  <path class="cls-4" d="M108.74,184.01c-.2-.81-.3-1.62-.3-2.43h0c0,.81.1,1.63.3,2.43Z"/>
  <path class="cls-4" d="M160.63,192.29c.94-.67,1.78-1.36,2.52-2.09-.74.72-1.58,1.42-2.52,2.09Z"/>
  <path class="cls-4" d="M167.23,181.58h0c0,1.09-.18,2.17-.54,3.24.36-1.07.54-2.16.54-3.24Z"/>
  <path class="cls-4" d="M164.5,188.72c-.4.49-.84.98-1.32,1.45.48-.47.92-.96,1.32-1.45Z"/>
  <path class="cls-4" d="M116,192.94c-.67-.43-1.3-.87-1.88-1.33.58.46,1.21.9,1.88,1.33Z"/>
  <path class="cls-4" d="M155.37,195.17c-3.52,1.52-7.47,2.53-11.59,3.02,4.12-.49,8.07-1.5,11.59-3.02Z"/>
  <path class="cls-4" d="M129.46,197.85c3.64.62,7.44.83,11.19.62-3.75.21-7.55,0-11.19-.62Z"/>
  <path class="cls-4" d="M112.51,190.2c-1.73-1.69-2.9-3.51-3.53-5.38.63,1.87,1.8,3.69,3.53,5.38Z"/>
  <path class="cls-4" d="M165.82,186.75c-.37.67-.8,1.33-1.32,1.97.52-.64.95-1.3,1.32-1.97Z"/>
  <path class="cls-6" d="M45.28,151.94c-.1-.07-.2-.14-.29-.22.1.07.2.15.29.22Z"/>
  <path class="cls-6" d="M43.96,150.87s-.09-.08-.13-.12c.05.04.09.08.13.12Z"/>
  <path class="cls-6" d="M42.77,149.73c.08.08.16.17.24.25-.08-.08-.16-.17-.24-.25Z"/>
  <path class="cls-6" d="M46.51,152.8c-.12-.08-.23-.15-.35-.23.11.08.23.16.35.23Z"/>
  <path class="cls-6" d="M93.5,150.54c-.27.25-.56.51-.86.75.3-.25.59-.5.86-.75Z"/>
  <path class="cls-6" d="M47.76,153.57s0,0,0,0c5.02,2.9,11.41,4.53,17.97,4.89-6.56-.36-12.95-1.99-17.97-4.89,0,0,0,0,0,0Z"/>
  <path class="cls-6" d="M87.1,154.74c-3.85,1.81-8.31,2.98-12.94,3.49,4.63-.52,9.09-1.68,12.94-3.49Z"/>
  <path class="cls-6" d="M40.63,146.89c-.04-.08-.09-.15-.13-.23.04.08.08.15.13.23Z"/>
  <path class="cls-6" d="M39.65,144.65c-.02-.05-.03-.1-.05-.16.02.05.03.1.05.16Z"/>
  <path class="cls-6" d="M42.11,148.99c-.05-.06-.1-.12-.15-.17.05.06.1.12.15.17Z"/>
  <path class="cls-6" d="M41.24,147.86c-.04-.05-.07-.11-.1-.16.04.05.07.11.1.16Z"/>
  <path class="cls-6" d="M39.37,143.6c-.01-.06-.02-.11-.03-.17.01.06.02.11.03.17Z"/>
  <path class="cls-6" d="M97.91,142.39c-.04.54-.13,1.08-.27,1.62.13-.54.22-1.08.27-1.62Z"/>
  <path class="cls-6" d="M40.04,145.71s-.01-.02-.01-.03c0,.01.01.02.01.03Z"/>
  <path class="cls-6" d="M65.73,158.47c1.87.1,3.76.1,5.63,0-1.87.1-3.76.1-5.63,0Z"/>
  <path class="cls-6" d="M198.74,157.85c3.61.62,7.39.82,11.11.62-3.72.2-7.5,0-11.11-.62Z"/>
  <path class="cls-6" d="M180.58,148.89c.57.7,1.23,1.37,1.98,2.03-.75-.65-1.4-1.33-1.98-2.03Z"/>
  <path class="cls-6" d="M182.58,150.93c1.07.93,2.32,1.82,3.74,2.64,2.87,1.66,6.19,2.9,9.72,3.73-3.54-.83-6.85-2.07-9.72-3.73-1.43-.82-2.67-1.71-3.74-2.64Z"/>
  <path class="cls-6" d="M224.66,155.17c-3.5,1.51-7.44,2.52-11.54,3.01,4.1-.49,8.04-1.5,11.54-3.01Z"/>
  <path class="cls-6" d="M178.26,144.82c-.07-.21-.13-.43-.19-.64.06.21.12.43.19.64Z"/>
  <path class="cls-6" d="M178.02,144.01c-.2-.81-.3-1.62-.3-2.44h0c0,.81.1,1.63.3,2.44Z"/>
  <path class="cls-6" d="M231.72,150.86c-.29.25-.59.5-.9.75.31-.25.61-.5.9-.75Z"/>
  <path class="cls-6" d="M180.44,148.72c-.97-1.21-1.68-2.47-2.13-3.76.45,1.29,1.16,2.55,2.13,3.76Z"/>
  <path class="cls-6" d="M129.46,117.85c-1.15-.2-2.28-.45-3.39-.73,1.11.28,2.24.53,3.39.73Z"/>
  <path class="cls-6" d="M111.39,108.98c-.05-.06-.1-.11-.15-.17.05.06.1.11.15.17Z"/>
  <path class="cls-6" d="M110.53,107.87c-.04-.05-.07-.11-.11-.16.04.05.07.11.11.16Z"/>
  <path class="cls-6" d="M109.92,106.89c-.04-.08-.09-.15-.13-.23.04.08.08.15.13.23Z"/>
  <path class="cls-6" d="M113.24,110.87s-.09-.08-.13-.12c.04.04.09.08.13.12Z"/>
  <path class="cls-6" d="M115.79,112.8c-.12-.08-.23-.15-.34-.23.11.08.23.15.34.23Z"/>
  <path class="cls-6" d="M114.56,111.94c-.1-.07-.2-.14-.29-.22.09.07.19.14.29.22Z"/>
  <path class="cls-6" d="M108.65,103.6c-.01-.06-.02-.11-.04-.17.01.06.02.11.04.17Z"/>
  <path class="cls-6" d="M109.32,105.71s0-.02-.01-.03c0,0,0,.02.01.03Z"/>
  <path class="cls-6" d="M112.06,109.73c.08.08.16.17.24.25-.08-.08-.16-.17-.24-.25Z"/>
  <path class="cls-6" d="M108.93,104.65c-.02-.05-.03-.1-.05-.16.02.05.03.11.05.16Z"/>
  <path class="cls-6" d="M177.94,63.6c-.01-.06-.02-.11-.04-.17.01.06.02.11.04.17Z"/>
  <path class="cls-6" d="M185.07,72.8c-.12-.08-.23-.15-.34-.23.11.08.23.15.34.23Z"/>
  <path class="cls-6" d="M181.34,69.73c.08.08.16.17.24.25-.08-.08-.16-.17-.24-.25Z"/>
  <path class="cls-6" d="M183.84,71.94c-.1-.07-.2-.14-.29-.22.09.07.19.14.29.22Z"/>
  <path class="cls-6" d="M178.61,65.71s-.01-.02-.01-.03c0,.01.01.02.01.03Z"/>
  <path class="cls-6" d="M180.67,68.99c-.05-.06-.1-.12-.15-.17.05.06.1.12.15.17Z"/>
  <path class="cls-6" d="M182.52,70.87s-.09-.08-.13-.12c.04.04.09.08.13.12Z"/>
  <path class="cls-6" d="M179.81,67.87c-.04-.05-.07-.11-.11-.16.04.05.07.11.11.16Z"/>
  <path class="cls-6" d="M179.2,66.89c-.04-.08-.09-.15-.13-.23.04.08.08.15.13.23Z"/>
  <path class="cls-6" d="M178.21,64.65c-.02-.05-.03-.11-.05-.16.02.05.03.11.05.16Z"/>
  <path class="cls-6" d="M247.3,104.01c-.2-.81-.3-1.62-.3-2.44h0c0,.81.1,1.63.3,2.44Z"/>
  <path class="cls-6" d="M247.54,104.82c-.06-.17-.1-.35-.15-.52.05.17.09.35.15.52Z"/>
  <path class="cls-6" d="M249.73,108.72c-.19-.24-.37-.48-.54-.72.17.24.35.48.54.72Z"/>
  <path class="cls-6" d="M249.15,107.96c-.68-.97-1.19-1.96-1.55-2.97.36,1.01.87,2,1.55,2.97Z"/>
  <path class="cls-6" d="M249.94,108.97c.35.42.72.83,1.13,1.23-.41-.4-.79-.81-1.13-1.23Z"/>
  <path class="cls-4" d="M354.05,77.85c-2.73.47-5.55.7-8.37.7,2.82,0,5.64-.23,8.37-.7Z"/>
  <path class="cls-4" d="M371.21,69.98c.08-.08.16-.17.24-.25-.08.08-.16.17-.24.25Z"/>
  <path class="cls-4" d="M369.24,71.72c-.09.07-.19.14-.29.22.1-.07.19-.14.29-.22Z"/>
  <path class="cls-4" d="M374.89,63.43c-.01.05-.02.11-.03.16.01-.05.02-.11.03-.16Z"/>
  <path class="cls-4" d="M374.2,65.68s0,.02-.01.03c0,0,0-.02.01-.03Z"/>
  <path class="cls-4" d="M374.63,64.5c-.02.05-.03.1-.04.15.02-.05.03-.1.04-.15Z"/>
  <path class="cls-4" d="M373.72,66.66c-.04.08-.08.15-.13.22.04-.07.08-.15.13-.22Z"/>
  <path class="cls-4" d="M370.4,70.76s-.08.08-.13.12c.04-.04.08-.08.13-.12Z"/>
  <path class="cls-4" d="M372.27,68.81c-.05.06-.1.11-.15.17.05-.06.1-.11.15-.17Z"/>
  <path class="cls-4" d="M373.09,67.71c-.04.05-.07.11-.1.16.04-.05.07-.11.1-.16Z"/>
  <path class="cls-4" d="M368.06,72.57c-.11.08-.23.15-.34.23.12-.08.23-.15.34-.23Z"/>
  <path class="cls-4" d="M298.78,32.57c-.11.08-.23.15-.34.23.12-.08.23-.15.34-.23Z"/>
  <path class="cls-4" d="M247.89,25.71s0-.02-.01-.03c0,0,0,.02.01.03Z"/>
  <path class="cls-4" d="M247.49,24.65c-.02-.05-.03-.1-.04-.15.02.05.03.1.04.15Z"/>
  <path class="cls-4" d="M299.95,31.72c-.09.07-.19.14-.29.22.1-.07.19-.14.29-.22Z"/>
  <path class="cls-4" d="M253.12,31.94c-.1-.07-.19-.14-.29-.22.09.07.19.14.29.22Z"/>
  <path class="cls-4" d="M251.8,30.87s-.09-.08-.13-.12c.04.04.09.08.13.12Z"/>
  <path class="cls-4" d="M249.09,27.87c-.04-.05-.07-.11-.1-.16.04.05.07.11.1.16Z"/>
  <path class="cls-4" d="M254.35,32.8c-.12-.08-.23-.15-.34-.23.11.08.23.15.34.23Z"/>
  <path class="cls-4" d="M248.48,26.88c-.04-.08-.09-.15-.13-.23.04.08.08.15.13.23Z"/>
  <path class="cls-4" d="M301.12,30.76s-.08.08-.13.12c.04-.04.08-.08.13-.12Z"/>
  <path class="cls-4" d="M247.22,23.6c-.01-.06-.02-.11-.03-.17.01.06.02.11.03.17Z"/>
  <path class="cls-4" d="M301.93,29.98c.08-.08.16-.17.24-.25-.08.08-.16.17-.24.25Z"/>
  <path class="cls-4" d="M305.34,24.5c-.02.05-.03.1-.04.15.02-.05.03-.1.04-.15Z"/>
  <path class="cls-4" d="M250.62,29.74c.08.08.16.17.24.25-.08-.08-.16-.16-.24-.25Z"/>
  <path class="cls-4" d="M302.99,28.81c-.05.06-.1.11-.15.17.05-.06.1-.11.15-.17Z"/>
  <path class="cls-4" d="M249.95,28.98c-.05-.06-.1-.11-.15-.17.05.06.1.11.15.17Z"/>
  <path class="cls-4" d="M303.8,27.71c-.04.05-.07.11-.1.16.04-.05.07-.11.1-.16Z"/>
  <path class="cls-4" d="M304.92,25.68s0,.02-.01.03c0,0,0-.02.01-.03Z"/>
  <path class="cls-4" d="M305.61,23.43c-.01.05-.02.11-.03.16.01-.05.02-.11.03-.16Z"/>
  <path class="cls-4" d="M304.44,26.66c-.04.08-.08.15-.13.22.04-.07.08-.15.13-.22Z"/>
  <path class="cls-5" d="M108.98,184.82c.63,1.87,1.8,3.69,3.53,5.38.49.48,1.03.95,1.61,1.41.58.46,1.21.9,1.88,1.33.34.21.68.43,1.04.63,3.59,2.07,7.87,3.49,12.42,4.27,3.64.62,7.44.83,11.19.62,1.05-.06,2.1-.16,3.14-.28,4.12-.49,8.07-1.5,11.59-3.02,1.12-.48,2.22-1,3.24-1.59.72-.41,1.39-.84,2.02-1.29.94-.67,1.78-1.36,2.52-2.09,0,0,.02-.02.02-.02.48-.47.92-.96,1.32-1.45.52-.64.95-1.3,1.32-1.97.21-.38.4-.75.56-1.14.11-.27.21-.53.3-.8.36-1.07.54-2.16.54-3.24v20c0,4.34-2.87,8.69-8.61,12-11.48,6.63-30.09,6.63-41.57,0-5.74-3.31-8.61-7.66-8.61-12v-20c0,.81.1,1.63.3,2.43.07.27.15.54.24.81Z"/>
  <path class="cls-5" d="M89.33,173.58c-11.48,6.63-30.09,6.63-41.57,0-5.74-3.31-8.61-7.66-8.61-12v-20c0,.62.07,1.24.18,1.85.01.06.02.11.03.17.06.3.14.6.23.9.02.05.03.1.05.16.11.35.24.69.38,1.03,0,.01.01.02.01.03.14.32.29.63.46.94.04.08.08.15.13.23.16.28.32.55.51.82.04.05.07.11.1.16.22.32.46.63.71.95.05.06.1.12.15.17.21.25.43.5.67.75.08.08.16.17.24.25.26.26.52.51.8.77.05.04.09.08.13.12.33.29.67.57,1.03.85.1.07.2.15.29.22.28.21.58.42.88.62.11.08.23.16.35.23.4.26.82.52,1.25.77,0,0,0,0,0,0,5.02,2.9,11.41,4.53,17.97,4.89,1.87.1,3.76.1,5.63,0,.94-.05,1.87-.13,2.8-.23,4.63-.52,9.09-1.68,12.94-3.49.77-.36,1.52-.75,2.23-1.16,1.24-.72,2.34-1.48,3.31-2.28.3-.25.59-.5.86-.75.64-.59,1.22-1.2,1.72-1.82.4-.5.76-1.01,1.08-1.53s.58-1.04.81-1.57.4-1.07.54-1.6c.13-.54.22-1.08.27-1.62.02-.27.03-.54.03-.81v20c0,4.34-2.87,8.69-8.61,12Z"/>
  <path class="cls-5" d="M178.07,144.18c.06.21.12.43.19.64.02.05.04.1.06.15.45,1.29,1.16,2.55,2.13,3.76.04.06.09.11.14.16.57.7,1.23,1.37,1.98,2.03,0,0,.01.01.02.02,1.07.93,2.32,1.82,3.74,2.64,2.87,1.66,6.19,2.9,9.72,3.73.88.21,1.78.39,2.69.54,3.61.62,7.39.82,11.11.62,1.09-.06,2.18-.16,3.26-.29,4.1-.49,8.04-1.5,11.54-3.01,1.12-.48,2.22-1,3.24-1.59,1.08-.62,2.05-1.28,2.93-1.97.31-.25.61-.5.9-.75.51-.45.99-.92,1.42-1.39.22-.25.44-.5.64-.75.81-1,1.43-2.04,1.88-3.11.11-.27.21-.53.3-.8.36-1.07.54-2.16.54-3.24v20c0,4.34-2.87,8.69-8.61,12-11.48,6.63-30.09,6.63-41.57,0-5.74-3.31-8.61-7.66-8.61-12v-20c0,.81.1,1.63.3,2.44.01.06.03.11.05.16Z"/>
  <path class="cls-5" d="M167.23,121.58c0,4.34-2.87,8.69-8.61,12-11.48,6.63-30.09,6.63-41.57,0-5.74-3.31-8.61-7.66-8.61-12v-20c0,.62.07,1.24.18,1.85.01.06.02.11.04.17.06.3.14.6.23.89.02.05.03.11.05.16.11.35.24.69.38,1.03,0,0,0,.02.01.03.14.32.3.63.47.95.04.08.08.15.13.23.16.27.32.55.51.82.04.05.07.11.11.16.22.32.46.63.71.95.05.06.1.11.15.17.21.25.44.5.67.75.08.08.16.17.24.25.26.26.53.52.81.77.04.04.09.08.13.12.33.29.67.57,1.04.85.09.07.19.14.29.22.28.21.58.42.88.63.11.08.23.15.34.23.41.27.82.53,1.26.78,2.68,1.55,5.75,2.72,9.02,3.54,1.11.28,2.24.53,3.39.73,1.82.31,3.68.52,5.55.62,1.87.1,3.76.1,5.63,0,6.56-.36,12.95-1.99,17.97-4.89,1.08-.62,2.05-1.28,2.93-1.97.29-.23.57-.46.84-.7,1.08-.94,1.97-1.93,2.69-2.95.18-.26.35-.51.5-.77.78-1.3,1.29-2.64,1.51-3.99.09-.54.13-1.08.13-1.63v20Z"/>
  <path class="cls-5" d="M236.51,81.58c0,4.34-2.87,8.69-8.61,12-11.48,6.63-30.09,6.63-41.57,0-5.74-3.31-8.61-7.66-8.61-12v-20c0,.62.07,1.24.18,1.85.01.06.02.11.04.17.06.3.14.6.23.89.02.05.03.11.05.16.11.35.23.69.38,1.03,0,.01.01.02.01.03.14.32.29.63.46.94.04.08.08.15.13.23.16.27.32.55.51.82.04.05.07.11.11.16.22.32.46.63.71.95.05.06.1.12.15.17.21.25.43.5.67.75.08.08.16.17.24.25.26.26.52.52.81.77.04.04.09.08.13.12.33.29.67.57,1.04.85.09.07.19.14.29.22.28.21.58.42.88.63.11.08.23.15.34.23.41.27.82.53,1.26.78,2.87,1.66,6.19,2.9,9.72,3.73.88.21,1.78.39,2.69.54,1.82.31,3.68.52,5.55.62,1.87.1,3.76.1,5.63,0,.94-.05,1.87-.13,2.8-.23,4.63-.52,9.09-1.68,12.94-3.49.77-.36,1.52-.75,2.23-1.16,1.43-.83,2.69-1.72,3.77-2.66.54-.47,1.03-.95,1.48-1.45.67-.74,1.24-1.5,1.72-2.28.63-1.04,1.08-2.1,1.35-3.18.13-.54.22-1.08.27-1.62.02-.27.03-.54.03-.81v20Z"/>
  <path class="cls-5" d="M247.39,104.3c.05.17.09.35.15.52.02.06.05.12.07.18.36,1.01.87,2,1.55,2.97.01.01.02.03.03.04.17.24.35.48.54.72.07.08.14.16.21.25.35.42.72.83,1.13,1.23,1.23,1.21,2.75,2.34,4.54,3.38,3.59,2.07,7.87,3.49,12.42,4.27,1.82.31,3.68.52,5.55.62,1.87.1,3.76.1,5.63,0,.94-.05,1.87-.13,2.8-.23,4.63-.52,9.09-1.68,12.94-3.49.77-.36,1.52-.75,2.23-1.16,1.43-.83,2.69-1.72,3.77-2.66.54-.47,1.03-.95,1.48-1.45.67-.74,1.24-1.5,1.72-2.28.63-1.04,1.08-2.1,1.35-3.18.13-.54.22-1.08.27-1.62.02-.27.03-.54.03-.81v20c0,4.34-2.87,8.69-8.61,12-11.48,6.63-30.09,6.63-41.57,0-5.74-3.31-8.61-7.66-8.61-12v-20c0,.81.1,1.63.3,2.44.02.09.06.19.08.28Z"/>
  <path class="cls-5" d="M375.07,81.58c0,4.34-2.87,8.69-8.61,12-11.48,6.63-30.09,6.63-41.57,0-5.74-3.31-8.61-7.66-8.61-12v-20c0,1.36.28,2.71.84,4.04.45,1.06,1.08,2.1,1.88,3.11,1.41,1.76,3.37,3.4,5.89,4.85,2.87,1.66,6.19,2.9,9.72,3.73,2.65.62,5.43,1.01,8.24,1.16.94.05,1.88.08,2.82.08,2.82,0,5.64-.23,8.37-.7,4.54-.78,8.83-2.2,12.42-4.27.44-.25.86-.52,1.26-.78.12-.08.23-.15.34-.23.3-.21.6-.42.88-.63.1-.07.19-.14.29-.22.36-.28.71-.56,1.04-.85.04-.04.08-.08.13-.12.28-.25.55-.51.81-.77.08-.08.16-.17.24-.25.24-.25.46-.5.67-.75.05-.06.1-.11.15-.17.26-.31.49-.63.71-.95.04-.05.07-.11.1-.16.18-.27.35-.55.51-.82.04-.07.08-.15.13-.22.17-.31.33-.63.47-.95,0,0,0-.02.01-.03.15-.34.27-.69.38-1.03.02-.05.03-.1.04-.15.09-.3.17-.6.23-.9.01-.05.02-.11.03-.16.12-.62.18-1.23.18-1.85v20Z"/>
  <path class="cls-5" d="M305.79,41.58c0,4.34-2.87,8.69-8.61,12-11.48,6.63-30.09,6.63-41.57,0-5.74-3.31-8.61-7.66-8.61-12v-20c0,.62.07,1.24.18,1.85.01.06.02.11.03.17.06.3.14.6.23.9.02.05.03.1.04.15.11.35.24.69.38,1.03,0,0,0,.02.01.03.14.32.3.63.47.95.04.08.08.15.13.23.16.28.33.55.51.82.04.05.07.11.1.16.22.32.46.64.71.95.05.06.1.11.15.17.21.25.44.5.67.75.08.08.16.17.24.25.26.26.53.52.81.77.04.04.09.08.13.12.33.29.67.57,1.04.85.09.07.19.14.29.22.28.21.58.42.88.63.11.08.23.15.34.23.41.27.82.53,1.26.78,2.87,1.66,6.19,2.9,9.72,3.73.88.21,1.78.39,2.69.54,1.82.31,3.68.52,5.55.62,8.43.47,17.15-1.16,23.6-4.89.44-.25.86-.52,1.26-.78.12-.08.23-.15.34-.23.3-.21.6-.42.88-.63.1-.07.19-.14.29-.22.36-.28.71-.56,1.04-.85.04-.04.08-.08.13-.12.28-.25.55-.51.81-.77.08-.08.16-.17.24-.25.24-.25.46-.5.67-.75.05-.06.1-.11.15-.17.26-.31.49-.63.71-.95.04-.05.07-.11.1-.16.18-.27.35-.55.51-.82.04-.07.08-.15.13-.22.17-.31.33-.63.47-.95,0,0,0-.02.01-.03.15-.34.27-.69.38-1.03.02-.05.03-.1.04-.15.09-.3.17-.6.23-.9.01-.05.02-.11.03-.16.12-.62.18-1.23.18-1.85v20Z"/>
</svg>