<?xml version="1.0" encoding="utf-8"?>
<!-- Generator: Adobe Illustrator 30.4.0, SVG Export Plug-In . SVG Version: 9.03 Build 0)  -->
<svg version="1.1" id="Layer_1" xmlns="http://www.w3.org/2000/svg" xmlns:xlink="http://www.w3.org/1999/xlink" x="0px" y="0px"
	 viewBox="0 0 1376.9799805 805" style="enable-background:new 0 0 1376.9799805 805;" xml:space="preserve">
<g>
	<polygon style="fill:#363639;" points="688.4899902,795 0,397.5 688.4899902,0 1376.9799805,397.5 	"/>
	<polygon style="fill:#2D292D;" points="688.4899902,805 0,407.5 0,397.5 688.4899902,795 	"/>
	<polygon style="fill:#322F32;" points="688.4899902,805 688.4899902,795 1376.9799805,397.5 1376.9799805,407.5 	"/>
	<g>
		<path style="fill:#2D292D;" d="M659.0999756,200.3300018v-20h58.789978v20l0,0c0,4.3399963-2.8699951,8.6900024-8.6099854,12
			c-11.4799805,6.6300049-30.0900269,6.6300049-41.5700073,0
			C661.9699707,209.0200043,659.0999756,204.6699982,659.0999756,200.3300018z"/>
		<path style="fill:#322F32;" d="M667.710022,192.3300018c11.4799805,6.6300049,30.0900269,6.6300049,41.5700073,0
			s11.4799805-17.3699951,0-24s-30.0900269-6.6300049-41.5700073,0S656.2300415,185.6999969,667.710022,192.3300018z"/>
	</g>
	<g>
		<path style="fill:#2D292D;" d="M659.0999756,120.6600037v-20h58.789978v20l0,0c0,4.3399963-2.8699951,8.6900024-8.6099854,12
			c-11.4799805,6.6300049-30.0900269,6.6300049-41.5700073,0C661.9699707,129.3500061,659.0999756,125,659.0999756,120.6600037z"/>
		<path style="fill:#322F32;" d="M667.710022,112.6699982c11.4799805,6.6299973,30.0900269,6.6299973,41.5700073,0
			s11.4799805-17.3700027,0-24s-30.0900269-6.6299973-41.5700073,0S656.2300415,106.0400009,667.710022,112.6699982z"/>
	</g>
	<g>
		<path style="fill:#2D292D;" d="M659.0999756,758v-20h58.789978v20l0,0c0,4.3400269-2.8699951,8.6900024-8.6099854,12
			c-11.4799805,6.6300049-30.0900269,6.6300049-41.5700073,0C661.9699707,766.6900024,659.0999756,762.3400269,659.0999756,758z"/>
		<path style="fill:#322F32;" d="M667.710022,750c11.4799805,6.6300049,30.0900269,6.6300049,41.5700073,0
			s11.4799805-17.3699951,0-24s-30.0900269-6.6300049-41.5700073,0S656.2300415,743.3699951,667.710022,750z"/>
	</g>
	<g>
		<path style="fill:#2D292D;" d="M659.0999756,598.6599731v-20h58.789978v20l0,0c0,4.3400269-2.8699951,8.6900024-8.6099854,12
			c-11.4799805,6.6300049-30.0900269,6.6300049-41.5700073,0C661.9699707,607.3499756,659.0999756,603,659.0999756,598.6599731z"/>
		<path style="fill:#322F32;" d="M667.710022,590.6599731c11.4799805,6.6300049,30.0900269,6.6300049,41.5700073,0
			s11.4799805-17.3699951,0-24s-30.0900269-6.6300049-41.5700073,0S656.2300415,584.0299683,667.710022,590.6599731z"/>
	</g>
	<g>
		<path style="fill:#2D292D;" d="M659.0999756,519v-20h58.789978v20l0,0c0,4.3400269-2.8699951,8.6900024-8.6099854,12
			c-11.4799805,6.6300049-30.0900269,6.6300049-41.5700073,0C661.9699707,527.6900024,659.0999756,523.3400269,659.0999756,519z"/>
		<path style="fill:#322F32;" d="M667.710022,511c11.4799805,6.6300049,30.0900269,6.6300049,41.5700073,0
			s11.4799805-17.3699951,0-24s-30.0900269-6.6300049-41.5700073,0S656.2300415,504.3699951,667.710022,511z"/>
	</g>
	<g>
		<path style="fill:#2D292D;" d="M659.0999756,439.3299866v-20h58.789978v20l0,0c0,4.3399963-2.8699951,8.6900024-8.6099854,12
			c-11.4799805,6.6300049-30.0900269,6.6300049-41.5700073,0
			C661.9699707,448.019989,659.0999756,443.6699829,659.0999756,439.3299866z"/>
		<path style="fill:#322F32;" d="M667.710022,431.3299866c11.4799805,6.6300049,30.0900269,6.6300049,41.5700073,0
			s11.4799805-17.3699951,0-24s-30.0900269-6.6300049-41.5700073,0S656.2300415,424.6999817,667.710022,431.3299866z"/>
	</g>
	<path style="fill:#2D292D;" d="M659.0999756,359.6600037v-20h58.789978v20l0,0c0,4.3399963-2.8699951,8.6900024-8.6099854,12
		c-11.4799805,6.6300049-30.0900269,6.6300049-41.5700073,0C661.9699707,368.3500061,659.0999756,364,659.0999756,359.6600037z"/>
	<g>
		<path style="fill:#2D292D;" d="M659.0999756,280v-20h58.789978v20l0,0c0,4.3399963-2.8699951,8.6900024-8.6099854,12
			c-11.4799805,6.6300049-30.0900269,6.6300049-41.5700073,0C661.9699707,288.6900024,659.0999756,284.3399963,659.0999756,280z"/>
		<path style="fill:#322F32;" d="M667.710022,272c11.4799805,6.6300049,30.0900269,6.6300049,41.5700073,0
			s11.4799805-17.3699951,0-24s-30.0900269-6.6300049-41.5700073,0S656.2300415,265.3699951,667.710022,272z"/>
	</g>
	<g>
		<path style="fill:#2D292D;" d="M521.1099854,200.3300018v-20h58.789978v20l0,0c0,4.3399963-2.8699951,8.6900024-8.6099854,12
			c-11.4799805,6.6300049-30.0900269,6.6300049-41.5700073,0
			C523.9799805,209.0200043,521.1099854,204.6699982,521.1099854,200.3300018z"/>
		<path style="fill:#322F32;" d="M529.7199707,192.3300018c11.4799805,6.6300049,30.0900269,6.6300049,41.5700073,0
			s11.4799805-17.3699951,0-24s-30.0900269-6.6300049-41.5700073,0S518.2399902,185.6999969,529.7199707,192.3300018z"/>
	</g>
	<g>
		<path style="fill:#2D292D;" d="M521.1099854,120.6600037v-20h58.789978v20l0,0c0,4.3399963-2.8699951,8.6900024-8.6099854,12
			c-11.4799805,6.6300049-30.0900269,6.6300049-41.5700073,0C523.9799805,129.3500061,521.1099854,125,521.1099854,120.6600037z"/>
		<path style="fill:#322F32;" d="M529.7199707,112.6699982c11.4799805,6.6299973,30.0900269,6.6299973,41.5700073,0
			s11.4799805-17.3700027,0-24s-30.0900269-6.6299973-41.5700073,0S518.2399902,106.0400009,529.7199707,112.6699982z"/>
	</g>
	<g>
		<path style="fill:#2D292D;" d="M521.1099854,678.3300171v-20h58.789978v20l0,0c0,4.3400269-2.8699951,8.6900024-8.6099854,12
			c-11.4799805,6.6300049-30.0900269,6.6300049-41.5700073,0
			C523.9799805,687.0200195,521.1099854,682.6700439,521.1099854,678.3300171z"/>
		<path style="fill:#322F32;" d="M529.7199707,670.3300171c11.4799805,6.6300049,30.0900269,6.6300049,41.5700073,0
			s11.4799805-17.3699951,0-24s-30.0900269-6.6300049-41.5700073,0S518.2399902,663.7000122,529.7199707,670.3300171z"/>
	</g>
	<g>
		<path style="fill:#2D292D;" d="M521.1099854,519v-20h58.789978v20l0,0c0,4.3400269-2.8699951,8.6900024-8.6099854,12
			c-11.4799805,6.6300049-30.0900269,6.6300049-41.5700073,0C523.9799805,527.6900024,521.1099854,523.3400269,521.1099854,519z"/>
		<path style="fill:#322F32;" d="M529.7199707,511c11.4799805,6.6300049,30.0900269,6.6300049,41.5700073,0
			s11.4799805-17.3699951,0-24s-30.0900269-6.6300049-41.5700073,0S518.2399902,504.3699951,529.7199707,511z"/>
	</g>
	<g>
		<path style="fill:#2D292D;" d="M521.1099854,439.3299866v-20h58.789978v20l0,0c0,4.3399963-2.8699951,8.6900024-8.6099854,12
			c-11.4799805,6.6300049-30.0900269,6.6300049-41.5700073,0
			C523.9799805,448.019989,521.1099854,443.6699829,521.1099854,439.3299866z"/>
		<path style="fill:#322F32;" d="M529.7199707,431.3299866c11.4799805,6.6300049,30.0900269,6.6300049,41.5700073,0
			s11.4799805-17.3699951,0-24s-30.0900269-6.6300049-41.5700073,0S518.2399902,424.6999817,529.7199707,431.3299866z"/>
	</g>
	<g>
		<path style="fill:#2D292D;" d="M521.1099854,359.6600037v-20h58.789978v20l0,0c0,4.3399963-2.8699951,8.6900024-8.6099854,12
			c-11.4799805,6.6300049-30.0900269,6.6300049-41.5700073,0C523.9799805,368.3500061,521.1099854,364,521.1099854,359.6600037z"/>
		<path style="fill:#322F32;" d="M529.7199707,351.6700134c11.4799805,6.6300049,30.0900269,6.6300049,41.5700073,0
			s11.4799805-17.3699951,0-24s-30.0900269-6.6300049-41.5700073,0S518.2399902,345.0400085,529.7199707,351.6700134z"/>
	</g>
	<g>
		<path style="fill:#2D292D;" d="M521.1099854,280v-20h58.789978v20l0,0c0,4.3399963-2.8699951,8.6900024-8.6099854,12
			c-11.4799805,6.6300049-30.0900269,6.6300049-41.5700073,0C523.9799805,288.6900024,521.1099854,284.3399963,521.1099854,280z"/>
		<path style="fill:#322F32;" d="M529.7199707,272c11.4799805,6.6300049,30.0900269,6.6300049,41.5700073,0
			s11.4799805-17.3699951,0-24s-30.0900269-6.6300049-41.5700073,0S518.2399902,265.3699951,529.7199707,272z"/>
	</g>
	<g>
		<path style="fill:#2D292D;" d="M383.1199951,200.3300018v-20h58.7900085v20l0,0c0,4.3399963-2.8699951,8.6900024-8.6099854,12
			c-11.480011,6.6300049-30.0899963,6.6300049-41.5700073,0c-5.7399902-3.3099976-8.6099854-7.6600037-8.6099854-12H383.1199951z"/>
		<path style="fill:#322F32;" d="M391.730011,192.3300018c11.480011,6.6300049,30.0899963,6.6300049,41.5700073,0
			s11.480011-17.3699951,0-24s-30.0899963-6.6300049-41.5700073,0S380.25,185.6999969,391.730011,192.3300018z"/>
	</g>
	<g>
		<path style="fill:#2D292D;" d="M383.1199951,598.6599731v-20h58.7900085v20l0,0c0,4.3400269-2.8699951,8.6900024-8.6099854,12
			c-11.480011,6.6300049-30.0899963,6.6300049-41.5700073,0c-5.7399902-3.3099976-8.6099854-7.6599731-8.6099854-12H383.1199951z"/>
		<path style="fill:#322F32;" d="M391.730011,590.6599731c11.480011,6.6300049,30.0899963,6.6300049,41.5700073,0
			s11.480011-17.3699951,0-24s-30.0899963-6.6300049-41.5700073,0S380.25,584.0299683,391.730011,590.6599731z"/>
	</g>
	<path style="fill:#2D292D;" d="M383.1199951,519v-20h58.7900085v20l0,0c0,4.3400269-2.8699951,8.6900024-8.6099854,12
		c-11.480011,6.6300049-30.0899963,6.6300049-41.5700073,0c-5.7399902-3.3099976-8.6099854-7.6599731-8.6099854-12H383.1199951z"/>
	<g>
		<path style="fill:#2D292D;" d="M383.1199951,439.3299866v-20h58.7900085v20l0,0c0,4.3399963-2.8699951,8.6900024-8.6099854,12
			c-11.480011,6.6300049-30.0899963,6.6300049-41.5700073,0c-5.7399902-3.3099976-8.6099854-7.6600037-8.6099854-12H383.1199951z"/>
		<path style="fill:#322F32;" d="M391.730011,431.3299866c11.480011,6.6300049,30.0899963,6.6300049,41.5700073,0
			s11.480011-17.3699951,0-24s-30.0899963-6.6300049-41.5700073,0S380.25,424.6999817,391.730011,431.3299866z"/>
	</g>
	<g>
		<path style="fill:#2D292D;" d="M383.1199951,359.6600037v-20h58.7900085v20l0,0c0,4.3399963-2.8699951,8.6900024-8.6099854,12
			c-11.480011,6.6300049-30.0899963,6.6300049-41.5700073,0c-5.7399902-3.3099976-8.6099854-7.6600037-8.6099854-12H383.1199951z"/>
		<path style="fill:#322F32;" d="M391.730011,351.6700134c11.480011,6.6300049,30.0899963,6.6300049,41.5700073,0
			s11.480011-17.3699951,0-24s-30.0899963-6.6300049-41.5700073,0S380.25,345.0400085,391.730011,351.6700134z"/>
	</g>
	<g>
		<path style="fill:#2D292D;" d="M383.1199951,280v-20h58.7900085v20l0,0c0,4.3399963-2.8699951,8.6900024-8.6099854,12
			c-11.480011,6.6300049-30.0899963,6.6300049-41.5700073,0c-5.7399902-3.3099976-8.6099854-7.6600037-8.6099854-12H383.1199951z"/>
		<path style="fill:#322F32;" d="M391.730011,272c11.480011,6.6300049,30.0899963,6.6300049,41.5700073,0s11.480011-17.3699951,0-24
			s-30.0899963-6.6300049-41.5700073,0S380.25,265.3699951,391.730011,272z"/>
	</g>
	<g>
		<path style="fill:#2D292D;" d="M245.1399994,519v-20h58.7899933v20l0,0c0,4.3400269-2.8699951,8.6900024-8.6099854,12
			c-11.480011,6.6300049-30.0899963,6.6300049-41.5700073,0C248.0099945,527.6900024,245.1399994,523.3400269,245.1399994,519z"/>
		<path style="fill:#322F32;" d="M253.7400055,511c11.4799957,6.6300049,30.0900116,6.6300049,41.5699921,0
			c11.480011-6.6300049,11.480011-17.3699951,0-24s-30.0899963-6.6300049-41.5700073,0
			c-11.4799957,6.6300049-11.4799957,17.3699951,0,24H253.7400055z"/>
	</g>
	<path style="fill:#2D292D;" d="M245.1399994,439.3299866v-20h58.7899933v20l0,0c0,4.3399963-2.8699951,8.6900024-8.6099854,12
		c-11.480011,6.6300049-30.0899963,6.6300049-41.5700073,0C248.0099945,448.019989,245.1399994,443.6699829,245.1399994,439.3299866
		z"/>
	<g>
		<path style="fill:#2D292D;" d="M245.1399994,359.6600037v-20h58.7899933v20l0,0c0,4.3399963-2.8699951,8.6900024-8.6099854,12
			c-11.480011,6.6300049-30.0899963,6.6300049-41.5700073,0C248.0099945,368.3500061,245.1399994,364,245.1399994,359.6600037z"/>
		<path style="fill:#322F32;" d="M253.7400055,351.6700134c11.4799957,6.6300049,30.0900116,6.6300049,41.5699921,0
			c11.480011-6.6300049,11.480011-17.3699951,0-24s-30.0899963-6.6300049-41.5700073,0
			c-11.4799957,6.6300049-11.4799957,17.3699951,0,24H253.7400055z"/>
	</g>
	<g>
		<path style="fill:#2D292D;" d="M245.1399994,280v-20h58.7899933v20l0,0c0,4.3399963-2.8699951,8.6900024-8.6099854,12
			c-11.480011,6.6300049-30.0899963,6.6300049-41.5700073,0C248.0099945,288.6900024,245.1399994,284.3399963,245.1399994,280z"/>
		<path style="fill:#322F32;" d="M253.7400055,272c11.4799957,6.6300049,30.0900116,6.6300049,41.5699921,0
			c11.480011-6.6300049,11.480011-17.3699951,0-24s-30.0899963-6.6300049-41.5700073,0
			c-11.4799957,6.6300049-11.4799957,17.3699951,0,24H253.7400055z"/>
	</g>
	<g>
		<path style="fill:#2D292D;" d="M107.1500015,439.3299866v-20h58.7900009v20l0,0c0,4.3399963-2.8699951,8.6900024-8.6100006,12
			c-11.4799957,6.6300049-30.0899963,6.6300049-41.5699997,0
			C110.0200043,448.019989,107.1500015,443.6699829,107.1500015,439.3299866z"/>
		<path style="fill:#322F32;" d="M115.7600021,431.3299866c11.4800034,6.6300049,30.090004,6.6300049,41.5699997,0
			s11.4799957-17.3699951,0-24s-30.0899963-6.6300049-41.5699997,0S104.2799988,424.6999817,115.7600021,431.3299866z"/>
	</g>
	<g>
		<path style="fill:#2D292D;" d="M107.1500015,359.6600037v-20h58.7900009v20l0,0c0,4.3399963-2.8699951,8.6900024-8.6100006,12
			c-11.4799957,6.6300049-30.0899963,6.6300049-41.5699997,0C110.0200043,368.3500061,107.1500015,364,107.1500015,359.6600037z"/>
		<path style="fill:#322F32;" d="M115.7600021,351.6700134c11.4800034,6.6300049,30.090004,6.6300049,41.5699997,0
			s11.4799957-17.3699951,0-24s-30.0899963-6.6300049-41.5699997,0S104.2799988,345.0400085,115.7600021,351.6700134z"/>
	</g>
	<g>
		<path style="fill:#2D292D;" d="M659.0999756,41V21h58.789978v20l0,0c0,4.3400002-2.8699951,8.6899986-8.6099854,12
			c-11.4799805,6.6300011-30.0900269,6.6300011-41.5700073,0C661.9699707,49.6899986,659.0999756,45.3400002,659.0999756,41z"/>
		<path style="fill:#322F32;" d="M667.710022,33c11.4799805,6.6300011,30.0900269,6.6300011,41.5700073,0
			s11.4799805-17.3700008,0-24s-30.0900269-6.6300001-41.5700073,0S656.2300415,26.3700008,667.710022,33z"/>
	</g>
	<g>
		<path style="fill:#2D292D;" d="M590.0999756,718.1599731v-20h58.789978v20l0,0c0,4.3400269-2.8699951,8.6900024-8.6099854,12
			c-11.4799805,6.6300049-30.0900269,6.6300049-41.5700073,0C592.9699707,726.8499756,590.0999756,722.5,590.0999756,718.1599731z"
			/>
		<path style="fill:#322F32;" d="M598.710022,710.1599731c11.4799805,6.6300049,30.0900269,6.6300049,41.5700073,0
			s11.4799805-17.3699951,0-24s-30.0900269-6.6300049-41.5700073,0S587.2300415,703.5299683,598.710022,710.1599731z"/>
	</g>
	<path style="fill:#2D292D;" d="M728.0900269,638.5v-20h58.789978v20l0,0c0,4.3400269-2.8699951,8.6900024-8.6099854,12
		c-11.4799805,6.6300049-30.0900269,6.6300049-41.5700073,0C730.960022,647.1900024,728.0900269,642.8400269,728.0900269,638.5z"/>
	<g>
		<path style="fill:#2D292D;" d="M728.0900269,558.8300171v-20h58.789978v20l0,0c0,4.3400269-2.8699951,8.6900024-8.6099854,12
			c-11.4799805,6.6300049-30.0900269,6.6300049-41.5700073,0
			C730.960022,567.5200195,728.0900269,563.1700439,728.0900269,558.8300171z"/>
		<path style="fill:#322F32;" d="M736.7000122,550.8300171c11.4799805,6.6300049,30.0900269,6.6300049,41.5700073,0
			s11.4799805-17.3699951,0-24s-30.0900269-6.6300049-41.5700073,0S725.2200317,544.2000122,736.7000122,550.8300171z"/>
	</g>
	<g>
		<path style="fill:#2D292D;" d="M728.0900269,479.1600037v-20h58.789978v20l0,0c0,4.3399963-2.8699951,8.6900024-8.6099854,12
			c-11.4799805,6.6300049-30.0900269,6.6300049-41.5700073,0C730.960022,487.8500061,728.0900269,483.5,728.0900269,479.1600037z"/>
		<path style="fill:#322F32;" d="M736.7000122,471.1700134c11.4799805,6.6300049,30.0900269,6.6300049,41.5700073,0
			s11.4799805-17.3699951,0-24s-30.0900269-6.6300049-41.5700073,0S725.2200317,464.5400085,736.7000122,471.1700134z"/>
	</g>
	<g>
		<path style="fill:#2D292D;" d="M728.0900269,399.5v-20h58.789978v20l0,0c0,4.3399963-2.8699951,8.6900024-8.6099854,12
			c-11.4799805,6.6300049-30.0900269,6.6300049-41.5700073,0C730.960022,408.1900024,728.0900269,403.8399963,728.0900269,399.5z"/>
		<path style="fill:#322F32;" d="M736.7000122,391.5c11.4799805,6.6300049,30.0900269,6.6300049,41.5700073,0
			s11.4799805-17.3699951,0-24s-30.0900269-6.6300049-41.5700073,0S725.2200317,384.8699951,736.7000122,391.5z"/>
	</g>
	<g>
		<path style="fill:#2D292D;" d="M728.0900269,319.8299866v-20h58.789978v20l0,0c0,4.3399963-2.8699951,8.6900024-8.6099854,12
			c-11.4799805,6.6300049-30.0900269,6.6300049-41.5700073,0
			C730.960022,328.519989,728.0900269,324.1699829,728.0900269,319.8299866z"/>
		<path style="fill:#322F32;" d="M736.7000122,311.8299866c11.4799805,6.6300049,30.0900269,6.6300049,41.5700073,0
			s11.4799805-17.3699951,0-24s-30.0900269-6.6300049-41.5700073,0S725.2200317,305.1999817,736.7000122,311.8299866z"/>
	</g>
	<g>
		<path style="fill:#2D292D;" d="M728.0900269,240.1600037v-20h58.789978v20l0,0c0,4.3399963-2.8699951,8.6900024-8.6099854,12
			c-11.4799805,6.6300049-30.0900269,6.6300049-41.5700073,0C730.960022,248.8500061,728.0900269,244.5,728.0900269,240.1600037z"/>
		<path style="fill:#322F32;" d="M736.7000122,232.1699982c11.4799805,6.6300049,30.0900269,6.6300049,41.5700073,0
			s11.4799805-17.3699951,0-24s-30.0900269-6.6300049-41.5700073,0S725.2200317,225.5399933,736.7000122,232.1699982z"/>
	</g>
	<g>
		<path style="fill:#2D292D;" d="M728.0900269,160.5v-20h58.789978v20l0,0c0,4.3399963-2.8699951,8.6900024-8.6099854,12
			c-11.4799805,6.6300049-30.0900269,6.6300049-41.5700073,0C730.960022,169.1900024,728.0900269,164.8399963,728.0900269,160.5z"/>
		<path style="fill:#322F32;" d="M736.7000122,152.5c11.4799805,6.6300049,30.0900269,6.6300049,41.5700073,0
			s11.4799805-17.3699951,0-24c-11.4799805-6.6299973-30.0900269-6.6299973-41.5700073,0
			C725.2200317,135.1300049,725.2200317,145.8699951,736.7000122,152.5z"/>
	</g>
	<g>
		<path style="fill:#2D292D;" d="M728.0900269,80.8300018v-20h58.789978v20l0,0c0,4.3399963-2.8699951,8.6900024-8.6099854,12
			c-11.4799805,6.6299973-30.0900269,6.6299973-41.5700073,0C730.960022,89.5200043,728.0900269,85.1699982,728.0900269,80.8300018z
			"/>
		<path style="fill:#322F32;" d="M736.7000122,72.8300018c11.4799805,6.6299973,30.0900269,6.6299973,41.5700073,0
			s11.4799805-17.3700027,0-24s-30.0900269-6.6300011-41.5700073,0S725.2200317,66.2000046,736.7000122,72.8300018z"/>
	</g>
	<g>
		<path style="fill:#2D292D;" d="M590.0999756,558.8300171v-20h58.789978v20l0,0c0,4.3400269-2.8699951,8.6900024-8.6099854,12
			c-11.4799805,6.6300049-30.0900269,6.6300049-41.5700073,0
			C592.9699707,567.5200195,590.0999756,563.1700439,590.0999756,558.8300171z"/>
		<path style="fill:#322F32;" d="M598.710022,550.8300171c11.4799805,6.6300049,30.0900269,6.6300049,41.5700073,0
			s11.4799805-17.3699951,0-24s-30.0900269-6.6300049-41.5700073,0S587.2300415,544.2000122,598.710022,550.8300171z"/>
	</g>
	<g>
		<path style="fill:#2D292D;" d="M590.0999756,479.1600037v-20h58.789978v20l0,0c0,4.3399963-2.8699951,8.6900024-8.6099854,12
			c-11.4799805,6.6300049-30.0900269,6.6300049-41.5700073,0C592.9699707,487.8500061,590.0999756,483.5,590.0999756,479.1600037z"
			/>
		<path style="fill:#322F32;" d="M598.710022,471.1700134c11.4799805,6.6300049,30.0900269,6.6300049,41.5700073,0
			s11.4799805-17.3699951,0-24s-30.0900269-6.6300049-41.5700073,0S587.2300415,464.5400085,598.710022,471.1700134z"/>
	</g>
	<g>
		<path style="fill:#2D292D;" d="M590.0999756,399.5v-20h58.789978v20l0,0c0,4.3399963-2.8699951,8.6900024-8.6099854,12
			c-11.4799805,6.6300049-30.0900269,6.6300049-41.5700073,0C592.9699707,408.1900024,590.0999756,403.8399963,590.0999756,399.5z"
			/>
		<path style="fill:#322F32;" d="M598.710022,391.5c11.4799805,6.6300049,30.0900269,6.6300049,41.5700073,0
			s11.4799805-17.3699951,0-24s-30.0900269-6.6300049-41.5700073,0S587.2300415,384.8699951,598.710022,391.5z"/>
	</g>
	<g>
		<path style="fill:#2D292D;" d="M590.0999756,319.8299866v-20h58.789978v20l0,0c0,4.3399963-2.8699951,8.6900024-8.6099854,12
			c-11.4799805,6.6300049-30.0900269,6.6300049-41.5700073,0
			C592.9699707,328.519989,590.0999756,324.1699829,590.0999756,319.8299866z"/>
		<path style="fill:#322F32;" d="M598.710022,311.8299866c11.4799805,6.6300049,30.0900269,6.6300049,41.5700073,0
			s11.4799805-17.3699951,0-24s-30.0900269-6.6300049-41.5700073,0S587.2300415,305.1999817,598.710022,311.8299866z"/>
	</g>
	<g>
		<path style="fill:#2D292D;" d="M590.0999756,240.1600037v-20h58.789978v20l0,0c0,4.3399963-2.8699951,8.6900024-8.6099854,12
			c-11.4799805,6.6300049-30.0900269,6.6300049-41.5700073,0C592.9699707,248.8500061,590.0999756,244.5,590.0999756,240.1600037z"
			/>
		<path style="fill:#322F32;" d="M598.710022,232.1699982c11.4799805,6.6300049,30.0900269,6.6300049,41.5700073,0
			s11.4799805-17.3699951,0-24s-30.0900269-6.6300049-41.5700073,0S587.2300415,225.5399933,598.710022,232.1699982z"/>
	</g>
	<g>
		<path style="fill:#2D292D;" d="M590.0999756,160.5v-20h58.789978v20l0,0c0,4.3399963-2.8699951,8.6900024-8.6099854,12
			c-11.4799805,6.6300049-30.0900269,6.6300049-41.5700073,0C592.9699707,169.1900024,590.0999756,164.8399963,590.0999756,160.5z"
			/>
		<path style="fill:#322F32;" d="M598.710022,152.5c11.4799805,6.6300049,30.0900269,6.6300049,41.5700073,0
			s11.4799805-17.3699951,0-24c-11.4799805-6.6299973-30.0900269-6.6299973-41.5700073,0
			C587.2300415,135.1300049,587.2300415,145.8699951,598.710022,152.5z"/>
	</g>
	<g>
		<path style="fill:#2D292D;" d="M590.0999756,80.8300018v-20h58.789978v20l0,0c0,4.3399963-2.8699951,8.6900024-8.6099854,12
			c-11.4799805,6.6299973-30.0900269,6.6299973-41.5700073,0C592.9699707,89.5200043,590.0999756,85.1699982,590.0999756,80.8300018
			z"/>
		<path style="fill:#322F32;" d="M598.710022,72.8300018c11.4799805,6.6299973,30.0900269,6.6299973,41.5700073,0
			s11.4799805-17.3700027,0-24s-30.0900269-6.6300011-41.5700073,0S587.2300415,66.2000046,598.710022,72.8300018z"/>
	</g>
	<g>
		<path style="fill:#2D292D;" d="M452.1199951,638.5v-20h58.7900085v20l0,0c0,4.3400269-2.8699951,8.6900024-8.6099854,12
			c-11.480011,6.6300049-30.0899963,6.6300049-41.5700073,0c-5.7399902-3.3099976-8.6099854-7.6599731-8.6099854-12H452.1199951z"/>
		<path style="fill:#322F32;" d="M460.7200012,630.5c11.480011,6.6300049,30.0899963,6.6300049,41.5700073,0
			s11.480011-17.3699951,0-24s-30.0899963-6.6300049-41.5700073,0S449.2399902,623.8699951,460.7200012,630.5z"/>
	</g>
	<path style="fill:#2D292D;" d="M452.1199951,558.8300171v-20h58.7900085v20l0,0c0,4.3400269-2.8699951,8.6900024-8.6099854,12
		c-11.480011,6.6300049-30.0899963,6.6300049-41.5700073,0c-5.7399902-3.3099976-8.6099854-7.6599731-8.6099854-12H452.1199951z"/>
	<g>
		<path style="fill:#2D292D;" d="M452.1199951,479.1600037v-20h58.7900085v20l0,0c0,4.3399963-2.8699951,8.6900024-8.6099854,12
			c-11.480011,6.6300049-30.0899963,6.6300049-41.5700073,0c-5.7399902-3.3099976-8.6099854-7.6600037-8.6099854-12H452.1199951z"/>
		<path style="fill:#322F32;" d="M460.7200012,471.1700134c11.480011,6.6300049,30.0899963,6.6300049,41.5700073,0
			s11.480011-17.3699951,0-24s-30.0899963-6.6300049-41.5700073,0S449.2399902,464.5400085,460.7200012,471.1700134z"/>
	</g>
	<g>
		<path style="fill:#2D292D;" d="M452.1199951,399.5v-20h58.7900085v20l0,0c0,4.3399963-2.8699951,8.6900024-8.6099854,12
			c-11.480011,6.6300049-30.0899963,6.6300049-41.5700073,0c-5.7399902-3.3099976-8.6099854-7.6600037-8.6099854-12H452.1199951z"/>
		<path style="fill:#322F32;" d="M460.7200012,391.5c11.480011,6.6300049,30.0899963,6.6300049,41.5700073,0
			s11.480011-17.3699951,0-24s-30.0899963-6.6300049-41.5700073,0S449.2399902,384.8699951,460.7200012,391.5z"/>
	</g>
	<g>
		<path style="fill:#2D292D;" d="M452.1199951,319.8299866v-20h58.7900085v20l0,0c0,4.3399963-2.8699951,8.6900024-8.6099854,12
			c-11.480011,6.6300049-30.0899963,6.6300049-41.5700073,0c-5.7399902-3.3099976-8.6099854-7.6600037-8.6099854-12H452.1199951z"/>
		<path style="fill:#322F32;" d="M460.7200012,311.8299866c11.480011,6.6300049,30.0899963,6.6300049,41.5700073,0
			s11.480011-17.3699951,0-24s-30.0899963-6.6300049-41.5700073,0S449.2399902,305.1999817,460.7200012,311.8299866z"/>
	</g>
	<g>
		<path style="fill:#2D292D;" d="M452.1199951,240.1600037v-20h58.7900085v20l0,0c0,4.3399963-2.8699951,8.6900024-8.6099854,12
			c-11.480011,6.6300049-30.0899963,6.6300049-41.5700073,0c-5.7399902-3.3099976-8.6099854-7.6600037-8.6099854-12H452.1199951z"/>
		<path style="fill:#322F32;" d="M460.7200012,232.1699982c11.480011,6.6300049,30.0899963,6.6300049,41.5700073,0
			s11.480011-17.3699951,0-24s-30.0899963-6.6300049-41.5700073,0S449.2399902,225.5399933,460.7200012,232.1699982z"/>
	</g>
	<g>
		<path style="fill:#2D292D;" d="M452.1199951,160.5v-20h58.7900085v20l0,0c0,4.3399963-2.8699951,8.6900024-8.6099854,12
			c-11.480011,6.6300049-30.0899963,6.6300049-41.5700073,0c-5.7399902-3.3099976-8.6099854-7.6600037-8.6099854-12H452.1199951z"/>
		<path style="fill:#322F32;" d="M460.7200012,152.5c11.480011,6.6300049,30.0899963,6.6300049,41.5700073,0
			s11.480011-17.3699951,0-24c-11.480011-6.6299973-30.0899963-6.6299973-41.5700073,0
			C449.2399902,135.1300049,449.2399902,145.8699951,460.7200012,152.5z"/>
	</g>
	<g>
		<path style="fill:#2D292D;" d="M314.1300049,558.8300171v-20h58.7900085v20l0,0c0,4.3400269-2.8699951,8.6900024-8.6099854,12
			c-11.480011,6.6300049-30.0899963,6.6300049-41.5700073,0c-5.7399902-3.3099976-8.6099854-7.6599731-8.6099854-12H314.1300049z"/>
		<path style="fill:#322F32;" d="M322.7399902,550.8300171c11.480011,6.6300049,30.0899963,6.6300049,41.5700073,0
			s11.480011-17.3699951,0-24s-30.0899963-6.6300049-41.5700073,0S311.2599792,544.2000122,322.7399902,550.8300171z"/>
	</g>
	<path style="fill:#2D292D;" d="M314.1300049,479.1600037v-20h58.7900085v20l0,0c0,4.3399963-2.8699951,8.6900024-8.6099854,12
		c-11.480011,6.6300049-30.0899963,6.6300049-41.5700073,0c-5.7399902-3.3099976-8.6099854-7.6600037-8.6099854-12H314.1300049z"/>
	<g>
		<path style="fill:#2D292D;" d="M314.1300049,399.5v-20h58.7900085v20l0,0c0,4.3399963-2.8699951,8.6900024-8.6099854,12
			c-11.480011,6.6300049-30.0899963,6.6300049-41.5700073,0c-5.7399902-3.3099976-8.6099854-7.6600037-8.6099854-12H314.1300049z"/>
		<path style="fill:#322F32;" d="M322.7399902,391.5c11.480011,6.6300049,30.0899963,6.6300049,41.5700073,0
			s11.480011-17.3699951,0-24s-30.0899963-6.6300049-41.5700073,0S311.2599792,384.8699951,322.7399902,391.5z"/>
	</g>
	<g>
		<path style="fill:#2D292D;" d="M314.1300049,319.8299866v-20h58.7900085v20l0,0c0,4.3399963-2.8699951,8.6900024-8.6099854,12
			c-11.480011,6.6300049-30.0899963,6.6300049-41.5700073,0c-5.7399902-3.3099976-8.6099854-7.6600037-8.6099854-12H314.1300049z"/>
		<path style="fill:#322F32;" d="M322.7399902,311.8299866c11.480011,6.6300049,30.0899963,6.6300049,41.5700073,0
			s11.480011-17.3699951,0-24s-30.0899963-6.6300049-41.5700073,0S311.2599792,305.1999817,322.7399902,311.8299866z"/>
	</g>
	<g>
		<path style="fill:#2D292D;" d="M314.1300049,240.1600037v-20h58.7900085v20l0,0c0,4.3399963-2.8699951,8.6900024-8.6099854,12
			c-11.480011,6.6300049-30.0899963,6.6300049-41.5700073,0c-5.7399902-3.3099976-8.6099854-7.6600037-8.6099854-12H314.1300049z"/>
		<path style="fill:#322F32;" d="M322.7399902,232.1699982c11.480011,6.6300049,30.0899963,6.6300049,41.5700073,0
			s11.480011-17.3699951,0-24s-30.0899963-6.6300049-41.5700073,0S311.2599792,225.5399933,322.7399902,232.1699982z"/>
	</g>
	<g>
		<path style="fill:#2D292D;" d="M176.1399994,479.1600037v-20h58.7899933v20l0,0c0,4.3399963-2.8699951,8.6900024-8.6100006,12
			c-11.4799957,6.6300049-30.0899963,6.6300049-41.5699921,0C179.0099945,487.8500061,176.1399994,483.5,176.1399994,479.1600037z"
			/>
		<path style="fill:#322F32;" d="M184.75,471.1700134c11.4799957,6.6300049,30.0899963,6.6300049,41.5700073,0
			c11.4799957-6.6300049,11.4799957-17.3699951,0-24s-30.0899963-6.6300049-41.5700073,0
			C173.2700043,453.8000183,173.2700043,464.5400085,184.75,471.1700134z"/>
	</g>
	<g>
		<path style="fill:#2D292D;" d="M176.1399994,399.5v-20h58.7899933v20l0,0c0,4.3399963-2.8699951,8.6900024-8.6100006,12
			c-11.4799957,6.6300049-30.0899963,6.6300049-41.5699921,0C179.0099945,408.1900024,176.1399994,403.8399963,176.1399994,399.5z"
			/>
		<path style="fill:#322F32;" d="M184.75,391.5c11.4799957,6.6300049,30.0899963,6.6300049,41.5700073,0
			c11.4799957-6.6300049,11.4799957-17.3699951,0-24s-30.0899963-6.6300049-41.5700073,0
			C173.2700043,374.1300049,173.2700043,384.8699951,184.75,391.5z"/>
	</g>
	<g>
		<path style="fill:#2D292D;" d="M38.1599998,399.5v-20h58.7899971v20l0,0c0,4.3399963-2.8700027,8.6900024-8.6100006,12
			c-11.4799957,6.6300049-30.0900002,6.6300049-41.5699997,0C41.0299988,408.1900024,38.159996,403.8399963,38.1599998,399.5z"/>
		<path style="fill:#322F32;" d="M46.7700005,391.5c11.4799995,6.6300049,30.0900002,6.6300049,41.5699959,0
			s11.4799957-17.3699951,0-24s-30.0900002-6.6300049-41.5699997,0S35.2899971,384.8699951,46.7700005,391.5z"/>
	</g>
	<g>
		<path style="fill:#2D292D;" d="M176.1399994,319.8299866v-20h58.7899933v20l0,0c0,4.3399963-2.8699951,8.6900024-8.6100006,12
			c-11.4799957,6.6300049-30.0899963,6.6300049-41.5699921,0
			C179.0099945,328.519989,176.1399994,324.1699829,176.1399994,319.8299866z"/>
		<path style="fill:#322F32;" d="M184.75,311.8299866c11.4799957,6.6300049,30.0899963,6.6300049,41.5700073,0
			c11.4799957-6.6300049,11.4799957-17.3699951,0-24s-30.0899963-6.6300049-41.5700073,0
			C173.2700043,294.4599915,173.2700043,305.1999817,184.75,311.8299866z"/>
	</g>
	<g>
		<path style="fill:#2D292D;" d="M797.0800171,678.3300171v-20h58.789978v20l0,0c0,4.3400269-2.8699951,8.6900024-8.6099854,12
			c-11.4799805,6.6300049-30.0900269,6.6300049-41.5700073,0
			C799.9500122,687.0200195,797.0800171,682.6700439,797.0800171,678.3300171z"/>
		<path style="fill:#322F32;" d="M805.6900024,670.3300171c11.4799805,6.6300049,30.0900269,6.6300049,41.5700073,0
			s11.4799805-17.3699951,0-24s-30.0900269-6.6300049-41.5700073,0S794.210022,663.7000122,805.6900024,670.3300171z"/>
	</g>
	<g>
		<path style="fill:#2D292D;" d="M866.0700073,638.5v-20h58.789978v20l0,0c0,4.3400269-2.8699951,8.6900024-8.6099854,12
			c-11.4799805,6.6300049-30.0900269,6.6300049-41.5700073,0C868.9400024,647.1900024,866.0700073,642.8400269,866.0700073,638.5z"
			/>
		<path style="fill:#322F32;" d="M874.6799927,630.5c11.4799805,6.6300049,30.0900269,6.6300049,41.5700073,0
			s11.4799805-17.3699951,0-24s-30.0900269-6.6300049-41.5700073,0S863.2000122,623.8699951,874.6799927,630.5z"/>
	</g>
	<path style="fill:#2D292D;" d="M866.0700073,558.8300171v-20h58.789978v20l0,0c0,4.3400269-2.8699951,8.6900024-8.6099854,12
		c-11.4799805,6.6300049-30.0900269,6.6300049-41.5700073,0
		C868.9400024,567.5200195,866.0700073,563.1700439,866.0700073,558.8300171z"/>
	<g>
		<path style="fill:#2D292D;" d="M866.0700073,479.1600037v-20h58.789978v20l0,0c0,4.3399963-2.8699951,8.6900024-8.6099854,12
			c-11.4799805,6.6300049-30.0900269,6.6300049-41.5700073,0C868.9400024,487.8500061,866.0700073,483.5,866.0700073,479.1600037z"
			/>
		<path style="fill:#322F32;" d="M874.6799927,471.1700134c11.4799805,6.6300049,30.0900269,6.6300049,41.5700073,0
			s11.4799805-17.3699951,0-24s-30.0900269-6.6300049-41.5700073,0S863.2000122,464.5400085,874.6799927,471.1700134z"/>
	</g>
	<g>
		<path style="fill:#2D292D;" d="M866.0700073,399.5v-20h58.789978v20l0,0c0,4.3399963-2.8699951,8.6900024-8.6099854,12
			c-11.4799805,6.6300049-30.0900269,6.6300049-41.5700073,0C868.9400024,408.1900024,866.0700073,403.8399963,866.0700073,399.5z"
			/>
		<path style="fill:#322F32;" d="M874.6799927,391.5c11.4799805,6.6300049,30.0900269,6.6300049,41.5700073,0
			s11.4799805-17.3699951,0-24s-30.0900269-6.6300049-41.5700073,0S863.2000122,384.8699951,874.6799927,391.5z"/>
	</g>
	<g>
		<path style="fill:#2D292D;" d="M866.0700073,319.8299866v-20h58.789978v20l0,0c0,4.3399963-2.8699951,8.6900024-8.6099854,12
			c-11.4799805,6.6300049-30.0900269,6.6300049-41.5700073,0
			C868.9400024,328.519989,866.0700073,324.1699829,866.0700073,319.8299866z"/>
		<path style="fill:#322F32;" d="M874.6799927,311.8299866c11.4799805,6.6300049,30.0900269,6.6300049,41.5700073,0
			s11.4799805-17.3699951,0-24s-30.0900269-6.6300049-41.5700073,0S863.2000122,305.1999817,874.6799927,311.8299866z"/>
	</g>
	<g>
		<path style="fill:#2D292D;" d="M866.0700073,240.1600037v-20h58.789978v20l0,0c0,4.3399963-2.8699951,8.6900024-8.6099854,12
			c-11.4799805,6.6300049-30.0900269,6.6300049-41.5700073,0C868.9400024,248.8500061,866.0700073,244.5,866.0700073,240.1600037z"
			/>
		<path style="fill:#322F32;" d="M874.6799927,232.1699982c11.4799805,6.6300049,30.0900269,6.6300049,41.5700073,0
			s11.4799805-17.3699951,0-24s-30.0900269-6.6300049-41.5700073,0S863.2000122,225.5399933,874.6799927,232.1699982z"/>
	</g>
	<g>
		<path style="fill:#2D292D;" d="M866.0700073,160.5v-20h58.789978v20l0,0c0,4.3399963-2.8699951,8.6900024-8.6099854,12
			c-11.4799805,6.6300049-30.0900269,6.6300049-41.5700073,0C868.9400024,169.1900024,866.0700073,164.8399963,866.0700073,160.5z"
			/>
		<path style="fill:#322F32;" d="M874.6799927,152.5c11.4799805,6.6300049,30.0900269,6.6300049,41.5700073,0
			s11.4799805-17.3699951,0-24c-11.4799805-6.6299973-30.0900269-6.6299973-41.5700073,0
			C863.2000122,135.1300049,863.2000122,145.8699951,874.6799927,152.5z"/>
	</g>
	<g>
		<path style="fill:#2D292D;" d="M935.0700073,598.6599731v-20h58.789978v20l0,0c0,4.3400269-2.8699951,8.6900024-8.6099854,12
			c-11.4799805,6.6300049-30.0900269,6.6300049-41.5700073,0C937.9400024,607.3499756,935.0700073,603,935.0700073,598.6599731z"/>
		<path style="fill:#322F32;" d="M943.6799927,590.6699829c11.4799805,6.6300049,30.0900269,6.6300049,41.5700073,0
			s11.4799805-17.3699951,0-24s-30.0900269-6.6300049-41.5700073,0S932.2000122,584.039978,943.6799927,590.6699829z"/>
	</g>
	<g>
		<path style="fill:#2D292D;" d="M1004.0599976,558.8300171v-20h58.789978v20l0,0c0,4.3400269-2.8699951,8.6900024-8.6099854,12
			c-11.4799805,6.6300049-30.0899658,6.6300049-41.5700073,0
			C1006.9299927,567.5200195,1004.0599976,563.1700439,1004.0599976,558.8300171z"/>
		<path style="fill:#322F32;" d="M1012.6699829,550.8300171c11.4800415,6.6300049,30.0900269,6.6300049,41.5700073,0
			s11.4799805-17.3699951,0-24s-30.0899658-6.6300049-41.5700073,0
			C1001.1900024,533.460022,1001.1900024,544.2000122,1012.6699829,550.8300171z"/>
	</g>
	<path style="fill:#2D292D;" d="M1004.0599976,479.1600037v-20h58.789978v20l0,0c0,4.3399963-2.8699951,8.6900024-8.6099854,12
		c-11.4799805,6.6300049-30.0899658,6.6300049-41.5700073,0C1006.9299927,487.8500061,1004.0599976,483.5,1004.0599976,479.1600037z
		"/>
	<g>
		<path style="fill:#2D292D;" d="M1004.0599976,399.5v-20h58.789978v20l0,0c0,4.3399963-2.8699951,8.6900024-8.6099854,12
			c-11.4799805,6.6300049-30.0899658,6.6300049-41.5700073,0C1006.9299927,408.1900024,1004.0599976,403.8399963,1004.0599976,399.5
			z"/>
		<path style="fill:#322F32;" d="M1012.6699829,391.5c11.4800415,6.6300049,30.0900269,6.6300049,41.5700073,0
			s11.4799805-17.3699951,0-24s-30.0899658-6.6300049-41.5700073,0
			C1001.1900024,374.1300049,1001.1900024,384.8699951,1012.6699829,391.5z"/>
	</g>
	<g>
		<path style="fill:#2D292D;" d="M1004.0599976,319.8299866v-20h58.789978v20l0,0c0,4.3399963-2.8699951,8.6900024-8.6099854,12
			c-11.4799805,6.6300049-30.0899658,6.6300049-41.5700073,0
			C1006.9299927,328.519989,1004.0599976,324.1699829,1004.0599976,319.8299866z"/>
		<path style="fill:#322F32;" d="M1012.6699829,311.8299866c11.4800415,6.6300049,30.0900269,6.6300049,41.5700073,0
			s11.4799805-17.3699951,0-24s-30.0899658-6.6300049-41.5700073,0
			C1001.1900024,294.4599915,1001.1900024,305.1999817,1012.6699829,311.8299866z"/>
	</g>
	<g>
		<path style="fill:#2D292D;" d="M1004.0599976,240.1699982v-20h58.789978v20l0,0c0,4.3399963-2.8699951,8.6900024-8.6099854,12
			c-11.4799805,6.6299896-30.0899658,6.6299896-41.5700073,0
			C1006.9299927,248.8600006,1004.0599976,244.5099945,1004.0599976,240.1699982z"/>
		<path style="fill:#322F32;" d="M1012.6699829,232.1699982c11.4800415,6.6300049,30.0900269,6.6300049,41.5700073,0
			s11.4799805-17.3699951,0-24s-30.0899658-6.6300049-41.5700073,0
			C1001.1900024,214.8000031,1001.1900024,225.5399933,1012.6699829,232.1699982z"/>
	</g>
	<g>
		<path style="fill:#2D292D;" d="M1073.0500488,519v-20h58.7900391v20l0,0c0,4.3400269-2.8699951,8.6900024-8.6099854,12
			c-11.4799805,6.6300049-30.0899658,6.6300049-41.5699463,0c-5.7399902-3.3099976-8.6099854-7.6599731-8.6099854-12H1073.0500488z"
			/>
		<path style="fill:#322F32;" d="M1081.6600342,511c11.4799805,6.6300049,30.0899658,6.6300049,41.5699463,0
			s11.4799805-17.3699951,0-24s-30.0899658-6.6300049-41.5699463,0S1070.1800537,504.3699951,1081.6600342,511z"/>
	</g>
	<path style="fill:#2D292D;" d="M1073.0500488,439.3299866v-20h58.7900391v20l0,0c0,4.3399963-2.8699951,8.6900024-8.6099854,12
		c-11.4799805,6.6300049-30.0899658,6.6300049-41.5699463,0c-5.7399902-3.3099976-8.6099854-7.6600037-8.6099854-12H1073.0500488z"
		/>
	<g>
		<path style="fill:#2D292D;" d="M1073.0500488,359.6600037v-20h58.7900391v20l0,0c0,4.3399963-2.8699951,8.6900024-8.6099854,12
			c-11.4799805,6.6300049-30.0899658,6.6300049-41.5699463,0c-5.7399902-3.3099976-8.6099854-7.6600037-8.6099854-12H1073.0500488z"
			/>
		<path style="fill:#322F32;" d="M1081.6600342,351.6700134c11.4799805,6.6300049,30.0899658,6.6300049,41.5699463,0
			s11.4799805-17.3699951,0-24s-30.0899658-6.6300049-41.5699463,0S1070.1800537,345.0400085,1081.6600342,351.6700134z"/>
	</g>
	<g>
		<path style="fill:#2D292D;" d="M1073.0500488,280v-20h58.7900391v20l0,0c0,4.3399963-2.8699951,8.6900024-8.6099854,12
			c-11.4799805,6.6300049-30.0899658,6.6300049-41.5699463,0c-5.7399902-3.3099976-8.6099854-7.6600037-8.6099854-12H1073.0500488z"
			/>
		<path style="fill:#322F32;" d="M1081.6600342,272c11.4799805,6.6300049,30.0899658,6.6300049,41.5699463,0
			s11.4799805-17.3699951,0-24s-30.0899658-6.6300049-41.5699463,0S1070.1800537,265.3699951,1081.6600342,272z"/>
	</g>
	<path style="fill:#2D292D;" d="M935.0700073,519v-20h58.789978v20l0,0c0,4.3400269-2.8699951,8.6900024-8.6099854,12
		c-11.4799805,6.6300049-30.0900269,6.6300049-41.5700073,0C937.9400024,527.6900024,935.0700073,523.3400269,935.0700073,519z"/>
	<g>
		<path style="fill:#2D292D;" d="M935.0700073,439.3299866v-20h58.789978v20l0,0c0,4.3399963-2.8699951,8.6900024-8.6099854,12
			c-11.4799805,6.6300049-30.0900269,6.6300049-41.5700073,0
			C937.9400024,448.019989,935.0700073,443.6699829,935.0700073,439.3299866z"/>
		<path style="fill:#322F32;" d="M943.6799927,431.3299866c11.4799805,6.6300049,30.0900269,6.6300049,41.5700073,0
			s11.4799805-17.3699951,0-24s-30.0900269-6.6300049-41.5700073,0S932.2000122,424.6999817,943.6799927,431.3299866z"/>
	</g>
	<g>
		<path style="fill:#2D292D;" d="M935.0700073,359.6600037v-20h58.789978v20l0,0c0,4.3399963-2.8699951,8.6900024-8.6099854,12
			c-11.4799805,6.6300049-30.0900269,6.6300049-41.5700073,0C937.9400024,368.3500061,935.0700073,364,935.0700073,359.6600037z"/>
		<path style="fill:#322F32;" d="M943.6799927,351.6700134c11.4799805,6.6300049,30.0900269,6.6300049,41.5700073,0
			s11.4799805-17.3699951,0-24s-30.0900269-6.6300049-41.5700073,0S932.2000122,345.0400085,943.6799927,351.6700134z"/>
	</g>
	<g>
		<path style="fill:#2D292D;" d="M935.0700073,280v-20h58.789978v20l0,0c0,4.3399963-2.8699951,8.6900024-8.6099854,12
			c-11.4799805,6.6300049-30.0900269,6.6300049-41.5700073,0C937.9400024,288.6900024,935.0700073,284.3399963,935.0700073,280z"/>
		<path style="fill:#322F32;" d="M943.6799927,272c11.4799805,6.6300049,30.0900269,6.6300049,41.5700073,0
			s11.4799805-17.3699951,0-24s-30.0900269-6.6300049-41.5700073,0S932.2000122,265.3699951,943.6799927,272z"/>
	</g>
	<g>
		<path style="fill:#2D292D;" d="M935.0700073,200.3300018v-20h58.789978v20l0,0c0,4.3399963-2.8699951,8.6900024-8.6099854,12
			c-11.4799805,6.6300049-30.0900269,6.6300049-41.5700073,0
			C937.9400024,209.0200043,935.0700073,204.6699982,935.0700073,200.3300018z"/>
		<path style="fill:#322F32;" d="M943.6799927,192.3300018c11.4799805,6.6300049,30.0900269,6.6300049,41.5700073,0
			s11.4799805-17.3699951,0-24s-30.0900269-6.6300049-41.5700073,0S932.2000122,185.6999969,943.6799927,192.3300018z"/>
	</g>
	<path style="fill:#2D292D;" d="M797.0800171,598.6599731v-20h58.789978v20l0,0c0,4.3400269-2.8699951,8.6900024-8.6099854,12
		c-11.4799805,6.6300049-30.0900269,6.6300049-41.5700073,0C799.9500122,607.3499756,797.0800171,603,797.0800171,598.6599731z"/>
	<g>
		<path style="fill:#2D292D;" d="M797.0800171,519v-20h58.789978v20l0,0c0,4.3400269-2.8699951,8.6900024-8.6099854,12
			c-11.4799805,6.6300049-30.0900269,6.6300049-41.5700073,0C799.9500122,527.6900024,797.0800171,523.3400269,797.0800171,519z"/>
		<path style="fill:#322F32;" d="M805.6900024,511c11.4799805,6.6300049,30.0900269,6.6300049,41.5700073,0
			s11.4799805-17.3699951,0-24s-30.0900269-6.6300049-41.5700073,0S794.210022,504.3699951,805.6900024,511z"/>
	</g>
	<g>
		<path style="fill:#2D292D;" d="M797.0800171,439.3299866v-20h58.789978v20l0,0c0,4.3399963-2.8699951,8.6900024-8.6099854,12
			c-11.4799805,6.6300049-30.0900269,6.6300049-41.5700073,0
			C799.9500122,448.019989,797.0800171,443.6699829,797.0800171,439.3299866z"/>
		<path style="fill:#322F32;" d="M805.6900024,431.3299866c11.4799805,6.6300049,30.0900269,6.6300049,41.5700073,0
			s11.4799805-17.3699951,0-24s-30.0900269-6.6300049-41.5700073,0S794.210022,424.6999817,805.6900024,431.3299866z"/>
	</g>
	<g>
		<path style="fill:#2D292D;" d="M797.0800171,359.6600037v-20h58.789978v20l0,0c0,4.3399963-2.8699951,8.6900024-8.6099854,12
			c-11.4799805,6.6300049-30.0900269,6.6300049-41.5700073,0C799.9500122,368.3500061,797.0800171,364,797.0800171,359.6600037z"/>
		<path style="fill:#322F32;" d="M805.6900024,351.6700134c11.4799805,6.6300049,30.0900269,6.6300049,41.5700073,0
			s11.4799805-17.3699951,0-24s-30.0900269-6.6300049-41.5700073,0S794.210022,345.0400085,805.6900024,351.6700134z"/>
	</g>
	<g>
		<path style="fill:#2D292D;" d="M797.0800171,280v-20h58.789978v20l0,0c0,4.3399963-2.8699951,8.6900024-8.6099854,12
			c-11.4799805,6.6300049-30.0900269,6.6300049-41.5700073,0C799.9500122,288.6900024,797.0800171,284.3399963,797.0800171,280z"/>
		<path style="fill:#322F32;" d="M805.6900024,272c11.4799805,6.6300049,30.0900269,6.6300049,41.5700073,0
			s11.4799805-17.3699951,0-24s-30.0900269-6.6300049-41.5700073,0S794.210022,265.3699951,805.6900024,272z"/>
	</g>
	<g>
		<path style="fill:#2D292D;" d="M797.0800171,200.3300018v-20h58.789978v20l0,0c0,4.3399963-2.8699951,8.6900024-8.6099854,12
			c-11.4799805,6.6300049-30.0900269,6.6300049-41.5700073,0
			C799.9500122,209.0200043,797.0800171,204.6699982,797.0800171,200.3300018z"/>
		<path style="fill:#322F32;" d="M805.6900024,192.3300018c11.4799805,6.6300049,30.0900269,6.6300049,41.5700073,0
			s11.4799805-17.3699951,0-24s-30.0900269-6.6300049-41.5700073,0S794.210022,185.6999969,805.6900024,192.3300018z"/>
	</g>
	<g>
		<path style="fill:#2D292D;" d="M797.0800171,120.6699982v-20h58.789978v20l0,0c0,4.3399963-2.8699951,8.6900024-8.6099854,12
			c-11.4799805,6.6300049-30.0900269,6.6300049-41.5700073,0
			C799.9500122,129.3600006,797.0800171,125.0099945,797.0800171,120.6699982z"/>
		<path style="fill:#322F32;" d="M805.6900024,112.6699982c11.4799805,6.6299973,30.0900269,6.6299973,41.5700073,0
			s11.4799805-17.3700027,0-24s-30.0900269-6.6299973-41.5700073,0S794.210022,106.0400009,805.6900024,112.6699982z"/>
	</g>
	<g>
		<path style="fill:#2D292D;" d="M1142.0500488,479.1600037v-20h58.7900391v20l0,0c0,4.3399963-2.8699951,8.6900024-8.6099854,12
			c-11.4799805,6.6300049-30.0899658,6.6300049-41.5699463,0c-5.7399902-3.3099976-8.6099854-7.6600037-8.6099854-12H1142.0500488z"
			/>
		<path style="fill:#322F32;" d="M1150.6600342,471.1700134c11.4799805,6.6300049,30.0899658,6.6300049,41.5699463,0
			s11.4799805-17.3699951,0-24s-30.0899658-6.6300049-41.5699463,0S1139.1800537,464.5400085,1150.6600342,471.1700134z"/>
	</g>
	<g>
		<path style="fill:#2D292D;" d="M1211.0400391,439.3299866v-20h58.7900391v20l0,0c0,4.3399963-2.8699951,8.6900024-8.6099854,12
			c-11.4799805,6.6300049-30.0899658,6.6300049-41.5699463,0c-5.7399902-3.3099976-8.6099854-7.6600037-8.6099854-12H1211.0400391z"
			/>
		<path style="fill:#322F32;" d="M1219.6500244,431.3299866c11.4799805,6.6300049,30.0899658,6.6300049,41.5699463,0
			s11.4799805-17.3699951,0-24s-30.0899658-6.6300049-41.5699463,0S1208.1700439,424.6999817,1219.6500244,431.3299866z"/>
	</g>
	<g>
		<path style="fill:#2D292D;" d="M1280.0300293,399.5v-20h58.7900391v20l0,0c0,4.3399963-2.8699951,8.6900024-8.6099854,12
			c-11.4799805,6.6300049-30.0899658,6.6300049-41.5699463,0c-5.7399902-3.3099976-8.6099854-7.6600037-8.6099854-12H1280.0300293z"
			/>
		<path style="fill:#322F32;" d="M1288.6400146,391.5c11.4799805,6.6300049,30.0899658,6.6300049,41.5699463,0
			s11.4799805-17.3699951,0-24s-30.0899658-6.6300049-41.5699463,0S1277.1600342,384.8699951,1288.6400146,391.5z"/>
	</g>
	<g>
		<path style="fill:#2D292D;" d="M1211.0400391,359.6700134v-20h58.7900391v20l0,0c0,4.3399963-2.8699951,8.6900024-8.6099854,12
			c-11.4799805,6.6300049-30.0899658,6.6300049-41.5699463,0c-5.7399902-3.3099976-8.6099854-7.6600037-8.6099854-12H1211.0400391z"
			/>
		<path style="fill:#322F32;" d="M1219.6500244,351.6700134c11.4799805,6.6300049,30.0899658,6.6300049,41.5699463,0
			s11.4799805-17.3699951,0-24s-30.0899658-6.6300049-41.5699463,0S1208.1700439,345.0400085,1219.6500244,351.6700134z"/>
	</g>
	<g>
		<path style="fill:#2D292D;" d="M1142.0500488,399.5v-20h58.7900391v20l0,0c0,4.3399963-2.8699951,8.6900024-8.6099854,12
			c-11.4799805,6.6300049-30.0899658,6.6300049-41.5699463,0c-5.7399902-3.3099976-8.6099854-7.6600037-8.6099854-12H1142.0500488z"
			/>
		<path style="fill:#322F32;" d="M1150.6600342,391.5c11.4799805,6.6300049,30.0899658,6.6300049,41.5699463,0
			s11.4799805-17.3699951,0-24s-30.0899658-6.6300049-41.5699463,0S1139.1800537,384.8699951,1150.6600342,391.5z"/>
	</g>
	<g>
		<path style="fill:#2D292D;" d="M1142.0500488,319.8299866v-20h58.7900391v20l0,0c0,4.3399963-2.8699951,8.6900024-8.6099854,12
			c-11.4799805,6.6300049-30.0899658,6.6300049-41.5699463,0c-5.7399902-3.3099976-8.6099854-7.6600037-8.6099854-12H1142.0500488z"
			/>
		<path style="fill:#322F32;" d="M1150.6600342,311.8299866c11.4799805,6.6300049,30.0899658,6.6300049,41.5699463,0
			s11.4799805-17.3699951,0-24s-30.0899658-6.6300049-41.5699463,0S1139.1800537,305.1999817,1150.6600342,311.8299866z"/>
	</g>
	<g>
		<path style="fill:#2D292D;" d="M659.0999756,678.3300171v-20h58.789978v20l0,0c0,4.3400269-2.8699951,8.6900024-8.6099854,12
			c-11.4799805,6.6300049-30.0900269,6.6300049-41.5700073,0
			C661.9699707,687.0200195,659.0999756,682.6700439,659.0999756,678.3300171z"/>
		<path style="fill:#322F32;" d="M667.710022,670.3300171c11.4799805,6.6300049,30.0900269,6.6300049,41.5700073,0
			s11.4799805-17.3699951,0-24s-30.0900269-6.6300049-41.5700073,0S656.2300415,663.7000122,667.710022,670.3300171z"/>
	</g>
	<path style="fill:#2D292D;" d="M521.1099854,598.6599731v-20h58.789978v20l0,0c0,4.3400269-2.8699951,8.6900024-8.6099854,12
		c-11.4799805,6.6300049-30.0900269,6.6300049-41.5700073,0C523.9799805,607.3499756,521.1099854,603,521.1099854,598.6599731z"/>
	<g>
		<path style="fill:#2D292D;" d="M728.0900269,718.1599731v-20h58.789978v20l0,0c0,4.3400269-2.8699951,8.6900024-8.6099854,12
			c-11.4799805,6.6300049-30.0900269,6.6300049-41.5700073,0C730.960022,726.8499756,728.0900269,722.5,728.0900269,718.1599731z"/>
		<path style="fill:#322F32;" d="M736.7000122,710.1599731c11.4799805,6.6300049,30.0900269,6.6300049,41.5700073,0
			s11.4799805-17.3699951,0-24s-30.0900269-6.6300049-41.5700073,0S725.2200317,703.5299683,736.7000122,710.1599731z"/>
	</g>
	<path style="fill:#2D292D;" d="M590.0999756,638.5v-20h58.789978v20l0,0c0,4.3400269-2.8699951,8.6900024-8.6099854,12
		c-11.4799805,6.6300049-30.0900269,6.6300049-41.5700073,0C592.9699707,647.1900024,590.0999756,642.8400269,590.0999756,638.5z"/>
</g>
<path style="fill:#322F32;" d="M667.710022,351.6700134c11.4799805,6.6300049,30.0900269,6.6300049,41.5700073,0
	s11.4799805-17.3699951,0-24s-30.0900269-6.6300049-41.5700073,0S656.2300415,345.0400085,667.710022,351.6700134z"/>
<path style="fill:#322F32;" d="M391.730011,511c11.480011,6.6300049,30.0899963,6.6300049,41.5700073,0s11.480011-17.3699951,0-24
	s-30.0899963-6.6300049-41.5700073,0S380.25,504.3699951,391.730011,511z"/>
<path style="fill:#322F32;" d="M253.7400055,431.3299866c11.4799957,6.6300049,30.0900116,6.6300049,41.5699921,0
	c11.480011-6.6300049,11.480011-17.3699951,0-24s-30.0899963-6.6300049-41.5700073,0
	c-11.4799957,6.6300049-11.4799957,17.3699951,0,24H253.7400055z"/>
<path style="fill:#322F32;" d="M736.7000122,630.5c11.4799805,6.6300049,30.0900269,6.6300049,41.5700073,0
	s11.4799805-17.3699951,0-24s-30.0900269-6.6300049-41.5700073,0S725.2200317,623.8699951,736.7000122,630.5z"/>
<path style="fill:#322F32;" d="M460.7200012,550.8300171c11.480011,6.6300049,30.0899963,6.6300049,41.5700073,0
	s11.480011-17.3699951,0-24s-30.0899963-6.6300049-41.5700073,0S449.2399902,544.2000122,460.7200012,550.8300171z"/>
<path style="fill:#322F32;" d="M322.7399902,471.1700134c11.480011,6.6300049,30.0899963,6.6300049,41.5700073,0
	s11.480011-17.3699951,0-24s-30.0899963-6.6300049-41.5700073,0S311.2599792,464.5400085,322.7399902,471.1700134z"/>
<path style="fill:#322F32;" d="M874.6799927,550.8300171c11.4799805,6.6300049,30.0900269,6.6300049,41.5700073,0
	s11.4799805-17.3699951,0-24s-30.0900269-6.6300049-41.5700073,0S863.2000122,544.2000122,874.6799927,550.8300171z"/>
<path style="fill:#322F32;" d="M1012.6699829,471.1700134c11.4800415,6.6300049,30.0900269,6.6300049,41.5700073,0
	s11.4799805-17.3699951,0-24s-30.0899658-6.6300049-41.5700073,0
	C1001.1900024,453.8000183,1001.1900024,464.5400085,1012.6699829,471.1700134z"/>
<path style="fill:#322F32;" d="M1081.6600342,431.3299866c11.4799805,6.6300049,30.0899658,6.6300049,41.5699463,0
	s11.4799805-17.3699951,0-24s-30.0899658-6.6300049-41.5699463,0S1070.1800537,424.6999817,1081.6600342,431.3299866z"/>
<path style="fill:#322F32;" d="M943.6799927,511c11.4799805,6.6300049,30.0900269,6.6300049,41.5700073,0
	s11.4799805-17.3699951,0-24s-30.0900269-6.6300049-41.5700073,0S932.2000122,504.3699951,943.6799927,511z"/>
<path style="fill:#322F32;" d="M805.6900024,590.6699829c11.4799805,6.6300049,30.0900269,6.6300049,41.5700073,0
	s11.4799805-17.3699951,0-24s-30.0900269-6.6300049-41.5700073,0S794.210022,584.039978,805.6900024,590.6699829z"/>
<path style="fill:#322F32;" d="M529.7199707,590.6599731c11.4799805,6.6300049,30.0900269,6.6300049,41.5700073,0
	s11.4799805-17.3699951,0-24s-30.0900269-6.6300049-41.5700073,0S518.2399902,584.0299683,529.7199707,590.6599731z"/>
<path style="fill:#322F32;" d="M598.710022,630.5c11.4799805,6.6300049,30.0900269,6.6300049,41.5700073,0
	s11.4799805-17.3699951,0-24s-30.0900269-6.6300049-41.5700073,0S587.2300415,623.8699951,598.710022,630.5z"/>
</svg>
