<?xml version="1.0" encoding="UTF-8"?>
<svg id="Layer_1" data-name="Layer 1" xmlns="http://www.w3.org/2000/svg" viewBox="0 0 412.23 334">
  <defs>
    <style>
      .cls-1, .cls-2 {
        fill: #d1d3d4;
      }

      .cls-3 {
        fill: #231f20;
      }

      .cls-4 {
        fill: #fff;
      }

      .cls-2 {
        opacity: .2;
      }

      .cls-5 {
        fill: #e6e7e8;
      }
    </style>
  </defs>
  <polygon class="cls-4" points="136.83 238 0 159 275.39 0 412.23 79 136.83 238"/>
  <path class="cls-5" d="M157.62,193c-11.48,6.63-30.09,6.63-41.57,0-11.48-6.63-11.48-17.37,0-24,11.48-6.63,30.09-6.63,41.57,0s11.48,17.37,0,24Z"/>
  <path class="cls-5" d="M88.33,153c-11.48,6.63-30.09,6.63-41.57,0-11.48-6.63-11.48-17.37,0-24,11.48-6.63,30.09-6.63,41.57,0s11.48,17.37,0,24Z"/>
  <path class="cls-5" d="M226.9,153c-11.48,6.63-30.09,6.63-41.57,0-11.48-6.63-11.48-17.37,0-24,11.48-6.63,30.09-6.63,41.57,0,11.48,6.63,11.48,17.37,0,24Z"/>
  <path class="cls-5" d="M157.62,113c-11.48,6.63-30.09,6.63-41.57,0s-11.48-17.37,0-24c11.48-6.63,30.09-6.63,41.57,0,11.48,6.63,11.48,17.37,0,24Z"/>
  <path class="cls-5" d="M226.9,73c-11.48,6.63-30.09,6.63-41.57,0-11.48-6.63-11.48-17.37,0-24,11.48-6.63,30.09-6.63,41.57,0,11.48,6.63,11.48,17.37,0,24Z"/>
  <path class="cls-5" d="M296.18,113c-11.48,6.63-30.09,6.63-41.57,0-11.48-6.63-11.48-17.37,0-24,11.48-6.63,30.09-6.63,41.57,0,11.48,6.63,11.48,17.37,0,24Z"/>
  <path class="cls-5" d="M365.46,73c-11.48,6.63-30.09,6.63-41.57,0s-11.48-17.37,0-24c11.48-6.63,30.09-6.63,41.57,0,11.48,6.63,11.48,17.37,0,24Z"/>
  <path class="cls-5" d="M296.18,33c-11.48,6.63-30.09,6.63-41.57,0s-11.48-17.37,0-24c11.48-6.63,30.09-6.63,41.57,0,11.48,6.63,11.48,17.37,0,24Z"/>
  <polygon class="cls-5" points="136.83 334 136.83 238 412.23 79 412.23 175 136.83 334"/>
  <polygon class="cls-3" points="166.23 181 166.23 181 166.23 181 166.23 181"/>
  <path class="cls-1" d="M157.62,193c-11.48,6.63-30.09,6.63-41.57,0-5.74-3.31-8.61-7.66-8.61-12v20c0,4.34,2.87,8.69,8.61,12,11.48,6.63,30.09,6.63,41.57,0,5.74-3.31,8.61-7.66,8.61-12v-20c0,4.34-2.87,8.69-8.61,12Z"/>
  <g>
    <path class="cls-1" d="M88.33,153c-11.48,6.63-30.09,6.63-41.57,0-5.74-3.31-8.61-7.66-8.61-12h0v20c0,4.34,2.87,8.69,8.61,12,11.48,6.63,30.09,6.63,41.57,0,5.74-3.31,8.61-7.66,8.61-12v-20c0,4.34-2.87,8.69-8.61,12Z"/>
    <polygon class="cls-2" points="96.94 141 96.94 141 96.94 141 96.94 141"/>
  </g>
  <g>
    <path class="cls-1" d="M226.9,153c-11.48,6.63-30.09,6.63-41.57,0-5.74-3.31-8.61-7.66-8.61-12v20c0,4.34,2.87,8.69,8.61,12,11.48,6.63,30.09,6.63,41.57,0,5.74-3.31,8.61-7.66,8.61-12v-20c0,4.34-2.87,8.69-8.61,12Z"/>
    <polygon class="cls-2" points="235.51 141 235.51 141 235.51 141 235.51 141"/>
  </g>
  <g>
    <polygon class="cls-2" points="166.23 101 166.23 101 166.23 101 166.23 101"/>
    <path class="cls-1" d="M157.62,113c-11.48,6.63-30.09,6.63-41.57,0-5.74-3.31-8.61-7.66-8.61-12v20c0,4.34,2.87,8.69,8.61,12,11.48,6.63,30.09,6.63,41.57,0,5.74-3.31,8.61-7.66,8.61-12v-20c0,4.34-2.87,8.69-8.61,12Z"/>
  </g>
  <g>
    <polygon class="cls-2" points="235.51 61 235.51 61 235.51 61 235.51 61"/>
    <path class="cls-1" d="M226.9,73c-11.48,6.63-30.09,6.63-41.57,0-5.74-3.31-8.61-7.66-8.61-12v20c0,4.34,2.87,8.69,8.61,12,11.48,6.63,30.09,6.63,41.57,0,5.74-3.31,8.61-7.66,8.61-12v-20c0,4.34-2.87,8.69-8.61,12Z"/>
  </g>
  <g>
    <polygon class="cls-2" points="304.79 101 304.79 101 304.79 101 304.79 101"/>
    <path class="cls-1" d="M296.18,113c-11.48,6.63-30.09,6.63-41.57,0-5.74-3.31-8.61-7.66-8.61-12v20c0,4.34,2.87,8.69,8.61,12,11.48,6.63,30.09,6.63,41.57,0,5.74-3.31,8.61-7.66,8.61-12v-20c0,4.34-2.87,8.69-8.61,12Z"/>
  </g>
  <path class="cls-1" d="M365.46,73c-11.48,6.63-30.09,6.63-41.57,0-5.74-3.31-8.61-7.66-8.61-12h0v20c0,4.34,2.87,8.69,8.61,12,11.48,6.63,30.09,6.63,41.57,0,5.74-3.31,8.61-7.66,8.61-12v-20c0,4.34-2.87,8.69-8.61,12Z"/>
  <path class="cls-1" d="M296.18,33c-11.48,6.63-30.09,6.63-41.57,0-5.74-3.31-8.61-7.66-8.61-12h0v20c0,4.34,2.87,8.69,8.61,12,11.48,6.63,30.09,6.63,41.57,0,5.74-3.31,8.61-7.66,8.61-12v-20c0,4.34-2.87,8.69-8.61,12Z"/>
  <polygon class="cls-1" points="136.83 334 0 255 0 159 136.83 238 136.83 334"/>
</svg>