<?xml version="1.0" encoding="UTF-8"?>
<svg id="Layer_1" data-name="Layer 1" xmlns="http://www.w3.org/2000/svg" viewBox="0 0 1376.98 805">
  <defs>
    <style>
      .cls-1 {
        fill: #d1d3d4;
      }

      .cls-2 {
        fill: #fff;
      }

      .cls-3 {
        fill: #e6e7e8;
      }
    </style>
  </defs>
  <g>
    <polygon class="cls-2" points="688.49 795 0 397.5 688.49 0 1376.98 397.5 688.49 795"/>
    <polygon class="cls-1" points="688.49 805 0 407.5 0 397.5 688.49 795 688.49 805"/>
    <polygon class="cls-3" points="688.49 805 688.49 795 1376.98 397.5 1376.98 407.5 688.49 805"/>
    <g>
      <path class="cls-1" d="M659.1,200.33v-20h58.79v20h0c0,4.34-2.87,8.69-8.61,12-11.48,6.63-30.09,6.63-41.57,0-5.74-3.31-8.61-7.66-8.61-12Z"/>
      <path class="cls-3" d="M667.71,192.33c11.48,6.63,30.09,6.63,41.57,0,11.48-6.63,11.48-17.37,0-24-11.48-6.63-30.09-6.63-41.57,0-11.48,6.63-11.48,17.37,0,24Z"/>
    </g>
    <g>
      <path class="cls-1" d="M659.1,120.66v-20h58.79v20h0c0,4.34-2.87,8.69-8.61,12-11.48,6.63-30.09,6.63-41.57,0-5.74-3.31-8.61-7.66-8.61-12Z"/>
      <path class="cls-3" d="M667.71,112.67c11.48,6.63,30.09,6.63,41.57,0,11.48-6.63,11.48-17.37,0-24-11.48-6.63-30.09-6.63-41.57,0-11.48,6.63-11.48,17.37,0,24Z"/>
    </g>
    <g>
      <path class="cls-1" d="M659.1,758v-20h58.79v20h0c0,4.34-2.87,8.69-8.61,12-11.48,6.63-30.09,6.63-41.57,0-5.74-3.31-8.61-7.66-8.61-12Z"/>
      <path class="cls-3" d="M667.71,750c11.48,6.63,30.09,6.63,41.57,0,11.48-6.63,11.48-17.37,0-24-11.48-6.63-30.09-6.63-41.57,0-11.48,6.63-11.48,17.37,0,24Z"/>
    </g>
    <g>
      <path class="cls-1" d="M659.1,598.66v-20h58.79v20h0c0,4.34-2.87,8.69-8.61,12-11.48,6.63-30.09,6.63-41.57,0-5.74-3.31-8.61-7.66-8.61-12Z"/>
      <path class="cls-3" d="M667.71,590.66c11.48,6.63,30.09,6.63,41.57,0,11.48-6.63,11.48-17.37,0-24-11.48-6.63-30.09-6.63-41.57,0-11.48,6.63-11.48,17.37,0,24Z"/>
    </g>
    <g>
      <path class="cls-1" d="M659.1,519v-20h58.79v20h0c0,4.34-2.87,8.69-8.61,12-11.48,6.63-30.09,6.63-41.57,0-5.74-3.31-8.61-7.66-8.61-12Z"/>
      <path class="cls-3" d="M667.71,511c11.48,6.63,30.09,6.63,41.57,0,11.48-6.63,11.48-17.37,0-24-11.48-6.63-30.09-6.63-41.57,0-11.48,6.63-11.48,17.37,0,24Z"/>
    </g>
    <g>
      <path class="cls-1" d="M659.1,439.33v-20h58.79v20h0c0,4.34-2.87,8.69-8.61,12-11.48,6.63-30.09,6.63-41.57,0-5.74-3.31-8.61-7.66-8.61-12Z"/>
      <path class="cls-3" d="M667.71,431.33c11.48,6.63,30.09,6.63,41.57,0,11.48-6.63,11.48-17.37,0-24-11.48-6.63-30.09-6.63-41.57,0-11.48,6.63-11.48,17.37,0,24Z"/>
    </g>
    <path class="cls-1" d="M659.1,359.66v-20h58.79v20h0c0,4.34-2.87,8.69-8.61,12-11.48,6.63-30.09,6.63-41.57,0-5.74-3.31-8.61-7.66-8.61-12Z"/>
    <g>
      <path class="cls-1" d="M659.1,280v-20h58.79v20h0c0,4.34-2.87,8.69-8.61,12-11.48,6.63-30.09,6.63-41.57,0-5.74-3.31-8.61-7.66-8.61-12Z"/>
      <path class="cls-3" d="M667.71,272c11.48,6.63,30.09,6.63,41.57,0,11.48-6.63,11.48-17.37,0-24-11.48-6.63-30.09-6.63-41.57,0-11.48,6.63-11.48,17.37,0,24Z"/>
    </g>
    <g>
      <path class="cls-1" d="M521.11,200.33v-20h58.79v20h0c0,4.34-2.87,8.69-8.61,12-11.48,6.63-30.09,6.63-41.57,0-5.74-3.31-8.61-7.66-8.61-12Z"/>
      <path class="cls-3" d="M529.72,192.33c11.48,6.63,30.09,6.63,41.57,0,11.48-6.63,11.48-17.37,0-24-11.48-6.63-30.09-6.63-41.57,0-11.48,6.63-11.48,17.37,0,24Z"/>
    </g>
    <g>
      <path class="cls-1" d="M521.11,120.66v-20h58.79v20h0c0,4.34-2.87,8.69-8.61,12-11.48,6.63-30.09,6.63-41.57,0-5.74-3.31-8.61-7.66-8.61-12Z"/>
      <path class="cls-3" d="M529.72,112.67c11.48,6.63,30.09,6.63,41.57,0,11.48-6.63,11.48-17.37,0-24-11.48-6.63-30.09-6.63-41.57,0-11.48,6.63-11.48,17.37,0,24Z"/>
    </g>
    <g>
      <path class="cls-1" d="M521.11,678.33v-20h58.79v20h0c0,4.34-2.87,8.69-8.61,12-11.48,6.63-30.09,6.63-41.57,0-5.74-3.31-8.61-7.66-8.61-12Z"/>
      <path class="cls-3" d="M529.72,670.33c11.48,6.63,30.09,6.63,41.57,0,11.48-6.63,11.48-17.37,0-24s-30.09-6.63-41.57,0c-11.48,6.63-11.48,17.37,0,24Z"/>
    </g>
    <g>
      <path class="cls-1" d="M521.11,519v-20h58.79v20h0c0,4.34-2.87,8.69-8.61,12-11.48,6.63-30.09,6.63-41.57,0-5.74-3.31-8.61-7.66-8.61-12Z"/>
      <path class="cls-3" d="M529.72,511c11.48,6.63,30.09,6.63,41.57,0,11.48-6.63,11.48-17.37,0-24-11.48-6.63-30.09-6.63-41.57,0-11.48,6.63-11.48,17.37,0,24Z"/>
    </g>
    <g>
      <path class="cls-1" d="M521.11,439.33v-20h58.79v20h0c0,4.34-2.87,8.69-8.61,12-11.48,6.63-30.09,6.63-41.57,0-5.74-3.31-8.61-7.66-8.61-12Z"/>
      <path class="cls-3" d="M529.72,431.33c11.48,6.63,30.09,6.63,41.57,0,11.48-6.63,11.48-17.37,0-24-11.48-6.63-30.09-6.63-41.57,0-11.48,6.63-11.48,17.37,0,24Z"/>
    </g>
    <g>
      <path class="cls-1" d="M521.11,359.66v-20h58.79v20h0c0,4.34-2.87,8.69-8.61,12-11.48,6.63-30.09,6.63-41.57,0-5.74-3.31-8.61-7.66-8.61-12Z"/>
      <path class="cls-3" d="M529.72,351.67c11.48,6.63,30.09,6.63,41.57,0,11.48-6.63,11.48-17.37,0-24-11.48-6.63-30.09-6.63-41.57,0-11.48,6.63-11.48,17.37,0,24Z"/>
    </g>
    <g>
      <path class="cls-1" d="M521.11,280v-20h58.79v20h0c0,4.34-2.87,8.69-8.61,12-11.48,6.63-30.09,6.63-41.57,0-5.74-3.31-8.61-7.66-8.61-12Z"/>
      <path class="cls-3" d="M529.72,272c11.48,6.63,30.09,6.63,41.57,0,11.48-6.63,11.48-17.37,0-24-11.48-6.63-30.09-6.63-41.57,0-11.48,6.63-11.48,17.37,0,24Z"/>
    </g>
    <g>
      <path class="cls-1" d="M383.12,200.33v-20h58.79v20h0c0,4.34-2.87,8.69-8.61,12-11.48,6.63-30.09,6.63-41.57,0-5.74-3.31-8.61-7.66-8.61-12Z"/>
      <path class="cls-3" d="M391.73,192.33c11.48,6.63,30.09,6.63,41.57,0,11.48-6.63,11.48-17.37,0-24-11.48-6.63-30.09-6.63-41.57,0-11.48,6.63-11.48,17.37,0,24Z"/>
    </g>
    <g>
      <path class="cls-1" d="M383.12,598.66v-20h58.79v20h0c0,4.34-2.87,8.69-8.61,12-11.48,6.63-30.09,6.63-41.57,0-5.74-3.31-8.61-7.66-8.61-12Z"/>
      <path class="cls-3" d="M391.73,590.66c11.48,6.63,30.09,6.63,41.57,0,11.48-6.63,11.48-17.37,0-24-11.48-6.63-30.09-6.63-41.57,0-11.48,6.63-11.48,17.37,0,24Z"/>
    </g>
    <path class="cls-1" d="M383.12,519v-20h58.79v20h0c0,4.34-2.87,8.69-8.61,12-11.48,6.63-30.09,6.63-41.57,0-5.74-3.31-8.61-7.66-8.61-12Z"/>
    <g>
      <path class="cls-1" d="M383.12,439.33v-20h58.79v20h0c0,4.34-2.87,8.69-8.61,12-11.48,6.63-30.09,6.63-41.57,0-5.74-3.31-8.61-7.66-8.61-12Z"/>
      <path class="cls-3" d="M391.73,431.33c11.48,6.63,30.09,6.63,41.57,0,11.48-6.63,11.48-17.37,0-24-11.48-6.63-30.09-6.63-41.57,0-11.48,6.63-11.48,17.37,0,24Z"/>
    </g>
    <g>
      <path class="cls-1" d="M383.12,359.66v-20h58.79v20h0c0,4.34-2.87,8.69-8.61,12-11.48,6.63-30.09,6.63-41.57,0-5.74-3.31-8.61-7.66-8.61-12Z"/>
      <path class="cls-3" d="M391.73,351.67c11.48,6.63,30.09,6.63,41.57,0,11.48-6.63,11.48-17.37,0-24-11.48-6.63-30.09-6.63-41.57,0-11.48,6.63-11.48,17.37,0,24Z"/>
    </g>
    <g>
      <path class="cls-1" d="M383.12,280v-20h58.79v20h0c0,4.34-2.87,8.69-8.61,12-11.48,6.63-30.09,6.63-41.57,0-5.74-3.31-8.61-7.66-8.61-12Z"/>
      <path class="cls-3" d="M391.73,272c11.48,6.63,30.09,6.63,41.57,0,11.48-6.63,11.48-17.37,0-24-11.48-6.63-30.09-6.63-41.57,0-11.48,6.63-11.48,17.37,0,24Z"/>
    </g>
    <g>
      <path class="cls-1" d="M245.14,519v-20h58.79v20h0c0,4.34-2.87,8.69-8.61,12-11.48,6.63-30.09,6.63-41.57,0-5.74-3.31-8.61-7.66-8.61-12Z"/>
      <path class="cls-3" d="M253.74,511c11.48,6.63,30.09,6.63,41.57,0,11.48-6.63,11.48-17.37,0-24-11.48-6.63-30.09-6.63-41.57,0-11.48,6.63-11.48,17.37,0,24Z"/>
    </g>
    <path class="cls-1" d="M245.14,439.33v-20h58.79v20h0c0,4.34-2.87,8.69-8.61,12-11.48,6.63-30.09,6.63-41.57,0-5.74-3.31-8.61-7.66-8.61-12Z"/>
    <g>
      <path class="cls-1" d="M245.14,359.66v-20h58.79v20h0c0,4.34-2.87,8.69-8.61,12-11.48,6.63-30.09,6.63-41.57,0-5.74-3.31-8.61-7.66-8.61-12Z"/>
      <path class="cls-3" d="M253.74,351.67c11.48,6.63,30.09,6.63,41.57,0,11.48-6.63,11.48-17.37,0-24-11.48-6.63-30.09-6.63-41.57,0-11.48,6.63-11.48,17.37,0,24Z"/>
    </g>
    <g>
      <path class="cls-1" d="M245.14,280v-20h58.79v20h0c0,4.34-2.87,8.69-8.61,12-11.48,6.63-30.09,6.63-41.57,0-5.74-3.31-8.61-7.66-8.61-12Z"/>
      <path class="cls-3" d="M253.74,272c11.48,6.63,30.09,6.63,41.57,0,11.48-6.63,11.48-17.37,0-24-11.48-6.63-30.09-6.63-41.57,0-11.48,6.63-11.48,17.37,0,24Z"/>
    </g>
    <g>
      <path class="cls-1" d="M107.15,439.33v-20h58.79v20h0c0,4.34-2.87,8.69-8.61,12-11.48,6.63-30.09,6.63-41.57,0-5.74-3.31-8.61-7.66-8.61-12Z"/>
      <path class="cls-3" d="M115.76,431.33c11.48,6.63,30.09,6.63,41.57,0,11.48-6.63,11.48-17.37,0-24-11.48-6.63-30.09-6.63-41.57,0-11.48,6.63-11.48,17.37,0,24Z"/>
    </g>
    <g>
      <path class="cls-1" d="M107.15,359.66v-20h58.79v20h0c0,4.34-2.87,8.69-8.61,12-11.48,6.63-30.09,6.63-41.57,0-5.74-3.31-8.61-7.66-8.61-12Z"/>
      <path class="cls-3" d="M115.76,351.67c11.48,6.63,30.09,6.63,41.57,0,11.48-6.63,11.48-17.37,0-24-11.48-6.63-30.09-6.63-41.57,0-11.48,6.63-11.48,17.37,0,24Z"/>
    </g>
    <g>
      <path class="cls-1" d="M659.1,41v-20h58.79v20h0c0,4.34-2.87,8.69-8.61,12-11.48,6.63-30.09,6.63-41.57,0-5.74-3.31-8.61-7.66-8.61-12Z"/>
      <path class="cls-3" d="M667.71,33c11.48,6.63,30.09,6.63,41.57,0,11.48-6.63,11.48-17.37,0-24-11.48-6.63-30.09-6.63-41.57,0-11.48,6.63-11.48,17.37,0,24Z"/>
    </g>
    <g>
      <path class="cls-1" d="M590.1,718.16v-20h58.79v20h0c0,4.34-2.87,8.69-8.61,12-11.48,6.63-30.09,6.63-41.57,0-5.74-3.31-8.61-7.66-8.61-12Z"/>
      <path class="cls-3" d="M598.71,710.16c11.48,6.63,30.09,6.63,41.57,0,11.48-6.63,11.48-17.37,0-24-11.48-6.63-30.09-6.63-41.57,0-11.48,6.63-11.48,17.37,0,24Z"/>
    </g>
    <path class="cls-1" d="M728.09,638.5v-20h58.79v20h0c0,4.34-2.87,8.69-8.61,12-11.48,6.63-30.09,6.63-41.57,0-5.74-3.31-8.61-7.66-8.61-12Z"/>
    <g>
      <path class="cls-1" d="M728.09,558.83v-20h58.79v20h0c0,4.34-2.87,8.69-8.61,12-11.48,6.63-30.09,6.63-41.57,0-5.74-3.31-8.61-7.66-8.61-12Z"/>
      <path class="cls-3" d="M736.7,550.83c11.48,6.63,30.09,6.63,41.57,0,11.48-6.63,11.48-17.37,0-24-11.48-6.63-30.09-6.63-41.57,0-11.48,6.63-11.48,17.37,0,24Z"/>
    </g>
    <g>
      <path class="cls-1" d="M728.09,479.16v-20h58.79v20h0c0,4.34-2.87,8.69-8.61,12-11.48,6.63-30.09,6.63-41.57,0-5.74-3.31-8.61-7.66-8.61-12Z"/>
      <path class="cls-3" d="M736.7,471.17c11.48,6.63,30.09,6.63,41.57,0,11.48-6.63,11.48-17.37,0-24-11.48-6.63-30.09-6.63-41.57,0-11.48,6.63-11.48,17.37,0,24Z"/>
    </g>
    <g>
      <path class="cls-1" d="M728.09,399.5v-20h58.79v20h0c0,4.34-2.87,8.69-8.61,12-11.48,6.63-30.09,6.63-41.57,0-5.74-3.31-8.61-7.66-8.61-12Z"/>
      <path class="cls-3" d="M736.7,391.5c11.48,6.63,30.09,6.63,41.57,0,11.48-6.63,11.48-17.37,0-24-11.48-6.63-30.09-6.63-41.57,0-11.48,6.63-11.48,17.37,0,24Z"/>
    </g>
    <g>
      <path class="cls-1" d="M728.09,319.83v-20h58.79v20h0c0,4.34-2.87,8.69-8.61,12-11.48,6.63-30.09,6.63-41.57,0-5.74-3.31-8.61-7.66-8.61-12Z"/>
      <path class="cls-3" d="M736.7,311.83c11.48,6.63,30.09,6.63,41.57,0,11.48-6.63,11.48-17.37,0-24-11.48-6.63-30.09-6.63-41.57,0-11.48,6.63-11.48,17.37,0,24Z"/>
    </g>
    <g>
      <path class="cls-1" d="M728.09,240.16v-20h58.79v20h0c0,4.34-2.87,8.69-8.61,12-11.48,6.63-30.09,6.63-41.57,0-5.74-3.31-8.61-7.66-8.61-12Z"/>
      <path class="cls-3" d="M736.7,232.17c11.48,6.63,30.09,6.63,41.57,0,11.48-6.63,11.48-17.37,0-24-11.48-6.63-30.09-6.63-41.57,0-11.48,6.63-11.48,17.37,0,24Z"/>
    </g>
    <g>
      <path class="cls-1" d="M728.09,160.5v-20h58.79v20h0c0,4.34-2.87,8.69-8.61,12-11.48,6.63-30.09,6.63-41.57,0-5.74-3.31-8.61-7.66-8.61-12Z"/>
      <path class="cls-3" d="M736.7,152.5c11.48,6.63,30.09,6.63,41.57,0,11.48-6.63,11.48-17.37,0-24-11.48-6.63-30.09-6.63-41.57,0-11.48,6.63-11.48,17.37,0,24Z"/>
    </g>
    <g>
      <path class="cls-1" d="M728.09,80.83v-20h58.79v20h0c0,4.34-2.87,8.69-8.61,12-11.48,6.63-30.09,6.63-41.57,0-5.74-3.31-8.61-7.66-8.61-12Z"/>
      <path class="cls-3" d="M736.7,72.83c11.48,6.63,30.09,6.63,41.57,0,11.48-6.63,11.48-17.37,0-24-11.48-6.63-30.09-6.63-41.57,0-11.48,6.63-11.48,17.37,0,24Z"/>
    </g>
    <g>
      <path class="cls-1" d="M590.1,558.83v-20h58.79v20h0c0,4.34-2.87,8.69-8.61,12-11.48,6.63-30.09,6.63-41.57,0-5.74-3.31-8.61-7.66-8.61-12Z"/>
      <path class="cls-3" d="M598.71,550.83c11.48,6.63,30.09,6.63,41.57,0,11.48-6.63,11.48-17.37,0-24-11.48-6.63-30.09-6.63-41.57,0-11.48,6.63-11.48,17.37,0,24Z"/>
    </g>
    <g>
      <path class="cls-1" d="M590.1,479.16v-20h58.79v20h0c0,4.34-2.87,8.69-8.61,12-11.48,6.63-30.09,6.63-41.57,0-5.74-3.31-8.61-7.66-8.61-12Z"/>
      <path class="cls-3" d="M598.71,471.17c11.48,6.63,30.09,6.63,41.57,0,11.48-6.63,11.48-17.37,0-24-11.48-6.63-30.09-6.63-41.57,0-11.48,6.63-11.48,17.37,0,24Z"/>
    </g>
    <g>
      <path class="cls-1" d="M590.1,399.5v-20h58.79v20h0c0,4.34-2.87,8.69-8.61,12-11.48,6.63-30.09,6.63-41.57,0-5.74-3.31-8.61-7.66-8.61-12Z"/>
      <path class="cls-3" d="M598.71,391.5c11.48,6.63,30.09,6.63,41.57,0,11.48-6.63,11.48-17.37,0-24-11.48-6.63-30.09-6.63-41.57,0-11.48,6.63-11.48,17.37,0,24Z"/>
    </g>
    <g>
      <path class="cls-1" d="M590.1,319.83v-20h58.79v20h0c0,4.34-2.87,8.69-8.61,12-11.48,6.63-30.09,6.63-41.57,0-5.74-3.31-8.61-7.66-8.61-12Z"/>
      <path class="cls-3" d="M598.71,311.83c11.48,6.63,30.09,6.63,41.57,0,11.48-6.63,11.48-17.37,0-24-11.48-6.63-30.09-6.63-41.57,0-11.48,6.63-11.48,17.37,0,24Z"/>
    </g>
    <g>
      <path class="cls-1" d="M590.1,240.16v-20h58.79v20h0c0,4.34-2.87,8.69-8.61,12-11.48,6.63-30.09,6.63-41.57,0-5.74-3.31-8.61-7.66-8.61-12Z"/>
      <path class="cls-3" d="M598.71,232.17c11.48,6.63,30.09,6.63,41.57,0,11.48-6.63,11.48-17.37,0-24-11.48-6.63-30.09-6.63-41.57,0-11.48,6.63-11.48,17.37,0,24Z"/>
    </g>
    <g>
      <path class="cls-1" d="M590.1,160.5v-20h58.79v20h0c0,4.34-2.87,8.69-8.61,12-11.48,6.63-30.09,6.63-41.57,0-5.74-3.31-8.61-7.66-8.61-12Z"/>
      <path class="cls-3" d="M598.71,152.5c11.48,6.63,30.09,6.63,41.57,0,11.48-6.63,11.48-17.37,0-24-11.48-6.63-30.09-6.63-41.57,0-11.48,6.63-11.48,17.37,0,24Z"/>
    </g>
    <g>
      <path class="cls-1" d="M590.1,80.83v-20h58.79v20h0c0,4.34-2.87,8.69-8.61,12-11.48,6.63-30.09,6.63-41.57,0-5.74-3.31-8.61-7.66-8.61-12Z"/>
      <path class="cls-3" d="M598.71,72.83c11.48,6.63,30.09,6.63,41.57,0,11.48-6.63,11.48-17.37,0-24-11.48-6.63-30.09-6.63-41.57,0-11.48,6.63-11.48,17.37,0,24Z"/>
    </g>
    <g>
      <path class="cls-1" d="M452.12,638.5v-20h58.79v20h0c0,4.34-2.87,8.69-8.61,12-11.48,6.63-30.09,6.63-41.57,0-5.74-3.31-8.61-7.66-8.61-12Z"/>
      <path class="cls-3" d="M460.72,630.5c11.48,6.63,30.09,6.63,41.57,0,11.48-6.63,11.48-17.37,0-24s-30.09-6.63-41.57,0c-11.48,6.63-11.48,17.37,0,24Z"/>
    </g>
    <path class="cls-1" d="M452.12,558.83v-20h58.79v20h0c0,4.34-2.87,8.69-8.61,12-11.48,6.63-30.09,6.63-41.57,0-5.74-3.31-8.61-7.66-8.61-12Z"/>
    <g>
      <path class="cls-1" d="M452.12,479.16v-20h58.79v20h0c0,4.34-2.87,8.69-8.61,12-11.48,6.63-30.09,6.63-41.57,0-5.74-3.31-8.61-7.66-8.61-12Z"/>
      <path class="cls-3" d="M460.72,471.17c11.48,6.63,30.09,6.63,41.57,0,11.48-6.63,11.48-17.37,0-24-11.48-6.63-30.09-6.63-41.57,0-11.48,6.63-11.48,17.37,0,24Z"/>
    </g>
    <g>
      <path class="cls-1" d="M452.12,399.5v-20h58.79v20h0c0,4.34-2.87,8.69-8.61,12-11.48,6.63-30.09,6.63-41.57,0-5.74-3.31-8.61-7.66-8.61-12Z"/>
      <path class="cls-3" d="M460.72,391.5c11.48,6.63,30.09,6.63,41.57,0,11.48-6.63,11.48-17.37,0-24-11.48-6.63-30.09-6.63-41.57,0-11.48,6.63-11.48,17.37,0,24Z"/>
    </g>
    <g>
      <path class="cls-1" d="M452.12,319.83v-20h58.79v20h0c0,4.34-2.87,8.69-8.61,12-11.48,6.63-30.09,6.63-41.57,0-5.74-3.31-8.61-7.66-8.61-12Z"/>
      <path class="cls-3" d="M460.72,311.83c11.48,6.63,30.09,6.63,41.57,0,11.48-6.63,11.48-17.37,0-24-11.48-6.63-30.09-6.63-41.57,0-11.48,6.63-11.48,17.37,0,24Z"/>
    </g>
    <g>
      <path class="cls-1" d="M452.12,240.16v-20h58.79v20h0c0,4.34-2.87,8.69-8.61,12-11.48,6.63-30.09,6.63-41.57,0-5.74-3.31-8.61-7.66-8.61-12Z"/>
      <path class="cls-3" d="M460.72,232.17c11.48,6.63,30.09,6.63,41.57,0,11.48-6.63,11.48-17.37,0-24-11.48-6.63-30.09-6.63-41.57,0-11.48,6.63-11.48,17.37,0,24Z"/>
    </g>
    <g>
      <path class="cls-1" d="M452.12,160.5v-20h58.79v20h0c0,4.34-2.87,8.69-8.61,12-11.48,6.63-30.09,6.63-41.57,0-5.74-3.31-8.61-7.66-8.61-12Z"/>
      <path class="cls-3" d="M460.72,152.5c11.48,6.63,30.09,6.63,41.57,0,11.48-6.63,11.48-17.37,0-24-11.48-6.63-30.09-6.63-41.57,0-11.48,6.63-11.48,17.37,0,24Z"/>
    </g>
    <g>
      <path class="cls-1" d="M314.13,558.83v-20h58.79v20h0c0,4.34-2.87,8.69-8.61,12-11.48,6.63-30.09,6.63-41.57,0-5.74-3.31-8.61-7.66-8.61-12Z"/>
      <path class="cls-3" d="M322.74,550.83c11.48,6.63,30.09,6.63,41.57,0,11.48-6.63,11.48-17.37,0-24-11.48-6.63-30.09-6.63-41.57,0-11.48,6.63-11.48,17.37,0,24Z"/>
    </g>
    <path class="cls-1" d="M314.13,479.16v-20h58.79v20h0c0,4.34-2.87,8.69-8.61,12-11.48,6.63-30.09,6.63-41.57,0-5.74-3.31-8.61-7.66-8.61-12Z"/>
    <g>
      <path class="cls-1" d="M314.13,399.5v-20h58.79v20h0c0,4.34-2.87,8.69-8.61,12-11.48,6.63-30.09,6.63-41.57,0-5.74-3.31-8.61-7.66-8.61-12Z"/>
      <path class="cls-3" d="M322.74,391.5c11.48,6.63,30.09,6.63,41.57,0,11.48-6.63,11.48-17.37,0-24-11.48-6.63-30.09-6.63-41.57,0-11.48,6.63-11.48,17.37,0,24Z"/>
    </g>
    <g>
      <path class="cls-1" d="M314.13,319.83v-20h58.79v20h0c0,4.34-2.87,8.69-8.61,12-11.48,6.63-30.09,6.63-41.57,0-5.74-3.31-8.61-7.66-8.61-12Z"/>
      <path class="cls-3" d="M322.74,311.83c11.48,6.63,30.09,6.63,41.57,0,11.48-6.63,11.48-17.37,0-24-11.48-6.63-30.09-6.63-41.57,0-11.48,6.63-11.48,17.37,0,24Z"/>
    </g>
    <g>
      <path class="cls-1" d="M314.13,240.16v-20h58.79v20h0c0,4.34-2.87,8.69-8.61,12-11.48,6.63-30.09,6.63-41.57,0-5.74-3.31-8.61-7.66-8.61-12Z"/>
      <path class="cls-3" d="M322.74,232.17c11.48,6.63,30.09,6.63,41.57,0,11.48-6.63,11.48-17.37,0-24-11.48-6.63-30.09-6.63-41.57,0-11.48,6.63-11.48,17.37,0,24Z"/>
    </g>
    <g>
      <path class="cls-1" d="M176.14,479.16v-20h58.79v20h0c0,4.34-2.87,8.69-8.61,12-11.48,6.63-30.09,6.63-41.57,0-5.74-3.31-8.61-7.66-8.61-12Z"/>
      <path class="cls-3" d="M184.75,471.17c11.48,6.63,30.09,6.63,41.57,0,11.48-6.63,11.48-17.37,0-24-11.48-6.63-30.09-6.63-41.57,0-11.48,6.63-11.48,17.37,0,24Z"/>
    </g>
    <g>
      <path class="cls-1" d="M176.14,399.5v-20h58.79v20h0c0,4.34-2.87,8.69-8.61,12-11.48,6.63-30.09,6.63-41.57,0-5.74-3.31-8.61-7.66-8.61-12Z"/>
      <path class="cls-3" d="M184.75,391.5c11.48,6.63,30.09,6.63,41.57,0,11.48-6.63,11.48-17.37,0-24-11.48-6.63-30.09-6.63-41.57,0-11.48,6.63-11.48,17.37,0,24Z"/>
    </g>
    <g>
      <path class="cls-1" d="M38.16,399.5v-20h58.79v20h0c0,4.34-2.87,8.69-8.61,12-11.48,6.63-30.09,6.63-41.57,0-5.74-3.31-8.61-7.66-8.61-12Z"/>
      <path class="cls-3" d="M46.77,391.5c11.48,6.63,30.09,6.63,41.57,0,11.48-6.63,11.48-17.37,0-24-11.48-6.63-30.09-6.63-41.57,0-11.48,6.63-11.48,17.37,0,24Z"/>
    </g>
    <g>
      <path class="cls-1" d="M176.14,319.83v-20h58.79v20h0c0,4.34-2.87,8.69-8.61,12-11.48,6.63-30.09,6.63-41.57,0-5.74-3.31-8.61-7.66-8.61-12Z"/>
      <path class="cls-3" d="M184.75,311.83c11.48,6.63,30.09,6.63,41.57,0,11.48-6.63,11.48-17.37,0-24-11.48-6.63-30.09-6.63-41.57,0-11.48,6.63-11.48,17.37,0,24Z"/>
    </g>
    <g>
      <path class="cls-1" d="M797.08,678.33v-20h58.79v20h0c0,4.34-2.87,8.69-8.61,12-11.48,6.63-30.09,6.63-41.57,0-5.74-3.31-8.61-7.66-8.61-12Z"/>
      <path class="cls-3" d="M805.69,670.33c11.48,6.63,30.09,6.63,41.57,0,11.48-6.63,11.48-17.37,0-24s-30.09-6.63-41.57,0c-11.48,6.63-11.48,17.37,0,24Z"/>
    </g>
    <g>
      <path class="cls-1" d="M866.07,638.5v-20h58.79v20h0c0,4.34-2.87,8.69-8.61,12-11.48,6.63-30.09,6.63-41.57,0-5.74-3.31-8.61-7.66-8.61-12Z"/>
      <path class="cls-3" d="M874.68,630.5c11.48,6.63,30.09,6.63,41.57,0,11.48-6.63,11.48-17.37,0-24-11.48-6.63-30.09-6.63-41.57,0-11.48,6.63-11.48,17.37,0,24Z"/>
    </g>
    <path class="cls-1" d="M866.07,558.83v-20h58.79v20h0c0,4.34-2.87,8.69-8.61,12-11.48,6.63-30.09,6.63-41.57,0-5.74-3.31-8.61-7.66-8.61-12Z"/>
    <g>
      <path class="cls-1" d="M866.07,479.16v-20h58.79v20h0c0,4.34-2.87,8.69-8.61,12-11.48,6.63-30.09,6.63-41.57,0-5.74-3.31-8.61-7.66-8.61-12Z"/>
      <path class="cls-3" d="M874.68,471.17c11.48,6.63,30.09,6.63,41.57,0,11.48-6.63,11.48-17.37,0-24-11.48-6.63-30.09-6.63-41.57,0-11.48,6.63-11.48,17.37,0,24Z"/>
    </g>
    <g>
      <path class="cls-1" d="M866.07,399.5v-20h58.79v20h0c0,4.34-2.87,8.69-8.61,12-11.48,6.63-30.09,6.63-41.57,0-5.74-3.31-8.61-7.66-8.61-12Z"/>
      <path class="cls-3" d="M874.68,391.5c11.48,6.63,30.09,6.63,41.57,0,11.48-6.63,11.48-17.37,0-24-11.48-6.63-30.09-6.63-41.57,0-11.48,6.63-11.48,17.37,0,24Z"/>
    </g>
    <g>
      <path class="cls-1" d="M866.07,319.83v-20h58.79v20h0c0,4.34-2.87,8.69-8.61,12-11.48,6.63-30.09,6.63-41.57,0-5.74-3.31-8.61-7.66-8.61-12Z"/>
      <path class="cls-3" d="M874.68,311.83c11.48,6.63,30.09,6.63,41.57,0,11.48-6.63,11.48-17.37,0-24-11.48-6.63-30.09-6.63-41.57,0-11.48,6.63-11.48,17.37,0,24Z"/>
    </g>
    <g>
      <path class="cls-1" d="M866.07,240.16v-20h58.79v20h0c0,4.34-2.87,8.69-8.61,12-11.48,6.63-30.09,6.63-41.57,0-5.74-3.31-8.61-7.66-8.61-12Z"/>
      <path class="cls-3" d="M874.68,232.17c11.48,6.63,30.09,6.63,41.57,0,11.48-6.63,11.48-17.37,0-24-11.48-6.63-30.09-6.63-41.57,0-11.48,6.63-11.48,17.37,0,24Z"/>
    </g>
    <g>
      <path class="cls-1" d="M866.07,160.5v-20h58.79v20h0c0,4.34-2.87,8.69-8.61,12-11.48,6.63-30.09,6.63-41.57,0-5.74-3.31-8.61-7.66-8.61-12Z"/>
      <path class="cls-3" d="M874.68,152.5c11.48,6.63,30.09,6.63,41.57,0,11.48-6.63,11.48-17.37,0-24-11.48-6.63-30.09-6.63-41.57,0-11.48,6.63-11.48,17.37,0,24Z"/>
    </g>
    <g>
      <path class="cls-1" d="M935.07,598.66v-20h58.79v20h0c0,4.34-2.87,8.69-8.61,12-11.48,6.63-30.09,6.63-41.57,0-5.74-3.31-8.61-7.66-8.61-12Z"/>
      <path class="cls-3" d="M943.68,590.67c11.48,6.63,30.09,6.63,41.57,0,11.48-6.63,11.48-17.37,0-24s-30.09-6.63-41.57,0c-11.48,6.63-11.48,17.37,0,24Z"/>
    </g>
    <g>
      <path class="cls-1" d="M1004.06,558.83v-20h58.79v20h0c0,4.34-2.87,8.69-8.61,12-11.48,6.63-30.09,6.63-41.57,0-5.74-3.31-8.61-7.66-8.61-12Z"/>
      <path class="cls-3" d="M1012.67,550.83c11.48,6.63,30.09,6.63,41.57,0,11.48-6.63,11.48-17.37,0-24s-30.09-6.63-41.57,0c-11.48,6.63-11.48,17.37,0,24Z"/>
    </g>
    <path class="cls-1" d="M1004.06,479.16v-20h58.79v20h0c0,4.34-2.87,8.69-8.61,12-11.48,6.63-30.09,6.63-41.57,0-5.74-3.31-8.61-7.66-8.61-12Z"/>
    <g>
      <path class="cls-1" d="M1004.06,399.5v-20h58.79v20h0c0,4.34-2.87,8.69-8.61,12-11.48,6.63-30.09,6.63-41.57,0-5.74-3.31-8.61-7.66-8.61-12Z"/>
      <path class="cls-3" d="M1012.67,391.5c11.48,6.63,30.09,6.63,41.57,0,11.48-6.63,11.48-17.37,0-24-11.48-6.63-30.09-6.63-41.57,0-11.48,6.63-11.48,17.37,0,24Z"/>
    </g>
    <g>
      <path class="cls-1" d="M1004.06,319.83v-20h58.79v20h0c0,4.34-2.87,8.69-8.61,12-11.48,6.63-30.09,6.63-41.57,0-5.74-3.31-8.61-7.66-8.61-12Z"/>
      <path class="cls-3" d="M1012.67,311.83c11.48,6.63,30.09,6.63,41.57,0,11.48-6.63,11.48-17.37,0-24-11.48-6.63-30.09-6.63-41.57,0-11.48,6.63-11.48,17.37,0,24Z"/>
    </g>
    <g>
      <path class="cls-1" d="M1004.06,240.17v-20h58.79v20h0c0,4.34-2.87,8.69-8.61,12-11.48,6.63-30.09,6.63-41.57,0-5.74-3.31-8.61-7.66-8.61-12Z"/>
      <path class="cls-3" d="M1012.67,232.17c11.48,6.63,30.09,6.63,41.57,0,11.48-6.63,11.48-17.37,0-24-11.48-6.63-30.09-6.63-41.57,0-11.48,6.63-11.48,17.37,0,24Z"/>
    </g>
    <g>
      <path class="cls-1" d="M1073.05,519v-20h58.79v20h0c0,4.34-2.87,8.69-8.61,12-11.48,6.63-30.09,6.63-41.57,0-5.74-3.31-8.61-7.66-8.61-12Z"/>
      <path class="cls-3" d="M1081.66,511c11.48,6.63,30.09,6.63,41.57,0,11.48-6.63,11.48-17.37,0-24-11.48-6.63-30.09-6.63-41.57,0-11.48,6.63-11.48,17.37,0,24Z"/>
    </g>
    <path class="cls-1" d="M1073.05,439.33v-20h58.79v20h0c0,4.34-2.87,8.69-8.61,12-11.48,6.63-30.09,6.63-41.57,0-5.74-3.31-8.61-7.66-8.61-12Z"/>
    <g>
      <path class="cls-1" d="M1073.05,359.66v-20h58.79v20h0c0,4.34-2.87,8.69-8.61,12-11.48,6.63-30.09,6.63-41.57,0-5.74-3.31-8.61-7.66-8.61-12Z"/>
      <path class="cls-3" d="M1081.66,351.67c11.48,6.63,30.09,6.63,41.57,0,11.48-6.63,11.48-17.37,0-24-11.48-6.63-30.09-6.63-41.57,0-11.48,6.63-11.48,17.37,0,24Z"/>
    </g>
    <g>
      <path class="cls-1" d="M1073.05,280v-20h58.79v20h0c0,4.34-2.87,8.69-8.61,12-11.48,6.63-30.09,6.63-41.57,0-5.74-3.31-8.61-7.66-8.61-12Z"/>
      <path class="cls-3" d="M1081.66,272c11.48,6.63,30.09,6.63,41.57,0,11.48-6.63,11.48-17.37,0-24-11.48-6.63-30.09-6.63-41.57,0-11.48,6.63-11.48,17.37,0,24Z"/>
    </g>
    <path class="cls-1" d="M935.07,519v-20h58.79v20h0c0,4.34-2.87,8.69-8.61,12-11.48,6.63-30.09,6.63-41.57,0-5.74-3.31-8.61-7.66-8.61-12Z"/>
    <g>
      <path class="cls-1" d="M935.07,439.33v-20h58.79v20h0c0,4.34-2.87,8.69-8.61,12-11.48,6.63-30.09,6.63-41.57,0-5.74-3.31-8.61-7.66-8.61-12Z"/>
      <path class="cls-3" d="M943.68,431.33c11.48,6.63,30.09,6.63,41.57,0,11.48-6.63,11.48-17.37,0-24-11.48-6.63-30.09-6.63-41.57,0-11.48,6.63-11.48,17.37,0,24Z"/>
    </g>
    <g>
      <path class="cls-1" d="M935.07,359.66v-20h58.79v20h0c0,4.34-2.87,8.69-8.61,12-11.48,6.63-30.09,6.63-41.57,0-5.74-3.31-8.61-7.66-8.61-12Z"/>
      <path class="cls-3" d="M943.68,351.67c11.48,6.63,30.09,6.63,41.57,0,11.48-6.63,11.48-17.37,0-24-11.48-6.63-30.09-6.63-41.57,0-11.48,6.63-11.48,17.37,0,24Z"/>
    </g>
    <g>
      <path class="cls-1" d="M935.07,280v-20h58.79v20h0c0,4.34-2.87,8.69-8.61,12-11.48,6.63-30.09,6.63-41.57,0-5.74-3.31-8.61-7.66-8.61-12Z"/>
      <path class="cls-3" d="M943.68,272c11.48,6.63,30.09,6.63,41.57,0,11.48-6.63,11.48-17.37,0-24-11.48-6.63-30.09-6.63-41.57,0-11.48,6.63-11.48,17.37,0,24Z"/>
    </g>
    <g>
      <path class="cls-1" d="M935.07,200.33v-20h58.79v20h0c0,4.34-2.87,8.69-8.61,12-11.48,6.63-30.09,6.63-41.57,0-5.74-3.31-8.61-7.66-8.61-12Z"/>
      <path class="cls-3" d="M943.68,192.33c11.48,6.63,30.09,6.63,41.57,0,11.48-6.63,11.48-17.37,0-24-11.48-6.63-30.09-6.63-41.57,0-11.48,6.63-11.48,17.37,0,24Z"/>
    </g>
    <path class="cls-1" d="M797.08,598.66v-20h58.79v20h0c0,4.34-2.87,8.69-8.61,12-11.48,6.63-30.09,6.63-41.57,0-5.74-3.31-8.61-7.66-8.61-12Z"/>
    <g>
      <path class="cls-1" d="M797.08,519v-20h58.79v20h0c0,4.34-2.87,8.69-8.61,12-11.48,6.63-30.09,6.63-41.57,0-5.74-3.31-8.61-7.66-8.61-12Z"/>
      <path class="cls-3" d="M805.69,511c11.48,6.63,30.09,6.63,41.57,0,11.48-6.63,11.48-17.37,0-24-11.48-6.63-30.09-6.63-41.57,0-11.48,6.63-11.48,17.37,0,24Z"/>
    </g>
    <g>
      <path class="cls-1" d="M797.08,439.33v-20h58.79v20h0c0,4.34-2.87,8.69-8.61,12-11.48,6.63-30.09,6.63-41.57,0-5.74-3.31-8.61-7.66-8.61-12Z"/>
      <path class="cls-3" d="M805.69,431.33c11.48,6.63,30.09,6.63,41.57,0,11.48-6.63,11.48-17.37,0-24-11.48-6.63-30.09-6.63-41.57,0-11.48,6.63-11.48,17.37,0,24Z"/>
    </g>
    <g>
      <path class="cls-1" d="M797.08,359.66v-20h58.79v20h0c0,4.34-2.87,8.69-8.61,12-11.48,6.63-30.09,6.63-41.57,0-5.74-3.31-8.61-7.66-8.61-12Z"/>
      <path class="cls-3" d="M805.69,351.67c11.48,6.63,30.09,6.63,41.57,0,11.48-6.63,11.48-17.37,0-24-11.48-6.63-30.09-6.63-41.57,0-11.48,6.63-11.48,17.37,0,24Z"/>
    </g>
    <g>
      <path class="cls-1" d="M797.08,280v-20h58.79v20h0c0,4.34-2.87,8.69-8.61,12-11.48,6.63-30.09,6.63-41.57,0-5.74-3.31-8.61-7.66-8.61-12Z"/>
      <path class="cls-3" d="M805.69,272c11.48,6.63,30.09,6.63,41.57,0,11.48-6.63,11.48-17.37,0-24-11.48-6.63-30.09-6.63-41.57,0-11.48,6.63-11.48,17.37,0,24Z"/>
    </g>
    <g>
      <path class="cls-1" d="M797.08,200.33v-20h58.79v20h0c0,4.34-2.87,8.69-8.61,12-11.48,6.63-30.09,6.63-41.57,0-5.74-3.31-8.61-7.66-8.61-12Z"/>
      <path class="cls-3" d="M805.69,192.33c11.48,6.63,30.09,6.63,41.57,0,11.48-6.63,11.48-17.37,0-24-11.48-6.63-30.09-6.63-41.57,0-11.48,6.63-11.48,17.37,0,24Z"/>
    </g>
    <g>
      <path class="cls-1" d="M797.08,120.67v-20h58.79v20h0c0,4.34-2.87,8.69-8.61,12-11.48,6.63-30.09,6.63-41.57,0-5.74-3.31-8.61-7.66-8.61-12Z"/>
      <path class="cls-3" d="M805.69,112.67c11.48,6.63,30.09,6.63,41.57,0,11.48-6.63,11.48-17.37,0-24-11.48-6.63-30.09-6.63-41.57,0-11.48,6.63-11.48,17.37,0,24Z"/>
    </g>
    <g>
      <path class="cls-1" d="M1142.05,479.16v-20h58.79v20h0c0,4.34-2.87,8.69-8.61,12-11.48,6.63-30.09,6.63-41.57,0-5.74-3.31-8.61-7.66-8.61-12Z"/>
      <path class="cls-3" d="M1150.66,471.17c11.48,6.63,30.09,6.63,41.57,0,11.48-6.63,11.48-17.37,0-24-11.48-6.63-30.09-6.63-41.57,0-11.48,6.63-11.48,17.37,0,24Z"/>
    </g>
    <g>
      <path class="cls-1" d="M1211.04,439.33v-20h58.79v20h0c0,4.34-2.87,8.69-8.61,12-11.48,6.63-30.09,6.63-41.57,0-5.74-3.31-8.61-7.66-8.61-12Z"/>
      <path class="cls-3" d="M1219.65,431.33c11.48,6.63,30.09,6.63,41.57,0,11.48-6.63,11.48-17.37,0-24-11.48-6.63-30.09-6.63-41.57,0-11.48,6.63-11.48,17.37,0,24Z"/>
    </g>
    <g>
      <path class="cls-1" d="M1280.03,399.5v-20h58.79v20h0c0,4.34-2.87,8.69-8.61,12-11.48,6.63-30.09,6.63-41.57,0-5.74-3.31-8.61-7.66-8.61-12Z"/>
      <path class="cls-3" d="M1288.64,391.5c11.48,6.63,30.09,6.63,41.57,0,11.48-6.63,11.48-17.37,0-24-11.48-6.63-30.09-6.63-41.57,0-11.48,6.63-11.48,17.37,0,24Z"/>
    </g>
    <g>
      <path class="cls-1" d="M1211.04,359.67v-20h58.79v20h0c0,4.34-2.87,8.69-8.61,12-11.48,6.63-30.09,6.63-41.57,0-5.74-3.31-8.61-7.66-8.61-12Z"/>
      <path class="cls-3" d="M1219.65,351.67c11.48,6.63,30.09,6.63,41.57,0,11.48-6.63,11.48-17.37,0-24-11.48-6.63-30.09-6.63-41.57,0-11.48,6.63-11.48,17.37,0,24Z"/>
    </g>
    <g>
      <path class="cls-1" d="M1142.05,399.5v-20h58.79v20h0c0,4.34-2.87,8.69-8.61,12-11.48,6.63-30.09,6.63-41.57,0-5.74-3.31-8.61-7.66-8.61-12Z"/>
      <path class="cls-3" d="M1150.66,391.5c11.48,6.63,30.09,6.63,41.57,0,11.48-6.63,11.48-17.37,0-24-11.48-6.63-30.09-6.63-41.57,0-11.48,6.63-11.48,17.37,0,24Z"/>
    </g>
    <g>
      <path class="cls-1" d="M1142.05,319.83v-20h58.79v20h0c0,4.34-2.87,8.69-8.61,12-11.48,6.63-30.09,6.63-41.57,0-5.74-3.31-8.61-7.66-8.61-12Z"/>
      <path class="cls-3" d="M1150.66,311.83c11.48,6.63,30.09,6.63,41.57,0,11.48-6.63,11.48-17.37,0-24-11.48-6.63-30.09-6.63-41.57,0-11.48,6.63-11.48,17.37,0,24Z"/>
    </g>
    <g>
      <path class="cls-1" d="M659.1,678.33v-20h58.79v20h0c0,4.34-2.87,8.69-8.61,12-11.48,6.63-30.09,6.63-41.57,0-5.74-3.31-8.61-7.66-8.61-12Z"/>
      <path class="cls-3" d="M667.71,670.33c11.48,6.63,30.09,6.63,41.57,0,11.48-6.63,11.48-17.37,0-24-11.48-6.63-30.09-6.63-41.57,0-11.48,6.63-11.48,17.37,0,24Z"/>
    </g>
    <path class="cls-1" d="M521.11,598.66v-20h58.79v20h0c0,4.34-2.87,8.69-8.61,12-11.48,6.63-30.09,6.63-41.57,0-5.74-3.31-8.61-7.66-8.61-12Z"/>
    <g>
      <path class="cls-1" d="M728.09,718.16v-20h58.79v20h0c0,4.34-2.87,8.69-8.61,12-11.48,6.63-30.09,6.63-41.57,0-5.74-3.31-8.61-7.66-8.61-12Z"/>
      <path class="cls-3" d="M736.7,710.16c11.48,6.63,30.09,6.63,41.57,0,11.48-6.63,11.48-17.37,0-24-11.48-6.63-30.09-6.63-41.57,0-11.48,6.63-11.48,17.37,0,24Z"/>
    </g>
    <path class="cls-1" d="M590.1,638.5v-20h58.79v20h0c0,4.34-2.87,8.69-8.61,12-11.48,6.63-30.09,6.63-41.57,0-5.74-3.31-8.61-7.66-8.61-12Z"/>
  </g>
  <path class="cls-3" d="M667.71,351.67c11.48,6.63,30.09,6.63,41.57,0,11.48-6.63,11.48-17.37,0-24-11.48-6.63-30.09-6.63-41.57,0-11.48,6.63-11.48,17.37,0,24Z"/>
  <path class="cls-3" d="M391.73,511c11.48,6.63,30.09,6.63,41.57,0,11.48-6.63,11.48-17.37,0-24-11.48-6.63-30.09-6.63-41.57,0-11.48,6.63-11.48,17.37,0,24Z"/>
  <path class="cls-3" d="M253.74,431.33c11.48,6.63,30.09,6.63,41.57,0,11.48-6.63,11.48-17.37,0-24-11.48-6.63-30.09-6.63-41.57,0-11.48,6.63-11.48,17.37,0,24Z"/>
  <path class="cls-3" d="M736.7,630.5c11.48,6.63,30.09,6.63,41.57,0,11.48-6.63,11.48-17.37,0-24s-30.09-6.63-41.57,0c-11.48,6.63-11.48,17.37,0,24Z"/>
  <path class="cls-3" d="M460.72,550.83c11.48,6.63,30.09,6.63,41.57,0,11.48-6.63,11.48-17.37,0-24-11.48-6.63-30.09-6.63-41.57,0-11.48,6.63-11.48,17.37,0,24Z"/>
  <path class="cls-3" d="M322.74,471.17c11.48,6.63,30.09,6.63,41.57,0,11.48-6.63,11.48-17.37,0-24-11.48-6.63-30.09-6.63-41.57,0-11.48,6.63-11.48,17.37,0,24Z"/>
  <path class="cls-3" d="M874.68,550.83c11.48,6.63,30.09,6.63,41.57,0,11.48-6.63,11.48-17.37,0-24-11.48-6.63-30.09-6.63-41.57,0-11.48,6.63-11.48,17.37,0,24Z"/>
  <path class="cls-3" d="M1012.67,471.17c11.48,6.63,30.09,6.63,41.57,0,11.48-6.63,11.48-17.37,0-24s-30.09-6.63-41.57,0c-11.48,6.63-11.48,17.37,0,24Z"/>
  <path class="cls-3" d="M1081.66,431.33c11.48,6.63,30.09,6.63,41.57,0,11.48-6.63,11.48-17.37,0-24-11.48-6.63-30.09-6.63-41.57,0-11.48,6.63-11.48,17.37,0,24Z"/>
  <path class="cls-3" d="M943.68,511c11.48,6.63,30.09,6.63,41.57,0,11.48-6.63,11.48-17.37,0-24-11.48-6.63-30.09-6.63-41.57,0-11.48,6.63-11.48,17.37,0,24Z"/>
  <path class="cls-3" d="M805.69,590.67c11.48,6.63,30.09,6.63,41.57,0,11.48-6.63,11.48-17.37,0-24-11.48-6.63-30.09-6.63-41.57,0-11.48,6.63-11.48,17.37,0,24Z"/>
  <path class="cls-3" d="M529.72,590.66c11.48,6.63,30.09,6.63,41.57,0,11.48-6.63,11.48-17.37,0-24-11.48-6.63-30.09-6.63-41.57,0-11.48,6.63-11.48,17.37,0,24Z"/>
  <path class="cls-3" d="M598.71,630.5c11.48,6.63,30.09,6.63,41.57,0,11.48-6.63,11.48-17.37,0-24s-30.09-6.63-41.57,0c-11.48,6.63-11.48,17.37,0,24Z"/>
</svg>