<svg width="420" height="417" viewBox="0 0 420 417" fill="none" xmlns="http://www.w3.org/2000/svg">
<path d="M0.0159703 363.243C-0.19403 352.023 1.82606 341.063 4.10606 330.153C24.4361 232.763 74.4562 152.883 147.456 86.4332C182.736 54.3232 220.186 25.6132 265.946 9.98319C308.316 -4.48681 349.656 -5.74681 387.256 23.2532C416.606 45.8932 426.386 77.1932 414.576 112.493C401.756 150.833 376.766 179.213 340.956 198.043C320.086 209.023 297.786 216.453 275.556 223.873C225.436 240.603 184.636 268.493 158.276 315.853C146.886 336.323 132.456 355.073 116.876 372.743C103.846 387.533 88.8161 399.763 70.9361 408.343C29.2761 428.333 -0.493795 409.433 0.00620466 363.223L0.0159703 363.243Z" fill="#ffffff"/>
</svg>
