<svg width="461" height="459" viewBox="0 0 461 459" fill="none" xmlns="http://www.w3.org/2000/svg">
<path d="M0.359878 211.174C0.909878 200.444 1.57987 189.714 1.97987 178.974C3.32987 142.494 19.2599 113.544 46.7299 90.0944C93.4399 50.2244 147.38 25.2343 206.73 10.9943C258.55 -1.43566 310.54 -4.97558 362.57 9.07442C428.91 26.9844 464.16 77.1044 460.31 145.794C456.54 212.964 429.25 271.004 391.44 324.864C366.69 360.124 340.84 395.124 304.26 419.004C252.43 452.834 196.3 469.374 134.22 451.744C105.41 443.564 81.4799 427.254 62.7499 404.124C17.2499 347.924 -3.01012 283.284 0.359878 211.184V211.174Z" fill="#ffffff"/>
</svg>
