<svg width="362" height="526" viewBox="0 0 362 526" fill="none" xmlns="http://www.w3.org/2000/svg">
<path d="M361.32 170.154C356.33 264.784 340.07 357.314 308.7 446.954C303.17 462.764 295.67 477.724 285.3 491.024C264.05 518.274 236.28 529.244 202.14 523.854C170.32 518.834 142.48 504.634 116.67 486.064C86.4401 464.314 59.8601 438.784 36.4201 409.734C3.11009 368.464 -7.6195 323.154 5.3405 271.114C25.3005 190.954 63.1003 120.604 118.18 59.6138C142.68 32.4838 170.96 9.84384 208.45 2.63384C275.66 -10.2862 333.05 25.1437 351.15 90.9737C354.2 102.074 356.68 113.424 358.16 124.824C360.12 139.804 362.09 154.864 361.32 170.144V170.154Z" fill="#ffffff"/>
</svg>
