<svg width="458" height="319" viewBox="0 0 458 319" fill="none" xmlns="http://www.w3.org/2000/svg">
<path d="M248.68 318.439C194.13 318.929 148.58 307.309 108.97 277.189C87.1299 260.579 71.1098 238.559 56.8698 215.449C39.7698 187.709 22.3697 160.049 9.5397 129.939C2.2797 112.899 -2.44026 95.2594 1.32974 76.5194C5.89974 53.7994 20.4997 38.5294 39.5497 27.0594C74.7897 5.83941 113.44 -2.58059 154.03 0.679409C253.27 8.64941 340.62 47.2694 419.43 106.689C436.22 119.349 449.78 134.899 455.72 155.639C460.59 172.639 456.07 188.899 449.43 204.399C435.53 236.829 413.16 262.269 382.91 280.349C339.98 306.019 293.58 319.549 248.67 318.429L248.68 318.439Z" fill="#ffffff"/>
</svg>
