<svg width="475" height="425" viewBox="0 0 475 425" fill="none" xmlns="http://www.w3.org/2000/svg">
<path d="M289.663 0.0100002C338.123 0.51 379.293 7.59 417.023 29.09C466.233 57.13 484.723 102.47 468.783 156.79C457.933 193.76 437.513 225.48 412.713 254.35C346.993 330.86 268.013 387.97 170.423 417.03C144.943 424.62 118.763 427.38 92.633 420.6C55.143 410.87 31.843 384.96 18.713 350.12C-8.25696 278.56 -5.99718 206.17 24.9928 137.34C48.5928 84.93 90.7828 48.17 145.953 28.06C194.243 10.46 244.093 1.63 289.673 0L289.663 0.0100002Z" fill="#ffffff"/>
</svg>
