<svg width="224" height="431" viewBox="0 0 224 431" fill="none" xmlns="http://www.w3.org/2000/svg">
<path d="M153.401 0.0290285C192.291 0.369028 218.191 31.309 214.971 73.189C212.941 99.669 204.881 124.579 195.981 149.289C185.621 178.069 174.411 206.479 167.321 236.429C161.351 261.629 163.911 285.179 174.351 308.449C183.031 327.809 193.381 345.979 208.181 361.459C218.931 372.709 228.501 385.049 220.471 401.749C211.871 419.629 197.131 429.719 177.131 430.589C160.721 431.309 145.161 426.139 132.041 417.109C50.8514 361.219 0.371339 285.049 0.00133863 185.459C-0.278661 108.659 43.3914 52.029 107.821 12.019C121.461 3.54903 137.041 -0.380972 153.391 0.0290285H153.401Z" fill="#ffffff"/>
</svg>
