<svg width="395" height="420" viewBox="0 0 395 420" fill="none" xmlns="http://www.w3.org/2000/svg">
<path d="M202.704 0C242.854 0.57 283.615 6.26997 322.025 23.47C362.705 41.68 388.714 71.8899 394.164 117.03C397.574 145.28 388.104 171.23 375.764 196.08C358.294 231.27 334.575 262.14 308.405 291.17C277.715 325.21 245.675 357.91 208.945 385.55C184.005 404.32 156.054 415.89 124.704 419.02C76.1144 423.87 41.4044 397.88 31.9144 349.79C26.6844 323.33 29.1847 296.59 27.9647 270C26.6747 241.84 21.4544 214.19 11.1844 188.57C-20.5756 109.31 19.4043 55.98 79.5643 25.26C117.544 5.87001 158.944 0.43 202.704 0Z" fill="#ffffff"/>
</svg>
