<svg width="452" height="461" viewBox="0 0 452 461" fill="none" xmlns="http://www.w3.org/2000/svg">
<path d="M451.493 195.42C450.283 250.06 445.663 299.86 430.713 348.25C403.583 436.07 347.913 468.56 259.423 458.46C183.673 449.82 114.363 420.16 49.7634 380.08C30.2434 367.97 14.0134 352.01 5.18339 330.04C-0.926608 314.84 -1.02661 299.34 1.75339 283.16C12.5634 220.41 42.9334 168.58 87.7234 124.24C143.163 69.3496 204.853 24.9396 282.093 6.00962C303.523 0.759621 325.323 -2.04039 347.183 1.74961C390.623 9.28961 417.493 36.9596 433.013 76.4396C448.553 115.99 450.403 157.88 451.493 195.41V195.42Z" fill="#ffffff"/>
</svg>
