<svg width="479" height="530" viewBox="0 0 479 530" fill="none" xmlns="http://www.w3.org/2000/svg">
<path d="M478.249 376.668C478.599 420.878 469.949 458.218 441.449 487.548C403.409 526.688 355.449 536.798 303.999 524.818C217.029 504.578 147.139 455.038 87.0788 390.698C51.5588 352.648 25.2588 308.898 11.1888 258.458C-5.31125 199.328 -3.22123 140.408 15.2088 82.0878C23.8388 54.7678 41.2587 35.978 67.0287 21.528C130.199 -13.882 190.669 -1.08215 250.669 27.3378C321.479 60.8778 371.539 116.928 411.939 182.238C441.349 229.788 464.599 280.168 474.249 335.888C476.829 350.808 478.599 365.808 478.259 376.668H478.249Z" fill="#ffffff"/>
</svg>
