<svg width="408" height="427" viewBox="0 0 408 427" fill="none" xmlns="http://www.w3.org/2000/svg">
<path d="M407.244 179.031C404.254 244.161 392.354 306.961 357.734 363.631C346.214 382.491 332.225 399.311 313.615 411.621C283.585 431.481 252.205 430.701 220.375 416.441C195.785 405.421 174.054 389.851 154.474 371.631C107.214 327.661 60.6344 283.021 27.2244 226.791C16.6144 208.931 6.48457 190.871 2.39457 170.301C-6.78543 124.131 10.9245 88.1405 47.0245 60.8105C86.8845 30.6305 133.455 15.6006 181.935 6.39056C213.295 0.43056 244.894 -1.6995 276.974 1.4505C327.154 6.3805 361.854 32.5006 384.224 76.4006C400.604 108.551 407.994 142.891 407.244 179.041V179.031Z" fill="#ffffff"/>
</svg>
