<svg width="439" height="384" viewBox="0 0 439 384" fill="none" xmlns="http://www.w3.org/2000/svg">
<path d="M0.761111 206.185C-2.15889 168.785 2.98124 131.755 22.1412 97.7251C47.2112 53.2151 86.7912 26.8952 134.641 13.0452C204.101 -7.06481 273.211 -3.84482 340.671 22.1552C390.041 41.1852 424.711 74.3552 435.671 128.315C447.241 185.325 420.671 246.145 370.911 276.285C348.621 289.785 324.691 299.795 299.441 305.545C252.171 316.295 209.821 336.555 170.041 364.165C124.551 395.735 77.9213 388.155 41.6613 346.055C25.8113 327.645 15.1913 306.475 8.94129 283.065C2.31129 258.225 1.7411 232.735 0.751101 206.195L0.761111 206.185Z" fill="#ffffff"/>
</svg>
