<svg width="523" height="327" viewBox="0 0 523 327" fill="none" xmlns="http://www.w3.org/2000/svg">
<path d="M177.705 79.8858C201.965 81.0558 225.975 81.8959 249.675 73.6659C269.985 66.6159 285.775 55.5959 294.425 35.5359C307.595 5.00587 321.285 -11.1742 368.035 8.81584C408.375 26.0658 437.485 56.4459 458.065 94.4259C476.245 127.976 492.695 162.506 508.995 197.026C518.765 217.726 524.955 239.816 520.865 262.996C513.735 303.466 470.965 331.326 425.795 326.136C398.185 322.966 373.645 312.366 351.295 296.356C339.335 287.786 327.585 278.866 316.165 269.586C275.275 236.376 228.585 222.756 176.175 225.696C142.425 227.586 108.885 232.946 74.9352 231.646C61.2352 231.126 48.055 228.726 35.565 223.086C-0.514954 206.796 -10.605 170.676 12.055 138.106C26.915 116.736 47.955 103.426 72.035 94.7558C106.185 82.4458 141.565 78.3258 177.705 79.8758V79.8858Z" fill="#ffffff"/>
</svg>
