<svg width="502" height="337" viewBox="0 0 502 337" fill="none" xmlns="http://www.w3.org/2000/svg">
<path d="M312.486 336.755C262.506 335.375 213.416 328.825 166.656 309.885C135.856 297.415 109.606 278.645 87.9157 253.345C69.7757 232.195 51.2658 211.365 32.7358 190.555C-8.22421 144.525 -10.8742 90.3451 25.5058 40.4551C54.2758 1.00515 93.9257 -5.43483 138.376 3.60517C173.706 10.7952 205.826 26.5651 233.776 48.3251C276.176 81.3251 324.416 93.6752 376.326 99.6052C396.076 101.855 416.276 104.535 435.816 109.695C487.236 123.285 514.656 174.375 495.916 224.285C471.346 289.735 422.446 324.895 354.156 334.605C347.076 335.615 339.916 336.305 332.776 336.675C326.026 337.025 319.246 336.745 312.476 336.745L312.486 336.755Z" fill="#ffffff"/>
</svg>
