<svg width="337" height="351" viewBox="0 0 337 351" fill="none" xmlns="http://www.w3.org/2000/svg">
<path d="M335.795 142.435C336.975 179.075 337.945 215.725 330.155 251.875C324.135 279.805 313.605 305.865 295.445 328.315C279.535 347.975 259.195 356.085 235.035 346.885C204.015 335.075 173.325 335.865 141.315 342.365C87.2149 353.345 40.1149 328.915 22.2149 276.975C2.92487 221.005 -6.61514 162.865 5.14486 103.285C6.13486 98.245 7.88485 93.2951 9.75485 88.4951C27.6448 42.5251 59.2348 29.8851 103.435 51.4451C118.085 58.5951 131.985 67.2351 146.465 74.7351C176.235 90.1751 185.745 88.195 206.865 62.465C218.995 47.685 230.815 32.6651 245.895 20.6151C254.965 13.3651 264.575 7.09508 275.335 2.63508C287.315 -2.33492 298.125 -0.224949 307.305 8.54505C323.695 24.1951 333.955 43.0151 335.495 66.0551C336.345 78.7751 336.735 91.445 335.965 104.225C335.195 116.925 335.795 129.705 335.795 142.445V142.435Z" fill="#ffffff"/>
</svg>
