<svg width="214" height="409" viewBox="0 0 214 409" fill="none" xmlns="http://www.w3.org/2000/svg">
<path d="M213.055 338.597C213.205 357.937 208.905 375.777 196.865 391.267C182.205 410.127 161.435 414.077 140.735 401.987C127.715 394.387 118.085 383.367 109.675 371.097C85.3446 335.607 73.7845 294.997 64.0145 253.977C49.1645 191.607 31.6946 130.167 6.40456 71.1266C4.99456 67.8466 3.93454 64.4066 2.88454 60.9966C-8.79546 22.9766 16.2346 -5.79341 55.5946 0.996589C86.1946 6.27659 109.655 23.3166 127.715 48.0166C154.845 85.1266 168.405 127.977 177.575 172.177C187.575 220.397 197.165 268.667 210.345 316.167C212.335 323.347 212.205 331.117 213.055 338.607V338.597Z" fill="#ffffff"/>
</svg>
