<svg width="339" height="524" viewBox="0 0 339 524" fill="none" xmlns="http://www.w3.org/2000/svg">
<path d="M338.86 371.078C338.15 391.508 335.35 415.128 327.16 437.868C300.93 510.728 230 541.958 158.05 513.238C96.17 488.538 58.14 440.938 32.59 382.398C4.54 318.138 -5.53 250.918 2.87 180.568C7.23 144.078 9.92 107.698 25.35 73.7678C36.21 49.8878 50.4 28.5379 72.81 13.7979C110.95 -11.3021 147.78 -1.72208 167.95 38.9879C174.64 52.4979 180.31 66.5679 185.67 80.6779C198.32 113.938 217.07 143.028 242.47 168.028C267.2 192.368 290.52 217.908 307.22 248.788C327.2 285.718 338.88 328.958 338.84 371.098L338.86 371.078Z" fill="#ffffff"/>
</svg>
