<svg width="433" height="306" viewBox="0 0 433 306" fill="none" xmlns="http://www.w3.org/2000/svg">
<path d="M432.1 132.93C431.74 233.78 335.94 317.54 236.47 303.94C218.44 301.48 202.1 294.24 186.25 285.8C136.76 259.42 88.1298 231.42 37.3498 207.47C29.8098 203.92 22.6598 199.57 16.2998 193.99C-3.61024 176.51 -5.4002 154.58 11.5898 134C21.7798 121.65 35.3598 114.31 49.7098 108.05C74.5998 97.1899 100.83 90.5099 127.02 83.8899C152.7 77.3999 175.13 65.6899 194.28 47.2399C222.34 20.2099 254.96 1.93987 294.7 0.149874C372.48 -3.35013 432.37 54.8499 432.09 132.94L432.1 132.93Z" fill="#ffffff"/>
</svg>
