<svg width="521" height="433" viewBox="0 0 521 433" fill="none" xmlns="http://www.w3.org/2000/svg">
<path d="M520.863 148.694C520.423 194.274 500.813 232.294 473.733 267.254C443.963 305.684 405.423 332.894 360.813 350.814C298.903 375.684 236.713 399.874 174.543 424.044C104.243 451.384 21.2331 406.104 2.77308 333.394C-3.90692 307.104 1.84318 282.974 16.1332 260.494C37.1532 227.424 67.2132 203.674 99.3832 182.904C134.323 160.344 163.483 132.073 189.773 100.333C207.863 78.5035 227.503 58.0836 250.303 41.2036C296.993 6.65358 348.893 -8.8565 406.443 5.1135C471.383 20.8835 520.753 84.1036 520.863 148.694Z" fill="#ffffff"/>
</svg>
