<svg width="432" height="423" viewBox="0 0 432 423" fill="none" xmlns="http://www.w3.org/2000/svg">
<path d="M221.49 0C291.73 0.68 349.7 28.63 395.26 81.23C432.39 124.11 438.609 175.25 426.019 228.52C407.039 308.76 358.27 366.96 286.39 405.6C258.23 420.74 227.259 426.47 194.999 420.41C159.059 413.66 137.41 391.84 128.28 357.02C125.26 345.49 123.22 333.7 120.33 322.14C111.45 286.65 92.7595 258.1 60.8295 239.08C47.4595 231.11 34.6195 222.48 23.5795 211.35C-1.53047 186.01 -6.76056 160.94 8.72944 128.77C33.5794 77.17 73.2599 40.41 125.92 18.43C156.25 5.76999 188.41 0.0900195 221.49 0.0200195V0Z" fill="#ffffff"/>
</svg>
