<svg width="323" height="464" viewBox="0 0 323 464" fill="none" xmlns="http://www.w3.org/2000/svg">
<path d="M322.15 308.774C319.42 339.814 321.37 374.974 315.7 409.694C309.73 446.244 289.35 464.914 252.17 463.874C183.66 461.944 123.86 436.284 71.0503 393.444C55.8803 381.144 42.1403 367.344 29.5403 352.354C3.88027 321.804 -5.48978 288.014 3.11022 248.094C14.4402 195.534 41.2402 150.794 69.9702 106.904C89.6502 76.8444 113.15 49.7843 140.97 26.7543C193.55 -16.7657 249.75 -6.52569 284.05 52.6143C300.75 81.4143 307.48 113.344 312.64 145.534C321.09 198.294 323.7 251.524 322.15 308.774Z" fill="#ffffff"/>
</svg>
