<svg width="451" height="341" viewBox="0 0 451 341" fill="none" xmlns="http://www.w3.org/2000/svg">
<path d="M263.488 340.387C199.968 340.457 144.618 336.287 91.5082 316.777C82.5782 313.497 74.0481 309.147 65.1881 305.647C8.61813 283.327 -11.1718 235.477 5.96816 176.357C15.7182 142.717 33.6982 113.827 58.0482 89.1266C106.738 39.7266 164.348 7.36661 234.508 0.846606C296.368 -4.89339 345.758 18.6967 383.248 67.2867C414.238 107.457 436.338 152.277 446.908 202.087C460.238 264.887 434.268 306.967 372.638 324.287C355.398 329.127 337.938 333.117 320.178 335.187C298.848 337.667 277.398 339.137 263.498 340.367L263.488 340.387Z" fill="#ffffff"/>
</svg>
