<svg width="591" height="337" viewBox="0 0 591 337" fill="none" xmlns="http://www.w3.org/2000/svg">
<path d="M367.489 0C421.069 0.44 471.099 7.35003 518.039 30.03C555.449 48.11 581.159 75.85 588.429 117.51C595.099 155.7 583.589 189.77 560.939 220.63C526.459 267.61 478.829 295.28 424.399 311.73C322.369 342.58 219.049 345.11 115.709 319.45C78.4188 310.19 43.8389 293.57 18.8389 262.13C-4.39115 232.92 -5.22117 202.06 11.3188 169.55C27.4188 137.91 50.9588 112.95 79.8988 92.99C167.099 32.85 263.639 1.57001 367.479 0.0100098L367.489 0Z" fill="#ffffff"/>
</svg>
