<svg width="99" height="337" viewBox="0 0 99 337" fill="none" xmlns="http://www.w3.org/2000/svg">
<path d="M98.7212 87.0904C95.7212 152.86 93.5312 210.59 79.4012 266.94C74.5612 286.21 69.2412 305.53 56.6112 321.63C45.6112 335.64 34.6112 339.05 20.3512 334.17C10.8712 330.93 6.92118 324.57 4.85118 315.11C-3.86882 275.27 0.39114 235.82 8.00114 196.56C17.0811 149.72 24.0912 102.46 36.2412 56.2304C39.4812 43.9004 43.2211 31.7704 48.0711 19.9804C50.8711 13.1804 55.0112 7.54043 61.5212 3.76043C75.1712 -4.16957 88.9312 0.740432 93.9712 15.6804C97.0412 24.7704 98.6312 34.2104 98.6812 43.8104C98.7912 60.9404 98.7112 78.0604 98.7112 87.0804L98.7212 87.0904Z" fill="#ffffff"/>
</svg>
