<svg width="238" height="443" viewBox="0 0 238 443" fill="none" xmlns="http://www.w3.org/2000/svg">
<path d="M237.515 93.36C236.155 203.46 208.695 304.85 135.235 390.14C113.325 415.57 88.7553 437.13 53.4953 441.78C16.9753 446.6 -6.72476 420.76 1.70524 384.8C7.36524 360.64 19.8152 339.71 35.1252 320.77C67.5552 280.65 95.7052 237.91 116.675 190.76C136.135 147 152.035 102.14 153.805 53.46C154.215 42.3 157.525 31.5 162.325 21.36C168.155 9.04 177.265 1.01 191.565 0.09C207.045 -0.9 218.525 5.39 226.225 18.72C234.445 32.94 235.795 48.94 237.345 64.72C238.275 74.18 237.515 83.8 237.515 93.35V93.36Z" fill="#ffffff"/>
</svg>
