<svg width="265" height="266" viewBox="0 0 265 266" fill="none" xmlns="http://www.w3.org/2000/svg">
<path d="M68.9035 0C105.124 0.67 138.734 6.27 171.344 17.48C185.124 22.22 197.663 29.61 207.203 40.48C254.703 94.59 273.034 157.25 260.654 228.48C259.554 234.79 256.974 240.64 253.714 246.16C242.964 264.41 225.213 270.4 205.643 262.41C194.753 257.96 185.794 250.77 177.544 242.58C137.614 202.99 102.813 158.8 65.1135 117.2C49.6035 100.09 34.2135 82.86 19.0835 65.42C11.7835 57.01 4.95351 48.15 1.58351 37.22C-3.80649 19.79 4.8635 5.77 23.0235 3.73C38.8335 1.96 54.7535 1.11 68.9135 0H68.9035Z" fill="#ffffff"/>
</svg>
