<svg width="441" height="500" viewBox="0 0 441 500" fill="none" xmlns="http://www.w3.org/2000/svg">
<path d="M439.876 302.091C441.216 346.821 439.496 391.271 423.136 433.761C406.776 476.241 375.826 497.951 330.086 499.001C280.936 500.121 233.796 488.621 186.736 476.781C152.016 468.051 117.506 458.321 84.8762 443.231C24.7062 415.401 -2.47371 371.191 0.176287 305.821C0.976287 286.131 5.53627 267.011 13.1563 249.051C48.0363 166.861 98.3264 95.4513 165.526 36.4313C185.506 18.8913 208.726 6.98127 235.266 1.65127C248.596 -1.02873 261.376 -0.428682 274.106 3.32132C350.356 25.8013 398.226 75.8413 419.346 152.301C432.886 201.351 439.946 251.171 439.886 302.081L439.876 302.091Z" fill="#ffffff"/>
</svg>
