<svg width="523" height="482" viewBox="0 0 523 482" fill="none" xmlns="http://www.w3.org/2000/svg">
<path d="M285.837 481.76C217.927 480.95 151.157 471 85.077 455.86C78.137 454.27 71.2673 452.13 64.5873 449.65C17.0073 431.96 -4.3628 398.41 0.737196 347.77C5.4372 301.06 20.7869 257.01 37.1869 213.46C59.7069 153.63 87.5172 96.5196 129.257 47.2796C140.887 33.5596 154.017 21.3996 169.757 12.3396C195.197 -2.30041 221.127 -3.49041 248.847 6.52959C293.877 22.8096 332.357 48.4896 366.307 81.9196C418.247 133.08 463.227 189.47 497.107 254.21C511.987 282.64 521.947 312.67 522.457 345.34C523.127 388.15 504.587 420.41 469.227 443.35C438.847 463.06 404.267 470.71 369.177 476.25C341.607 480.6 313.777 481.91 285.837 481.76Z" fill="#ffffff"/>
</svg>
