<svg width="493" height="397" viewBox="0 0 493 397" fill="none" xmlns="http://www.w3.org/2000/svg">
<path d="M308.883 396.75C235.043 394.73 154.733 373.61 80.843 329.72C61.553 318.26 44.363 304.09 29.663 287.05C-3.73703 248.33 -9.077 206.37 14.383 160.95C39.043 113.2 77.743 78.5301 121.793 49.5201C156.513 26.6601 193.143 7.50002 235.123 1.43002C269.623 -3.55998 300.773 4.80006 331.063 21.9701C400.103 61.1201 442.143 121.58 470.953 193.21C480.783 217.66 488.803 242.67 491.593 268.97C498.023 329.56 466.203 372.1 403.503 387.41C376.283 394.06 348.643 396.93 308.883 396.76V396.75Z" fill="#ffffff"/>
</svg>
