<svg width="532" height="499" viewBox="0 0 532 499" fill="none" xmlns="http://www.w3.org/2000/svg">
<path d="M360.691 498.25C337.751 498.63 315.061 495.26 293.821 487.43C237.501 466.66 180.931 467.66 123.591 481.43C107.361 485.33 90.8506 487.91 74.0506 488.37C29.3906 489.6 2.0507 464.1 0.130704 419.26C-1.1593 389.11 7.2606 361.06 18.2706 333.55C20.3406 328.38 22.2306 323.06 24.9906 318.27C54.3406 267.37 74.8105 212.93 90.9205 156.58C97.0305 135.2 105.93 114.6 117.16 95.2997C154.97 30.3297 211.871 -1.28032 286.841 0.0396807C312.061 0.479681 333.731 11.2098 353.211 26.6498C390.681 56.3698 415.281 95.1697 433.591 138.78C454.691 189.03 478.631 237.67 509.011 283.36C549.951 344.92 533.62 413.88 469.66 461.43C438.59 484.53 399.841 497.63 360.691 498.25Z" fill="#ffffff"/>
</svg>
