<svg width="526" height="429" viewBox="0 0 526 429" fill="none" xmlns="http://www.w3.org/2000/svg">
<path d="M319.9 373.596C294.95 373.916 272.4 382.717 250.46 393.447C218.88 408.887 186.56 421.937 151.49 427.227C83.6103 437.477 14.5503 392.256 1.19027 329.026C-2.47973 311.666 2.73026 296.717 11.4303 282.547C20.1703 268.317 30.0203 254.766 38.8303 240.576C55.3303 214.006 64.8403 185.326 64.2603 153.646C63.9403 135.706 65.4102 117.896 68.7902 100.206C81.0102 36.1565 147.74 10.9265 195.95 42.6565C221.33 59.3565 248.05 71.7565 279.6 69.3865C302.18 67.6965 323.15 60.8265 343.27 50.8065C372.78 36.1065 400.81 18.3465 432.24 7.6065C447.76 2.3065 463.44 -1.92351 480.14 0.906492C511.32 6.19649 529.08 30.7065 524.55 62.0465C521.18 85.3565 510.3 105.737 500 126.387C488.95 148.537 478.92 171.117 476.85 196.177C475.06 217.827 480.83 238.787 483.55 260.047C487.58 291.547 492.88 323.306 484.45 354.846C475.3 389.086 450.37 407.907 420.82 403.697C408.06 401.877 396.72 395.837 385.16 390.547C364.41 381.057 343.13 373.527 319.92 373.607L319.9 373.596Z" fill="#ffffff"/>
</svg>
