<svg width="516" height="504" viewBox="0 0 516 504" fill="none" xmlns="http://www.w3.org/2000/svg">
<path d="M0.0200195 360.532C8.99002 296.802 8.76992 225.562 25.6699 156.312C42.0799 89.0316 82.8799 44.5816 148.9 24.3316C230.47 -0.698359 313.31 -8.30835 397.42 10.4616C472.79 27.2816 513.58 78.6916 515.38 159.662C516.28 199.952 510.73 239.862 506.05 279.772C500.86 324.012 495.69 368.272 489.61 412.392C482.42 464.602 459.51 494.332 391.57 502.662C351.19 507.612 313.31 497.922 277.27 480.152C260.51 471.882 243.76 463.502 227.52 454.262C193.95 435.142 159.35 436.002 123.59 446.592C104.96 452.112 86.4502 458.352 66.9302 460.472C42.7702 463.112 24.1902 453.502 12.6802 431.912C1.83018 411.562 0.37 389.382 0 360.512L0.0200195 360.532Z" fill="#ffffff"/>
</svg>
