<svg width="418" height="441" viewBox="0 0 418 441" fill="none" xmlns="http://www.w3.org/2000/svg">
<path d="M417.768 294.464C417.688 321.504 413.748 347.694 404.218 372.964C387.508 417.304 353.918 438.004 308.128 440.614C266.468 442.994 227.858 430.404 190.618 413.514C129.648 385.854 77.858 345.024 30.618 298.304C13.758 281.634 0.788145 262.084 0.0381448 236.744C-0.711855 211.224 9.61811 191.284 29.2481 175.744C40.2681 167.014 52.758 160.744 65.908 156.034C101.968 143.104 128.478 119.084 148.488 86.9436C162.148 65.0136 175.248 42.6635 193.448 23.8935C219.938 -3.42648 247.888 -7.37628 280.488 12.3437C310.198 30.3137 331.088 56.9737 350.108 85.1037C392.868 148.334 414.408 218.524 417.758 294.474L417.768 294.464Z" fill="#ffffff"/>
</svg>
