<svg width="478" height="444" viewBox="0 0 478 444" fill="none" xmlns="http://www.w3.org/2000/svg">
<path d="M0.0100098 91.8566C0.73001 77.7866 1.25987 65.8166 4.36987 54.2266C12.7499 22.9866 37.1799 4.63657 74.4199 0.986567C109.8 -2.48343 144.26 3.7665 178.55 10.9165C234.17 22.5065 289.43 35.4665 343.43 53.5865C395.28 70.9765 431.72 106.277 459.96 151.057C479.56 182.137 480.93 216.457 471.89 251.317C454.92 316.777 420.44 370.847 365.13 410.457C301.33 456.137 217.81 453.727 147.32 404.947C112.68 380.967 85.0499 350.267 64.3899 313.817C25.0499 244.397 6.38 168.797 0 91.8766L0.0100098 91.8566Z" fill="#ffffff"/>
</svg>
