<svg width="254" height="339" viewBox="0 0 254 339" fill="none" xmlns="http://www.w3.org/2000/svg">
<path d="M253.639 88.2122C247.079 162.812 221.799 237.732 168.179 301.512C154.379 317.922 136.689 329.332 115.969 335.792C99.9293 340.792 84.4593 339.512 69.6893 331.872C20.4893 306.442 -12.8807 223.802 4.78925 171.452C10.9293 153.252 19.1092 135.922 30.6592 120.602C64.2692 76.0022 102.679 36.6422 153.819 11.7922C169.019 4.40225 184.839 -0.367753 201.999 0.0222466C224.049 0.512247 239.899 11.5822 247.139 32.3822C252.579 48.0022 253.299 64.3323 253.649 88.2223L253.639 88.2122Z" fill="#ffffff"/>
</svg>
