<svg width="493" height="375" viewBox="0 0 493 375" fill="none" xmlns="http://www.w3.org/2000/svg">
<path d="M0.0265075 153.94C-0.163493 91.1605 41.9664 34.7405 106.446 11.3905C151.646 -4.97954 195.656 -4.56954 239.116 18.2805C276.046 37.7005 313.466 56.6205 355.426 62.9405C374.676 65.8405 394.157 67.3505 413.567 69.0005C459.447 72.8905 486.027 98.9705 491.077 144.68C494.157 172.6 490.267 199.55 480.547 225.59C467.417 260.76 449.927 293.76 427.227 323.74C390.627 372.08 357.837 383.09 298.937 367.77C270.507 360.38 244.357 348.23 220.597 330.9C208.057 321.75 195.367 312.8 182.747 303.77C155.607 284.36 124.267 275.7 92.4166 268.14C52.8466 258.74 20.4767 240.16 7.01674 198.56C2.32674 184.07 -0.233258 169.23 0.0167418 153.96L0.0265075 153.94Z" fill="#ffffff"/>
</svg>
