<svg width="422" height="528" viewBox="0 0 422 528" fill="none" xmlns="http://www.w3.org/2000/svg">
<path d="M116.701 0.0794299C195.631 1.99943 271.021 20.8394 343.021 51.7894C403.411 77.7494 425.921 119.339 420.881 192.789C414.511 285.559 386.571 371.9 337.051 450.9C326.461 467.8 313.771 483.189 299.491 497.139C263.171 532.619 224.651 537.089 181.531 510.279C146.741 488.649 119.571 458.969 98.0112 424.629C40.3612 332.829 10.521 231.95 2.60101 124.24C1.47101 108.81 -1.96882 93.3095 1.53118 77.8695C11.8512 32.3895 41.9313 2.08947 96.4013 0.119469C103.161 -0.130531 109.931 0.0894397 116.701 0.0894397V0.0794299Z" fill="#ffffff"/>
</svg>
