<svg width="450" height="278" viewBox="0 0 450 278" fill="none" xmlns="http://www.w3.org/2000/svg">
<path d="M226.273 277.686C180.973 276.656 135.793 257.666 96.3428 223.846C51.5828 185.476 22.3828 137.006 3.8528 81.6662C-1.0472 67.0462 -1.28734 52.0762 3.21266 37.0362C11.6427 8.88618 34.1727 -4.72382 63.0327 1.47618C82.3327 5.62618 98.4027 15.0462 111.013 30.5362C120.543 42.2562 130.163 53.9962 140.773 64.7262C167.403 91.6562 191.073 93.6462 222.883 72.6662C239.593 61.6462 253.393 47.1862 268.523 34.2962C290.183 15.8462 314.223 2.31618 343.343 0.786183C410.653 -2.77382 461.933 60.3862 446.573 127.556C437.813 165.876 416.893 196.586 387.293 221.706C347.923 255.136 285.103 277.806 226.283 277.686H226.273Z" fill="#ffffff"/>
</svg>
