<svg width="470" height="333" viewBox="0 0 470 333" fill="none" xmlns="http://www.w3.org/2000/svg">
<path d="M318.001 0C341.451 0.64 367.252 1.66984 392.422 8.83984C443.332 23.3398 472.561 65.25 469.451 118.23C467.881 145.04 460.251 169.88 447.871 193.34C426.521 233.81 396.962 267.56 360.152 294.41C297.242 340.3 228.441 341.6 157.841 316.7C103.651 297.59 58.8014 264.56 23.9914 218.47C16.2914 208.28 9.6315 197.46 4.8715 185.54C-4.6785 161.61 0.501543 141.02 14.4115 119.33C44.5615 72.3198 90.8315 49.5198 140.122 31.3298C196.552 10.4998 255.441 1.32001 317.991 0.0100098L318.001 0Z" fill="#ffffff"/>
</svg>
