<svg width="358" height="490" viewBox="0 0 358 490" fill="none" xmlns="http://www.w3.org/2000/svg">
<path d="M0.0100098 420.822C0.20001 388.422 12.04 361.372 23.8 334.382C33.81 311.422 44.59 288.802 54.74 265.902C68.04 235.892 69.6202 205.282 59.4502 173.922C53.8202 156.552 48.6901 138.922 46.8801 120.672C42.8701 80.1722 60.0502 49.2522 94.4502 30.0822C154.49 -3.37778 218.44 -9.23779 283.26 14.0722C326.06 29.4622 351.05 61.5522 356.54 107.432C359.04 128.292 352.97 147.662 344.45 166.332C335.51 185.942 323.94 204.062 311.77 221.762C296.29 244.302 284.79 268.532 278.65 295.232C269.67 334.292 248.47 364.732 215.26 387.282C175.08 414.562 135.17 442.222 97.23 472.642C86.7 481.082 75.09 488.422 61 489.692C31.89 492.312 6.2202 469.552 1.2002 436.592C0.300195 430.712 0.28 424.702 0 420.812L0.0100098 420.822Z" fill="#ffffff"/>
</svg>
