<?xml version="1.0" encoding="UTF-8"?>
<svg id="Layer_1" data-name="Layer 1" xmlns="http://www.w3.org/2000/svg" viewBox="0 0 412.23 334">
  <defs>
    <style>
      .cls-1, .cls-2 {
        fill: #d1d3d4;
      }

      .cls-3 {
        fill: #231f20;
      }

      .cls-4 {
        fill: #fff;
      }

      .cls-2 {
        opacity: .2;
      }

      .cls-5 {
        fill: #e6e7e8;
      }
    </style>
  </defs>
  <polygon class="cls-4" points="275.39 238 412.23 159 136.83 0 0 79 275.39 238"/>
  <path class="cls-5" d="M254.61,193c11.48,6.63,30.09,6.63,41.57,0,11.48-6.63,11.48-17.37,0-24-11.48-6.63-30.09-6.63-41.57,0-11.48,6.63-11.48,17.37,0,24Z"/>
  <path class="cls-5" d="M323.89,153c11.48,6.63,30.09,6.63,41.57,0,11.48-6.63,11.48-17.37,0-24-11.48-6.63-30.09-6.63-41.57,0s-11.48,17.37,0,24Z"/>
  <path class="cls-5" d="M185.33,153c11.48,6.63,30.09,6.63,41.57,0,11.48-6.63,11.48-17.37,0-24-11.48-6.63-30.09-6.63-41.57,0-11.48,6.63-11.48,17.37,0,24Z"/>
  <path class="cls-5" d="M254.61,113c11.48,6.63,30.09,6.63,41.57,0s11.48-17.37,0-24-30.09-6.63-41.57,0c-11.48,6.63-11.48,17.37,0,24Z"/>
  <path class="cls-5" d="M185.33,73c11.48,6.63,30.09,6.63,41.57,0,11.48-6.63,11.48-17.37,0-24-11.48-6.63-30.09-6.63-41.57,0-11.48,6.63-11.48,17.37,0,24Z"/>
  <path class="cls-5" d="M116.05,113c11.48,6.63,30.09,6.63,41.57,0,11.48-6.63,11.48-17.37,0-24-11.48-6.63-30.09-6.63-41.57,0-11.48,6.63-11.48,17.37,0,24Z"/>
  <path class="cls-5" d="M46.77,73c11.48,6.63,30.09,6.63,41.57,0s11.48-17.37,0-24c-11.48-6.63-30.09-6.63-41.57,0-11.48,6.63-11.48,17.37,0,24Z"/>
  <path class="cls-5" d="M116.05,33c11.48,6.63,30.09,6.63,41.57,0,11.48-6.63,11.48-17.37,0-24-11.48-6.63-30.09-6.63-41.57,0-11.48,6.63-11.48,17.37,0,24Z"/>
  <polygon class="cls-1" points="275.39 334 275.39 238 0 79 0 175 275.39 334"/>
  <polygon class="cls-3" points="246 181 246 181 246 181 246 181"/>
  <path class="cls-1" d="M254.61,193c11.48,6.63,30.09,6.63,41.57,0,5.74-3.31,8.61-7.66,8.61-12v20c0,4.34-2.87,8.69-8.61,12-11.48,6.63-30.09,6.63-41.57,0-5.74-3.31-8.61-7.66-8.61-12v-20c0,4.34,2.87,8.69,8.61,12Z"/>
  <g>
    <path class="cls-1" d="M323.89,153c11.48,6.63,30.09,6.63,41.57,0,5.74-3.31,8.61-7.66,8.61-12h0v20c0,4.34-2.87,8.69-8.61,12-11.48,6.63-30.09,6.63-41.57,0-5.74-3.31-8.61-7.66-8.61-12v-20c0,4.34,2.87,8.69,8.61,12Z"/>
    <polygon class="cls-2" points="315.28 141 315.28 141 315.28 141 315.28 141"/>
  </g>
  <g>
    <path class="cls-1" d="M185.33,153c11.48,6.63,30.09,6.63,41.57,0,5.74-3.31,8.61-7.66,8.61-12v20c0,4.34-2.87,8.69-8.61,12-11.48,6.63-30.09,6.63-41.57,0-5.74-3.31-8.61-7.66-8.61-12v-20c0,4.34,2.87,8.69,8.61,12Z"/>
    <polygon class="cls-2" points="176.72 141 176.72 141 176.72 141 176.72 141"/>
  </g>
  <g>
    <polygon class="cls-2" points="246 101 246 101 246 101 246 101"/>
    <path class="cls-1" d="M254.61,113c11.48,6.63,30.09,6.63,41.57,0,5.74-3.31,8.61-7.66,8.61-12v20c0,4.34-2.87,8.69-8.61,12-11.48,6.63-30.09,6.63-41.57,0-5.74-3.31-8.61-7.66-8.61-12v-20c0,4.34,2.87,8.69,8.61,12Z"/>
  </g>
  <g>
    <polygon class="cls-2" points="176.72 61 176.72 61 176.72 61 176.72 61"/>
    <path class="cls-1" d="M185.33,73c11.48,6.63,30.09,6.63,41.57,0,5.74-3.31,8.61-7.66,8.61-12v20c0,4.34-2.87,8.69-8.61,12-11.48,6.63-30.09,6.63-41.57,0-5.74-3.31-8.61-7.66-8.61-12v-20c0,4.34,2.87,8.69,8.61,12Z"/>
  </g>
  <g>
    <polygon class="cls-2" points="107.44 101 107.44 101 107.44 101 107.44 101"/>
    <path class="cls-1" d="M116.05,113c11.48,6.63,30.09,6.63,41.57,0,5.74-3.31,8.61-7.66,8.61-12v20c0,4.34-2.87,8.69-8.61,12-11.48,6.63-30.09,6.63-41.57,0-5.74-3.31-8.61-7.66-8.61-12v-20c0,4.34,2.87,8.69,8.61,12Z"/>
  </g>
  <path class="cls-1" d="M46.77,73c11.48,6.63,30.09,6.63,41.57,0,5.74-3.31,8.61-7.66,8.61-12h0v20c0,4.34-2.87,8.69-8.61,12-11.48,6.63-30.09,6.63-41.57,0-5.74-3.31-8.61-7.66-8.61-12v-20c0,4.34,2.87,8.69,8.61,12Z"/>
  <path class="cls-1" d="M116.05,33c11.48,6.63,30.09,6.63,41.57,0,5.74-3.31,8.61-7.66,8.61-12h0v20c0,4.34-2.87,8.69-8.61,12-11.48,6.63-30.09,6.63-41.57,0-5.74-3.31-8.61-7.66-8.61-12v-20c0,4.34,2.87,8.69,8.61,12Z"/>
  <polygon class="cls-5" points="275.39 334 412.23 255 412.23 159 275.39 238 275.39 334"/>
</svg>