<?xml version="1.0" encoding="UTF-8"?>
<svg id="Layer_1" data-name="Layer 1" xmlns="http://www.w3.org/2000/svg" viewBox="0 0 414.23 334.58">
  <defs>
    <style>
      .cls-1 {
        fill: none;
        stroke: #ff6700;
        stroke-miterlimit: 10;
      }

      .cls-2 {
        fill: #ff6700;
      }

      .cls-3 {
        fill: #fff;
        font-family: MyriadPro-Regular, 'Myriad Pro';
        font-size: 12px;
      }

      .cls-4 {
        opacity: .05;
      }

      .cls-4, .cls-5, .cls-6 {
        fill: #231f20;
      }

      .cls-5 {
        opacity: .1;
      }

      .cls-6 {
        opacity: .2;
      }
    </style>
  </defs>
  <g>
    <polygon class="cls-4" points="137.83 238 1 159 276.39 0 413.23 79 137.83 238"/>
    <path class="cls-6" d="M157.62,193c-11.48,6.63-30.09,6.63-41.57,0-5.74-3.31-8.61-7.66-8.61-12v20c0,4.34,2.87,8.69,8.61,12,11.48,6.63,30.09,6.63,41.57,0,5.74-3.31,8.61-7.66,8.61-12v-20c0,4.34-2.87,8.69-8.61,12Z"/>
    <g>
      <path class="cls-6" d="M89.33,153c-11.48,6.63-30.09,6.63-41.57,0-5.74-3.31-8.61-7.66-8.61-12h0v20c0,4.34,2.87,8.69,8.61,12,11.48,6.63,30.09,6.63,41.57,0,5.74-3.31,8.61-7.66,8.61-12v-20c0,4.34-2.87,8.69-8.61,12Z"/>
      <polygon class="cls-6" points="97.94 141 97.94 141 97.94 141 97.94 141"/>
    </g>
    <g>
      <path class="cls-6" d="M227.9,153c-11.48,6.63-30.09,6.63-41.57,0-5.74-3.31-8.61-7.66-8.61-12v20c0,4.34,2.87,8.69,8.61,12,11.48,6.63,30.09,6.63,41.57,0,5.74-3.31,8.61-7.66,8.61-12v-20c0,4.34-2.87,8.69-8.61,12Z"/>
      <polygon class="cls-6" points="236.51 141 236.51 141 236.51 141 236.51 141"/>
    </g>
    <g>
      <polygon class="cls-6" points="167.23 101 167.23 101 167.23 101 167.23 101"/>
      <path class="cls-6" d="M157.62,113c-11.48,6.63-30.09,6.63-41.57,0-5.74-3.31-8.61-7.66-8.61-12v20c0,4.34,2.87,8.69,8.61,12,11.48,6.63,30.09,6.63,41.57,0,5.74-3.31,8.61-7.66,8.61-12v-20c0,4.34-2.87,8.69-8.61,12Z"/>
    </g>
    <g>
      <polygon class="cls-6" points="236.51 61 236.51 61 236.51 61 236.51 61"/>
      <path class="cls-6" d="M227.9,73c-11.48,6.63-30.09,6.63-41.57,0-5.74-3.31-8.61-7.66-8.61-12v20c0,4.34,2.87,8.69,8.61,12,11.48,6.63,30.09,6.63,41.57,0,5.74-3.31,8.61-7.66,8.61-12v-20c0,4.34-2.87,8.69-8.61,12Z"/>
    </g>
    <g>
      <polygon class="cls-6" points="305.79 101 305.79 101 305.79 101 305.79 101"/>
      <path class="cls-6" d="M297.18,113c-11.48,6.63-30.09,6.63-41.57,0-5.74-3.31-8.61-7.66-8.61-12v20c0,4.34,2.87,8.69,8.61,12,11.48,6.63,30.09,6.63,41.57,0,5.74-3.31,8.61-7.66,8.61-12v-20c0,4.34-2.87,8.69-8.61,12Z"/>
    </g>
    <path class="cls-6" d="M366.46,73c-11.48,6.63-30.09,6.63-41.57,0-5.74-3.31-8.61-7.66-8.61-12h0v20c0,4.34,2.87,8.69,8.61,12,11.48,6.63,30.09,6.63,41.57,0,5.74-3.31,8.61-7.66,8.61-12v-20c0,4.34-2.87,8.69-8.61,12Z"/>
    <path class="cls-6" d="M297.18,33c-11.48,6.63-30.09,6.63-41.57,0-5.74-3.31-8.61-7.66-8.61-12h0v20c0,4.34,2.87,8.69,8.61,12,11.48,6.63,30.09,6.63,41.57,0,5.74-3.31,8.61-7.66,8.61-12v-20c0,4.34-2.87,8.69-8.61,12Z"/>
    <path class="cls-5" d="M157.62,193c-11.48,6.63-30.09,6.63-41.57,0s-11.48-17.37,0-24c11.48-6.63,30.09-6.63,41.57,0,11.48,6.63,11.48,17.37,0,24Z"/>
    <path class="cls-5" d="M89.33,153c-11.48,6.63-30.09,6.63-41.57,0-11.48-6.63-11.48-17.37,0-24,11.48-6.63,30.09-6.63,41.57,0s11.48,17.37,0,24Z"/>
    <path class="cls-5" d="M227.9,153c-11.48,6.63-30.09,6.63-41.57,0-11.48-6.63-11.48-17.37,0-24,11.48-6.63,30.09-6.63,41.57,0s11.48,17.37,0,24Z"/>
    <path class="cls-5" d="M157.62,113c-11.48,6.63-30.09,6.63-41.57,0-11.48-6.63-11.48-17.37,0-24,11.48-6.63,30.09-6.63,41.57,0,11.48,6.63,11.48,17.37,0,24Z"/>
    <path class="cls-5" d="M227.9,73c-11.48,6.63-30.09,6.63-41.57,0-11.48-6.63-11.48-17.37,0-24,11.48-6.63,30.09-6.63,41.57,0,11.48,6.63,11.48,17.37,0,24Z"/>
    <path class="cls-5" d="M297.18,113c-11.48,6.63-30.09,6.63-41.57,0-11.48-6.63-11.48-17.37,0-24,11.48-6.63,30.09-6.63,41.57,0,11.48,6.63,11.48,17.37,0,24Z"/>
    <path class="cls-5" d="M366.46,73c-11.48,6.63-30.09,6.63-41.57,0-11.48-6.63-11.48-17.37,0-24,11.48-6.63,30.09-6.63,41.57,0,11.48,6.63,11.48,17.37,0,24Z"/>
    <path class="cls-5" d="M297.18,33c-11.48,6.63-30.09,6.63-41.57,0-11.48-6.63-11.48-17.37,0-24,11.48-6.63,30.09-6.63,41.57,0,11.48,6.63,11.48,17.37,0,24Z"/>
  </g>
  <polygon class="cls-5" points="137.83 334 137.83 238 413.23 79 413.23 175 137.83 334"/>
  <polygon class="cls-6" points="137.83 334 1 255 1 159 137.83 238 137.83 334"/>
  <polygon class="cls-6" points="167.23 181 167.23 181 167.23 181 167.23 181"/>
  <g>
    <polygon class="cls-1" points="137.83 334 1 255 276.39 96 413.23 175 137.83 334"/>
    <path class="cls-1" d="M157.62,289c-11.48,6.63-30.09,6.63-41.57,0-5.74-3.31-8.61-7.66-8.61-12v20c0,4.34,2.87,8.69,8.61,12,11.48,6.63,30.09,6.63,41.57,0,5.74-3.31,8.61-7.66,8.61-12v-20c0,4.34-2.87,8.69-8.61,12Z"/>
    <path class="cls-1" d="M89.33,249c-11.48,6.63-30.09,6.63-41.57,0-5.74-3.31-8.61-7.66-8.61-12h0v20c0,4.34,2.87,8.69,8.61,12,11.48,6.63,30.09,6.63,41.57,0,5.74-3.31,8.61-7.66,8.61-12v-20c0,4.34-2.87,8.69-8.61,12Z"/>
    <path class="cls-1" d="M227.9,249c-11.48,6.63-30.09,6.63-41.57,0-5.74-3.31-8.61-7.66-8.61-12v20c0,4.34,2.87,8.69,8.61,12,11.48,6.63,30.09,6.63,41.57,0,5.74-3.31,8.61-7.66,8.61-12v-20c0,4.34-2.87,8.69-8.61,12Z"/>
    <path class="cls-1" d="M157.62,209c-11.48,6.63-30.09,6.63-41.57,0-5.74-3.31-8.61-7.66-8.61-12v20c0,4.34,2.87,8.69,8.61,12,11.48,6.63,30.09,6.63,41.57,0,5.74-3.31,8.61-7.66,8.61-12v-20c0,4.34-2.87,8.69-8.61,12Z"/>
    <path class="cls-1" d="M227.9,169c-11.48,6.63-30.09,6.63-41.57,0-5.74-3.31-8.61-7.66-8.61-12v20c0,4.34,2.87,8.69,8.61,12,11.48,6.63,30.09,6.63,41.57,0,5.74-3.31,8.61-7.66,8.61-12v-20c0,4.34-2.87,8.69-8.61,12Z"/>
    <path class="cls-1" d="M297.18,209c-11.48,6.63-30.09,6.63-41.57,0-5.74-3.31-8.61-7.66-8.61-12v20c0,4.34,2.87,8.69,8.61,12,11.48,6.63,30.09,6.63,41.57,0,5.74-3.31,8.61-7.66,8.61-12v-20c0,4.34-2.87,8.69-8.61,12Z"/>
    <path class="cls-1" d="M366.46,169c-11.48,6.63-30.09,6.63-41.57,0-5.74-3.31-8.61-7.66-8.61-12h0v20c0,4.34,2.87,8.69,8.61,12,11.48,6.63,30.09,6.63,41.57,0,5.74-3.31,8.61-7.66,8.61-12v-20c0,4.34-2.87,8.69-8.61,12Z"/>
    <path class="cls-1" d="M297.18,129c-11.48,6.63-30.09,6.63-41.57,0-5.74-3.31-8.61-7.66-8.61-12h0v20c0,4.34,2.87,8.69,8.61,12,11.48,6.63,30.09,6.63,41.57,0,5.74-3.31,8.61-7.66,8.61-12v-20c0,4.34-2.87,8.69-8.61,12Z"/>
    <path class="cls-2" d="M157.62,289c-11.48,6.63-30.09,6.63-41.57,0s-11.48-17.37,0-24c11.48-6.63,30.09-6.63,41.57,0,11.48,6.63,11.48,17.37,0,24Z"/>
    <text class="cls-3" transform="translate(130.43 280.52)"><tspan x="0" y="0">0,0</tspan></text>
    <path class="cls-1" d="M89.33,249c-11.48,6.63-30.09,6.63-41.57,0-11.48-6.63-11.48-17.37,0-24,11.48-6.63,30.09-6.63,41.57,0s11.48,17.37,0,24Z"/>
    <path class="cls-1" d="M227.9,249c-11.48,6.63-30.09,6.63-41.57,0s-11.48-17.37,0-24c11.48-6.63,30.09-6.63,41.57,0s11.48,17.37,0,24Z"/>
    <path class="cls-1" d="M157.62,209c-11.48,6.63-30.09,6.63-41.57,0s-11.48-17.37,0-24c11.48-6.63,30.09-6.63,41.57,0,11.48,6.63,11.48,17.37,0,24Z"/>
    <path class="cls-1" d="M227.9,169c-11.48,6.63-30.09,6.63-41.57,0-11.48-6.63-11.48-17.37,0-24,11.48-6.63,30.09-6.63,41.57,0,11.48,6.63,11.48,17.37,0,24Z"/>
    <path class="cls-1" d="M297.18,209c-11.48,6.63-30.09,6.63-41.57,0s-11.48-17.37,0-24c11.48-6.63,30.09-6.63,41.57,0s11.48,17.37,0,24Z"/>
    <path class="cls-1" d="M366.46,169c-11.48,6.63-30.09,6.63-41.57,0-11.48-6.63-11.48-17.37,0-24,11.48-6.63,30.09-6.63,41.57,0,11.48,6.63,11.48,17.37,0,24Z"/>
    <path class="cls-1" d="M297.18,129c-11.48,6.63-30.09,6.63-41.57,0-11.48-6.63-11.48-17.37,0-24,11.48-6.63,30.09-6.63,41.57,0,11.48,6.63,11.48,17.37,0,24Z"/>
  </g>
</svg>