<?xml version="1.0" encoding="UTF-8"?>
<svg id="Layer_1" data-name="Layer 1" xmlns="http://www.w3.org/2000/svg" viewBox="0 0 414.23 334.58">
  <defs>
    <style>
      .cls-1 {
        fill: none;
        stroke: #ff6700;
        stroke-miterlimit: 10;
      }

      .cls-2 {
        fill: #ff6700;
      }

      .cls-3 {
        fill: #fff;
        font-family: MyriadPro-Regular, 'Myriad Pro';
        font-size: 12px;
      }

      .cls-4 {
        opacity: .05;
      }

      .cls-4, .cls-5, .cls-6 {
        fill: #231f20;
      }

      .cls-5 {
        opacity: .1;
      }

      .cls-6 {
        opacity: .2;
      }
    </style>
  </defs>
  <g>
    <polygon class="cls-4" points="276.39 238 413.23 159 137.83 0 1 79 276.39 238"/>
    <path class="cls-6" d="M255.61,193c11.48,6.63,30.09,6.63,41.57,0,5.74-3.31,8.61-7.66,8.61-12v20c0,4.34-2.87,8.69-8.61,12-11.48,6.63-30.09,6.63-41.57,0-5.74-3.31-8.61-7.66-8.61-12v-20c0,4.34,2.87,8.69,8.61,12Z"/>
    <g>
      <path class="cls-6" d="M324.89,153c11.48,6.63,30.09,6.63,41.57,0,5.74-3.31,8.61-7.66,8.61-12h0v20c0,4.34-2.87,8.69-8.61,12-11.48,6.63-30.09,6.63-41.57,0-5.74-3.31-8.61-7.66-8.61-12v-20c0,4.34,2.87,8.69,8.61,12Z"/>
      <polygon class="cls-6" points="316.28 141 316.28 141 316.28 141 316.28 141"/>
    </g>
    <g>
      <path class="cls-6" d="M186.33,153c11.48,6.63,30.09,6.63,41.57,0,5.74-3.31,8.61-7.66,8.61-12v20c0,4.34-2.87,8.69-8.61,12-11.48,6.63-30.09,6.63-41.57,0-5.74-3.31-8.61-7.66-8.61-12v-20c0,4.34,2.87,8.69,8.61,12Z"/>
      <polygon class="cls-6" points="177.72 141 177.72 141 177.72 141 177.72 141"/>
    </g>
    <g>
      <polygon class="cls-6" points="247 101 247 101 247 101 247 101"/>
      <path class="cls-6" d="M255.61,113c11.48,6.63,30.09,6.63,41.57,0,5.74-3.31,8.61-7.66,8.61-12v20c0,4.34-2.87,8.69-8.61,12-11.48,6.63-30.09,6.63-41.57,0-5.74-3.31-8.61-7.66-8.61-12v-20c0,4.34,2.87,8.69,8.61,12Z"/>
    </g>
    <g>
      <polygon class="cls-6" points="177.72 61 177.72 61 177.72 61 177.72 61"/>
      <path class="cls-6" d="M186.33,73c11.48,6.63,30.09,6.63,41.57,0,5.74-3.31,8.61-7.66,8.61-12v20c0,4.34-2.87,8.69-8.61,12-11.48,6.63-30.09,6.63-41.57,0-5.74-3.31-8.61-7.66-8.61-12v-20c0,4.34,2.87,8.69,8.61,12Z"/>
    </g>
    <g>
      <polygon class="cls-6" points="108.44 101 108.44 101 108.44 101 108.44 101"/>
      <path class="cls-6" d="M117.05,113c11.48,6.63,30.09,6.63,41.57,0,5.74-3.31,8.61-7.66,8.61-12v20c0,4.34-2.87,8.69-8.61,12-11.48,6.63-30.09,6.63-41.57,0-5.74-3.31-8.61-7.66-8.61-12v-20c0,4.34,2.87,8.69,8.61,12Z"/>
    </g>
    <path class="cls-6" d="M47.77,73c11.48,6.63,30.09,6.63,41.57,0,5.74-3.31,8.61-7.66,8.61-12h0v20c0,4.34-2.87,8.69-8.61,12-11.48,6.63-30.09,6.63-41.57,0-5.74-3.31-8.61-7.66-8.61-12v-20c0,4.34,2.87,8.69,8.61,12Z"/>
    <path class="cls-6" d="M117.05,33c11.48,6.63,30.09,6.63,41.57,0,5.74-3.31,8.61-7.66,8.61-12h0v20c0,4.34-2.87,8.69-8.61,12-11.48,6.63-30.09,6.63-41.57,0-5.74-3.31-8.61-7.66-8.61-12v-20c0,4.34,2.87,8.69,8.61,12Z"/>
    <path class="cls-5" d="M255.61,193c11.48,6.63,30.09,6.63,41.57,0,11.48-6.63,11.48-17.37,0-24-11.48-6.63-30.09-6.63-41.57,0-11.48,6.63-11.48,17.37,0,24Z"/>
    <path class="cls-5" d="M324.89,153c11.48,6.63,30.09,6.63,41.57,0,11.48-6.63,11.48-17.37,0-24-11.48-6.63-30.09-6.63-41.57,0-11.48,6.63-11.48,17.37,0,24Z"/>
    <path class="cls-5" d="M186.33,153c11.48,6.63,30.09,6.63,41.57,0,11.48-6.63,11.48-17.37,0-24-11.48-6.63-30.09-6.63-41.57,0-11.48,6.63-11.48,17.37,0,24Z"/>
    <path class="cls-5" d="M255.61,113c11.48,6.63,30.09,6.63,41.57,0,11.48-6.63,11.48-17.37,0-24-11.48-6.63-30.09-6.63-41.57,0-11.48,6.63-11.48,17.37,0,24Z"/>
    <path class="cls-5" d="M186.33,73c11.48,6.63,30.09,6.63,41.57,0s11.48-17.37,0-24c-11.48-6.63-30.09-6.63-41.57,0-11.48,6.63-11.48,17.37,0,24Z"/>
    <path class="cls-5" d="M117.05,113c11.48,6.63,30.09,6.63,41.57,0,11.48-6.63,11.48-17.37,0-24-11.48-6.63-30.09-6.63-41.57,0s-11.48,17.37,0,24Z"/>
    <path class="cls-5" d="M47.77,73c11.48,6.63,30.09,6.63,41.57,0,11.48-6.63,11.48-17.37,0-24-11.48-6.63-30.09-6.63-41.57,0-11.48,6.63-11.48,17.37,0,24Z"/>
    <path class="cls-5" d="M117.05,33c11.48,6.63,30.09,6.63,41.57,0,11.48-6.63,11.48-17.37,0-24-11.48-6.63-30.09-6.63-41.57,0-11.48,6.63-11.48,17.37,0,24Z"/>
  </g>
  <polygon class="cls-6" points="276.39 334 276.39 238 1 79 1 175 276.39 334"/>
  <polygon class="cls-5" points="276.39 334 413.23 255 413.23 159 276.39 238 276.39 334"/>
  <polygon class="cls-6" points="247 181 247 181 247 181 247 181"/>
  <g>
    <polygon class="cls-1" points="276.39 334 413.23 255 137.83 96 1 175 276.39 334"/>
    <path class="cls-1" d="M255.61,289c11.48,6.63,30.09,6.63,41.57,0,5.74-3.31,8.61-7.66,8.61-12v20c0,4.34-2.87,8.69-8.61,12-11.48,6.63-30.09,6.63-41.57,0-5.74-3.31-8.61-7.66-8.61-12v-20c0,4.34,2.87,8.69,8.61,12Z"/>
    <path class="cls-1" d="M324.89,249c11.48,6.63,30.09,6.63,41.57,0,5.74-3.31,8.61-7.66,8.61-12h0v20c0,4.34-2.87,8.69-8.61,12-11.48,6.63-30.09,6.63-41.57,0-5.74-3.31-8.61-7.66-8.61-12v-20c0,4.34,2.87,8.69,8.61,12Z"/>
    <path class="cls-1" d="M186.33,249c11.48,6.63,30.09,6.63,41.57,0,5.74-3.31,8.61-7.66,8.61-12v20c0,4.34-2.87,8.69-8.61,12-11.48,6.63-30.09,6.63-41.57,0-5.74-3.31-8.61-7.66-8.61-12v-20c0,4.34,2.87,8.69,8.61,12Z"/>
    <path class="cls-1" d="M255.61,209c11.48,6.63,30.09,6.63,41.57,0,5.74-3.31,8.61-7.66,8.61-12v20c0,4.34-2.87,8.69-8.61,12-11.48,6.63-30.09,6.63-41.57,0-5.74-3.31-8.61-7.66-8.61-12v-20c0,4.34,2.87,8.69,8.61,12Z"/>
    <path class="cls-1" d="M186.33,169c11.48,6.63,30.09,6.63,41.57,0,5.74-3.31,8.61-7.66,8.61-12v20c0,4.34-2.87,8.69-8.61,12-11.48,6.63-30.09,6.63-41.57,0-5.74-3.31-8.61-7.66-8.61-12v-20c0,4.34,2.87,8.69,8.61,12Z"/>
    <path class="cls-1" d="M117.05,209c11.48,6.63,30.09,6.63,41.57,0,5.74-3.31,8.61-7.66,8.61-12v20c0,4.34-2.87,8.69-8.61,12-11.48,6.63-30.09,6.63-41.57,0-5.74-3.31-8.61-7.66-8.61-12v-20c0,4.34,2.87,8.69,8.61,12Z"/>
    <path class="cls-1" d="M47.77,169c11.48,6.63,30.09,6.63,41.57,0,5.74-3.31,8.61-7.66,8.61-12h0v20c0,4.34-2.87,8.69-8.61,12-11.48,6.63-30.09,6.63-41.57,0-5.74-3.31-8.61-7.66-8.61-12v-20c0,4.34,2.87,8.69,8.61,12Z"/>
    <path class="cls-1" d="M117.05,129c11.48,6.63,30.09,6.63,41.57,0,5.74-3.31,8.61-7.66,8.61-12h0v20c0,4.34-2.87,8.69-8.61,12-11.48,6.63-30.09,6.63-41.57,0-5.74-3.31-8.61-7.66-8.61-12v-20c0,4.34,2.87,8.69,8.61,12Z"/>
    <path class="cls-2" d="M255.61,289c11.48,6.63,30.09,6.63,41.57,0,11.48-6.63,11.48-17.37,0-24-11.48-6.63-30.09-6.63-41.57,0-11.48,6.63-11.48,17.37,0,24Z"/>
    <text class="cls-3" transform="translate(269 280.52)"><tspan x="0" y="0">0,0</tspan></text>
    <path class="cls-1" d="M324.89,249c11.48,6.63,30.09,6.63,41.57,0,11.48-6.63,11.48-17.37,0-24-11.48-6.63-30.09-6.63-41.57,0-11.48,6.63-11.48,17.37,0,24Z"/>
    <path class="cls-1" d="M186.33,249c11.48,6.63,30.09,6.63,41.57,0,11.48-6.63,11.48-17.37,0-24-11.48-6.63-30.09-6.63-41.57,0-11.48,6.63-11.48,17.37,0,24Z"/>
    <path class="cls-1" d="M255.61,209c11.48,6.63,30.09,6.63,41.57,0,11.48-6.63,11.48-17.37,0-24-11.48-6.63-30.09-6.63-41.57,0-11.48,6.63-11.48,17.37,0,24Z"/>
    <path class="cls-1" d="M186.33,169c11.48,6.63,30.09,6.63,41.57,0,11.48-6.63,11.48-17.37,0-24-11.48-6.63-30.09-6.63-41.57,0-11.48,6.63-11.48,17.37,0,24Z"/>
    <path class="cls-1" d="M117.05,209c11.48,6.63,30.09,6.63,41.57,0,11.48-6.63,11.48-17.37,0-24-11.48-6.63-30.09-6.63-41.57,0-11.48,6.63-11.48,17.37,0,24Z"/>
    <path class="cls-1" d="M47.77,169c11.48,6.63,30.09,6.63,41.57,0s11.48-17.37,0-24c-11.48-6.63-30.09-6.63-41.57,0s-11.48,17.37,0,24Z"/>
    <path class="cls-1" d="M117.05,129c11.48,6.63,30.09,6.63,41.57,0s11.48-17.37,0-24c-11.48-6.63-30.09-6.63-41.57,0-11.48,6.63-11.48,17.37,0,24Z"/>
  </g>
</svg>