<?xml version="1.0" encoding="UTF-8"?>
<svg id="Layer_1" data-name="Layer 1" xmlns="http://www.w3.org/2000/svg" viewBox="0 0 805.73 205.93">
  <defs>
    <style>
      .cls-1 {
        fill: #010101;
      }

      .cls-2 {
        fill: #10110f;
      }
    </style>
  </defs>
  <path class="cls-1" d="M780.91,5.67c10.56,0,19.15,8.59,19.15,19.15v156.29c0,10.56-8.59,19.15-19.15,19.15H24.82c-10.56,0-19.15-8.59-19.15-19.15V24.82C5.67,14.26,14.26,5.67,24.82,5.67h756.09M780.91,0H24.82C11.11,0,0,11.11,0,24.82v156.29C0,194.82,11.11,205.93,24.82,205.93h756.09c13.71,0,24.82-11.11,24.82-24.82V24.82C805.73,11.11,794.62,0,780.91,0h0Z"/>
  <path class="cls-2" d="M89.63,49.28c4.87.45,8.67.55,11.4.3,2.73-.25,4.67-1.09,5.81-2.53.55-.69.81-1.4.78-2.12-.02-.72-.22-1.32-.6-1.79-.22-.27-.47-.48-.76-.64.22.4.34.88.36,1.43.02.72-.24,1.43-.78,2.12-1.14,1.44-3.08,2.29-5.81,2.53-2.73.25-6.53.15-11.4-.3-.25,1.44-.51,3.3-.78,5.59-.27,2.28-.6,4.79-.97,7.53-.37,2.73-.78,5.58-1.23,8.53-.45,2.96-.92,5.8-1.42,8.53-.5,2.73-1.03,5.27-1.6,7.6-.57,2.34-1.16,4.25-1.75,5.74-.7,1.64-1.65,2.84-2.87,3.61-1.22.77-2.52,1.23-3.91,1.38-1.39.15-2.78.08-4.18-.22-1.39-.3-2.61-.69-3.65-1.16-.65-.29-1.17-.59-1.6-.88.06.14.15.29.33.46.47.47,1.23.94,2.27,1.42,1.04.47,2.26.86,3.65,1.16,1.39.3,2.78.37,4.18.22,1.39-.15,2.69-.61,3.91-1.38,1.22-.77,2.17-1.97,2.87-3.61.6-1.49,1.18-3.4,1.75-5.74.57-2.33,1.1-4.87,1.6-7.6.49-2.73.97-5.58,1.42-8.53.45-2.96.86-5.8,1.23-8.53.37-2.73.7-5.24.97-7.53.27-2.29.53-4.15.78-5.59Z"/>
  <path class="cls-2" d="M69.89,51.56c-2.01,1.39-3.51,2.89-4.51,4.51-.99,1.61-1.6,3.15-1.83,4.62-.22,1.47-.26,2.5-.11,3.09.15.55-.05.81-.59.78-.55-.02-1.24-.26-2.09-.71-.84-.45-1.76-1.09-2.76-1.94-.1-.09-.2-.18-.3-.27.41.46.84.88,1.3,1.27.99.85,1.91,1.49,2.76,1.94.85.45,1.54.68,2.09.71.55.03.74-.23.59-.78-.15-.59-.11-1.63.11-3.09.22-1.46.83-3,1.83-4.62.99-1.62,2.5-3.12,4.51-4.51,1.78-1.23,4.09-2.07,6.93-2.52.05-.4.11-.79.15-1.16-3.38.4-6.07,1.29-8.09,2.68Z"/>
  <path class="cls-2" d="M97.49,95.89c1.27-.22,2.53-.87,3.8-1.94,1.02-.86,1.95-2.03,2.79-3.49-.18-.64-.32-1.32-.4-2.1-.99,1.99-2.12,3.52-3.39,4.58s-2.53,1.71-3.8,1.94c-1.27.22-2.47.05-3.61-.52-.39-.19-.74-.44-1.08-.72.6.74,1.29,1.32,2.08,1.72,1.14.57,2.35.74,3.61.52Z"/>
  <path class="cls-2" d="M98.4,86.18c-.03-.09-.07-.17-.1-.28-.22-.92-.26-2.04-.11-3.35s.45-2.68.89-4.1c.45-1.42,1.02-2.62,1.71-3.61.7-.99,1.5-1.63,2.42-1.9.6-.18,1.22-.09,1.87.24.03-.08.05-.16.08-.23-1.04-.94-2.03-1.28-2.94-1.01-.92.28-1.73.91-2.42,1.9-.69.99-1.26,2.2-1.71,3.61-.45,1.42-.75,2.78-.89,4.1s-.11,2.43.11,3.35c.2.81.57,1.22,1.1,1.28Z"/>
  <path class="cls-2" d="M139.33,92.58c-1.37,1.42-2.84,2.12-4.43,2.12-1.19,0-2.21-.3-3.06-.89-.21-.15-.38-.32-.57-.48.46.55.97,1.06,1.57,1.48.85.6,1.86.89,3.06.89,1.59,0,3.07-.71,4.43-2.12,1.15-1.19,2.18-2.58,3.12-4.14-.23-.54-.43-1.1-.58-1.69-1.04,1.85-2.22,3.47-3.53,4.83Z"/>
  <path class="cls-2" d="M164.18,86.43c-.79,1.34-1.65,2.55-2.57,3.61-.92,1.07-2,2.05-3.24,2.94-1.14.84-2.41,1.45-3.8,1.83-1.39.37-2.76.47-4.1.3-1.34-.17-2.61-.66-3.8-1.45-.22-.15-.43-.33-.64-.5.49.6,1.04,1.1,1.64,1.5,1.19.79,2.46,1.28,3.8,1.45,1.34.18,2.71.08,4.1-.3,1.39-.37,2.66-.98,3.8-1.83,1.24-.89,2.32-1.87,3.24-2.94.92-1.07,1.78-2.27,2.57-3.61.79-1.34,1.55-2.84,2.27-4.51.72-1.66,1.5-3.54,2.35-5.63.05-.2-.08-.41-.37-.63-.18-.14-.4-.24-.64-.33-.84,2.07-1.62,3.94-2.34,5.59-.72,1.66-1.48,3.17-2.27,4.51Z"/>
  <path class="cls-2" d="M127.26,88.11c-.12.62-.22,1.27-.3,1.94-.07.67-.12,1.36-.15,2.05-.02.69.01,1.29.11,1.79.1.55-.28.93-1.16,1.16-.87.22-1.85.23-2.94.04-1.05-.19-2.03-.59-2.92-1.17.22.36.51.68.9.94.92.62,1.93,1.03,3.02,1.23,1.09.2,2.07.19,2.94-.04.87-.22,1.26-.61,1.16-1.16-.1-.5-.14-1.09-.11-1.79.02-.69.08-1.38.15-2.05.08-.67.18-1.32.3-1.94.02-.11.04-.2.06-.3-.29-.87-.54-1.62-.73-2.22-.1.4-.21.91-.33,1.53Z"/>
  <path class="cls-2" d="M153.44,79.78c.14-.63.33-1.26.6-1.89.42-.99.9-1.89,1.45-2.68.55-.79,1.13-1.44,1.75-1.94.37-.29.71-.51,1.03-.66.19-.86.07-1.28-.36-1.23-.5.1-1.06.4-1.68.89s-1.2,1.14-1.75,1.94c-.55.79-1.03,1.69-1.45,2.68-.42.99-.69,1.99-.78,2.98.39.09.78.05,1.18-.09Z"/>
  <path class="cls-2" d="M162.84,74.66c-.15,1.14-.52,2.41-1.12,3.8-.6,1.39-1.38,2.58-2.35,3.57-.97.99-2.09,1.67-3.35,2.01-1.27.35-2.62.05-4.06-.89,0,.65.08,1.33.22,2.05.15.72.39,1.39.71,2.01.32.62.71,1.13,1.15,1.53.11.1.22.18.33.25-.17-.24-.34-.49-.48-.78-.32-.62-.56-1.29-.71-2.01-.15-.72-.22-1.4-.22-2.05,1.44.94,2.8,1.24,4.06.89,1.27-.35,2.38-1.02,3.35-2.01.97-.99,1.75-2.18,2.35-3.57.59-1.39.97-2.66,1.12-3.8.25-2.43-.2-4.38-1.34-5.85-.36-.46-.76-.85-1.18-1.2.06.07.13.12.18.2,1.14,1.47,1.59,3.42,1.34,5.85Z"/>
  <path class="cls-2" d="M141.98,72.27c-.3.65-.87,1.33-1.71,2.05-.85.72-1.75,1.4-2.72,2.05-.97.65-1.87,1.26-2.72,1.83s-1.39,1.03-1.64,1.38c-.2.3-.2.83,0,1.6.2.77.51,1.56.93,2.38.42.82.87,1.55,1.34,2.2.32.44.62.71.9.85-.44-.61-.85-1.29-1.24-2.05-.42-.82-.73-1.61-.93-2.38-.2-.77-.2-1.3,0-1.6.25-.35.79-.81,1.64-1.38s1.75-1.18,2.72-1.83c.97-.65,1.87-1.33,2.72-2.05.85-.72,1.42-1.4,1.71-2.05.55-1.29.53-2.43-.04-3.43-.44-.77-1-1.41-1.66-1.95.24.29.47.6.66.95.57.99.59,2.14.04,3.43Z"/>
  <path class="cls-2" d="M117.39,70.48c-.59.5-1.18,1.26-1.75,2.27-.57,1.02-1.09,2.16-1.56,3.43-.47,1.27-.88,2.56-1.23,3.88-.35,1.32-.58,2.52-.71,3.61-.12,1.09-.14,2-.04,2.72.1.72.37,1.08.82,1.08.06,0,.13-.03.19-.05,0-.01,0-.02,0-.03-.1-.72-.09-1.63.04-2.72.12-1.09.36-2.3.71-3.61.35-1.32.76-2.61,1.23-3.88.47-1.27.99-2.41,1.56-3.43.57-1.02,1.16-1.78,1.75-2.27.45-.4.56-.84.34-1.34-.21-.46-.61-.9-1.18-1.32.07.11.13.21.18.32.22.5.11.94-.34,1.34Z"/>
  <path class="cls-2" d="M139.15,52.15c-.6.55-1.39,1.58-2.39,3.09-.99,1.52-2,3.3-3.02,5.37-1.02,2.06-1.96,4.24-2.83,6.52-.87,2.29-1.45,4.45-1.75,6.48.33-.19.82-.61,1.45-1.26.32-1.36.75-2.76,1.3-4.22.87-2.28,1.81-4.46,2.83-6.52,1.02-2.06,2.02-3.85,3.02-5.37.99-1.51,1.79-2.54,2.39-3.09.25-.25.18-.61-.19-1.08-.22-.28-.53-.57-.91-.86.28.4.32.72.1.94Z"/>
  <path class="cls-2" d="M116.2,91.35c-.99,1.29-2.17,2.25-3.54,2.87-1.37.62-2.68.84-3.95.67-.91-.13-1.74-.49-2.49-1.07.06.08.11.17.17.24.94,1.04,2.05,1.65,3.31,1.83,1.27.17,2.58-.05,3.95-.67,1.36-.62,2.54-1.58,3.54-2.87.43-.56.85-1.15,1.25-1.77.02-.93.05-1.86.09-2.81-.73,1.32-1.51,2.51-2.35,3.58Z"/>
  <path class="cls-2" d="M212.4,76.37c-.3.99-.68,2.12-1.16,3.39-.47,1.27-1.02,2.57-1.64,3.91-.62,1.34-1.3,2.68-2.05,4.02-.75,1.34-1.54,2.56-2.39,3.65-.99,1.29-2.17,2.25-3.54,2.87-1.37.62-2.68.84-3.95.67-.91-.13-1.74-.49-2.49-1.07.06.08.11.17.17.24.94,1.04,2.05,1.65,3.31,1.83,1.27.17,2.58-.05,3.95-.67,1.36-.62,2.54-1.58,3.54-2.87.85-1.09,1.64-2.31,2.39-3.65.74-1.34,1.43-2.68,2.05-4.02.62-1.34,1.17-2.64,1.64-3.91.47-1.27.86-2.4,1.16-3.39.1-.35,0-.65-.3-.89-.19-.16-.42-.27-.67-.36,0,.08-.01.17-.04.25Z"/>
  <path class="cls-2" d="M189.26,92.95c-1.27,1.07-2.53,1.71-3.8,1.94-1.27.22-2.47.05-3.61-.52-.39-.19-.74-.44-1.08-.72.6.74,1.29,1.32,2.08,1.72,1.14.57,2.35.74,3.61.52,1.27-.22,2.53-.87,3.8-1.94,1.02-.86,1.95-2.03,2.79-3.49-.18-.64-.32-1.32-.4-2.1-.99,1.99-2.12,3.52-3.39,4.58Z"/>
  <path class="cls-2" d="M206.36,70.48c-.59.5-1.18,1.26-1.75,2.27-.57,1.02-1.09,2.16-1.56,3.43-.47,1.27-.88,2.56-1.23,3.88s-.58,2.52-.71,3.61c-.12,1.09-.14,2-.04,2.72.1.72.37,1.08.82,1.08.06,0,.13-.03.19-.05,0-.01,0-.02,0-.03-.1-.72-.09-1.63.04-2.72.12-1.09.36-2.3.71-3.61s.76-2.61,1.23-3.88c.47-1.27.99-2.41,1.56-3.43.57-1.02,1.16-1.78,1.75-2.27.45-.4.56-.84.34-1.34-.21-.46-.61-.9-1.18-1.32.07.11.13.21.18.32.22.5.11.94-.34,1.34Z"/>
  <path class="cls-2" d="M187.16,82.55c.15-1.32.45-2.68.89-4.1.45-1.42,1.02-2.62,1.71-3.61.7-.99,1.5-1.63,2.42-1.9.6-.18,1.22-.09,1.87.24.03-.08.05-.16.08-.23-1.04-.94-2.03-1.28-2.94-1.01-.92.28-1.73.91-2.42,1.9-.69.99-1.26,2.2-1.71,3.61-.45,1.42-.75,2.78-.89,4.1s-.11,2.43.11,3.35c.2.81.57,1.22,1.1,1.28-.03-.09-.07-.17-.1-.28-.22-.92-.26-2.04-.11-3.35Z"/>
  <path class="cls-2" d="M282.36,70.48c-.3,1.29-.66,2.58-1.08,3.87-.42,1.29-.91,2.68-1.45,4.17.94-2.07,2.01-3.98,3.2-5.74.11-.43.23-.87.33-1.3.3-1.29.05-2.27-.75-2.94-.15-.12-.3-.23-.46-.33.34.6.42,1.36.21,2.28Z"/>
  <path class="cls-2" d="M259.55,79.78c.14-.63.33-1.26.6-1.89.42-.99.9-1.89,1.45-2.68.55-.79,1.13-1.44,1.75-1.94.37-.29.71-.51,1.03-.66.19-.86.07-1.28-.36-1.23-.5.1-1.06.4-1.68.89s-1.2,1.14-1.75,1.94c-.55.79-1.03,1.69-1.45,2.68-.42.99-.69,1.99-.78,2.98.39.09.78.05,1.18-.09Z"/>
  <path class="cls-2" d="M248.5,86.02c-1.07,1.62-2.21,3.08-3.43,4.4-1.22,1.32-2.45,2.32-3.69,3.02-.99.55-1.96.92-2.91,1.12-.94.2-1.81.25-2.61.15-.99.05-2.09-.12-3.28-.52-1.19-.4-2.49-1.09-3.87-2.09-.1,1.24-.19,2.55-.26,3.91-.08,1.37-.18,2.7-.3,3.99-.12,1.29-.3,2.53-.52,3.73-.22,1.19-.56,2.23-1,3.13-.5,1.04-1.36,1.74-2.57,2.09-1.22.35-2.41.45-3.58.3-1.05-.14-1.93-.41-2.66-.8.08.31.31.6.75.87.77.47,1.74.78,2.9.93,1.17.15,2.36.05,3.58-.3,1.22-.35,2.07-1.04,2.57-2.09.45-.89.78-1.94,1-3.13.22-1.19.4-2.43.52-3.73.12-1.29.22-2.62.3-3.99.07-1.36.16-2.67.26-3.91,1.39.99,2.68,1.69,3.87,2.09,1.19.4,2.28.57,3.28.52.79.1,1.66.05,2.61-.15.94-.2,1.91-.57,2.91-1.12,1.24-.7,2.47-1.7,3.69-3.02,1.03-1.11,2-2.33,2.92-3.65-.16-.63-.28-1.28-.35-1.96-.05.07-.09.15-.13.22Z"/>
  <path class="cls-2" d="M231.09,83.44c.18-1.07.34-2.1.49-3.09.15-.99.27-1.86.37-2.61.79-1.34,1.53-2.37,2.2-3.09.6-.65,1.4-.82,2.38-.57-.15-.47-.37-.79-.66-.92-1.14-.4-2.05-.24-2.72.49-.67.72-1.4,1.75-2.2,3.09-.1.75-.22,1.62-.37,2.61-.15.99-.31,2.02-.49,3.09-.17,1.07-.33,2.13-.48,3.2-.15,1.07-.3,2.08-.45,3.02.37.29.72.46,1.07.57.13-.82.25-1.68.38-2.59.15-1.07.31-2.13.48-3.2Z"/>
  <path class="cls-2" d="M232.25,68.51s.04.24.04.78c.27-.23.57-.44.86-.64-.12-.32-.46-.62-.98-.9.02.07.05.13.05.2,0,.4.01.58.04.56Z"/>
  <path class="cls-2" d="M245.48,72.94c.2,1.19.3,2.47.3,3.84s-.11,2.81-.34,4.32c-.22,1.52-.56,2.99-1.01,4.43.63-.84,1.25-1.75,1.87-2.7.04-.25.1-.49.14-.73.22-1.51.34-2.95.34-4.32s-.1-2.65-.3-3.84c-.2-1.19-.47-2.16-.82-2.9-.45-.89-1.01-1.59-1.68-2.09,0,0,0,0,0,0,.25.32.48.68.68,1.09.35.74.62,1.71.82,2.9Z"/>
  <path class="cls-2" d="M296.22,71.3c-.15.8-.4,1.78-.74,2.94-.35,1.17-.72,2.4-1.12,3.69-.4,1.29-.77,2.56-1.12,3.8-.35,1.24-.61,2.35-.78,3.32-.17.97-.21,1.73-.11,2.27.1.55.4.75.89.6.02,0,.04-.02.06-.03-.03-.49.03-1.11.16-1.84.18-.97.44-2.07.78-3.32.35-1.24.72-2.51,1.12-3.8.4-1.29.77-2.52,1.12-3.69.35-1.17.59-2.15.74-2.94.25-1.39.04-2.5-.63-3.31-.26-.32-.56-.58-.88-.81.56.8.74,1.83.51,3.12Z"/>
  <path class="cls-2" d="M268.95,74.66c-.15,1.14-.52,2.41-1.12,3.8-.6,1.39-1.38,2.58-2.35,3.57-.97.99-2.09,1.67-3.35,2.01-1.27.35-2.62.05-4.06-.89,0,.65.08,1.33.22,2.05.15.72.39,1.39.71,2.01.32.62.71,1.13,1.15,1.53.11.1.22.18.33.25-.17-.24-.34-.49-.48-.78-.32-.62-.56-1.29-.71-2.01-.15-.72-.22-1.4-.22-2.05,1.44.94,2.8,1.24,4.06.89,1.27-.35,2.38-1.02,3.35-2.01.97-.99,1.75-2.18,2.35-3.57.59-1.39.97-2.66,1.12-3.8.25-2.43-.2-4.38-1.34-5.85-.36-.46-.76-.85-1.18-1.2.06.07.13.12.18.2,1.14,1.47,1.59,3.42,1.34,5.85Z"/>
  <path class="cls-2" d="M325.43,88.25c-.65,1.22-1.29,2.25-1.94,3.09-.99,1.24-2.11,2.14-3.35,2.68-1.24.55-2.46.76-3.65.63-1.12-.12-2.11-.52-2.99-1.18.24.32.51.62.82.88.92.75,1.98,1.18,3.17,1.3,1.19.12,2.41-.09,3.65-.63,1.24-.55,2.36-1.44,3.35-2.68.57-.74,1.13-1.63,1.7-2.66-.13-.73-.23-1.52-.28-2.38-.16.32-.32.64-.48.95Z"/>
  <path class="cls-2" d="M310.08,70.48c-.3,1.29-.66,2.58-1.08,3.87-.42,1.29-.91,2.68-1.45,4.17.94-2.07,2.01-3.98,3.2-5.74.11-.43.23-.87.33-1.3.3-1.29.05-2.27-.75-2.94-.15-.12-.3-.23-.46-.33.34.6.42,1.36.21,2.28Z"/>
  <path class="cls-2" d="M295.78,91.35c-.99,1.24-2.11,2.14-3.35,2.68-1.24.55-2.46.76-3.65.63-1.12-.12-2.11-.52-2.99-1.18.24.32.51.62.82.88.92.75,1.98,1.18,3.17,1.3,1.19.12,2.41-.09,3.65-.63,1.24-.55,2.36-1.44,3.35-2.68.29-.37.57-.8.86-1.25-.17-.56-.27-1.29-.29-2.18-.52.93-1.05,1.75-1.57,2.43Z"/>
  <path class="cls-2" d="M313.66,74.96c-.3.05-.76.48-1.38,1.3-.62.82-1.28,1.94-1.97,3.35-.7,1.42-1.38,3.07-2.05,4.95-.67,1.89-1.2,3.9-1.6,6.04-.3,1.54-.86,2.64-1.68,3.31-.82.67-1.71.98-2.68.93-.97-.05-1.89-.39-2.76-1-.04-.03-.07-.06-.11-.09.3.42.67.78,1.11,1.09.87.62,1.79.96,2.76,1,.97.05,1.86-.26,2.68-.93.82-.67,1.38-1.78,1.68-3.31.4-2.14.93-4.15,1.6-6.04.67-1.89,1.35-3.54,2.05-4.95.67-1.37,1.31-2.45,1.91-3.26.12-.36.23-.71.33-1.02.32-.97.36-1.43.11-1.38Z"/>
  <path class="cls-2" d="M338.96,87.88c-.27.57-.62,1.22-1.04,1.94-.42.72-.93,1.46-1.53,2.23-.59.77-1.26,1.45-2.01,2.05-.4.3-.98.51-1.75.63-.77.12-1.58.07-2.42-.15-.7-.18-1.36-.52-2-1,.18.26.38.5.61.7.75.65,1.54,1.08,2.38,1.3.85.22,1.65.27,2.42.15.77-.12,1.35-.34,1.75-.63.75-.6,1.42-1.28,2.01-2.05.27-.35.51-.69.75-1.02.53-1.59,1.02-3.4,1.46-5.45-.15.3-.36.73-.63,1.3Z"/>
  <path class="cls-2" d="M337.8,68.92c-.1.45-.28,1.24-.56,2.38-.27,1.15-.59,2.43-.93,3.87-.35,1.44-.7,2.96-1.04,4.55-.35,1.59-.63,3.03-.86,4.32-.22,1.29-.36,2.37-.41,3.24-.05.87.05,1.3.3,1.3.2,0,.44-.18.72-.52.06-.83.19-1.84.39-3.03.22-1.29.51-2.73.86-4.32.35-1.59.69-3.1,1.04-4.55.35-1.44.66-2.73.93-3.87.27-1.14.46-1.94.56-2.38.15-.69-.16-1.3-.93-1.83-.06-.04-.12-.07-.17-.1.14.29.18.6.11.93Z"/>
  <path class="cls-2" d="M353.34,84.34c-1.81,2.63-3.76,5.14-5.85,7.53-.59,2.29-1.23,4.46-1.9,6.52-.67,2.06-1.4,3.91-2.2,5.55-.79,1.64-1.64,3.02-2.53,4.14-.89,1.12-1.84,1.83-2.83,2.12-1.74.55-3.22.69-4.43.45-1.22-.25-2.25-.65-3.09-1.19-.24,0-.56-.16-.95-.46.2.27.43.53.69.75.55.47.97.71,1.27.71.84.55,1.87.94,3.09,1.19,1.22.25,2.69.1,4.43-.45.99-.3,1.94-1.01,2.83-2.12.89-1.12,1.74-2.5,2.53-4.14.79-1.64,1.53-3.49,2.2-5.55.67-2.06,1.31-4.24,1.9-6.52,2.09-2.38,4.04-4.89,5.85-7.53,1.81-2.63,3.29-5.44,4.44-8.42.15-.4.06-.68-.26-.86-.21-.11-.46-.17-.72-.21,0,.02,0,.04-.02.07-1.14,2.98-2.62,5.79-4.44,8.42Z"/>
  <path class="cls-2" d="M323.94,71.3c-.15.8-.4,1.78-.74,2.94-.35,1.17-.72,2.4-1.12,3.69-.4,1.29-.77,2.56-1.12,3.8-.35,1.24-.61,2.35-.78,3.32-.17.97-.21,1.73-.11,2.27.1.55.4.75.89.6.02,0,.04-.02.06-.03-.03-.49.03-1.11.16-1.84.18-.97.44-2.07.78-3.32.35-1.24.72-2.51,1.12-3.8.4-1.29.77-2.52,1.12-3.69.35-1.17.59-2.15.74-2.94.25-1.39.04-2.5-.63-3.31-.26-.32-.56-.58-.88-.81.56.8.74,1.83.51,3.12Z"/>
  <path class="cls-2" d="M351.66,70.04c-.3,1.94-.63,4.07-1,6.41-.37,2.33-.81,4.72-1.3,7.15.58-.75,1.12-1.51,1.63-2.27.24-1.31.47-2.61.67-3.89.37-2.33.71-4.47,1-6.41.15-1.04-.21-1.83-1.08-2.35-.03-.02-.07-.03-.1-.05.19.4.25.86.18,1.4Z"/>
  <path class="cls-2" d="M285.94,74.96c-.3.05-.76.48-1.38,1.3-.62.82-1.28,1.94-1.97,3.35-.7,1.42-1.38,3.07-2.05,4.95-.67,1.89-1.2,3.9-1.6,6.04-.3,1.54-.86,2.64-1.68,3.31-.82.67-1.71.98-2.68.93-.97-.05-1.89-.39-2.76-1-.04-.03-.07-.06-.11-.09.3.42.67.78,1.11,1.09.87.62,1.79.96,2.76,1,.97.05,1.86-.26,2.68-.93.82-.67,1.38-1.78,1.68-3.31.4-2.14.93-4.15,1.6-6.04.67-1.89,1.35-3.54,2.05-4.95.67-1.37,1.31-2.45,1.91-3.26.12-.36.23-.71.33-1.02.32-.97.36-1.43.11-1.38Z"/>
  <path class="cls-2" d="M268.72,91.04c.33-.38.65-.79.96-1.22-.04-.37-.06-.76-.06-1.2,0-.38.02-.81.04-1.22-.62.95-1.25,1.84-1.94,2.64-.92,1.07-2,2.05-3.24,2.94-1.14.84-2.41,1.45-3.8,1.83-1.39.37-2.76.47-4.1.3-1.34-.17-2.61-.66-3.8-1.45-.22-.15-.43-.33-.64-.5.49.6,1.04,1.1,1.64,1.5,1.19.79,2.46,1.28,3.8,1.45,1.34.18,2.71.08,4.1-.3,1.39-.37,2.66-.98,3.8-1.83,1.24-.89,2.32-1.87,3.24-2.94Z"/>
  <path class="cls-2" d="M364.29,90.94c-.37.92-.89,1.87-1.56,2.87-.67.99-1.46,1.88-2.38,2.65-.92.77-1.88,1.16-2.87,1.16-.51,0-.93-.04-1.26-.1,0,.11,0,.22.03.32.1.52.85.78,2.24.78.99,0,1.95-.39,2.87-1.16.92-.77,1.71-1.65,2.38-2.65.67-.99,1.19-1.95,1.56-2.87.37-.92.53-1.53.49-1.83-.12-.43-.47-.79-1.05-1.1.01.03.04.06.05.1.05.3-.11.91-.49,1.83Z"/>
  <path class="cls-2" d="M122,133.25c.14-.63.33-1.26.6-1.89.42-.99.9-1.89,1.45-2.68.55-.79,1.13-1.44,1.75-1.94.37-.29.71-.51,1.03-.66.19-.86.07-1.28-.36-1.23-.5.1-1.06.4-1.68.89-.62.5-1.2,1.14-1.75,1.94-.55.79-1.03,1.69-1.45,2.68-.42.99-.69,1.99-.78,2.98.39.09.78.05,1.18-.09Z"/>
  <path class="cls-2" d="M142.46,136.02c.15-1.32.45-2.68.89-4.1.45-1.42,1.02-2.62,1.71-3.61.7-.99,1.5-1.63,2.42-1.9.6-.18,1.22-.09,1.87.24.03-.08.05-.16.08-.23-1.04-.94-2.03-1.28-2.94-1.01-.92.28-1.73.91-2.42,1.9-.69.99-1.26,2.2-1.71,3.61-.45,1.42-.75,2.78-.89,4.1s-.11,2.43.11,3.35c.2.81.57,1.22,1.1,1.28-.03-.09-.07-.17-.1-.28-.22-.92-.26-2.04-.11-3.35Z"/>
  <path class="cls-2" d="M173.06,125.82c0,.99-.02,2.13-.04,3.43-.02,1.29-.06,2.64-.11,4.06-.05,1.42-.05,2.72,0,3.91.05,1.19.14,2.19.26,2.98.12.79.31,1.19.56,1.19.11,0,.25-.15.4-.45-.1-.75-.18-1.65-.23-2.72-.05-1.19-.05-2.5,0-3.91.05-1.42.09-2.77.11-4.06.02-1.29.04-2.43.04-3.43s-.03-1.66-.08-2.01c-.14-.69-.63-1.34-1.44-1.96.22.31.38.64.44.96.05.35.08,1.02.08,2.01Z"/>
  <path class="cls-2" d="M161.66,123.95c-.59.5-1.18,1.26-1.75,2.27-.57,1.02-1.09,2.16-1.56,3.43-.47,1.27-.88,2.56-1.23,3.87s-.58,2.52-.71,3.61c-.12,1.09-.14,2-.04,2.72.1.72.37,1.08.82,1.08.06,0,.13-.03.19-.05,0-.01,0-.02,0-.03-.1-.72-.09-1.63.04-2.72.12-1.09.36-2.3.71-3.61s.76-2.61,1.23-3.87c.47-1.27.99-2.41,1.56-3.43.57-1.02,1.16-1.78,1.75-2.27.45-.4.56-.84.34-1.34-.21-.46-.61-.9-1.18-1.32.07.11.13.21.18.32.22.5.11.94-.34,1.34Z"/>
  <path class="cls-2" d="M132.7,139.96c-.78,1.32-1.63,2.5-2.53,3.55-.92,1.07-2,2.05-3.24,2.94-1.14.84-2.41,1.45-3.8,1.83-1.39.37-2.76.47-4.1.3-1.34-.17-2.61-.66-3.8-1.45-.22-.15-.43-.33-.64-.5.49.6,1.04,1.1,1.64,1.5,1.19.79,2.46,1.28,3.8,1.45,1.34.18,2.71.08,4.1-.3,1.39-.37,2.66-.98,3.8-1.83,1.24-.89,2.32-1.87,3.24-2.94.67-.78,1.3-1.66,1.9-2.59-.13-.51-.24-1.04-.33-1.61-.02-.11-.03-.23-.04-.35Z"/>
  <path class="cls-2" d="M208.3,128.12c-.15,1.14-.52,2.41-1.12,3.8-.6,1.39-1.38,2.58-2.35,3.57-.97.99-2.09,1.67-3.35,2.01-1.27.35-2.62.05-4.06-.89,0,.65.08,1.33.22,2.05.15.72.39,1.39.71,2.01.32.62.71,1.13,1.15,1.53.11.1.22.18.33.25-.17-.24-.34-.49-.48-.78-.32-.62-.56-1.29-.71-2.01-.15-.72-.22-1.4-.22-2.05,1.44.94,2.8,1.24,4.06.89,1.27-.35,2.38-1.02,3.35-2.01.97-.99,1.75-2.18,2.35-3.57.59-1.39.97-2.66,1.12-3.8.25-2.43-.2-4.38-1.34-5.85-.36-.46-.76-.85-1.18-1.2.06.07.13.12.18.2,1.14,1.47,1.59,3.42,1.34,5.85Z"/>
  <path class="cls-2" d="M214.89,130.13c-.18-.14-.4-.24-.64-.33-.84,2.07-1.62,3.94-2.34,5.59-.72,1.66-1.48,3.17-2.27,4.51-.79,1.34-1.65,2.55-2.57,3.61-.92,1.07-2,2.05-3.24,2.94-1.14.84-2.41,1.45-3.8,1.83-1.39.37-2.76.47-4.1.3-1.34-.17-2.61-.66-3.8-1.45-.22-.15-.43-.33-.64-.5.49.6,1.04,1.1,1.64,1.5,1.19.79,2.46,1.28,3.8,1.45,1.34.18,2.71.08,4.1-.3,1.39-.37,2.66-.98,3.8-1.83,1.24-.89,2.32-1.87,3.24-2.94.92-1.07,1.78-2.27,2.57-3.61.79-1.34,1.55-2.84,2.27-4.51.72-1.66,1.5-3.54,2.35-5.63.05-.2-.08-.41-.37-.63Z"/>
  <path class="cls-2" d="M186.7,126.04c-.4,1.54-.89,3.18-1.49,4.92.45.09.88.12,1.29.1.46-1.4.87-2.75,1.2-4.02.4-1.54.65-2.88.75-4.02.05-.59-.3-1.12-1.04-1.56-.02-.01-.05-.02-.07-.03.08.19.13.39.11.6-.1,1.14-.35,2.49-.75,4.02Z"/>
  <path class="cls-2" d="M114.86,106.07c-.65.4-1.4,1.56-2.27,3.5-.87,1.94-1.74,4.25-2.61,6.93-.87,2.68-1.69,5.52-2.46,8.53-.77,3.01-1.42,5.8-1.94,8.38-.52,2.58-.84,4.73-.97,6.45-.12,1.71.04,2.62.49,2.72.14.04.31-.02.5-.12-.03-.42-.03-.95.02-1.6.12-1.71.45-3.86.97-6.45.52-2.58,1.17-5.38,1.94-8.38.77-3,1.59-5.85,2.46-8.53.87-2.68,1.74-4.99,2.61-6.93.87-1.94,1.63-3.1,2.27-3.5.45-.3.52-.73.22-1.3-.25-.47-.68-.95-1.27-1.42.1.14.19.28.27.42.3.57.22,1.01-.22,1.3Z"/>
  <path class="cls-2" d="M144.56,146.42c-1.27,1.07-2.53,1.71-3.8,1.94-1.27.22-2.47.05-3.61-.52-.39-.19-.74-.44-1.08-.72.6.74,1.29,1.32,2.08,1.72,1.14.57,2.35.74,3.61.52,1.27-.22,2.53-.87,3.8-1.94,1.02-.86,1.95-2.03,2.79-3.49-.18-.64-.32-1.32-.4-2.1-.99,1.99-2.12,3.52-3.39,4.58Z"/>
  <path class="cls-2" d="M108.45,144.67c-.94,1.34-2.04,2.33-3.28,2.98-1.24.65-2.47.96-3.69.93-1.22-.02-2.32-.39-3.32-1.08-.02-.02-.04-.04-.07-.06.31.41.66.77,1.07,1.06.99.69,2.1,1.06,3.32,1.08,1.22.03,2.44-.29,3.69-.93,1.24-.65,2.33-1.64,3.28-2.98.83-1.2,1.56-2.39,2.23-3.57-.2-.61-.37-1.24-.48-1.91-.8,1.48-1.71,2.97-2.75,4.48Z"/>
  <path class="cls-2" d="M164.48,138c-.51,1.05-1.04,2.11-1.63,3.16-.75,1.34-1.54,2.56-2.39,3.65-.99,1.29-2.17,2.25-3.54,2.87-1.37.62-2.68.84-3.95.67-.91-.13-1.74-.49-2.49-1.07.06.08.11.17.17.24.94,1.04,2.05,1.65,3.31,1.83,1.27.17,2.58-.05,3.95-.67,1.36-.62,2.54-1.58,3.54-2.87.85-1.09,1.64-2.31,2.39-3.65.33-.6.65-1.2.95-1.8-.12-.71-.22-1.44-.31-2.25,0-.04,0-.07-.01-.11Z"/>
  <path class="cls-2" d="M131.4,128.12c-.15,1.14-.52,2.41-1.12,3.8-.6,1.39-1.38,2.58-2.35,3.57-.97.99-2.09,1.67-3.35,2.01-1.27.35-2.62.05-4.06-.89,0,.65.08,1.33.22,2.05.15.72.39,1.39.71,2.01.32.62.71,1.13,1.15,1.53.11.1.22.18.33.25-.17-.24-.34-.49-.48-.78-.32-.62-.56-1.29-.71-2.01-.15-.72-.22-1.4-.22-2.05,1.44.94,2.8,1.24,4.06.89,1.27-.35,2.38-1.02,3.35-2.01.97-.99,1.75-2.18,2.35-3.57.59-1.39.97-2.66,1.12-3.8.25-2.43-.2-4.38-1.34-5.85-.36-.46-.76-.85-1.18-1.2.06.07.13.12.18.2,1.14,1.47,1.59,3.42,1.34,5.85Z"/>
  <path class="cls-2" d="M198.9,133.25c.14-.63.33-1.26.6-1.89.42-.99.9-1.89,1.45-2.68.55-.79,1.13-1.44,1.75-1.94.37-.29.71-.51,1.03-.66.19-.86.07-1.28-.36-1.23-.5.1-1.06.4-1.68.89s-1.2,1.14-1.75,1.94c-.55.79-1.03,1.69-1.45,2.68-.42.99-.69,1.99-.78,2.98.39.09.78.05,1.18-.09Z"/>
  <path class="cls-2" d="M186.81,134.98c-1.12.5-2.27.8-3.47.89-.89,2.14-1.79,4.08-2.68,5.81-.89,1.74-1.61,3.03-2.16,3.88-.6.85-1.53,1.49-2.8,1.94-1.27.45-2.58.62-3.95.52-1.36-.1-2.63-.5-3.8-1.19-.19-.11-.35-.25-.51-.38.41.56.91,1.02,1.51,1.38,1.17.69,2.43,1.09,3.8,1.19,1.37.1,2.68-.07,3.95-.52,1.27-.45,2.2-1.09,2.8-1.94.55-.84,1.26-2.13,2.16-3.88.89-1.74,1.79-3.67,2.68-5.81,1.19-.1,2.35-.4,3.47-.89.04-.02.08-.04.12-.06.03-.52.07-1.04.14-1.57-.41.22-.81.44-1.25.63Z"/>
  <path class="cls-2" d="M234.72,146.42c-1.27,1.07-2.53,1.71-3.8,1.94-1.27.22-2.47.05-3.61-.52-.39-.19-.74-.44-1.08-.72.6.74,1.29,1.32,2.08,1.72,1.14.57,2.35.74,3.61.52,1.27-.22,2.53-.87,3.8-1.94,1.02-.86,1.95-2.03,2.79-3.49-.18-.64-.32-1.32-.4-2.1-.99,1.99-2.12,3.52-3.39,4.58Z"/>
  <path class="cls-2" d="M257.89,129.59c0,.08-.01.17-.04.25-.3.99-.68,2.12-1.16,3.39-.47,1.27-1.02,2.57-1.64,3.91-.62,1.34-1.3,2.68-2.05,4.02-.75,1.34-1.54,2.56-2.39,3.65-.99,1.29-2.17,2.25-3.54,2.87-1.37.62-2.68.84-3.95.67-.91-.13-1.74-.49-2.49-1.07.06.08.11.17.17.24.94,1.04,2.05,1.65,3.31,1.83,1.27.17,2.58-.05,3.95-.67,1.36-.62,2.54-1.58,3.54-2.87.85-1.09,1.64-2.31,2.39-3.65.74-1.34,1.43-2.68,2.05-4.02.62-1.34,1.17-2.64,1.64-3.91.47-1.27.86-2.4,1.16-3.39.1-.35,0-.65-.3-.89-.19-.16-.42-.27-.67-.36Z"/>
  <path class="cls-2" d="M232.62,136.02c.15-1.32.45-2.68.89-4.1.45-1.42,1.02-2.62,1.71-3.61.7-.99,1.5-1.63,2.42-1.9.6-.18,1.22-.09,1.87.24.03-.08.05-.16.08-.23-1.04-.94-2.03-1.28-2.94-1.01-.92.28-1.73.91-2.42,1.9-.69.99-1.26,2.2-1.71,3.61-.45,1.42-.75,2.78-.89,4.1s-.11,2.43.11,3.35c.2.81.57,1.22,1.1,1.28-.03-.09-.07-.17-.1-.28-.22-.92-.26-2.04-.11-3.35Z"/>
  <path class="cls-2" d="M251.82,123.95c-.59.5-1.18,1.26-1.75,2.27-.57,1.02-1.09,2.16-1.56,3.43-.47,1.27-.88,2.56-1.23,3.87-.35,1.32-.58,2.52-.71,3.61-.12,1.09-.14,2-.04,2.72.1.72.37,1.08.82,1.08.06,0,.13-.03.19-.05,0-.01,0-.02,0-.03-.1-.72-.09-1.63.04-2.72.12-1.09.36-2.3.71-3.61.35-1.32.76-2.61,1.23-3.87.47-1.27.99-2.41,1.56-3.43.57-1.02,1.16-1.78,1.75-2.27.45-.4.56-.84.34-1.34-.21-.46-.61-.9-1.18-1.32.07.11.13.21.18.32.22.5.11.94-.34,1.34Z"/>
  <path class="cls-2" d="M384.42,141.35c-.27.57-.62,1.22-1.04,1.94-.42.72-.93,1.46-1.53,2.23-.59.77-1.26,1.45-2.01,2.05-.4.3-.98.51-1.75.63-.77.12-1.58.07-2.42-.15-.7-.18-1.36-.52-2-1,.18.26.38.5.61.7.75.65,1.54,1.08,2.38,1.3.85.22,1.65.27,2.42.15.77-.12,1.35-.34,1.75-.63.75-.6,1.42-1.28,2.01-2.05.27-.35.51-.69.75-1.02.53-1.59,1.02-3.4,1.46-5.45-.15.3-.36.73-.63,1.3Z"/>
  <path class="cls-2" d="M305.01,133.25c.14-.63.33-1.26.6-1.89.42-.99.9-1.89,1.45-2.68.55-.79,1.13-1.44,1.75-1.94.37-.29.71-.51,1.03-.66.19-.86.07-1.28-.36-1.23-.5.1-1.06.4-1.68.89s-1.2,1.14-1.75,1.94c-.55.79-1.03,1.69-1.45,2.68-.42.99-.69,1.99-.78,2.98.39.09.78.05,1.18-.09Z"/>
  <path class="cls-2" d="M403.97,129.53c-.21-.11-.46-.17-.72-.21,0,.02,0,.04-.02.07-1.14,2.98-2.62,5.79-4.44,8.42-1.81,2.63-3.76,5.14-5.85,7.53-.59,2.29-1.23,4.46-1.9,6.52-.67,2.06-1.4,3.91-2.2,5.55-.79,1.64-1.64,3.02-2.53,4.14-.89,1.12-1.84,1.83-2.83,2.12-1.74.55-3.22.69-4.43.45-1.22-.25-2.25-.65-3.09-1.19-.24,0-.56-.16-.95-.46.2.27.43.53.69.75.55.47.97.71,1.27.71.84.55,1.87.94,3.09,1.19,1.22.25,2.69.1,4.43-.45.99-.3,1.94-1.01,2.83-2.12.89-1.12,1.74-2.5,2.53-4.14.79-1.64,1.53-3.49,2.2-5.55.67-2.06,1.31-4.24,1.9-6.52,2.09-2.38,4.04-4.89,5.85-7.53,1.81-2.63,3.29-5.44,4.44-8.42.15-.4.06-.68-.26-.86Z"/>
  <path class="cls-2" d="M370.89,141.72c-.65,1.22-1.29,2.25-1.94,3.09-.99,1.24-2.11,2.14-3.35,2.68-1.24.55-2.46.76-3.65.63-1.12-.12-2.11-.52-2.99-1.18.24.32.51.62.82.88.92.75,1.98,1.18,3.17,1.3s2.41-.09,3.65-.63c1.24-.55,2.36-1.44,3.35-2.68.57-.74,1.13-1.63,1.7-2.66-.13-.73-.23-1.52-.28-2.38-.16.32-.32.64-.48.95Z"/>
  <path class="cls-2" d="M331.4,128.42c-.3.05-.76.48-1.38,1.3-.62.82-1.28,1.94-1.97,3.35-.7,1.42-1.38,3.07-2.05,4.95-.67,1.89-1.2,3.9-1.6,6.04-.3,1.54-.86,2.64-1.68,3.31-.82.67-1.71.98-2.68.93-.97-.05-1.89-.39-2.76-1-.04-.03-.07-.06-.11-.09.3.42.67.78,1.11,1.09.87.62,1.79.96,2.76,1,.97.05,1.86-.26,2.68-.93.82-.67,1.38-1.78,1.68-3.31.4-2.14.93-4.15,1.6-6.04.67-1.89,1.35-3.54,2.05-4.95.67-1.37,1.31-2.45,1.91-3.26.12-.36.23-.71.33-1.02.32-.97.36-1.43.11-1.38Z"/>
  <path class="cls-2" d="M359.12,128.42c-.3.05-.76.48-1.38,1.3-.62.82-1.28,1.94-1.97,3.35-.7,1.42-1.38,3.07-2.05,4.95-.67,1.89-1.2,3.9-1.6,6.04-.3,1.54-.86,2.64-1.68,3.31-.82.67-1.71.98-2.68.93-.97-.05-1.89-.39-2.76-1-.04-.03-.07-.06-.11-.09.3.42.67.78,1.11,1.09.87.62,1.79.96,2.76,1,.97.05,1.86-.26,2.68-.93.82-.67,1.38-1.78,1.68-3.31.4-2.14.93-4.15,1.6-6.04.67-1.89,1.35-3.54,2.05-4.95.67-1.37,1.31-2.45,1.91-3.26.12-.36.23-.71.33-1.02.32-.97.36-1.43.11-1.38Z"/>
  <path class="cls-2" d="M315.12,140.87c-.62.95-1.25,1.84-1.94,2.64-.92,1.07-2,2.05-3.24,2.94-1.14.84-2.41,1.45-3.8,1.83-1.39.37-2.76.47-4.1.3-1.34-.17-2.61-.66-3.8-1.45-.22-.15-.43-.33-.64-.5.49.6,1.04,1.1,1.64,1.5,1.19.79,2.46,1.28,3.8,1.45,1.34.18,2.71.08,4.1-.3,1.39-.37,2.66-.98,3.8-1.83,1.24-.89,2.32-1.87,3.24-2.94.33-.38.65-.79.96-1.22-.04-.37-.06-.76-.06-1.2,0-.38.02-.81.04-1.22Z"/>
  <path class="cls-2" d="M341.24,144.81c-.99,1.24-2.11,2.14-3.35,2.68-1.24.55-2.46.76-3.65.63-1.12-.12-2.11-.52-2.99-1.18.24.32.51.62.82.88.92.75,1.98,1.18,3.17,1.3s2.41-.09,3.65-.63c1.24-.55,2.36-1.44,3.35-2.68.29-.37.57-.8.86-1.25-.17-.56-.27-1.29-.29-2.18-.52.93-1.05,1.75-1.57,2.43Z"/>
  <path class="cls-2" d="M276.55,136.91c.18-1.07.34-2.1.49-3.09.15-.99.27-1.86.37-2.61.79-1.34,1.53-2.37,2.2-3.09.6-.65,1.4-.82,2.38-.57-.15-.47-.37-.79-.66-.92-1.14-.4-2.05-.24-2.72.49-.67.72-1.4,1.75-2.2,3.09-.1.75-.22,1.62-.37,2.61-.15.99-.31,2.02-.49,3.09-.17,1.07-.33,2.13-.48,3.2-.15,1.07-.3,2.08-.45,3.02.37.29.72.46,1.07.57.13-.82.25-1.68.38-2.59.15-1.07.31-2.13.48-3.2Z"/>
  <path class="cls-2" d="M293.96,139.49c-1.07,1.62-2.21,3.08-3.43,4.4-1.22,1.32-2.45,2.32-3.69,3.02-.99.55-1.96.92-2.91,1.12-.94.2-1.81.25-2.61.15-.99.05-2.09-.12-3.28-.52-1.19-.4-2.49-1.09-3.88-2.09-.1,1.24-.19,2.55-.26,3.91-.08,1.37-.18,2.7-.3,3.99-.12,1.29-.3,2.53-.52,3.73-.22,1.19-.56,2.23-1,3.13-.5,1.04-1.36,1.74-2.57,2.09-1.22.35-2.41.45-3.58.3-1.05-.14-1.93-.41-2.66-.8.08.31.31.6.75.87.77.47,1.74.78,2.9.93,1.17.15,2.36.05,3.58-.3,1.22-.35,2.07-1.04,2.57-2.09.45-.89.78-1.94,1-3.13.22-1.19.4-2.43.52-3.73.12-1.29.22-2.62.3-3.99.07-1.36.16-2.67.26-3.91,1.39.99,2.68,1.69,3.88,2.09,1.19.4,2.28.57,3.28.52.79.1,1.66.05,2.61-.15.94-.2,1.91-.57,2.91-1.12,1.24-.7,2.47-1.7,3.69-3.02,1.02-1.11,2-2.33,2.92-3.65-.16-.63-.28-1.28-.35-1.96-.05.07-.09.15-.13.22Z"/>
  <path class="cls-2" d="M290.94,126.41c.2,1.19.3,2.47.3,3.84s-.11,2.81-.34,4.32c-.22,1.52-.56,2.99-1.01,4.43.63-.84,1.25-1.75,1.87-2.7.04-.25.1-.49.14-.73.22-1.51.34-2.95.34-4.32s-.1-2.65-.3-3.84c-.2-1.19-.47-2.16-.82-2.9-.45-.89-1.01-1.59-1.68-2.09,0,0,0,0,0,0,.25.32.48.68.68,1.09.35.74.62,1.71.82,2.9Z"/>
  <path class="cls-2" d="M277.71,121.98s.04.24.04.78c.27-.23.57-.44.86-.64-.12-.32-.46-.62-.98-.9.02.07.05.13.05.2,0,.4.01.58.04.56Z"/>
  <path class="cls-2" d="M327.82,123.95c-.3,1.29-.66,2.58-1.08,3.88s-.91,2.68-1.45,4.17c.94-2.07,2.01-3.98,3.2-5.74.11-.43.23-.87.33-1.3.3-1.29.05-2.27-.75-2.94-.15-.12-.3-.23-.46-.33.34.6.42,1.36.21,2.28Z"/>
  <path class="cls-2" d="M383.26,122.39c-.1.45-.29,1.24-.56,2.38-.27,1.15-.59,2.43-.93,3.88-.35,1.44-.7,2.96-1.04,4.55-.35,1.59-.63,3.03-.86,4.32-.22,1.29-.36,2.37-.41,3.24-.05.87.05,1.3.3,1.3.2,0,.45-.18.72-.52.06-.83.19-1.83.39-3.03.22-1.29.51-2.73.86-4.32.35-1.59.69-3.1,1.04-4.55.35-1.44.66-2.73.93-3.88.27-1.14.46-1.94.56-2.38.15-.69-.16-1.3-.93-1.83-.06-.04-.12-.07-.17-.1.14.29.18.6.11.93Z"/>
  <path class="cls-2" d="M355.54,123.95c-.3,1.29-.66,2.58-1.08,3.88s-.91,2.68-1.45,4.17c.94-2.07,2.01-3.98,3.2-5.74.11-.43.23-.87.33-1.3.3-1.29.05-2.27-.75-2.94-.15-.12-.3-.23-.46-.33.34.6.42,1.36.21,2.28Z"/>
  <path class="cls-2" d="M397.12,123.5c-.3,1.94-.63,4.07-1,6.41-.37,2.33-.81,4.72-1.3,7.15.58-.75,1.12-1.51,1.63-2.27.24-1.31.47-2.61.67-3.89.37-2.33.71-4.47,1-6.41.15-1.04-.21-1.83-1.08-2.35-.03-.02-.07-.03-.1-.05.19.4.25.86.18,1.4Z"/>
  <path class="cls-2" d="M369.4,124.77c-.15.8-.4,1.78-.74,2.94-.35,1.17-.72,2.4-1.12,3.69-.4,1.29-.77,2.56-1.12,3.8-.35,1.24-.61,2.35-.78,3.32-.17.97-.21,1.73-.11,2.27.1.55.4.75.89.6.02,0,.04-.02.06-.03-.03-.49.03-1.11.16-1.84.18-.97.44-2.07.78-3.32.35-1.24.72-2.51,1.12-3.8.4-1.29.77-2.52,1.12-3.69.35-1.17.59-2.15.74-2.94.25-1.39.04-2.5-.63-3.31-.26-.32-.56-.58-.88-.81.56.8.74,1.83.51,3.12Z"/>
  <path class="cls-2" d="M341.68,124.77c-.15.8-.4,1.78-.74,2.94-.35,1.17-.72,2.4-1.12,3.69-.4,1.29-.77,2.56-1.12,3.8-.35,1.24-.61,2.35-.78,3.32-.17.97-.21,1.73-.11,2.27.1.55.4.75.89.6.02,0,.04-.02.06-.03-.03-.49.03-1.11.16-1.84.18-.97.44-2.07.78-3.32.35-1.24.72-2.51,1.12-3.8.4-1.29.77-2.52,1.12-3.69.35-1.17.59-2.15.74-2.94.25-1.39.04-2.5-.63-3.31-.26-.32-.56-.58-.88-.81.56.8.74,1.83.51,3.12Z"/>
  <path class="cls-2" d="M314.41,128.12c-.15,1.14-.52,2.41-1.12,3.8-.6,1.39-1.38,2.58-2.35,3.57-.97.99-2.09,1.67-3.35,2.01-1.27.35-2.62.05-4.06-.89,0,.65.08,1.33.22,2.05.15.72.39,1.39.71,2.01.32.62.71,1.13,1.15,1.53.11.1.22.18.33.25-.17-.24-.34-.49-.48-.78-.32-.62-.56-1.29-.71-2.01-.15-.72-.22-1.4-.22-2.05,1.44.94,2.8,1.24,4.06.89,1.27-.35,2.38-1.02,3.35-2.01.97-.99,1.75-2.18,2.35-3.57.59-1.39.97-2.66,1.12-3.8.25-2.43-.2-4.38-1.34-5.85-.36-.46-.76-.85-1.18-1.2.06.07.13.12.18.2,1.14,1.47,1.59,3.42,1.34,5.85Z"/>
  <g>
    <path class="cls-2" d="M99.03,47.58c2.73-.25,4.67-1.09,5.81-2.53.55-.69.81-1.4.78-2.12-.02-.72-.22-1.32-.6-1.79-.37-.47-.86-.77-1.45-.89-.59-.12-1.19.04-1.79.49-1.29.5-2.88.68-4.77.56-1.89-.12-4.01-.36-6.37-.71-2.36-.35-4.92-.72-7.67-1.12-2.76-.4-5.65-.65-8.68-.75-2.49-.05-4.91.11-7.26.49-2.36.37-4.51.99-6.45,1.86-1.94.87-3.6,2.01-4.99,3.43s-2.33,3.14-2.83,5.18c-.4,1.54-.42,3-.07,4.4.35,1.39.9,2.67,1.68,3.84.77,1.17,1.65,2.17,2.64,3.02s1.91,1.49,2.76,1.94c.85.45,1.54.68,2.09.71.55.03.74-.23.59-.78-.15-.59-.11-1.63.11-3.09.22-1.46.83-3,1.83-4.62.99-1.62,2.5-3.12,4.51-4.51s4.71-2.29,8.09-2.68c-.25,1.94-.59,4.28-1.01,7.04-.42,2.76-.93,5.66-1.53,8.72-.6,3.06-1.29,6.14-2.09,9.24-.79,3.1-1.68,5.98-2.65,8.61-.97,2.63-2.02,4.89-3.17,6.78-1.14,1.89-2.36,3.13-3.65,3.73-.4.2-.36.53.11,1.01.47.47,1.23.94,2.27,1.42,1.04.47,2.26.86,3.65,1.16,1.39.3,2.78.37,4.18.22,1.39-.15,2.69-.61,3.91-1.38,1.22-.77,2.17-1.97,2.87-3.61.6-1.49,1.18-3.4,1.75-5.74.57-2.33,1.1-4.87,1.6-7.6.49-2.73.97-5.58,1.42-8.53.45-2.96.86-5.8,1.23-8.53.37-2.73.7-5.24.97-7.53.27-2.29.53-4.15.78-5.59,4.87.45,8.67.55,11.4.3Z"/>
    <path class="cls-2" d="M95.49,93.89c1.27-.22,2.53-.87,3.8-1.94s2.4-2.6,3.39-4.58c.2,2.09.77,3.65,1.72,4.7.94,1.04,2.05,1.65,3.31,1.83,1.27.17,2.58-.05,3.95-.67,1.36-.62,2.54-1.58,3.54-2.87.83-1.07,1.61-2.27,2.35-3.58-.06,1.16-.1,2.31-.11,3.44,0,1.14.46,2.03,1.38,2.65.92.62,1.93,1.03,3.02,1.23,1.09.2,2.07.19,2.94-.04.87-.22,1.26-.61,1.16-1.16-.1-.5-.14-1.09-.11-1.79.02-.69.08-1.38.15-2.05.08-.67.18-1.32.3-1.94.12-.62.23-1.13.33-1.53.2.65.46,1.44.78,2.38.32.94.77,1.84,1.34,2.68.57.84,1.28,1.56,2.12,2.16.85.6,1.86.89,3.06.89,1.59,0,3.07-.71,4.43-2.12,1.32-1.37,2.49-2.98,3.53-4.83.22.86.51,1.66.9,2.41.75,1.54,1.71,2.71,2.9,3.5,1.19.79,2.46,1.28,3.8,1.45,1.34.18,2.71.08,4.1-.3,1.39-.37,2.66-.98,3.8-1.83,1.24-.89,2.32-1.87,3.24-2.94.92-1.07,1.78-2.27,2.57-3.61.79-1.34,1.55-2.84,2.27-4.51.72-1.66,1.5-3.54,2.35-5.63.05-.2-.08-.41-.37-.63-.3-.22-.67-.39-1.12-.49-.45-.1-.87-.11-1.27-.04-.4.08-.67.31-.82.71-.6,1.79-1.3,3.48-2.13,5.07-.82,1.59-1.67,2.99-2.57,4.21-.89,1.22-1.79,2.2-2.68,2.94-.89.75-1.66,1.14-2.31,1.19-.55.05-1.04-.12-1.49-.52-.45-.4-.83-.91-1.15-1.53-.32-.62-.56-1.29-.71-2.01-.15-.72-.22-1.4-.22-2.05,1.44.94,2.8,1.24,4.06.89,1.27-.35,2.38-1.02,3.35-2.01.97-.99,1.75-2.18,2.35-3.57.59-1.39.97-2.66,1.12-3.8.25-2.43-.2-4.38-1.34-5.85-1.14-1.46-2.61-2.38-4.4-2.76-1.79-.37-3.69-.16-5.7.63-2.01.79-3.71,2.21-5.1,4.25-.89,1.34-1.67,2.83-2.31,4.47-.39,1-.7,2.02-.95,3.05-.51,1.07-1.1,2.18-1.81,3.36-.75,1.24-1.52,2.37-2.31,3.39-.79,1.02-1.52,1.53-2.16,1.53-.4,0-.83-.32-1.3-.97-.47-.65-.92-1.38-1.34-2.2-.42-.82-.73-1.61-.93-2.38-.2-.77-.2-1.3,0-1.6.25-.35.79-.81,1.64-1.38s1.75-1.18,2.72-1.83c.97-.65,1.87-1.33,2.72-2.05.85-.72,1.42-1.4,1.71-2.05.55-1.29.53-2.43-.04-3.43-.57-.99-1.33-1.79-2.27-2.38-.95-.6-1.88-.98-2.8-1.16-.92-.17-1.4-.08-1.45.26-.1.5-.41,1.16-.93,1.97-.52.82-1.12,1.64-1.79,2.46-.67.82-1.34,1.58-2.01,2.27-.67.7-1.18,1.14-1.53,1.34.3-2.03.88-4.2,1.75-6.48.87-2.28,1.81-4.46,2.83-6.52,1.02-2.06,2.02-3.85,3.02-5.37.99-1.51,1.79-2.54,2.39-3.09.25-.25.18-.61-.19-1.08-.37-.47-.96-.96-1.75-1.45-.8-.5-1.72-.94-2.76-1.34-1.04-.39-2.09-.63-3.13-.71s-2.01.08-2.9.45c-.89.37-1.59,1.06-2.09,2.05-.85,1.74-1.73,4.15-2.65,7.23s-1.76,6.52-2.53,10.32c-.62,3.02-1.14,6.15-1.58,9.36-.23.57-.5,1.21-.84,1.96-.6,1.32-1.26,2.61-1.97,3.88-.72,1.27-1.43,2.36-2.13,3.28-.7.92-1.27,1.38-1.71,1.38s-.72-.36-.82-1.08c-.1-.72-.09-1.63.04-2.72.12-1.09.36-2.3.71-3.61.35-1.32.76-2.61,1.23-3.88.47-1.27.99-2.41,1.56-3.43.57-1.02,1.16-1.78,1.75-2.27.45-.4.56-.84.34-1.34s-.66-.97-1.3-1.42c-.65-.45-1.45-.82-2.42-1.12-.97-.3-1.94-.45-2.9-.45s-1.89.17-2.76.52c-.87.35-1.53.97-1.97,1.86-.1.25-.27.32-.52.22-.25-.1-.56-.27-.93-.52-.37-.25-.82-.52-1.34-.82-.52-.3-1.08-.55-1.68-.74-2.19-.65-4.09-.67-5.7-.08-1.62.6-3,1.62-4.14,3.06-1.15,1.44-2.03,3.15-2.65,5.14-.62,1.99-1.01,4.01-1.16,6.07-.15,2.06-.07,4.05.22,5.96.3,1.91.82,3.49,1.56,4.73.75,1.29,1.69,2.22,2.83,2.8,1.14.57,2.35.74,3.61.52ZM152.04,75.89c.42-.99.9-1.89,1.45-2.68.55-.79,1.13-1.44,1.75-1.94s1.18-.79,1.68-.89c.45-.05.56.4.34,1.34-.22.95-.63,1.98-1.23,3.09-.6,1.12-1.33,2.13-2.2,3.02-.87.89-1.73,1.24-2.57,1.04.1-.99.36-1.99.78-2.98ZM96.2,80.55c.15-1.32.45-2.68.89-4.1.45-1.42,1.02-2.62,1.71-3.61.7-.99,1.5-1.63,2.42-1.9.92-.27,1.9.06,2.94,1.01-.4,1.19-.85,2.55-1.34,4.06-.5,1.51-1.04,2.95-1.64,4.32-.6,1.37-1.19,2.52-1.79,3.47-.6.94-1.19,1.42-1.79,1.42-.65.05-1.08-.39-1.3-1.3s-.26-2.04-.11-3.35Z"/>
    <path class="cls-2" d="M178.01,90.57c.75,1.29,1.69,2.22,2.83,2.8,1.14.57,2.35.74,3.61.52,1.27-.22,2.53-.87,3.8-1.94s2.4-2.6,3.39-4.58c.2,2.09.77,3.65,1.72,4.7.94,1.04,2.05,1.65,3.31,1.83,1.27.17,2.58-.05,3.95-.67,1.36-.62,2.54-1.58,3.54-2.87.85-1.09,1.64-2.31,2.39-3.65.74-1.34,1.43-2.68,2.05-4.02.62-1.34,1.17-2.64,1.64-3.91.47-1.27.86-2.4,1.16-3.39.1-.35,0-.65-.3-.89-.3-.25-.66-.41-1.08-.49s-.83-.05-1.23.08c-.4.12-.67.39-.82.78-.25.74-.67,1.78-1.27,3.09-.6,1.32-1.26,2.61-1.97,3.88-.72,1.27-1.43,2.36-2.13,3.28-.7.92-1.27,1.38-1.71,1.38s-.72-.36-.82-1.08c-.1-.72-.09-1.63.04-2.72.12-1.09.36-2.3.71-3.61s.76-2.61,1.23-3.88c.47-1.27.99-2.41,1.56-3.43.57-1.02,1.16-1.78,1.75-2.27.45-.4.56-.84.34-1.34-.22-.5-.66-.97-1.3-1.42-.65-.45-1.45-.82-2.42-1.12-.97-.3-1.94-.45-2.9-.45s-1.89.17-2.76.52c-.87.35-1.53.97-1.97,1.86-.1.25-.27.32-.52.22-.25-.1-.56-.27-.93-.52-.37-.25-.82-.52-1.34-.82-.52-.3-1.08-.55-1.68-.74-2.19-.65-4.09-.67-5.7-.08-1.62.6-3,1.62-4.14,3.06-1.15,1.44-2.03,3.15-2.65,5.14-.62,1.99-1.01,4.01-1.16,6.07-.15,2.06-.07,4.05.22,5.96.3,1.91.82,3.49,1.56,4.73ZM185.16,80.55c.15-1.32.45-2.68.89-4.1.45-1.42,1.02-2.62,1.71-3.61.7-.99,1.5-1.63,2.42-1.9.92-.27,1.9.06,2.94,1.01-.4,1.19-.85,2.55-1.34,4.06-.5,1.51-1.04,2.95-1.64,4.32-.6,1.37-1.19,2.52-1.79,3.47-.6.94-1.19,1.42-1.79,1.42-.65.05-1.08-.39-1.3-1.3s-.26-2.04-.11-3.35Z"/>
    <path class="cls-2" d="M266.72,89.04c.68-.79,1.32-1.69,1.94-2.64-.02.41-.04.84-.04,1.22,0,1.17.12,2.08.37,2.72.35,1.04.96,1.88,1.83,2.5.87.62,1.79.96,2.76,1,.97.05,1.86-.26,2.68-.93.82-.67,1.38-1.78,1.68-3.31.4-2.14.93-4.15,1.6-6.04.67-1.89,1.35-3.54,2.05-4.95.69-1.42,1.35-2.53,1.97-3.35.62-.82,1.08-1.26,1.38-1.3.25-.05.21.41-.11,1.38-.32.97-.71,2.2-1.16,3.69-.45,1.49-.81,3.15-1.08,4.99-.27,1.84-.21,3.61.18,5.29.3,1.29.91,2.31,1.83,3.06.92.75,1.98,1.18,3.17,1.3,1.19.12,2.41-.09,3.65-.63,1.24-.55,2.36-1.44,3.35-2.68.52-.68,1.05-1.5,1.57-2.43.02,1.03.14,1.84.36,2.43.35,1.04.96,1.88,1.83,2.5.87.62,1.79.96,2.76,1,.97.05,1.86-.26,2.68-.93.82-.67,1.38-1.78,1.68-3.31.4-2.14.93-4.15,1.6-6.04.67-1.89,1.35-3.54,2.05-4.95.69-1.42,1.35-2.53,1.97-3.35.62-.82,1.08-1.26,1.38-1.3.25-.05.21.41-.11,1.38-.32.97-.71,2.2-1.16,3.69-.45,1.49-.81,3.15-1.08,4.99-.27,1.84-.21,3.61.18,5.29.3,1.29.91,2.31,1.83,3.06.92.75,1.98,1.18,3.17,1.3,1.19.12,2.41-.09,3.65-.63,1.24-.55,2.36-1.44,3.35-2.68.65-.84,1.29-1.87,1.94-3.09.16-.31.32-.63.48-.95.07,1.16.21,2.22.42,3.14.25,1.24.74,2.19,1.49,2.83.75.65,1.54,1.08,2.38,1.3.85.22,1.65.27,2.42.15.77-.12,1.35-.34,1.75-.63.75-.6,1.42-1.28,2.01-2.05.6-.77,1.11-1.52,1.53-2.23.42-.72.77-1.37,1.04-1.94.27-.57.49-1.01.63-1.3-.5,2.33-1.06,4.37-1.68,6.11-.62,1.74-1.3,3.3-2.05,4.69-1.54,1.29-2.87,2.38-3.99,3.28-1.12.89-1.9,1.49-2.35,1.79-1.04.69-1.64,1.45-1.79,2.27-.15.82-.07,1.58.22,2.27.3.7.72,1.28,1.27,1.75.55.47.97.71,1.27.71.84.55,1.87.94,3.09,1.19,1.22.25,2.69.1,4.43-.45.99-.3,1.94-1.01,2.83-2.12.89-1.12,1.74-2.5,2.53-4.14.79-1.64,1.53-3.49,2.2-5.55.67-2.06,1.31-4.24,1.9-6.52,2.09-2.38,4.04-4.89,5.85-7.53,1.81-2.63,3.29-5.44,4.44-8.42.15-.4.06-.68-.26-.86-.32-.18-.72-.26-1.19-.26s-.93.1-1.38.3c-.45.2-.75.45-.89.75-.55,1.29-1.22,2.58-2.01,3.87-.79,1.29-1.69,2.58-2.68,3.87.49-2.43.93-4.82,1.3-7.15.37-2.33.71-4.47,1-6.41.15-1.04-.21-1.83-1.08-2.35-.87-.52-1.88-.82-3.02-.89-1.14-.08-2.24.02-3.28.3-1.04.27-1.66.66-1.86,1.16-.25.99-.57,2.17-.97,3.54-.4,1.37-.84,2.81-1.34,4.32s-1.03,3.02-1.6,4.51c-.57,1.49-1.12,2.83-1.64,4.03-.52,1.19-1.01,2.15-1.45,2.87-.45.72-.82,1.08-1.12,1.08-.25,0-.35-.43-.3-1.3.05-.87.18-1.95.41-3.24.22-1.29.51-2.73.86-4.32.35-1.59.69-3.1,1.04-4.55.35-1.44.66-2.73.93-3.87.27-1.14.46-1.94.56-2.38.15-.69-.16-1.3-.93-1.83-.77-.52-1.69-.86-2.76-1.01-1.07-.15-2.13-.11-3.17.11s-1.79.73-2.23,1.53c-.55.94-1.03,2.37-1.45,4.28-.39,1.75-.69,3.65-.93,5.65-.24.62-.48,1.25-.74,1.91-.55,1.39-1.09,2.68-1.64,3.88-.55,1.19-1.08,2.21-1.6,3.06-.52.85-.98,1.32-1.38,1.42-.5.15-.79-.05-.89-.6-.1-.55-.06-1.3.11-2.27.18-.97.44-2.07.78-3.32.35-1.24.72-2.51,1.12-3.8.4-1.29.77-2.52,1.12-3.69.35-1.17.59-2.15.74-2.94.25-1.39.04-2.5-.63-3.31-.67-.82-1.55-1.35-2.64-1.6-1.09-.25-2.23-.21-3.43.11-1.19.32-2.19.91-2.98,1.75-.95.99-2.05,2.41-3.32,4.25-1.27,1.84-2.4,3.85-3.39,6.03.55-1.49,1.03-2.88,1.45-4.17.42-1.29.78-2.58,1.08-3.87.3-1.29.05-2.27-.75-2.94-.79-.67-1.75-1.07-2.87-1.19-1.12-.12-2.21.01-3.28.41-1.07.4-1.75.99-2.05,1.79-.35.75-.7,1.74-1.04,2.98-.35,1.24-.68,2.6-1.01,4.06-.13.57-.25,1.17-.36,1.76-.27.71-.56,1.45-.86,2.23-.55,1.39-1.09,2.68-1.64,3.88-.55,1.19-1.08,2.21-1.6,3.06-.52.85-.98,1.32-1.38,1.42-.5.15-.79-.05-.89-.6-.1-.55-.06-1.3.11-2.27.18-.97.44-2.07.78-3.32.35-1.24.72-2.51,1.12-3.8.4-1.29.77-2.52,1.12-3.69.35-1.17.59-2.15.74-2.94.25-1.39.04-2.5-.63-3.31-.67-.82-1.55-1.35-2.64-1.6-1.09-.25-2.23-.21-3.43.11-1.19.32-2.19.91-2.98,1.75-.95.99-2.05,2.41-3.32,4.25-1.27,1.84-2.4,3.85-3.39,6.03.55-1.49,1.03-2.88,1.45-4.17.42-1.29.78-2.58,1.08-3.87.3-1.29.05-2.27-.75-2.94-.79-.67-1.75-1.07-2.87-1.19-1.12-.12-2.21.01-3.28.41-1.07.4-1.75.99-2.05,1.79-.35.75-.7,1.74-1.04,2.98-.35,1.24-.68,2.6-1.01,4.06-.03.12-.05.25-.08.37-.59,1.75-1.28,3.41-2.09,4.96-.82,1.59-1.67,2.99-2.57,4.21-.89,1.22-1.79,2.2-2.68,2.94-.89.75-1.66,1.14-2.31,1.19-.55.05-1.04-.12-1.49-.52-.45-.4-.83-.91-1.15-1.53-.32-.62-.56-1.29-.71-2.01-.15-.72-.22-1.4-.22-2.05,1.44.94,2.8,1.24,4.06.89,1.27-.35,2.38-1.02,3.35-2.01.97-.99,1.75-2.18,2.35-3.57.59-1.39.97-2.66,1.12-3.8.25-2.43-.2-4.38-1.34-5.85-1.14-1.46-2.61-2.38-4.4-2.76-1.79-.37-3.69-.16-5.7.63-2.01.79-3.71,2.21-5.1,4.25-.89,1.34-1.67,2.83-2.31,4.47-.27.7-.5,1.4-.71,2.11-.6,1.16-1.23,2.31-1.9,3.44-.99,1.66-2.01,3.19-3.06,4.58.45-1.44.78-2.92,1.01-4.43.22-1.51.34-2.95.34-4.32s-.1-2.65-.3-3.84c-.2-1.19-.47-2.16-.82-2.9-.45-.89-1.01-1.59-1.68-2.09-.67-.5-1.36-.86-2.05-1.08s-1.35-.32-1.97-.3-1.13.09-1.53.18c-1.09.3-2.05.65-2.87,1.04-.82.4-1.58.89-2.27,1.49,0-.55-.01-.81-.04-.78-.02.02-.04-.16-.04-.56,0-.5-.44-.95-1.3-1.34-.87-.4-1.85-.63-2.94-.71-1.09-.08-2.14.05-3.13.37-.99.32-1.62.93-1.86,1.83-.1.3-.26,1.39-.48,3.28-.22,1.89-.51,4.17-.86,6.86-.35,2.68-.73,5.59-1.16,8.72-.42,3.13-.84,6.07-1.27,8.83-.42,2.76-.83,5.14-1.23,7.15-.4,2.01-.75,3.27-1.04,3.76-.35.6-.14,1.13.63,1.6.77.47,1.74.78,2.9.93,1.17.15,2.36.05,3.58-.3,1.22-.35,2.07-1.04,2.57-2.09.45-.89.78-1.94,1-3.13.22-1.19.4-2.43.52-3.73.12-1.29.22-2.62.3-3.99.07-1.36.16-2.67.26-3.91,1.39.99,2.68,1.69,3.87,2.09,1.19.4,2.28.57,3.28.52.79.1,1.66.05,2.61-.15.94-.2,1.91-.57,2.91-1.12,1.24-.7,2.47-1.7,3.69-3.02,1.22-1.32,2.36-2.78,3.43-4.4.05-.07.09-.15.13-.22.16,1.61.57,3.07,1.24,4.35.75,1.54,1.71,2.71,2.9,3.5,1.19.79,2.46,1.28,3.8,1.45,1.34.18,2.71.08,4.1-.3,1.39-.37,2.66-.98,3.8-1.83,1.24-.89,2.32-1.87,3.24-2.94ZM258.15,75.89c.42-.99.9-1.89,1.45-2.68.55-.79,1.13-1.44,1.75-1.94s1.18-.79,1.68-.89c.45-.05.56.4.34,1.34-.22.95-.63,1.98-1.23,3.09-.6,1.12-1.33,2.13-2.2,3.02-.87.89-1.73,1.24-2.57,1.04.1-.99.36-1.99.78-2.98ZM235.65,77.61c-.18,1.39-.49,2.83-.93,4.32-.45,1.49-1.01,2.78-1.68,3.87-.67,1.09-1.42,1.86-2.23,2.31-.82.45-1.7.3-2.65-.45.15-.94.3-1.95.45-3.02.15-1.07.31-2.13.48-3.2.18-1.07.34-2.1.49-3.09.15-.99.27-1.86.37-2.61.79-1.34,1.53-2.37,2.2-3.09.67-.72,1.58-.88,2.72-.49.45.2.73.81.86,1.83.12,1.02.1,2.22-.08,3.61Z"/>
    <path class="cls-2" d="M355.88,87.37c.35,1.14.31,2.27-.11,3.39-.42,1.12-.81,2.11-1.16,2.98-.35.87-.47,1.56-.37,2.09.1.52.85.78,2.24.78.99,0,1.95-.39,2.87-1.16.92-.77,1.71-1.65,2.38-2.65.67-.99,1.19-1.95,1.56-2.87.37-.92.53-1.53.49-1.83-.15-.55-.67-.99-1.56-1.34s-1.84-.56-2.83-.63c-.99-.08-1.86-.01-2.61.18-.75.2-1.04.55-.89,1.04Z"/>
    <path class="cls-2" d="M212.89,128.13c-.3-.22-.67-.39-1.12-.49-.45-.1-.87-.11-1.27-.04-.4.08-.67.31-.82.71-.6,1.79-1.3,3.48-2.13,5.07-.82,1.59-1.67,2.99-2.57,4.21-.89,1.22-1.79,2.2-2.68,2.94-.89.75-1.66,1.14-2.31,1.19-.55.05-1.04-.12-1.49-.52-.45-.4-.83-.91-1.15-1.53-.32-.62-.56-1.29-.71-2.01-.15-.72-.22-1.4-.22-2.05,1.44.94,2.8,1.24,4.06.89,1.27-.35,2.38-1.02,3.35-2.01.97-.99,1.75-2.18,2.35-3.57.59-1.39.97-2.66,1.12-3.8.25-2.43-.2-4.38-1.34-5.85-1.14-1.46-2.61-2.38-4.4-2.76s-3.69-.16-5.7.63c-2.01.79-3.71,2.21-5.1,4.25-.89,1.34-1.67,2.83-2.31,4.47-.14.35-.26.71-.38,1.06-.28.33-.68.61-1.22.84-.77.32-1.65.39-2.65.18.6-1.74,1.09-3.38,1.49-4.92.4-1.54.65-2.88.75-4.02.05-.59-.3-1.12-1.04-1.56-.75-.45-1.63-.76-2.65-.93s-2.01-.2-2.98-.08c-.97.12-1.68.46-2.12,1.01-.45.3-.83.88-1.16,1.75-.32.87-.6,1.81-.82,2.83-.22,1.02-.37,2.01-.45,2.98-.08.97-.06,1.75.04,2.35.05.25.08.51.08.78s.05.53.15.78c-.25,1.24-.5,2.43-.75,3.57-.25,1.14-.5,2.15-.74,3.02-.25.87-.49,1.56-.71,2.09-.22.52-.41.78-.56.78-.25,0-.44-.4-.56-1.19-.12-.79-.21-1.79-.26-2.98-.05-1.19-.05-2.5,0-3.91.05-1.42.09-2.77.11-4.06.02-1.29.04-2.43.04-3.43s-.03-1.66-.08-2.01c-.15-.75-.7-1.45-1.64-2.12-.94-.67-1.96-1.17-3.05-1.49-1.09-.32-2.1-.43-3.02-.34-.92.1-1.4.55-1.45,1.34-.05.75-.07,2.06-.07,3.95,0,1.6.05,3.34.14,5.21-.23.59-.52,1.27-.88,2.06-.6,1.32-1.26,2.61-1.97,3.88-.72,1.27-1.43,2.36-2.13,3.28-.7.92-1.27,1.38-1.71,1.38s-.72-.36-.82-1.08c-.1-.72-.09-1.63.04-2.72.12-1.09.36-2.3.71-3.61s.76-2.61,1.23-3.87c.47-1.27.99-2.41,1.56-3.43.57-1.02,1.16-1.78,1.75-2.27.45-.4.56-.84.34-1.34-.22-.5-.66-.97-1.3-1.42-.65-.45-1.45-.82-2.42-1.12-.97-.3-1.94-.45-2.9-.45s-1.89.17-2.76.52c-.87.35-1.53.97-1.97,1.86-.1.25-.27.32-.52.22-.25-.1-.56-.27-.93-.52-.37-.25-.82-.52-1.34-.82-.52-.3-1.08-.55-1.68-.74-2.19-.65-4.09-.67-5.7-.08-1.62.6-3,1.62-4.14,3.06-1.15,1.44-2.03,3.15-2.65,5.14-.37,1.19-.65,2.39-.85,3.61-.36.86-.74,1.69-1.16,2.5-.82,1.59-1.67,2.99-2.57,4.21-.89,1.22-1.79,2.2-2.68,2.94s-1.66,1.14-2.31,1.19c-.55.05-1.04-.12-1.49-.52-.45-.4-.83-.91-1.15-1.53-.32-.62-.56-1.29-.71-2.01-.15-.72-.22-1.4-.22-2.05,1.44.94,2.8,1.24,4.06.89,1.27-.35,2.38-1.02,3.35-2.01.97-.99,1.75-2.18,2.35-3.57.59-1.39.97-2.66,1.12-3.8.25-2.43-.2-4.38-1.34-5.85-1.14-1.46-2.61-2.38-4.4-2.76s-3.69-.16-5.7.63c-2.01.79-3.71,2.21-5.1,4.25-.89,1.34-1.67,2.83-2.31,4.47-.33.85-.61,1.71-.84,2.59-.24.62-.51,1.28-.8,2-.65,1.56-1.34,3.03-2.09,4.4-.74,1.36-1.45,2.52-2.12,3.46-.67.95-1.21,1.37-1.6,1.27-.45-.1-.61-1.01-.49-2.72.12-1.71.45-3.86.97-6.45.52-2.58,1.17-5.38,1.94-8.38.77-3,1.59-5.85,2.46-8.53.87-2.68,1.74-4.99,2.61-6.93.87-1.94,1.63-3.1,2.27-3.5.45-.3.52-.73.22-1.3-.3-.57-.85-1.14-1.64-1.71-.79-.57-1.74-1.08-2.83-1.53-1.09-.45-2.21-.7-3.35-.75-1.14-.05-2.22.16-3.24.63-1.02.47-1.83,1.33-2.42,2.57-.55,1.19-1.12,2.83-1.71,4.92-.59,2.09-1.16,4.42-1.68,7-.52,2.58-.99,5.29-1.42,8.12-.42,2.83-.74,5.54-.97,8.12-.22,2.59-.32,4.96-.3,7.12.02,2.16.21,3.87.56,5.11.4,1.39,1.09,2.43,2.09,3.13.99.69,2.1,1.06,3.32,1.08,1.22.03,2.44-.29,3.69-.93,1.24-.65,2.33-1.64,3.28-2.98,1.05-1.51,1.95-3,2.75-4.48.21,1.25.58,2.4,1.12,3.44.75,1.54,1.71,2.71,2.9,3.5,1.19.79,2.46,1.28,3.8,1.45,1.34.18,2.71.08,4.1-.3,1.39-.37,2.66-.98,3.8-1.83,1.24-.89,2.32-1.87,3.24-2.94.9-1.05,1.75-2.23,2.53-3.55.02.11.03.23.04.35.3,1.91.82,3.49,1.56,4.73.75,1.29,1.69,2.22,2.83,2.8,1.14.57,2.35.74,3.61.52,1.27-.22,2.53-.87,3.8-1.94,1.27-1.07,2.4-2.6,3.39-4.58.2,2.09.77,3.65,1.72,4.7.94,1.04,2.05,1.65,3.31,1.83,1.27.17,2.58-.05,3.95-.67,1.36-.62,2.54-1.58,3.54-2.87.85-1.09,1.64-2.31,2.39-3.65.58-1.05,1.12-2.11,1.63-3.16,0,.04,0,.07.01.11.25,2.23.6,4.07,1.04,5.51.45,1.44,1.26,2.51,2.42,3.2,1.17.69,2.43,1.09,3.8,1.19,1.37.1,2.68-.07,3.95-.52,1.27-.45,2.2-1.09,2.8-1.94.55-.84,1.26-2.13,2.16-3.88.89-1.74,1.79-3.67,2.68-5.81,1.19-.1,2.35-.4,3.47-.89.44-.19.85-.41,1.25-.63-.2,1.6-.24,3.17-.1,4.73.15,1.69.57,3.2,1.27,4.55.75,1.54,1.71,2.71,2.9,3.5,1.19.79,2.46,1.28,3.8,1.45,1.34.18,2.71.08,4.1-.3,1.39-.37,2.66-.98,3.8-1.83,1.24-.89,2.32-1.87,3.24-2.94.92-1.07,1.78-2.27,2.57-3.61.79-1.34,1.55-2.84,2.27-4.51.72-1.66,1.5-3.54,2.35-5.63.05-.2-.08-.41-.37-.63ZM197.51,129.36c.42-.99.9-1.89,1.45-2.68.55-.79,1.13-1.44,1.75-1.94s1.18-.79,1.68-.89c.45-.05.56.4.34,1.34-.22.95-.63,1.98-1.23,3.09-.6,1.12-1.33,2.13-2.2,3.02-.87.89-1.73,1.24-2.57,1.04.1-.99.36-1.99.78-2.98ZM120.61,129.36c.42-.99.9-1.89,1.45-2.68.55-.79,1.13-1.44,1.75-1.94.62-.5,1.18-.79,1.68-.89.45-.05.56.4.34,1.34-.22.95-.63,1.98-1.23,3.09-.6,1.12-1.33,2.13-2.2,3.02-.87.89-1.73,1.24-2.57,1.04.1-.99.36-1.99.78-2.98ZM147.1,129.47c-.5,1.51-1.04,2.95-1.64,4.32-.6,1.37-1.19,2.52-1.79,3.47-.6.94-1.19,1.42-1.79,1.42-.65.05-1.08-.39-1.3-1.3s-.26-2.04-.11-3.35.45-2.68.89-4.1c.45-1.42,1.02-2.62,1.71-3.61.7-.99,1.5-1.63,2.42-1.9.92-.27,1.9.06,2.94,1.01-.4,1.19-.85,2.55-1.34,4.06Z"/>
    <path class="cls-2" d="M255.48,127.46c-.42-.08-.83-.05-1.23.08-.4.12-.67.39-.82.78-.25.74-.67,1.78-1.27,3.09-.6,1.32-1.26,2.61-1.97,3.88-.72,1.27-1.43,2.36-2.13,3.28-.7.92-1.27,1.38-1.71,1.38s-.72-.36-.82-1.08c-.1-.72-.09-1.63.04-2.72.12-1.09.36-2.3.71-3.61.35-1.32.76-2.61,1.23-3.87.47-1.27.99-2.41,1.56-3.43.57-1.02,1.16-1.78,1.75-2.27.45-.4.56-.84.34-1.34s-.66-.97-1.3-1.42c-.65-.45-1.45-.82-2.42-1.12-.97-.3-1.94-.45-2.9-.45s-1.89.17-2.76.52c-.87.35-1.53.97-1.97,1.86-.1.25-.27.32-.52.22-.25-.1-.56-.27-.93-.52-.37-.25-.82-.52-1.34-.82-.52-.3-1.08-.55-1.68-.74-2.19-.65-4.09-.67-5.7-.08-1.62.6-3,1.62-4.14,3.06-1.15,1.44-2.03,3.15-2.65,5.14-.62,1.99-1.01,4.01-1.16,6.07-.15,2.06-.07,4.05.22,5.96.3,1.91.82,3.49,1.56,4.73.75,1.29,1.69,2.22,2.83,2.8,1.14.57,2.35.74,3.61.52,1.27-.22,2.53-.87,3.8-1.94,1.27-1.07,2.4-2.6,3.39-4.58.2,2.09.77,3.65,1.72,4.7.94,1.04,2.05,1.65,3.31,1.83,1.27.17,2.58-.05,3.95-.67,1.36-.62,2.54-1.58,3.54-2.87.85-1.09,1.64-2.31,2.39-3.65.74-1.34,1.43-2.68,2.05-4.02.62-1.34,1.17-2.64,1.64-3.91.47-1.27.86-2.4,1.16-3.39.1-.35,0-.65-.3-.89-.3-.25-.66-.41-1.08-.49ZM237.26,129.47c-.5,1.51-1.04,2.95-1.64,4.32-.6,1.37-1.19,2.52-1.79,3.47-.6.94-1.19,1.42-1.79,1.42-.65.05-1.08-.39-1.3-1.3s-.26-2.04-.11-3.35.45-2.68.89-4.1c.45-1.42,1.02-2.62,1.71-3.61.7-.99,1.5-1.63,2.42-1.9.92-.27,1.9.06,2.94,1.01-.4,1.19-.85,2.55-1.34,4.06Z"/>
    <path class="cls-2" d="M401.97,127.53c-.32-.18-.72-.26-1.19-.26s-.93.1-1.38.3c-.45.2-.75.45-.89.75-.55,1.29-1.22,2.58-2.01,3.88-.79,1.29-1.69,2.58-2.68,3.87.49-2.43.93-4.82,1.3-7.15.37-2.33.71-4.47,1-6.41.15-1.04-.21-1.83-1.08-2.35-.87-.52-1.88-.82-3.02-.89-1.14-.08-2.24.02-3.28.3s-1.66.66-1.86,1.16c-.25.99-.57,2.17-.97,3.54-.4,1.37-.84,2.81-1.34,4.32-.5,1.52-1.03,3.02-1.6,4.51-.57,1.49-1.12,2.83-1.64,4.03-.52,1.19-1.01,2.15-1.45,2.87-.45.72-.82,1.08-1.12,1.08-.25,0-.35-.43-.3-1.3.05-.87.18-1.95.41-3.24.22-1.29.51-2.73.86-4.32.35-1.59.69-3.1,1.04-4.55.35-1.44.66-2.73.93-3.88.27-1.14.46-1.94.56-2.38.15-.69-.16-1.3-.93-1.83-.77-.52-1.69-.86-2.76-1.01-1.07-.15-2.13-.11-3.17.11s-1.79.73-2.23,1.53c-.55.94-1.03,2.37-1.45,4.28-.39,1.75-.69,3.65-.93,5.65-.24.62-.48,1.25-.74,1.91-.55,1.39-1.09,2.68-1.64,3.88-.55,1.19-1.08,2.21-1.6,3.06-.52.85-.98,1.32-1.38,1.42-.5.15-.79-.05-.89-.6-.1-.55-.06-1.3.11-2.27.18-.97.44-2.07.78-3.32.35-1.24.72-2.51,1.12-3.8.4-1.29.77-2.52,1.12-3.69.35-1.17.59-2.15.74-2.94.25-1.39.04-2.5-.63-3.31-.67-.82-1.55-1.35-2.64-1.6-1.09-.25-2.23-.21-3.43.11-1.19.32-2.19.91-2.98,1.75-.95.99-2.05,2.41-3.32,4.25-1.27,1.84-2.4,3.85-3.39,6.03.55-1.49,1.03-2.88,1.45-4.17s.78-2.58,1.08-3.88c.3-1.29.05-2.27-.75-2.94-.79-.67-1.75-1.07-2.87-1.19-1.12-.12-2.21.01-3.28.41-1.07.4-1.75.99-2.05,1.79-.35.75-.7,1.74-1.04,2.98-.35,1.24-.68,2.6-1.01,4.06-.13.57-.25,1.17-.36,1.76-.27.71-.56,1.45-.86,2.23-.55,1.39-1.09,2.68-1.64,3.88-.55,1.19-1.08,2.21-1.6,3.06-.52.85-.98,1.32-1.38,1.42-.5.15-.79-.05-.89-.6-.1-.55-.06-1.3.11-2.27.18-.97.44-2.07.78-3.32.35-1.24.72-2.51,1.12-3.8.4-1.29.77-2.52,1.12-3.69.35-1.17.59-2.15.74-2.94.25-1.39.04-2.5-.63-3.31-.67-.82-1.55-1.35-2.64-1.6-1.09-.25-2.23-.21-3.43.11-1.19.32-2.19.91-2.98,1.75-.95.99-2.05,2.41-3.32,4.25-1.27,1.84-2.4,3.85-3.39,6.03.55-1.49,1.03-2.88,1.45-4.17s.78-2.58,1.08-3.88c.3-1.29.05-2.27-.75-2.94-.79-.67-1.75-1.07-2.87-1.19-1.12-.12-2.21.01-3.28.41-1.07.4-1.75.99-2.05,1.79-.35.75-.7,1.74-1.04,2.98-.35,1.24-.68,2.6-1.01,4.06-.03.12-.05.24-.08.36-.59,1.75-1.28,3.41-2.09,4.96-.82,1.59-1.67,2.99-2.57,4.21-.89,1.22-1.79,2.2-2.68,2.94-.89.75-1.66,1.14-2.31,1.19-.55.05-1.04-.12-1.49-.52-.45-.4-.83-.91-1.15-1.53-.32-.62-.56-1.29-.71-2.01-.15-.72-.22-1.4-.22-2.05,1.44.94,2.8,1.24,4.06.89,1.27-.35,2.38-1.02,3.35-2.01.97-.99,1.75-2.18,2.35-3.57.59-1.39.97-2.66,1.12-3.8.25-2.43-.2-4.38-1.34-5.85-1.14-1.46-2.61-2.38-4.4-2.76-1.79-.37-3.69-.16-5.7.63-2.01.79-3.71,2.21-5.1,4.25-.89,1.34-1.67,2.83-2.31,4.47-.27.7-.5,1.4-.71,2.11-.6,1.16-1.23,2.31-1.9,3.44-.99,1.66-2.01,3.19-3.06,4.58.45-1.44.78-2.92,1.01-4.43.22-1.51.34-2.95.34-4.32s-.1-2.65-.3-3.84c-.2-1.19-.47-2.16-.82-2.9-.45-.89-1.01-1.59-1.68-2.09-.67-.5-1.36-.86-2.05-1.08s-1.35-.32-1.97-.3c-.62.02-1.13.09-1.53.18-1.09.3-2.05.65-2.87,1.04-.82.4-1.58.89-2.27,1.49,0-.55-.01-.81-.04-.78-.02.02-.04-.16-.04-.56,0-.5-.44-.95-1.3-1.34-.87-.4-1.85-.63-2.94-.71-1.09-.08-2.14.05-3.13.37-.99.32-1.62.93-1.86,1.83-.1.3-.26,1.39-.48,3.28-.22,1.89-.51,4.17-.86,6.86-.35,2.68-.73,5.59-1.16,8.72-.42,3.13-.84,6.07-1.27,8.83-.42,2.76-.83,5.14-1.23,7.15s-.75,3.27-1.04,3.76c-.35.6-.14,1.13.63,1.6.77.47,1.74.78,2.9.93,1.17.15,2.36.05,3.58-.3,1.22-.35,2.07-1.04,2.57-2.09.45-.89.78-1.94,1-3.13.22-1.19.4-2.43.52-3.73.12-1.29.22-2.62.3-3.99.07-1.36.16-2.67.26-3.91,1.39.99,2.68,1.69,3.88,2.09,1.19.4,2.28.57,3.28.52.79.1,1.66.05,2.61-.15.94-.2,1.91-.57,2.91-1.12,1.24-.7,2.47-1.7,3.69-3.02,1.22-1.32,2.36-2.78,3.43-4.4.05-.07.09-.15.13-.22.16,1.61.57,3.07,1.24,4.35.75,1.54,1.71,2.71,2.9,3.5,1.19.79,2.46,1.28,3.8,1.45,1.34.18,2.71.08,4.1-.3,1.39-.37,2.66-.98,3.8-1.83,1.24-.89,2.32-1.87,3.24-2.94.68-.79,1.32-1.69,1.94-2.64-.02.41-.04.84-.04,1.22,0,1.17.12,2.08.37,2.72.35,1.04.96,1.88,1.83,2.5.87.62,1.79.96,2.76,1,.97.05,1.86-.26,2.68-.93.82-.67,1.38-1.78,1.68-3.31.4-2.14.93-4.15,1.6-6.04.67-1.89,1.35-3.54,2.05-4.95.69-1.42,1.35-2.53,1.97-3.35.62-.82,1.08-1.26,1.38-1.3.25-.05.21.41-.11,1.38-.32.97-.71,2.2-1.16,3.69-.45,1.49-.81,3.15-1.08,4.99-.27,1.84-.21,3.61.18,5.29.3,1.29.91,2.31,1.83,3.06s1.98,1.18,3.17,1.3,2.41-.09,3.65-.63c1.24-.55,2.36-1.44,3.35-2.68.52-.68,1.05-1.5,1.57-2.43.02,1.03.14,1.84.36,2.43.35,1.04.96,1.88,1.83,2.5.87.62,1.79.96,2.76,1,.97.05,1.86-.26,2.68-.93.82-.67,1.38-1.78,1.68-3.31.4-2.14.93-4.15,1.6-6.04.67-1.89,1.35-3.54,2.05-4.95.69-1.42,1.35-2.53,1.97-3.35.62-.82,1.08-1.26,1.38-1.3.25-.05.21.41-.11,1.38-.32.97-.71,2.2-1.16,3.69-.45,1.49-.81,3.15-1.08,4.99-.27,1.84-.21,3.61.18,5.29.3,1.29.91,2.31,1.83,3.06.92.75,1.98,1.18,3.17,1.3s2.41-.09,3.65-.63c1.24-.55,2.36-1.44,3.35-2.68.65-.84,1.29-1.87,1.94-3.09.16-.31.32-.63.48-.95.07,1.16.21,2.22.42,3.14.25,1.24.74,2.19,1.49,2.83.75.65,1.54,1.08,2.38,1.3.85.22,1.65.27,2.42.15.77-.12,1.35-.34,1.75-.63.75-.6,1.42-1.28,2.01-2.05.6-.77,1.11-1.52,1.53-2.23.42-.72.77-1.37,1.04-1.94.27-.57.49-1.01.63-1.3-.5,2.33-1.06,4.37-1.68,6.11-.62,1.74-1.3,3.3-2.05,4.69-1.54,1.29-2.87,2.38-3.99,3.28-1.12.89-1.9,1.49-2.35,1.79-1.04.69-1.64,1.45-1.79,2.27-.15.82-.07,1.58.22,2.27.3.7.72,1.28,1.27,1.75.55.47.97.71,1.27.71.84.55,1.87.94,3.09,1.19,1.22.25,2.69.1,4.43-.45.99-.3,1.94-1.01,2.83-2.12.89-1.12,1.74-2.5,2.53-4.14.79-1.64,1.53-3.49,2.2-5.55.67-2.06,1.31-4.24,1.9-6.52,2.09-2.38,4.04-4.89,5.85-7.53,1.81-2.63,3.29-5.44,4.44-8.42.15-.4.06-.68-.26-.86ZM303.61,129.36c.42-.99.9-1.89,1.45-2.68.55-.79,1.13-1.44,1.75-1.94s1.18-.79,1.68-.89c.45-.05.56.4.34,1.34-.22.95-.63,1.98-1.23,3.09-.6,1.12-1.33,2.13-2.2,3.02-.87.89-1.73,1.24-2.57,1.04.1-.99.36-1.99.78-2.98ZM281.11,131.07c-.18,1.39-.49,2.83-.93,4.32-.45,1.49-1.01,2.78-1.68,3.88-.67,1.09-1.42,1.86-2.23,2.31-.82.45-1.7.3-2.65-.45.15-.94.3-1.95.45-3.02.15-1.07.31-2.13.48-3.2.18-1.07.34-2.1.49-3.09.15-.99.27-1.86.37-2.61.79-1.34,1.53-2.37,2.2-3.09.67-.72,1.58-.88,2.72-.49.45.2.73.81.86,1.83.12,1.02.1,2.22-.08,3.61Z"/>
  </g>
  <rect class="cls-2" x="433.26" y="26.6" width="345.61" height="152.74" rx="11.39" ry="11.39"/>
</svg>