<?xml version="1.0" encoding="utf-8"?>
<!-- Generator: Adobe Illustrator 30.4.0, SVG Export Plug-In . SVG Version: 9.03 Build 0)  -->
<svg version="1.1" id="Layer_1" xmlns="http://www.w3.org/2000/svg" xmlns:xlink="http://www.w3.org/1999/xlink" x="0px" y="0px"
	 viewBox="0 0 1024 1024" style="enable-background:new 0 0 1024 1024;" xml:space="preserve">
<rect style="fill:#F5431B;" width="1024" height="1024"/>
<g id="Layer_1_00000070119645428396960760000008779838147351902645_">
	<g>
		<path style="fill:#FFFFFF;" d="M271.200592,403.5112c1.6348572,0.8231506,3.3608398,1.4772034,5.1653442,1.9676208
			c1.8039856,0.4904175,3.60849,1.065918,5.4130249,1.7199707c1.3141174,0.3267517,2.7493286,0.5749512,4.3050842,0.7386169
			c1.5563354,0.1636353,3.1546326,0.4118347,4.802063,0.7386169c0.8171692,0.1636353,2.1252747,0.2481995,3.935791,0.2481995
			c0.980835,0.327301,2.3369446,0.526947,4.0569153,0.6114807c1.7254028,0.0851135,3.0760803-0.0419922,4.0628967-0.3692932
			h2.7007751c1.4772034-0.3267517,2.9909668-0.490387,4.5532837-0.490387c1.5563354,0,2.9915466-0.1636658,4.3051147-0.4904175
			c1.3141174-0.3332825,2.5856934-0.6175232,3.8146973-0.8597107c1.2295532-0.2481995,2.5011292-0.5389709,3.8146973-0.8597107
			c2.9489746-0.9873657,5.7828674-2.0527344,8.489624-3.203186c2.7067871-1.1444702,5.2013855-2.5371399,7.5022888-4.1785583
			c6.7211304-4.7589417,11.8924866-11.6437073,15.5009766-20.6717834c0.6540833-1.4717712,1.1444702-2.9855347,1.4777832-4.5478516
			c0.3207397-1.5557556,0.732605-3.075531,1.2290039-4.5533142c0.3267517-0.8171387,0.447876-1.5982971,0.3692932-2.3374634
			c-0.0845337-0.7386169,0.0365601-1.5137634,0.3693237-2.3369141c0.817688-3.2757568,1.1870117-6.9273376,1.1018982-10.9476929
			c-0.0845337-4.0148926-0.1210938-7.9141235-0.1210938-11.6868286v-41.8258057v-49.4524689
			c0-1.473938,0.0365601-3.1120758,0.1210938-4.9193268c0.0851135-1.8045197,0.0851135-3.6063232,0-5.413559
			c-0.0845337-1.8012543-0.2421875-3.4819489-0.490387-5.0437164c-0.242218-1.5563202-0.6960754-2.7433319-1.3501282-3.5664825
			c-0.8237-0.8204346-2.0527039-1.3113861-3.693573-1.4777679c-1.6408997-0.1603851-3.3608398-0.2449341-5.1648254-0.2449341
			h-20.9145508c-0.327301,0.1663818-0.9813538,0.2449341-1.9681702,0.2449341
			c-1.8045044,0.6573334-3.0335083,1.4777679-3.6875916,2.4613037c-0.8231506,1.3141174-1.1929932,2.9522552-1.1079102,4.9198761
			c0.0785522,1.9681702,0.1211243,3.8572388,0.1211243,5.658493v23.6213074v65.9375305v11.8074036
			c0,0.9808044,0.0359802,2.0101624,0.1210938,3.0760803c0.0845337,1.065918,0.0425415,2.0101624-0.1210938,2.8278809
			c-0.1636658,0.9868164-0.242218,1.9316101-0.242218,2.8278809c0,0.9082642,0,1.8465271,0,2.8333435
			c-0.333313,1.8045044-0.5815125,3.4819336-0.7386169,5.0442505c-0.1696472,1.5563049-0.5815125,3.0700989-1.2355652,4.5473022
			c-1.6408691,4.759491-4.9165955,8.119812-9.8397522,10.0879822c-0.6535034,0.3327332-1.3135681,0.490387-1.9676208,0.490387
			s-1.3926697,0.1696472-2.2163696,0.4963989c-3.60849,0.8237305-7.1329956,0.7386169-10.5783691-0.2481995
			c-3.4454041-0.9808044-6.1516418-2.2158203-8.119812-3.6875916c-1.8045044-1.3141174-3.1971741-2.9124146-4.1779785-4.8015137
			c-0.9868164-1.8830566-1.8105469-3.9723511-2.4645996-6.2732544c-0.3267517-0.9808044-0.532959-1.9256287-0.6115112-2.8278809
			c-0.0845337-0.9022522-0.290741-1.8465271-0.6174927-2.8278809c-0.4904175-2.2943726-0.6115112-4.7589722-0.3692932-7.3811951
			c0.2481995-2.6216736-0.2062073-4.7589417-1.3506775-6.3998108c-0.4904175-0.8177185-1.5197754-1.3926697-3.075531-1.7199707
			c-1.5623169-0.3267517-3.2822876-0.532959-5.1653748-0.6175232c-1.8890686-0.0785522-3.8146973-0.0785522-5.7828674,0
			c-1.9676208,0.0845642-3.693573,0.1271057-5.1708069,0.1271057c-1.9681549,0-4.0568848,0-6.2732697,0
			c-2.2098236,0-3.9783325,0.4058533-5.2859039,1.2290039c-1.3141174,0.8237305-2.0527191,2.2529297-2.2163696,4.3056641
			c-0.1636505,2.0521851-0.2482147,4.2200012-0.2482147,6.5209351c0,0.817688,0,1.6834106,0,2.5796814
			c0,0.9022522,0.0845642,1.7679443,0.2482147,2.5856628v2.4580383c0,0.333313,0,0.7811584,0,1.3566589
			c0,0.5749512,0.0785522,1.0233459,0.2481995,1.3501282c0.327301,0.8237,0.4483948,1.5622864,0.3693085,2.2163696
			c-0.0845642,0.6540527,0.0365448,1.3926697,0.3692932,2.2098083c0,0.6600647,0.1576538,1.6474304,0.4909515,2.9549866
			c0.4904175,1.8045349,0.9808197,3.5304871,1.4772186,5.1653748c0.4904175,1.6408691,1.065918,3.2817383,1.7194366,4.9226074
			c2.2949219,5.2499084,5.5772095,9.8823242,9.8397522,13.9026489
			C261.1917114,398.0616455,265.9506836,401.2162781,271.200592,403.5112z"/>
		<path style="fill:#FFFFFF;" d="M385.1100769,325.3964233c-0.1636353,1.0691833-0.1636353,2.0892639,0,3.0733643
			c0.3267517,0.6600647,0.4544373,1.3533936,0.3693237,2.0920105c-0.0845642,0.7385864-0.042572,1.5164795,0.1271057,2.3401794
			c0.327301,1.308136,0.5694885,2.5796814,0.732605,3.8146973c0.1636353,1.2290344,0.4118347,2.4160461,0.7391357,3.5664978
			c0.1631165,0.6540527,0.24823,1.2715759,0.24823,1.8405151c0,0.5815125,0.1630859,1.2715759,0.490387,2.0952759
			c0.8171692,2.6217041,1.5563354,5.2073669,2.2158203,7.7504883c0.6540527,2.5431213,1.4777832,4.9591675,2.4585876,7.2540894
			c4.263092,9.8397827,9.8032227,18.3288574,16.609436,25.4678345c6.8056946,7.1329956,15.1316833,12.8312988,24.9714355,17.0998535
			c1.8045349,0.8177185,3.651062,1.5563049,5.5341187,2.2103882c1.8830872,0.6600342,3.7301331,1.3140869,5.534668,1.9676208
			c1.3141174,0.327301,2.6216736,0.618042,3.941803,0.86026c1.3081055,0.2481995,2.6216736,0.5323792,3.935791,0.8656921
			c1.3081055,0.3267822,2.5371399,0.5269775,3.6875916,0.6115112c1.1444397,0.0845642,2.3734741,0.2847595,3.693573,0.6175232
			h2.7068176c0.8171387,0.1636353,1.5982971,0.2001953,2.3374634,0.1210938
			c0.732605-0.0845642,1.5137634-0.0420227,2.3369141,0.1210938c0.4904175,0.1636353,1.5563049,0.2847595,3.1971741,0.3692932
			c1.6348877,0.0851135,2.7853394,0.042572,3.4454041-0.1210938l8.1138-0.7385864
			c0.8237-0.1636658,1.6834106-0.242218,2.5856934-0.242218c0.9022522,0,1.7619629-0.1696472,2.5856628-0.4963989
			c1.8045044-0.327301,3.6025085-0.6540527,5.4130249-0.980835c1.7985229-0.3332825,3.6030273-0.8237,5.4135437-1.4777527
			c12.2977905-4.0994568,22.6340027-9.9668579,30.9960022-17.5902405
			c8.3685303-7.6293945,15.0111084-17.1784058,19.9276733-28.6650391c1.1505127-2.6216736,2.0952759-5.3284607,2.8338623-8.1197815
			c0.7386475-2.7853394,1.5137939-5.6557617,2.3369751-8.610199c0.3272705-1.1444702,0.569458-2.2949219,0.7391357-3.4454041
			c0.1571045-1.1444702,0.4053345-2.2949219,0.732605-3.4453735c0.3267822-1.7985229,0.4963989-3.6030579,0.4963989-5.4103088
			c0-1.8017883,0.1576538-3.5244751,0.4904175-5.1653442v-3.1999207c0.3273315-0.9840698,0.4484253-2.6642151,0.3693237-5.0442505
			c-0.0845947-2.3734741-0.2907715-4.0569153-0.6174927-5.0404358v-1.9714355
			c-0.1636963-0.8171692-0.2056885-1.7586975-0.1211548-2.8273315c0.0786133-1.065918-0.0425415-2.0920105-0.3692627-3.0761108
			c-0.333313-0.9840698-0.4904175-2.0074463-0.4904175-3.0760803c0-1.0626221-0.1696777-2.1705627-0.4904175-3.3215637
			c-0.4963989-1.801239-0.9082642-3.5664673-1.2355347-5.2886353c-0.3267822-1.7226868-0.7386475-3.4033813-1.2290039-5.0442505
			c-0.8237305-2.4585876-1.5983276-4.7562256-2.3375244-6.8875122c-0.7385864-2.1318054-1.5983276-4.3449097-2.5791016-6.6425781
			c-1.3201294-3.1153564-2.8764648-6.0278015-4.6749878-8.7345581c-1.8104858-2.7067871-3.6144409-5.3710327-5.4129639-7.9959717
			c-0.6600952-0.8204346-1.3986816-1.6801453-2.2163696-2.5856781c-0.8231812-0.8989868-1.6409302-1.7586975-2.4580688-2.5824127
			c-1.4777222-1.9676208-3.3668213-3.8932495-5.6617432-5.7823181c-2.3009033-1.8836212-4.5112915-3.5664825-6.6425781-5.0409851
			c-6.7271118-4.7562256-14.3565063-8.4896393-22.8821716-11.1958771
			c-8.5256653-2.7067719-18.6136169-3.8937836-30.2579041-3.5664825c-0.3327332,0.1631012-0.7811584,0.1631012-1.3561096,0
			c-0.5755005-0.1636505-1.0233459-0.1636505-1.350647,0l-7.3811951,0.7386017
			c-0.8231506,0.1631012-1.5983276,0.2449341-2.3369446,0.2449341s-1.5197754,0.1636505-2.3374634,0.4904022
			c-2.3009338,0.6573334-4.6384277,1.2322998-7.0119019,1.722702c-2.3794556,0.4936829-4.6383972,1.1504669-6.7696533,1.9681702
			c-9.1856995,3.7754211-16.9727478,8.2861633-23.3725891,13.5333557
			c-6.3943787,5.2499084-12.0561218,11.8073883-16.9727478,19.6822357
			c-1.6408691,2.4613037-3.0395203,5.0862732-4.1839905,7.8716125c-1.1504517,2.7913208-2.3800354,5.5799255-3.693573,8.3652649
			c-0.9813843,2.6276855-1.7199707,5.2891846-2.2103882,7.9959717c-0.4963989,2.7062378-1.1504517,5.4555664-1.9676208,8.2436218
			c-0.333313,0.8204346-0.4969482,1.6834106-0.4969482,2.5829468c0,0.9017029-0.1631165,1.7647095-0.4904175,2.5823975
			c-0.3267517,0.9841003-0.4538574,2.0101929-0.3692932,3.0760803c0.0851135,1.068634-0.042572,2.1765442-0.3693237,3.3210144
			v1.4777832c-0.1636353,0.8204346-0.1636353,1.5983276,0,2.3369141c0.1636658,0.7358704,0.1636658,1.5170593,0,2.3374939
			c-0.3267517,0.8204346-0.490387,2.0887146-0.490387,3.8114014s0.1636353,2.9942627,0.490387,3.8146973
			C385.2737427,323.3044434,385.2737427,324.3310547,385.1100769,325.3964233z M423.4937744,312.4778442
			c0.1636658-0.8171387,0.1636658-1.7226868,0-2.7067566c-0.1636353-0.983551-0.085083-1.8830872,0.242218-2.7035217
			c0.1636353-0.6540527,0.2481995-1.2715454,0.2481995-1.8465271c0-0.5722351,0.0785522-1.1870117,0.2481995-1.8437805
			c0.490387-1.8045349,0.8597107-3.5697632,1.1079102-5.2924805c0.242218-1.7194214,0.6115112-3.4813843,1.1024475-5.2891846
			c2.4640503-7.3811646,5.6977844-13.6937256,9.7181396-18.943634c4.020874-5.2466431,9.4764404-9.3488159,16.3612366-12.3010559
			c1.4772034-0.6535034,3.0760803-1.1897583,4.8014832-1.5983276c1.7199707-0.4085693,3.4819336-0.7778931,5.2864685-1.1079102
			c0.8231812-0.327301,1.5557861-0.4511414,2.2158203-0.3692932c0.6540527,0.0845337,1.308136,0.0419922,1.9681702-0.1243896
			c0.3267517-0.1603699,0.6960754-0.2029114,1.1079102-0.1210938c0.4058838,0.0845337,0.775177,0.0425415,1.1084595-0.1243896
			c12.1341553,0,21.6046143,2.5829468,28.4168396,7.7510376c6.7996826,5.1648254,12.013031,11.9312134,15.6221008,20.2965088
			c0.8171387,1.8077698,1.4771729,3.6090393,1.9675903,5.4135437c0.4909668,1.807251,0.9813843,3.6090393,1.4777832,5.4130249
			c0.3267822,0.9840698,0.4904175,1.8863525,0.4904175,2.7067871c0.3267212,1.1477051,0.532959,2.3374634,0.6174927,3.5664673
			c0.0785522,1.2290344,0.28479,2.5038452,0.6115112,3.8146973c0.3272705,0.6573181,0.4484253,1.2715759,0.3693237,1.843811
			c-0.0845947,0.5755005-0.0420532,1.1929932,0.1210938,1.8437805v4.1839905
			c0.3272705,0.8237305,0.4969482,2.0107422,0.4969482,3.5664978c0,1.5623169-0.1696777,2.7493286-0.4969482,3.5697632v1.9676208
			c0,0.8209839,0,1.598877,0,2.3374939c0,0.7385864-0.0845337,1.4379272-0.2422485,2.0892639l-0.7385864,5.9094238
			c-0.6600342,2.1318054-1.1929932,4.263092-1.5983276,6.3943787c-0.4118042,2.1312561-1.0293579,4.0994263-1.8470459,5.9039612
			c-2.7913513,7.053894-6.1941833,12.7941895-10.2090759,17.2209473
			c-4.0203247,4.4321899-9.5610046,8.0412292-16.6088867,10.8265686c-1.4777527,0.6600647-3.0335388,1.1079102-4.6749573,1.3501282
			c-1.6408691,0.2481995-3.2817383,0.5389404-4.9226074,0.8656921c-0.8177185,0.3273315-1.5563049,0.4544067-2.2103577,0.3692932
			c-0.6600647-0.0845337-1.3986816-0.0419617-2.2158508,0.1211243h-1.9681702c-1.1504517,0-2.2158203,0-3.1971741,0
			c-0.9868164,0-1.9676208-0.1630859-2.9549866-0.4904175c-0.8231506-0.1630859-1.5983276-0.2056274-2.3369446-0.1271057
			c-0.7385864,0.0851135-1.5197449-0.0359802-2.3374634-0.3692932c-2.2949219-0.6480408-4.46875-1.3081055-6.5154724-1.9676208
			c-2.0587158-0.6540527-3.9837952-1.5563354-5.7823181-2.7067871c-0.9873657-0.4904175-1.9316406-0.9808044-2.8338928-1.4717712
			c-0.9022522-0.4963989-1.7619629-1.1504517-2.5796814-1.9676208c-3.935791-2.7913208-7.2235107-6.4369202-9.8457642-10.9536743
			c-2.6216736-4.5053101-4.8380432-9.3858948-6.6420288-14.6352539c-0.6540222-1.6408691-1.1024475-3.3608398-1.350647-5.1653748
			c-0.2481995-1.8045044-0.6174927-3.60849-1.1079102-5.4129944c0-0.6540527-0.0425415-1.2715759-0.1210938-1.8470764
			c-0.0845642-0.5722351-0.1271057-1.1864624-0.1271057-1.8465271c-0.1636658-0.6513367-0.242218-1.3506775-0.242218-2.0892639
			c0-0.7386169-0.085083-1.4352112-0.2481995-2.0920105v-2.7067871c-0.327301-0.8171387-0.4544067-2.3369141-0.3692932-4.5505676
			C422.9608154,314.8153381,423.1604919,313.3015747,423.4937744,312.4778442z"/>
		<path style="fill:#FFFFFF;" d="M588.460083,404.8613281c1.7194214,0.2481995,3.7301636,0.3692932,6.0250244,0.3692932h19.4368286
			h72.8250122h18.4564819c1.7979736,0,3.4814453,0,5.0437622,0c1.5562744,0,2.8278809-0.4058533,3.8086548-1.2290039
			c1.3141479-0.8177185,2.0527344-2.0892944,2.2164307-3.8146973c0.1630859-1.7199707,0.2481689-3.5664978,0.2481689-5.534668
			v-11.3169861c0-1.3081055-0.0425415-2.5431213-0.1271362-3.6875916c-0.0790405-1.1504517-0.284729-2.1312866-0.6114502-2.9549866
			c-0.4904175-1.3075562-1.3986816-2.2158203-2.7067871-2.7067566c-0.9868164-0.4904175-2.0892944-0.7386169-3.3242798-0.7386169
			c-1.2290649,0-2.5006104,0-3.8087158,0h-13.0429688h-46.255249h-10.3302002c-0.8231201,0-1.7254028,0.0425415-2.7062378,0.1271057
			c-0.9873047,0.085083-1.8895874,0.0425415-2.7067871-0.1271057h-2.4585571
			c-0.8231812-0.3267822-1.6043091-0.526947-2.3369141-0.6115112c-0.7391968-0.0845642-1.3566895-0.3693237-1.8470459-0.8657227
			c-1.1505127-0.8177185-1.8465576-2.0041809-2.0953369-3.5664978c-0.2421875-1.5563049-0.3632812-3.3182678-0.3632812-5.286438
			v-13.7815552v-9.3488159c0-0.8177185,0-1.6774292,0-2.5856934c0-0.8962402,0.0791016-1.7559509,0.2422485-2.5796814
			c0.4909058-1.4772034,1.2715454-2.5791321,2.3374634-3.3210144c1.0658569-0.7385864,2.3794556-1.2290039,3.93573-1.4772034
			c1.5563354-0.2454834,3.2397461-0.327301,5.0443115-0.2454834c1.8039551,0.0845642,3.6935425,0.1243896,5.6611938,0.1243896
			h47.9752808c1.1444092,0,2.585083,0.0419922,4.3050537,0.1210938c1.7194824,0.0845642,3.4454346,0.1238098,5.164856,0.1238098
			c1.7259521,0,3.2817383-0.0818176,4.6749268-0.2449036c1.3926392-0.1636658,2.5005493-0.4936829,3.3242798-0.9841003
			c0.980835-0.8204346,1.6348877-1.8830566,1.9676514-3.2004395c0.3267212-0.8171692,0.4903564-1.8012695,0.4903564-2.9517212
			c0-1.1444702,0-2.2949219,0-3.4454041c0-1.3108215,0.0426025-2.867157,0.1211548-4.6743774
			c0.085083-1.8018188,0.085083-3.5664978,0-5.2892151c-0.0785522-1.7226868-0.28479-3.3215637-0.6115112-4.796051
			c-0.3327637-1.4772034-0.9022827-2.4613037-1.7254028-2.9544373c-0.6541138-0.4909363-1.6834717-0.817688-3.0701294-0.9840698
			c-1.3986206-0.1604004-2.9189453-0.2847595-4.553833-0.3692932c-1.6408691-0.0791016-3.3242798-0.0791016-5.0437012,0
			c-1.7194214,0.0845337-3.1606445,0.1238098-4.3051147,0.1238098h-42.319519h-13.2850952
			c-1.4772339,0-2.869873-0.0392761-4.184021-0.1238098c-1.3140869-0.0791016-2.4585571-0.4484253-3.4453735-1.1051941
			c-0.8171997-0.4936829-1.3927002-1.1897583-1.7194214-2.0920105c-0.333313-0.8995361-0.6541138-2.0074463-0.9813843-3.3215637
			v-7.1357117v-14.0237427c0-1.9681702,0.1210938-3.7268677,0.3632812-5.2891846
			c0.2487793-1.5563354,0.9448242-2.7427979,2.0953369-3.5664978c0.6540527-0.4936829,1.7194214-0.8629761,3.1971436-1.1079102
			c1.4772339-0.2454834,3.0761108-0.4058533,4.7955322-0.4904175c1.7259521-0.0818176,3.4453735-0.0818176,5.1713257,0
			c1.7194214,0.0845642,3.2332153,0.1210938,4.5473022,0.1210938h44.5353394h16.9727173c1.6408691,0,3.203186,0,4.6744385,0
			c1.4777222,0,2.7067871-0.327301,3.6941528-0.9840698c1.1444702-0.6540527,1.9675903-1.9681702,2.4580078-3.935791
			c0-1.6381531,0.0791016-2.8671722,0.2481689-3.6908722c0.1576538-1.1444702,0.2002563-2.3369293,0.1211548-3.5664978
			c-0.0845947-1.2322845-0.1211548-2.5005798-0.1211548-3.814682c0-1.1444702,0.0365601-2.3767548,0.1211548-3.6903229
			c0.0791016-1.3113861,0.036499-2.5404053-0.1211548-3.6908722v-2.7067719
			c-0.3327637-0.654068-0.5324097-1.3108521-0.6174927-1.9676361c-0.0845337-0.6540527-0.284729-1.2295532-0.6115112-1.7226868
			c-0.8236694-1.1444702-2.1372681-1.8017883-3.9417725-1.9681702c-1.8045044-0.1603851-3.6876221-0.2449341-5.6557617-0.2449341
			h-21.4049683h-92.0136108c-0.333252,0.1663818-0.6600342,0.2089233-0.9873047,0.1238251
			c-0.3267822-0.0818176-0.6541138-0.0392761-0.980835,0.121109c-1.8105469,0.4936829-3.0395508,1.3141174-3.6936035,2.4613037
			c-0.6540527,0.8237-0.980835,1.9681702-0.980835,3.4453888c0,1.4744873,0,2.9522552,0,4.4267426v15.2555084v53.6337433v66.918335
			v17.7173462c0,1.4777832,0,2.9975281,0,4.5533142c0,1.5563049,0.3267822,2.8278809,0.980835,3.8086853
			C585.4625244,403.8439636,586.7341309,404.6191101,588.460083,404.8613281z"/>
		<path style="fill:#FFFFFF;" d="M255.6996002,594.1520996c0.1636505,1.7199707,0.7386017,2.9915161,1.7254181,3.8146362
			c0.9813538,0.817749,2.2529297,1.2716064,3.8087158,1.350708c1.5623169,0.0845337,3.2397156,0.1210938,5.0442505,0.1210938
			h14.2719421c1.3141174,0,2.6217041,0.0845337,3.9358215,0.24823c1.3140869,0.1636353,2.5431213,0.0785522,3.693573-0.24823
			c2.2949219-0.6540527,3.7661438-1.5562744,4.4262085-2.7067871c0.8177185-1.3081055,1.1870117-3.1126099,1.1079102-5.4069824
			c-0.0845337-2.3015137-0.1210938-4.4327393-0.1210938-6.4003906v-32.4736938c0-2.7919312,0-5.6192627,0-8.4896851
			c0-2.869873,0.8177185-4.8800659,2.4585876-6.0305176c1.3081055-0.9813843,3.1546326-1.4718018,5.5346375-1.4718018
			c2.3734741,0,4.6318665,0,6.7637024,0h20.6717834h10.0819702c0.9867859-0.1636353,1.9681702-0.2481689,2.9549561-0.2481689
			c0.9868164,0,1.9682007-0.0785522,2.9549866-0.2481689c1.9676208-0.4904175,3.9358215-0.817749,5.9039917-0.980835
			c1.9676208-0.1636353,3.8506775-0.5755005,5.6552124-1.2295532c5.9039612-1.9676514,11.1958618-4.3896484,15.8708191-7.2600708
			c4.674408-2.869873,8.6527405-6.6000366,11.9344788-11.1958618c0.8171692-0.980896,1.5137939-2.0042114,2.0887451-3.0761108
			c0.5755005-1.0593872,1.1870117-2.1678467,1.8470459-3.3182983c0.3267822-0.6535034,0.6115112-1.2715759,0.8597412-1.8465271
			c0.2481689-0.5694885,0.5329285-1.1870117,0.8596802-1.8470764c1.1444702-2.6216736,2.1318359-5.4495544,2.9550171-8.4830933
			c0.817688-3.0335388,1.3926392-6.3578186,1.7199402-9.9668579c0.4904175-9.0160522-0.1210938-16.730011-1.8470459-23.1243896
			c-1.7194214-6.4003601-4.4687805-12.2192383-8.2409058-17.4691467c-1.3141174-1.9681702-2.9489746-3.935791-4.9165955-5.9039612
			l-1.4777832-1.4772034c-0.8231812-0.6540833-1.5197754-1.2715759-2.0887451-1.8470764
			c-0.5814819-0.5749512-1.2781067-1.1079102-2.0952454-1.5983276c-0.980835-0.817688-1.9681702-1.4777527-2.9490051-1.9681702
			c-0.9867859-0.490387-1.8890686-1.0653687-2.7067566-1.7254028c-2.3009338-1.308136-4.7589722-2.3374939-7.3811951-3.0700989
			c-2.6276855-0.7386169-5.2559204-1.5197754-7.877594-2.3374634c-0.8171692-0.3267822-1.5563049-0.4964294-2.2098083-0.4964294
			c-0.6600647,0-1.399231-0.0785217-2.2164001-0.2421875c-0.8237-0.3267517-1.7199707-0.4964294-2.7067566-0.4964294
			c-0.980835,0-1.8890686-0.1576233-2.7067871-0.490387h-1.2290344c-1.3140869-0.327301-2.7067566-0.4484253-4.1839905-0.3692932
			c-1.4777527,0.0845337-2.9489746,0.1210938-4.4262085,0.1210938h-71.1055908
			c-0.327301,0.1690979-0.6966248,0.2116394-1.1084595,0.1271057c-0.4053345-0.0851135-0.7746277-0.0425415-1.1019287,0.1210938
			c-1.8105164,0.6600647-3.0395203,1.4772339-3.6936035,2.4580078c-0.8237,1.3201294-1.1929932,3.5305176-1.1078949,6.6426086
			c0.084549,3.1186218,0.1270905,5.8254089,0.1270905,8.1203308v147.1278381
			C255.4573975,590.6707153,255.5359497,592.4266968,255.6996002,594.1520996z M293.5923462,491.9234009V468.550293
			c0-1.8045349,0-3.8146973,0-6.0250854c0-2.2158203,0.327301-3.9777832,0.9813538-5.2919006
			c0.4904175-1.3081055,1.5557861-2.2949219,3.1971741-2.9489746c0.4964294,0,0.9442749-0.0425415,1.3561401-0.1271057
			c0.4058533-0.0785522,0.8597107-0.199646,1.3500977-0.3693237c3.935791,0,8.1203613-0.0365295,12.5465393-0.1210938
			c4.4322205-0.0785522,8.7373047-0.0365295,12.9218445,0.1210938c4.178009,0.1696777,8.0712585,0.6175232,11.6863098,1.3561401
			c3.602478,0.7391663,6.6425781,1.8470764,9.1005859,3.3182678c2.9549866,1.8105469,5.1653748,3.778717,6.6425781,5.9039917
			c1.4777832,2.1372681,2.7067871,5.0076904,3.6936035,8.6161804c0.4904175,1.8045349,0.7751465,4.0568848,0.8597107,6.7637024
			c0.0791016,2.7067566-0.0420227,4.9651489-0.3692932,6.7636414c-0.6600647,2.1372986-1.3135986,4.0629272-1.9676208,5.7828979
			c-0.6600647,1.7254028-1.4777832,3.3242798-2.4645996,4.8014832c-3.7721558,4.916626-9.2642517,7.7870483-16.4823303,8.6107483
			c-7.2175293,0.8171692-15.1736755,1.2290344-23.8629761,1.2290344c-1.6408691,0-3.4093933,0.0425415-5.29245,0.1210938
			c-1.8830872,0.0845642-3.651062,0.0845642-5.2859192,0c-1.6408691-0.0785522-3.1186218-0.3693237-4.4322205-0.8597107
			c-1.3141174-0.4904175-2.2949219-1.2295532-2.9489746-2.2163696c-0.8237-1.3081055-1.2295532-3.1546326-1.2295532-5.534668
			C293.5923462,496.0708618,293.5923462,493.8910217,293.5923462,491.9234009z"/>
		<path style="fill:#FFFFFF;" d="M425.4674072,588.617981c1.1444702-2.9550171,2.1678162-5.9465332,3.0700684-8.9800415
			c0.9022827-3.0335693,2.0101929-5.9459839,3.3243103-8.7373047c0.6540527-1.6348877,1.2295532-3.2757568,1.7199707-4.9232178
			c0.4963989-1.6348267,1.3926392-2.9484253,2.7062378-3.93573c1.8045044-1.3075562,4.3056335-1.9256592,7.5088196-1.8405762
			c3.1966248,0.0845947,6.1881714,0.1211548,8.9794922,0.1211548h38.868103c0.8231506,0,1.6043396,0.0425415,2.3374939,0.1210938
			c0.7385864,0.0845337,1.5197754,0.1270752,2.342926,0.1270752c1.6348572,0.3267822,2.9489746,0.8597412,3.935791,1.5983276
			c0.9813538,0.7391357,1.7199707,1.598877,2.2103577,2.5797119c0.4964294,0.9867554,0.9448242,2.0952148,1.3561401,3.3242798
			c0.4058533,1.2290039,0.8602295,2.5796509,1.350647,4.0568848c0.9868164,2.4645996,1.9256287,5.0076904,2.8338928,7.6293335
			c0.8956909,2.6222534,1.7559509,5.249939,2.5791321,7.8716431c0.6540527,1.4777832,1.1870117,2.9549561,1.5988464,4.4267578
			c0.4113159,1.4772339,1.0233765,2.8758545,1.8464966,4.18396c0.817749,1.4772339,2.1312866,2.4585571,3.9358521,2.9550171
			c0.9873657,0.3267212,2.0106812,0.4538574,3.0760498,0.3692627c1.065918-0.085083,2.2523804-0.1270752,3.5665283-0.1270752
			h11.5651855c1.9681396,0,4.46875,0.0845337,7.5022583,0.24823c3.0341187,0.1636353,5.2079468-0.1636963,6.5214844-0.9868774
			c0.9813232-0.4909058,1.5563354-1.2294922,1.7199707-2.2103271c0.1630859-0.9868164,0.1270752-2.0101929-0.1210938-3.0761108
			c-0.24823-1.0658569-0.5755005-2.0886841-0.9873657-3.0760498c-0.4053345-0.9868164-0.6960449-1.8045654-0.8596802-2.4580688
			c-0.3267822-0.4968872-0.4904175-0.9447632-0.4904175-1.3566284c0-0.4058838-0.1636963-0.8597412-0.4904175-1.3500977
			c-2.1373291-5.0863037-4.1054688-10.2516479-5.9039917-15.5015869
			c-1.8104858-5.2493286-3.7781372-10.4932251-5.9094238-15.7491455c-0.4904175-1.3081055-0.9022827-2.5796509-1.2295532-3.8087158
			c-0.3267822-1.2290039-0.8231812-2.5005493-1.4772339-3.8146973c-0.9807739-2.6216431-1.9681396-5.2498779-2.9489746-7.871582
			c-0.9868164-2.6222534-1.9675903-5.249939-2.9550171-7.8781128c-0.3267212-0.647522-0.5328979-1.2650146-0.6114502-1.8405151
			c-0.0845947-0.5755615-0.2907715-1.1870117-0.6174927-1.8471069c-3.4454346-8.1983643-6.6060791-16.481781-9.470459-24.8503113
			c-2.869873-8.3619995-5.9460144-16.6454468-9.2277527-24.8503418c-1.3140869-3.2757263-2.5431213-6.5149231-3.687561-9.7181091
			c-1.1504822-3.1971741-2.3800354-6.4309387-3.6936035-9.7186584c-0.327301-0.980835-0.6540527-1.9676514-0.9813538-2.9489746
			c-0.3327637-0.9868469-0.6600647-1.9676208-0.9868164-2.9549866c-1.1504822-2.7853394-2.2163696-5.5341492-3.1972046-8.2409058
			c-0.9867859-2.7067871-2.0527039-5.449585-3.1971741-8.2409058c-0.8231506-1.9681702-1.5197754-3.8937988-2.0947266-5.7828674
			c-0.5755005-1.8830566-1.7619629-3.3182678-3.5664978-4.3050842c-1.1504517-0.8177185-2.6642151-1.1870422-4.553833-1.1079102
			c-1.8830872,0.0845337-3.7295837,0.1210938-5.5341187,0.1210938h-21.6471558
			c-0.333313,0.1690979-0.6600647,0.2116394-0.9868164,0.1271057c-0.3332825-0.0851135-0.6540527-0.0425415-0.9813538,0.1210938
			c-1.3201294,0.3327637-2.3794861,0.7386169-3.203186,1.2290039c-1.4712219,1.1504822-2.5005798,2.6702576-3.0760803,4.5533142
			c-0.5749512,1.8896179-1.2715454,3.7301331-2.0887451,5.534668c-1.4777527,3.4453735-2.8704224,6.9753113-4.1839905,10.5783691
			c-1.3141174,3.6090393-2.6222229,7.1389771-3.935791,10.5843811c-0.327301,0.8171387-0.5755005,1.5563049-0.7391357,2.2098083
			c-0.1631165,0.6600647-0.4113159,1.399231-0.7386169,2.2163696c-3.7721558,9.0220642-7.2540894,18.12323-10.4512939,27.3089294
			c-3.2031555,9.1856995-6.6845703,18.2922974-10.4572449,27.3083801c-1.3135681,3.2822876-2.5491333,6.5214844-3.6936035,9.7186279
			c-1.1504517,3.1972046-2.3794861,6.4429321-3.6875916,9.718689c-1.3135681,3.4453735-2.6276855,6.9753418-3.935791,10.5783691
			c-1.3135681,3.6084595-2.6276855,7.1389771-3.935791,10.5783691c-0.6600647,1.3200684-1.1504822,2.6276855-1.4772339,3.9417725
			c-0.3332825,1.3141479-0.8237,2.6217041-1.4777527,3.935791c-1.4772339,3.7721558-2.9124451,7.6234131-4.3050842,11.5592041
			c-1.3986816,3.935791-2.9124451,7.7930298-4.5533142,11.5651855c-0.327301,0.6600342-0.6540527,1.4777832-0.9808044,2.4585571
			c-0.333313,0.9868164-0.6180725,2.0101929-0.866272,3.0761108c-0.242218,1.0718994-0.3267517,2.0952759-0.242218,3.0760498
			c0.0791321,0.9868164,0.5269775,1.7254028,1.3506775,2.2163696c1.3135681,0.8231812,3.4873962,1.1925049,6.5209351,1.1079102
			c3.0340576-0.085083,5.6192017-0.1270752,7.7510376-0.1270752c1.4772034,0,3.1966248,0.0419922,5.1647949,0.1270752
			c1.9681702,0.0845947,3.8932495,0.1211548,5.7828674,0.1211548c1.8830872,0,3.60849-0.1211548,5.1648254-0.3693237
			c1.5563049-0.24823,2.7493286-0.6965942,3.5724792-1.350708c1.3081055-0.9867554,2.2523804-2.3794556,2.8278809-4.18396
			C424.1898499,591.9782715,424.8078918,590.2588501,425.4674072,588.617981z M447.8536987,525.3839722
			c0.4904175-1.8045654,0.9868164-3.4819946,1.4772339-5.0437012c0.4904175-1.5563354,1.0658875-3.1552124,1.7199707-4.7960815
			c1.8039551-4.7529602,3.4813843-9.5124817,5.0437012-14.2719727c1.5563354-4.7529602,3.3242798-9.4279175,5.2919006-14.0237732
			c0.8177185-2.1252747,1.5143433-4.341095,2.0892944-6.6425476c0.5755005-2.2944031,1.5137634-4.2625732,2.8278809-5.9034424
			c0.3267517-0.327301,0.6540527-0.5755005,0.9868164-0.7386169c0.327301-0.1636353,0.6540527-0.4058228,0.9808044-0.7391357
			c0.9873657,0,1.8045044,0.4118347,2.4645691,1.2295532c0.6540527,0.8231506,1.2290344,1.7679749,1.7199707,2.8338928
			c0.490387,1.0653381,0.9017029,2.2098083,1.2290039,3.4388428c0.3267822,1.2355347,0.6540833,2.2589111,0.9868164,3.0760803
			c2.2949219,5.7463074,4.3416443,11.4866333,6.1521606,17.2269592c1.7985229,5.7402954,3.7721558,11.4020386,5.9039917,16.9727173
			c0.3267517,0.6600342,0.490387,1.2716064,0.490387,1.8465576c0,0.5754395,0.1631165,1.1929932,0.4904175,1.8470459
			c0.8231506,1.8045044,1.3141174,3.6876221,1.4772034,5.6557617c0.1636658,1.9676514-0.8231506,3.366272-2.9489746,4.184021
			c-1.3195496,0.3327026-2.875885,0.4904175-4.674408,0.4904175c-1.8105164,0-3.4453735,0-4.9226074,0h-18.6981506
			c-1.9681702,0-3.8998108-0.0785522-5.7828674-0.2422485c-1.8890686-0.1636353-3.2397461-0.8236694-4.0568848-1.9681396
			C447.441864,528.175293,447.3633118,526.6980591,447.8536987,525.3839722z"/>
		<path style="fill:#FFFFFF;" d="M624.1369629,594.8912354c0.24823-1.883606,0.3693237-4.1420288,0.3693237-6.7696533v-23.124939
			v-70.8574219v-21.8953247c0-0.9868164-0.0425415-2.0947571-0.1210938-3.3243103
			c-0.0845947-1.2290039-0.0425415-2.3369141,0.1210938-3.3182983c0.3273315-0.8231506,0.4058838-1.5557556,0.24823-2.2158203
			c-0.1696777-0.6540527-0.1696777-1.3926697,0-2.2163696c0.817688-2.7853088,2.4160156-4.3050842,4.7960205-4.5473022
			c2.3734741-0.2481995,5.2073975-0.3692932,8.4891357-0.3692932h25.0925293c3.4453735,0,6.4003296-0.0851135,8.8583984-0.2481995
			c2.4585571-0.1636658,4.0994263-1.6348877,4.9231567-4.4267578c0.3267212-0.9868164,0.447876-2.0101929,0.3692627-3.075531
			c-0.0845337-1.065918-0.1270752-2.1738281-0.1270752-3.3243103v-9.5915527c0-0.8237,0-1.6408691,0-2.4645691
			c0-0.8171692-0.085144-1.5563049-0.2421875-2.2098389v-1.2355347c-0.1696777-0.8171692-0.3693237-1.5983276-0.6174927-2.3369446
			c-0.24823-0.7391357-0.618103-1.265564-1.1084595-1.598877c-1.3135986-0.8171387-2.9910278-1.265564-5.0437622-1.3500977
			c-2.0527344-0.0851135-4.1419678-0.1271057-6.2732544-0.1271057h-25.0925293h-98.4140015h-1.2295532
			c-1.3135376,0.3327637-2.2158203,0.6600647-2.7062378,0.9868164c-1.3141479,0.8237-2.0952759,2.0527344-2.3374634,3.6875916
			c-0.24823,1.6468811-0.3693237,3.5299377-0.3693237,5.6617737v12.0555725c0,1.3141174,0.0360107,2.6276855,0.1210938,3.935791
			c0.0786133,1.3141174,0.3693237,2.3794861,0.8597412,3.1971741c0.6540527,0.9868469,1.6408691,1.7254333,2.9549561,2.2164001
			c1.3076172,0.3327332,3.0761108,0.4538269,5.2919312,0.3692932c2.2103882-0.0791016,4.22052-0.1210938,6.0250854-0.1210938
			h22.8821411c3.4453735,0,6.4369507,0.1210938,8.9800415,0.3692932c2.5431519,0.242218,4.2205811,1.7619934,5.0437012,4.5473022
			c0.3273315,0.6600647,0.4058838,1.3141174,0.2422485,1.9681702c-0.1630859,0.6595154-0.1630859,1.3986816,0,2.2158508
			c0.3272705,0.9873352,0.4544067,2.0892639,0.3692627,3.3242798c-0.0845337,1.2295532-0.1210938,2.4220276-0.1210938,3.5664978
			v20.9085388v68.3988342v24.6021118c0,2.1372681,0,4.2265625,0,6.2733154c0,2.0526733,0.4058838,3.736084,1.2295532,5.0437012
			c0.8171997,0.9873047,2.0101929,1.5623169,3.5665283,1.7259521c1.5623169,0.1630859,3.2391968,0.2421875,5.0437012,0.2421875
			h16.7305298c1.3141479,0,2.7067871,0,4.184021,0c1.4777222,0,2.7852783-0.1576538,3.935791-0.4904175
			C622.8654175,598.1304321,623.8887939,596.774292,624.1369629,594.8912354z"/>
		<path style="fill:#FFFFFF;" d="M402.0888367,736.0856323c-0.327301-1.3135376-0.5755005-2.6642456-0.7386169-4.0628662
			c-0.1636353-1.3927002-0.4909363-2.7427979-0.9813538-4.0569458c-1.4772339-5.0862427-3.5299377-9.5124512-6.1516113-13.2850952
			c-2.7919006-3.9417725-6.3943787-7.3812256-10.8265686-10.3361816c-1.3141174-0.8171997-2.8704529-1.6768799-4.6749573-2.585144
			c-1.8045349-0.8962402-2.8699036-2.0041504-3.1972046-3.3182983c-0.3327332-0.817688-0.2901917-1.5137329,0.1210938-2.0952759
			c0.4118652-0.5689087,0.781189-1.017334,1.10849-1.3500977c0.9868164-1.3140869,2.1312561-2.3734741,3.4453735-3.1971436
			c1.3075562-0.817749,2.5431213-1.8045654,3.6875916-2.9550171c3.4454041-3.7721558,6.2367249-8.6102295,8.3680115-14.5141602
			c0.3267517-0.8171997,0.532959-1.6834717,0.6115112-2.5856934c0.085083-0.8962402,0.284729-1.9255981,0.6174927-3.0761108
			c0-0.3267212,0.0365601-0.8171387,0.1210938-1.4711914c0.0851135-0.6540527,0.127655-1.2349854,0.127655-1.7254028v-2.2163696
			c0.1571045-0.3208008,0.2842102-0.8597412,0.3693237-1.598877c0.0785217-0.7385864,0.0359802-1.3501587-0.1271362-1.8405151
			c-0.1636353-0.6541138-0.2061768-1.3141479-0.1210938-1.9682007c0.0785522-0.6535034,0.0360107-1.3135376-0.1210938-1.9676514
			c-0.3332825-1.3140869-0.5389404-2.5430908-0.618042-3.6935425c-0.0845642-1.1444702-0.2842102-2.2949219-0.6115112-3.4453735
			c-1.3201294-4.4262085-3.0395508-8.3619995-5.1708069-11.8074341c-2.1318359-3.4453735-4.8380737-6.3157959-8.1203308-8.6107178
			c-2.2949524-1.6408691-4.8380737-2.9910278-7.6234131-4.0629272c-2.7913208-1.065918-5.7463074-2.1677856-8.8583984-3.3182983
			c-1.3141174-0.3267212-2.5856628-0.5749512-3.8146973-0.7385864c-1.2295532-0.1636353-2.5011292-0.4058838-3.8086853-0.7385864
			c-1.1504517-0.3273315-2.2589417-0.4484253-3.3243103-0.3693237c-1.0718994,0.0845337-2.0892639-0.0365601-3.0760803-0.369873
			h-1.4777527c-0.8231506-0.1630859-1.6408691-0.1630859-2.4580383,0c-0.8237,0.1636963-1.6408691,0.085144-2.4585571-0.2481689
			c-0.9868164-0.1571045-2.0527344-0.199646-3.203186-0.1211548c-1.1444702,0.085144-2.2949524,0.1211548-3.4393921,0.1211548
			h-73.3214417c-0.327301,0.1696777-0.6540833,0.2122192-0.9813843,0.1270752
			c-0.3327332-0.0845337-0.6594849-0.0419922-0.9867859,0.1210938c-1.8045349,0.4909668-3.0335388,1.3141479-3.6875916,2.4586182
			c-0.8231812,1.3200684-1.1930237,3.0760498-1.1079254,5.2924194c0.0785522,2.2158203,0.1210938,4.3051147,0.1210938,6.2727661
			V777.170105c0,1.8045044-0.0425415,4.0568848-0.1210938,6.7637329c-0.0850983,2.7061768,0.1210938,4.7169189,0.611496,6.0304565
			c0.8237305,1.9682007,2.1738281,3.0761108,4.0628967,3.3182983c1.8830872,0.24823,4.2205505,0.3693237,7.0119019,0.3693237
			h71.8382263c0.8237,0,1.6048584,0.0425415,2.3374634,0.1276855c0.7386169,0.0844727,1.4352112,0.0419312,2.0947266-0.1276855
			c0.8177185-0.3267212,1.5988464-0.4053345,2.3374634-0.2421875c0.7386169,0.1636353,1.4352417,0.1636353,2.0892944,0
			c0.8171387-0.163147,1.5982971-0.24823,2.3369141-0.24823c0.7391663,0,1.5137634-0.0785522,2.3374939-0.2481689
			c1.8045044-0.3208008,3.693573-0.6115112,5.6617432-0.8597412c1.9676208-0.2421875,3.850708-0.6965942,5.6552124-1.3500977
			c3.6090698-1.1444702,7.0119019-2.4220581,10.2090759-3.8146973c3.203186-1.3927002,6.1941833-3.0761108,8.9860535-5.0442505
			c7.2115173-5.249939,12.54599-11.9710693,15.991394-20.1759644c0.490387-1.3075562,0.8962402-2.7062378,1.2290039-4.18396
			c0.327301-1.4712524,0.6540527-3.0275269,0.9813538-4.6744385c0.3267517-1.6348267,0.6174927-3.935791,0.8657227-6.8847656
			c0.2421875-2.9549561,0.199646-5.3284302-0.1271057-7.1389771V736.0856323z M293.835083,673.5908203V660.305603
			c0-1.8045044,0-3.5664673,0-5.2918701c0-1.7199707,0.405304-3.1552124,1.2290344-4.3056641
			c0.6540527-0.980835,1.8045044-1.7194214,3.4453735-2.2098389c0.3267517-0.1636353,0.6960754-0.2481689,1.1079102-0.2481689
			c0.4058533,0,0.775177-0.0791016,1.1079407-0.24823h20.9145203c2.2949219,0,4.710968-0.0365601,7.2540894-0.1210938
			c2.5431213-0.0791016,4.8020325,0.1210938,6.7696838,0.6174927c1.3081055,0,2.2949219,0.0845337,2.9489746,0.2422485
			c1.3141174,0.3327026,2.5431213,0.6174927,3.6936035,0.8596802c1.1444397,0.24823,2.2103577,0.5389404,3.1971741,0.8657227
			c3.7721558,1.8045044,6.6425781,4.305603,8.610199,7.5022583c1.9681702,3.1972046,2.7853394,7.5874023,2.4585876,13.1640625
			c-0.3267822,3.4453735-1.065918,6.2307129-2.2098389,8.3619995c-2.4645691,4.1054688-6.1521606,6.9758911-11.0753174,8.6107788
			c-1.8039856,0.6600342-3.935791,1.1079102-6.3938293,1.3560791c-2.4645691,0.2421875-5.0442505,0.3693237-7.7510376,0.3693237
			c-2.7062378,0-5.4130249-0.0419922-8.119812-0.1271362c-2.7067566-0.0784912-5.2919006-0.1210938-7.7504578-0.1210938
			c-1.4772339,0-3.1186523,0.0426025-4.9226074,0.1210938c-1.8045349,0.085144-3.5664978,0.085144-5.2864685,0
			c-1.7254333-0.0784912-3.2817383-0.2841797-4.674408-0.6115112c-1.3986511-0.3267212-2.4220276-0.9022217-3.0760803-1.7254028
			c-0.333313-0.6540527-0.5755005-1.350647-0.7386169-2.0892334c-0.1636353-0.7386475-0.4118652-1.5983276-0.7386169-2.5856934
			v-2.4580688c-0.1636353-0.817688-0.2061768-1.8470459-0.1216431-3.0760498
			C293.7925415,675.9282227,293.835083,674.741272,293.835083,673.5908203z M363.9533386,742.7282104v1.4718018
			c-0.490387,1.8104858-0.9808044,3.5724487-1.4772034,5.2918701c-0.4904175,1.7199707-1.1444702,3.2397461-1.9681702,4.5533447
			c-1.9676208,2.9489746-4.5473022,5.1287842-7.7445068,6.5154419c-3.203186,1.3986816-6.8542175,2.3800049-10.9536743,2.9550171
			c-4.0994263,0.5755005-8.4470825,0.8236694-13.0369263,0.7385864c-4.5958557-0.0785522-9.3488159-0.1210938-14.2719727-0.1210938
			c-1.4772339,0-3.1972046,0.0425415-5.1648254,0.1210938c-1.9681702,0.085083-3.8997803,0.085083-5.7828674,0
			c-1.8890686-0.0785522-3.5664673-0.3267212-5.0437012-0.7385864c-1.4777527-0.4058838-2.5431213-1.0233765-3.1971741-1.8471069
			c-0.8237-1.1439209-1.2715759-2.7427979-1.3561096-4.7954712c-0.0791016-2.0467529-0.1211243-4.0629272-0.1211243-6.0311279
			v-21.8953247c0-1.8045044,0-3.7295532,0-5.7822876c0-2.0467529,0.405304-3.7241211,1.2290344-5.0443115
			c0.6540527-1.1444092,1.9676208-1.9675903,3.935791-2.4580078c0.3267517,0,0.6174927,0.0419922,0.8656921,0.1211548
			c0.242218,0.0845337,0.5269775-0.0365601,0.8597412-0.3693237h27.7992859c3.6090393,0,7.0969849,0.0845337,10.4572754,0.2481689
			c3.3608398,0.163147,6.4369202,0.6600342,9.2282715,1.4772339c6.7211304,2.3009644,11.2324219,6.3943481,13.5333557,12.2977905
			c0.6474915,1.3201294,1.265564,3.288269,1.8405151,5.9099731
			C364.1595459,737.9692993,364.2806396,740.4332886,363.9533386,742.7282104z"/>
		<path style="fill:#FFFFFF;" d="M593.2556152,698.1929321c-0.163147-0.817749-0.2056885-1.7619629-0.1211548-2.8278809
			c0.0791016-1.065918-0.0419922-2.0892944-0.3692627-3.0761108c-0.3327637-0.9807739-0.4904175-2.0041504-0.4904175-3.0760498
			c0-1.0653687-0.1696777-2.1738281-0.4904175-3.3182983c-0.4963989-1.8045044-0.9082642-3.5725098-1.2350464-5.2919312
			c-0.3272705-1.7199707-0.7391357-3.402832-1.2294922-5.0442505c-0.8231812-2.4580078-1.5983276-4.7529907-2.3369751-6.8908081
			c-0.7391357-2.1252441-1.598877-4.3410645-2.5796509-6.6420288c-1.3201294-3.1126099-2.8764648-6.0250244-4.6744385-8.7318115
			c-1.8104858-2.7067871-3.6149902-5.3710327-5.4135132-7.9987183c-0.6600952-0.817688-1.3986816-1.6774292-2.2164307-2.5796509
			c-0.8231201-0.9022827-1.6408691-1.7620239-2.4580078-2.5856934c-1.4777222-1.9676514-3.3668213-3.8932495-5.6617432-5.7822876
			c-2.3009644-1.8831177-4.5107422-3.5665283-6.6426392-5.0443115c-6.7270508-4.7529297-14.3564453-8.4890747-22.8821411-11.1898804
			c-8.5256348-2.7061768-18.6135864-3.899231-30.2578735-3.5724487c-0.3327637,0.1696167-0.7806091,0.1696167-1.3561096,0
			c-0.5749817-0.1571045-1.0233765-0.1571045-1.3501282,0l-7.3811951,0.7391357
			c-0.8237,0.1690674-1.5988464,0.24823-2.3374634,0.24823s-1.5197754,0.1630859-2.3374634,0.4904175
			c-2.3009338,0.6600342-4.6378784,1.2289429-7.0119019,1.7254028c-2.3794861,0.4904175-4.6378479,1.1444702-6.7696533,1.9681396
			c-9.18573,3.7721558-16.9721985,8.2834473-23.3725891,13.5274048
			c-6.3943787,5.2553101-12.0561218,11.8133545-16.9727478,19.6849365c-1.6408691,2.4586182-3.0395203,5.0863037-4.1839905,7.871582
			c-1.1504517,2.7913208-2.3794861,5.5767212-3.693573,8.3685913c-0.980835,2.6216431-1.7200012,5.2858887-2.2103882,7.9926758
			c-0.4964294,2.7067261-1.1504822,5.4555664-1.9676208,8.2408447c-0.333313,0.8237305-0.4964294,1.6834717-0.4964294,2.5856934
			c0,0.9022827-0.1636353,1.7619629-0.4909363,2.5856934c-0.3267517,0.980835-0.4538574,2.0101929-0.3692932,3.0761108
			c0.085083,1.0653687-0.0420227,2.1732788-0.3693237,3.317688v1.4777832c-0.1630859,0.8231812-0.1630859,1.5983276,0,2.3369751
			c0.1636658,0.7391357,0.1636658,1.5202637,0,2.3374634c-0.3267517,0.8236694-0.490387,2.0892334-0.490387,3.8146973
			c0,1.7199097,0.1636353,2.9915161,0.490387,3.8087158c0.1636658,0.9873047,0.1636658,2.0101318,0,3.0760498
			c-0.1630859,1.0718994-0.1630859,2.0952759,0,3.0761108c0.327301,0.6600342,0.4544067,1.3560791,0.3693237,2.0952148
			c-0.0845642,0.732605-0.0420227,1.5137939,0.1270752,2.3369751c0.327301,1.3140869,0.569519,2.5796509,0.7331543,3.8086548
			c0.1631165,1.2355957,0.4113159,2.4220581,0.7386169,3.5725098c0.1636658,0.6540527,0.2481995,1.2715454,0.2481995,1.8410645
			c0,0.5809937,0.1636658,1.2716064,0.4904175,2.0947266c0.8177185,2.6222534,1.5563354,5.2078857,2.2163696,7.7510376
			c0.6535034,2.5431519,1.4772339,4.9591675,2.4580383,7.2540894c4.263092,9.8392334,9.8032227,18.3288574,16.609436,25.4678345
			c6.8062439,7.1329956,15.1316833,12.8307495,24.9714355,17.0998535c1.8045044,0.8171387,3.6510315,1.5557861,5.534668,2.2098389
			c1.8830566,0.6600342,3.7295837,1.3140869,5.5341187,1.9681396c1.3141174,0.3267822,2.6216736,0.6174927,3.9417725,0.8597412
			c1.308136,0.2481689,2.6222534,0.532959,3.9358215,0.8657227c1.3081055,0.3272705,2.5371094,0.5269165,3.6875916,0.6114502
			c1.1444397,0.085144,2.3740234,0.28479,3.693573,0.618103h2.7067871c0.8177185,0.1630859,1.598877,0.199646,2.3374939,0.1210938
			c0.732605-0.085083,1.5137329-0.0426025,2.3369141,0.1210938c0.4909363,0.163147,1.5563049,0.2841797,3.1971741,0.3693237
			c1.6348877,0.0845337,2.7853394,0.0419922,3.4454041-0.1211548l8.1143188-0.7391357
			c0.8231812-0.1630859,1.6828613-0.2421875,2.585144-0.2421875s1.7619629-0.1690674,2.5856934-0.4963989
			c1.8045044-0.3267822,3.6030273-0.6540527,5.4135742-0.980835c1.7979736-0.333313,3.602478-0.8237305,5.4130249-1.4772339
			c12.2977295-4.0994263,22.6339111-9.9667969,30.99646-17.59021c8.368042-7.6299438,15.0105591-17.1784058,19.9271851-28.6650391
			c1.1504517-2.6222534,2.0952759-5.3289795,2.8338623-8.1203003c0.7386475-2.7854004,1.5137939-5.6552734,2.3375244-8.6102295
			c0.3267212-1.1444702,0.5689087-2.2949219,0.7385864-3.4453735c0.1576538-1.1444702,0.4058838-2.2949829,0.732605-3.4394531
			c0.3273315-1.8045044,0.4963989-3.6090088,0.4963989-5.4135132c0-1.8040161,0.1576538-3.5299683,0.4904175-5.1708374v-3.1971436
			c0.3272705-0.980835,0.4484253-2.6642456,0.369873-5.0437622c-0.085144-2.3740234-0.2907715-4.0568848-0.618042-5.0442505
			V698.1929321z M555.1206055,710.4967041v1.9682007c0,0.8231201,0,1.5983276,0,2.3369141
			c0,0.7391357-0.085083,1.4352417-0.2421875,2.0892944l-0.7391357,5.9039307
			c-0.6594849,2.1372681-1.1925049,4.2685547-1.5983276,6.3998413c-0.4118652,2.1318359-1.0293579,4.0994263-1.8470459,5.9039917
			c-2.7913818,7.0543823-6.1941528,12.7947388-10.2084961,17.2208862
			c-4.0209351,4.4321899-9.5615845,8.0412598-16.6094971,10.8265991c-1.4777832,0.6600342-3.0335083,1.1079102-4.6743774,1.3500977
			c-1.6414185,0.24823-3.2822876,0.5389404-4.9231567,0.866272c-0.8171387,0.3267822-1.5563354,0.4538574-2.2098389,0.3693237
			c-0.6600342-0.085083-1.3986511-0.0425415-2.2163696,0.1210938h-1.9681702c-1.1504517,0-2.2158203,0-3.1966553,0
			c-0.9873657,0-1.9681396-0.1636353-2.9549866-0.4904175c-0.8237-0.1636353-1.5988464-0.2061768-2.3374634-0.1276245
			c-0.7386169,0.085083-1.5197754-0.0360107-2.3374634-0.3693237c-2.2949219-0.647522-4.4682007-1.3075562-6.5149231-1.9676514
			c-2.0587463-0.6540527-3.9843445-1.5562744-5.7828674-2.7067261c-0.9868164-0.4904175-1.9316406-0.980835-2.8338928-1.4712524
			c-0.9022522-0.4963989-1.7619629-1.1504517-2.5796814-1.9682007c-3.935791-2.7913208-7.2235413-6.4363403-9.8452148-10.9536743
			c-2.6222229-4.5046997-4.8380432-9.3853149-6.6425781-14.6351929c-0.6540527-1.6409302-1.1018982-3.3608398-1.350647-5.164856
			c-0.2481995-1.8045044-0.6175232-3.6090088-1.1079407-5.4135132c0-0.6541138-0.042511-1.2716064-0.1210938-1.8471069
			c-0.0845337-0.5749512-0.1270752-1.1864624-0.1270752-1.8464966c-0.1636658-0.6540527-0.242218-1.3501587-0.242218-2.0892944
			c0-0.7385864-0.0845337-1.4346924-0.2481995-2.0947266v-2.7008057c-0.3267517-0.8236694-0.4544067-2.3374634-0.3693237-4.5532837
			c0.0845642-2.2163696,0.2847595-3.7301636,0.6175232-4.553833c0.1636353-0.8171997,0.1636353-1.7194824,0-2.7062378
			c-0.1636658-0.980835-0.0845337-1.8831177,0.242218-2.7067871c0.1636353-0.6540527,0.2481689-1.265564,0.2481689-1.8405151
			c0-0.5755005,0.0785828-1.1930542,0.24823-1.8470459c0.490387-1.8045654,0.8597107-3.5665283,1.1084595-5.2924805
			c0.2421875-1.7194214,0.6115112-3.4813843,1.1018982-5.2859497c2.4645691-7.3811646,5.6977844-13.6964722,9.7186584-18.9463501
			c4.0203552-5.249939,9.4759216-9.3493652,16.3607178-12.3043213c1.4777222-0.6541138,3.0760803-1.1864624,4.8020325-1.5983276
			c1.7194214-0.4058838,3.4813843-0.7751465,5.2859192-1.1084595c0.8237-0.3267822,1.5563049-0.447876,2.2163696-0.3693237
			c0.6535034,0.085083,1.3075562,0.0425415,1.9676208-0.1210938c0.327301-0.1630859,0.6965942-0.2056274,1.1079102-0.1210938
			c0.4058533,0.085083,0.775177,0.0425415,1.1084595-0.1210938c12.1341553,0,21.6046143,2.5796509,28.4168091,7.7445068
			c6.7996826,5.1713257,12.0130615,11.9349976,15.6221313,20.3029785c0.817688,1.8045654,1.4777222,3.6090698,1.9681396,5.4075928
			c0.4904175,1.8104858,0.980835,3.614502,1.4772339,5.4129639c0.3273315,0.9868774,0.4904175,1.8890991,0.4904175,2.7068481
			c0.3272705,1.1504517,0.532959,2.3374023,0.6174927,3.5664673c0.0791016,1.2350464,0.284729,2.5065918,0.6115112,3.8146973
			c0.3272705,0.6600342,0.4484253,1.2715454,0.369873,1.8470459c-0.085144,0.5749512-0.0426025,1.1924438,0.1210327,1.8464966
			v4.1780396c0.3267822,0.8237305,0.49646,2.0161743,0.49646,3.5725098
			C555.6170654,708.4865112,555.4473877,709.6795654,555.1206055,710.4967041z"/>
		<path style="fill:#FFFFFF;" d="M766.7055054,738.786438v-2.7008057c-0.3272705-1.3135376-0.5755005-2.6642456-0.7385864-4.0628662
			c-0.1636353-1.3927002-0.4904175-2.7427979-0.9813843-4.0569458c-1.4771729-5.0862427-3.5299072-9.5124512-6.1516113-13.2850952
			c-2.7913208-3.9417725-6.3944092-7.3812256-10.8265381-10.3361816c-1.3141479-0.8171997-2.8704834-1.6768799-4.6749878-2.585144
			c-1.8045044-0.8962402-2.869873-2.0041504-3.1972046-3.3182983c-0.3327637-0.817688-0.2901611-1.5137329,0.1211548-2.0952759
			c0.4118652-0.5689087,0.7811279-1.017334,1.1084595-1.3500977c0.9867554-1.3140869,2.1312256-2.3734741,3.4453735-3.1971436
			c1.3075562-0.817749,2.5430908-1.8045654,3.687561-2.9550171c3.4454346-3.7721558,6.2367554-8.6102295,8.367981-14.5141602
			c0.3273315-0.8171997,0.53302-1.6834717,0.6115723-2.5856934c0.085083-0.8962402,0.284729-1.9255981,0.6174927-3.0761108
			c0-0.3267212,0.0365601-0.8171387,0.1210938-1.4711914c0.085083-0.6540527,0.1276245-1.2349854,0.1276245-1.7254028v-2.2163696
			c0.1571045-0.3208008,0.2842407-0.8597412,0.3693237-1.598877c0.0785522-0.7385864,0.0360107-1.3501587-0.1271362-1.8405151
			c-0.1636353-0.6541138-0.2061768-1.3141479-0.1210327-1.9682007c0.0785522-0.6535034,0.0359497-1.3135376-0.1211548-1.9676514
			c-0.333313-1.3140869-0.5389404-2.5430908-0.618042-3.6935425c-0.0845337-1.1444702-0.2841797-2.2949219-0.6115112-3.4453735
			c-1.3201294-4.4262085-3.0395508-8.3619995-5.1707764-11.8074341c-2.1318359-3.4453735-4.8380737-6.3157959-8.1203613-8.6107178
			c-2.2949219-1.6408691-4.8380737-2.9910278-7.6234131-4.0629272c-2.7913208-1.065918-5.7462769-2.1677856-8.8583984-3.3182983
			c-1.3140869-0.3267212-2.5856934-0.5749512-3.8146973-0.7385864c-1.2295532-0.1636353-2.5010986-0.4058838-3.8086548-0.7385864
			c-1.1505127-0.3273315-2.2589722-0.4484253-3.3243408-0.3693237c-1.0718994,0.0845337-2.0892334-0.0365601-3.0760498-0.369873
			h-1.4777832c-0.8231812-0.1630859-1.6408691-0.1630859-2.4580078,0c-0.8237305,0.1636963-1.6408691,0.085144-2.4586182-0.2481689
			c-0.9867554-0.1571045-2.0526733-0.199646-3.203186-0.1211548c-1.1444702,0.085144-2.2948608,0.1211548-3.4393311,0.1211548
			h-73.3214722c-0.3272705,0.1696777-0.6540527,0.2122192-0.9813232,0.1270752
			c-0.3327637-0.0845337-0.6595459-0.0419922-0.9868164,0.1210938c-1.8045654,0.4909668-3.0335693,1.3141479-3.6876221,2.4586182
			c-0.8231812,1.3200684-1.1929932,3.0760498-1.1079102,5.2924194c0.0785522,2.2158203,0.1210938,4.3051147,0.1210938,6.2727661
			V777.170105c0,1.8045044-0.0425415,4.0568848-0.1210938,6.7637329c-0.085083,2.7061768,0.1210938,4.7169189,0.6115112,6.0304565
			c0.8237305,1.9682007,2.1738281,3.0761108,4.0629272,3.3182983c1.8830566,0.24823,4.22052,0.3693237,7.0118408,0.3693237
			h71.8381958c0.8237305,0,1.6049194,0.0425415,2.3375244,0.1276855c0.7385864,0.0844727,1.4351807,0.0419312,2.0947266-0.1276855
			c0.817688-0.3267212,1.598877-0.4053345,2.3374634-0.2421875c0.7386475,0.1636353,1.4352417,0.1636353,2.0892944,0
			c0.8171387-0.163147,1.5982666-0.24823,2.3369141-0.24823c0.7391357,0,1.5137329-0.0785522,2.3374634-0.2481689
			c1.8045044-0.3208008,3.6936035-0.6115112,5.6617432-0.8597412c1.9676514-0.2421875,3.850708-0.6965942,5.6552124-1.3500977
			c3.6090698-1.1444702,7.0119019-2.4220581,10.2091064-3.8146973c3.203186-1.3927002,6.1941528-3.0761108,8.9860229-5.0442505
			c7.2115479-5.249939,12.5460205-11.9710693,15.991394-20.1759644c0.4904175-1.3075562,0.8963013-2.7062378,1.2290039-4.18396
			c0.3273315-1.4712524,0.6540527-3.0275269,0.9813843-4.6744385c0.3267212-1.6348267,0.6174927-3.935791,0.8657227-6.8847656
			C767.0748291,742.970459,767.0322876,740.5969849,766.7055054,738.786438z M658.4517822,673.5908203V660.305603
			c0-1.8045044,0-3.5664673,0-5.2918701c0-1.7199707,0.4052734-3.1552124,1.2290039-4.3056641
			c0.6540527-0.980835,1.8045044-1.7194214,3.4453735-2.2098389c0.3267822-0.1636353,0.696106-0.2481689,1.1079712-0.2481689
			c0.4058228,0,0.7751465-0.0791016,1.1084595-0.24823h20.9139404c2.2949219,0,4.7109375-0.0365601,7.2540894-0.1210938
			c2.5431519-0.0791016,4.802063,0.1210938,6.7697144,0.6174927c1.3081055,0,2.2948608,0.0845337,2.9489746,0.2422485
			c1.3140869,0.3327026,2.5431519,0.6174927,3.6935425,0.8596802c1.1444702,0.24823,2.2103882,0.5389404,3.1972046,0.8657227
			c3.7721558,1.8045044,6.6425781,4.305603,8.6102295,7.5022583c1.9682007,3.1972046,2.7858276,7.5874023,2.4585571,13.1640625
			c-0.3267822,3.4453735-1.065918,6.2307129-2.2098389,8.3619995c-2.4645386,4.1054688-6.1521606,6.9758911-11.0753174,8.6107788
			c-1.8039551,0.6600342-3.935791,1.1079102-6.3937988,1.3560791c-2.4645996,0.2421875-5.0442505,0.3693237-7.7510376,0.3693237
			c-2.7062378,0-5.4130249-0.0419922-8.119812-0.1271362c-2.7067871-0.0784912-5.2919312-0.1210938-7.7504883-0.1210938
			c-1.4772339,0-3.1186523,0.0426025-4.9226074,0.1210938c-1.8045044,0.085144-3.5664673,0.085144-5.286438,0
			c-1.7254639-0.0784912-3.2817383-0.2841797-4.6744385-0.6115112c-1.3986206-0.3267212-2.4219971-0.9022217-3.0760498-1.7254028
			c-0.333313-0.6540527-0.5755005-1.350647-0.7385864-2.0892334c-0.1636963-0.7386475-0.4118652-1.5983276-0.7386475-2.5856934
			v-2.4580688c-0.1636353-0.817688-0.2062378-1.8470459-0.1210938-3.0760498
			C658.4092407,675.9282227,658.4517822,674.741272,658.4517822,673.5908203z M728.5700073,742.7282104v1.4718018
			c-0.4904175,1.8104858-0.9807739,3.5724487-1.4771729,5.2918701c-0.4904175,1.7199707-1.1444702,3.2397461-1.9682007,4.5533447
			c-1.9675903,2.9489746-4.5473022,5.1287842-7.7444458,6.5154419c-3.2032471,1.3986816-6.854248,2.3800049-10.9536743,2.9550171
			c-4.0994873,0.5755005-8.4471436,0.8236694-13.0369873,0.7385864c-4.5958862-0.0785522-9.3488159-0.1210938-14.2719727-0.1210938
			c-1.4771729,0-3.1971436,0.0425415-5.1647949,0.1210938c-1.9682007,0.085083-3.8997803,0.085083-5.7828369,0
			c-1.8890991-0.0785522-3.5665283-0.3267212-5.0437622-0.7385864c-1.4777222-0.4058838-2.5430908-1.0233765-3.1971436-1.8471069
			c-0.8237305-1.1439209-1.2716064-2.7427979-1.3561401-4.7954712c-0.0791016-2.0467529-0.1210938-4.0629272-0.1210938-6.0311279
			v-21.8953247c0-1.8045044,0-3.7295532,0-5.7822876c0-2.0467529,0.4052734-3.7241211,1.2290039-5.0443115
			c0.6540527-1.1444092,1.9676514-1.9675903,3.935791-2.4580078c0.3267822,0,0.6175537,0.0419922,0.8657227,0.1211548
			c0.2421875,0.0845337,0.5269775-0.0365601,0.8602905-0.3693237h27.7987061c3.6090698,0,7.0970459,0.0845337,10.4573364,0.2481689
			c3.3607788,0.163147,6.4368896,0.6600342,9.2282104,1.4772339c6.7211304,2.3009644,11.2324219,6.3943481,13.5333862,12.2977905
			c0.6474609,1.3201294,1.265564,3.288269,1.8405151,5.9099731
			C728.7762451,737.9692993,728.8973389,740.4332886,728.5700073,742.7282104z"/>
	</g>
</g>
</svg>
