<?xml version="1.0" encoding="UTF-8"?>
<svg id="Layer_1" data-name="Layer 1" xmlns="http://www.w3.org/2000/svg" viewBox="0 0 65.68 72.37">
  <defs>
    <style>
      .cls-1 {
        fill: #26a7df;
      }

      .cls-2 {
        fill: #2a3b8e;
      }

      .cls-3 {
        fill: #e10b7c;
      }

      .cls-4 {
        fill: #fff;
      }

      .cls-5 {
        fill: #1b75ba;
      }
    </style>
  </defs>
  <path class="cls-4" d="M65.68,46.23v-24.98c0-2.81-1.5-5.41-3.93-6.81L40.11,1.95c-4.5-2.6-10.05-2.6-14.55,0L3.93,14.44c-2.43,1.4-3.93,4-3.93,6.81v24.98c0,5.2,2.77,10,7.27,12.6l21.64,12.49c2.43,1.4,5.43,1.4,7.86,0l21.64-12.49c4.5-2.6,7.27-7.4,7.27-12.6Z"/>
  <g>
    <path class="cls-5" d="M53.83,25.85l-2.79,1.61c-.18.11-.3.3-.3.52v16.3c0,1.07-.57,2.05-1.49,2.59l-9.37,5.41c-.4.23-.4.8,0,1.03l2.08,1.21c.62.36,1.38.36,2,0l7.78-4.49c1.85-1.07,2.99-3.04,2.99-5.18v-18.48c0-.46-.5-.75-.9-.52Z"/>
    <path class="cls-5" d="M20.9,49.44l-4.46-2.58c-.92-.53-1.49-1.52-1.49-2.59v-16.3c0-.21-.11-.41-.3-.52l-2.79-1.61c-.4-.23-.9.06-.9.52v18.48c0,2.13,1.14,4.11,2.99,5.18l5.05,2.92c.29.17.67.06.83-.24l1.31-2.47c.15-.28.05-.64-.23-.8Z"/>
    <path class="cls-5" d="M29.85,12.13l-16.01,9.24c-.4.23-.4.81,0,1.04l2.79,1.61c.18.11.41.11.6,0l14.11-8.15c.92-.53,2.06-.53,2.99,0l14.11,8.15c.18.11.41.11.6,0l2.79-1.61c.4-.23.4-.81,0-1.04l-16.01-9.24c-1.85-1.07-4.13-1.07-5.98,0Z"/>
  </g>
  <g>
    <path class="cls-1" d="M45.89,30.44l-2.79,1.61c-.18.11-.3.3-.3.52v8.28c0,.36-.19.68-.5.86l-5.18,2.99c-.31.18-.5.51-.5.86v2.99c0,.46.5.75.9.52l8.27-4.77c.62-.36,1-1.01,1-1.73v-11.62c0-.46-.5-.75-.9-.52Z"/>
    <path class="cls-1" d="M19.89,44.3l2.83,1.63c.29.17.67.06.83-.24l1.31-2.47c.15-.28.05-.64-.23-.8l-1.25-.72c-.31-.18-.5-.51-.5-.86v-8.28c0-.21-.11-.41-.3-.52l-2.79-1.61c-.4-.23-.9.06-.9.52v11.62c0,.71.38,1.37,1,1.73Z"/>
    <path class="cls-1" d="M33.34,24.45l7.17,4.14c.18.11.41.11.6,0l2.79-1.61c.4-.23.4-.81,0-1.04l-10.06-5.81c-.62-.36-1.38-.36-1.99,0l-10.06,5.81c-.4.23-.4.81,0,1.04l2.79,1.61c.18.11.41.11.6,0l7.17-4.14c.31-.18.69-.18,1,0Z"/>
  </g>
  <g>
    <path class="cls-2" d="M37.32,8.38l19.1,11.03c.18.11.41.11.6,0l2.79-1.61c.4-.23.4-.81,0-1.04l-21-12.12c-3.7-2.13-8.25-2.13-11.95,0L5.87,16.76c-.4.23-.4.81,0,1.04l2.79,1.61c.18.11.41.11.6,0l19.1-11.03c2.77-1.6,6.19-1.6,8.96,0Z"/>
    <path class="cls-2" d="M61.8,21.25l-2.79,1.61c-.18.11-.3.3-.3.52v22.06c0,3.2-1.71,6.16-4.48,7.76l-11.04,6.37c-.31.18-.57.44-.74.75l-2.47,4.42c-.3.53.3,1.11.82.81l15.91-9.19c3.7-2.13,5.98-6.08,5.98-10.35v-24.24c0-.46-.5-.75-.9-.52Z"/>
    <path class="cls-2" d="M28.06,62.79l-16.61-9.59c-2.77-1.6-4.48-4.56-4.48-7.76v-22.06c0-.21-.11-.41-.3-.52l-2.79-1.61c-.4-.23-.9.06-.9.52v24.24c0,4.27,2.28,8.22,5.98,10.35l19.2,11.09c.4.23.9-.06.9-.52v-2.42c0-.71-.38-1.37-1-1.73Z"/>
  </g>
  <path class="cls-3" d="M37.87,56.35l-2.75-1.6c-1.23-.71-1.98-2.02-1.98-3.44v-14.39c0-.31-.42-.42-.56-.14l-8.61,16.89c-.48.94-.14,2.1.77,2.63l6.43,3.74c1.23.71,1.98,2.02,1.98,3.44v5.54c0,.32.43.42.57.13l4.96-10.2c.46-.94.11-2.07-.79-2.59Z"/>
</svg>