<?xml version="1.0" encoding="UTF-8"?>
<svg id="Layer_1" data-name="Layer 1" xmlns="http://www.w3.org/2000/svg" viewBox="0 0 39.94 45.69">
  <defs>
    <style>
      .cls-1 {
        fill: #09c66b;
      }

      .cls-2 {
        fill: #fff;
      }

      .cls-3 {
        opacity: .5;
      }
    </style>
  </defs>
  <path id="Bot_Left_Red" data-name="Bot Left Red" class="cls-2" d="M35.62,45.68c-1.81.11-2.98-1.44-4.27-2.46-1.2-.86-2.77-1.12-4.21-1.6-1.44-.42-2.61-1.64-3.55-2.8-.65-.64-1-1.97-2.06-1.89-.98.12-2.49.4-3.37.57-.24.04-.5.14-.42.42.07.25.08.59-.15.81-.59.62-1.24,1.22-1.89,1.88-2.23,1.89-4.45,5.86-7.86,4.23-1.1-.52-1.74-1.59-2.39-2.56-1.01-1.56-2.2-3.12-3.14-4.73-1.47-2.54,1.01-6.19,3.91-5.63.69.08,1.39.33,2.02.61.27.11.56.18.83.07.46-.2.88-.67,1.24-.97.58-.49.37-1.18-.38-1.11-1.54.19-2.93-.62-4.28-1.24-1.49-.26-2.92-.47-4.09-1.7-3.62-3.47-.42-9.71,4.39-9.13,1.12.05,1.06-.91.91-1.72-.57-4.22-1.57-6.97,2.24-9.65.2-.29.21-.65.2-1,.09-3.77,5.33-4.44,6.36-.81.12.45.24.75.7.69.64-.12,1.71-.11,2.27-.44.23-.24-.07-.93-.01-1.52.04-3.29,4.12-5.24,6.65-3.11,1,.82,1.56,2.13,1.52,3.42,0,.3.01.57.13.8.13.26.42.47.67.64,1.43.99,2.11,2.44,2.32,4.22.26,2.14.54,4.6.84,6.81.06.54.57.72,1.07.72,3.31-.03,4.22,2.87,5.99,5.13,2.74,2.2,2.94,6.6,0,8.7-.29.23-.68.5-.69.9-.01.29.2.55.39.76,1.66,1.41,1.5,3.71,1.68,5.69.38,3.31.72,6.74-3.49,7.01h-.09Z"/>
  <path d="M13.14,31.66l-.68-4.66-.24.12c-.19.09-.39.22-.61.36-.25.16-.51.32-.79.46-.41.21-.87.31-1.33.32h0c-.45,0-.89-.09-1.3-.28-.4-.19-.76-.43-1.1-.66-.09-.06-.17-.11-.25-.17-.05-.04-.11-.07-.16-.1-.03-.02-.06-.04-.08-.05l-.4-.24c-.26.07-.54.11-.83.11-1.75,0-3.16-1.46-3.08-3.23.07-1.58,1.35-2.86,2.93-2.93,1.77-.08,3.23,1.33,3.23,3.08,0,.02,0,.04,0,.06l.05.02.13.06s0,0,0,0c.01,0,.03.01.05.02,0,0,.01,0,.02,0,.02,0,.04.02.06.03,0,0,0,0,.01,0,.02,0,.04.02.06.03,0,0,0,0,.01,0,.02.01.05.02.07.04,0,0,.01,0,.02.01.03.01.05.03.08.04,0,0,0,0,0,0,.03.01.05.03.08.05,0,0,.01,0,.02.01.03.02.06.03.08.05,0,0,.01,0,.02.01.03.02.05.03.08.05,0,0,0,0,.01,0,.03.02.06.04.09.06,0,0,.01,0,.02.01.03.02.06.04.09.06l2.98-1.41c.22-.35.52-.65.89-.85l-.61.08c-.14.02-.29.03-.43.03h0c-.59,0-1.11-.16-1.55-.45-.22-.14-.41-.32-.57-.52l-.2-.28c-.21-.34-.35-.74-.41-1.18l-.5-3.79-.5-3.79c-.04-.27-.04-.54-.01-.79.02-.15.04-.3.08-.44.15-.53.42-.97.81-1.31.24-.2.52-.37.84-.5.23-.09.48-.16.76-.19l1.45-.21-.2-1.8c-.41-.1-.73-.46-.75-.91-.02-.54.4-.99.93-1.02.54-.02.99.4,1.02.93.02.38-.19.73-.51.9l.2,1.79,9.37-1.33-.15-1.5c-.87-.14-1.54-.89-1.54-1.8,0-1,.82-1.82,1.82-1.82s1.82.82,1.82,1.82c0,.74-.45,1.38-1.08,1.66l.16,1.49.73-.1c.12-.01.24-.02.36-.02,1.45,0,2.68,1.09,2.86,2.53l.98,7.87c.14,1.14-.41,2.21-1.31,2.79l4.24-.53c.86-.11,1.72.22,2.27.88.02.02.04.05.06.07.07.09.13.18.19.28l2.04,3.26c.31.16.6.37.84.62.59.62.89,1.43.84,2.28-.04.76-.36,1.48-.9,2.02-.54.54-1.26.86-2.02.9-.05,0-.11,0-.16,0h0c-.84,0-1.66-.35-2.23-.96-.59-.62-.89-1.43-.84-2.28.02-.49.17-.96.41-1.38l-1.13-1.95-2.14.31.87,6.45c.2,1.46-.52,2.71-1.83,3.18-.07.03-.2.06-.39.1l.15.3c.32.65.77,1.16,1.37,1.72v-.79s5.7-.59,5.7-.59c.07,0,.13-.01.2-.01,1.01,0,1.86.79,1.94,1.79l.48,5.94c.03.4-.1.79-.37,1.08-.05.06-.11.11-.17.16l-.5.15c-.63.19-1.32.01-1.77-.47-.02-.02-.03-.04-.05-.06-.51-.59-.91-1.33-1.18-2.18l-4.3.11h0s0,0,0,0v-.8s-.58-.22-.58-.22c-1.49-.55-2.98-2.13-4.44-4.68l-.43-.74c-2.11.34-4.4.7-5.48.86,0,0-.01,0-.02,0-.21.03-.42.05-.63.05,0,0,0,0,0,0-.11,0-.21,0-.32-.01l-2.51,1.95.63.92-4.53,4.46c-.66.65-1.74.54-2.26-.22l-3.85-5.69s-.03-.04-.04-.07c-.34-.56-.25-1.29.2-1.77.15-.16.35-.35.49-.47.12-.11.28-.18.44-.19h0s.08,0,.12,0c.06,0,.11,0,.17,0,.16.02.3.05.4.08.74.2,1.42.51,2.05.93.29.19.56.4.83.64l2.75-2.4.39.57h0c.45-.37.86-.67,1.38-.91-.2-.37-.34-.76-.42-1.17-.01-.06-.02-.12-.03-.18Z"/>
  <g>
    <path class="cls-1" d="M25.91,19.92l-4.53.56s.4-.21.55-.46c.26-.42.51-.91.44-1.4l-1.09-8.4c-.1-.75-.6-1.39-1.31-1.66l4.45-.56c1.12-.14,2.14.65,2.28,1.77l.98,7.87c.14,1.12-.65,2.14-1.77,2.28Z"/>
    <path class="cls-1" d="M34.62,35.07c.61-.06,1.16.39,1.21,1.01l.48,5.94c.03.36-.27.66-.63.62h0c-.29-.03-.56-.17-.75-.39-.56-.65-.96-1.51-1.18-2.49l-4.09.11.02-4.28,4.94-.51Z"/>
    <path class="cls-1" d="M5.27,35.06c.14-.11.31-.14.48-.1.95.23,2.13.72,3.28,1.96l2.62-2.29,2.28,3.33-3.92,3.86c-.34.33-.9.28-1.16-.12l-3.76-5.56c-.24-.35-.16-.82.18-1.08Z"/>
    <path class="cls-1" d="M34.72,29.27c-1.33.07-2.42-1.02-2.35-2.35.06-1.14.98-2.06,2.12-2.12,1.33-.07,2.42,1.02,2.35,2.35-.06,1.14-.98,2.06-2.12,2.12Z"/>
    <path class="cls-1" d="M28.48,36.43l.04,2.49c-1.61-.6-3.05-2.65-4-4.31l2.19-.35c.44.89,1.08,1.53,1.77,2.17Z"/>
    <path class="cls-1" d="M30.27,22.8l-3.83.53c-.57.08-.78-.72-.71-1.11.08-.46.39-.85.92-.94l3.71-.63c-.49.69-.43,1.26-.09,2.15Z"/>
    <path class="cls-1" d="M14.07,33.72c.53.54.99.9,1.74,1.25l-1.68,1.3-1.38-1.7c.44-.36.82-.64,1.32-.86Z"/>
    <path class="cls-1" d="M31.39,22.88c-.51-.25-.74-.62-.7-1.14.03-.38.15-.92.58-1.09.81-.33,1.55.15,1.97.82l1.48,2.37c-.94.01-1.61.24-2.31.8l-1.03-1.77Z"/>
    <circle class="cls-1" cx="22.7" cy="4.11" r=".98"/>
    <path class="cls-1" d="M3.12,23.79c0,1.24,1,2.24,2.24,2.24s2.24-1,2.24-2.24-1-2.24-2.24-2.24-2.24,1-2.24,2.24ZM4.98,23.68c.16-.26.41-.44.71-.51.3-.07.6-.02.86.14.13.08.17.26.09.39-.08.13-.26.17-.39.09-.13-.08-.28-.11-.43-.07-.15.03-.28.13-.36.26-.12.19-.12.43,0,.62.08.13.05.31-.08.39-.05.03-.1.05-.15.05-.09,0-.18-.05-.24-.13-.24-.37-.24-.85-.01-1.22Z"/>
    <path class="cls-1" d="M17.73,34.32s8.99-1.37,9.68-1.62c.99-.36,1.42-1.26,1.28-2.27l-.82-6.05c-1,.29-1.96.37-2.67-.26-.76-.68-.77-1.79-.51-2.7l-10.37,1.33c-.86.11-1.48.89-1.37,1.76l1.02,7.04c.26,1.81,1.95,3.06,3.76,2.78ZM14.71,31.83l-.89-6.73c-.11-.8.36-1.44,1.12-1.54l6.73-.86c.65-.08,1.25.37,1.35,1.03l.88,6.55c.1.72-.28,1.56-.98,1.68l-1.71.3-4.95.62c-.74.09-1.44-.27-1.55-1.05Z"/>
    <path class="cls-1" d="M15.03,24.22l6.62-.89c.35-.05.66.26.71.59l.85,6.55c.05.35-.16.79-.54.84l-6.6.9c-.35-.08-.62-.34-.66-.64l-.95-6.68c-.05-.37.23-.63.57-.68Z"/>
    <path class="cls-1" d="M9.08,27.41c-.74-.18-1.41-.74-2.05-1.13.59-.5.95-.88,1.22-1.58.39.19.83.47,1.07.73.11.43.2,1.33-.24,1.97Z"/>
    <path class="cls-1" d="M11.59,24.27l.25,2.1c-.73.37-1.5,1.05-2.3,1.09.38-.73.32-1.66.18-2.17l1.87-1.02Z"/>
    <path class="cls-1" d="M18.74,8.89l-7.57,1c-.19.02-.37.07-.55.14-.61.25-.99.65-1.15,1.25-.08.29-.09.6-.05.9l1,7.58c.15,1.16,1.04,1.82,2.21,1.67l7.65-1.04c1.03-.14,1.76-1.09,1.62-2.12l-1.04-7.76c-.14-1.03-1.08-1.75-2.11-1.62ZM13.05,17.96c-.48.16-1.21-.05-1.3-.74l-.33-2.54c-.08-.63.25-1.13.83-1.21.45-.07,1.06.19,1.14.73l.35,2.41c.09.64-.1,1.16-.68,1.35ZM18.78,17.24c-.47.07-1.05-.15-1.14-.8l-.36-2.64c-.08-.57.34-1.04.82-1.13.45-.08,1.02.13,1.11.66l.42,2.65c.1.63-.25,1.15-.84,1.25Z"/>
  </g>
  <g id="Shade" class="cls-3">
    <path class="cls-2" d="M29.67,38.14l5.34-.32.67,4.81h0c-.29-.03-.56-.17-.75-.39-.56-.65-.96-1.51-1.18-2.49l-4.09.11v-1.72Z"/>
    <path class="cls-2" d="M31.39,22.88c-.51-.25-.74-.62-.7-1.14.03-.38.15-.92.58-1.09.81-.33,1.55.15,1.97.82l1.48,2.37c-.94.01-1.61.24-2.31.8l-1.03-1.77Z"/>
    <path class="cls-2" d="M24.92,17.04c1.56-.22,1.87-3.15.67-4.9-.35-.51-.98-.74-1.5-.63-.47.1-.83.62-.98,1.19-.57,2.11.52,4.52,1.81,4.35ZM24.37,12.08c1.47-.2,1.89,4.27.42,4.27-1.23,0-1.83-4.08-.42-4.27Z"/>
    <path class="cls-2" d="M12.95,24.5l1.02,7.04c.26,1.81,1.95,3.06,3.76,2.78,0,0,4.68-.71,7.55-1.21l-1.72-11.55-9.23,1.18c-.86.11-1.48.89-1.37,1.76ZM14.95,23.57l6.73-.86c.65-.08,1.25.37,1.35,1.03l.88,6.55c.1.72-.28,1.56-.98,1.68l-1.71.3-4.95.62c-.74.09-1.44-.27-1.55-1.05l-.89-6.73c-.11-.8.36-1.44,1.12-1.54Z"/>
    <path class="cls-2" d="M9.42,12.18l1,7.58c.15,1.16,1.04,1.82,2.21,1.67l7.65-1.04c1.03-.14,1.76-1.09,1.62-2.12l-1.04-7.76c-.14-1.03-1.08-1.75-2.11-1.62l-7.57,1c-.19.02-.37.07-.55.14-.61.25-.99.65-1.15,1.25-.08.29-.09.6-.05.9ZM18.1,12.67c.45-.08,1.02.13,1.11.66l.42,2.65c.1.63-.25,1.15-.84,1.25-.47.07-1.05-.15-1.14-.8l-.36-2.64c-.08-.57.34-1.04.82-1.13ZM12.25,13.46c.45-.07,1.06.19,1.14.73l.35,2.41c.09.64-.1,1.16-.68,1.35-.48.16-1.21-.05-1.3-.74l-.33-2.54c-.08-.63.25-1.13.83-1.21Z"/>
    <path class="cls-2" d="M9.32,25.44c.11.43.2,1.33-.24,1.97-.74-.18-1.41-.74-2.05-1.13.59-.5.95-.88,1.22-1.58.39.19.83.47,1.07.73Z"/>
    <path class="cls-2" d="M9.35,39.84l-4.1-4.76s.02-.02.03-.02c.2-.15.45-.12.69-.05.91.25,2,.76,3.07,1.91l2.62-2.29,1.34,1.96-3.66,3.26Z"/>
  </g>
</svg>