<?xml version="1.0" encoding="UTF-8"?>
<svg id="Layer_1" data-name="Layer 1" xmlns="http://www.w3.org/2000/svg" viewBox="0 0 72.04 66.22">
  <defs>
    <style>
      .cls-1 {
        fill: #faaf3b;
      }

      .cls-2 {
        fill: #2760ac;
      }

      .cls-3 {
        fill: #f05a26;
      }

      .cls-4 {
        fill: #51c4d5;
      }

      .cls-5 {
        fill: #3bb44a;
      }

      .cls-6 {
        fill: #fff;
      }

      .cls-7 {
        fill: #404041;
      }

      .cls-8 {
        fill: #b8529e;
      }

      .cls-9 {
        opacity: .5;
      }

      .cls-10 {
        fill: #55c5d5;
      }

      .cls-11 {
        fill: #2960ac;
      }
    </style>
  </defs>
  <path id="Badge" class="cls-6" d="M6.66,66.22c-1.67,0-3.15-1.49-3.01-3.19.07-1.12.26-3.08.3-3.91,0-.01-1.59-1.18-2.4-1.79-.2-.18-.36-.25-.54-.41-1.47-1.18-1.34-3.75.45-4.69.79-.44,1.95-1.06,2.79-1.53.18-.11.27-.33.22-.54-.34-1.38.27-2.84,1.58-3.54,1.15-.67,2.35-1.27,3.53-1.88.07-.05.13-.12.16-.2.35-1.46.66-2.95,1.02-4.39.35-1.43.73-2.85,1.11-4.26-.67-.65-1.28-1.57-1.3-2.56-.07-.97.29-1.97.97-2.67.08-.08.06-.06.08-.11l.07-.17c.56-1.36.93-3.24,2.52-3.79.21-.09.49-.16.68-.19.15-.15.2-.57.32-.78.09-.24.2-.53.28-.72,0-.23-.02-.41-.05-.82-.08-3.08-1.03-5.02,1.31-6.7.02-.02.05-.07.07-.09-.11-.22-.24-.52-.29-.81-.2-.91.17-1.88.81-2.49.18-.91.99-1.63,1.94-1.54.66.06,1.41.18,2.04.2.22-.02.43-.13.58-.3.55-.82,1.2-1.54,1.72-2.32.17-.36,0-.76-.24-1.03-.32-.44-.85-1.15-1.18-1.63-.97-1.35.55-3.32,2.12-2.7.32.13.47.25.74.44.57.43,1.44,1.05,1.64,1.19.54.35,1.03-.12,1.45-.41.5-.36,1.07-.65,1.58-.98.3-.23.34-.65.27-1-.05-.46-.14-1.3-.19-1.79-.33-1.99,2.49-2.96,3.41-1.11.22.45.51,1.16.73,1.63.13.37.36.68.77.74.96-.05,1.89-.04,2.84.02.46-.03.69-.45.83-.84.37-.7.56-1.68,1.21-2.18,1.01-.82,2.7-.17,2.88,1.1.09.85-.16,1.86-.21,2.71-.06.29.05.69.34.88.65.38,1.3.79,1.93,1.26.43.32.91.13,1.26-.18,1.13-.73,2.37-2.27,3.8-1.27.87.58,1.05,1.85.39,2.64-.31.43-.83,1.14-1.15,1.58-.51.57-.44,1.07.06,1.6.46.55.87,1.19,1.31,1.74.17.18.46.26.67.24,1.27-.05,3.05-.74,3.82.69.51.88.12,2.04-.75,2.5-.31.14-.54.29-.69.55-.2.33-.21.75-.03,1.1,4.23,8.12,7.02,18.18,8.59,25,.22.75.23,1.51.55,2.16,1.15.67,2.41,1.23,3.56,1.92,1.4.8,2.04,2.22,1.68,3.63-.04.18.02.39.17.51.61.36,1.77.95,2.54,1.38,2.09,1.04,2.25,3.7.51,5.02-.68.52-1.6,1.17-2.28,1.69-.53.45-.51.16-.47.72.05,1.3.26,2.81.24,4.06-.11,1.31-1.24,2.35-2.5,2.56-1.05.2-1.87-.26-2.78-.74-1.82-.91-5.81-2.93-7.43-3.74-1.65-.66-2.94-2.01-2.41-3.9.15-.38-.03-.84-.47-.96-10.85-4.16-22.62-4.1-33.49.03-.25.08-.46.27-.51.54.33,2.34-.05,3.32-2.33,4.3-1.14.57-3.26,1.63-5.08,2.54-1.23.62-2.15,1.07-3.12,1.56-.47.27-.98.42-1.52.43h-.05Z"/>
  <g id="Badge-2" data-name="Badge">
    <path class="cls-1" d="M37.34,8.39l2.99-6.74c.18-.41.8-.25.76.2l-.78,7.33c-.12,1.13,1.16,1.87,2.08,1.2l5.96-4.34c.37-.27.82.19.55.55l-4.34,5.96c-.67.92.07,2.2,1.2,2.08l7.33-.78c.45-.05.62.57.2.76l-6.74,2.99c-1.04.46-1.04,1.94,0,2.4l6.74,2.99c.41.18.25.8-.2.76l-7.33-.78c-1.13-.12-1.87,1.16-1.2,2.08l4.34,5.96c.27.37-.19.82-.55.55l-5.96-4.34c-.92-.67-2.2.07-2.08,1.2l.78,7.33c.05.45-.57.62-.76.2l-2.99-6.74c-.46-1.04-1.94-1.04-2.4,0l-2.99,6.74c-.18.41-.8.25-.76-.2l.78-7.33c.12-1.13-1.16-1.87-2.08-1.2l-5.96,4.34c-.37.27-.82-.19-.55-.55l4.34-5.96c.67-.92-.07-2.2-1.2-2.08l-7.33.78c-.45.05-.62-.57-.2-.76l6.74-2.99c1.04-.46,1.04-1.94,0-2.4l-6.74-2.99c-.41-.18-.25-.8.2-.76l7.33.78c1.13.12,1.87-1.16,1.2-2.08l-4.34-5.96c-.27-.37.19-.82.55-.55l5.96,4.34c.92.67,2.2-.07,2.08-1.2l-.78-7.33c-.05-.45.57-.62.76-.2l2.99,6.74c.46,1.04,1.94,1.04,2.4,0Z"/>
    <path class="cls-3" d="M36.66,14.26l1.3-2.94c.08-.18.35-.11.33.09l-.34,3.2c-.05.49.51.82.91.52l2.6-1.89c.16-.12.36.08.24.24l-1.89,2.6c-.29.4.03.96.52.91l3.2-.34c.2-.02.27.25.09.33l-2.94,1.3c-.45.2-.45.85,0,1.05l2.94,1.3c.18.08.11.35-.09.33l-3.2-.34c-.49-.05-.82.51-.52.91l1.89,2.6c.12.16-.08.36-.24.24l-2.6-1.89c-.4-.29-.96.03-.91.52l.34,3.2c.02.2-.25.27-.33.09l-1.3-2.94c-.2-.45-.85-.45-1.05,0l-1.3,2.94c-.08.18-.35.11-.33-.09l.34-3.2c.05-.49-.51-.82-.91-.52l-2.6,1.89c-.16.12-.36-.08-.24-.24l1.89-2.6c.29-.4-.03-.96-.52-.91l-3.2.34c-.2.02-.27-.25-.09-.33l2.94-1.3c.45-.2.45-.85,0-1.05l-2.94-1.3c-.18-.08-.11-.35.09-.33l3.2.34c.49.05.82-.51.52-.91l-1.89-2.6c-.12-.16.08-.36.24-.24l2.6,1.89c.4.29.96-.03.91-.52l-.34-3.2c-.02-.2.25-.27.33-.09l1.3,2.94c.2.45.85.45,1.05,0Z"/>
    <g id="Gateway_Arch" data-name="Gateway Arch">
      <path class="cls-7" d="M36.01,6.81c15.86,0,17.3,43.65,17.3,43.65l8.91,1.44S55.14,4.74,36.11,4.74h-.19c-19.03,0-26.12,47.16-26.12,47.16l8.91-1.44S20.15,6.81,36.01,6.81Z"/>
    </g>
    <g>
      <path class="cls-6" d="M29.54,17.64c0-.36-.43-.01-.43-.57,0-.28.12-.34.28-.37.27-.05.5-.32.75-.41.08-.03.16-.04.24-.04.25,0,.45.16.45.43v3.81c0,.44-.15.72-.68.72-.41,0-.6-.29-.6-.72v-2.85Z"/>
      <path class="cls-6" d="M32.17,17.64c0-.36-.43-.01-.43-.57,0-.28.12-.34.28-.37.27-.05.5-.32.75-.41.08-.03.16-.04.24-.04.25,0,.45.16.45.43v3.81c0,.44-.15.72-.68.72-.41,0-.6-.29-.6-.72v-2.85Z"/>
      <path class="cls-6" d="M37.82,18.74c0,2.02-.83,2.48-1.65,2.48s-1.66-.45-1.66-2.48.83-2.48,1.66-2.48,1.65.45,1.65,2.48ZM36.51,18.74c0-.7-.04-1.23-.34-1.23-.26,0-.32.53-.32,1.23s.06,1.23.32,1.23c.31,0,.34-.53.34-1.23Z"/>
      <path class="cls-6" d="M38.96,17.64c0-.36-.43-.01-.43-.57,0-.28.12-.34.28-.37.27-.05.5-.32.75-.41.08-.03.16-.04.24-.04.25,0,.45.16.45.43v3.81c0,.44-.15.72-.68.72-.41,0-.6-.29-.6-.72v-2.85Z"/>
      <path class="cls-6" d="M44.6,18.74c0,2.02-.83,2.48-1.65,2.48s-1.66-.45-1.66-2.48.83-2.48,1.66-2.48,1.65.45,1.65,2.48ZM43.29,18.74c0-.7-.04-1.23-.34-1.23-.26,0-.32.53-.32,1.23s.06,1.23.32,1.23c.31,0,.34-.53.34-1.23Z"/>
    </g>
    <g>
      <path d="M55.17,56.26c-12.42-5.32-25.82-5.25-38.26,0,.43,1.58,1.11,3.04-.28,3.74l-9.29,4.64c-.54.27-1.15.17-1.63-.16-.38-.26-.7-.77-.65-1.38l.37-4.66-3.51-2.61c-.41-.3-.53-.8-.51-1.27s.33-.87.81-1.14l4.14-2.26c-.07-.38-.25-.65-.41-1.01-.36-.81-.13-1.77.72-2.26,7.25-4.17,15.3-6.66,23.66-7.49,12.17-1.21,24.32,1.33,34.89,7.4.91.52,1.33,1.39.91,2.37l-.45,1.03,3.88,2.08c.54.29.95.65,1.03,1.15.1.67-.13,1.2-.67,1.6l-3.32,2.46.33,4.77c.04.57-.32,1.01-.68,1.24-.5.31-1.07.39-1.63.11l-9.07-4.56c-.79-.4-1.22-1.09-.96-1.95l.57-1.84Z"/>
      <g>
        <path class="cls-4" d="M60.75,57.27c-15.66-8.44-33.89-8.68-49.5.23-.13.08-.3.02-.36-.12l-3.64-7.93c-.06-.12,0-.27.11-.33,15.85-8.99,38.34-10.92,57.05.04.11.07.16.21.11.33l-3.41,7.66c-.06.14-.23.19-.36.12Z"/>
        <path class="cls-10" d="M10.84,58.99c1.21-.14,2.35-.12,3.56.08l.18.32-7.86,3.96c-.11.05-.24-.03-.23-.15l.34-4.71c.05-.33.03-.74-.25-.94l-3.61-2.7c-.09-.07-.08-.2.01-.26,1.35-.8,2.62-1.44,4.05-2.16l2.61,5.62c.26.55.65.89,1.18.94Z"/>
        <path class="cls-10" d="M57.53,59.4l.48-.37c1.14-.1,2.27-.12,3.4-.06.37-.09.75-.33.94-.72l2.73-5.81,3.94,2.18c.1.06.11.19.02.26l-3.38,2.52c-.24.22-.52.45-.5.81l.34,5c0,.12-.12.21-.23.15l-7.75-3.96Z"/>
        <path class="cls-11" d="M61.41,58.98c-1.28.32-2.65.22-3.88.43l-1.64-.79.63-1.74c1.38.52,2.58,1.3,3.9,1.99.3.16.71.07.98.11Z"/>
        <path class="cls-2" d="M14.58,59.39l-3.75-.4c.15-.06.54.04.74-.07,1.33-.76,2.58-1.49,3.99-2.08.16.57.57,1.25.41,1.75-.21.51-1,.61-1.39.81Z"/>
      </g>
    </g>
    <g>
      <g>
        <path class="cls-2" d="M9.23,51.3c-.18-.34.04-.67.35-.83s.7-.15.88.19l1.73,3.27c.18.34-.04.67-.35.83-.3.16-.7.15-.88-.19l-1.73-3.27Z"/>
        <path class="cls-2" d="M13.46,49.98c-.08.04-.06.08-.04.13l1.22,2.64c.16.35-.08.67-.39.81-.31.14-.71.12-.87-.23l-1.22-2.64s-.05-.09-.13-.05l-.17.08c-.35.16-.65-.04-.78-.32-.13-.28-.09-.65.26-.81l1.75-.81c.35-.16.66.04.79.32s.09.64-.26.8l-.17.08Z"/>
        <path class="cls-2" d="M15.54,51.86c-.12-.31-.04-.62.3-.75.32-.12.56.13.75.05.14-.06.23-.17.18-.33-.05-.12-.23-.2-.34-.23l-.76-.22c-.46-.13-.81-.46-.97-.87-.29-.74.14-1.49.88-1.78.55-.21,1.21-.25,1.45.37.09.22,0,.49-.24.58-.2.08-.39,0-.56.06-.14.06-.18.19-.13.31.03.07.12.15.21.18l.95.25c.44.12.73.43.88.81.33.86-.08,1.69-.94,2.03-.58.23-1.4.17-1.64-.45Z"/>
        <path class="cls-2" d="M20.51,48.88c-.01.14-.02.26.06.5l.33,1.05c.12.37-.16.65-.48.76-.33.1-.72.03-.84-.34l-.33-1.05c-.08-.24-.15-.33-.24-.44l-1.25-1.48c-.4-.47-.39-.83.19-1.01.27-.08.6-.07.8.21l.65.93v-1.12c-.02-.35.25-.55.52-.64.58-.18.78.11.73.72l-.15,1.91Z"/>
        <path class="cls-2" d="M24.47,50.05c-.52.11-.77-.2-.87-.67l-.63-3.07c-.1-.47.02-.85.54-.96l.77-.16c.81-.17,1.75-.04,1.94.88.08.38-.03.73-.26,1.03-.05.06-.05.09.02.12.53.16.76.47.87,1,.23,1.11-.75,1.49-1.7,1.68l-.68.14ZM24.59,46.26c-.21.04-.24.24-.2.42.03.15.14.33.35.29.21-.04.24-.25.21-.4-.04-.18-.14-.35-.35-.31ZM24.96,47.95c-.19.04-.26.24-.22.44.03.15.14.43.39.38.22-.05.25-.3.21-.5-.04-.2-.18-.36-.37-.32Z"/>
        <path class="cls-2" d="M26.99,45.25c-.06-.38.27-.62.61-.67.34-.05.71.09.76.47l.53,3.66c.05.38-.27.62-.61.67-.34.05-.71-.09-.76-.47l-.53-3.66Z"/>
        <path class="cls-2" d="M31.43,45.43c-.08,0-.09.06-.08.11l.26,2.89c.03.38-.3.6-.64.64s-.7-.13-.74-.51l-.26-2.89c0-.05-.02-.1-.1-.09l-.18.02c-.38.03-.6-.26-.63-.56-.03-.31.13-.64.52-.67l1.92-.17c.38-.03.6.26.63.57.03.31-.13.63-.52.67l-.18.02Z"/>
        <path class="cls-2" d="M32.75,47.91c0-.34.18-.6.53-.61.34,0,.49.31.69.31.15,0,.28-.08.28-.25,0-.13-.15-.26-.25-.33l-.64-.46c-.39-.28-.61-.71-.62-1.15-.02-.79.64-1.36,1.43-1.38.59-.01,1.22.18,1.24.84,0,.24-.16.46-.42.46-.22,0-.37-.14-.55-.13-.15,0-.23.12-.23.25,0,.08.06.18.14.24l.81.56c.38.26.54.65.55,1.06.02.93-.64,1.56-1.57,1.59-.62.01-1.37-.32-1.39-.98Z"/>
        <path class="cls-2" d="M38.44,46.78c-.06.13-.1.24-.11.49l-.04,1.1c-.02.38-.37.56-.71.55s-.69-.22-.67-.6l.04-1.1c.01-.25-.03-.36-.08-.5l-.67-1.81c-.22-.58-.08-.91.52-.88.28.01.59.13.68.47l.29,1.09.37-1.06c.11-.33.44-.43.72-.42.6.02.7.36.45.92l-.79,1.75Z"/>
        <path class="cls-2" d="M41.77,49.22c-.52-.07-.66-.45-.59-.92l.44-3.11c.07-.47.3-.79.83-.72l.78.11c.82.12,1.66.55,1.53,1.48-.05.38-.27.68-.59.88-.06.04-.08.07-.02.12.44.33.56.7.48,1.23-.16,1.13-1.21,1.15-2.17,1.01l-.69-.1ZM42.94,47.41c-.19-.03-.32.14-.35.34-.02.16,0,.45.24.48.22.03.33-.2.36-.4.03-.2-.05-.4-.24-.43ZM43.16,45.69c-.21-.03-.3.14-.33.33-.02.15.02.36.23.39.21.03.31-.16.33-.31.03-.18-.02-.38-.23-.41Z"/>
        <path class="cls-2" d="M47.52,45.32c.38.08.71.32.73.76l.08,3.67c.01.59-.42.62-.78.55-.78-.17-.4-.88-.67-.94l-.43-.09c-.26-.06-.22.75-1,.58-.36-.08-.74-.29-.48-.82l1.57-3.31c.19-.39.58-.47.97-.39ZM47.17,46.98l-.47,1.25c-.02.05-.05.12.03.14l.25.05c.07.02.08-.06.08-.12l.11-1.33Z"/>
        <path class="cls-2" d="M51.17,47.56c-.08-.02-.1.02-.12.07l-.78,2.8c-.1.37-.49.46-.82.37-.33-.09-.61-.37-.51-.74l.78-2.8c.01-.05.02-.1-.06-.12l-.18-.05c-.37-.1-.47-.45-.39-.75.08-.3.35-.55.72-.45l1.86.52c.37.1.47.46.39.76-.08.3-.35.54-.72.44l-.18-.05Z"/>
        <path class="cls-2" d="M54.71,48.73c-.08-.03-.1.02-.12.07l-.96,2.74c-.13.36-.52.43-.85.31-.32-.11-.59-.41-.46-.77l.96-2.74c.02-.05.03-.1-.05-.13l-.17-.06c-.36-.13-.44-.48-.34-.77s.39-.53.75-.4l1.82.64c.36.13.44.49.34.78s-.38.52-.75.39l-.17-.06Z"/>
        <path class="cls-2" d="M55.33,52.78c-.49-.2-.53-.6-.34-1.04l1.32-3.16c.15-.35.55-.4.86-.26.32.13.56.44.41.8l-1.09,2.61c-.07.16-.05.27.14.35l.41.17c.29.12.38.43.26.73-.12.3-.42.46-.7.34l-1.27-.53Z"/>
        <path class="cls-2" d="M58.14,54.02c-.47-.23-.49-.63-.28-1.06l1.37-2.82c.21-.43.53-.66,1.01-.43l1.23.6c.32.16.41.46.24.8-.12.25-.42.47-.78.29l-.37-.18c-.15-.07-.3-.02-.38.14-.08.17-.03.31.12.39l.35.17c.3.15.34.46.2.75-.13.27-.41.46-.71.31l-.35-.17c-.15-.07-.3-.02-.38.14s-.03.31.12.39l.37.18c.32.16.41.46.24.8-.12.25-.42.47-.78.29l-1.23-.6Z"/>
      </g>
      <g>
        <path class="cls-4" d="M9.52,51.01c-.18-.34.04-.67.35-.83s.7-.15.88.19l1.73,3.27c.18.34-.04.67-.35.83-.3.16-.7.15-.88-.19l-1.73-3.27Z"/>
        <path class="cls-4" d="M13.75,49.69c-.08.04-.06.08-.04.13l1.22,2.64c.16.35-.08.67-.39.81-.31.14-.71.12-.87-.23l-1.22-2.64s-.05-.09-.13-.05l-.17.08c-.35.16-.65-.04-.78-.32-.13-.28-.09-.65.26-.81l1.75-.81c.35-.16.66.04.79.32s.09.64-.26.8l-.17.08Z"/>
        <path class="cls-4" d="M15.84,51.57c-.12-.31-.04-.62.3-.75.32-.12.56.13.75.05.14-.06.23-.17.18-.33-.05-.12-.23-.2-.34-.23l-.76-.22c-.46-.13-.81-.46-.97-.87-.29-.74.14-1.49.88-1.78.55-.21,1.21-.25,1.45.37.09.22,0,.49-.24.58-.2.08-.39,0-.56.06-.14.06-.18.19-.13.31.03.07.12.15.21.18l.95.25c.44.12.73.43.88.81.33.86-.08,1.69-.94,2.03-.58.23-1.4.17-1.64-.45Z"/>
        <path class="cls-4" d="M20.81,48.58c-.01.14-.02.26.06.5l.33,1.05c.12.37-.16.65-.48.76-.33.1-.72.03-.84-.34l-.33-1.05c-.08-.24-.15-.33-.24-.44l-1.25-1.48c-.4-.47-.39-.83.19-1.01.27-.08.6-.07.8.21l.65.93v-1.12c-.02-.35.25-.55.52-.64.58-.18.78.11.73.72l-.15,1.91Z"/>
        <path class="cls-4" d="M24.76,49.76c-.52.11-.77-.2-.87-.67l-.63-3.07c-.1-.47.02-.85.54-.96l.77-.16c.81-.17,1.75-.04,1.94.88.08.38-.03.73-.26,1.03-.05.06-.05.09.02.12.53.16.76.47.87,1,.23,1.11-.75,1.49-1.7,1.68l-.68.14ZM24.88,45.96c-.21.04-.24.24-.2.42.03.15.14.33.35.29.21-.04.24-.25.21-.4-.04-.18-.14-.35-.35-.31ZM25.25,47.66c-.19.04-.26.24-.22.44.03.15.14.43.39.38.22-.05.25-.3.21-.5-.04-.2-.18-.36-.37-.32Z"/>
        <path class="cls-4" d="M27.29,44.96c-.05-.38.27-.62.61-.67.34-.05.71.09.76.47l.53,3.66c.05.38-.27.62-.61.67-.34.05-.71-.09-.76-.47l-.53-3.66Z"/>
        <path class="cls-4" d="M31.72,45.14c-.08,0-.09.06-.08.11l.26,2.89c.03.38-.3.6-.64.64s-.7-.13-.74-.51l-.26-2.89c0-.05-.02-.1-.1-.09l-.18.02c-.38.03-.6-.26-.63-.56-.03-.31.13-.64.52-.67l1.92-.17c.38-.03.6.26.63.57.03.31-.13.63-.52.67l-.18.02Z"/>
        <path class="cls-4" d="M33.04,47.61c0-.34.18-.6.53-.61.34,0,.49.31.69.31.15,0,.28-.08.28-.25,0-.13-.15-.26-.25-.33l-.64-.46c-.39-.28-.61-.71-.62-1.15-.02-.79.64-1.36,1.43-1.38.59-.01,1.22.18,1.24.84,0,.24-.16.46-.42.46-.22,0-.37-.14-.55-.13-.15,0-.23.12-.23.25,0,.08.06.18.14.24l.81.56c.38.26.54.65.55,1.06.02.93-.64,1.56-1.57,1.59-.62.01-1.37-.32-1.39-.98Z"/>
        <path class="cls-4" d="M38.73,46.48c-.06.13-.1.24-.11.49l-.04,1.1c-.02.38-.37.56-.71.55s-.69-.22-.67-.6l.04-1.1c.01-.25-.03-.36-.08-.5l-.67-1.81c-.22-.58-.08-.91.52-.88.28.01.59.13.68.47l.29,1.09.37-1.06c.11-.33.44-.43.72-.42.6.02.7.36.45.92l-.79,1.75Z"/>
        <path class="cls-4" d="M42.07,48.93c-.52-.07-.66-.45-.59-.92l.44-3.11c.07-.47.3-.79.83-.72l.78.11c.82.12,1.66.55,1.53,1.48-.05.38-.27.68-.59.88-.06.04-.08.07-.02.12.44.33.56.7.48,1.23-.16,1.13-1.21,1.15-2.17,1.01l-.69-.1ZM43.23,47.11c-.19-.03-.32.14-.35.34-.02.16,0,.45.24.48.22.03.33-.2.36-.4.03-.2-.05-.4-.24-.43ZM43.46,45.39c-.21-.03-.3.14-.33.33-.02.15.02.36.23.39.21.03.31-.16.33-.31.03-.18-.02-.38-.23-.41Z"/>
        <path class="cls-4" d="M47.81,45.02c.38.08.71.32.73.76l.08,3.67c.01.59-.42.62-.78.55-.78-.17-.4-.88-.67-.94l-.43-.09c-.26-.06-.22.75-1,.58-.36-.08-.74-.29-.48-.82l1.57-3.31c.19-.39.58-.47.97-.39ZM47.47,46.69l-.47,1.25c-.02.05-.05.12.03.14l.25.05c.07.02.08-.06.08-.12l.11-1.33Z"/>
        <path class="cls-4" d="M51.46,47.26c-.08-.02-.1.02-.12.07l-.78,2.8c-.1.37-.49.46-.82.37-.33-.09-.61-.37-.51-.74l.78-2.8c.01-.05.02-.1-.06-.12l-.18-.05c-.37-.1-.47-.45-.39-.75.08-.3.35-.55.72-.45l1.86.52c.37.1.47.46.39.76-.08.3-.35.54-.72.44l-.18-.05Z"/>
        <path class="cls-4" d="M55,48.43c-.08-.03-.1.02-.12.07l-.96,2.74c-.13.36-.52.43-.85.31-.32-.11-.59-.41-.46-.77l.96-2.74c.02-.05.03-.1-.05-.13l-.17-.06c-.36-.13-.44-.48-.34-.77s.39-.53.75-.4l1.82.64c.36.13.44.49.34.78s-.38.52-.75.39l-.17-.06Z"/>
        <path class="cls-4" d="M55.63,52.49c-.49-.2-.53-.6-.34-1.04l1.32-3.16c.15-.35.55-.4.86-.26.32.13.56.44.41.8l-1.09,2.61c-.07.16-.05.27.14.35l.41.17c.29.12.38.43.26.73-.12.3-.42.46-.7.34l-1.27-.53Z"/>
        <path class="cls-4" d="M58.44,53.73c-.47-.23-.49-.63-.28-1.06l1.37-2.82c.21-.43.53-.66,1.01-.43l1.23.6c.32.16.41.46.24.8-.12.25-.42.47-.78.29l-.37-.18c-.15-.07-.3-.02-.38.14-.08.17-.03.31.12.39l.35.17c.3.15.34.46.2.75-.13.27-.41.46-.71.31l-.35-.17c-.15-.07-.3-.02-.38.14s-.03.31.12.39l.37.18c.32.16.41.46.24.8-.12.25-.42.47-.78.29l-1.23-.6Z"/>
      </g>
      <g>
        <path class="cls-6" d="M9.67,50.75c-.18-.34.05-.67.35-.83s.7-.15.88.19l1.71,3.28c.18.34-.05.67-.35.83-.31.16-.7.15-.88-.19l-1.71-3.28Z"/>
        <path class="cls-6" d="M13.92,49.45c-.08.04-.06.08-.04.13l1.21,2.64c.16.35-.08.67-.4.81-.31.14-.71.11-.87-.24l-1.21-2.64s-.05-.09-.13-.06l-.17.08c-.35.16-.66-.04-.78-.32-.13-.28-.09-.65.27-.81l1.77-.81c.35-.16.66.05.79.33.13.28.08.64-.27.8l-.17.08Z"/>
        <path class="cls-6" d="M16,51.34c-.12-.31-.03-.62.3-.75.32-.12.56.13.75.06.15-.06.24-.17.18-.32-.05-.12-.23-.2-.34-.23l-.76-.22c-.47-.13-.81-.46-.97-.88-.28-.74.15-1.49.9-1.78.55-.21,1.22-.24,1.45.38.09.22,0,.49-.25.58-.2.08-.39,0-.57.06-.15.06-.18.19-.13.31.03.07.12.15.21.18l.96.25c.45.12.73.43.88.81.33.86-.09,1.69-.96,2.02-.59.22-1.4.16-1.64-.46Z"/>
        <path class="cls-6" d="M21.01,48.37c-.02.14-.02.26.06.5l.32,1.05c.11.37-.16.65-.49.75s-.72.02-.84-.34l-.32-1.05c-.07-.24-.15-.33-.24-.44l-1.24-1.48c-.4-.47-.38-.83.2-1.01.27-.08.61-.07.81.22l.64.93v-1.12c-.01-.35.27-.55.54-.63.58-.18.79.11.73.72l-.16,1.92Z"/>
        <path class="cls-6" d="M24.99,49.56c-.52.1-.78-.2-.87-.67l-.61-3.08c-.09-.47.02-.85.54-.95l.78-.15c.82-.16,1.76-.03,1.94.89.07.38-.03.73-.27,1.03-.05.06-.05.09.02.12.53.17.77.48.87,1,.22,1.12-.76,1.49-1.72,1.68l-.69.14ZM25.14,45.77c-.21.04-.24.24-.2.42.03.15.14.33.35.29.21-.04.24-.25.21-.4-.04-.18-.14-.35-.35-.31ZM25.5,47.46c-.19.04-.26.24-.22.44.03.15.14.43.38.38.22-.04.25-.3.21-.5-.04-.2-.18-.36-.37-.32Z"/>
        <path class="cls-6" d="M27.56,44.77c-.05-.38.27-.62.61-.67.34-.05.71.09.77.47l.51,3.67c.05.38-.27.62-.61.67-.34.05-.71-.09-.77-.47l-.51-3.67Z"/>
        <path class="cls-6" d="M32.01,44.97c-.08,0-.09.06-.08.11l.25,2.9c.03.38-.3.6-.65.63-.34.03-.71-.13-.74-.52l-.25-2.9c0-.05-.02-.1-.1-.09l-.18.02c-.39.03-.6-.26-.63-.57s.14-.64.52-.67l1.94-.16c.39-.03.6.27.63.57.03.31-.14.63-.52.66l-.18.02Z"/>
        <path class="cls-6" d="M33.33,47.45c0-.34.18-.6.54-.61.35,0,.49.31.69.31.16,0,.28-.08.28-.25,0-.13-.15-.26-.25-.33l-.64-.47c-.39-.28-.61-.71-.62-1.15-.02-.79.65-1.36,1.44-1.37.59-.01,1.23.18,1.24.85,0,.24-.17.46-.43.46-.22,0-.37-.14-.55-.13-.16,0-.23.11-.23.24,0,.08.06.18.14.24l.82.56c.38.26.54.65.55,1.06.02.93-.66,1.56-1.59,1.58-.63.01-1.38-.32-1.39-.99Z"/>
        <path class="cls-6" d="M39.05,46.35c-.06.13-.1.24-.11.49l-.05,1.1c-.02.38-.37.56-.72.54-.35-.02-.69-.22-.67-.61l.05-1.1c.01-.25-.03-.36-.08-.5l-.67-1.81c-.21-.58-.08-.91.53-.88.28.01.59.14.69.48l.29,1.09.37-1.06c.11-.33.44-.43.73-.41.61.03.7.37.45.93l-.8,1.75Z"/>
        <path class="cls-6" d="M42.39,48.81c-.52-.08-.66-.45-.59-.92l.45-3.11c.07-.47.31-.79.83-.72l.78.11c.82.12,1.67.56,1.53,1.49-.06.38-.28.68-.6.88-.06.04-.08.07-.02.12.44.33.56.71.48,1.23-.16,1.13-1.22,1.15-2.18,1.01l-.69-.1ZM43.57,47c-.2-.03-.33.14-.36.34-.02.16,0,.45.24.48.22.03.34-.2.36-.4.03-.2-.05-.4-.24-.43ZM43.8,45.28c-.21-.03-.31.14-.33.33-.02.15.02.36.23.39s.31-.16.33-.31c.03-.18-.02-.38-.23-.41Z"/>
        <path class="cls-6" d="M48.17,44.93c.39.09.72.32.73.76l.08,3.67c.01.59-.42.62-.79.54-.78-.17-.41-.88-.67-.94l-.43-.09c-.26-.06-.22.74-1,.57-.37-.08-.74-.29-.48-.82l1.59-3.31c.19-.39.59-.47.97-.38ZM47.82,46.59l-.47,1.25c-.02.05-.05.12.03.14l.25.05c.07.02.08-.06.08-.12l.11-1.33Z"/>
        <path class="cls-6" d="M51.84,47.19c-.08-.02-.1.02-.12.07l-.79,2.8c-.1.37-.5.46-.83.36s-.61-.37-.51-.74l.79-2.8c.01-.05.02-.1-.06-.12l-.18-.05c-.37-.11-.47-.45-.39-.75s.35-.55.73-.44l1.87.53c.37.11.47.46.39.76-.08.3-.35.54-.72.44l-.18-.05Z"/>
        <path class="cls-6" d="M55.4,48.37c-.08-.03-.1.01-.12.07l-.97,2.74c-.13.36-.53.42-.85.31-.33-.12-.59-.41-.46-.77l.97-2.74c.02-.05.03-.1-.05-.13l-.17-.06c-.37-.13-.44-.48-.34-.78.1-.29.39-.52.75-.39l1.83.65c.37.13.44.49.34.78s-.39.52-.75.39l-.17-.06Z"/>
        <path class="cls-6" d="M56.02,52.43c-.49-.21-.53-.6-.34-1.04l1.33-3.15c.15-.35.55-.39.87-.26.32.13.56.45.41.8l-1.1,2.6c-.07.16-.05.27.14.35l.41.17c.29.12.38.44.26.73-.13.3-.42.45-.71.33l-1.28-.54Z"/>
        <path class="cls-6" d="M58.84,53.68c-.48-.23-.49-.63-.28-1.06l1.38-2.82c.21-.43.54-.66,1.01-.43l1.23.6c.32.16.41.46.24.81-.12.25-.42.46-.78.29l-.37-.18c-.15-.07-.3-.03-.38.14-.08.17-.03.31.12.39l.35.17c.3.15.34.46.2.75-.13.26-.41.46-.72.31l-.35-.17c-.15-.07-.3-.03-.38.14-.08.17-.03.31.12.39l.37.18c.32.16.41.46.24.81-.12.25-.42.46-.78.29l-1.23-.6Z"/>
      </g>
    </g>
    <g>
      <path d="M29.31,33.38l-.16-3.25.18.05c.14.04.3.1.46.16.19.07.39.15.6.21.31.09.63.1.95.04h0c.3-.06.6-.18.85-.36.25-.18.46-.39.66-.59.05-.05.1-.1.15-.15.03-.03.06-.06.09-.09.02-.02.03-.03.05-.05l.24-.22c.19.01.38,0,.58-.03,1.19-.23,1.95-1.41,1.66-2.6-.26-1.06-1.3-1.76-2.38-1.6-1.21.18-2.02,1.33-1.78,2.52,0,.01,0,.03,0,.04l-.03.02-.08.06s0,0,0,0c0,0-.02.01-.03.02,0,0,0,0,0,0-.01,0-.02.02-.03.03,0,0,0,0,0,0-.01,0-.02.02-.03.03,0,0,0,0,0,0-.01.01-.03.02-.04.04,0,0,0,0-.01,0-.02.01-.03.03-.05.04,0,0,0,0,0,0-.02.01-.03.03-.05.04,0,0,0,0-.01.01-.02.01-.03.03-.05.05,0,0,0,0,0,0-.02.01-.03.03-.05.04,0,0,0,0,0,0-.02.02-.03.03-.05.05,0,0,0,0-.01.01-.02.02-.03.04-.05.05l-2.21-.56c-.19-.21-.44-.37-.72-.46l.43-.02c.1,0,.2-.02.3-.04h0c.4-.08.73-.26.99-.51.13-.13.23-.27.32-.43l.1-.22c.1-.26.14-.55.12-.85l-.16-2.64-.16-2.64c-.01-.19-.04-.37-.1-.54-.03-.1-.07-.2-.12-.29-.17-.34-.41-.6-.72-.78-.19-.11-.4-.18-.64-.23-.17-.03-.34-.04-.54-.03l-1.01.05-.11-1.25c.27-.12.44-.41.39-.72-.06-.37-.4-.62-.77-.57-.37.06-.62.4-.57.77.04.26.23.47.47.54l.1,1.24-6.54.34-.1-1.04c.57-.21.93-.81.81-1.43-.13-.68-.8-1.13-1.48-.99s-1.13.8-.99,1.48c.1.5.49.88.96.99l.09,1.03-.51.03c-.08,0-.17.02-.25.03-.99.19-1.68,1.09-1.61,2.1l.38,5.47c.06.79.57,1.45,1.26,1.72l-2.95.2c-.6.04-1.14.38-1.42.9-.01.02-.02.04-.03.06-.03.07-.07.14-.09.21l-.95,2.48c-.19.15-.36.33-.49.54-.32.5-.41,1.09-.27,1.66.13.51.44.95.88,1.25.44.3.97.42,1.49.34.04,0,.07-.01.11-.02h0c.57-.11,1.08-.46,1.39-.95.32-.5.41-1.09.27-1.66-.08-.33-.24-.63-.46-.88l.51-1.47,1.5-.07.27,4.49c.06,1.02.71,1.77,1.67,1.92.05,0,.15.01.28.02l-.06.22c-.13.48-.37.89-.7,1.35l-.11-.54-3.94.36s-.09.01-.14.02c-.68.13-1.16.78-1.08,1.47l.47,4.09c.03.27.18.52.4.68.04.03.09.06.14.08l.36.03c.45.04.9-.17,1.14-.56,0-.02.02-.03.03-.05.26-.47.44-1.03.51-1.63l2.94-.5h0s0,0,0,0l-.11-.54.37-.23c.94-.57,1.74-1.84,2.39-3.77l.19-.56c1.48-.05,3.08-.11,3.83-.14,0,0,0,0,.01,0,.15,0,.29-.02.43-.05,0,0,0,0,0,0,.07-.01.14-.03.21-.05l1.96.99-.31.71,3.67,2.43c.53.35,1.25.14,1.5-.45l1.86-4.37s.01-.03.02-.05c.16-.43,0-.91-.37-1.17-.12-.09-.29-.19-.4-.26-.1-.06-.21-.09-.33-.07h0s-.05,0-.08.01c-.04,0-.08.02-.11.03-.11.03-.2.07-.26.11-.48.24-.9.54-1.27.9-.17.17-.33.35-.48.55l-2.19-1.27-.19.44h0c-.36-.19-.68-.34-1.06-.44.08-.27.13-.56.13-.85,0-.04,0-.09,0-.13Z"/>
      <g>
        <path class="cls-8" d="M19.08,27.11l3.15-.22s-.3-.09-.43-.24c-.23-.25-.47-.55-.49-.89l-.38-5.85c-.03-.52.23-1.02.67-1.3l-3.09.21c-.78.05-1.36.73-1.31,1.51l.38,5.47c.05.78.73,1.36,1.51,1.31Z"/>
        <path class="cls-8" d="M15.18,38.56c-.43.04-.74.42-.69.84l.47,4.09c.03.25.27.41.51.34h0c.19-.06.36-.19.46-.36.29-.51.45-1.15.47-1.85l2.79-.47-.59-2.9-3.42.31Z"/>
        <path class="cls-8" d="M35.1,34.64c-.11-.05-.23-.06-.34,0-.61.28-1.35.77-1.96,1.77l-2.09-1.21-1.1,2.56,3.17,2.1c.27.18.64.07.77-.23l1.81-4.27c.11-.27,0-.58-.26-.71Z"/>
        <path class="cls-8" d="M14.34,34.63c.91-.13,1.51-1.02,1.28-1.91-.19-.76-.94-1.27-1.72-1.16-.91.13-1.51,1.02-1.28,1.91.19.76.94,1.27,1.72,1.16Z"/>
        <path class="cls-8" d="M19.53,38.66l.3,1.69c1.01-.62,1.72-2.2,2.14-3.46l-1.53.06c-.18.66-.53,1.18-.91,1.71Z"/>
        <path class="cls-8" d="M16.5,29.65l2.67-.15c.4-.02.43-.59.34-.85-.12-.3-.38-.53-.75-.52l-2.6.07c.43.4.46.8.35,1.45Z"/>
        <path class="cls-8" d="M28.95,34.91c-.29.44-.55.74-1.02,1.08l1.32.66.71-1.33c-.34-.19-.64-.32-1.01-.41Z"/>
        <path class="cls-8" d="M15.75,29.85c.31-.23.42-.52.32-.86-.07-.25-.22-.6-.54-.66-.59-.11-1.03.31-1.23.82l-.69,1.81c.64-.11,1.13-.05,1.67.24l.46-1.34Z"/>
        <circle class="cls-8" cx="19.15" cy="15.96" r=".67"/>
        <path class="cls-8" d="M33.24,25.49c-.84.16-1.39.98-1.22,1.82s.98,1.39,1.82,1.22,1.39-.98,1.22-1.82-.98-1.39-1.82-1.22ZM33.94,27.71c-.03.06-.08.11-.14.12-.04,0-.07,0-.11-.01-.1-.04-.15-.15-.11-.25.06-.14.03-.31-.08-.42-.07-.08-.17-.12-.28-.13-.11,0-.21.03-.28.11-.08.07-.2.07-.28,0-.07-.08-.07-.2,0-.28.15-.14.35-.22.56-.21.21,0,.4.1.55.25.21.22.27.55.16.83Z"/>
        <path class="cls-8" d="M28.72,33.41l-.24-4.91c-.05-.6-.57-1.05-1.17-1.01l-7.22.48c.3.58.44,1.34.02,1.9-.4.52-1.06.6-1.78.53l.25,4.21c.04.71.45,1.26,1.17,1.37.5.08,6.79-.19,6.79-.19,1.26-.05,2.24-1.12,2.18-2.39ZM27.35,34.63l-3.44.24-1.2.03c-.49.01-.86-.51-.89-1.01l-.27-4.56c-.02-.46.32-.85.78-.88l4.68-.31c.53-.03.94.34.97.89l.29,4.69c.03.54-.4.89-.91.92Z"/>
        <path class="cls-8" d="M27.03,28.59l-4.61.28c-.25.01-.42.27-.4.49l.29,4.56c.02.24.21.52.48.5l4.6-.27c.23-.1.37-.31.36-.52l-.25-4.66c-.01-.26-.24-.4-.48-.38Z"/>
        <path class="cls-8" d="M31.5,29.96c.48-.22.86-.69,1.24-1.04-.47-.26-.76-.47-1.04-.91-.24.18-.5.43-.63.64-.02.3.04.93.43,1.31Z"/>
        <path class="cls-8" d="M29.38,28.16l.11,1.46c.55.15,1.16.52,1.71.43-.36-.45-.44-1.09-.41-1.45l-1.4-.44Z"/>
        <path class="cls-8" d="M21.26,20.05l.32,5.41c.04.72.66,1.27,1.38,1.22l5.33-.31c.82-.06,1.33-.62,1.28-1.43l-.33-5.28c-.01-.21-.06-.42-.15-.6-.19-.39-.5-.61-.95-.7-.13-.03-.26-.03-.39-.02l-5.27.33c-.72.05-1.26.66-1.22,1.38ZM26.9,23.25l-.08-1.68c-.02-.38.36-.63.67-.65.4-.02.69.27.72.71l.12,1.77c.03.48-.44.72-.78.67-.42-.06-.62-.38-.64-.83ZM22.82,23.61l-.07-1.86c-.01-.37.34-.59.66-.6.33,0,.68.26.71.66l.11,1.84c.03.45-.34.68-.67.69-.42.01-.72-.29-.74-.74Z"/>
      </g>
      <g id="Shade" class="cls-9">
        <path class="cls-6" d="M18.95,39.98l-3.67.49.18,3.35h0c.19-.06.36-.19.46-.36.29-.51.45-1.15.47-1.85l2.79-.47-.24-1.17Z"/>
        <path class="cls-6" d="M15.75,29.85c.31-.23.42-.52.32-.86-.07-.25-.22-.6-.54-.66-.59-.11-1.03.31-1.23.82l-.69,1.81c.64-.11,1.13-.05,1.67.24l.46-1.34Z"/>
        <path class="cls-6" d="M20.02,21.84c-.18-.36-.49-.67-.83-.68-.37,0-.77.24-.94.63-.58,1.35.02,3.3,1.11,3.24.9-.05,1.32-1.83.65-3.19ZM19.36,24.55c-.99.19-1.3-2.9-.28-2.96.98-.05,1.12,2.79.28,2.96Z"/>
        <path class="cls-6" d="M27.31,27.49l-6.42.43.37,8.07c2.01-.05,5.29-.19,5.29-.19,1.26-.05,2.24-1.12,2.18-2.39l-.24-4.91c-.05-.6-.57-1.05-1.17-1.01ZM27.97,29.03l.29,4.69c.03.54-.4.89-.91.92l-3.44.24-1.2.03c-.49.01-.86-.51-.89-1.01l-.27-4.56c-.02-.46.32-.85.78-.88l4.68-.31c.53-.03.94.34.97.89Z"/>
        <path class="cls-6" d="M29.09,19.06c-.19-.39-.5-.61-.95-.7-.13-.03-.26-.03-.39-.02l-5.27.33c-.72.05-1.26.66-1.22,1.38l.32,5.41c.04.72.66,1.27,1.38,1.22l5.33-.31c.82-.06,1.33-.62,1.28-1.43l-.33-5.28c-.01-.21-.06-.42-.15-.6ZM24.12,21.81l.11,1.84c.03.45-.34.68-.67.69-.42.01-.72-.29-.74-.74l-.07-1.86c-.01-.37.34-.59.66-.6.33,0,.68.26.71.66ZM28.22,21.63l.12,1.77c.03.48-.44.72-.78.67-.42-.06-.62-.38-.64-.83l-.08-1.68c-.02-.38.36-.63.67-.65.4-.02.69.27.72.71Z"/>
        <path class="cls-6" d="M31.07,28.65c-.02.3.04.93.43,1.31.48-.22.86-.69,1.24-1.04-.47-.26-.76-.47-1.04-.91-.24.18-.5.43-.63.64Z"/>
        <path class="cls-6" d="M32.97,38.44l2.15-3.78s-.01,0-.02-.01c-.16-.08-.32-.02-.47.06-.58.29-1.26.78-1.83,1.7l-2.09-1.21-.65,1.51,2.92,1.73Z"/>
      </g>
    </g>
    <g>
      <path d="M44.59,35.49l.2-2.34-.13.03c-.1.02-.22.06-.34.11-.14.05-.28.1-.44.13-.22.05-.46.05-.68,0h0c-.22-.05-.43-.14-.6-.28-.17-.14-.32-.29-.46-.44-.04-.04-.07-.08-.1-.11-.02-.02-.04-.05-.07-.07-.01-.01-.02-.02-.04-.03l-.17-.16c-.14,0-.28,0-.42-.04-.85-.2-1.37-1.07-1.13-1.92.21-.76.98-1.24,1.76-1.09.87.16,1.42,1.01,1.22,1.86,0,.01,0,.02,0,.03l.02.02.06.05s0,0,0,0c0,0,.01.01.02.02,0,0,0,0,0,0,0,0,.02.01.02.02,0,0,0,0,0,0,0,0,.02.01.02.02,0,0,0,0,0,0,0,0,.02.02.03.03,0,0,0,0,0,0,.01,0,.02.02.03.03,0,0,0,0,0,0,.01,0,.02.02.03.03,0,0,0,0,0,0,.01.01.02.02.03.03,0,0,0,0,0,0,.01.01.02.02.03.03,0,0,0,0,0,0,.01.01.02.03.04.04,0,0,0,0,0,0,.01.01.02.03.03.04l1.61-.35c.15-.15.33-.26.53-.31l-.31-.03c-.07,0-.14-.02-.21-.04h0c-.28-.07-.52-.2-.7-.39-.09-.09-.16-.2-.22-.32l-.07-.16c-.06-.19-.09-.4-.07-.62l.18-1.9.18-1.9c.01-.14.04-.27.08-.39.03-.07.06-.14.09-.21.13-.24.31-.42.54-.54.14-.07.29-.12.46-.15.12-.02.25-.02.39,0l.73.06.11-.9c-.19-.09-.3-.31-.26-.53.05-.26.3-.44.57-.39.26.05.44.3.39.57-.04.19-.18.33-.35.38l-.1.89,4.7.41.1-.75c-.41-.16-.65-.61-.55-1.05.11-.49.6-.79,1.09-.68s.79.6.68,1.09c-.08.36-.37.62-.71.69l-.09.74.37.03c.06,0,.12.02.18.03.71.16,1.18.83,1.11,1.55l-.41,3.94c-.06.57-.45,1.03-.95,1.21l2.12.22c.43.04.81.3,1,.68,0,.01.01.03.02.04.02.05.04.1.06.16l.62,1.81c.13.11.25.25.34.4.22.37.27.79.15,1.21-.1.36-.34.68-.67.88-.32.2-.71.28-1.08.21-.03,0-.05-.01-.08-.02h0c-.41-.09-.77-.36-.98-.72-.22-.37-.27-.79-.15-1.21.07-.23.19-.45.35-.62l-.33-1.07-1.08-.09-.3,3.23c-.07.73-.56,1.26-1.25,1.34-.04,0-.11,0-.2,0l.04.16c.08.35.24.65.47.99l.09-.38,2.83.36s.07.01.1.02c.49.11.81.59.74,1.09l-.44,2.94c-.03.2-.14.37-.3.48-.03.02-.07.04-.1.06h-.26c-.33.03-.65-.13-.81-.41,0-.01-.01-.02-.02-.03-.18-.34-.29-.75-.33-1.19l-2.1-.43h0s0,0,0,0l.09-.39-.26-.17c-.66-.44-1.21-1.37-1.63-2.78l-.12-.41c-1.06-.07-2.22-.16-2.76-.2,0,0,0,0,0,0-.11,0-.21-.02-.31-.05,0,0,0,0,0,0-.05-.01-.1-.03-.15-.04l-1.44.66.2.52-2.71,1.66c-.39.24-.91.07-1.07-.36l-1.23-3.2s0-.02-.01-.04c-.1-.31.02-.65.3-.84.09-.06.21-.13.29-.17.07-.04.16-.06.24-.04h0s.04,0,.06.01c.03,0,.05.01.08.02.08.03.14.06.19.08.34.18.63.41.89.68.12.13.23.26.33.41l1.61-.86.13.32h0c.26-.13.5-.23.77-.29-.05-.2-.08-.41-.07-.62,0-.03,0-.06,0-.09Z"/>
      <g>
        <path class="cls-5" d="M52.12,31.22l-2.26-.24s.22-.06.32-.16c.17-.17.35-.39.37-.63l.42-4.21c.03-.38-.14-.74-.45-.96l2.22.23c.56.06.97.56.91,1.12l-.41,3.94c-.06.56-.56.96-1.12.91Z"/>
        <path class="cls-5" d="M54.65,39.57c.31.04.52.32.47.63l-.44,2.94c-.03.18-.21.29-.38.23h0c-.14-.05-.25-.14-.32-.27-.2-.38-.3-.84-.29-1.34l-2-.41.5-2.08,2.46.31Z"/>
        <path class="cls-5" d="M40.38,36.25c.08-.04.17-.03.25,0,.44.22.95.59,1.37,1.32l1.53-.82.73,1.88-2.34,1.44c-.2.12-.47.03-.55-.19l-1.2-3.13c-.08-.2.02-.42.21-.51Z"/>
        <path class="cls-5" d="M55.35,36.76c-.65-.12-1.06-.77-.88-1.41.16-.55.71-.89,1.27-.79.65.12,1.06.77.88,1.41-.16.55-.71.89-1.27.79Z"/>
        <path class="cls-5" d="M51.51,39.54l-.26,1.21c-.71-.47-1.19-1.63-1.46-2.55l1.1.08c.12.48.35.87.62,1.25Z"/>
        <path class="cls-5" d="M53.92,33.12l-1.92-.17c-.29-.02-.3-.44-.22-.62.09-.21.28-.37.55-.35l1.88.11c-.32.28-.35.56-.29,1.04Z"/>
        <path class="cls-5" d="M44.81,36.6c.2.32.38.55.71.8l-.97.44-.48-.98c.25-.12.47-.22.74-.27Z"/>
        <path class="cls-5" d="M54.46,33.28c-.22-.18-.29-.38-.21-.63.06-.18.18-.43.41-.47.43-.07.74.25.86.62l.45,1.32c-.46-.1-.81-.06-1.21.13l-.3-.98Z"/>
        <circle class="cls-5" cx="52.35" cy="23.17" r=".49"/>
        <path class="cls-5" d="M40.61,30.54c-.14.6.23,1.2.84,1.34s1.2-.23,1.34-.84-.23-1.2-.84-1.34-1.2.23-1.34.84ZM41.52,30.69c.11-.11.25-.17.4-.17.15,0,.29.06.4.17.05.05.05.14,0,.2-.05.05-.14.05-.2,0-.05-.05-.13-.08-.2-.08-.08,0-.15.03-.2.08-.08.08-.1.2-.07.3.03.07-.01.15-.08.18-.03,0-.05.01-.08,0-.04-.01-.08-.04-.1-.09-.07-.21-.02-.44.13-.59Z"/>
        <path class="cls-5" d="M46.53,37.3s4.52.35,4.89.3c.52-.06.83-.45.88-.96l.28-3.03c-.52.03-1-.04-1.27-.43-.29-.41-.17-.96.06-1.37l-5.19-.52c-.43-.04-.82.27-.87.7l-.3,3.54c-.08.91.6,1.71,1.51,1.78ZM45.34,35.75l.33-3.37c.04-.4.34-.66.72-.62l3.37.34c.33.03.57.32.54.65l-.31,3.28c-.03.36-.31.73-.67.71l-.87-.05-2.48-.26c-.37-.04-.67-.29-.63-.69Z"/>
        <path class="cls-5" d="M46.35,32.09l3.32.31c.18.02.29.2.28.37l-.33,3.28c-.02.17-.17.37-.36.35l-3.31-.31c-.16-.08-.26-.23-.25-.38l.29-3.35c.02-.18.18-.28.35-.26Z"/>
        <path class="cls-5" d="M43.1,32.96c-.34-.17-.6-.52-.87-.78.34-.18.56-.32.77-.63.17.14.35.32.44.48,0,.22-.05.67-.34.93Z"/>
        <path class="cls-5" d="M44.67,31.72l-.11,1.05c-.4.1-.85.34-1.24.27.27-.31.34-.77.33-1.04l1.02-.29Z"/>
        <path class="cls-5" d="M49.88,25.05l-3.79-.37c-.09,0-.19,0-.28,0-.33.05-.55.2-.7.48-.07.13-.11.28-.13.43l-.37,3.8c-.06.58.3,1,.89,1.06l3.83.36c.52.05.98-.33,1.03-.85l.37-3.89c.05-.52-.33-.98-.84-1.03ZM46.09,28.82c-.25.02-.58-.16-.55-.51l.13-1.27c.03-.32.25-.52.54-.5.23.02.49.21.47.48l-.1,1.21c-.03.32-.18.55-.48.58ZM48.96,29.11c-.24-.02-.49-.19-.46-.52l.12-1.32c.03-.29.28-.47.52-.46.23.01.48.18.46.45l-.1,1.34c-.02.32-.25.53-.55.51Z"/>
      </g>
      <g id="Shade-2" data-name="Shade" class="cls-9">
        <path class="cls-6" d="M51.9,40.51l2.63.45-.22,2.41h0c-.14-.05-.25-.14-.32-.27-.2-.38-.3-.84-.29-1.34l-2-.41.2-.84Z"/>
        <path class="cls-6" d="M54.46,33.28c-.22-.18-.29-.38-.21-.63.06-.18.18-.43.41-.47.43-.07.74.25.86.62l.45,1.32c-.46-.1-.81-.06-1.21.13l-.3-.98Z"/>
        <path class="cls-6" d="M51.97,29.71c.78.07,1.26-1.32.88-2.31-.11-.29-.39-.47-.66-.48-.24,0-.47.21-.61.47-.52.96-.26,2.26.39,2.32ZM52.26,27.24c.74.07.44,2.29-.28,2.12-.6-.14-.43-2.19.28-2.12Z"/>
        <path class="cls-6" d="M45.31,31.99l-.3,3.54c-.08.91.6,1.71,1.51,1.78,0,0,2.36.18,3.81.27l.46-5.81-4.62-.47c-.43-.04-.82.27-.87.7ZM46.38,31.76l3.37.34c.33.03.57.32.54.65l-.31,3.28c-.03.36-.31.73-.67.71l-.87-.05-2.48-.26c-.37-.04-.67-.29-.63-.69l.33-3.37c.04-.4.34-.66.72-.62Z"/>
        <path class="cls-6" d="M44.98,25.6l-.37,3.8c-.06.58.3,1,.89,1.06l3.83.36c.52.05.98-.33,1.03-.85l.37-3.89c.05-.52-.33-.98-.84-1.03l-3.79-.37c-.09,0-.19,0-.28,0-.33.05-.55.2-.7.48-.07.13-.11.28-.13.43ZM49.15,26.82c.23.01.48.18.46.45l-.1,1.34c-.02.32-.25.53-.55.51-.24-.02-.49-.19-.46-.52l.12-1.32c.03-.29.28-.47.52-.46ZM46.21,26.54c.23.02.49.21.47.48l-.1,1.21c-.03.32-.18.55-.48.58-.25.02-.58-.16-.55-.51l.13-1.27c.03-.32.25-.52.54-.5Z"/>
        <path class="cls-6" d="M43.44,32.03c0,.22-.05.67-.34.93-.34-.17-.6-.52-.87-.78.34-.18.56-.32.77-.63.17.14.35.32.44.48Z"/>
        <path class="cls-6" d="M41.82,39.04l-1.46-2.78s.01,0,.02,0c.11-.05.23,0,.34.05.41.22.89.59,1.28,1.27l1.53-.82.43,1.11-2.15,1.17Z"/>
      </g>
    </g>
  </g>
</svg>