<?xml version="1.0" encoding="UTF-8"?>
<svg id="Layer_1" data-name="Layer 1" xmlns="http://www.w3.org/2000/svg" viewBox="0 0 88.62 29.45">
  <defs>
    <style>
      .cls-1 {
        fill: #fff;
      }
    </style>
  </defs>
  <g id="Copeland">
    <path class="cls-1" d="M88.46,24.7c.37-1.64.06-3.29-.86-4.63-1.09-1.59-2.95-2.69-5.52-3.27l-9.42-2.12c-.34-.08-.68-.02-.98.15-.19-.28-.48-.47-.82-.55l-4.74-1.07c-.23-.05-.46-.04-.67.02-.17-.14-.37-.24-.59-.29l-6.66-1.5c-.55-.12-1.13.11-1.44.58l-.41.63-1.93-.44.05-.22c.08-.37,0-.76-.21-1.07-.19-.28-.49-.48-.82-.56l-3.83-.86h0s-13.56-3.06-13.56-3.06l-.02.08c-.33-.13-.67-.23-1.04-.32l-8.53-1.92c-.35-.08-.72-.02-1.03.18-.04.03-.09.06-.13.09-1.06-.71-2.38-1.24-3.94-1.59-2.41-.54-4.47-.45-6.13.27-1.16-1.34-3.05-2.33-5.5-2.88C3.48-1.06,1.26,2.12.59,3.55c-.19.4-.33.84-.43,1.28C.06,5.28,0,5.73,0,6.17c0,.84.17,2.11,1.05,3.4h0c1.14,1.67,3.12,2.82,5.87,3.44,2.42.54,4.54.44,6.19-.3,1.19,1.38,3.02,2.36,5.45,2.91,1.55.35,2.98.43,4.24.25.03.06.06.12.1.18.19.28.49.48.82.56l6.56,1.48c.73.16,1.46-.3,1.62-1.03l.17-.75.33.07c.48.11.95.17,1.4.19l-.2.87c-.08.37,0,.76.21,1.07.19.28.49.48.82.56l8.21,1.85h0s23.36,5.26,23.36,5.26l1.41.31.23.05c.34.08.68.02.98-.15.2.28.49.47.82.55l9.67,2.18c2.55.58,4.69.38,6.36-.58,1.43-.82,2.42-2.19,2.79-3.85Z"/>
    <path d="M13.11,11.6c.16-.09.36-.04.47.11.91,1.26,2.56,2.35,5.2,2.95,1.79.4,3.27.4,4.46.13.26-.06.49.17.44.43h0c-.04.2.08.39.27.43l6.56,1.48c.19.04.39-.08.43-.27l.31-1.37c.04-.19.24-.32.43-.27l.95.21c.69.16,1.35.2,1.96.15.24-.02.44.2.38.44l-.38,1.67c-.04.19.08.39.27.43l9.14,2.06h0s10.81,2.44,10.81,2.44h0s11.61,2.61,11.61,2.61h0s1.64.36,1.64.36c.19.04.39-.08.43-.27l.03-.13c.07-.32.5-.39.66-.1l.44.74c.05.09.13.15.23.17l2.98.67,2.11.47,4.58,1.03c5,1.13,7.39-1.16,7.96-3.67s-.62-5.58-5.62-6.7l-4.58-1.03-2.11-.47-2.73-.61c-.19-.04-.39.08-.43.27l-.03.13c-.07.32-.5.39-.66.1l-.44-.74c-.05-.09-.13-.15-.23-.17l-4.73-1.07c-.19-.04-.39.08-.43.27l-.08.36-.4-.09-.07-.51c-.02-.15-.13-.27-.28-.3l-6.66-1.5c-.15-.03-.3.03-.38.16l-.65,1c-.08.13-.23.19-.38.16l-2.99-.67c-.19-.04-.32-.24-.27-.43l.19-.84c.04-.19-.08-.39-.27-.43l-4.77-1.07h0s-11.64-2.63-11.64-2.63l-.09.38c-.52-.37-1.16-.66-1.95-.84l-8.53-1.92c-.19-.04-.39.08-.43.27h0c-.06.26-.37.37-.58.2-.96-.76-2.29-1.39-4.08-1.79-2.62-.59-4.56-.32-5.93.41-.16.08-.36.04-.46-.11-.94-1.33-2.74-2.35-5.25-2.92C3.97.08,2.06,2.76,1.5,3.97c-.16.34-.28.7-.36,1.08s-.13.76-.13,1.13c-.01,1.34.56,4.6,6.14,5.86,2.45.55,4.53.37,5.97-.44Z"/>
    <path class="cls-1" d="M59.82,15.99h0s.69,5.16.69,5.16l-3.54-.8,2.85-4.37ZM64.54,23.15l-1.06-7.87-2.85-.64-.94-.21-1.19-.27-4.33,6.66,2.19.49,4.86,1.09,3.32.75Z"/>
    <polygon class="cls-1" points="66.78 16.01 69.78 16.69 72.46 21.23 73.3 17.48 75.38 17.95 73.74 25.21 70.73 24.53 68.06 19.99 67.22 23.74 65.14 23.27 66.78 16.01"/>
    <path class="cls-1" d="M79.6,25.44c1.01.23,1.82-.61,2.18-2.24s0-2.72-1.02-2.94l-.47-.11-1.17,5.19.47.11ZM76.38,18.17l5.14,1.16c3.3.74,4.93,2.52,4.41,4.8-.52,2.3-2.75,3.21-6.05,2.46l-5.14-1.16,1.64-7.26Z"/>
    <path class="cls-1" d="M21.49,9.62c.39-1.73.07-2.87-.89-3.09s-1.73.68-2.12,2.41-.07,2.89.88,3.11,1.73-.68,2.13-2.43M14.33,8.01c.54-2.39,2.94-3.32,6.51-2.51s5.34,2.67,4.8,5.06-2.94,3.34-6.51,2.53c-3.57-.8-5.34-2.67-4.8-5.08"/>
    <path class="cls-1" d="M31.12,12.35c.85.19,1.38-.57,1.54-1.29.19-.86-.05-1.65-.84-1.83l-.78-.18-.7,3.11.78.18ZM27.13,7.09l7.33,1.65c2.01.45,2.67,1.89,2.36,3.26-.35,1.56-1.81,2.32-3.85,1.86l-2.86-.64-.47,2.08-4.15-.93,1.64-7.26Z"/>
    <polygon class="cls-1" points="38.05 9.55 46.58 11.47 46.34 12.51 41.97 11.52 41.5 13.59 45.36 14.46 45.12 15.5 41.27 14.63 40.8 16.71 45.18 17.69 44.94 18.73 36.41 16.81 38.05 9.55"/>
    <path class="cls-1" d="M9.61,7.78c-.41,1.69-1.28,1.8-1.89,1.67-.8-.18-1.16-1.02-1.02-2.32.03-.25.07-.51.13-.79s.13-.53.22-.77c.43-1.22,1.11-1.82,1.91-1.64.61.14,1.41.59.99,2.3l3.96.89c.39-2.12-1.8-3.57-4.72-4.23-3.16-.71-5.41-.06-6.25,1.76-.11.23-.19.49-.26.76s-.09.54-.1.8c-.02,2.02,1.73,3.57,4.89,4.28,2.88.65,5.47.26,6.08-1.81l-3.96-.89Z"/>
    <polygon class="cls-1" points="47.54 11.69 51.69 12.63 50.29 18.85 53.84 19.65 53.61 20.69 45.91 18.95 47.54 11.69"/>
  </g>
</svg>