<?xml version="1.0" encoding="UTF-8"?>
<svg id="Layer_1" data-name="Layer 1" xmlns="http://www.w3.org/2000/svg" viewBox="0 0 42.97 68.84">
  <defs>
    <style>
      .cls-1 {
        fill: #dd004a;
      }

      .cls-2 {
        fill: #fff;
      }

      .cls-3 {
        opacity: .25;
      }

      .cls-4 {
        fill: #0c0801;
      }

      .cls-5 {
        fill: #8c6239;
      }

      .cls-6 {
        fill: #333;
      }
    </style>
  </defs>
  <path class="cls-2" d="M.48,51.2c.38.44.8.78,1.24,1.05-.22.15-.39.38-.49.66-.16.42-.14.85.05,1.23.2.4.6.72,1.08.85.41.12.84.23,1.28.33-.19.32-.23.68-.18,1,.1.59.57,1.21,1.59,1.21.5,0,.99-.04,1.46-.12,0,.26.07.49.18.7.28.56.78.88,1.36.88.28,0,.57-.08.86-.23.55-.28,1.15-.63,1.67-1.14.25.27.29.65.33,1.26.02.22.03.44.06.66.06.41.09.82.12,1.24,0,.05,0,.1.01.15.07.94-.35,1.81-1.06,2.43s-1.14,1.44-1.28,2.43c0,.03-.13,1.29.61,2.12.78.87,1.55.94,2.4.94h4.98c1.2,0,2.04-.89,2.2-2.33.13-1.07.53-4.08.86-5.01.37-1.02,1.42-1.76,2.49-1.76.18,0,.35.02.51.06,1.19.29,1.97,1.35,2.09,2.83.07.85.3,2.09.49,3.09.08.46.19,1.02.2,1.15.03,1.08.77,1.87,1.74,1.88,1,0,2.1,0,3.21,0h2.75c1.31,0,2.4-1,2.49-2.27.02-.25-.02-.48-.05-.62-.26-1.11-.8-2-1.6-2.62s-1.24-1.55-1.1-2.53c.09-.64.18-1.28.26-1.9l.08-.62c.56-.32.92-.87,1.02-1.58.05-.34.08-.68.11-1.03v-.13c.06-.71.11-1.1.45-1.46.75-.77.77-1.74.78-2.52,0-.21,0-.43.03-.63.04-.41.04-.8.04-1.18v-.25c.97-1.14,1.45-2.26,1.48-3.41.01-.48.16-.95.41-1.36,1.09-1.79.92-3.7.62-5.22-.16-.81-.48-1.53-.78-2.22-.09-.21-.18-.41-.27-.62-1-2.4-1.89-4.98-2.76-8.07.43.14.88.2,1.34.2.73,0,1.51-.18,2.3-.52,1.75-.77,2.76-2.2,2.92-4.14.22-.05.42-.16.58-.33.28-.28.43-.71.43-1.21,0-.17-.01-.33-.04-.48l.64-2.48c.07-.09.13-.19.18-.29.25-.53.22-1.33-.67-1.86-.18-.11-.35-.21-.51-.32.32-.18.55-.47.66-.87.15-.54,0-.94-.14-1.19-.22-.35-.57-.6-1.04-.73.14-.15.25-.33.32-.54.18-.57.14-1.34-1.11-1.83-.84-.33-1.42-.74-1.81-1.27-.25-.34-.53-.62-.83-.88.06-.29.01-.56-.02-.67-.25-1.05-.72-2.05-1.44-3.05-1.49-2.07-3.63-3.55-6.54-4.54C26.68.5,23.91,0,21.24,0h-.22c-2.03.04-4.4.19-6.69,1.07-4.41,1.69-6.98,4.87-7.63,9.46l-.02.09c-.09.45-.05.78.06,1.03-.36.11-.72.22-1.08.32-.41.12-.82.24-1.2.36-.88.28-1.1.95-1.01,1.49.04.22.11.42.23.59-.38.16-.77.29-1.18.38-1.34.29-1.53,1.05-1.45,1.64.07.57.46,1.18,1.33,1.27-.03.02-.2.14-.2.14-.26.18-.52.35-.77.54-.69.53-.86,1.34-.41,2.02.29.44.74.69,1.26.69.09,0,.18,0,.27-.02-.04.31-.07.63-.07.95,0,2.83,1.25,5.01,3.59,6.31.87.48,1.8.73,2.78.73.8,0,1.62-.16,2.5-.48-.05.19-.11.39-.16.59-.08.27-.15.53-.22.8-.23.92-.48,1.83-.72,2.75-.51,1.91-1.04,3.88-1.44,5.86-.43,2.09-.09,3.91,1.02,5.41.15.21.22.41.16,1.03-.1,1.01-.23,2.02-.36,3.03-.07.49-.13.98-.19,1.48-1.96-1.01-3.39-2.54-4.44-4.68-.84-1.73-1.23-3.54-1.15-5.38.05-1.23-.39-1.89-1.31-2.01-.08,0-.15-.01-.22-.01-.48,0-1.34.21-1.68,1.59-.31,1.27-.45,2.55-.4,3.8.08,1.89.26,3.89,1.1,5.79-.23.03-.53.12-.82.4-.47.45-.75,1.29.02,2.18Z"/>
  <path class="cls-4" d="M1.09,49.68c-.32.3-.15.66.08.92.76.88,1.78,1.3,2.86,1.62.4.12.84.14,1.15.5.1.12.29.2.22.39-.08.2-.24.3-.48.3-.49.01-.95-.1-1.41-.23-.23-.06-.46-.14-.69-.21-.3-.09-.6-.12-.74.25-.17.44.13.77.53.88,1.23.35,2.47.63,3.76.46.26-.03.68-.21.76.09.1.36-.35.43-.62.52-.32.11-.67.14-1.01.2-.2.04-.4.05-.6.1-.34.1-.62.29-.55.68.06.37.38.45.7.45,1.17,0,2.29-.24,3.35-.75.24-.11.54-.47.73-.18.15.23-.21.48-.43.66-.25.2-.54.36-.81.53-.3.19-.6.4-.39.82.22.44.59.46.98.25.74-.38,1.44-.83,1.92-1.54.08-.13.16-.34.35-.3.19.04.14.26.19.41.04.11.06.26.14.33.81.69.67,1.68.79,2.57.15,1.1.13,2.22.38,3.31.06.25-.08.49-.31.57-1.24.45-2.08,1.27-2.28,2.62,0,.03-.05.88.39,1.38.52.58.96.64,1.74.63,1.65,0,3.31,0,4.96,0,.8,0,1.2-.68,1.29-1.51,0,0,.47-4,.91-5.22.6-1.66,2.44-2.68,4.08-2.28,1.57.38,2.63,1.77,2.78,3.64.11,1.32.67,3.89.69,4.28.02.53.31,1,.83,1,1.84.01,3.98,0,5.95,0,.81,0,1.52-.61,1.58-1.42.01-.15-.02-.29-.03-.36-.33-1.44-1.21-2.37-2.6-2.77-.48-.14-.5-.3-.42-.75.27-1.53.46-3.08.67-4.62.03-.22.07-.38.3-.47.44-.18.64-.53.71-.98.05-.32.08-.64.1-.96.06-.78.08-1.51.71-2.16.68-.69.45-1.72.55-2.61.05-.44.04-.89.04-1.33,0-.26.08-.45.26-.65.86-1,1.4-2.13,1.16-3.5-.03-.18.01-.32.12-.45,1.33-1.55,1.35-3.35.98-5.22-.19-.94-.64-1.79-1-2.66-1.21-2.9-2.17-5.88-3.01-8.9-.12-.42-.36-.82-.33-1.27.16-.1.23.03.31.09,1.35,1.15,2.85,1.17,4.38.5,1.45-.64,2.25-1.8,2.38-3.39.01-.14,0-.29.02-.42.05-.24-.06-.57.46-.39.38.13.53-.25.53-.62,0-.81-.39-1.52-.65-2.26-.22-.62-.46-1.24-.72-1.9.33.02.45.26.62.4.24.18.49.34.76.44.33.12.7-.01.85-.33.15-.32-.06-.54-.31-.69-.63-.37-1.23-.79-1.75-1.31-.29-.29-.58-.59-.64-1.16.45.28.79.54,1.21.59.35.04.79.14.92-.34.14-.49-.22-.72-.62-.81-.96-.2-1.61-.81-2.19-1.53-.08-.1-.21-.19-.15-.39.41.17.79.37,1.21.5.33.1.75.16.89-.26.14-.43-.23-.57-.57-.71-.85-.34-1.64-.8-2.21-1.57-.28-.38-.62-.7-.99-.99,0-.05,0-.09-.02-.16-.24-1-.69-2.63-1.28-3.45-1.53-2.12-3.66-3.38-6.09-4.21-2.72-.92-5.49-1.51-8.38-1.48-2.17.04-4.33.23-6.37,1.01-4.02,1.54-6.51,4.98-7.12,9.29-.02.15-.06.69-.02,1.15-.93.31-1.9.57-2.78.85-.22.07-.43.18-.38.47.05.3.26.47.56.45.37-.02.74-.09,1.11-.14-.99.87-2.09,1.43-3.34,1.69-.37.08-.8.17-.74.63.06.49.51.51.91.46.54-.07,1.07-.2,1.57-.44.1-.05.25-.12.32.02.03.06-.03.19-.08.27-.48.77-1.12,1.38-1.87,1.88-.28.19-.57.38-.85.59-.27.2-.4.48-.2.79.19.29.47.32.8.22.46-.14.71-.58,1.22-.81-.15.95-.42,1.81-.41,2.71,0,2.43,1,4.34,3.11,5.52,1.79.99,3.64.66,5.42-.19.18-.09.36-.18.58-.29-.02,1.13-.41,2.12-.67,3.15-.72,2.85-1.56,5.68-2.16,8.56-.34,1.66-.19,3.26.86,4.68.37.49.4,1,.33,1.66-.16,1.72-.43,3.43-.63,5.15-.06.51-.23.56-.64.38-2.51-1.1-4.27-2.97-5.45-5.39-.89-1.83-1.33-3.77-1.24-5.82.02-.45.07-.99-.52-1.07-.57-.07-.79.43-.9.89-.29,1.16-.42,2.35-.37,3.55.08,1.89.26,3.76,1.05,5.5.28.62.66,1.2.99,1.81.11.2.32.37.23.69-.56-.2-.98-.58-1.38-.96-.28-.26-.56-.46-.89-.15Z"/>
  <path class="cls-4" d="M26.33,25.13c.25-.04.33.1.34.31.01.25-.07.45-.35.46-.22,0-.39-.09-.4-.35,0-.28.18-.38.41-.42Z"/>
  <path class="cls-2" d="M30.77,8.56c.02-.18.06-.37.29-.37.22,0,.29.17.31.36.02.21-.07.35-.29.36-.23,0-.3-.14-.31-.36Z"/>
  <path class="cls-6" d="M31.78,14.88c-.15-.02-.34-.1-.34-.29,0-.17.15-.28.29-.36.41-.23.85-.22,1.34-.21.55-.04,1.13.08,1.7.19.24.05.42.22.42.46,0,.26-.24.4-.46.41-.99.07-1.98-.08-2.96-.2Z"/>
  <path class="cls-5" d="M10.89,17.75c.11.04.3.04.27.23-.06.41-.13.84-.44,1.15-.13.14-.36.02-.42-.08-.17-.3.06-.57.17-.84.08-.19.11-.45.42-.46Z"/>
  <path class="cls-5" d="M11.95,22.66c.04.46-.25.78-.47,1.13-.03.05-.09.09-.15.1-.18.02-.3-.07-.35-.28.24-.35.47-.72.74-1.07.05-.07.22.03.23.12Z"/>
  <path class="cls-5" d="M13.12,18.27c.15,0,.24.07.24.21,0,.54-.08,1.07-.26,1.59-.06.16-.21.24-.39.17-.2-.07-.22-.22-.19-.39.09-.43.18-.86.28-1.29.04-.17.13-.29.33-.3Z"/>
  <path class="cls-5" d="M7.13,22.94c-.08.01-.21-.02-.27-.09-.14-.15-.02-.3.06-.44.15-.25.26-.54.63-.75.03.06.06.13.09.21.12.24-.25,1.03-.51,1.07Z"/>
  <g>
    <path class="cls-5" d="M34.53,17.79c-.17.14-.46.33-.64.35-1.07.11-1.74,1.05-2.73,1.3-1.03.27-2.07.36-3.12.15-1.03-.2-2.04-.48-2.98-.97-1.16-.61-2.22-1.33-3-2.4-.07-.1-.16-.24-.25-.25-.34-.04-.48-.21-.4-.52.1-.41.39-.66.82-.7.31-.03.46.13.55.42.14.45.37.86.74,1.14,1.95,1.47,4.08,2.44,6.59,2.3.49-.03.96-.1,1.35-.48-.64-.46-1.28-.88-1.71-1.54-.69-1.07-.26-2.53.85-3.15.94-.52,1.97-.53,3.01-.51.21,0,.43.1.68-.05-1.05-1.64-5.56-3.72-5.79-4.13-.12-.22-.22-.45-.05-.68.19-.25.38-.1.58.01l.27.21c1.22-1.49,3-.63,3,.63,0,.47-.08.92-.25,1.09,0,0,.64.43,1.06.7.21.14.42.29.63.43-.33-.73-.45-1.6-.81-2.47-.69-1.65-2.34-2.54-3.95-3.14-3.32-1.24-7.5-1.27-10.48.62-.17.11-.37.3-.58.55-1.36,1.6-1.75,3.82-1.12,5.82v.03c.67,2.46,1.04,4.09,2.35,6.26,1.78,2.94,3.88,5.63,6.39,8,.63.6.92.58,1.48-.1.22-.26.37-.57.7-.73.16-.08.2-.26.13-.42-.06-.14-.21-.1-.32-.06-.36.12-.49-.06-.52-.37-.04-.41.29-.35.5-.3.48.12.57-.17.61-.51.05-.44-.29-.32-.53-.36-.73-.14-1.47-.12-2.21-.08-.15,0-.29,0-.31-.2-.02-.21.06-.37.28-.4.38-.04.77-.12,1.14-.09.41.03.79-.1,1.2-.09.4,0,.41-.35.4-.62,0-.33-.3-.23-.46-.19-.92.24-1.84.05-2.76-.01-.43-.03-.74-.25-.73-.65.01-.4.4-.44.74-.46,2.11-.14,4.23-.24,6.3-.74,1.44-.35,2.75-1.2,3.57-2.44.12-.19.22-.39.23-.63,0,0-.27.3-.44.44ZM18.34,10.52c0-1.3.92-2.38,2.07-2.41,1.29-.03,2.14.96,2.17,2.53.02,1.04-1,2.06-2.06,2.07-1.24,0-2.16-.92-2.17-2.19ZM26.33,25.13c.25-.04.33.1.34.31.01.25-.07.45-.35.46-.22,0-.39-.09-.4-.35,0-.28.18-.38.41-.42Z"/>
    <path class="cls-5" d="M14.12,64.15c-1.43-.23-2.66.38-3.16,1.48-.37.83-.15,1.18.74,1.16.44,0,.89.06.91-.62.01-.33.35-.53.65-.67.22-.1.49-.14.68.06.18.19.01.37-.07.55-.29.62-.23.72.47.72.3,0,.61,0,.91,0,0,0,0,0,0,.01.32,0,.64.01.96,0,.62-.03.74-.19.47-.77-.51-1.08-1.4-1.73-2.56-1.92Z"/>
    <path class="cls-5" d="M32.08,64.34c-1.63-.71-3.87.37-4.37,2.09-.09.3-.02.41.3.39.18-.02.36,0,.55,0,0,0,0,0,0,0,.7,0,1.41,0,2.11,0,.72,0,.85-.19.58-.85-.05-.13-.26-.23-.07-.41.15-.15.34-.13.51-.07.42.15.67.48.72.9.06.58.39.54.81.44.48-.11.46-.43.38-.79-.19-.84-.76-1.38-1.51-1.71Z"/>
    <path class="cls-5" d="M30.71,44.5s-.11-.03-.17-.04c-.14.26.05.43.16.6.51.8,1.02,1.6,1.46,2.44.32.62.81,1.1,1.33,1.56.1.09.24.18.37.07.09-.08.03-.19-.02-.28-.86-1.58-1.87-3.06-3.14-4.35Z"/>
    <path class="cls-5" d="M16.72,49.48c1.04-.08,2.79-1.76,3.13-3-.89,1.13-2.18,1.84-3.13,3Z"/>
  </g>
  <path class="cls-2" d="M20.18,9.62c0-.3.14-.49.44-.49.26,0,.5.14.5.42,0,.28-.17.52-.49.51-.27,0-.45-.17-.45-.45Z"/>
  <g>
    <path class="cls-1" d="M14.57,9.21c.06,0,.39.05.45.05.09-.9,1.23-2.61,2.08-3.32,3.88-3.22,10.72-3.08,14.97-.33.89.58,1.7,1.27,2.12,2.28.27.65.66,1.13,1.31,1.47-.73-1.86-2.06-3.92-3.77-4.84-2.66-1.42-5.53-2.21-8.53-2.51-2.9-.29-5.74,0-8.47,1.06-3.2,1.24-5.12,3.58-5.83,6.92-.05.23-.09,1.22-.18,1.92.54-.23,1.05-.48,1.5-.8,1.15-.79,2.31-1.59,3.73-1.82.2-.03.41-.08.62-.1ZM15.39,3.22c.31.02.48.19.48.49,0,.33-.24.47-.51.48-.32.01-.4-.26-.45-.52.05-.28.17-.47.47-.45ZM14.01,4.05c.31.03.44.25.49.54-.04.28-.23.46-.48.45-.33,0-.5-.27-.49-.57,0-.26.18-.46.48-.42ZM10.72,8.39c-.25,0-.42-.15-.41-.42,0-.24.14-.36.41-.33.17.07.47,0,.43.34-.03.24-.18.41-.44.41ZM11.73,7.2c-.24.03-.42-.19-.5-.44.09-.26.19-.5.51-.51.27-.01.41.14.43.4.02.31-.18.52-.44.55ZM12.76,6.04c-.3-.05-.43-.26-.43-.51,0-.27.14-.55.45-.54.28,0,.49.22.47.53-.01.3-.22.45-.5.52ZM13.4,7.97c-.27-.25-.31-.51-.06-.79.82-.89,1.67-1.74,2.8-2.25.33-.15.44-.04.48.32.09.21-.04.37-.24.52-.83.61-1.61,1.27-2.28,2.06-.19.23-.39.42-.7.14Z"/>
    <path class="cls-1" d="M36.45,40.5c-.08-1.08-.46-2.05-.92-2.99-.97-1.99-1.62-4.1-2.29-6.19-.44-1.36-1.03-2.67-1.25-4.1-.05-.35-.25-.17-.38-.05-.3.27-.59.56-.89.83-.17.15-.36.29-.58.07-.19-.18-.28-.4-.17-.66.1-.25.27-.45.47-.63,1.37-1.18,1.81-2.66,2.57-4.26.31-.65-.71-.75-1.12.24-.69,1.64-2.01,2.93-3.38,4.1-.71.61-1.32,1.32-1.97,1.98-.23.23-.5.22-.72-.07-1.05-1.37-2.32-2.53-3.44-3.84-2.49-2.9-3.95-4.8-4.66-6.45,0,0-1.64.18-.44,1.79.71.95,1.64,2.46,2.22,3.49.59,1.03,1.37,1.89,2.14,2.76.18.2.5.44.21.71-.29.27-.69.22-.98-.07-.33-.33-.63-.69-.93-1.04-1.19-1.41-2.07-3.04-3.14-4.54-.27-.38-.4-.87-.6-1.31-.05,0-.05,0-.1.01-.08.65-.12,1.31-.25,1.96-.29,1.49-1.04,2.75-2.1,3.83-.51.52-.41,1.03.24,1.38.44.24.93.42,1.2.88.11.18.28.03.42.11.19.11.42.18.43.45.01.21-.11.36-.29.43-.23.08-.34-.14-.5-.25-.5-.34-1.11-.46-1.6-.85-.16-.13-.23.2-.31.35-.11.2-.15.43.11.51.5.15.83.62,1.38.68.29.03.31.29.23.52-.1.27-.33.32-.53.16-.3-.23-.67-.26-.98-.46-.3-.19-.52-.24-.69.19-.17.43.01.54.38.58.06,0,.11.04.17.05.4.1.46.4.34.71-.16.41-.43.14-.64.04-.51-.25-.67-.18-.72.35-.02.2,0,.33.25.39.33.08.65.23.96.37.28.12.32.35.22.61-.11.25-.3.21-.51.12-.2-.09-.41-.18-.61-.26-.17-.06-.31-.36-.52-.15-.2.2-.28.52-.23.79.04.25.34.15.52.2.15.04.32.07.46.14.25.11.3.33.2.56-.1.24-.3.31-.55.22-.09-.04-.17-.11-.27-.14-.17-.04-.27-.43-.48-.17-.19.23-.25.56-.16.87.05.17.2.05.31.04.26-.03.5,0,.61.27.08.17.08.37-.09.5-.23.16-.47.1-.68-.04-.13-.09-.25-.28-.4-.09-.2.26-.34.57-.34.89,0,.22.24.14.39.16.06,0,.12,0,.18,0,.26.03.48.11.57.38.07.21-.05.36-.2.47-.22.17-.48.14-.66-.05-.35-.36-.43-.13-.52.2-.69,2.64-.04,4.88,1.97,6.73.49.45,1.25.45,1.76.02,1.13-.96,2.24-1.93,3.22-3.05.14-.16.46-.3.2-.59-.24-.28-.41-.71-.9-.58-.48.13-.92.04-1.37-.1-.16-.05-.31-.12-.32-.31-.01-.2.14-.27.29-.35.33-.17.69-.23,1.06-.26.34-.03.52-.13.55-.55.05-.82.19-1.64.32-2.46.03-.17.09-.37.2-.5.17-.22.42-.31.7-.18.31.14.39.41.32.71-.19.77-.31,1.54-.43,2.32-.06.37-.01.75.17,1.07.56,1.03,1.3,1.94,1.91,2.93.13.21.33.22.52.24,2.36.22,4.73.26,7.09.17.63-.03,1.25-.08,1.88-.09.38,0,.62-.16.77-.55.24-.59.49-1.2.92-1.66.31-.33.36-.72.34-1.12-.04-.77-.02-1.54-.15-2.3-.07-.4-.04-.76.46-.81.64-.06.54.62.63.95.09.33.14.67.11,1.01-.06.69-.06,1.03.44.96.02,0,.05,0,.07,0,.41.04,1.01-.03.97.54-.05.59-.66.33-.99.27-.68-.13-.64.42-.81.75-.22.42.17.46.41.56,1.04.43,1.86,1.13,2.54,2.09.71-1.11.83-2.28.74-3.52ZM11.82,41.27c-.34.03-.41-.25-.45-.52.08-.27.02-.66.47-.64.35.02.45.29.47.59.02.34-.18.54-.49.57ZM14.66,32.56c-.24,0-.45-.12-.4-.41.03-.21.11-.44.39-.46.21.08.43.17.42.44,0,.25-.16.43-.41.43ZM16.12,27.74c-.1.18-.25.24-.46.21-.39-.06-.73-.25-1.03-.49-.15-.12-.39-.23-.26-.48.1-.19.33-.21.53-.25.41.13.83.21,1.12.56.1.13.19.26.09.44ZM24.34,40.19c-.21.41-.53.66-.98.63-.5.01-.85-.16-1.04-.61-.2-.48-.2-.91.23-1.26.18-.15.28-.31.28-.57-.02-1.76-.03-3.51-.04-5.27,0-1.25.07-2.51-.16-3.75-.08-.42.15-.65.51-.78.39-.15.75-.13,1.04.23.24.29.19.53-.06.8-.11.12-.21.34-.19.49.11.83-.03,1.65-.03,2.48,0,1.88,0,3.76-.02,5.65,0,.32.02.57.28.8.35.32.42.73.2,1.16ZM29.04,40.7c-.42.33-1.1.24-1.48-.19-.42-.48-.41-1.09.07-1.5.22-.18.27-.37.26-.63-.02-.78-.02-1.57-.01-2.35.03-2.02.16-4.05-.13-6.07-.03-.24-.03-.49.1-.71.17-.3.4-.56.77-.45.37.12.61.4.55.83-.03.22-.09.44-.09.66,0,2.01-.07,7.29-.12,7.91-.03.39.04.68.3.99.39.46.26,1.12-.22,1.5ZM31.51,29.38c-.01-.29.17-.39.42-.4.16,0,.36-.02.35.22-.02.25-.13.47-.43.51-.23.03-.33-.1-.34-.32ZM31.75,30.59c.05-.26.26-.32.49-.33.28,0,.39.22.37.45-.02.24-.24.33-.44.32-.24,0-.41-.14-.42-.44ZM31.92,32.3c0-.32.26-.41.55-.46.28.06.48.22.45.53-.03.3-.25.46-.54.46-.33,0-.45-.27-.46-.53ZM32.84,34.49c-.34,0-.46-.21-.47-.51,0-.28.11-.47.38-.48.39,0,.57.21.59.52.03.33-.21.46-.5.47ZM33.43,36.05c-.26-.05-.45-.18-.42-.44.03-.26.13-.53.48-.52.32.01.48.23.49.52,0,.35-.32.36-.55.44Z"/>
    <path class="cls-1" d="M33.53,50.27c-1.11-.48-1.47-1.63-2.17-2.47-.45-.53-.76-1.19-1.1-1.81-.12-.22-.16-.5-.19-.76-.08-.81-.07-.83-.9-.82-2.36.02-4.73-.1-7.09-.01-1.08.04-1.09,0-1.32,1.06-.35,1.65-1.02,3.1-2.38,4.18-.71.56-1.56.75-2.38,1.03-.39.13-.65-.21-.55-.73.04-.22.1-.38-.15-.5-1.04-.48-1.53-1.44-1.88-2.42-.25-.7-.86-.87-1.27-1.31-.13-.13-.19.01-.23.14-.21.68-.23,1.4-.3,2.1-.02.22.11.28.31.25.16-.02.32-.03.48-.03.18,0,.38.02.46.22.07.17-.03.31-.14.44-.17.18-.35.15-.55.05-.57-.28-.66-.21-.8.39-.08.31.08.39.3.49.32.14.66.17,1.01.15.19-.01.38.02.43.24.05.2.05.4-.12.56-.18.17-.36.14-.55.03-.2-.12-.39-.22-.62-.29-.59-.18-.61.24-.69.58-.11.47.29.39.54.44.26.06.52.08.78.12.28.05.35.25.31.5-.05.31-.27.32-.5.26-.16-.04-.3-.11-.45-.17-.19-.07-.4-.21-.55,0-.13.17-.03.4.06.58.13.25.36.36.61.47,1.12.48,2.32.5,3.5.59,2.48.18,4.97.16,7.46.16,2.55.01,5.09.03,7.63-.18.74-.06,1.48-.17,2.19-.42.61-.21.91-.66.96-1.27.04-.48.02-.97.03-1.46,0-.14.01-.29-.16-.36ZM27.92,47.4c-.62.07-1-.2-1.18-.83.42-.12.84-.14,1.26-.04.24.06.49.18.46.47-.03.3-.29.36-.54.39ZM33.06,52.57c-.36.25-.79.39-1.07.53-.46.03-.61-.19-.69-.45-.09-.26,0-.45.29-.57.32-.13.61-.31.92-.45.19-.09.41-.15.5.13.08.26.4.57.05.81Z"/>
    <path class="cls-1" d="M17.57,54.87c-.24.04-.21.21-.22.36-.03.46-.02.93-.07,1.39-.06.58.28.59.7.62.52.03.47-.3.47-.63,0-.18,0-.36,0-.55h0c0-.16,0-.32,0-.49,0-.61-.27-.82-.89-.7Z"/>
    <path class="cls-1" d="M20.08,54.97c-.74-.09-.74-.11-.74.63,0,.18,0,.36,0,.55,0,0,0,0,0,0,0,.18,0,.36,0,.55.01.3-.12.66.44.65.49,0,.69-.15.64-.66-.04-.42,0-.85.01-1.27,0-.25-.03-.39-.34-.43Z"/>
    <path class="cls-1" d="M25.75,54.91c-.31-.11-.37.11-.36.37,0,.26,0,.52,0,.78h-.02c0,.18,0,.36,0,.54,0,.67.17.82.82.69.19-.04.28-.12.28-.32,0-.56-.02-1.12,0-1.68.03-.65-.47-.3-.72-.39Z"/>
    <path class="cls-1" d="M24,54.97c-.51-.03-.71.11-.65.61.02.22,0,.44,0,.67h-.02c0,.14.02.29,0,.42-.12.55.09.71.63.67.35-.03.52-.11.5-.49-.02-.46-.02-.93,0-1.39.02-.35-.07-.47-.47-.49Z"/>
    <path class="cls-1" d="M22.45,55.55c.01-.43-.15-.58-.61-.58-.49,0-.45.29-.45.6,0,.22,0,.44,0,.67,0,0-.02,0-.03,0,0,.16-.04.32-.03.48.02.3-.1.66.46.63.47-.02.73-.11.67-.65-.04-.38-.02-.77-.01-1.15Z"/>
    <path class="cls-1" d="M12.5,55.43s0,0,.01,0c0-.2-.02-.41,0-.61.08-.55-.4-.53-.67-.55-.33-.02-.16.34-.16.52,0,.36.05.73.11,1.09.03.22.1.44.29.58.11.08.25.18.39.09.13-.07.07-.22.06-.33-.01-.26-.03-.53-.04-.79Z"/>
    <path class="cls-1" d="M15.79,54.76c-.35,0-.47.12-.46.45.01.46,0,.93,0,1.39-.02.5.25.59.68.6.47,0,.38-.32.39-.58.01-.22,0-.44,0-.66,0,0-.01,0-.02,0,0-.18,0-.36.03-.54.09-.52-.15-.65-.63-.65Z"/>
    <path class="cls-1" d="M14.42,55.26c.09-.48-.09-.58-.52-.63-.52-.06-.43.28-.45.56-.01.18,0,.36,0,.55h.02c0,.2.03.41,0,.61-.09.57.33.56.68.58.44.02.29-.34.29-.57.01-.36-.07-.74,0-1.09Z"/>
    <path class="cls-1" d="M32.63,42.86c-.34-.26-.46,0-.6.21-.18.28-.48.49-.58.83.08.26.23.51.46.61.24.1.3-.19.42-.34.15-.19.25-.42.41-.59.28-.31.18-.5-.12-.72Z"/>
    <path class="cls-1" d="M33.38,46.1c.36-.54.65-1.1,1.09-1.55.32-.33-.14-.4-.25-.59-.27-.47-.51-.38-.75.04-.1.18-.23.33-.34.5q-.57.86.24,1.6Z"/>
    <path class="cls-1" d="M34.12,46.49c-.39.41.11.55.27.75.24.28.33-.04.41-.19.31-.57.78-1.12.22-1.9-.24.56-.55.97-.91,1.35Z"/>
    <path class="cls-1" d="M30.08,54.81c-.25.14-.72-.16-.77.36-.03.28,0,.57,0,.85h-.01c0,.18-.03.37,0,.54.04.19-.17.54.26.53.35,0,.74,0,.78-.48.05-.52.03-1.05.03-1.57,0-.22-.13-.32-.31-.23Z"/>
    <path class="cls-1" d="M28,54.9c-.48-.02-.73.07-.64.61.03.18,0,.36,0,.55,0,.18-.03.36-.03.55,0,.28-.14.63.38.63.45,0,.74-.07.68-.62-.04-.42,0-.85,0-1.27,0-.27-.06-.42-.41-.44Z"/>
    <path class="cls-1" d="M31.62,54.76c-.3.05-.38.16-.35.43.02.2.02.4.03.57,0,.14-.03.24-.01.34.04.23-.27.61.19.67.5.07.9-.28.92-.71,0-.18.01-.36.03-.54.08-.91.08-.9-.81-.76Z"/>
    <path class="cls-1" d="M19.8,44.51c.15-.08.11-.25.14-.43-.08-.52-.59-.78-.88-1.2-.32-.47-.49-.2-.68.1-.1.16-.09.28.06.42.34.31.66.65.99.97.09.09.2.23.36.15Z"/>
    <path class="cls-1" d="M14.89,46.05c-.22.14-.44.28-.51.51.24.76.62,1.4,1.18,1.86.29.24.58-.17.82-.35.22-.16-.04-.3-.11-.45-.29-.58-.85-.96-1.13-1.55-.06-.13-.17-.07-.26-.02Z"/>
    <path class="cls-1" d="M17.44,43.83c-.22.18-.43.36-.58.65.83.04,1.09.75,1.53,1.25.18.2.3.33.52.13.18-.16.39-.34.17-.61-.42-.49-.85-.97-1.27-1.46-.14-.16-.26-.05-.36.04Z"/>
    <path class="cls-1" d="M16.45,44.83c-.3.14-.54.37-.71.65-.18.31.19.34.32.48.31.35.67.66.86,1.09.19.42.4.37.67.09.16-.16.33-.3.51-.46-.5-.59-1.08-1.05-1.45-1.69-.05-.09-.08-.22-.21-.16Z"/>
  </g>
  <g class="cls-3">
    <path class="cls-4" d="M17.57,54.87c-.24.04-.21.21-.22.36-.03.46-.02.93-.07,1.39-.06.58.28.59.7.62.52.03.47-.3.47-.63,0-.18,0-.36,0-.55h0c0-.16,0-.32,0-.49,0-.61-.27-.82-.89-.7Z"/>
    <path class="cls-4" d="M20.08,54.97c-.74-.09-.74-.11-.74.63,0,.18,0,.36,0,.55,0,0,0,0,0,0,0,.18,0,.36,0,.55.01.3-.12.66.44.65.49,0,.69-.15.64-.66-.04-.42,0-.85.01-1.27,0-.25-.03-.39-.34-.43Z"/>
    <path class="cls-4" d="M25.75,54.91c-.31-.11-.37.11-.36.37,0,.26,0,.52,0,.78h-.02c0,.18,0,.36,0,.54,0,.67.17.82.82.69.19-.04.28-.12.28-.32,0-.56-.02-1.12,0-1.68.03-.65-.47-.3-.72-.39Z"/>
    <path class="cls-4" d="M24,54.97c-.51-.03-.71.11-.65.61.02.22,0,.44,0,.67h-.02c0,.14.02.29,0,.42-.12.55.09.71.63.67.35-.03.52-.11.5-.49-.02-.46-.02-.93,0-1.39.02-.35-.07-.47-.47-.49Z"/>
    <path class="cls-4" d="M22.45,55.55c.01-.43-.15-.58-.61-.58-.49,0-.45.29-.45.6,0,.22,0,.44,0,.67,0,0-.02,0-.03,0,0,.16-.04.32-.03.48.02.3-.1.66.46.63.47-.02.73-.11.67-.65-.04-.38-.02-.77-.01-1.15Z"/>
    <path class="cls-4" d="M12.5,55.43s0,0,.01,0c0-.2-.02-.41,0-.61.08-.55-.4-.53-.67-.55-.33-.02-.16.34-.16.52,0,.36.05.73.11,1.09.03.22.1.44.29.58.11.08.25.18.39.09.13-.07.07-.22.06-.33-.01-.26-.03-.53-.04-.79Z"/>
    <path class="cls-4" d="M15.79,54.76c-.35,0-.47.12-.46.45.01.46,0,.93,0,1.39-.02.5.25.59.68.6.47,0,.38-.32.39-.58.01-.22,0-.44,0-.66,0,0-.01,0-.02,0,0-.18,0-.36.03-.54.09-.52-.15-.65-.63-.65Z"/>
    <path class="cls-4" d="M14.42,55.26c.09-.48-.09-.58-.52-.63-.52-.06-.43.28-.45.56-.01.18,0,.36,0,.55h.02c0,.2.03.41,0,.61-.09.57.33.56.68.58.44.02.29-.34.29-.57.01-.36-.07-.74,0-1.09Z"/>
    <path class="cls-4" d="M31.92,44.51c.24.1.3-.19.42-.34.15-.19.25-.42.41-.59.28-.31.18-.5-.12-.72-.34-.26-.46,0-.6.21-.18.28-.48.49-.58.83.08.26.23.51.46.61Z"/>
    <path class="cls-4" d="M34.22,43.96c-.27-.47-.51-.38-.75.04-.1.18-.23.33-.34.5q-.57.86.24,1.6c.36-.54.65-1.1,1.09-1.55.32-.33-.14-.4-.25-.59Z"/>
    <path class="cls-4" d="M35.02,45.14c-.24.56-.55.97-.91,1.35-.39.41.11.55.27.75.24.28.33-.04.41-.19.31-.57.78-1.12.22-1.9Z"/>
    <path class="cls-4" d="M30.08,54.81c-.25.14-.72-.16-.77.36-.03.28,0,.57,0,.85h-.01c0,.18-.03.37,0,.54.04.19-.17.54.26.53.35,0,.74,0,.78-.48.05-.52.03-1.05.03-1.57,0-.22-.13-.32-.31-.23Z"/>
    <path class="cls-4" d="M28,54.9c-.48-.02-.73.07-.64.61.03.18,0,.36,0,.55,0,.18-.03.36-.03.55,0,.28-.14.63.38.63.45,0,.74-.07.68-.62-.04-.42,0-.85,0-1.27,0-.27-.06-.42-.41-.44Z"/>
    <path class="cls-4" d="M31.62,54.76c-.3.05-.38.16-.35.43.02.2.02.4.03.57,0,.14-.03.24-.01.34.04.23-.27.61.19.67.5.07.9-.28.92-.71,0-.18.01-.36.03-.54.08-.91.08-.9-.81-.76Z"/>
    <path class="cls-4" d="M19.44,44.36c.09.09.2.23.36.15.15-.08.11-.25.14-.43-.08-.52-.59-.78-.88-1.2-.32-.47-.49-.2-.68.1-.1.16-.09.28.06.42.34.31.66.65.99.97Z"/>
    <path class="cls-4" d="M15.15,46.07c-.06-.13-.17-.07-.26-.02-.22.14-.44.28-.51.51.24.76.62,1.4,1.18,1.86.29.24.58-.17.82-.35.22-.16-.04-.3-.11-.45-.29-.58-.85-.96-1.13-1.55Z"/>
    <path class="cls-4" d="M17.8,43.79c-.14-.16-.26-.05-.36.04-.22.18-.43.36-.58.65.83.04,1.09.75,1.53,1.25.18.2.3.33.52.13.18-.16.39-.34.17-.61-.42-.49-.85-.97-1.27-1.46Z"/>
    <path class="cls-4" d="M18.11,46.67c-.5-.59-1.08-1.05-1.45-1.69-.05-.09-.08-.22-.21-.16-.3.14-.54.37-.71.65-.18.31.19.34.32.48.31.35.67.66.86,1.09.19.42.4.37.67.09.16-.16.33-.3.51-.46Z"/>
  </g>
</svg>