<?xml version="1.0" encoding="UTF-8"?>
<svg id="Layer_1" data-name="Layer 1" xmlns="http://www.w3.org/2000/svg" xmlns:xlink="http://www.w3.org/1999/xlink" viewBox="0 0 57.33 60.29">
  <defs>
    <style>
      .cls-1 {
        fill: url(#linear-gradient-2);
      }

      .cls-2 {
        fill: url(#linear-gradient);
      }

      .cls-3 {
        fill: #fff;
      }
    </style>
    <linearGradient id="linear-gradient" x1="3.32" y1="31.34" x2="55.67" y2="31.34" gradientTransform="translate(4.46 -4.45) rotate(7.91)" gradientUnits="userSpaceOnUse">
      <stop offset="0" stop-color="#6e4b9d"/>
      <stop offset="1" stop-color="#90529f"/>
    </linearGradient>
    <linearGradient id="linear-gradient-2" x1="12.78" y1="35.26" x2="46.23" y2="35.26" gradientTransform="translate(4.46 -4.45) rotate(7.91)" gradientUnits="userSpaceOnUse">
      <stop offset="0" stop-color="#ee4723"/>
      <stop offset="1" stop-color="#f6911e"/>
    </linearGradient>
  </defs>
  <path class="cls-3" d="M34.12,60.29c-.22,0-.49-.02-.73-.04l-.72-.1c-.46-.08-.91-.16-1.34-.26-1.56-.36-3.18-.95-4.95-1.79-.11-.05-.22-.1-.32-.16-2.05.75-5.84,1.89-10.54,2.16-.29.02-.57.02-.85.02h0c-4.69,0-9.14-2.3-11.9-6.17C-.03,50.05-.75,45.23.8,40.72c1.4-4.08,1.99-8.53,2.09-11.34.27-8.12,1-15.85,6.83-21.15l.05-.04C11.49,6.8,20.35,0,29.64,0c3.39,0,6.47.91,9.17,2.69,1.42-.88,3.59-1.41,5.92-1.41,2.18,0,7.6.52,10.64,5.34,1.08,1.7,1.29,4.07.58,6.5-.88,3.04-2.97,5.61-5.59,6.92.13.67.21,1.35.26,2.17.04.7.05,1.39.05,2.09,0,.22,0,.43,0,.65,1.54.02,2.81.06,3.97.14l1.27.09c.51.03.97.32,1.23.77.25.45.26.99.03,1.45l-.52,1.02c-.78,1.56-1.61,2.95-2.55,4.24-1.14,1.56-2.29,2.79-3.52,3.76-.59.47-1.18.85-1.77,1.17-.4,3.02-1.29,6.1-2.65,9.16-.6,1.33-1.32,2.89-2.1,4.49-.67,1.37-1.47,2.96-2.46,4.49-.61.93-1.14,1.61-1.73,2.22-.77.8-1.68,1.43-2.63,1.81-.88.35-1.86.53-2.93.53,0,0-.18,0-.19,0Z"/>
  <path class="cls-2" d="M44.32,31.59c-.11.81-.71,1.4-1.34,1.31s-1.05-.82-.93-1.63.71-1.4,1.34-1.31,1.05.82.93,1.63ZM26.52,30.79c.63.09,1.23-.5,1.34-1.31s-.31-1.54-.93-1.63-1.23.5-1.34,1.31.31,1.54.93,1.63ZM8.4,30.76c.08-.18.2-.31.35-.39.3-.17.8-.13,1.28.02,0,0,0,0,.01,0,.26.07.54-.08.61-.35.07-.26-.08-.54-.35-.61h0c-.3-.08-.62-.15-.96-.15-.34,0-.72.05-1.06.24-.35.19-.62.52-.76.85-.07.17-.12.34-.15.51-.02.08-.03.17-.03.27,0,.09,0,.18.02.27.04.34.14.64.26.93.12.29.27.55.45.81.18.25.38.49.62.69.24.2.54.36.88.39.08,0,.16-.05.19-.13.02-.09-.03-.19-.13-.21h0c-.23-.06-.43-.21-.59-.4-.17-.19-.31-.41-.42-.65-.11-.24-.2-.48-.26-.73-.06-.25-.1-.51-.09-.73,0-.06,0-.11.02-.16.01-.04.02-.1.03-.15.02-.11.05-.21.1-.3ZM55.84,26.18c.38.03.61.43.43.77l-.52,1.02h0c-.71,1.43-1.52,2.81-2.47,4.11-.95,1.3-2.02,2.53-3.33,3.56-.64.5-1.32.95-2.07,1.3-.37,3.28-1.31,6.43-2.63,9.41-.68,1.5-1.36,2.98-2.08,4.46-.73,1.48-1.48,2.95-2.4,4.38-.46.71-.98,1.42-1.61,2.06-.62.65-1.4,1.23-2.29,1.59-.89.36-1.84.47-2.72.46-.22,0-.46-.02-.68-.03l-.65-.09c-.42-.07-.84-.15-1.26-.25-1.66-.39-3.24-1-4.75-1.72-.23-.11-.46-.23-.7-.34-1.91.73-5.77,1.97-10.65,2.25-9.63.55-16.84-8.93-13.71-18.07,1.45-4.22,2.05-8.85,2.14-11.63.29-8.74,1.16-15.59,6.5-20.44-.42.38,16.2-13.96,28.44-5.05,2.63-2.29,11.79-2.96,15.71,3.23,2.21,3.49-.12,9.88-4.78,12.08-.18.08-.37.16-.56.24.02.08.04.16.07.23l.13.52c.13.69.2,1.37.24,2.05.04.68.05,1.35.05,2.03,0,.54-.01,1.09-.03,1.65.29,0,.58,0,.86,0,1.36.01,2.71.05,4.06.14l1.27.09ZM26.76,3.4c.01.11.11.19.23.18h0c.99-.12,2.01-.05,3,.09.99.15,1.97.39,2.91.72,1.89.65,3.65,1.63,5.22,2.86.79.61,1.52,1.29,2.21,2.01.34.36.68.74,1,1.12.33.39.69.82,1.07,1.2.76.77,1.64,1.45,2.64,1.95.99.51,2.08.78,3.14.92h.04s.03,0,.03,0c.79,0,1.61-.11,2.39-.43.78-.31,1.48-.85,1.96-1.54.48-.69.78-1.46.84-2.33.05-.86-.24-1.72-.79-2.38-.56-.66-1.35-1.06-2.18-1.17-.43-.05-.88,0-1.28.16-.2.08-.39.18-.57.31-.19.14-.34.31-.46.5-.24.37-.35.81-.35,1.24,0,.43.19.89.49,1.2.29.3.68.55,1.14.58.47.03.88-.22,1.15-.51.07-.08.08-.2,0-.28-.07-.08-.2-.09-.29-.02h0c-.25.22-.54.36-.83.31-.28-.04-.55-.23-.75-.47-.4-.45-.34-1.18.01-1.66.09-.12.19-.21.3-.29.13-.08.27-.15.41-.2.29-.1.59-.11.9-.06.62.11,1.22.44,1.6.93.38.49.57,1.13.51,1.74-.06.61-.34,1.26-.72,1.76-.39.51-.91.88-1.51,1.12-.59.23-1.25.31-1.91.3-.97-.14-1.88-.4-2.72-.83-.85-.43-1.62-1.03-2.31-1.72-.35-.35-.65-.71-.98-1.12-.34-.41-.69-.81-1.05-1.19-.73-.77-1.53-1.48-2.37-2.13-1.69-1.29-3.63-2.28-5.68-2.85-1.02-.28-2.08-.46-3.13-.52-1.06-.05-2.13,0-3.16.28-.1.03-.16.12-.15.22ZM45.7,37.63c-.12.02-.23.04-.35.06-.21.03-.43.04-.65.05-.22,0-.43,0-.65,0-.42-.02-.85-.08-1.27-.17-.59-.13-1.17-.35-1.7-.64-.03.07-.06.14-.09.22-.21.46-.53.9-.94,1.23-.41.33-.9.56-1.4.66-.5.1-1.02.1-1.52,0-.5-.11-1-.33-1.43-.71-.21-.19-.41-.42-.54-.7-.12-.23-.19-.49-.21-.74-.04-.43.24-.85.67-.88.3-.02.57.13.7.37l.1.18c.1.17.21.27.39.38.18.11.43.18.69.22.26.04.54.04.8,0,.26-.04.51-.11.74-.23.23-.11.43-.28.58-.51.07-.11.14-.24.19-.38.05-.14.08-.29.1-.44.07-.59-.1-1.27-.38-1.94-.27-.67-.64-1.34-1.01-2.02-.37-.68-.75-1.38-1.08-2.12-.33-.74-.63-1.54-.74-2.41-.06-.43-.07-.89,0-1.33.03-.22.08-.44.15-.66.07-.22.15-.42.26-.62.14-.28.49-.39.77-.24.24.12.35.39.29.65v.02c-.14.52-.16,1.05-.1,1.58.08-.04.17-.07.26-.08,1.36-.13,2.72-.22,4.07-.28,1.36-.07,2.71-.11,4.07-.14.42-.01.84-.02,1.26-.02.2-.55.34-1.17.44-1.77.1-.62.16-1.25.17-1.88,0-.62-.03-1.24-.15-1.83l-.1-.43-.24-.15c-3.79.85-9.24-.33-16.04-6.55-4.77-4.36-7.45.44-15.28,3.49-4.06,1.58-4.41,4.24-4.14,9.39.81-.35.74-.41,1.56-.73.49-.2.98-.38,1.47-.57l.74-.26h.01c-.09-.28-.17-.56-.25-.84l-.13-.47c-.04-.16-.08-.31-.13-.5h0s-.28-1.36-.28-1.36c-.07-.36.24-.68.6-.6l1.36.29c.78.17,1.55.35,2.32.53l2.31.57,2.29.6c.76.2,1.52.4,2.27.62l2.24.63,1.11.31,1.09.32c1.39.4,2.75.8,4.09,1.19.16.05.29.17.32.34,0,0,0,0,0,0,0,.05.01.1.01.15,0,.04-.01.12-.01.12v.03s-.02.06-.02.06l-.02.12-.05.24c-.03.16-.07.32-.1.47-.07.31-.16.62-.24.93-.18.62-.39,1.22-.64,1.82-.5,1.19-1.16,2.36-2.08,3.37-.46.5-1,.96-1.6,1.33-.6.37-1.28.65-1.98.82-.7.17-1.42.21-2.12.16-.18-.02-.35-.02-.53-.05l-.24-.04c-.23-.04-.59-.12-.81-.18l-.26-.07c-.08-.03-.17-.06-.25-.09-1.35-.47-2.51-1.32-3.47-2.27-.96-.96-1.74-2.05-2.4-3.17-.33-.56-.63-1.14-.92-1.72-.16-.34-.31-.68-.46-1.03l-.17.05-.76.2c-.51.13-1.02.25-1.53.36-.78.18-1.58.33-2.37.48-.45-.19-.95-.33-1.47-.4-2.4-.33-4.53.79-4.77,2.51-.44,3.17,4.73,10.28,7.85,7.2.04-.04.73,1.29.76,1.25.84,7.2,4.73,11.7,8.87,14.8,2.69,1.51,5.45,2.92,8.37,3.56.38.08.76.15,1.15.21l.56.07c.18,0,.35.02.54.02.74,0,1.44-.11,2.06-.37,1.24-.52,2.21-1.71,3.04-3.03.83-1.32,1.54-2.77,2.22-4.23.68-1.46,1.34-2.95,1.99-4.43,1.09-2.54,1.88-5.22,2.24-7.93ZM19.32,25.63c.19.55.4,1.1.62,1.64.23.54.48,1.06.74,1.57.54,1.02,1.16,1.98,1.91,2.79.74.82,1.6,1.49,2.56,1.88.06.03.12.05.18.08l.18.06c.12.04.24.09.37.11l.38.08c.13.03.26.04.39.06.52.06,1.05.06,1.55-.04,1-.18,1.94-.7,2.71-1.48.78-.77,1.41-1.75,1.91-2.8.25-.52.47-1.07.66-1.63.09-.28.18-.56.26-.84,0,0,0,0,0,0,.05-.19-.07-.38-.27-.41l-3.93-.58-1.11-.16-1.1-.17-2.17-.33c-.72-.11-1.43-.23-2.14-.35l-2.12-.36-1.98-.37c.12.42.25.83.39,1.24ZM52.47,28.76c-.67,0-1.34-.02-2.02-.04-.68-.02-1.35-.05-2.03-.07-.68-.04-1.35-.06-2.03-.11-1.35-.08-2.71-.17-4.06-.3-1.33-.12-2.65-.25-3.98-.43.12.36.27.72.43,1.08.61,1.36,1.44,2.68,2.07,4.22.15.39.29.79.39,1.22.08.34.13.7.13,1.08.53.31,1.12.5,1.72.6.33.05.67.07,1.01.07.17,0,.33-.02.5-.03.16-.03.33-.04.49-.07.65-.13,1.28-.37,1.88-.69.6-.33,1.15-.75,1.67-1.21,1.04-.94,1.93-2.09,2.7-3.32.41-.65.78-1.32,1.13-2Z"/>
  <path class="cls-1" d="M40.61,46.36c-.12.28-.42.44-.7.4-.07,0-.13-.03-.2-.06-.19-.09-.39-.18-.59-.26-.13-.05-.27,0-.35.11,0,0,0,0,0,0l-1.92,2.39c-.17.21-.36.41-.56.59-1.07.89-2.11.76-3.66.52-1.71-.27-3.99-.97-5.43-4.18,3.97,1.99,7.02,2.25,8.65,2.19l1.22-1.76c-1.44-.34-2.94-.86-4.56-.98-2.69-.19-5.05-.33-7.62-1.6-.34-.17-.48-.59-.29-.93.17-.31.58-.41.9-.26,2.33,1.14,5.94.81,8.49.99,1.23.09,1.93.88,3.31.74,1.22-.12,1.85.67,2.95,1.2.33.16.51.55.36.88ZM46.14,22.27c-1.24-.71-2.77-.69-4.13-.43-.35.07-.7.17-1.05.25-.22.05-.47.1-.59.23-.23.25-.29.66-.06.93.42.54,1.04.09,1.5-.1,1.2-.51,2.61-.87,3.9-.47.27.08.53.2.77.35.15.1.6.58.75.38.23-.29-.89-1.02-1.1-1.14ZM31.29,21.5c-.22.39-.71.52-1.1.3-.04-.02-.07-.05-.1-.07-.03-.03-.1-.07-.16-.11l-.18-.11c-.12-.07-.25-.14-.38-.21-.26-.13-.52-.26-.79-.36-.54-.21-1.11-.37-1.68-.45-.29-.04-.58-.06-.86-.05-.29,0-.58.03-.86.09-.57.1-1.12.32-1.63.62h0c-.17.1-.38.05-.48-.12-.09-.15-.05-.35.09-.46.53-.41,1.14-.74,1.8-.94.33-.11.66-.18,1.01-.23.34-.05.69-.07,1.03-.06.69,0,1.37.11,2.03.29.33.09.65.19.98.31.16.06.32.12.48.2.08.04.16.07.24.11.08.04.15.07.25.13l.04.02c.39.22.52.71.3,1.1ZM11.63,36.8c-.05.38.21.72.59.78s.72-.21.78-.59-.21-.72-.59-.78-.72.21-.78.59Z"/>
</svg>