<?xml version="1.0" encoding="UTF-8"?>
<svg id="Layer_1" data-name="Layer 1" xmlns="http://www.w3.org/2000/svg" viewBox="0 0 69.04 61.71">
  <defs>
    <style>
      .cls-1 {
        fill: #f05a2f;
      }

      .cls-2 {
        fill: #231f20;
      }

      .cls-3 {
        fill: #9fdcf2;
      }

      .cls-4 {
        fill: #fff;
      }

      .cls-5 {
        fill: #e8e8e4;
      }

      .cls-6 {
        fill: #754c28;
      }

      .cls-7 {
        fill: #787a78;
      }
    </style>
  </defs>
  <path class="cls-4" d="M54.48,61.71c-.9,0-1.75-.3-2.41-.86-.49.22-1.03.34-1.58.34-.88,0-1.71-.31-2.34-.86-.67-.59-1.03-1.41-1.03-2.26-.46-.27-.92-.62-1.39-1.03h-21.44c-.84.82-1.69,1.47-2.5,1.91-.16.53-.47,1-.9,1.38-.63.56-1.46.86-2.34.86-.55,0-1.09-.12-1.58-.34-.66.55-1.51.86-2.41.86s-1.82-.33-2.5-.93c-.07-.06-.13-.12-.2-.19-.34.09-.7.13-1.05.13-.94,0-1.82-.32-2.48-.91-.51-.46-.85-1.04-1-1.67-1.26-.22-2.27-.96-2.67-2.02-.16-.42-.21-.85-.16-1.28-1-.34-1.74-.99-2.07-1.87-.21-.56-.22-1.16-.05-1.74-.92-.61-1.5-1.58-1.5-2.65,0-.47.11-.93.32-1.35-.77-.6-1.22-1.4-1.22-2.28,0-.78.35-1.5.96-2.07-.48-.73-.65-1.58-.42-2.41.18-.63.57-1.18,1.12-1.59-.26-.6-.33-1.25-.15-1.88.25-.91.95-1.62,1.88-2.01,0-.06,0-.12,0-.18,0-1.53,1.24-2.78,2.96-3.11-.09-.27-.14-.55-.14-.84v-7.46c0-.17.02-.33.05-.5-.85-.72-1.37-1.8-1.37-2.95,0-.84.28-1.65.77-2.31-.35-.75-.47-1.65-.32-2.56.26-1.57,1.23-2.79,2.45-3.2,0-.13.02-.26.04-.38.29-1.77,1.59-3.09,3.16-3.28.39-1.41,1.51-2.48,2.92-2.63.11-.01.23-.02.34-.02.19,0,.37.02.55.05.58-1.01,1.59-1.71,2.78-1.84.13-.01.26-.02.39-.02.29,0,.58.04.87.11.61-.93,1.58-1.57,2.7-1.69.13-.01.26-.02.39-.02.49,0,.97.1,1.42.29.46-.46,1.04-.79,1.68-.95.28-.07.57-.11.87-.11.62,0,1.22.16,1.77.46.63-.75,1.49-1.24,2.46-1.34.13-.01.26-.02.39-.02.57,0,1.14.14,1.65.4.61-.49,1.35-.81,2.13-.89.14-.02.29-.02.44-.02.96,0,1.89.35,2.64.96.54-.29,1.14-.45,1.75-.45.13,0,.26,0,.39.02.97.11,1.83.59,2.46,1.34.54-.29,1.15-.46,1.77-.46.29,0,.58.04.87.11.64.16,1.22.49,1.68.95.45-.19.93-.29,1.42-.29.13,0,.26,0,.39.02,1.12.12,2.09.75,2.7,1.69.28-.07.57-.11.87-.11.13,0,.26,0,.39.02,1.19.13,2.2.83,2.78,1.84.18-.03.37-.05.55-.05.11,0,.23,0,.34.02,1.42.15,2.53,1.22,2.92,2.63,1.57.19,2.87,1.51,3.16,3.28.02.13.04.25.04.38,1.22.41,2.19,1.63,2.45,3.2.15.91.03,1.81-.32,2.56.49.66.77,1.47.77,2.31,0,.9-.3,1.75-.86,2.43-.05.19-.11.38-.2.56-.12.25-.27.48-.45.69v7.22c0,.32-.06.64-.17.93,1.52.43,2.59,1.6,2.59,3.03,0,.06,0,.12,0,.18.93.39,1.63,1.1,1.88,2.01.18.63.12,1.29-.15,1.88.55.41.94.96,1.12,1.59.23.82.06,1.68-.42,2.41.62.57.96,1.29.96,2.07,0,.87-.45,1.68-1.22,2.28.21.42.32.87.32,1.35,0,1.06-.58,2.03-1.5,2.65.17.58.15,1.18-.05,1.74-.33.88-1.07,1.53-2.07,1.87.05.43,0,.86-.16,1.28-.39,1.05-1.4,1.8-2.67,2.02-.15.63-.49,1.21-1,1.67-.66.59-1.54.91-2.48.91-.36,0-.71-.05-1.05-.13-.06.06-.13.13-.2.19-.67.6-1.56.93-2.5.93Z"/>
  <g>
    <ellipse class="cls-6" cx="23.16" cy="50.18" rx="9.17" ry="3.84" transform="translate(-31.88 45.15) rotate(-60)"/>
    <ellipse class="cls-6" cx="46.2" cy="49.2" rx="3.84" ry="9.17" transform="translate(-17.14 25.91) rotate(-26.61)"/>
  </g>
  <path class="cls-6" d="M67.79,44.98c0-.8-.73-1.49-1.81-1.84.99-.52,1.55-1.43,1.31-2.3-.21-.76-.98-1.29-1.95-1.45.78-.49,1.19-1.27.98-2.03-.24-.87-1.24-1.43-2.39-1.41.3-.32.47-.7.47-1.11,0-1.08-1.18-1.95-2.63-1.95-.17,0-.33.01-.49.03.04-.13.06-.27.06-.41,0-1.08-1.18-1.95-2.63-1.95-.76,0-1.44.24-1.92.62-.42-.09-.86-.14-1.3-.15-.6-.02-1.2.04-1.77.16,3.73-2.3,6.29-5.28,7.12-8.59,0,0,.01,0,.02,0,1.45,0,2.63-1.18,2.63-2.63,0-.9-.45-1.69-1.14-2.16.57-.52.87-1.48.71-2.51-.23-1.43-1.28-2.45-2.35-2.28-.08.01-.16.04-.24.06.13-.42.17-.89.09-1.37-.23-1.43-1.41-2.43-2.63-2.23-.14.02-.27.06-.4.11.1-1.4-.75-2.62-1.95-2.75-.55-.06-1.07.12-1.5.46-.13-1.18-1.01-2.14-2.17-2.27-.65-.07-1.27.14-1.76.53-.23-1.13-1.09-2.01-2.2-2.13-.76-.08-1.47.21-2,.73-.31-.71-.89-1.25-1.66-1.44-1.02-.25-2.07.21-2.69,1.08-.34-1.11-1.18-1.93-2.25-2.05-.81-.09-1.58.25-2.15.86-.62-.93-1.67-1.5-2.79-1.38-.88.09-1.62.59-2.1,1.3-.56-.56-1.3-.87-2.08-.78-1.07.12-1.91.94-2.25,2.05-.62-.88-1.67-1.34-2.69-1.08-.76.19-1.35.74-1.66,1.44-.53-.53-1.25-.82-2-.73-1.11.12-1.97,1-2.2,2.13-.49-.39-1.11-.6-1.76-.53-1.16.13-2.04,1.09-2.17,2.27-.43-.34-.95-.52-1.5-.46-1.2.13-2.05,1.35-1.95,2.75-.13-.05-.26-.09-.4-.11-1.22-.2-2.4.8-2.63,2.23-.08.48-.04.95.09,1.37-.08-.03-.16-.05-.24-.06-1.06-.17-2.11.85-2.35,2.28-.17,1.03.13,1.98.71,2.51-.69.47-1.14,1.26-1.14,2.16,0,1.37,1.05,2.5,2.39,2.62.84,3.39,3.49,6.42,7.35,8.74-.75-.22-1.54-.32-2.33-.3-.44.01-.88.07-1.3.15-.48-.38-1.16-.62-1.92-.62-1.45,0-2.63.87-2.63,1.95,0,.14.02.28.06.41-.16-.02-.32-.03-.49-.03-1.45,0-2.63.87-2.63,1.95,0,.41.17.8.47,1.11-1.15-.02-2.15.54-2.39,1.41-.21.75.21,1.53.98,2.03-.96.15-1.74.69-1.95,1.45-.24.87.32,1.78,1.31,2.3-1.08.35-1.81,1.04-1.81,1.84,0,.85.83,1.58,2.02,1.9-.68.37-1.12,1.01-1.12,1.72,0,1,.87,1.84,2.03,2.04-.56.58-.79,1.28-.55,1.91.32.86,1.43,1.36,2.71,1.31-.51.54-.72,1.21-.49,1.84.34.9,1.48,1.4,2.72,1.25-.16.7.03,1.43.61,1.95.82.73,2.15.78,3.17.17.11.29.3.56.56.79.92.82,2.41.82,3.33,0,.22-.2.39-.43.51-.67.05.05.1.1.15.15.9.8,2.32.83,3.17.08s.81-2.02-.09-2.82c-.17-.15-.37-.28-.57-.38,2.93-2.42,4.79-6.88,4.6-11.93-.19-4.89-2.26-9.11-5.2-11.41,4.42,1.98,9.93,3.16,15.89,3.16,5.65,0,10.89-1.06,15.19-2.85-2.75,2.35-4.65,6.42-4.83,11.1-.19,5.05,1.68,9.51,4.6,11.93-.21.1-.4.22-.57.38-.9.8-.94,2.06-.09,2.82.85.76,2.27.72,3.17-.08.05-.05.1-.1.15-.15.11.24.28.47.51.67.92.82,2.41.82,3.33,0,.26-.23.44-.5.56-.79,1.03.6,2.35.56,3.17-.17.57-.51.77-1.24.61-1.95,1.23.15,2.38-.35,2.72-1.25.23-.62.02-1.3-.49-1.84,1.29.05,2.39-.45,2.71-1.31.24-.63,0-1.33-.55-1.91,1.16-.2,2.03-1.03,2.03-2.04,0-.72-.45-1.35-1.12-1.72,1.19-.32,2.02-1.05,2.02-1.9Z"/>
  <g>
    <rect class="cls-5" x="8.1" y="20.63" width="52.84" height="35.16" rx="1.27" ry="1.27"/>
    <path class="cls-7" d="M57.06,53.21H11.99c-.77,0-1.39-.62-1.39-1.39v-27.21c0-.77.62-1.39,1.39-1.39h45.07c.77,0,1.39.62,1.39,1.39v27.21c0,.77-.62,1.39-1.39,1.39ZM11.99,23.46c-.63,0-1.15.51-1.15,1.15v27.21c0,.63.51,1.15,1.15,1.15h45.07c.63,0,1.15-.51,1.15-1.15v-27.21c0-.63-.51-1.15-1.15-1.15H11.99Z"/>
    <rect class="cls-3" x="13.48" y="31.08" width="31.63" height="18.12" rx="1.01" ry="1.01"/>
    <g>
      <path class="cls-2" d="M20.88,33.96h5.25s.15.12.37.37c0,.03-.37.4-1.11,1.11h-3.77s-.4-.37-1.11-1.11c0-.03.12-.15.37-.37ZM26.83,34.33s.15.12.37.37v5.25s-.12.15-.37.37c-.03,0-.4-.37-1.11-1.11v-3.77s.37-.4,1.11-1.11ZM26.83,40.72s.15.12.37.37v5.69s-.12.15-.37.37c-.03,0-.4-.37-1.11-1.11v-4.21s.37-.4,1.11-1.11Z"/>
      <path class="cls-2" d="M29.24,34.36s.4.37,1.11,1.11v3.77s-.37.4-1.11,1.11c-.03,0-.15-.12-.37-.37v-5.25s.12-.15.37-.37ZM29.24,40.72s.4.37,1.11,1.11v3.77s-.37.4-1.11,1.11c-.03,0-.15-.12-.37-.37v-5.25s.12-.15.37-.37ZM30.68,45.67h3.77s.4.37,1.11,1.11c0,.03-.12.15-.37.37h-5.25s-.15-.12-.37-.37c0-.03.37-.4,1.11-1.11ZM29.98,33.96h5.25s.15.12.37.37c0,.03-.37.4-1.11,1.11h-3.77s-.4-.37-1.11-1.11c0-.03.12-.15.37-.37ZM35.93,34.33s.15.12.37.37v5.25s-.12.15-.37.37c-.03,0-.4-.37-1.11-1.11v-3.77s.37-.4,1.11-1.11ZM35.93,40.75s.15.12.37.37v5.25s-.12.15-.37.37c-.03,0-.4-.37-1.11-1.11v-3.77s.37-.4,1.11-1.11Z"/>
    </g>
    <g>
      <path class="cls-7" d="M52.87,34.92h-5.65c-.46,0-.84-.37-.84-.84v-2.51c0-.46.37-.84.84-.84h5.65c.46,0,.84.38.84.84v2.51c0,.46-.37.84-.84.84ZM47.22,30.98c-.33,0-.59.27-.59.59v2.51c0,.33.27.59.59.59h5.65c.33,0,.59-.27.59-.59v-2.51c0-.33-.27-.59-.59-.59h-5.65Z"/>
      <path class="cls-7" d="M49.79,32.14l-.68,1.26c-.1.19.04.43.25.43h1.36c.22,0,.36-.23.25-.43l-.68-1.26c-.11-.2-.4-.2-.51,0Z"/>
    </g>
    <g>
      <path class="cls-7" d="M52.87,39.77h-5.65c-.46,0-.84-.37-.84-.84v-2.51c0-.46.37-.84.84-.84h5.65c.46,0,.84.37.84.84v2.51c0,.46-.37.84-.84.84ZM47.22,35.83c-.33,0-.59.27-.59.59v2.51c0,.33.27.59.59.59h5.65c.33,0,.59-.27.59-.59v-2.51c0-.33-.27-.59-.59-.59h-5.65Z"/>
      <path class="cls-7" d="M50.3,38.37l.68-1.26c.1-.19-.04-.43-.25-.43h-1.36c-.22,0-.36.23-.25.43l.68,1.26c.11.2.4.2.51,0Z"/>
    </g>
  </g>
  <g>
    <ellipse class="cls-6" cx="11.65" cy="30.17" rx="14.08" ry="2.86" transform="translate(-20.66 28.85) rotate(-66.56)"/>
    <ellipse class="cls-6" cx="56.05" cy="28.12" rx="3.18" ry="15.57" transform="translate(-6.66 28.09) rotate(-26.61)"/>
    <rect class="cls-1" x="7.45" y="22.13" width="54.54" height="10.07" rx="2.52" ry="2.52"/>
    <ellipse class="cls-6" cx="53.36" cy="18.14" rx="4.27" ry="10.16" transform="translate(14.3 58.77) rotate(-64.91)"/>
    <ellipse class="cls-6" cx="16.25" cy="17.15" rx="10.16" ry="4.27" transform="translate(-5.96 9.1) rotate(-26.61)"/>
  </g>
  <g id="Emerson_Logo" data-name="Emerson Logo">
    <g id="Emerson_Logo-2" data-name="Emerson Logo">
      <g id="Group_291" data-name="Group 291">
        <path id="Path_322" data-name="Path 322" class="cls-4" d="M33.78,29.64v-.56h.18c.25,0,.52,0,.52.26,0,.27-.26.3-.57.3h-.12M33.78,29.95h.23l.69.83h.72l-.84-.9c.18-.06.55-.16.55-.54,0-.55-.75-.57-1.12-.57h-.78c-.08,0-.1,0-.1.06v1.95s.02,0,.1,0h.55s0-.83,0-.83Z"/>
        <path id="Path_323" data-name="Path 323" class="cls-4" d="M38.77,30.52c-.36,0-.51-.29-.51-.75s.15-.75.51-.75.51.29.51.75-.15.75-.51.75M39.96,29.78c0-.71-.46-1.06-1.19-1.06s-1.19.34-1.19,1.06.45,1.05,1.19,1.05,1.19-.34,1.19-1.05Z"/>
        <path id="Path_324" data-name="Path 324" class="cls-4" d="M31.67,29.89h.91v-.32h-.91v-.48h1.01l.14-.32h-1.7c-.07,0-.09,0-.09.05v1.97h1.77s0-.06,0-.06v-.26s-1.13,0-1.13,0v-.58Z"/>
        <path id="Path_325" data-name="Path 325" class="cls-4" d="M42.4,28.77h-.45s.01,1.21.01,1.31l-1.08-1.27s-.04-.04-.11-.04h-.4c-.06,0-.08,0-.09.04v1.97s.02,0,.1,0h.35c.08,0,.1,0,.1,0v-1.12c0-.14,0-.22,0-.26,0,0,1.1,1.29,1.15,1.34.03.03.07.05.11.04h.42s0-2.01,0-2.01h-.1Z"/>
        <path id="Path_326" data-name="Path 326" class="cls-4" d="M26.42,29.89h.91v-.32h-.91v-.48h1.01l.14-.32h-1.7c-.07,0-.09.01-.09.06v1.96h1.77s0-.26,0-.26v-.06s-1.13,0-1.13,0v-.58Z"/>
        <path id="Path_327" data-name="Path 327" class="cls-4" d="M29.26,30.02l-.77-1.2s-.04-.04-.11-.04h-.49v2.01s.02,0,.1,0h.35c.08,0,.1,0,.1,0v-1.12c0-.14,0-.19,0-.23,0,0,.76,1.22.83,1.3h0c.08-.09.8-1.3.8-1.3,0,.04,0,.09,0,.23v1.12s.02,0,.1,0h.35c.08,0,.1,0,.1,0v-2.01h-.1s-.39,0-.39,0c-.07,0-.08,0-.11.04l-.73,1.2h-.02Z"/>
        <path id="Path_328" data-name="Path 328" class="cls-4" d="M37.04,29.7c-.4-.19-.94-.21-.94-.43,0-.18.18-.23.38-.23.33,0,.61.13.63.13.02,0,.04-.01.05-.03l.03-.04.16-.21h0s0,0,0,0c-.01,0-.04-.02-.08-.03-.03-.01-.05-.02-.06-.02-.24-.07-.5-.11-.75-.11-.53,0-1,.18-1,.6,0,.24.11.4.35.49.46.18.93.17.93.43,0,.18-.11.27-.37.27-.39,0-.72-.13-.75-.13-.02,0-.04.01-.05.03l-.05.09-.09.16.07.03c.14.06.52.14.89.14.57,0,.99-.19.98-.62,0-.22-.13-.43-.34-.52Z"/>
      </g>
      <g id="Group_292" data-name="Group 292">
        <path id="Path_329" data-name="Path 329" class="cls-4" d="M35.18,26.62h0s0,0,0,0Z"/>
        <g id="Path_330" data-name="Path 330">
          <path class="cls-4" d="M33.81,24.1l-.25.43s0,.02,0,.03c.01.04.04.07.06.1v.02s.74.88.74.88h0s.7.86.7.86c.13.15.13.19.12.2l.25-.43s-.02-.06-.06-.12v-.02s-.74-.88-.74-.88h0s-.7-.86-.7-.86c-.13-.16-.12-.19-.12-.21h0Z"/>
        </g>
      </g>
      <g id="Group_293" data-name="Group 293">
        <g id="Path_331" data-name="Path 331">
          <path class="cls-4" d="M34.17,23.5l-.25.43s0,.02,0,.03c.01.04.04.07.06.1v.02s.74.88.74.88h0s.7.86.7.86c.13.15.13.19.12.2l.25-.43s-.02-.06-.06-.12v-.02s-.74-.88-.74-.88h0s-.7-.86-.7-.86c-.13-.16-.12-.19-.12-.21h0Z"/>
        </g>
        <path id="Path_332" data-name="Path 332" class="cls-4" d="M35.53,26.01h0s0,0,0,0Z"/>
      </g>
      <g id="Group_294" data-name="Group 294">
        <g id="Path_333" data-name="Path 333">
          <path class="cls-4" d="M33.09,25.32l-.26.43s.02.07.06.12v.02s.74.88.74.88h0s.7.86.7.86c.13.15.13.19.12.2l.25-.42s0-.02,0-.03c-.02-.03-.04-.06-.06-.09v-.02s-.74-.88-.74-.88h0s-.7-.86-.7-.86c-.13-.16-.12-.19-.12-.21h0Z"/>
        </g>
        <path id="Path_334" data-name="Path 334" class="cls-4" d="M34.46,27.83h0s0,0,0,0Z"/>
      </g>
      <g id="Group_295" data-name="Group 295">
        <path id="Path_335" data-name="Path 335" class="cls-4" d="M34.1,28.44h0s0,0,0,0Z"/>
        <g id="Path_336" data-name="Path 336">
          <path class="cls-4" d="M32.74,25.92l-.26.43s.02.07.06.12v.02s.74.88.74.88h0s.7.86.7.86c.13.15.13.18.12.2l.25-.42s0-.02,0-.03c-.02-.03-.04-.06-.06-.09v-.02s-.74-.88-.74-.88h0s-.7-.86-.7-.86c-.13-.16-.12-.19-.11-.21h0Z"/>
        </g>
      </g>
      <g id="Path_337" data-name="Path 337">
        <path class="cls-4" d="M33.45,24.71l-.26.43s.02.07.06.12v.02s.74.88.74.88h0s.7.86.7.86c.13.15.13.18.12.2l.25-.43s-.02-.06-.06-.12v-.02s-.74-.88-.74-.88h0s-.7-.86-.7-.86c-.13-.16-.12-.19-.12-.21h0ZM34.82,27.22h0s0,0,0,0h0Z"/>
      </g>
      <path id="Path_338" data-name="Path 338" class="cls-4" d="M34.85,26.76l-.96-.4h0s-1-.42-1-.42h-.02s-.1-.04-.13-.02c0,0,0,0,0,0l-.25.42s.04-.04.22.04l.96.4h0s1,.42,1,.42h.01s.1.04.13.02c0,0,0,0,.01-.01l.25-.42s-.04.04-.22-.04Z"/>
      <path id="Path_339" data-name="Path 339" class="cls-4" d="M35.2,26.15l-.96-.4h0s-1-.42-1-.42h-.02s-.1-.04-.13-.02c0,0,0,0,0,0l-.25.42s.04-.04.22.04l.96.4h0s1,.42,1,.42h.01s.1.04.13.02c0,0,0,0,.01-.01l.25-.42s-.04.04-.22-.04Z"/>
      <path id="Path_340" data-name="Path 340" class="cls-4" d="M35.56,25.55l-.96-.4h0s-1-.42-1-.42h-.02s-.1-.04-.13-.02c0,0,0,0,0,0l-.25.42s.04-.04.22.04l.96.4h0s1,.42,1,.42h.01s.1.04.13.02c0,0,0,0,.01-.01l.25-.42s-.04.04-.22-.04Z"/>
      <path id="Path_341" data-name="Path 341" class="cls-4" d="M42.86,30.55v.23h-.04v-.23h-.09v-.02h.21v.02h-.09Z"/>
      <path id="Path_342" data-name="Path 342" class="cls-4" d="M43.24,30.79v-.23l-.09.23h-.03l-.09-.23v.23h-.03v-.25h.05l.09.22.08-.22h.05v.25h-.03Z"/>
    </g>
  </g>
</svg>