<?xml version="1.0" encoding="UTF-8"?>
<svg id="Layer_1" data-name="Layer 1" xmlns="http://www.w3.org/2000/svg" xmlns:xlink="http://www.w3.org/1999/xlink" viewBox="0 0 61.77 61.3">
  <defs>
    <style>
      .cls-1 {
        fill: #231f20;
      }

      .cls-2 {
        fill: url(#linear-gradient);
      }

      .cls-3 {
        fill: #fff;
      }
    </style>
    <linearGradient id="linear-gradient" x1=".99" y1="30.65" x2="60.24" y2="30.65" gradientUnits="userSpaceOnUse">
      <stop offset="0" stop-color="#231f20"/>
      <stop offset="1" stop-color="#000"/>
    </linearGradient>
  </defs>
  <circle class="cls-3" cx="47.99" cy="13.13" r="10.4"/>
  <path class="cls-3" d="M18.62,61.3c-2.44,0-4.65-1.75-5.26-4.16-.48-1.9.08-4.5,3.1-6.13l.4-.22c5.44-2.93,6.35-3.42,8.84-5.82-4.32,2.82-13.98,7.36-18.1,9.16-.82.36-1.65.54-2.45.54-2.44,0-4.51-1.72-5.04-4.19-.43-2,.25-4.86,3.56-6.35,7.48-3.34,19.19-11.05,23.97-17.85.3-.42.06-1-.45-1.1-1.04-.19-2.38-.36-3.83-.36-.96,0-1.88.07-2.75.22-.36.06-.72.09-1.06.09-3.27,0-5.3-2.54-5.85-5.05-.57-2.58.28-5.83,3.45-7.31,1.19-.55,2.7-.82,4.6-.82,1.14,0,2.28.09,3.29.17l.83.06c2.44.18,4.9.57,7.32,1.17.44.11.86-.22.86-.68.11-6.05,4.48-11.39,10.65-12.5.73-.13,1.48-.2,2.22-.2,5.47,0,10.52,3.59,12.29,8.73,1.93,5.63-.39,11.9-5.24,15.06-.38.25-.45.78-.11,1.09,3.21,3.05,4.5,5.13,7.22,9.8.54.92.77,1.98.65,2.97-.3,2.54-2.62,4.52-5.3,4.52h0c-1.64,0-3.08-.77-4.06-2.16-1.06-1.65-2.24-3.26-3.35-4.59-.34-.4-.96-.3-1.17.18-4.82,11.18-14.6,20.31-27.21,25.28-.67.26-1.36.4-2.04.4Z"/>
  <path class="cls-2" d="M60.75,37.54c.1-.82-.11-1.64-.52-2.35-3.13-5.38-4.28-7.2-8.81-11.19,5.83-2.32,8.89-9.02,6.86-14.95-1.88-5.5-7.66-8.9-13.39-7.88-6.47,1.16-10.78,7.33-9.65,13.79-3.07-.94-6.23-1.54-9.43-1.78-2.52-.18-5.85-.61-8.23.49-5.46,2.54-3.02,11.36,2.88,10.37,4.74-.79,9.28.7,9.28.7-3.89,7.71-17.58,16.67-25.65,20.28-5.94,2.65-2.45,10.6,3.12,8.17,3.82-1.67,14.08-6.46,18.22-9.35.96-.67,2.17.66,1.33,1.48-2.93,2.86-3.72,3.26-9.82,6.54-5.68,3.06-1.49,9.99,3.36,8.08,13.29-5.25,23.29-15.01,27.62-27.21,1.52,1.44,3.54,3.94,5.29,6.69,2.3,3.29,7.14,1.47,7.54-1.9ZM39.94,12.02c-.22-.03-.37-.25-.32-.47.72-3.24,2.28-5.29,4.55-6.95.07-.05.14-.07.22-.08,5.57-.1,11.74,4.46,13.46,7.14.02.03.04.07.05.1.41,1.39-.22,5.13-2.31,7.86-.15.2-.46.2-.61,0-2.91-3.74-7.11-6.39-15.04-7.61Z"/>
  <path class="cls-1" d="M43.05,8.17s-.04-.05-.06-.08c-.09-.17-.02-.39.15-.48l3.28-1.69c.17-.09.39-.02.48.15s.02.39-.15.48l-3.28,1.69c-.14.07-.31.04-.42-.07Z"/>
  <path class="cls-1" d="M41.41,11.3s-.06-.08-.09-.12c-.13-.26-.03-.58.23-.71l7.69-3.97c.26-.13.58-.03.71.23.13.26.03.58-.23.71l-7.69,3.97c-.21.11-.47.06-.62-.1Z"/>
  <g>
    <path class="cls-3" d="M8.99,49.68l-1.52-3.25-.78.37.35,2.98h-.02s-2.07-2.16-2.07-2.16l-.76.36,1.52,3.24.47-.22-1.26-2.69h.02s2.14,2.26,2.14,2.26l.46-.22-.35-3.11h.02s1.25,2.68,1.25,2.68l.52-.24Z"/>
    <path class="cls-3" d="M12.12,48.17l-1.61-3.2-.5.24,1.59,3.21.52-.25Z"/>
    <path class="cls-3" d="M16.81,45.13l-.45-.08c-.01.12-.05.24-.12.36-.07.12-.17.22-.31.3-.15.09-.3.14-.46.13-.15,0-.3-.04-.44-.12-.14-.07-.27-.18-.4-.31-.12-.13-.23-.29-.33-.46-.1-.17-.17-.35-.22-.52-.05-.17-.07-.34-.07-.49,0-.15.04-.29.11-.42.07-.13.17-.24.32-.32.12-.07.24-.11.37-.13.13-.02.26,0,.39.04l.14-.44c-.18-.06-.36-.08-.56-.04-.19.03-.38.11-.57.22-.1.06-.19.13-.27.2-.08.07-.15.15-.21.24-.12.17-.2.37-.23.58-.04.21-.03.43.02.67.05.24.14.47.27.71.13.24.28.44.46.6.17.16.36.29.56.37.2.08.42.11.64.1.22-.02.45-.09.67-.22.22-.13.39-.29.5-.45.11-.17.18-.34.21-.52Z"/>
    <path class="cls-3" d="M21.33,42.56c-.56-.28-1.13-.57-1.69-.86.06-.06.11-.13.16-.22.05-.09.08-.18.09-.29.02-.1.01-.21-.02-.33-.03-.11-.08-.23-.17-.35-.1-.14-.22-.24-.34-.31-.12-.06-.25-.1-.39-.1-.13,0-.27.02-.4.08-.14.05-.27.12-.4.22-.31.21-.6.44-.92.64l2.01,2.97c.16-.1.31-.22.47-.33l-.91-1.32.42-.3c.51.29,1.03.58,1.56.86.17-.12.35-.24.51-.37ZM19.39,41.35c-.04.16-.15.31-.32.43l-.42.3-.71-1.03.41-.29c.07-.05.15-.09.23-.13.08-.03.16-.05.24-.05.08,0,.16.02.24.06.08.04.15.11.23.21.12.16.16.33.12.49Z"/>
    <path class="cls-3" d="M23.93,37.1c-.21-.13-.41-.21-.62-.24-.2-.04-.4-.03-.6.03-.19.06-.38.15-.56.3-.18.15-.31.32-.4.51-.08.19-.12.39-.12.59,0,.21.06.42.15.64.1.22.23.44.41.66.18.22.37.39.57.53.2.13.4.22.61.26.21.04.42.03.63-.02.21-.06.41-.16.6-.32.19-.16.33-.33.41-.53.08-.2.12-.4.11-.62,0-.21-.07-.43-.17-.65-.1-.22-.25-.43-.44-.64-.19-.21-.38-.37-.59-.5ZM24.41,38.47c.09.16.15.32.18.47.03.15.02.3-.01.43-.04.13-.12.25-.24.35-.12.1-.25.16-.4.18-.14.02-.28,0-.43-.05-.15-.05-.29-.13-.43-.24-.14-.11-.28-.25-.41-.4-.13-.16-.24-.31-.32-.48-.09-.16-.14-.32-.17-.47-.03-.15-.02-.29.02-.42.04-.13.12-.25.23-.34.11-.09.24-.15.37-.16.13-.02.27,0,.42.04.14.05.29.12.44.23.15.11.29.24.42.39.13.15.25.31.33.47Z"/>
    <path class="cls-3" d="M29.47,35.27l-2.6-2.47-.09.1,2.5,2.38h0c-.63-.16-1.26-.33-1.89-.5-.63-.18-1.26-.37-1.88-.56l-.16.15,2.52,2.55.1-.1-2.43-2.45h0c.62.19,1.25.38,1.89.56.63.17,1.26.34,1.89.51l.15-.16Z"/>
    <path class="cls-3" d="M32.81,31.53l.09-.11c-1.16-.48-2.3-.96-3.45-1.47l-.15.18c.65,1.06,1.3,2.14,1.93,3.23l.09-.11-.54-.94.52-.59c.17-.2.35-.39.52-.6l.99.41ZM29.42,30.1l.02-.02c.76.34,1.53.68,2.29,1-.32.39-.67.76-1,1.14-.43-.71-.87-1.42-1.31-2.12Z"/>
    <path class="cls-3" d="M34.86,26.87l-1.81-1.38-.08.11,1.76,1.35c.13.1.26.21.37.33.11.12.2.24.25.38.05.14.07.28.05.43-.02.15-.1.32-.23.49-.14.17-.28.29-.42.35-.14.06-.29.07-.43.05-.14-.02-.29-.07-.43-.16-.14-.08-.27-.17-.4-.27l-1.74-1.38-.08.11,1.78,1.42c.15.12.31.22.46.3.16.08.31.12.46.13.15,0,.3-.03.45-.1.15-.07.29-.2.43-.38.14-.18.22-.34.26-.51.04-.16.03-.32-.01-.46-.04-.15-.12-.29-.23-.42-.11-.13-.25-.26-.4-.38Z"/>
    <path class="cls-3" d="M35.68,22.11l-.08-.06-1.11,1.51.08.06.51-.7,2.82,2.04.08-.11-2.82-2.04.51-.7Z"/>
  </g>
</svg>