<?xml version="1.0" encoding="UTF-8"?>
<svg id="Layer_1" data-name="Layer 1" xmlns="http://www.w3.org/2000/svg" xmlns:xlink="http://www.w3.org/1999/xlink" viewBox="0 0 63.37 65.39">
  <defs>
    <style>
      .cls-1 {
        fill: #f05926;
      }

      .cls-2 {
        fill: url(#linear-gradient-2);
      }

      .cls-3 {
        fill: url(#linear-gradient);
      }

      .cls-4 {
        fill: #fff;
      }
    </style>
    <linearGradient id="linear-gradient" x1="41.26" y1="36.32" x2="53.62" y2="19.3" gradientTransform="translate(21.22 81.55) rotate(-28.43) scale(1 -1)" gradientUnits="userSpaceOnUse">
      <stop offset=".1" stop-color="#a73f24"/>
      <stop offset=".34" stop-color="#cc4d27"/>
      <stop offset=".55" stop-color="#e55625"/>
      <stop offset=".68" stop-color="#f05927"/>
    </linearGradient>
    <linearGradient id="linear-gradient-2" x1="3.63" y1="39.26" x2="23.74" y2="39.26" gradientTransform="translate(21.22 81.55) rotate(-28.43) scale(1 -1)" gradientUnits="userSpaceOnUse">
      <stop offset="0" stop-color="#d05527"/>
      <stop offset="1" stop-color="#762815"/>
    </linearGradient>
  </defs>
  <path class="cls-4" d="M43.52,65.39c-.9,0-1.82-.07-2.72-.19-6.38-.89-12.03-4.8-15.1-10.47-.74-1.36-1.32-2.82-1.76-4.46v-.05s-1.79-8.39-1.79-8.39c-.1-.47-.56-.77-1.03-.67l-17.19,3.54c-.47.1-.93-.21-1.03-.68L.02,29.97c-.08-.38.1-.76.44-.94l16.58-8.97c.34-.18.52-.57.44-.94l-2.15-10.51c-.1-.47.21-.93.68-1.03l13.78-2.82c.47-.1.94.21,1.03.68l1.07,5.33c.12.58.76.88,1.27.6L53.95.11c.52-.28,1.15.02,1.27.59l2.92,14.21c.08.38-.1.76-.44.94l-21.74,11.77c-.34.18-.52.57-.44.94l3.49,16.94.02.03.05.28c.37,2.21,2.25,3.82,4.47,3.83.26,0,.53-.02.79-.06.34-.05.68-.15.98-.29l.07-.03.07-.03c.06-.02.18-.08.29-.14.05-.03.09-.06.14-.09.1-.07.2-.13.31-.19,2.83-1.82,3.78-5.56,2.18-8.53-1.13-2.1-3.31-3.4-5.67-3.41-.3,0-.6.02-.89.06l-.72.1c-.46.06-.88-.24-.97-.69l-1.47-7.22c-.09-.46.19-.91.65-1.02l.72-.18c1.49-.37,3.03-.55,4.57-.55,6.9.03,13.23,3.82,16.51,9.88,3.82,7.05,2.74,15.77-2.67,21.7-1.41,1.55-3.07,2.85-4.94,3.86l-.23.13c-2.98,1.61-6.35,2.46-9.74,2.44Z"/>
  <g>
    <path class="cls-1" d="M29.35,6.52l-12.25,2.51,2.37,11.58L1.75,30.2l2.61,12.72,18.89-3.89,2.28,10.8c.39,1.4.9,2.77,1.62,4.11,2.95,5.45,8.2,8.84,13.87,9.63,3.81.53,7.82-.11,11.44-2.07l.23-.13c1.74-.94,3.24-2.13,4.5-3.53,4.8-5.26,6.02-13.19,2.44-19.81-3.81-7.05-11.83-10.36-19.24-8.52l1.18,5.77c3.25-.44,6.57,1.13,8.24,4.2,2.04,3.77.79,8.46-2.78,10.73-.17.09-.33.22-.51.31s-.35.19-.54.25c-.42.19-.9.34-1.39.41-3.4.57-6.59-1.72-7.16-5.12-.02-.03-3.92-19.02-3.92-19.02l22.88-12.39-2.59-12.62-22.88,12.39-1.59-7.92Z"/>
    <path class="cls-1" d="M29.35,6.52l-12.25,2.51,2.37,11.58L1.75,30.2l2.61,12.72,18.89-3.89,2.28,10.8c.39,1.4.9,2.77,1.62,4.11,2.95,5.45,8.2,8.84,13.87,9.63,3.81.53,7.82-.11,11.44-2.07l.23-.13c1.74-.94,3.24-2.13,4.5-3.53,4.8-5.26,6.02-13.19,2.44-19.81-3.81-7.05-11.83-10.36-19.24-8.52l1.18,5.77c3.25-.44,6.57,1.13,8.24,4.2,2.04,3.77.79,8.46-2.78,10.73-.17.09-.33.22-.51.31s-.35.19-.54.25c-.42.19-.9.34-1.39.41-3.4.57-6.59-1.72-7.16-5.12-.02-.03-3.92-19.02-3.92-19.02l22.88-12.39-2.59-12.62-22.88,12.39-1.59-7.92Z"/>
    <path class="cls-3" d="M59.68,38.03c-3.81-7.05-11.83-10.36-19.24-8.52l1.18,5.77c3.25-.44,6.57,1.13,8.24,4.2l9.82-1.46Z"/>
    <polygon class="cls-2" points="22.08 33.26 22.06 33.23 4.37 42.81 4.44 42.92 23.28 39.02 22.08 33.26"/>
    <polygon class="cls-1" points="17.07 9.05 17.1 9.03 17.1 9.03 17.07 9.05"/>
  </g>
</svg>