<?xml version="1.0" encoding="UTF-8"?>
<svg id="Layer_1" data-name="Layer 1" xmlns="http://www.w3.org/2000/svg" viewBox="0 0 39.94 45.69">
  <defs>
    <style>
      .cls-1 {
        fill: #d31c5b;
      }

      .cls-2 {
        fill: #fff;
      }

      .cls-3 {
        opacity: .5;
      }
    </style>
  </defs>
  <path id="Bot_Left_Red" data-name="Bot Left Red" class="cls-2" d="M4.23,45.68c-4.21-.26-3.87-3.7-3.49-7.01.18-1.98.03-4.27,1.68-5.69.19-.21.4-.47.39-.76,0-.39-.4-.67-.69-.9-2.94-2.1-2.75-6.5,0-8.7,1.77-2.25,2.68-5.16,5.99-5.13.5,0,1.01-.18,1.07-.72.3-2.21.59-4.67.84-6.81.2-1.78.89-3.24,2.32-4.22.25-.18.54-.38.67-.64.12-.23.14-.5.13-.8-.04-1.29.52-2.59,1.52-3.42,2.52-2.14,6.6-.18,6.65,3.11.06.59-.24,1.28-.01,1.52.56.33,1.63.32,2.27.44.46.06.58-.24.7-.69,1.03-3.63,6.27-2.96,6.36.81,0,.35,0,.71.2,1,3.81,2.68,2.81,5.43,2.24,9.65-.15.81-.21,1.76.91,1.72,4.81-.58,8.01,5.66,4.39,9.13-1.17,1.23-2.6,1.44-4.09,1.7-1.35.62-2.75,1.44-4.28,1.24-.76-.07-.97.62-.38,1.11.36.3.78.77,1.24.97.28.11.57.04.83-.07.63-.28,1.33-.53,2.02-.61,2.91-.56,5.38,3.09,3.91,5.63-.94,1.61-2.13,3.17-3.14,4.73-.65.97-1.29,2.04-2.39,2.56-3.41,1.63-5.63-2.34-7.86-4.23-.65-.65-1.3-1.26-1.89-1.88-.23-.22-.22-.57-.15-.81.07-.28-.18-.37-.42-.42-.88-.17-2.39-.46-3.37-.57-1.06-.08-1.41,1.25-2.06,1.89-.94,1.16-2.11,2.38-3.55,2.8-1.45.47-3.02.74-4.21,1.6-1.29,1.02-2.46,2.57-4.27,2.46h-.09Z"/>
  <g id="Bot_Left_Red-2" data-name="Bot Left Red">
    <path d="M26.8,31.66l.68-4.66.24.12c.19.09.39.22.61.36.25.16.51.32.79.46.41.21.87.31,1.33.32h0c.45,0,.89-.09,1.3-.28.4-.19.76-.43,1.1-.66.09-.06.17-.11.25-.17.05-.04.11-.07.16-.1.03-.02.06-.04.08-.05l.4-.24c.26.07.54.11.83.11,1.75,0,3.16-1.46,3.08-3.23-.07-1.58-1.35-2.86-2.93-2.93-1.77-.08-3.23,1.33-3.23,3.08,0,.02,0,.04,0,.06l-.05.02-.13.06s0,0,0,0c-.01,0-.03.01-.05.02,0,0-.01,0-.02,0-.02,0-.04.02-.06.03,0,0,0,0-.01,0-.02,0-.04.02-.06.03,0,0,0,0-.01,0-.02.01-.05.02-.07.04,0,0-.01,0-.02.01-.03.01-.05.03-.08.04,0,0,0,0,0,0-.03.01-.05.03-.08.05,0,0-.01,0-.02.01-.03.02-.06.03-.08.05,0,0-.01,0-.02.01-.03.02-.05.03-.08.05,0,0,0,0-.01,0-.03.02-.06.04-.09.06,0,0-.01,0-.02.01-.03.02-.06.04-.09.06l-2.98-1.41c-.22-.35-.52-.65-.89-.85l.61.08c.14.02.29.03.43.03h0c.59,0,1.11-.16,1.55-.45.22-.14.41-.32.57-.52l.2-.28c.21-.34.35-.74.41-1.18l.5-3.79.5-3.79c.04-.27.04-.54.01-.79-.02-.15-.04-.3-.08-.44-.15-.53-.42-.97-.81-1.31-.24-.2-.52-.37-.84-.5-.23-.09-.48-.16-.76-.19l-1.45-.21.2-1.8c.41-.1.73-.46.75-.91.02-.54-.4-.99-.93-1.02-.54-.02-.99.4-1.02.93-.02.38.19.73.51.9l-.2,1.79-9.37-1.33.15-1.5c.87-.14,1.54-.89,1.54-1.8,0-1-.82-1.82-1.82-1.82s-1.82.82-1.82,1.82.45,1.38,1.08,1.66l-.16,1.49-.73-.1c-.12-.01-.24-.02-.36-.02-1.45,0-2.68,1.09-2.86,2.53l-.98,7.87c-.14,1.14.41,2.21,1.31,2.79l-4.24-.53c-.86-.11-1.72.22-2.27.88-.02.02-.04.05-.06.07-.07.09-.13.18-.19.28l-2.04,3.26c-.31.16-.6.37-.84.62-.59.62-.89,1.43-.84,2.28.04.76.36,1.48.9,2.02.54.54,1.26.86,2.02.9.05,0,.11,0,.16,0h0c.84,0,1.66-.35,2.23-.96.59-.62.89-1.43.84-2.28-.02-.49-.17-.96-.41-1.38l1.13-1.95,2.14.31-.87,6.45c-.2,1.46.52,2.71,1.83,3.18.07.03.2.06.39.1l-.15.3c-.32.65-.77,1.16-1.37,1.72v-.79s-5.7-.59-5.7-.59c-.07,0-.13-.01-.2-.01-1.01,0-1.86.79-1.94,1.79l-.48,5.94c-.03.4.1.79.37,1.08.05.06.11.11.17.16l.5.15c.63.19,1.32.01,1.77-.47.02-.02.03-.04.05-.06.51-.59.91-1.33,1.18-2.18l4.3.11h0s0,0,0,0v-.8s.58-.22.58-.22c1.49-.55,2.98-2.13,4.44-4.68l.43-.74c2.11.34,4.4.7,5.48.86,0,0,.01,0,.02,0,.21.03.42.05.63.05,0,0,0,0,0,0,.11,0,.21,0,.32-.01l2.51,1.95-.63.92,4.53,4.46c.66.65,1.74.54,2.26-.22l3.85-5.69s.03-.04.04-.07c.34-.56.25-1.29-.2-1.77-.15-.16-.35-.35-.49-.47-.12-.11-.28-.18-.44-.19h0s-.08,0-.12,0c-.06,0-.11,0-.17,0-.16.02-.3.05-.4.08-.74.2-1.42.51-2.05.93-.29.19-.56.4-.83.64l-2.75-2.4-.39.57h0c-.45-.37-.86-.67-1.38-.91.2-.37.34-.76.42-1.17.01-.06.02-.12.03-.18Z"/>
    <g>
      <path class="cls-1" d="M14.03,19.92l4.53.56s-.4-.21-.55-.46c-.26-.42-.51-.91-.44-1.4l1.09-8.4c.1-.75.6-1.39,1.31-1.66l-4.45-.56c-1.12-.14-2.14.65-2.28,1.77l-.98,7.87c-.14,1.12.65,2.14,1.77,2.28Z"/>
      <path class="cls-1" d="M5.32,35.07c-.61-.06-1.16.39-1.21,1.01l-.48,5.94c-.03.36.27.66.63.62h0c.29-.03.56-.17.75-.39.56-.65.96-1.51,1.18-2.49l4.09.11-.02-4.28-4.94-.51Z"/>
      <path class="cls-1" d="M34.67,35.06c-.14-.11-.31-.14-.48-.1-.95.23-2.13.72-3.28,1.96l-2.62-2.29-2.28,3.33,3.92,3.86c.34.33.9.28,1.16-.12l3.76-5.56c.24-.35.16-.82-.18-1.08Z"/>
      <path class="cls-1" d="M5.22,29.27c1.33.07,2.42-1.02,2.35-2.35-.06-1.14-.98-2.06-2.12-2.12-1.33-.07-2.42,1.02-2.35,2.35.06,1.14.98,2.06,2.12,2.12Z"/>
      <path class="cls-1" d="M11.47,36.43l-.04,2.49c1.61-.6,3.05-2.65,4-4.31l-2.19-.35c-.44.89-1.08,1.53-1.77,2.17Z"/>
      <path class="cls-1" d="M9.67,22.8l3.83.53c.57.08.78-.72.71-1.11-.08-.46-.39-.85-.92-.94l-3.71-.63c.49.69.43,1.26.09,2.15Z"/>
      <path class="cls-1" d="M25.88,33.72c-.53.54-.99.9-1.74,1.25l1.68,1.3,1.38-1.7c-.44-.36-.82-.64-1.32-.86Z"/>
      <path class="cls-1" d="M8.55,22.88c.51-.25.74-.62.7-1.14-.03-.38-.15-.92-.58-1.09-.81-.33-1.55.15-1.97.82l-1.48,2.37c.94.01,1.61.24,2.31.8l1.03-1.77Z"/>
      <circle class="cls-1" cx="17.24" cy="4.11" r=".98"/>
      <path class="cls-1" d="M34.58,21.56c-1.24,0-2.24,1-2.24,2.24s1,2.24,2.24,2.24,2.24-1,2.24-2.24-1-2.24-2.24-2.24ZM34.95,24.9c-.05.08-.14.13-.24.13-.05,0-.11-.01-.15-.05-.13-.08-.17-.26-.08-.39.12-.19.12-.43,0-.62-.08-.13-.21-.22-.36-.26-.15-.03-.3,0-.43.07-.13.08-.31.04-.39-.09-.08-.13-.04-.31.09-.39.26-.16.56-.21.86-.14.3.07.55.25.71.51.23.37.23.85-.01,1.22Z"/>
      <path class="cls-1" d="M25.97,31.54l1.02-7.04c.1-.86-.51-1.65-1.37-1.76l-10.37-1.33c.27.91.25,2.03-.51,2.7-.71.63-1.67.55-2.67.26l-.82,6.05c-.14,1.02.29,1.91,1.28,2.27.69.25,9.68,1.62,9.68,1.62,1.81.28,3.49-.97,3.76-2.78ZM23.68,32.89l-4.95-.62-1.71-.3c-.7-.12-1.08-.96-.98-1.68l.88-6.55c.09-.65.69-1.11,1.35-1.03l6.73.86c.77.1,1.24.74,1.12,1.54l-.89,6.73c-.11.78-.81,1.15-1.55,1.05Z"/>
      <path class="cls-1" d="M24.91,24.22l-6.62-.89c-.35-.05-.66.26-.71.59l-.85,6.55c-.05.35.16.79.54.84l6.6.9c.35-.08.62-.34.66-.64l.95-6.68c.05-.37-.23-.63-.57-.68Z"/>
      <path class="cls-1" d="M30.86,27.41c.74-.18,1.41-.74,2.05-1.13-.59-.5-.95-.88-1.22-1.58-.39.19-.83.47-1.07.73-.11.43-.2,1.33.24,1.97Z"/>
      <path class="cls-1" d="M28.36,24.27l-.25,2.1c.73.37,1.5,1.05,2.3,1.09-.38-.73-.32-1.66-.18-2.17l-1.87-1.02Z"/>
      <path class="cls-1" d="M19.09,10.51l-1.04,7.76c-.14,1.03.59,1.98,1.62,2.12l7.65,1.04c1.18.15,2.06-.51,2.21-1.67l1-7.58c.04-.3.03-.61-.05-.9-.17-.6-.54-1-1.15-1.25-.18-.07-.36-.11-.55-.14l-7.57-1c-1.03-.13-1.98.59-2.11,1.62ZM26.21,16.61l.35-2.41c.08-.54.69-.8,1.14-.73.58.09.91.58.83,1.21l-.33,2.54c-.09.69-.82.9-1.3.74-.58-.2-.77-.72-.68-1.35ZM20.32,15.99l.42-2.65c.08-.53.65-.74,1.11-.66.48.09.9.56.82,1.13l-.36,2.64c-.09.65-.67.88-1.14.8-.59-.1-.94-.62-.84-1.25Z"/>
    </g>
    <g id="Shade" class="cls-3">
      <path class="cls-2" d="M10.27,38.14l-5.34-.32-.67,4.81h0c.29-.03.56-.17.75-.39.56-.65.96-1.51,1.18-2.49l4.09.11v-1.72Z"/>
      <path class="cls-2" d="M8.55,22.88c.51-.25.74-.62.7-1.14-.03-.38-.15-.92-.58-1.09-.81-.33-1.55.15-1.97.82l-1.48,2.37c.94.01,1.61.24,2.31.8l1.03-1.77Z"/>
      <path class="cls-2" d="M16.83,12.7c-.15-.56-.51-1.09-.98-1.19-.52-.11-1.16.13-1.5.63-1.2,1.75-.89,4.68.67,4.9,1.29.18,2.39-2.23,1.81-4.35ZM15.15,16.35c-1.46,0-1.05-4.48.42-4.27,1.41.2.81,4.28-.42,4.27Z"/>
      <path class="cls-2" d="M25.62,22.74l-9.23-1.18-1.72,11.55c2.86.49,7.55,1.21,7.55,1.21,1.81.28,3.49-.97,3.76-2.78l1.02-7.04c.1-.86-.51-1.65-1.37-1.76ZM26.12,25.1l-.89,6.73c-.11.78-.81,1.15-1.55,1.05l-4.95-.62-1.71-.3c-.7-.12-1.08-.96-.98-1.68l.88-6.55c.09-.65.69-1.11,1.35-1.03l6.73.86c.77.1,1.24.74,1.12,1.54Z"/>
      <path class="cls-2" d="M30.47,11.28c-.17-.6-.54-1-1.15-1.25-.18-.07-.36-.11-.55-.14l-7.57-1c-1.03-.13-1.98.59-2.11,1.62l-1.04,7.76c-.14,1.03.59,1.98,1.62,2.12l7.65,1.04c1.18.15,2.06-.51,2.21-1.67l1-7.58c.04-.3.03-.61-.05-.9ZM22.66,13.8l-.36,2.64c-.09.65-.67.88-1.14.8-.59-.1-.94-.62-.84-1.25l.42-2.65c.08-.53.65-.74,1.11-.66.48.09.9.56.82,1.13ZM28.52,14.68l-.33,2.54c-.09.69-.82.9-1.3.74-.58-.2-.77-.72-.68-1.35l.35-2.41c.08-.54.69-.8,1.14-.73.58.09.91.58.83,1.21Z"/>
      <path class="cls-2" d="M30.62,25.44c-.11.43-.2,1.33.24,1.97.74-.18,1.41-.74,2.05-1.13-.59-.5-.95-.88-1.22-1.58-.39.19-.83.47-1.07.73Z"/>
      <path class="cls-2" d="M30.6,39.84l4.1-4.76s-.02-.02-.03-.02c-.2-.15-.45-.12-.69-.05-.91.25-2,.76-3.07,1.91l-2.62-2.29-1.34,1.96,3.66,3.26Z"/>
    </g>
  </g>
</svg>