<?xml version="1.0" encoding="UTF-8"?>
<svg id="Layer_1" data-name="Layer 1" xmlns="http://www.w3.org/2000/svg" viewBox="0 0 42.97 68.84">
  <defs>
    <style>
      .cls-1 {
        fill: #603813;
      }

      .cls-2 {
        fill: #006950;
      }

      .cls-3 {
        fill: #fff;
      }

      .cls-4 {
        fill: #c69c6d;
      }

      .cls-5 {
        opacity: .25;
      }

      .cls-6 {
        fill: #0c0801;
      }

      .cls-7 {
        fill: #8c6239;
      }

      .cls-8 {
        fill: #42210b;
      }
    </style>
  </defs>
  <path class="cls-3" d="M42.51,49.02c-.29-.28-.59-.37-.82-.4.84-1.89,1.03-3.9,1.1-5.79.05-1.26-.08-2.54-.4-3.8-.35-1.39-1.2-1.59-1.68-1.59-.07,0-.15,0-.22.01-.93.12-1.37.78-1.31,2.01.08,1.84-.31,3.65-1.15,5.38-1.04,2.14-2.48,3.68-4.44,4.68-.06-.49-.13-.98-.19-1.48-.13-1.01-.27-2.02-.36-3.03-.06-.61,0-.82.16-1.03,1.11-1.49,1.45-3.31,1.02-5.41-.41-1.98-.93-3.95-1.44-5.86-.24-.91-.49-1.83-.72-2.75-.07-.27-.14-.53-.22-.8-.06-.2-.11-.39-.16-.59.87.32,1.7.48,2.5.48.98,0,1.92-.24,2.78-.73,2.34-1.3,3.58-3.48,3.59-6.31,0-.33-.03-.64-.07-.95.09.01.18.02.27.02.53,0,.98-.24,1.26-.69.45-.68.28-1.49-.41-2.02-.25-.19-.51-.37-.77-.54,0,0-.18-.12-.2-.14.87-.09,1.25-.7,1.33-1.27.07-.59-.12-1.35-1.45-1.64-.41-.09-.81-.21-1.18-.38.11-.17.19-.37.23-.59.09-.54-.13-1.21-1.01-1.49-.39-.12-.79-.24-1.2-.36-.36-.11-.72-.21-1.08-.32.11-.25.15-.58.06-1.03l-.02-.09c-.65-4.59-3.22-7.77-7.63-9.46C26.34.19,23.97.04,21.95,0h-.22C19.06,0,16.29.5,13.26,1.53c-2.91.99-5.05,2.47-6.54,4.54-.72,1-1.2,2-1.44,3.05-.03.11-.08.38-.02.67-.29.26-.58.54-.83.88-.39.53-.97.93-1.81,1.27-1.24.49-1.29,1.27-1.11,1.83.07.21.18.39.32.54-.47.12-.83.37-1.04.73-.15.24-.29.65-.14,1.19.11.39.34.69.66.87-.16.1-.32.21-.51.32-.89.53-.92,1.33-.67,1.86.05.1.11.2.18.29l.64,2.48c-.02.16-.04.32-.04.48,0,.5.15.92.43,1.21.16.16.36.28.58.33.16,1.94,1.17,3.37,2.92,4.14.79.35,1.57.52,2.3.52.46,0,.91-.07,1.34-.2-.88,3.09-1.76,5.67-2.76,8.07-.09.21-.18.41-.27.62-.31.69-.62,1.41-.78,2.22-.3,1.52-.47,3.44.62,5.22.25.41.4.88.41,1.36.02,1.16.51,2.27,1.48,3.41v.25c0,.38,0,.77.05,1.18.02.21.02.42.03.63.01.78.03,1.74.78,2.52.35.36.39.75.44,1.46v.13c.04.34.07.69.12,1.03.1.71.46,1.26,1.02,1.58l.08.62c.08.63.17,1.26.26,1.9.14.99-.32,1.92-1.1,2.53s-1.34,1.51-1.6,2.62c-.03.15-.07.37-.05.62.09,1.27,1.18,2.27,2.49,2.27h2.75c1.11,0,2.2,0,3.21,0,.98,0,1.71-.8,1.74-1.88,0-.13.11-.7.2-1.15.19-1,.42-2.25.49-3.09.12-1.48.9-2.54,2.09-2.83.16-.04.34-.06.51-.06,1.07,0,2.12.74,2.49,1.76.33.92.73,3.93.86,5.01.15,1.44,1,2.33,2.2,2.33h4.98c.86,0,1.63-.07,2.4-.94.74-.83.61-2.09.61-2.12-.15-.99-.58-1.81-1.28-2.43s-1.13-1.49-1.06-2.43c0-.05,0-.1.01-.15.03-.41.06-.83.12-1.24.03-.22.05-.44.06-.66.04-.61.08-.99.33-1.26.52.51,1.12.86,1.67,1.14.29.15.58.23.86.23.58,0,1.07-.32,1.36-.88.1-.2.18-.44.18-.7.47.08.96.12,1.46.12,1.02,0,1.49-.62,1.59-1.21.05-.32.01-.68-.18-1,.44-.09.87-.21,1.28-.33.48-.14.88-.45,1.08-.85.19-.38.21-.81.05-1.23-.11-.28-.28-.5-.49-.66.44-.27.87-.61,1.24-1.05.77-.89.49-1.73.02-2.18Z"/>
  <path class="cls-8" d="M40.99,49.83c-.41.38-.82.76-1.38.96-.09-.31.12-.48.23-.69.33-.6.71-1.18.99-1.81.79-1.75.97-3.62,1.05-5.5.05-1.2-.08-2.38-.37-3.55-.11-.46-.34-.97-.9-.89-.58.08-.54.61-.52,1.07.08,2.05-.35,3.99-1.24,5.82-1.18,2.43-2.94,4.3-5.45,5.39-.42.18-.58.14-.64-.38-.2-1.72-.47-3.43-.63-5.15-.06-.66-.03-1.17.33-1.66,1.06-1.42,1.2-3.02.86-4.68-.59-2.88-1.43-5.71-2.16-8.56-.26-1.02-.65-2.02-.67-3.15.22.11.4.2.58.29,1.78.86,3.64,1.19,5.42.19,2.11-1.17,3.11-3.09,3.11-5.52,0-.9-.26-1.76-.41-2.71.51.23.76.68,1.22.81.33.1.62.06.8-.22.2-.31.07-.59-.2-.79-.27-.21-.56-.4-.85-.59-.75-.51-1.39-1.11-1.87-1.88-.05-.08-.11-.21-.08-.27.07-.14.22-.07.32-.02.5.24,1.02.37,1.57.44.4.05.85.03.91-.46.06-.47-.37-.55-.74-.63-1.24-.27-2.35-.83-3.34-1.69.37.05.74.12,1.11.14.29.02.51-.15.56-.45.05-.28-.17-.4-.38-.47-.89-.28-1.85-.54-2.78-.85.04-.46,0-1-.02-1.15-.61-4.31-3.1-7.75-7.12-9.29-2.04-.78-4.2-.97-6.37-1.01-2.89-.03-5.66.56-8.38,1.48-2.44.83-4.56,2.09-6.09,4.21-.6.82-1.04,2.45-1.28,3.45-.02.07-.02.11-.02.16-.37.29-.71.61-.99.99-.57.77-1.36,1.24-2.21,1.57-.34.13-.71.28-.57.71.14.42.56.36.89.26.41-.12.8-.33,1.21-.5.06.19-.07.29-.15.39-.58.72-1.23,1.34-2.19,1.53-.4.08-.76.32-.62.81.13.48.57.38.92.34.42-.05.76-.31,1.21-.59-.06.57-.35.87-.64,1.16-.52.52-1.12.93-1.75,1.31-.25.15-.46.36-.31.69.15.31.52.45.85.33.28-.1.53-.26.76-.44.18-.14.29-.38.62-.4-.25.67-.5,1.28-.72,1.9-.26.74-.64,1.45-.65,2.26,0,.37.14.75.53.62.52-.17.41.16.46.39.03.14.01.28.02.42.13,1.6.92,2.76,2.38,3.39,1.53.67,3.03.65,4.38-.5.08-.07.15-.2.31-.09.03.46-.21.85-.33,1.27-.84,3.02-1.8,6-3.01,8.9-.37.88-.81,1.72-1,2.66-.37,1.87-.35,3.67.98,5.22.11.13.16.27.12.45-.24,1.37.3,2.49,1.16,3.5.17.2.26.39.26.65,0,.44,0,.89.04,1.33.1.89-.12,1.92.55,2.61.63.65.65,1.38.71,2.16.02.32.06.64.1.96.06.45.27.8.71.98.22.09.27.25.3.47.21,1.54.4,3.09.67,4.62.08.45.06.61-.42.75-1.39.4-2.27,1.33-2.6,2.77-.02.07-.04.21-.03.36.06.81.77,1.41,1.58,1.42,1.97,0,4.11,0,5.95,0,.53,0,.82-.47.83-1,.01-.39.58-2.96.69-4.28.15-1.87,1.22-3.26,2.78-3.64,1.64-.4,3.48.62,4.08,2.28.44,1.22.91,5.22.91,5.22.09.83.49,1.51,1.29,1.51,1.65,0,3.31,0,4.96,0,.78,0,1.22-.05,1.74-.63.44-.49.39-1.35.39-1.38-.2-1.35-1.03-2.17-2.28-2.62-.24-.09-.37-.33-.31-.57.25-1.09.23-2.21.38-3.31.12-.88-.02-1.88.79-2.57.08-.07.1-.22.14-.33.05-.15,0-.37.19-.41.19-.04.26.17.35.3.48.72,1.18,1.16,1.92,1.54.39.2.76.18.98-.25.21-.42-.09-.63-.39-.82-.27-.17-.56-.33-.81-.53-.22-.17-.58-.43-.43-.66.2-.29.5.06.73.18,1.06.51,2.18.74,3.35.75.32,0,.64-.08.7-.45.07-.39-.22-.59-.55-.68-.19-.06-.4-.07-.6-.1-.34-.06-.69-.09-1.01-.2-.27-.09-.72-.17-.62-.52.08-.3.5-.12.76-.09,1.3.17,2.54-.11,3.76-.46.4-.11.69-.44.53-.88-.14-.37-.44-.34-.74-.25-.23.07-.46.14-.69.21-.46.13-.92.24-1.41.23-.24,0-.4-.11-.48-.3-.08-.19.11-.27.22-.39.3-.36.74-.38,1.15-.5,1.08-.32,2.1-.74,2.86-1.62.23-.27.4-.62.08-.92-.32-.31-.6-.11-.89.15Z"/>
  <path class="cls-6" d="M16.64,25.13c-.25-.04-.33.1-.34.31-.01.25.07.45.35.46.22,0,.39-.09.4-.35,0-.28-.18-.38-.41-.42Z"/>
  <path class="cls-3" d="M12.2,8.56c-.02-.18-.06-.37-.29-.37-.22,0-.29.17-.31.36-.02.21.07.35.29.36.23,0,.3-.14.31-.36Z"/>
  <path class="cls-1" d="M11.19,14.88c.15-.02.34-.1.34-.29,0-.17-.15-.28-.29-.36-.41-.23-.85-.22-1.34-.21-.55-.04-1.13.08-1.7.19-.24.05-.42.22-.42.46,0,.26.24.4.46.41.99.07,1.98-.08,2.96-.2Z"/>
  <path class="cls-7" d="M32.08,17.75c-.11.04-.3.04-.27.23.06.41.13.84.44,1.15.13.14.36.02.42-.08.17-.3-.06-.57-.17-.84-.08-.19-.11-.45-.42-.46Z"/>
  <path class="cls-7" d="M31.03,22.66c-.04.46.25.78.47,1.13.03.05.09.09.15.1.18.02.3-.07.35-.28-.24-.35-.47-.72-.74-1.07-.05-.07-.22.03-.23.12Z"/>
  <path class="cls-7" d="M29.85,18.27c-.15,0-.24.07-.24.21,0,.54.08,1.07.26,1.59.06.16.21.24.39.17.2-.07.22-.22.19-.39-.09-.43-.18-.86-.28-1.29-.04-.17-.13-.29-.33-.3Z"/>
  <path class="cls-7" d="M35.84,22.94c.08.01.21-.02.27-.09.14-.15.02-.3-.06-.44-.15-.25-.26-.54-.63-.75-.03.06-.06.13-.09.21-.12.24.25,1.03.51,1.07Z"/>
  <g>
    <path class="cls-4" d="M8,17.35c.02.25.11.45.23.63.82,1.24,2.13,2.09,3.57,2.44,2.07.5,4.19.6,6.3.74.34.02.73.06.74.46.01.41-.29.62-.73.65-.92.07-1.84.25-2.76.01-.16-.04-.45-.15-.46.19,0,.27,0,.63.4.62.4,0,.79.12,1.2.09.38-.03.76.04,1.14.09.22.03.3.19.28.4-.02.2-.16.2-.31.2-.74-.04-1.48-.06-2.21.08-.24.04-.58-.08-.53.36.04.35.14.63.61.51.2-.05.53-.11.5.3-.03.31-.16.49-.52.37-.11-.04-.26-.08-.32.06-.07.16-.03.35.13.42.33.16.48.47.7.73.56.68.85.69,1.48.1,2.5-2.37,4.61-5.06,6.39-8,1.31-2.17,1.68-3.8,2.34-6.26v-.03c.63-2.01.25-4.22-1.11-5.82-.21-.24-.41-.44-.58-.55-2.98-1.89-7.16-1.86-10.48-.62-1.61.6-3.25,1.49-3.95,3.14-.37.87-.48,1.73-.81,2.47.21-.15.41-.29.63-.43.41-.27,1.06-.7,1.06-.7-.16-.17-.25-.62-.25-1.09,0-1.26,1.78-2.12,3-.63l.27-.21c.2-.12.39-.26.58-.01.17.23.07.47-.05.68-.23.4-4.74,2.49-5.79,4.13.25.15.47.05.68.05,1.04-.02,2.07-.02,3.01.51,1.11.62,1.54,2.09.85,3.15-.43.66-1.07,1.08-1.71,1.54.39.38.86.45,1.35.48,2.51.15,4.64-.82,6.59-2.3.37-.28.6-.7.74-1.14.09-.29.24-.45.55-.42.43.04.71.29.82.7.08.31-.06.49-.4.52-.09,0-.18.15-.25.25-.78,1.08-1.84,1.8-3,2.4-.95.49-1.95.77-2.98.97-1.05.21-2.09.11-3.12-.15-.99-.26-1.66-1.19-2.73-1.3-.18-.02-.47-.21-.64-.35-.17-.14-.44-.44-.44-.44ZM22.46,12.71c-1.06,0-2.08-1.02-2.06-2.07.03-1.57.87-2.56,2.17-2.53,1.15.02,2.08,1.1,2.07,2.41,0,1.27-.93,2.2-2.17,2.19ZM17.06,25.55c0,.26-.18.35-.4.35-.29,0-.36-.2-.35-.46.01-.21.09-.35.34-.31.23.04.42.14.41.42Z"/>
    <path class="cls-4" d="M28.85,64.15c1.43-.23,2.66.38,3.16,1.48.37.83.15,1.18-.74,1.16-.44,0-.89.06-.91-.62-.01-.33-.35-.53-.65-.67-.22-.1-.49-.14-.68.06-.18.19-.01.37.07.55.29.62.23.72-.47.72-.3,0-.61,0-.91,0,0,0,0,0,0,.01-.32,0-.64.01-.96,0-.62-.03-.74-.19-.47-.77.51-1.08,1.4-1.73,2.56-1.92Z"/>
    <path class="cls-4" d="M10.89,64.34c1.63-.71,3.87.37,4.37,2.09.09.3.02.41-.3.39-.18-.02-.36,0-.55,0,0,0,0,0,0,0-.7,0-1.41,0-2.11,0-.72,0-.85-.19-.58-.85.05-.13.26-.23.07-.41-.15-.15-.34-.13-.51-.07-.42.15-.67.48-.72.9-.06.58-.39.54-.81.44-.48-.11-.46-.43-.38-.79.19-.84.76-1.38,1.51-1.71Z"/>
    <path class="cls-4" d="M12.26,44.5s.11-.03.17-.04c.14.26-.05.43-.16.6-.51.8-1.02,1.6-1.46,2.44-.32.62-.81,1.1-1.33,1.56-.1.09-.24.18-.37.07-.09-.08-.03-.19.02-.28.86-1.58,1.87-3.06,3.14-4.35Z"/>
    <path class="cls-4" d="M26.25,49.48c-1.04-.08-2.79-1.76-3.13-3,.89,1.13,2.18,1.84,3.13,3Z"/>
  </g>
  <path class="cls-3" d="M22.79,9.62c0-.3-.14-.49-.44-.49-.26,0-.5.14-.5.42,0,.28.17.52.49.51.27,0,.45-.17.45-.45Z"/>
  <g>
    <path class="cls-2" d="M29.02,9.31c1.42.23,2.58,1.02,3.73,1.82.45.31.97.57,1.5.8-.09-.7-.13-1.69-.18-1.92-.72-3.34-2.64-5.69-5.83-6.92-2.73-1.05-5.57-1.35-8.47-1.06-3,.3-5.87,1.09-8.53,2.51-1.72.92-3.04,2.98-3.77,4.84.65-.34,1.04-.83,1.31-1.47.42-1.01,1.23-1.7,2.12-2.28,4.24-2.75,11.09-2.89,14.97.33.85.7,1.99,2.41,2.08,3.32.06,0,.39-.06.45-.05.21.03.42.07.62.1ZM28.06,3.67c-.04.25-.13.53-.45.52-.26,0-.51-.15-.51-.48,0-.31.17-.48.48-.49.3-.01.42.17.47.45ZM29.44,4.47c0,.3-.16.57-.49.57-.25,0-.44-.18-.48-.45.05-.29.18-.51.49-.54.3-.03.48.16.48.42ZM31.81,7.98c-.04-.35.27-.27.43-.34.27-.03.4.09.41.33,0,.27-.16.41-.41.42-.25,0-.41-.17-.44-.41ZM30.8,6.64c.02-.25.16-.41.43-.4.32.01.42.25.51.51-.08.25-.26.47-.5.44-.26-.03-.46-.24-.44-.55ZM29.71,5.52c-.01-.31.19-.52.47-.53.31,0,.45.27.45.54,0,.25-.13.46-.43.51-.28-.07-.49-.22-.5-.52ZM28.86,7.84c-.67-.79-1.45-1.46-2.28-2.06-.2-.14-.32-.31-.24-.52.03-.36.14-.47.48-.32,1.13.51,1.98,1.37,2.8,2.25.25.27.21.53-.06.79-.31.28-.51.09-.7-.14Z"/>
    <path class="cls-2" d="M7.26,44.02c.68-.96,1.5-1.67,2.54-2.09.24-.1.63-.14.41-.56-.17-.33-.14-.88-.81-.75-.32.06-.94.32-.99-.27-.04-.57.56-.5.97-.54.02,0,.05,0,.07,0,.5.08.51-.26.44-.96-.03-.34.02-.68.11-1.01.09-.32,0-1.01.63-.95.5.05.53.41.46.81-.13.76-.11,1.53-.15,2.3-.02.39.03.79.34,1.12.44.46.69,1.07.92,1.66.16.38.39.54.77.55.63,0,1.25.06,1.88.09,2.37.1,4.73.06,7.09-.17.2-.02.39-.03.52-.24.61-.99,1.35-1.91,1.91-2.93.18-.32.23-.7.17-1.07-.13-.78-.24-1.56-.43-2.32-.08-.3,0-.57.32-.71.28-.13.53-.04.7.18.11.14.17.33.2.5.12.82.27,1.64.32,2.46.03.42.21.52.55.55.37.03.72.09,1.06.26.15.07.3.15.29.35-.01.2-.17.26-.32.31-.45.14-.89.23-1.37.1-.49-.13-.66.3-.9.58-.26.3.07.43.2.59.98,1.12,2.09,2.09,3.22,3.05.51.43,1.27.43,1.76-.02,2.01-1.85,2.66-4.09,1.97-6.73-.09-.33-.16-.56-.52-.2-.19.19-.44.22-.66.05-.14-.11-.27-.26-.2-.47.09-.27.32-.35.57-.38.06,0,.12,0,.18,0,.15-.02.39.06.39-.16,0-.32-.14-.64-.34-.89-.15-.19-.27,0-.4.09-.21.14-.45.2-.68.04-.18-.12-.17-.32-.09-.5.12-.27.35-.3.61-.27.11.01.26.13.31-.04.08-.31.03-.63-.16-.87-.21-.26-.31.13-.48.17-.09.02-.18.1-.27.14-.25.1-.45.03-.55-.22-.1-.23-.05-.45.2-.56.14-.07.31-.09.46-.14.18-.05.47.06.52-.2.05-.28-.03-.59-.23-.79-.2-.21-.35.09-.52.15-.21.08-.41.17-.61.26-.2.09-.4.13-.51-.12-.11-.25-.06-.49.22-.61.32-.13.63-.28.96-.37.25-.06.27-.19.25-.39-.04-.53-.2-.61-.72-.35-.21.1-.48.37-.64-.04-.12-.31-.06-.61.34-.71.06-.01.11-.05.17-.05.36-.04.55-.15.38-.58-.17-.43-.39-.38-.69-.19-.3.2-.68.23-.98.46-.2.16-.44.11-.53-.16-.08-.23-.06-.49.23-.52.55-.06.88-.52,1.38-.68.25-.08.21-.31.11-.51-.08-.15-.15-.48-.31-.35-.49.39-1.1.51-1.6.85-.16.11-.27.34-.5.25-.17-.06-.3-.22-.29-.43.01-.27.24-.34.43-.45.14-.08.31.07.42-.11.28-.46.77-.64,1.2-.88.65-.35.75-.86.24-1.38-1.06-1.08-1.81-2.34-2.1-3.83-.13-.64-.17-1.31-.25-1.96-.05,0-.05,0-.1-.01-.19.44-.32.93-.6,1.31-1.07,1.5-1.95,3.13-3.14,4.54-.3.36-.6.71-.93,1.04-.29.3-.69.34-.98.07-.29-.27.03-.5.21-.71.78-.87,1.56-1.73,2.14-2.76.59-1.03,1.51-2.54,2.22-3.49,1.2-1.6-.44-1.79-.44-1.79-.71,1.65-2.18,3.56-4.66,6.45-1.12,1.31-2.4,2.47-3.44,3.84-.22.29-.49.3-.72.07-.66-.66-1.27-1.37-1.97-1.98-1.36-1.17-2.69-2.46-3.38-4.1-.41-.99-1.43-.89-1.12-.24.76,1.59,1.2,3.08,2.57,4.26.2.17.37.38.47.63.11.26.02.47-.17.66-.22.21-.42.08-.58-.07-.3-.27-.59-.56-.89-.83-.13-.12-.32-.3-.38.05-.22,1.43-.81,2.74-1.25,4.1-.68,2.09-1.33,4.2-2.29,6.19-.46.95-.84,1.92-.92,2.99-.09,1.24.03,2.41.74,3.52ZM30.66,40.69c.02-.3.12-.57.47-.59.45-.02.39.37.47.64-.04.27-.12.55-.45.52-.31-.03-.51-.23-.49-.57ZM27.89,32.14c0-.27.21-.36.42-.44.29.02.36.25.39.46.04.28-.17.4-.4.41-.25,0-.41-.18-.41-.43ZM26.94,27.3c.29-.35.71-.44,1.12-.56.2.03.42.05.53.25.13.25-.11.36-.26.48-.3.24-.64.43-1.03.49-.21.03-.35-.02-.46-.21-.1-.18-.01-.31.09-.44ZM18.83,39.03c.26-.23.28-.48.28-.8-.02-1.88-.02-3.76-.02-5.65,0-.83-.15-1.65-.03-2.48.02-.16-.08-.37-.19-.49-.25-.27-.3-.5-.06-.8.29-.36.64-.38,1.04-.23.36.14.59.36.51.78-.24,1.24-.16,2.5-.16,3.75,0,1.76-.02,3.51-.04,5.27,0,.25.1.42.28.57.43.35.43.78.23,1.26-.19.45-.54.63-1.04.61-.45.03-.78-.22-.98-.63-.22-.43-.15-.85.2-1.16ZM13.7,39.2c.26-.31.33-.6.3-.99-.04-.62-.11-5.9-.12-7.91,0-.22-.07-.44-.09-.66-.05-.43.18-.72.55-.83.37-.12.6.15.77.45.13.22.13.47.1.71-.28,2.02-.15,4.04-.13,6.07.01.78,0,1.57-.01,2.35,0,.26.04.44.26.63.48.41.49,1.02.07,1.5-.38.43-1.06.52-1.48.19-.49-.38-.61-1.03-.22-1.5ZM11.12,29.7c-.29-.03-.41-.26-.43-.51-.02-.24.19-.22.35-.22.25.01.43.11.42.4,0,.22-.11.35-.34.32ZM10.81,31.03c-.2,0-.43-.09-.44-.32-.02-.23.09-.45.37-.45.22,0,.44.07.49.33,0,.3-.17.44-.42.44ZM10.59,32.83c-.29,0-.51-.16-.54-.46-.03-.31.17-.47.45-.53.28.05.55.14.55.46,0,.26-.13.53-.46.53ZM9.62,34.02c.03-.31.2-.53.59-.52.27.02.39.2.38.48,0,.3-.13.52-.47.51-.3,0-.53-.14-.5-.47ZM9,35.61c0-.29.17-.5.49-.52.35-.01.45.25.48.52.03.27-.16.39-.42.44-.23-.09-.55-.1-.55-.44Z"/>
    <path class="cls-2" d="M9.28,50.63c0,.49-.01.97.03,1.46.05.61.35,1.06.96,1.27.71.25,1.45.36,2.19.42,2.54.21,5.09.19,7.63.18,2.49,0,4.97.02,7.46-.16,1.18-.09,2.38-.11,3.5-.59.25-.11.48-.22.61-.47.09-.18.19-.4.06-.58-.15-.21-.37-.07-.55,0-.15.06-.3.13-.45.17-.24.06-.46.05-.5-.26-.04-.25.02-.45.31-.5.26-.04.52-.06.78-.12.25-.06.65.02.54-.44-.08-.34-.1-.75-.69-.58-.23.07-.42.17-.62.29-.19.11-.38.14-.55-.03-.17-.16-.17-.36-.12-.56.06-.22.24-.26.43-.24.35.02.68,0,1.01-.15.22-.09.37-.17.3-.49-.14-.6-.23-.67-.8-.39-.2.1-.38.13-.55-.05-.12-.13-.21-.27-.14-.44.08-.2.28-.21.46-.22.16,0,.32,0,.48.03.2.03.33-.03.31-.25-.07-.7-.09-1.41-.3-2.1-.04-.13-.1-.27-.23-.14-.42.43-1.03.61-1.27,1.31-.35.97-.84,1.93-1.88,2.42-.25.12-.19.28-.15.5.1.53-.16.87-.55.73-.82-.28-1.67-.47-2.38-1.03-1.36-1.08-2.02-2.53-2.38-4.18-.23-1.06-.24-1.02-1.32-1.06-2.36-.09-4.73.04-7.09.01-.84,0-.83.01-.9.82-.02.26-.07.54-.19.76-.34.62-.65,1.28-1.1,1.81-.7.84-1.06,1.99-2.17,2.47-.17.07-.16.22-.16.36ZM14.51,47.01c-.03-.3.22-.42.46-.47.41-.1.83-.08,1.26.04-.18.63-.56.9-1.18.83-.25-.03-.51-.1-.54-.39ZM9.97,51.75c.08-.28.31-.21.5-.13.31.14.61.32.92.45.28.11.38.3.29.57-.09.25-.23.48-.69.45-.29-.14-.71-.28-1.07-.53-.35-.24-.03-.55.05-.81Z"/>
    <path class="cls-2" d="M25.41,54.87c.24.04.21.21.22.36.03.46.02.93.07,1.39.06.58-.28.59-.7.62-.52.03-.47-.3-.47-.63,0-.18,0-.36,0-.55h0c0-.16,0-.32,0-.49,0-.61.27-.82.89-.7Z"/>
    <path class="cls-2" d="M22.89,54.97c.74-.09.74-.11.74.63,0,.18,0,.36,0,.55,0,0,0,0,0,0,0,.18,0,.36,0,.55-.01.3.12.66-.44.65-.49,0-.69-.15-.64-.66.04-.42,0-.85-.01-1.27,0-.25.03-.39.34-.43Z"/>
    <path class="cls-2" d="M17.22,54.91c.31-.11.37.11.36.37,0,.26,0,.52,0,.78h.02c0,.18,0,.36,0,.54,0,.67-.17.82-.82.69-.19-.04-.28-.12-.28-.32,0-.56.02-1.12,0-1.68-.03-.65.47-.3.72-.39Z"/>
    <path class="cls-2" d="M18.97,54.97c.51-.03.71.11.65.61-.02.22,0,.44,0,.67h.02c0,.14-.02.29,0,.42.12.55-.09.71-.63.67-.35-.03-.52-.11-.5-.49.02-.46.02-.93,0-1.39-.02-.35.07-.47.47-.49Z"/>
    <path class="cls-2" d="M20.52,55.55c-.01-.43.15-.58.61-.58.49,0,.45.29.45.6,0,.22,0,.44,0,.67,0,0,.02,0,.03,0,0,.16.04.32.03.48-.02.3.1.66-.46.63-.47-.02-.73-.11-.67-.65.04-.38.02-.77.01-1.15Z"/>
    <path class="cls-2" d="M30.47,55.43s0,0-.01,0c0-.2.02-.41,0-.61-.08-.55.4-.53.67-.55.33-.02.16.34.16.52,0,.36-.05.73-.11,1.09-.03.22-.1.44-.29.58-.11.08-.25.18-.39.09-.13-.07-.07-.22-.06-.33.01-.26.03-.53.04-.79Z"/>
    <path class="cls-2" d="M27.18,54.76c.35,0,.47.12.46.45-.01.46,0,.93,0,1.39.02.5-.25.59-.68.6-.47,0-.38-.32-.39-.58-.01-.22,0-.44,0-.66,0,0,.01,0,.02,0,0-.18,0-.36-.03-.54-.09-.52.15-.65.63-.65Z"/>
    <path class="cls-2" d="M28.55,55.26c-.09-.48.09-.58.52-.63.52-.06.43.28.45.56.01.18,0,.36,0,.55h-.02c0,.2-.03.41,0,.61.09.57-.33.56-.68.58-.44.02-.29-.34-.29-.57-.01-.36.07-.74,0-1.09Z"/>
    <path class="cls-2" d="M10.34,42.86c.34-.26.46,0,.6.21.18.28.48.49.58.83-.08.26-.23.51-.46.61-.24.1-.3-.19-.42-.34-.15-.19-.25-.42-.41-.59-.28-.31-.18-.5.12-.72Z"/>
    <path class="cls-2" d="M9.59,46.1c-.36-.54-.65-1.1-1.09-1.55-.32-.33.14-.4.25-.59.27-.47.51-.38.75.04.1.18.23.33.34.5q.57.86-.24,1.6Z"/>
    <path class="cls-2" d="M8.85,46.49c.39.41-.11.55-.27.75-.24.28-.33-.04-.41-.19-.31-.57-.78-1.12-.22-1.9.24.56.55.97.91,1.35Z"/>
    <path class="cls-2" d="M12.89,54.81c.25.14.72-.16.77.36.03.28,0,.57,0,.85h.01c0,.18.03.37,0,.54-.04.19.17.54-.26.53-.35,0-.74,0-.78-.48-.05-.52-.03-1.05-.03-1.57,0-.22.13-.32.31-.23Z"/>
    <path class="cls-2" d="M14.97,54.9c.48-.02.73.07.64.61-.03.18,0,.36,0,.55,0,.18.03.36.03.55,0,.28.14.63-.38.63-.45,0-.74-.07-.68-.62.04-.42,0-.85,0-1.27,0-.27.06-.42.41-.44Z"/>
    <path class="cls-2" d="M11.35,54.76c.3.05.38.16.35.43-.02.2-.02.4-.03.57,0,.14.03.24.01.34-.04.23.27.61-.19.67-.5.07-.9-.28-.92-.71,0-.18-.01-.36-.03-.54-.08-.91-.08-.9.81-.76Z"/>
    <path class="cls-2" d="M23.17,44.51c-.15-.08-.11-.25-.14-.43.08-.52.59-.78.88-1.2.32-.47.49-.2.68.1.1.16.09.28-.06.42-.34.31-.66.65-.99.97-.09.09-.2.23-.36.15Z"/>
    <path class="cls-2" d="M28.08,46.05c.22.14.44.28.51.51-.24.76-.62,1.4-1.18,1.86-.29.24-.58-.17-.82-.35-.22-.16.04-.3.11-.45.29-.58.85-.96,1.13-1.55.06-.13.17-.07.26-.02Z"/>
    <path class="cls-2" d="M25.53,43.83c.22.18.43.36.58.65-.83.04-1.09.75-1.53,1.25-.18.2-.3.33-.52.13-.18-.16-.39-.34-.17-.61.42-.49.85-.97,1.27-1.46.14-.16.26-.05.36.04Z"/>
    <path class="cls-2" d="M26.52,44.83c.3.14.54.37.71.65.18.31-.19.34-.32.48-.31.35-.67.66-.86,1.09-.19.42-.4.37-.67.09-.16-.16-.33-.3-.51-.46.5-.59,1.08-1.05,1.45-1.69.05-.09.08-.22.21-.16Z"/>
  </g>
  <g class="cls-5">
    <path class="cls-6" d="M25.41,54.87c.24.04.21.21.22.36.03.46.02.93.07,1.39.06.58-.28.59-.7.62-.52.03-.47-.3-.47-.63,0-.18,0-.36,0-.55h0c0-.16,0-.32,0-.49,0-.61.27-.82.89-.7Z"/>
    <path class="cls-6" d="M22.89,54.97c.74-.09.74-.11.74.63,0,.18,0,.36,0,.55,0,0,0,0,0,0,0,.18,0,.36,0,.55-.01.3.12.66-.44.65-.49,0-.69-.15-.64-.66.04-.42,0-.85-.01-1.27,0-.25.03-.39.34-.43Z"/>
    <path class="cls-6" d="M17.22,54.91c.31-.11.37.11.36.37,0,.26,0,.52,0,.78h.02c0,.18,0,.36,0,.54,0,.67-.17.82-.82.69-.19-.04-.28-.12-.28-.32,0-.56.02-1.12,0-1.68-.03-.65.47-.3.72-.39Z"/>
    <path class="cls-6" d="M18.97,54.97c.51-.03.71.11.65.61-.02.22,0,.44,0,.67h.02c0,.14-.02.29,0,.42.12.55-.09.71-.63.67-.35-.03-.52-.11-.5-.49.02-.46.02-.93,0-1.39-.02-.35.07-.47.47-.49Z"/>
    <path class="cls-6" d="M20.52,55.55c-.01-.43.15-.58.61-.58.49,0,.45.29.45.6,0,.22,0,.44,0,.67,0,0,.02,0,.03,0,0,.16.04.32.03.48-.02.3.1.66-.46.63-.47-.02-.73-.11-.67-.65.04-.38.02-.77.01-1.15Z"/>
    <path class="cls-6" d="M30.47,55.43s0,0-.01,0c0-.2.02-.41,0-.61-.08-.55.4-.53.67-.55.33-.02.16.34.16.52,0,.36-.05.73-.11,1.09-.03.22-.1.44-.29.58-.11.08-.25.18-.39.09-.13-.07-.07-.22-.06-.33.01-.26.03-.53.04-.79Z"/>
    <path class="cls-6" d="M27.18,54.76c.35,0,.47.12.46.45-.01.46,0,.93,0,1.39.02.5-.25.59-.68.6-.47,0-.38-.32-.39-.58-.01-.22,0-.44,0-.66,0,0,.01,0,.02,0,0-.18,0-.36-.03-.54-.09-.52.15-.65.63-.65Z"/>
    <path class="cls-6" d="M28.55,55.26c-.09-.48.09-.58.52-.63.52-.06.43.28.45.56.01.18,0,.36,0,.55h-.02c0,.2-.03.41,0,.61.09.57-.33.56-.68.58-.44.02-.29-.34-.29-.57-.01-.36.07-.74,0-1.09Z"/>
    <path class="cls-6" d="M11.05,44.51c-.24.1-.3-.19-.42-.34-.15-.19-.25-.42-.41-.59-.28-.31-.18-.5.12-.72.34-.26.46,0,.6.21.18.28.48.49.58.83-.08.26-.23.51-.46.61Z"/>
    <path class="cls-6" d="M8.75,43.96c.27-.47.51-.38.75.04.1.18.23.33.34.5q.57.86-.24,1.6c-.36-.54-.65-1.1-1.09-1.55-.32-.33.14-.4.25-.59Z"/>
    <path class="cls-6" d="M7.95,45.14c.24.56.55.97.91,1.35.39.41-.11.55-.27.75-.24.28-.33-.04-.41-.19-.31-.57-.78-1.12-.22-1.9Z"/>
    <path class="cls-6" d="M12.89,54.81c.25.14.72-.16.77.36.03.28,0,.57,0,.85h.01c0,.18.03.37,0,.54-.04.19.17.54-.26.53-.35,0-.74,0-.78-.48-.05-.52-.03-1.05-.03-1.57,0-.22.13-.32.31-.23Z"/>
    <path class="cls-6" d="M14.97,54.9c.48-.02.73.07.64.61-.03.18,0,.36,0,.55,0,.18.03.36.03.55,0,.28.14.63-.38.63-.45,0-.74-.07-.68-.62.04-.42,0-.85,0-1.27,0-.27.06-.42.41-.44Z"/>
    <path class="cls-6" d="M11.35,54.76c.3.05.38.16.35.43-.02.2-.02.4-.03.57,0,.14.03.24.01.34-.04.23.27.61-.19.67-.5.07-.9-.28-.92-.71,0-.18-.01-.36-.03-.54-.08-.91-.08-.9.81-.76Z"/>
    <path class="cls-6" d="M23.53,44.36c-.09.09-.2.23-.36.15-.15-.08-.11-.25-.14-.43.08-.52.59-.78.88-1.2.32-.47.49-.2.68.1.1.16.09.28-.06.42-.34.31-.66.65-.99.97Z"/>
    <path class="cls-6" d="M27.82,46.07c.06-.13.17-.07.26-.02.22.14.44.28.51.51-.24.76-.62,1.4-1.18,1.86-.29.24-.58-.17-.82-.35-.22-.16.04-.3.11-.45.29-.58.85-.96,1.13-1.55Z"/>
    <path class="cls-6" d="M25.17,43.79c.14-.16.26-.05.36.04.22.18.43.36.58.65-.83.04-1.09.75-1.53,1.25-.18.2-.3.33-.52.13-.18-.16-.39-.34-.17-.61.42-.49.85-.97,1.27-1.46Z"/>
    <path class="cls-6" d="M24.86,46.67c.5-.59,1.08-1.05,1.45-1.69.05-.09.08-.22.21-.16.3.14.54.37.71.65.18.31-.19.34-.32.48-.31.35-.67.66-.86,1.09-.19.42-.4.37-.67.09-.16-.16-.33-.3-.51-.46Z"/>
  </g>
</svg>