<?xml version="1.0" encoding="UTF-8"?>
<svg id="Layer_1" data-name="Layer 1" xmlns="http://www.w3.org/2000/svg" viewBox="0 0 76.58 65.63">
  <defs>
    <style>
      .cls-1 {
        fill: #231f20;
      }

      .cls-2 {
        opacity: .25;
      }

      .cls-2, .cls-3 {
        fill: #0093c8;
      }

      .cls-4, .cls-5, .cls-6 {
        fill: #c5b0c1;
      }

      .cls-5 {
        opacity: .7;
      }

      .cls-6 {
        opacity: .8;
      }

      .cls-7 {
        fill: #fff;
      }

      .cls-8 {
        opacity: .31;
      }

      .cls-9 {
        fill: #f16822;
      }

      .cls-10 {
        fill: #a34524;
      }

      .cls-11 {
        fill: #495158;
      }
    </style>
  </defs>
  <path class="cls-7" d="M73.44,5.75C69.71,1.04,62.3-.02,53.38,2.07c-.53-1.22-1.74-2.07-3.15-2.07-1.9,0-3.43,1.54-3.43,3.43,0,.21.02.42.06.63-.42.16-.83.32-1.25.48-.17-.19-.42-.31-.7-.31-.52,0-.94.42-.94.94,0,.02,0,.03,0,.04-2.49,1.07-5.03,2.33-7.59,3.79-2.98.02-6.08.05-9.01.08.05-.3.09-.6.09-.91,0-2.84-2.3-5.14-5.14-5.14s-5.14,2.3-5.14,5.14c0,.38.04.74.12,1.09-.33,0-.67.02-1,.03l-1.83.05c-1.22.03-2.48.07-3.72.14-.43.02-.87.11-1.28.27-1.79.66-3.08,2.34-3.2,4.2,0,0-.1,1.55-.13,2.05l-.02.37c-.04.65-.07,1.31-.1,1.96l-.02.51c-.01.3-.02.69-.04,1.14v.25c-.08,2.87-.15,7.84-.15,7.9v.61c.04,2.38.11,6.81.19,8.85,0,.03,0,.06,0,.09-1.62,2.72-2.89,5.39-3.79,7.93-.23-.18-.52-.29-.84-.29-.75,0-1.37.61-1.37,1.37s.61,1.37,1.37,1.37c.03,0,.06,0,.09,0-1.42,5.39-.97,10.11,1.68,13.45,5.27,6.65,19.97,4.79,35.01-2.41.15.4.53.68.98.68.58,0,1.05-.47,1.05-1.05,0-.2-.06-.39-.16-.55,5.42-2.75,10.83-6.17,15.82-10.13.35-.28.69-.56,1.03-.83.66-.02,1.31-.04,1.96-.05l2.02-.06c1.21-.03,2.46-.07,3.7-.14,2.32-.13,4.33-2.14,4.48-4.47l.04-.62c.06-.98.13-1.99.18-3,1.5-1,2.48-2.7,2.48-4.64,0-.93-.23-1.81-.64-2.59,6.47-10.23,7.19-19.84,2.37-25.91Z"/>
  <path class="cls-2" d="M68.52,28.15s-.03-2.31-.08-4.7c-.03-1.79-.07-3.62-.11-4.56-.03-.79-.07-1.57-.12-2.36,0-.08,0-.16-.01-.25-.05-.76-.1-1.52-.14-2.27-.12-1.84-1.72-3.46-3.57-3.57-1.35-.08-2.69-.11-4.04-.15-2.64-.07-5.28-.16-7.92-.2-4.72-.07-10.16-.12-14.88-.15-4.72.03-10.16.08-14.88.15-.02,0-.04,0-.07,0-.26,0-.52,0-.79.01-2.36.04-4.71.12-7.07.18-1.35.04-2.7.07-4.04.15-.35.02-.69.09-1.01.21-1.39.51-2.47,1.86-2.57,3.36-.04.68-.09,1.37-.13,2.05,0,.09-.01.17-.02.26,0,.04,0,.08,0,.12-.04.65-.07,1.3-.1,1.95,0,.04,0,.08,0,.12,0,.13-.01.26-.02.39-.01.3-.02.69-.04,1.13,0,.08,0,.16,0,.25-.07,2.9-.15,7.88-.15,7.88,0,0,0,0,0,0,0,0,0,0,0,0,.03,2.21.1,7.19.19,9.4.06,1.63.17,3.25.28,4.88.12,1.84,1.72,3.46,3.57,3.57,1.35.08,2.69.11,4.04.15,2.64.07,5.28.16,7.92.2,4.72.07,10.16.12,14.88.15,4.72-.03,10.16-.08,14.88-.15,2.64-.04,5.28-.12,7.92-.2,1.35-.04,2.7-.07,4.04-.15,1.85-.11,3.46-1.72,3.57-3.57.1-1.63.21-3.25.28-4.88.09-2.21.16-7.19.19-9.4,0,0,0,0,0,0,0,0,0,0,0,0Z"/>
  <circle class="cls-3" cx="1.37" cy="46.71" r=".91"/>
  <circle class="cls-3" cx="44.91" cy="5.17" r=".59"/>
  <circle class="cls-3" cx="22.32" cy="8.18" r="4.38"/>
  <circle class="cls-9" cx="50.23" cy="3.43" r="2.79"/>
  <path class="cls-8" d="M37.64,46.5c-4.72-.03-10.16-.08-14.88-.15-2.64-.04-5.28-.12-7.92-.2-1.35-.04-2.7-.07-4.04-.15-1.85-.11-3.46-1.72-3.57-3.57-.1-1.63-.21-3.25-.28-4.88-.09-2.21-.16-7.19-.19-9.4,0,0,.1-7.05.19-9.26.06-1.63.17-3.25.28-4.88.12-1.84,1.72-3.46,3.57-3.57,1.35-.08,2.69-.11,4.04-.15,2.64-.07,5.28-.16,7.92-.2,4.72-.07,10.16-.12,14.88-.15,4.72.03,10.16.08,14.88.15,2.64.04,5.28.12,7.92.2,1.35.04,2.7.07,4.04.15,1.85.11,3.46,1.72,3.57,3.57.1,1.63.21,3.25.28,4.88.09,2.21.19,9.26.19,9.26-.03,2.21-.1,7.19-.19,9.4-.06,1.63-.17,3.25-.28,4.88-.12,1.84-1.72,3.46-3.57,3.57-1.35.08-2.69.11-4.04.15-2.64.07-5.28.16-7.92.2-4.72.07-10.16.12-14.88.15Z"/>
  <path class="cls-10" d="M63.78,49.68c.07-.08.14-.16.21-.23,0,0,0,0,0,0-.07.08-.14.16-.21.23,0,0,0,0,0,0Z"/>
  <path class="cls-1" d="M43.49,25.37c-1.52-.17-3.03-.07-4.55.08-2.54.24-4.97.34-7.44-.38-4.44-1.3-8.19-4.18-12.52-5.74-3.7-1.33-8.25-1.34-11.89-3-.04.73-.08,1.46-.11,2.19,3.3,1.09,6.56,2.32,9.77,3.68.02,0,.04.02.06.03,4.4,1.91,9.53,4.04,14.93,5.31,4.19.98,9.36,1.5,13.6,2.24,1.52.11,3.03.31,4.52.6.17,0,.35,0,.54.03,5.78,1,11.04,3.59,16.05,6.55.62.31,1.25.62,1.88.93,0-.11.01-.22.02-.33.06-1.45.11-4.12.14-6.39-7.06-.75-14-3.16-20.84-4.96-1.36-.36-2.75-.67-4.15-.83Z"/>
  <path class="cls-1" d="M68.44,23.46c-6.75-2.57-14.69-1.93-21.71-2.53-2.41-.2-4.8-.55-7.15-1.15-2.39-.61-4.73-1.41-7.11-2.06-4.68-1.27-9.54-1.58-14.16-3.1-2.99-.98-5.85-2.31-8.52-3.97-1.39.51-2.47,1.86-2.57,3.36-.04.68-.09,1.37-.13,2.05,3.31,1.53,7.4,1.65,10.82,2.66,4.37,1.29,8.08,4.09,12.33,5.67,2.49.92,4.95,1.15,7.58.92,1.38-.12,2.77-.3,4.16-.28,1.31.02,2.62.22,3.9.49,2.64.57,5.22,1.39,7.81,2.13,2.47.71,4.95,1.4,7.45,1.98,2.41.56,4.86,1.02,7.33,1.27.02-1.08.03-2.06.04-2.76,0,0-.03-2.31-.08-4.7Z"/>
  <path class="cls-1" d="M7.29,42.88c.33,1.65,1.81,3.02,3.51,3.11,1.35.08,2.69.11,4.04.15.69.02,1.39.04,2.08.06-.64-.13-1.27-.28-1.9-.46-2.64-.76-5.14-1.98-7.73-2.86Z"/>
  <path class="cls-1" d="M7.63,37.34c-.23-.12-.46-.24-.7-.35,0,.2.01.39.02.56.06,1.63.17,3.25.28,4.88,0,.06.01.12.02.19,2.24.75,4.41,1.76,6.65,2.52,1.55.53,3.14.87,4.75,1.11,1.37.04,2.75.07,4.12.09,3.05.04,6.4.08,9.67.11-3.61-1-7.31-1.68-10.86-2.9-4.82-1.65-9.43-3.87-13.94-6.21Z"/>
  <path class="cls-11" d="M32.47,17.73c2.38.64,4.72,1.45,7.11,2.06,2.35.59,4.74.94,7.15,1.15,7.02.59,14.96-.04,21.71,2.53-.03-1.79-.07-3.62-.11-4.56-.03-.79-.07-1.57-.12-2.36-2.71-.56-5.55-.63-8.28-.75-2.41-.11-4.84-.28-7.19-.88-2.23-.57-4.35-1.47-6.5-2.25-2.38-.86-4.78-1.5-7.32-1.57-2.49-.07-4.97.23-7.45.28-3.25.06-6.45-.38-9.55-1.24-2.36.04-4.71.12-7.07.18-1.35.04-2.7.07-4.04.15-.35.02-.69.09-1.01.21,2.66,1.66,5.52,2.98,8.52,3.97,4.62,1.52,9.48,1.83,14.16,3.1Z"/>
  <path class="cls-11" d="M37.71,10.84c2.43-.03,4.76.32,7.08,1.06,2.27.73,4.46,1.7,6.74,2.41,2.45.76,4.98,1.05,7.53,1.19,3.02.16,6.16.19,9.14.79-.05-.76-.1-1.52-.14-2.27-.12-1.84-1.72-3.46-3.57-3.57-1.35-.08-2.69-.11-4.04-.15-2.64-.07-5.28-.16-7.92-.2-4.72-.07-10.16-.12-14.88-.15-4.72.03-10.16.08-14.88.15-.02,0-.04,0-.07,0,2.41.61,4.89.96,7.37,1.01,2.55.06,5.09-.25,7.64-.28Z"/>
  <path class="cls-11" d="M22.89,40.22c2.31.57,4.66.92,6.98,1.46,2.25.52,4.42,1.29,6.55,2.19,2.05.86,4.08,1.8,6.16,2.58,3.35-.03,6.8-.07,9.94-.11,2.64-.04,5.28-.12,7.92-.2,1.35-.04,2.7-.07,4.04-.15,1.85-.11,3.46-1.72,3.57-3.57.08-1.29.17-2.59.23-3.88-1.99-.82-3.92-1.79-5.84-2.73-2.14-1.05-4.29-2.08-6.55-2.84-2.54-.85-5.18-1.34-7.83-1.68-5.22-.67-10.52-.79-15.67-1.94-5.02-1.12-9.82-3.02-14.58-4.94-2.72-1.1-5.43-2.21-8.19-3.2-.9-.32-1.81-.64-2.72-.93-.07,2.9-.15,7.88-.15,7.88.01.86.03,2.14.05,3.52,1.41.88,2.78,1.81,4.16,2.73,3.73,2.5,7.51,4.74,11.91,5.81ZM38.83,35.12c1.05-1.07,2.83-1.25,4.24-1.41,3.2-.37,6.45.11,9.48,1.12,2.92.98,5.85,2.45,8.3,4.34,1.36,1.05,1.39,2.94-.23,3.75-1.28.64-2.98.8-4.39.96-3.08.35-6.26.04-9.27-.72-2.93-.74-6.91-3.31-7.84-4.14-1.16-1.03-1.44-2.73-.3-3.89Z"/>
  <path class="cls-11" d="M50.38,30.4c-.19-.03-.37-.04-.54-.03-1.49-.28-3-.48-4.52-.6-4.24-.74-9.41-1.25-13.6-2.24-5.4-1.27-10.53-3.4-14.93-5.31-.02,0-.04-.02-.06-.03-3.2-1.37-6.46-2.59-9.77-3.68,0,.13-.01.26-.02.39-.01.3-.02.69-.04,1.13.39.13.79.26,1.18.39,2.48.84,4.93,1.8,7.36,2.78,4.94,1.99,9.85,4.07,15.01,5.44,5.12,1.36,10.37,1.64,15.61,2.19,2.61.27,5.21.64,7.75,1.29,2.32.6,4.54,1.5,6.71,2.51,2.57,1.21,5.12,2.57,7.76,3.67,0-.14.01-.28.02-.42-.63-.31-1.26-.62-1.88-.93-5.01-2.96-10.27-5.55-16.05-6.55Z"/>
  <path class="cls-11" d="M31.45,42.33c-2.29-.64-4.64-1.02-6.97-1.5-2.19-.46-4.34-1.06-6.39-1.98-1.9-.86-3.69-1.93-5.44-3.06-1.95-1.26-3.85-2.6-5.82-3.83.03,1.8.07,3.71.11,5.03.23.12.47.24.7.35,4.52,2.34,9.12,4.56,13.94,6.21,3.55,1.22,7.26,1.9,10.86,2.9,1.78.02,3.54.03,5.21.04,1.38,0,2.82-.02,4.29-.03-1.17-.45-2.32-.95-3.47-1.44-2.3-1-4.6-2-7.02-2.68Z"/>
  <path class="cls-1" d="M39.13,39.02c.93.83,4.91,3.41,7.84,4.14,3.01.76,6.18,1.06,9.27.72,1.41-.16,3.11-.32,4.39-.96,1.62-.81,1.58-2.7.23-3.75-2.45-1.89-5.38-3.36-8.3-4.34-3.04-1.01-6.29-1.49-9.48-1.12-1.41.16-3.19.34-4.24,1.41-1.14,1.16-.86,2.86.3,3.89ZM38.71,37.92c2.98-2.85,7.74-2.08,11.4-1.36,2,.39,3.99.94,5.89,1.67.96.37,1.9.8,2.78,1.33.51.31,1.3.73,1.21,1.44-.08.64-.81.96-1.36,1.09-.93.23-1.91.18-2.86.12-2-.14-3.98-.46-5.92-.95-1.94-.49-3.86-1.14-5.68-1.98-.45-.21-1.63-.67-1.68-1.27-.05-.64,1.12-.48,1.46-.48,2.19,0,4.37.4,6.46,1.04,1.98.61,4.03,1.35,5.59,2.76.11.1-.04.29-.15.18-1.22-1.1-2.72-1.76-4.25-2.3-1.6-.57-3.24-1.01-4.92-1.25-.86-.12-1.74-.19-2.61-.2-.31,0-1.42-.17-1.14.5.13.31.87.57,1.16.71,1.53.74,3.17,1.31,4.8,1.78,1.59.45,3.22.79,4.86,1.01.88.12,1.78.21,2.67.25.86.04,1.83.06,2.62-.3.2-.09.44-.23.56-.42.34-.5-.01-.86-.37-1.14-.36-.29-.8-.51-1.2-.73-.73-.39-1.48-.72-2.25-1.01-1.66-.63-3.37-1.11-5.1-1.48-1.96-.42-4-.74-6.01-.76-2.09-.02-4.25.42-5.8,1.91-.11.11-.29-.05-.18-.15Z"/>
  <path class="cls-1" d="M31.46,11.37c2.49-.05,4.97-.35,7.45-.28,2.54.07,4.94.7,7.32,1.57,2.16.78,4.28,1.68,6.5,2.25,2.35.6,4.78.77,7.19.88,2.73.12,5.58.2,8.28.75,0-.08,0-.16-.01-.25-2.98-.6-6.12-.63-9.14-.79-2.55-.14-5.08-.43-7.53-1.19-2.28-.71-4.47-1.68-6.74-2.41-2.31-.75-4.65-1.09-7.08-1.06-2.55.03-5.09.34-7.64.28-2.48-.06-4.96-.4-7.37-1.01-.26,0-.52,0-.79.01,3.1.86,6.3,1.3,9.55,1.24Z"/>
  <path class="cls-11" d="M53.7,27.65c-2.59-.74-5.18-1.56-7.81-2.13-1.28-.28-2.58-.47-3.9-.49-1.39-.02-2.78.15-4.16.28-2.63.24-5.09,0-7.58-.92-4.25-1.58-7.96-4.37-12.33-5.67-3.43-1.01-7.52-1.13-10.82-2.66,0,.09-.01.17-.02.26,3.64,1.66,8.19,1.66,11.89,3,4.33,1.56,8.08,4.43,12.52,5.74,2.48.73,4.9.63,7.44.38,1.52-.15,3.03-.24,4.55-.08,1.4.15,2.79.47,4.15.83,6.84,1.8,13.78,4.21,20.84,4.96,0-.08,0-.17,0-.25-2.46-.26-4.91-.71-7.33-1.27-2.5-.58-4.98-1.27-7.45-1.98Z"/>
  <path class="cls-1" d="M17.82,24.41c4.76,1.92,9.56,3.82,14.58,4.94,5.15,1.15,10.45,1.27,15.67,1.94,2.65.34,5.29.83,7.83,1.68,2.26.76,4.42,1.79,6.55,2.84,1.92.94,3.85,1.91,5.84,2.73,0-.08,0-.17.01-.25-2.64-1.09-5.19-2.46-7.76-3.67-2.17-1.02-4.39-1.91-6.71-2.51-2.54-.66-5.14-1.02-7.75-1.29-5.24-.55-10.49-.83-15.61-2.19-5.15-1.36-10.07-3.45-15.01-5.44-2.43-.98-4.87-1.94-7.36-2.78-.39-.13-.78-.26-1.18-.39,0,.08,0,.16,0,.25.91.29,1.82.61,2.72.93,2.76.99,5.47,2.11,8.19,3.2Z"/>
  <path class="cls-1" d="M36.41,43.87c-2.13-.9-4.29-1.67-6.55-2.19-2.32-.54-4.67-.9-6.98-1.46-4.4-1.08-8.18-3.32-11.91-5.81-1.38-.92-2.75-1.85-4.16-2.73,0,.09,0,.19,0,.29,1.97,1.23,3.88,2.57,5.82,3.83,1.75,1.13,3.54,2.2,5.44,3.06,2.05.92,4.2,1.52,6.39,1.98,2.33.49,4.68.86,6.97,1.5,2.42.68,4.72,1.68,7.02,2.68,1.15.5,2.3.99,3.47,1.44.21,0,.43,0,.64,0-2.09-.78-4.11-1.72-6.16-2.58Z"/>
  <path class="cls-11" d="M7.25,42.62c.01.09.02.18.04.27,2.6.88,5.1,2.1,7.73,2.86.63.18,1.26.33,1.9.46.57.02,1.14.03,1.72.05-1.6-.25-3.19-.59-4.75-1.11-2.24-.76-4.4-1.77-6.65-2.52Z"/>
  <path class="cls-11" d="M50.7,36.93c1.73.37,3.45.85,5.1,1.48.77.29,1.53.62,2.25,1.01.4.22.84.44,1.2.73.36.28.71.64.37,1.14-.13.18-.37.33-.56.42-.8.36-1.77.34-2.62.3-.89-.04-1.78-.13-2.67-.25-1.64-.22-3.27-.56-4.86-1.01-1.63-.47-3.27-1.04-4.8-1.78-.3-.14-1.04-.4-1.16-.71-.27-.67.84-.5,1.14-.5.87,0,1.75.07,2.61.2,1.68.24,3.32.69,4.92,1.25,1.53.54,3.03,1.2,4.25,2.3.11.1.27-.08.15-.18-1.56-1.41-3.61-2.15-5.59-2.76-2.09-.64-4.27-1.05-6.46-1.04-.35,0-1.52-.16-1.46.48.05.61,1.23,1.06,1.68,1.27,1.81.84,3.74,1.49,5.68,1.98,1.94.49,3.92.81,5.92.95.95.07,1.92.11,2.86-.12.54-.13,1.28-.45,1.36-1.09.09-.71-.7-1.14-1.21-1.44-.88-.53-1.82-.96-2.78-1.33-1.91-.73-3.89-1.27-5.89-1.67-3.66-.72-8.43-1.49-11.4,1.36-.11.11.07.26.18.15,1.56-1.49,3.71-1.94,5.8-1.91,2.01.02,4.04.34,6.01.76Z"/>
  <path class="cls-7" d="M19.61,25.93c.03.24-.15.46-.39.49-.04,0-.07,0-.11,0-.37,0-.9-.79-1.9-.79-.69,0-1.44.33-1.44,1.04,0,.41.29.76.68.87l1.51.61c1,.4,1.85.89,1.85,2.06,0,1.31-1.16,2.14-2.72,2.14s-2.67-.93-2.67-1.4c0-.15.22-.48.47-.48.47,0,.93,1.06,2.24,1.06.96,0,1.6-.57,1.6-1.26s-.48-.92-1.03-1.14l-1.72-.71c-.75-.31-1.29-.75-1.29-1.66,0-1.21,1.19-1.94,2.32-1.94,1.44,0,2.64.61,2.61,1.12M28.72,28.99c.6,0,.68-.35.68-.61,0-1.87-1.07-3.61-3.15-3.61s-3.18,1.91-3.18,3.78.98,3.8,3.35,3.8c1.72,0,2.87-1.04,2.87-1.49s-.19-.48-.47-.48c-.47,0-.89,1.12-2.47,1.12-1.28,0-2.15-1.21-2.19-2.5h4.57ZM24.15,28.17c.04-1.23.75-2.56,2.08-2.56s2.04,1.32,2.08,2.56h-4.16ZM34.35,27.63c-.08-.99.66-1.85,1.65-1.92.05,0,.11,0,.16,0,1.12,0,1.81.67,1.81,1.69v4.3c0,.42.18.64.5.64s.5-.22.5-.64v-4.27c.05-1.41-1.05-2.59-2.45-2.64-.07,0-.13,0-.2,0-.77-.02-1.5.36-1.93,1h-.03v-.37c0-.42-.18-.64-.5-.64s-.5.22-.5.64v6.29c0,.42.18.64.5.64s.5-.22.5-.64v-4.07ZM54.44,25.93c.03-.53-1.17-1.12-2.61-1.12-1.12,0-2.32.75-2.32,1.94,0,.91.54,1.36,1.29,1.66l1.72.71c.54.22,1.03.48,1.03,1.14s-.64,1.26-1.6,1.26c-1.31,0-1.76-1.06-2.24-1.06-.25,0-.47.33-.47.48,0,.47,1.06,1.4,2.66,1.4s2.72-.83,2.72-2.14c0-1.17-.85-1.65-1.85-2.06l-1.51-.61c-.39-.12-.66-.48-.66-.89,0-.71.75-1.04,1.44-1.04,1,0,1.51.79,1.9.79.24.03.46-.13.5-.37,0-.04,0-.07,0-.11M59.28,25.43c0-.42-.18-.64-.5-.64s-.5.22-.5.64v6.27c0,.42.18.64.5.64s.5-.22.5-.64v-6.27ZM45.01,15.8c0-.34-.27-.61-.61-.61s-.61.27-.61.61l.61,25.47.62-25.47ZM60.02,32.3s.02.03.03.03.03-.02.03-.03v-.46h.1s.04,0,.04-.02c0-.02,0-.04-.02-.04,0,0-.01,0-.02,0h-.28s-.04,0-.04.02c0,.02,0,.04.02.04,0,0,.01,0,.02,0h.1v.46ZM60.39,31.86h0l.13.45s.02.03.03.03c.02,0,.03,0,.04-.03l.13-.45h0l.06.45s0,.03.04.03c.02,0,.03,0,.03-.03,0,0,0,0,0,0,0-.01,0-.02,0-.03l-.07-.45s-.03-.05-.05-.05c-.02,0-.05.01-.05.04,0,0,0,0,0,0l-.12.41h0l-.12-.41s-.03-.04-.05-.04c-.03,0-.04,0-.05.05l-.07.45s0,.02,0,.03c0,.02,0,.03.03.03.02,0,.04-.01.04-.03,0,0,0,0,0,0l.05-.45Z"/>
  <circle class="cls-9" cx="69.06" cy="16.07" r="3.8"/>
  <path class="cls-6" d="M65.43,18.74c-.67,1-1.36,1.98-2.08,2.95-2.36,3.13-4.98,6.07-7.73,8.87-2.76,2.8-5.66,5.47-8.68,7.99-6.02,5.07-12.55,9.55-19.57,13.06-1.76.87-3.55,1.65-5.38,2.34-1.83.68-3.69,1.26-5.58,1.66-.47.09-.95.18-1.42.26-.48.05-.95.14-1.43.16l-.72.05h-.71c-.12.01-.24.02-.36.01l-.35-.02c-.24-.02-.48-.02-.71-.05-.94-.09-1.86-.31-2.71-.67-.85-.36-1.61-.9-2.2-1.6-.59-.71-.98-1.58-1.19-2.5-.21-.92-.26-1.9-.18-2.87.01-.24.05-.49.08-.73l.04-.36c.02-.12.04-.24.07-.36l.14-.72.18-.72c.11-.48.28-.95.42-1.42.16-.47.33-.93.51-1.4.23-.58.48-1.15.74-1.72-.02-.32-.04-.65-.06-.97-.43.81-.83,1.63-1.19,2.47-.19.47-.38.94-.56,1.41-.16.48-.35.95-.48,1.45l-.21.74-.17.75c-.03.13-.06.25-.08.38l-.06.38c-.04.25-.09.51-.11.77-.11,1.03-.1,2.08.1,3.12.2,1.04.61,2.06,1.27,2.92.66.86,1.54,1.53,2.5,1.99.96.46,1.98.74,3.01.89.26.04.51.06.77.09l.39.04c.13,0,.26,0,.38.01l.77.02.77-.02c.51,0,1.02-.07,1.53-.11.51-.06,1.01-.13,1.51-.2,2-.33,3.96-.85,5.88-1.48,1.92-.63,3.8-1.36,5.64-2.17,1.84-.82,3.65-1.71,5.42-2.66,1.77-.95,3.5-1.98,5.21-3.05,3.41-2.13,6.69-4.48,9.86-6.97,6.3-5.03,12.07-10.78,16.92-17.33.75-1.02,1.47-2.06,2.16-3.12-.94-.24-1.75-.79-2.32-1.55Z"/>
  <path class="cls-5" d="M60.95,36c-2.32,2.16-4.7,4.26-7.14,6.3-3.61,3.02-7.39,5.86-11.32,8.47-3.92,2.62-8.02,4.98-12.27,7-2.13,1.01-4.3,1.92-6.52,2.69-2.22.77-4.48,1.39-6.78,1.78-1.15.19-2.31.33-3.46.37-1.16.04-2.31,0-3.45-.17-1.13-.17-2.24-.48-3.26-.97-1.02-.48-1.93-1.17-2.67-2.03-.73-.86-1.27-1.89-1.61-2.99-.33-1.11-.47-2.28-.47-3.45,0-1.18.15-2.36.38-3.52.23-1.17.55-2.32.94-3.45.78-2.26,1.78-4.44,2.94-6.54.09-.17.19-.33.28-.5,0-.06,0-.12,0-.18-1.34,2.27-2.54,4.64-3.48,7.12-.85,2.25-1.49,4.61-1.63,7.05-.06,1.22.01,2.46.31,3.67.3,1.21.83,2.38,1.6,3.39.77,1.01,1.78,1.84,2.88,2.47,1.11.62,2.31,1.04,3.54,1.32,1.23.27,2.47.41,3.71.44,1.24.04,2.48-.02,3.71-.13,2.46-.24,4.88-.72,7.25-1.35,2.37-.63,4.69-1.42,6.97-2.3,4.57-1.76,8.94-3.98,13.15-6.43,4.21-2.47,8.25-5.24,12.11-8.23,2.61-2.02,5.11-4.18,7.49-6.47-1.5-.59-2.68-1.82-3.2-3.36Z"/>
  <circle class="cls-9" cx="21.91" cy="50.92" r="1"/>
  <circle class="cls-9" cx="39.12" cy="58.74" r=".65"/>
  <circle class="cls-9" cx="43.58" cy="8.44" r="1"/>
  <circle class="cls-3" cx="28.36" cy="36.99" r="1.83"/>
  <path class="cls-4" d="M16.73,52.79c-1.52.47-3.09.79-4.67.81-.79,0-1.58-.1-2.33-.33-.75-.23-1.45-.62-2.01-1.17-.55-.55-.95-1.25-1.19-2-.24-.75-.34-1.54-.35-2.33,0-1.51.28-3.02.71-4.48-.04-.13-.07-.26-.09-.4-.01.04-.03.08-.04.12-.47,1.54-.79,3.14-.8,4.76,0,.81.11,1.62.35,2.4.24.78.66,1.51,1.24,2.1.58.59,1.32,1.01,2.09,1.26.78.25,1.6.36,2.41.38,1.63,0,3.24-.3,4.78-.76,1.39-.42,2.74-.94,4.05-1.54-.08-.12-.13-.25-.17-.39-1.3.61-2.62,1.14-3.99,1.57Z"/>
  <circle class="cls-3" cx="62.24" cy="3.79" r="1.38"/>
  <circle class="cls-9" cx="52.55" cy="16.95" r="2.79"/>
  <circle class="cls-3" cx="61.09" cy="18.41" r=".77"/>
  <circle class="cls-3" cx="66.15" cy="34.25" r="5.06"/>
</svg>