<?xml version="1.0" encoding="UTF-8"?>
<svg id="Layer_1" data-name="Layer 1" xmlns="http://www.w3.org/2000/svg" viewBox="0 0 57.44 79.91">
  <defs>
    <style>
      .cls-1 {
        fill: #fff;
      }

      .cls-1, .cls-2 {
        fill-rule: evenodd;
      }

      .cls-2 {
        fill: #0093c8;
      }
    </style>
  </defs>
  <path class="cls-1" d="M33.51,79.87c-.28-.04-.51-.12-.72-.24h-.01c-.2-.12-.38-.24-.52-.38-.11,0-.23-.01-.35-.03-.43-.07-.82-.24-1.18-.53-.2-.16-.38-.31-.53-.44-.01-.01-.03-.02-.04-.04h-.22s-.26-.16-.26-.16c-.49-.23-1.1-.57-1.44-1.13-.42-.2-.8-.55-1.12-1.04l-.46-.69.06-.18s-.06-.08-.08-.13c-.04.03-.08.06-.12.09v.19s-.65.52-.65.52c-.46.36-.93.58-1.39.64-.5.42-1.19.56-1.73.62l-.38.05-.13-.05s-.03.01-.05.02c-.18.08-.4.16-.64.25-.42.16-.86.2-1.28.13-.13-.02-.24-.05-.35-.08-.18.09-.39.15-.62.19h-.03c-.22.05-.47.05-.74,0-.02,0-1.99-.38-2.65-1.42,0,0,0-.01,0-.02h-.04c-.89-.15-1.88-1.25-2.22-2.27-.13-.05-.25-.12-.37-.2-.37-.26-1.71-1.73-1.97-2.55-.12-.38-.11-.73-.04-1.03-.02-.04-.05-.08-.07-.12-.21-.38-.79-2.13-.55-3.21-.11,0-.23,0-.35,0l-.24.53-1.05.02s-.86.02-1.16.02c-.1,0-.21,0-.32-.02-.05,0-.1-.02-.16-.03l-.14.11-.81-.2c-.61-.15-1.02-.4-1.3-.67-.26-.06-.78-.23-1.49-.95l-.26-.27-.04-.11s0,0,0,0c-.17-.09-.36-.21-.58-.34-.57-.35-.85-.81-1-1.19-.22-.11-.38-.25-.49-.35l-.03-.03c-.72-.61-1.15-2.39-1.02-3.13.02-.11.05-.21.08-.31-.34-.62-.22-1.3-.17-1.55.08-.47.25-1.04.56-1.51-.03-.12-.05-.24-.05-.36-.02-.48.32-2.33.77-2.99.22-.32.49-.52.77-.65.4-.93,1.61-2.3,2.43-2.51h.03c.08-.03.17-.04.25-.05.33-.4.84-.73,1.37-.96,0-.01-.02-.02-.03-.04l-.14-.03-.37-.74c-.19-.38-.27-.72-.28-1.01-.21-.51-.17-1.04-.15-1.26l.03-.33c-.01-.07-.03-.15-.04-.23-.06-.39-.01-.77.13-1.12,0-.08-.01-.17-.01-.27v-.04c.01-.88.81-1.83,1.1-2.08.1-.08.2-.15.29-.21.36-.6,1.06-.97,1.68-1.12.02-.02.05-.05.07-.07.26-.24,1.37-.91,2.05-.99.17-.02.33-.01.49.01.07.01.15.03.21.05.45-.11.92-.11,1.28-.08.04-.21.12-.44.25-.68l.05-.09s0-.04.01-.06c.06-.23.17-.5.38-.76,0-.01.03-.08.03-.08.13-.31.44-.66.84-.92-.81-2.72-1.01-5.48-.57-8.07.82-4.76,3.29-12.58,7.56-18.96C26.05,2.55,32.04-.84,38.41.18s11.01,6.11,13.43,14.73c2.08,7.39,1.99,15.59,1.28,20.37-.38,2.54-1.39,5.05-2.95,7.34.39.42.64.96.67,1.36,0,.02,0,.04,0,.06.12.32.14.61.13.85,0,.02,0,.03,0,.05l.02.11c.05.27.05.51.02.73.35.08.8.23,1.19.47.07,0,.14,0,.22.02.16.03.31.07.46.14.64.29,1.49,1.29,1.66,1.61,0,.02.02.03.03.05.55.34,1.1.91,1.25,1.6.07.08.14.17.21.28.2.32.67,1.47.4,2.31l-.02.05c-.03.09-.06.17-.09.24.03.38-.05.75-.23,1.1-.03.07-.07.13-.1.19l-.08.33c-.05.22-.18.73-.53,1.15-.1.28-.28.58-.58.88l-.59.59-.14-.02s-.03.02-.04.03c.43.39.82.86,1.01,1.34.08.03.16.08.23.12.72.46,1.45,2.14,1.55,3.15.22.21.42.48.53.85.23.79-.03,2.66-.2,3.12-.04.11-.09.21-.15.31.15.54.13,1.13.06,1.6-.03.25-.13.93-.65,1.42,0,.11,0,.21-.02.32-.11.74-1.07,2.3-1.96,2.66h-.01c-.14.07-.33.15-.58.19-.26.32-.67.66-1.32.82-.24.06-.46.11-.65.14l-.11.16-.3.11c-.89.46-1.44.47-1.71.44-.4.19-.89.27-1.46.23l-.84-.06-.09-.15c-.05,0-.1-.01-.15-.02-.11-.02-.22-.04-.32-.08-.27-.09-1.09-.38-1.09-.38l-.99-.34-.06-.58c-.12-.03-.23-.07-.33-.11-.11,1.08-1.2,2.57-1.52,2.87-.04.03-.07.07-.11.1-.02.31-.12.64-.36.96-.51.7-2.24,1.68-2.66,1.81-.14.04-.27.07-.42.08-.64.87-1.93,1.6-2.82,1.46h-.04s0,0-.01,0c-.94.79-2.94.53-2.96.53Z"/>
  <path class="cls-2" d="M55.33,65.98c-.18-.21-.32-.1-.29-.23.03-.13.09-.85.09-.85,0,0,.38.09.46-.13.08-.22.25-1.72.16-2.04-.1-.32-.9-.34-.92-.51-.03-.18-.12-.5-.12-.5,0,0,.16,0,.42-.08.25-.08-.52-1.85-.73-1.99-.2-.13-.63.28-.82.07-.19-.21-.22-.35-.22-.35,0,0,.18-.36.14-.64-.04-.28-.87-1.06-1.19-1.14-.31-.07-.58.04-.58.04l-.31-.24s.07-.32.13-.57c.06-.26-1.44-.89-1.64-.9-.2-.01-.49.26-.49.26l-.42-.09s.11-.48-.01-.69c-.12-.22-1.27-.43-1.5-.48-.22-.05-.46.4-.46.4l-.45-.1s-.16-.5-.35-.68c-.15-.13-.94-.36-1.46-.41,1.06-2.33,5.07-3.62,6.36-2.24,1.43,1.54.23,2.46-.46,2.23-.69-.23-1.06-1.19-.6-1.64.46-.44,1.03.05,1.03.05-.83-1.31-1.82-.48-2.18.07-.36.54.06,1.74.14,1.88.08.14.21.21.25.43.04.22.2.23.35.31.16.08.23-.1.32-.04.09.06.26.18.26.18,0,0-.15.06-.03.22.12.16.48.18.56.18.07,0,.04-.15.14-.15.1,0,.25.11.4.27.15.17.26.05.37-.03.11-.08.19-.14.27-.2.08-.06.07-.03.21-.06.13-.03.22-.11.22-.04,0,.07.16.18.16.18,0,0,.45-.26.61-.35.15-.09-.02-.33-.02-.33l.13-.1.39.05c.38-.38.15-.53.15-.53l.02-.12s.17-.07.29-.11c.12-.04.23-.49.23-.49,0,0-.02-.13,0-.24.02-.11.16-.32.32-.64.16-.32-.05-.5-.05-.66s.08-.48.16-.39c.07.09.07.07.13-.1.05-.16-.18-1.04-.31-1.01-.13.03-.17.08-.26-.05-.1-.13-.22-.56-.22-.56,0,0,.12.03.14-.11.02-.14-.5-.64-.67-.64-.17,0-.17.11-.22.04-.05-.07-.36-.38-.36-.38,0,0,.19-.14.12-.27-.07-.12-.69-.79-.88-.88-.19-.08-.51.28-.6.23-.09-.06-.28-.14-.28-.14,0,0,.07-.08.13-.22.06-.14-1.07-.49-1.21-.45-.14.04-.12.4-.3.4-.17,0-.25-.04-.25-.04,0,0-.09-.23-.24-.32-.14-.09-.83-.02-.99.1-.16.12-.21.28-.21.28l-.23.05s-.12-.16-.21-.28c-.1-.13-.98.31-1.07.4-.08.09-.08.33-.08.33l-.21.16s-.18-.24-.33-.27c-.15-.03-.7.42-.82.5-.04.04-.05.1-.04.17-.24-.42-.56-.83-.94-1.23.1-1.47,1.91-3.01,2.9-2.56,1.11.5.68,1.27.26,1.3-.42.03-.84-.4-.69-.74.15-.34.56-.21.56-.21-.74-.51-1.08.16-1.15.53-.07.37.43.92.5.97.07.06.16.07.23.18.07.11.16.08.26.08.1,0,.1-.1.16-.09s.18.04.18.04c0,0-.07.07.03.13.1.06.3-.01.34-.03.04-.02-.01-.09.04-.11.05-.02.16,0,.27.05.12.06.15-.03.19-.1.04-.07.07-.12.1-.17.03-.05.03-.03.1-.08.06-.04.09-.11.11-.07.02.04.13.06.13.06,0,0,.18-.24.25-.33.06-.08-.09-.17-.09-.17l.05-.08.22-.06c.12-.29-.04-.32-.04-.32l-.02-.06s.07-.08.13-.13c.06-.05.01-.31.01-.31,0,0-.04-.06-.06-.13-.02-.06.01-.21.03-.41.01-.21-.14-.26-.17-.34-.03-.08-.07-.28,0-.24.06.03.05.02.05-.08,0-.1-.33-.51-.39-.47-.06.04-.07.08-.15.03-.08-.05-.24-.25-.24-.25,0,0,.07,0,.05-.09-.02-.08-.41-.23-.5-.19-.09.04-.07.1-.11.07-.02-.01-.08-.04-.15-.07,1.97-2.36,3.34-5.14,3.78-8.11,1.52-10.25-.38-31.15-13.33-33.21C25.19-.25,16.88,19.01,15.13,29.23c-.5,2.94-.07,5.99,1.05,8.83-.12-.04-.45-.02-.49.04-.04.07.02.1.02.1,0,0-.22.14-.31.16-.09.02-.09-.02-.13-.08-.05-.06-.48.23-.52.32-.04.09-.05.1.02.09.07-.01-.02.16-.08.23-.06.07-.22.07-.27.27-.05.2-.07.34-.1.4-.04.05-.1.1-.1.1,0,0-.12.24-.09.3.04.06.08.16.08.16l-.04.06s-.16-.03-.14.29l.19.13.02.09s-.17.03-.14.13c.03.1.13.39.13.39,0,0,.11.01.14-.02.03-.03.03.04.08.1.05.06.06.05.07.1.01.06.02.11.04.19.02.08.02.17.15.16.12-.01.23,0,.28.03.05.04-.03.09,0,.12.03.03.2.16.31.13.11-.02.07-.11.07-.11,0,0,.12.01.18.02s.02.11.12.14c.1.03.17.08.27,0,.1-.08.19-.06.27-.1.09-.03.73-.39.78-.77.05-.38-.06-1.12-.93-.87,0,0,.44,0,.47.37.03.37-.5.65-.89.49-.39-.16-.57-1.02.65-1.16.36-.04.74.17,1.07.51.23.42.49.83.75,1.23.17.46.24.95.17,1.4-.5.25-.95.52-1.35.83-.13-.19-.44-.65-.57-.67-.15-.02-.39.16-.39.16l-.15-.21s.08-.23.03-.33c-.05-.11-.76-.8-.89-.71-.13.09-.29.2-.29.2l-.21-.12s0-.17-.11-.33c-.11-.16-.75-.44-.91-.4-.17.04-.33.23-.33.23,0,0-.09.01-.25-.04-.16-.06-.03-.39-.15-.48-.12-.09-1.3-.11-1.29.05.01.16.06.25.06.25,0,0-.2.02-.31.05-.1.02-.3-.42-.5-.4-.2.02-1.01.47-1.11.56-.1.1.03.29.03.29,0,0-.39.2-.46.25-.07.05-.04-.05-.2-.11-.16-.05-.81.26-.84.4-.02.14.1.15.1.15,0,0-.25.37-.38.46-.13.09-.15.03-.27-.03-.12-.06-.61.69-.61.87,0,.17,0,.2.09.13.1-.07.07.27.03.42-.04.15-.3.26-.25.61.05.35.13.59.11.7-.02.11-.08.23-.08.23,0,0-.04.46.06.54.1.08.23.2.23.2l-.02.11s-.26.06-.02.55l.39.07.09.13s-.24.17-.12.31c.12.13.46.52.46.52,0,0,.18-.05.21-.12.02-.07.08.04.19.1.12.06.13.04.18.12.06.08.11.16.19.28.08.11.16.26.35.14.19-.11.37-.16.46-.13.1.03.02.16.08.18.07.03.42.12.59,0,.16-.11.04-.22.04-.22,0,0,.2-.06.3-.09.1-.03.11.16.29.13.18-.03.33.02.43-.18.1-.2.25-.23.37-.33.12-.11.89-1.11.72-1.74-.17-.63-.85-1.73-2.05-.74,0,0,.69-.29.99.27.3.57-.35,1.37-1.08,1.37-.73,0-1.58-1.25.25-2.27,1.37-.76,3.96.81,4.96,2.82.04.41.1.83.2,1.25-.5-.08-1.17-.1-1.33-.03-.24.11-.54.54-.54.54l-.46-.04s-.08-.5-.31-.52c-.23-.02-1.39-.18-1.57-.01-.18.17-.23.66-.23.66l-.42-.04s-.2-.35-.39-.4c-.19-.05-1.81.09-1.84.35-.02.26-.06.59-.06.59l-.37.13s-.21-.19-.54-.22c-.32-.03-1.36.46-1.48.71-.12.25-.06.65-.06.65,0,0-.08.12-.32.26-.24.14-.52-.38-.76-.32-.24.06-1.52,1.51-1.31,1.66.21.15.37.2.37.2,0,0-.19.27-.27.43-.08.16-.84-.08-1.04.2-.19.28-.5,1.75-.48,1.98,0,.23.4.27.4.27,0,0-.16.7-.18.84-.01.13-.1,0-.34.13-.24.14-.55,1.29-.4,1.47.15.18.29.03.29.03,0,0,.19.71.17.97-.02.26-.12.22-.33.3-.2.08.22,1.5.43,1.68.21.19.24.22.26.03.02-.19.41.2.55.41.14.21,0,.66.5.97.49.31.87.48.99.62.12.14.2.35.2.35,0,0,.54.54.74.5.2-.05.5-.08.5-.08l.12.15s-.2.4.66.62l.5-.41.26.02s-.05.49.25.48c.3,0,1.15-.02,1.15-.02,0,0,.13-.28.07-.39-.06-.1.14-.05.34-.13.21-.08.17-.11.34-.1.16.02.33.03.55.06.23.02.48.08.55-.27.07-.36.19-.64.33-.72.14-.08.21.15.32.1.1-.05.6-.4.63-.73.03-.32-.24-.28-.24-.28,0,0,.13-.31.21-.47.08-.16.32.03.48-.22.15-.25.36-.39.24-.73-.13-.34-.01-.56-.02-.82,0-.26-.43-2.3-1.41-2.76-.97-.45-3.07-.79-3.12,1.76,0,0,.38-1.18,1.4-.95,1.03.23,1.33,1.9.55,2.81-.78.91-3.24.64-2.56-2.74.58-2.86,6.58-4.47,10.17-2.69-.03,0-.06,0-.09,0-.34.11-1.31,1.18-1.37,1.45-.07.27.1.8.1.8l-.33.35s-.47-.25-.64-.08c-.17.17-1.05,1.05-1.03,1.31.02.26.4.61.4.61l-.31.33s-.41-.06-.58.07c-.17.13-1.1,1.57-.9,1.76.2.19.45.43.45.43l-.13.39s-.29.06-.53.31c-.23.25-.49,1.43-.36,1.69.13.27.5.47.5.47,0,0,.05.15.01.44-.04.29-.65.19-.75.43-.1.23.27,2.24.54,2.16.27-.08.41-.18.41-.18,0,0,.11.34.19.51.08.17-.62.65-.51.99.11.34,1.14,1.55,1.34,1.69.2.14.48-.16.48-.16,0,0,.48.6.58.69.1.09-.08.08-.12.37-.03.29.73,1.29.97,1.28.24,0,.21-.22.21-.22,0,0,.72.29.91.48.2.19.1.24.04.46-.07.22,1.39.79,1.68.73.29-.06.34-.06.19-.2-.15-.14.43-.21.7-.19.27.02.55.42,1.13.21.58-.21.96-.42,1.16-.42.2,0,.41.06.41.06,0,0,.8-.1.89-.29.09-.2.26-.47.26-.47h.2s.2.43.94-.16l-.02-.68.19-.2s.38.35.56.1c.19-.25.73-.97.73-.97,0,0-.16-.29-.28-.31-.12-.02.04-.15.11-.37.07-.22.02-.22.14-.35.12-.13.24-.25.4-.43.17-.18.38-.35.13-.64-.25-.29-.41-.57-.39-.74.02-.17.27-.08.29-.2.02-.12.05-.76-.2-.99-.25-.24-.39.01-.39.01,0,0-.18-.31-.26-.48-.08-.17.24-.25.13-.54-.11-.29-.09-.56-.46-.67-.37-.11-.47-.35-.7-.52-.22-.16-2.2-1.13-3.21-.61-1.01.52-2.64,2.05-.55,3.74,0,0-.74-1.07.12-1.78.86-.71,2.44.12,2.7,1.36.25,1.23-1.57,3.11-3.94.36-1.8-2.09.04-7.13,3.18-9.5,1.73,1.25,3.58,2.13,5.37,2.42s3.95,0,6.05-.68c2.31,3.21,2.52,8.68.13,10.12-3.11,1.88-4.26-.47-3.63-1.57.63-1.1,2.39-1.39,2.98-.45.59.94-.44,1.73-.44,1.73,2.52-.96,1.63-3.18.64-3.73-1.47-.83-2.98-.5-3.24-.42-.26.09-.44.28-.82.27-.38,0-.45.25-.64.49-.19.24.08.42-.04.55-.13.14-.39.38-.39.38,0,0-.06-.28-.37-.13-.31.15-.48.76-.5.88-.02.12.24.11.21.28-.03.17-.27.39-.6.59-.33.19-.18.43-.08.65.1.22.17.37.25.53.07.16.03.14.02.37,0,.23.11.4,0,.38-.12-.02-.36.21-.36.21,0,0,.29.86.39,1.15.1.3.57.08.57.08l.12.25-.23.64c.52.78.84.44.84.44l.19.07s.07.31.1.53c.03.22.76.56.76.56,0,0,.23,0,.41.07.18.07.48.38.97.76.48.38.88.08,1.14.15.26.07.79.31.61.4-.19.09-.14.1.12.25.26.15,1.82.06,1.82-.17,0-.23-.07-.31.18-.43.25-.12,1.02-.17,1.02-.17,0,0-.1.2.13.28.23.08,1.26-.63,1.32-.92.06-.29-.12-.33,0-.39.13-.06.77-.47.77-.47,0,0,.18.37.41.3.23-.07,1.59-.9,1.8-1.19.21-.29-.3-.96-.18-1.1.13-.13.34-.42.34-.42,0,0,.1.14.33.3.23.16,1.21-1.64,1.18-1.89-.02-.26-.64-.35-.58-.64.05-.29.15-.41.15-.41,0,0,.42-.08.62-.29.21-.21.33-1.41.18-1.72-.15-.31-.41-.46-.41-.46v-.42s.31-.15.55-.27c.25-.12-.19-1.78-.31-1.95-.12-.17-.53-.24-.53-.24l-.19-.41s.47-.22.57-.46c.11-.24-.47-1.34-.57-1.56-.1-.22-.63-.13-.63-.13l-.2-.43s.32-.46.34-.73c.02-.28-.56-1.6-.85-1.81-.03-.02-.05-.02-.08-.03,3.97-.57,9.17,2.82,8.83,5.72-.4,3.42-2.83,2.91-3.28,1.81-.45-1.1.35-2.6,1.4-2.5,1.05.1,1.04,1.33,1.04,1.33.75-2.44-1.35-2.78-2.42-2.65-1.07.13-2.11,1.94-2.2,2.18-.09.25-.04.49-.27.78-.23.28-.08.49,0,.77.07.28.36.18.39.35.03.17.05.51.05.51,0,0-.24-.12-.31.2-.07.32.29.8.37.88.08.09.22-.11.33,0,.11.12.14.43.09.79-.05.36.21.38.43.43.23.05.39.08.54.12.16.04.12.06.29.2.17.14.37.15.28.23-.09.08-.05.39-.05.39,0,0,.81.28,1.09.38.28.1.39-.38.39-.38l.26.06.34.55c.89.06.82-.38.82-.38l.16-.1s.27.13.45.23c.18.11.86-.24.86-.24,0,0,.14-.17.29-.27.16-.1.57-.14,1.13-.28.57-.14.57-.61.77-.76.2-.15.69-.41.65-.22-.04.19,0,.17.25.06.26-.11,1.1-1.33.93-1.46-.17-.14-.27-.13-.22-.38.06-.25.46-.87.46-.87,0,0,.09.19.29.07.19-.12.26-1.31.08-1.52M23.59,50.01c-1.96-1.96-2.75-3.84-2.07-4.21,1.6,1.46,3.41,2.66,5.35,3.48,0,.05.02.11.04.16.41,2.26-1.14,2.75-3.32.57M36.76,52.11c-2.75,1.39-4.07.45-2.98-1.57.02-.03.04-.06.05-.09,2.13-.14,4.26-.7,6.27-1.59.31.62-1.01,2.07-3.35,3.25"/>
  <g>
    <path class="cls-1" d="M22.19,30.25c-.02.14-.1.3-.36.25-.24-.04-.48-.59-1.11-.68-.43-.07-.93.07-1,.51-.03.21.04.44.34.62l.88.53c.58.35,1.06.74.95,1.47-.13.82-.94,1.22-1.91,1.07s-1.57-.85-1.52-1.14c.02-.1.19-.28.34-.26.29.05.47.75,1.29.88.6.1,1.05-.2,1.12-.63.07-.41-.21-.62-.53-.82l-1-.61c-.44-.27-.73-.6-.64-1.17.12-.76.94-1.1,1.64-.99.9.14,1.58.65,1.51.97"/>
    <path class="cls-1" d="M24.8,32.64c-.1.81.33,1.66,1.13,1.79,1,.16,1.37-.51,1.67-.46.17.03.29.11.25.35-.04.28-.87.81-1.96.64-1.48-.24-1.91-1.54-1.73-2.7s1.07-2.25,2.38-2.05,1.81,1.41,1.62,2.58c-.03.17-.11.37-.49.31l-2.87-.46ZM27.51,32.54c.1-.78-.21-1.67-1.05-1.81s-1.42.62-1.57,1.39l2.62.42Z"/>
    <path class="cls-1" d="M30.82,35.34c-.04.26-.18.38-.37.35s-.29-.19-.25-.45l.63-3.93c.04-.26.18-.38.37-.35s.29.19.25.45l-.04.23h.02c.29-.3.71-.53,1.3-.43.81.13,1.56.81,1.38,1.92l-.43,2.68c-.04.26-.18.38-.37.35s-.29-.19-.25-.45l.43-2.7c.1-.64-.26-1.13-.95-1.24-.58-.09-1.19.24-1.31,1.03l-.41,2.55Z"/>
    <path class="cls-1" d="M43.98,33.73c-.02.14-.1.3-.36.25-.24-.04-.48-.59-1.11-.68-.43-.07-.93.07-1,.51-.03.21.04.44.34.62l.88.53c.58.35,1.06.74.95,1.47-.13.82-.94,1.22-1.91,1.07s-1.57-.85-1.52-1.14c.02-.1.19-.28.34-.26.29.05.47.75,1.29.88.6.1,1.05-.2,1.12-.63.07-.41-.21-.62-.53-.82l-1-.61c-.44-.27-.73-.6-.64-1.17.12-.76.94-1.1,1.64-.99.9.14,1.58.65,1.51.97"/>
    <path class="cls-1" d="M46.38,37.82c-.04.26-.18.38-.38.35s-.29-.19-.25-.45l.63-3.93c.04-.26.18-.38.38-.35s.29.19.25.45l-.63,3.93Z"/>
    <path class="cls-1" d="M38.98,26.59c.03-.21-.11-.41-.31-.44s-.4.11-.43.32l-2.15,15.86,2.9-15.74Z"/>
    <path class="cls-1" d="M46.83,37.96h-.07s-.02-.02-.02-.04.01-.02.03-.02l.18.03s.02.01.02.02-.01.02-.03.02h-.07s-.05.3-.05.3c0,.02-.01.02-.03.02s-.02-.01-.02-.03l.05-.31Z"/>
    <path class="cls-1" d="M46.99,38.31s-.01.02-.03.02c-.01,0-.02-.01-.02-.03,0,0,0-.01,0-.02l.09-.29s.02-.03.04-.03c.02,0,.02.01.03.03l.03.28h0s.12-.26.12-.26c0-.02.02-.02.03-.02.02,0,.03.01.03.04v.3s0,.02,0,.02c0,.01-.01.02-.02.02-.01,0-.02,0-.02-.02v-.3s0,0,0,0l-.13.28s-.02.02-.02.02-.02,0-.02-.02l-.03-.31h0s-.09.29-.09.29Z"/>
  </g>
</svg>