<?xml version="1.0" encoding="UTF-8"?>
<svg id="Layer_1" data-name="Layer 1" xmlns="http://www.w3.org/2000/svg" viewBox="0 0 76.23 68.24">
  <defs>
    <style>
      .cls-1 {
        fill: #231f20;
      }

      .cls-2 {
        fill: #fff;
      }
    </style>
  </defs>
  <path class="cls-2" d="M21.26,68.24c-.76,0-1.45-.43-1.78-1.12l-4.49-9.15c-.27-.57-.83-.92-1.46-.93l-12.28-.15c-.67,0-1.2-.52-1.25-1.18-.04-.67.43-1.24,1.09-1.33l11.49-1.6c.85-.12,1.67-.45,2.36-.94L56.79,19.56c3.01-2.24,4.46-5.91,3.8-9.59l-.56-3.11c-.35-2.39,1.13-4.61,3.43-5.2l3.23-.83c.25-.06.5-.1.76-.1.51,0,1.02.13,1.47.38l.6.33c.05.03.11.04.17.04.04,0,.07,0,.11-.02l3.91-1.37c.22-.07.41-.1.61-.1.56,0,1.09.24,1.45.67.36.42.52.98.44,1.54l-.23,1.52c-.15.95-.65,1.78-1.43,2.35l-3.61,2.82s0,.02.01.03c.13.24.31.61.5,1,.24.49.5,1.02.67,1.33l.71,1.28c.22.39.43.76.63,1.11,1.43,2.48,2.46,4.27,1.28,7.35-.53,1.39-1.23,2.72-2.08,3.95l1.72,2.23c.43.59.52,1.31.25,1.96-.27.65-.85,1.1-1.55,1.2h-.09s-4.88-.15-4.88-.15c-.11,0-.22,0-.33,0-2.13,0-4.17.66-5.9,1.91-18.67,13.53-34.43,24.25-37.52,25.98-.26.14-.43.41-.46.7-.26,2.27-.68,7.7-.68,7.75v.1c-.19.96-.99,1.63-1.97,1.63Z"/>
  <path class="cls-1" d="M74.04,1.04l-3.94,1.38c-.35.11-.74.07-1.06-.11l-.6-.33c-.46-.25-.99-.32-1.5-.19l-3.23.83c-1.8.46-2.97,2.21-2.7,4.06l.56,3.11c.72,4.02-.9,8.11-4.17,10.55L15.53,52.64c-.83.6-1.79.98-2.81,1.12l-11.49,1.6c-.32.05-.29.52.03.53l12.28.15c1,.01,1.91.59,2.34,1.49l4.49,9.16c.42.86,1.69.69,1.86-.25,0,0,.42-5.48.68-7.79.07-.61.43-1.16.97-1.46,2.87-1.61,18.45-12.17,37.42-25.92,1.99-1.44,4.4-2.18,6.85-2.1l4.79.16c.74-.11,1.09-.96.65-1.56l-1.79-2.32c-.23-.3-.23-.7-.02-1.01.83-1.19,1.5-2.47,2.02-3.81,1.15-3.01-.08-4.43-1.85-7.61l-.71-1.28c-.31-.55-.89-1.79-1.18-2.34-.13-.25-.32-.48-.55-.65l4.44-3.46c.55-.41.93-1.02,1.03-1.7l.23-1.52c.1-.67-.53-1.21-1.18-1.01ZM67.72,3.31c-.17.12-.41.09-.53-.08s-.09-.41.08-.53.41-.09.53.08.09.41-.08.53Z"/>
</svg>