<?xml version="1.0" encoding="UTF-8"?>
<svg id="Layer_1" data-name="Layer 1" xmlns="http://www.w3.org/2000/svg" xmlns:xlink="http://www.w3.org/1999/xlink" viewBox="0 0 58.5 67.14">
  <defs>
    <style>
      .cls-1 {
        fill: none;
      }

      .cls-2 {
        fill: #151415;
      }

      .cls-3 {
        fill: #006999;
      }

      .cls-4 {
        fill: #231f20;
      }

      .cls-5 {
        fill: url(#linear-gradient);
      }

      .cls-6 {
        fill: #3a53a4;
      }

      .cls-7 {
        clip-path: url(#clippath-1);
      }

      .cls-8 {
        fill: #fff;
      }

      .cls-9 {
        fill: #091116;
      }

      .cls-10 {
        clip-path: url(#clippath);
      }
    </style>
    <clipPath id="clippath">
      <rect class="cls-1" x="23.86" y="46.21" width="4.98" height="9.36"/>
    </clipPath>
    <clipPath id="clippath-1">
      <rect class="cls-1" x="29.24" y="46.21" width="4.98" height="9.36"/>
    </clipPath>
    <linearGradient id="linear-gradient" x1="28.64" y1="38.69" x2="28.64" y2="41.85" gradientUnits="userSpaceOnUse">
      <stop offset="0" stop-color="#c5c4c4"/>
      <stop offset=".17" stop-color="#c2c2c2"/>
      <stop offset=".23" stop-color="#bbb"/>
      <stop offset=".28" stop-color="#b1b1b1"/>
      <stop offset=".29" stop-color="#aaabab"/>
      <stop offset=".39" stop-color="#a8a7a7"/>
      <stop offset=".46" stop-color="#9d9d9d"/>
      <stop offset=".54" stop-color="#8c8c8c"/>
      <stop offset=".6" stop-color="#767576"/>
      <stop offset=".67" stop-color="#575757"/>
      <stop offset=".68" stop-color="#4f4f4f"/>
      <stop offset=".75" stop-color="#767576"/>
      <stop offset=".92" stop-color="#d7d7d7"/>
      <stop offset="1" stop-color="#fff"/>
    </linearGradient>
  </defs>
  <path class="cls-9" d="M4.36,31.34s0,0,0-.01c0,0,0,0,0,.01Z"/>
  <path class="cls-9" d="M4.26,31.62c.03-.1.07-.19.1-.28-.04.09-.07.19-.1.28Z"/>
  <path class="cls-9" d="M4.93,29.27s-.01.02-.02.04c.02-.01.03-.03.05-.04-.01,0-.03,0-.03,0Z"/>
  <path class="cls-8" d="M58.17,23.69c-.08-.02-.14-.09-.14-.17v-.31c.01-.63-.25-1.07-.51-1.39-.1-.12,0-.31.16-.28.15.03.26-.15.17-.27l-1.44-1.92c0-.07-.02-.13-.02-.2l.2-.47c.03-.08,0-.16-.06-.21l-1.3-.91-.13-.28.21.06-.8-2.19c-.21-.58-.66-.85-.88-.98-.01,0-.03-.02-.04-.02l-.09-.11-.11-.06s-.02-.07-.03-.11l.08-.1-.25-.62c-.11-.27-.25-.47-.42-.63l.23-.18-.98-.67c-.1-.07-.1-.21,0-.28l.4-.28c.12-.08.09-.27-.05-.31-.58-.16-1.7-.46-2.05-.56-.07-.02-.11-.08-.13-.15-.02-.17-.08-.36-.2-.56l-.22-.4s-.06-.07-.11-.09l-.45-.11c-.06-.01-.12-.03-.18-.04-.01-.05-.02-.09-.04-.13-.11-.32-.39-.73-1.08-.86-.5-.12-.99-.16-1.41-.18-.1,0-.17-.08-.17-.18v-.18c0-.05.03-.1.07-.13.16-.13.33-.24.5-.35l.44-.28s.08-.08.08-.13l.03-.52c.03-.54-.18-.89-.37-1.09-.18-.2-.52-.43-1.05-.43-.04,0-.09,0-.16,0h-.26s-.23.11-.23.11c-.62.29-1.15.59-1.6.92l.24-.56c.03-.08,0-.17-.07-.22l-.51-.31.02-.05-.66-.53c-.38-.31-.83-.47-1.3-.47-.14,0-.28.01-.41.04l.65-1.04c.09-.15-.06-.32-.22-.25l-3.04,1.41s-.07.02-.1.01c-.07-.01-.15-.02-.24-.02-.25,0-.46.07-.63.15l.14-.25c.03-.06.03-.13,0-.18l-.61-.9s-.03-.07-.03-.11c.03-.28.15-1.4.21-1.97.01-.14-.13-.24-.26-.17l-1.74.98c-.1.06-.2.12-.3.18-.09.06-.21.13-.28.16-.02,0-.04.01-.06.01h-.33s-.03,0-.03,0l-.37-.26c-.06-.04-.14-.04-.2,0l-.6.46s-.12.06-.21.09c-.32-.44-.71-.57-.99-.61-.08-.01-.14-.08-.15-.16l-.02-.22c0-.11-.12-.19-.22-.15l-1.9.58-.16.11c-.66.47-1.3,1.01-1.89,1.59-.13.13-.26.25-.4.37-.09.08-.23.04-.28-.07-.25-.67-.84-1-1.11-1.15-.04-.02-.09-.05-.13-.07-.27-.17-.57-.25-.86-.25-.07,0-.14,0-.21.02-.25-.24-.55-.33-.73-.36-.09-.02-.19-.02-.28-.02-.48,0-.82.19-1.07.42-.07.07-.18.06-.24-.01l-.62-.69c-.09-.1-.26-.06-.3.07l-.05.17c-.03.11-.16.16-.26.1l-.65-.42c-.12-.07-.27,0-.27.15v2.2s-.79-.51-.79-.51l-.02.41c-.14-.06-.3-.1-.47-.13l-2.63-.51c-.16-.03-.27.15-.17.27l.35.46c.09.12,0,.29-.15.28l-.55-.05v.02c-.24-.03-.49-.04-.72-.05h-.13c-.13-.01-.26-.02-.4-.03-.45-.02-.88-.04-1.31-.12l-2.66-.5c-.16-.03-.27.15-.17.28l1.67,2.15c.07.1.24.48.24.48,0,0-.67.15-.89.15-.06,0-.12,0-.18,0l-3.95.1c-.18,0-.23.24-.08.33l3.3,1.74h0c-.16,0-.32,0-.47,0-1.12,0-2.1.29-2.99.88l-.58.39s-.05.03-.08.03l-1.93.13c-.18.01-.22.25-.06.33l.78.38h-.02s.26.12.26.12l2.1,1.02c.11.05.13.2.05.28l-.2.2s-.02.02-.03.02c-.41.23-.76.6-1.05,1.11l-1.07,1.93c-.07.13.04.28.18.25l.47-.09-.68.82s-.03.03-.05.04c-1.01.58-1.97,1.33-2.71,2.45-.04.07-.04.16.02.22l.15.15c.06.06.06.16,0,.23-.29.36-.57.82-.72,1.41l-.46,1.76s0,.01,0,.02c-.05.13-.1.26-.15.4L0,25.59c-.05.16.13.3.27.2l1.01-.75c0,.17.03.33.07.5l.07.27s.02.06.04.08l.19.2c.19.2.43.32.69.37.13.08.27.14.41.17.12.03.18.16.12.26-.29.45-.53.96-.67,1.58l-.81,3.69c-.04.17.18.28.3.16l.54-.59c.11-.12.32-.03.3.14-.09.77-.07,1.58.14,2.43.28,1.08.26,1.95-.06,2.74-.39.97-.4,1.9-.03,2.69.4.85.44,1.84.49,2.89l.03.64.09.21c.07.15.15.29.24.43.02.03.03.07.03.1-.02.39-.03.79-.04,1.19-.09,2.88-.09,5.77-.09,5.8s0,2.91.09,5.8c.08,2.49.25,5.19.32,5.94.2,2.2,1.74,3.78,3.83,3.94.74.06,6.7.28,12.13.39,3.35.07,6.47.08,8.04.08.56,0,.89,0,.89,0,0,0,.34,0,.9,0,1.56,0,4.69,0,8.04-.08,5.42-.11,11.38-.33,12.13-.39,2.09-.16,3.63-1.75,3.83-3.94.07-.75.24-3.45.32-5.94.09-2.88.09-5.77.09-5.8s0-2.91-.09-5.8c-.02-.73-.05-1.51-.09-2.32,0-.02,0-.03,0-.05.16-.59.05-1.14-.02-1.53-.1-.54-.06-.96.12-1.28.43-.76.75-1.59.99-2.61.19-.81.35-1.83-.12-2.88-.02-.05-.02-.1,0-.15.28-.5.41-1.01.46-1.51l.32.57.12-2.49c0-.16.2-.22.3-.11l.34.39c.1.11.28.06.3-.08l.36-2.15c.1-.58-.01-1.07-.11-1.45-.02-.06,0-.12.05-.16.21-.22.35-.54.36-.95v-.3s-.08-.18-.08-.18c.12-.06.22-.13.31-.21l.24.12.09-.48.2.15v-1s.02-.07.04-.09l.46-.7-.34-.06ZM25.3,23.72c.17.07.38.07.56.04,1.62-.2,3.23-.44,4.85-.62.72-.08,1.42-.29,2.16-.25.17,0,.37-.07.48.09.13.18-.08.3-.15.44-.21.45-.56.61-1.05.67-2.13.29-4.26.61-6.39.95-.33.05-.65.04-.93-.07-.77-.29-1.51-.64-2.37-1.17,1.07-.16,1.94-.44,2.85-.07ZM5.13,17.92l-.02.03-.02-.04h.04ZM4.45,23.18c.12.08.02.11-.03.16.01-.05.02-.1.03-.16ZM4.28,23.49s0,.03-.01.04c0,0-.02,0-.04.01.02-.02.03-.03.05-.05ZM4.03,23.97c0-.05.01-.1.02-.15.02.01.05.02.07.03-.03.04-.06.08-.09.12ZM25.26,35.59c-.46.79-.95,1.58-1.21,2.49-.09.32-.39.52-.74.57-.42.06-.84.1-1.26.15-.79.25-2.02.35-2.36.16.69-.43,1.61-.45,2.08-1.21.04-.45.2-.86.51-1.2.51-1.16.52-1.17-.63-1.75-.96-.49-1.93-.95-2.9-1.42-.72-.34-.72-.35-.33-1.06.05-.09.11-.18.16-.27.04-.08.08-.16.11-.23v-.02c.26-.99.88-1.81,1.34-2.71.26-.52.24-.85-.27-1.13-.24-.13-.51-.25-.69-.45-.83-.89-1.73-.66-2.66-.24-.35.16-.69.36-1.06.42-1.07.18-1.51.94-1.86,1.85-.42,1.09-.96,2.11-1.55,3.12-.02.32-.33.36-.53.48-.89.57-1.83,1.08-2.68,1.7-.82.6-1.28,1.46-1.28,2.5,0,.45.24.73.6,1.03,1.42,1.17,2.72.66,4.05-.13.53-.31,1.09-.56,1.64-.83.37-.19.69-.11,1.02.15.62.5,1.26.98,1.9,1.47.05-.05.09-.08.11.01.3-.03.42.3.7.34-.27.17-.5.36-.84.26-.97.38-1.75-.14-2.54-.56-.43-.22-.78-.21-1.18.04-.81.5-1.65.96-2.46,1.46-.35.22-.62.29-.95-.04-.75-.73-1.78-1.07-2.54-1.77-.56-.08-.67-.52-.74-.96-.04-.25-.03-.51-.03-.76,0-.42-.18-.52-.54-.32-.57.63-.57,1.38-.31,2.09.53,1.46,1.48,2.6,2.9,3.28-.39.24-.58.27-1.25.2l-.18-.07s-.07-.03-.1-.04c-.95-.19-2.1-1.42-2.16-2.37-.02-.32-.11-.61-.22-.91-.2-.57-.25-1.15.09-1.71.36-.6.43-1.23.1-1.87-.26-.19-.57-.36-.25-.74-.11-.42.19-.63.45-.86.15-.26.16-.55.17-.84-.13-.29-.38-.54-.29-.89-.26-.65-.13-1.21.42-1.66h0c.28-.42.42-.4.72.1.55.41,1.11.43,1.67.01.13-.1.29-.17.43-.26,1.04-.67,1.03-.67.67-1.84-.07-.22-.33-.5-.06-.69.35-.26.76-.46,1.17-.61.19-.07.17.2.19.32.06.61.12,1.22.14,1.83.03.97-.37,1.6-1.32,1.97-.86.33-1.63.88-2.45,1.32-.12.09-.25.17-.37.26l-.36.42c-.14.29-.33.52-.64.65.07.25.13.5.2.75.24.04.43.15.53.38.03.04.06.07.09.11.3.07.33.36.45.57.08.14.11.36.33.33.2-.02.25-.21.3-.37.01-.04.05-.08.05-.12.2-1.51,1.52-1.94,2.56-2.63.44-.29.9-.54,1.37-.78.25-.13.32-.37.44-.6.34-.69.51-1.47,1.01-2.08,0-.03.01-.05.02-.08.01-.66.34-1.24.51-1.86.07-.27.29-.39.56-.41,1.43-.53,2.86-1.04,4.28-1.58.52-.2.97-.17,1.44.11,1.16.7,2.33,1.39,3.51,2.05.35.19.32.38.14.64-.79,1.08-1.43,2.24-2.12,3.38-.19.68.04.93.95,1.29,1.17.46,2.34.94,3.47,1.52.5.26.7.54.36,1.12ZM38.94,38.27c-.28-.13-.59-.22-.85-.4-.97-.68-2.02-.84-3.18-.66-1.14.18-2.32.13-3.45.41-.08.18-.22.33-.41.36-.76.1-1.52.25-2.3.16-.14-.06-.32.2-.43-.03-.08-.15.1-.24.14-.35.46-1.19,1.38-1.47,2.55-1.54,1.87-.11,3.74-.33,5.6-.52.46-.05.86.04,1.25.29.98.62,1.98,1.2,2.87,1.96.18.13.36.27.68.5-.94.03-1.72.21-2.47-.17ZM49.54,35.05c-.35.77-.68,1.54-.85,2.37-.05.24-.19.32-.41.28-.31-.05-.63-.06-.92-.23-.27-.04-.54-.13-.81-.12-1.45.04-2.65-.47-3.73-1.43-.82-.73-1.79-1.28-2.59-2.02-.66-.6-1.39-.53-2.13-.48-1.33.09-2.66.24-3.98.35-.84.07-1.68.12-2.52.22-.57.07-1.08-.01-1.58-.29-1.66-.93-3.33-1.84-5.03-2.78.74-1.13,1.45-2.22,2.16-3.32.23-.35.49-.57.95-.61,1.61-.16,3.22-.4,4.84-.46.13-.12.28-.12.44-.08.11-.01.21-.02.32-.03.6-.22,1.24-.09,1.85-.22.34-.07.57-.2.73-.51.41-.78.92-1.5,1.46-2.2.48-.28,1.17-.22,1.58.13.14.12.18.24.06.38-.67.8-1.02,1.75-1.3,2.73-.09.32-.34.48-.59.5-1.22.1-2.42.37-3.65.35-.07,0-.13,0-.2,0-.56.27-1.15.24-1.74.21h-.02c-.49.15-.99.2-1.5.13-.88-.07-1.43.36-1.79,1.12-.24.5-.91.98-.72,1.45.16.39.88.59,1.38.81,1,.43,1.88,1.19,3.06,1.11,1.62-.11,3.25-.22,4.87-.33.76-.05,1.52-.07,2.28-.16.6-.08,1.05.18,1.52.48,1.14.75,2.18,1.63,3.13,2.58.99.98,2.19.72,3.35.83.04,0,.08-.02.12-.03.59-.3,1-1.96.67-2.54-.5-.89-1.1-1.7-1.72-2.5-.96-.58-1.24-1.77-.93-3.02.18-.74.42-1.48.23-2.26-.03-.14,0-.31-.22-.33.25-.14.45,0,.64.13.97.63,1.27,1.21.76,2.09-.15.25-.19.56-.13.87.11.61.08,1.22.05,1.83.06.07.11.15.17.22.15,0,.21.08.17.23.33.07.43.34.53.61.13-.01.21.04.21.18h0c.25.06.27.27.29.48.22.06.25.27.32.45.22.32.44.63.66.95.45.59.56,1.24.26,1.91ZM52.42,34.99c-.09.11-.18.01-.28-.01-.8-.17-.78-.89-1.04-1.52.61.31.92.8,1.27,1.24.06.08.13.18.05.29ZM51.38,28.62c-.79-.16-.96-.02-1.07.79-.1.72-.14,1.42.13,2.12.13.34.14.73.21,1.11-1.44-1.11-1.85-2.54-1.23-4.26.54-1.52.69-1.58,2.12-.81.58.31,1.13.66,1.32,1.46-.55-.16-1-.32-1.46-.42Z"/>
  <path d="M52.34,39.37c-.16-1.7-1.31-2.74-2.73-2.85-.11,0-.33-.02-.65-.04-.11.31-.2.62-.26.94-.05.24-.19.32-.41.28-.31-.05-.63-.06-.92-.23-.27-.04-.54-.13-.81-.12-1.26.04-2.34-.35-3.31-1.08-1.62-.05-3.38-.1-5.12-.13.89.56,1.8,1.1,2.6,1.79.18.13.36.27.68.5-.94.03-1.72.21-2.47-.17-.28-.13-.59-.22-.85-.4-.97-.68-2.02-.84-3.18-.66-1.14.18-2.32.13-3.45.41-.08.18-.22.33-.41.36-.76.1-1.52.25-2.3.16-.14-.06-.32.2-.43-.03-.08-.15.1-.24.14-.35.46-1.19,1.38-1.47,2.55-1.54.6-.03,1.19-.08,1.79-.14-2.44-.02-4.15-.01-4.15-.01,0,0-1.48,0-3.66,0-.37.64-.73,1.29-.94,2.02-.09.32-.39.52-.74.57-.42.06-.84.1-1.26.15-.79.25-2.02.35-2.36.16.69-.43,1.61-.45,2.08-1.21.04-.45.2-.86.51-1.2.08-.18.15-.34.2-.47-.87.01-1.79.02-2.73.04-5.38.11-11.33.33-12.06.38-.04,0-.08,0-.12.01-.07.26-.11.53-.1.82,0,.45.24.73.6,1.03,1.42,1.17,2.72.66,4.05-.13.53-.31,1.09-.56,1.64-.83.37-.19.69-.11,1.02.15.62.5,1.26.98,1.9,1.47.05-.05.09-.08.11.01.3-.03.42.3.7.34-.27.17-.5.36-.84.26-.97.38-1.75-.14-2.54-.56-.43-.22-.78-.21-1.18.04-.81.5-1.65.96-2.46,1.46-.35.22-.62.29-.95-.04-.75-.73-1.78-1.07-2.54-1.77-.56-.08-.67-.52-.74-.96-.04-.25-.03-.51-.03-.76,0,0,0-.02,0-.02-.42.3-.77.73-.99,1.27.03.18.07.35.14.53.53,1.46,1.48,2.6,2.9,3.28-.39.24-.58.27-1.25.2l-.18-.07s-.07-.03-.1-.04c-.68-.13-1.46-.8-1.87-1.52-.07,1.16-.17,2.86-.22,4.55-.09,2.9-.09,5.76-.09,5.76,0,0,0,2.86.09,5.76.08,2.6.25,5.22.31,5.87.16,1.7,1.31,2.74,2.73,2.85.73.06,6.67.28,12.06.38,4.67.09,8.91.07,8.91.07,0,0,4.25.02,8.91-.07,5.38-.11,11.33-.33,12.06-.38,1.42-.11,2.57-1.15,2.73-2.85.06-.65.23-3.27.31-5.87.09-2.9.09-5.76.09-5.76,0,0,0-2.86-.09-5.76-.08-2.6-.25-5.22-.31-5.87Z"/>
  <path class="cls-8" d="M44.62,45.82s-.04,0-.06-.01c-.02,0-.04-.02-.05-.04l-1.11-1.15-1.13,1.14s-.07.05-.11.05c-.04,0-.08-.02-.11-.05-.03-.03-.05-.07-.05-.11s.02-.08.05-.11l1.24-1.25s.03-.03.05-.04c.02,0,.04-.01.06-.01h0s.04,0,.06.01c.02,0,.04.02.05.04l1.23,1.27s.04.05.04.08c0,.03,0,.06,0,.09-.01.03-.03.05-.06.07-.03.02-.06.03-.09.03h0Z"/>
  <path class="cls-8" d="M43.38,49.8c.22,0,.4-.18.4-.4s-.18-.4-.4-.4-.4.18-.4.4.18.4.4.4Z"/>
  <path class="cls-8" d="M43.38,51.39c.22,0,.4-.18.4-.4s-.18-.4-.4-.4-.4.18-.4.4.18.4.4.4Z"/>
  <path class="cls-8" d="M43.38,52.99c.22,0,.4-.18.4-.4s-.18-.4-.4-.4-.4.18-.4.4.18.4.4.4Z"/>
  <path class="cls-8" d="M44.62,56.17s-.04,0-.06.01c-.02,0-.04.02-.05.04l-1.11,1.15-1.13-1.14s-.07-.05-.11-.05c-.04,0-.08.02-.11.05-.03.03-.05.07-.05.11s.02.08.05.11l1.24,1.25s.03.03.05.03c.02,0,.04.01.06.01h0s.04,0,.06-.01c.02,0,.04-.02.05-.04l1.23-1.27s.04-.05.04-.08c0-.03,0-.06,0-.09-.01-.03-.03-.05-.06-.07-.03-.02-.06-.03-.09-.03h0Z"/>
  <rect class="cls-2" x="21.47" y="43.43" width="14.94" height="14.94" rx=".4" ry=".4"/>
  <g class="cls-10">
    <g>
      <path class="cls-8" d="M27.62,50.14v-2.61c.02-.05.04-.1.07-.14l.77-.77s.01,0,.02-.01c0,0,.01,0,.02,0,0,0,.01,0,.02,0,0,0,.01,0,.02.01.2.22.31.51.31.81v3.2s0,.07-.03.1c-.02.03-.04.05-.07.07h0s-.06.03-.1.03-.07,0-.1-.03l-.84-.5s-.05-.04-.07-.07c-.02-.03-.03-.06-.03-.1h0Z"/>
      <path class="cls-8" d="M25.05,47.36l-.77-.77s0-.01-.01-.02c0,0,0-.01,0-.02,0,0,0-.01,0-.02,0,0,0-.01.01-.02.22-.2.51-.31.81-.31h2.51c.3,0,.59.11.81.31,0,0,.01.01.01.02,0,0,0,.01,0,.02,0,0,0,.01,0,.02,0,0,0,.01-.01.02l-.77.77s-.09.06-.14.06h-2.33c-.05,0-.1-.02-.14-.06h0Z"/>
      <path class="cls-8" d="M27.63,54.26v-2.61s0-.07.01-.1c.02-.03.04-.05.07-.07l.84-.5s.06-.03.1-.03.07,0,.1.03h0s.05.04.07.07c.02.03.03.06.03.1v3.2c0,.3-.11.59-.31.81,0,0-.01,0-.02.01,0,0-.01,0-.02,0,0,0-.01,0-.02,0,0,0-.01,0-.02-.01l-.77-.77s-.06-.08-.06-.13h0Z"/>
    </g>
  </g>
  <g class="cls-7">
    <g>
      <path class="cls-8" d="M33,50.14v-2.61c.02-.05.04-.1.07-.14l.77-.77s.01,0,.02-.01c0,0,.01,0,.02,0,0,0,.01,0,.02,0,0,0,.01,0,.02.01.2.22.31.51.31.81v3.2s0,.07-.03.1c-.02.03-.04.05-.07.07h0s-.06.03-.1.03-.07,0-.1-.03l-.84-.5s-.05-.04-.07-.07c-.02-.03-.03-.06-.03-.1h0Z"/>
      <path class="cls-8" d="M30.45,51.47l-.85-.5s-.02-.02-.03-.03c0-.01-.01-.03-.01-.04s0-.03.01-.04c0-.01.02-.02.03-.03l.85-.5s.06-.03.1-.03h2.36s.07,0,.1.03l.85.5s.02.02.03.03c0,.01.01.03.01.04s0,.03-.01.04c0,.01-.02.02-.03.03l-.85.5s-.06.03-.1.03h-2.36s-.07,0-.1-.03h0Z"/>
      <path class="cls-8" d="M30.43,47.36l-.77-.77s0-.01-.01-.02c0,0,0-.01,0-.02,0,0,0-.01,0-.02,0,0,0-.01.01-.02.22-.2.51-.31.81-.31h2.51c.3,0,.59.11.81.31,0,0,.01.01.01.02,0,0,0,.01,0,.02,0,0,0,.01,0,.02,0,0,0,.01-.01.02l-.77.77s-.09.06-.14.06h-2.33c-.05,0-.1-.02-.14-.06h0Z"/>
      <path class="cls-8" d="M29.62,55.16s-.01,0-.02.01c0,0-.01,0-.02,0,0,0-.01,0-.02,0,0,0-.01,0-.02-.01-.2-.22-.31-.51-.31-.81v-3.2s0-.07.03-.1c.02-.03.04-.05.07-.07h0s.06-.03.1-.03.07,0,.1.03l.84.5s.05.04.07.07c.02.03.03.06.03.1v2.61c-.02.05-.04.1-.07.14l-.77.77Z"/>
      <path class="cls-8" d="M30.47,55.58c-.3,0-.59-.11-.81-.31,0,0,0-.01-.01-.02,0,0,0-.01,0-.02,0,0,0-.01,0-.02,0,0,0-.01.01-.02l.77-.77s.09-.06.14-.06h2.33c.05,0,.1.02.14.06l.77.77s0,.01.01.02c0,0,0,.01,0,.02,0,0,0,.01,0,.02,0,0,0,.01-.01.02-.22.2-.51.31-.81.31h-2.51Z"/>
    </g>
  </g>
  <path class="cls-5" d="M23.89,40.51c.05-.04.13-.04.18.01.1.11.31.29.66.29.24,0,.56-.09.56-.38,0-.25-.27-.32-.6-.4-.47-.1-.77-.28-.77-.65,0-.31.29-.61.76-.61.33,0,.55.13.67.22.06.04.07.13.02.18h0s-.11.05-.16.02c-.1-.07-.28-.17-.53-.17-.29,0-.51.15-.51.37,0,.27.28.34.65.42.4.09.73.23.73.62,0,.41-.41.62-.82.62-.45,0-.72-.22-.84-.36-.05-.05-.04-.13.01-.18h0ZM28.03,39.91h0c0,.06-.04.1-.1.1h-1.77c.02.33.29.8.86.8.28,0,.51-.13.66-.28.05-.05.12-.04.17,0h0s.05.12,0,.17c-.21.21-.51.36-.83.36-.65,0-1.11-.52-1.11-1.14s.42-1.14,1.07-1.14c.57,0,1.05.47,1.05,1.14ZM27.78,39.78c0-.25-.22-.77-.79-.77-.6,0-.8.53-.81.77h1.6ZM30.32,39.61v1.26c0,.07-.06.12-.12.12h0c-.07,0-.12-.06-.12-.12v-1.22c0-.45-.26-.64-.61-.64-.48,0-.67.48-.67.48v1.37c0,.07-.06.12-.12.12h0c-.07,0-.12-.06-.12-.12v-1.93c0-.06.05-.11.11-.11h0c.06,0,.11.05.11.11v.28s.21-.45.74-.45c.4,0,.81.25.81.84ZM30.93,40.51c.05-.04.13-.04.18.01.1.11.31.29.66.29.24,0,.56-.09.56-.38,0-.25-.27-.32-.6-.4-.47-.1-.77-.28-.77-.65,0-.31.29-.61.76-.61.33,0,.55.13.67.22.06.04.07.13.02.18h0s-.11.05-.16.02c-.1-.07-.28-.17-.53-.17-.29,0-.51.15-.51.37,0,.27.28.34.65.42.4.09.73.23.73.62,0,.41-.41.62-.82.62-.45,0-.72-.22-.84-.36-.05-.05-.04-.13.01-.18h0ZM33.19,38.95v1.92c0,.07.06.12.12.12h0c.07,0,.12-.06.12-.12v-1.92c0-.07-.06-.12-.12-.12h0c-.07,0-.12.06-.12.12Z"/>
  <path class="cls-9" d="M4.47,29.3s0,0,0-.01c0,0,0,0,0,.01Z"/>
  <path class="cls-9" d="M53.83,30.66s.04.08.06.12c-.02-.04-.04-.08-.06-.12Z"/>
  <path class="cls-9" d="M53.74,30.39s.02.08.03.12c-.01-.04-.02-.08-.03-.12Z"/>
  <path class="cls-9" d="M53.78,30.53s.02.07.03.1c-.01-.03-.02-.06-.03-.1Z"/>
  <path class="cls-9" d="M53.71,30.12s0,.07,0,.11c0-.04,0-.07,0-.11Z"/>
  <path class="cls-9" d="M53.7,30.01s0,.04,0,.06c0-.02,0-.04,0-.06Z"/>
  <path class="cls-9" d="M53.72,30.27s0,.06.01.09c0-.03,0-.06-.01-.09Z"/>
  <path class="cls-9" d="M53.81,30.63s0,.02.01.03c0-.01,0-.02-.01-.03Z"/>
  <path class="cls-9" d="M53.77,30.51s0,.01,0,.02c0,0,0-.01,0-.02Z"/>
  <path class="cls-9" d="M53.74,30.36s0,.02,0,.03c0-.01,0-.02,0-.03Z"/>
  <path class="cls-9" d="M53.72,30.23s0,.02,0,.04c0-.01,0-.02,0-.04Z"/>
  <path class="cls-9" d="M53.71,30.07s0,.04,0,.06c0-.02,0-.04,0-.06Z"/>
  <path class="cls-9" d="M4.36,29.6c.04-.1.07-.2.11-.3-.04.1-.07.2-.11.3Z"/>
  <path class="cls-3" d="M53.58,29.3c-.15-.29-.31-.57-.48-.85-.39-.44-.81-.85-1.26-1.23-1.19-.81-2.48-1.43-3.79-2.01-3.12-1.26-6.36-2.24-9.69-2.77-2.53-.27-5.07-.23-7.61-.04-2.48.19-4.98.42-7.46.72-2.28.35-4.51.94-6.74,1.54-1.16.31-2.32.63-3.49.91-.6.14-1.21.33-1.84.49-.46.25-.96.44-1.48.55-.73.47-1.56.78-2.42.85-.31.18-.62.38-.92.59-.59.41-1.19.72-1.82.96-.04.1-.07.19-.11.29,0,0,0,0,0,.01-.04.1-.07.2-.11.3-.5,1.42-.91,2.83-.51,4.4.29,1.14.36,2.32-.11,3.49-.21.53-.32,1.17-.06,1.72.57,1.2.56,2.49.62,3.76.15.34.41.57.68.78.8-.13,1.61-.23,2.42-.31,1.02-.42,2.04-.6,3.13-.75.37-.06.74-.14,1.1-.28-.14.06-.28.12-.41.17.02,0,.04,0,.06,0,.97-.38,1.93-.68,2.97-.92,1.37-.6,2.75-1.17,4.21-1.47.22-.04.43-.08.64-.1.07-.12.22-.2.37-.23.84-.18,1.66-.5,2.55-.43,1.54-.32,3.1-.5,4.66-.4.09-.02.17-.05.26-.07.51-.13,1.02-.19,1.52-.18-.03-.01-.06-.03-.09-.04.58-.07,1.04-.17,1.51-.18,1.81-.05,3.6-.2,5.43-.01,1.97.2,3.98.27,5.97.37,2.07.1,4.05.64,5.98,1.37.3.11.59.25.84.46.18.07.37.15.55.24.12.03.23.06.35.09.66.21,1.31.51,1.94.8.21.1.41.21.61.32.02,0,.04.02.06.03,0,0,0-.01.01-.02,0-.08,0-.16-.01-.24-.07-.07-.12-.16-.08-.27-.48-.7-.49-1.54-.67-2.33,0-.97-.11-1.1-.8-1-.02.49.25.9.35,1.36.06.26,0,.54,0,.81,0,.07-.04.1-.11.09l-.03.03c0,.08-.03.11-.1.08l-.35.21c-.36.35-.63.16-.88-.15-.43-.29-.87-.57-1.3-.87-.09-.07-.32-.08-.2-.29.45.14.96-.02,1.38.28.25,0,.49,0,.74,0,.09-.09.19-.17.28-.26-.08-.07-.12-.14,0-.21,0,0,.01-.05.01-.05,0-.05,0-.09,0-.14-.01-.06-.02-.13-.04-.19-.3-.25-.35-.59-.34-.95-.01-.04-.02-.08-.03-.12-.02-.05-.04-.09-.06-.14-.29-.49-.16-.83.47-1.24.54-.2.91.22,1.34.39.93.28,1.03.34.62,1.18-.54,1.09-.53,2.1.06,3.13.25.39.28.77.1,1.06.2.09.39.18.59.28.16-.36.08-.76,0-1.14-.14-.73-.1-1.46.26-2.1.42-.73.68-1.5.87-2.3.19-.79.28-1.59-.17-2.34-.12-.2-.21-.44-.04-.66.8-1.04.55-2.2.41-3.35-.02-.04-.04-.08-.06-.12,0-.01,0-.02-.01-.03-.01-.03-.02-.06-.03-.1,0,0,0-.01,0-.02-.01-.04-.02-.08-.03-.12,0-.01,0-.02,0-.03,0-.03,0-.06-.01-.09,0-.01,0-.02,0-.04,0-.04,0-.07,0-.11,0-.02,0-.04,0-.06,0-.02,0-.04,0-.06,0-.1,0-.21-.01-.31-.04-.13-.08-.27-.12-.4ZM25.3,23.72c.17.07.38.07.56.04,1.62-.2,3.23-.44,4.85-.62.72-.08,1.42-.29,2.16-.25.17,0,.37-.07.48.09.13.18-.08.3-.15.44-.21.45-.56.61-1.05.67-2.13.29-4.26.61-6.39.95-.33.05-.65.04-.93-.07-.77-.29-1.51-.64-2.37-1.17,1.07-.16,1.94-.44,2.85-.07ZM25.26,35.59c-.46.79-.95,1.58-1.21,2.49-.09.32-.39.52-.74.57-.42.06-.84.1-1.26.15-.79.25-2.02.35-2.36.16.69-.43,1.61-.45,2.08-1.21.04-.45.2-.86.51-1.2.51-1.16.52-1.17-.63-1.75-.96-.49-1.93-.95-2.9-1.42-.72-.34-.72-.35-.33-1.06.05-.09.11-.18.16-.27.04-.08.08-.16.11-.23v-.02c.26-.99.88-1.81,1.34-2.71.26-.52.24-.85-.27-1.13-.24-.13-.51-.25-.69-.45-.83-.89-1.73-.66-2.66-.24-.35.16-.69.36-1.06.42-1.07.18-1.51.94-1.86,1.85-.42,1.09-.96,2.11-1.55,3.12-.02.32-.33.36-.53.48-.89.57-1.83,1.08-2.68,1.7-.82.6-1.28,1.46-1.28,2.5,0,.45.24.73.6,1.03,1.42,1.17,2.72.66,4.05-.13.53-.31,1.09-.56,1.64-.83.37-.19.69-.11,1.02.15.62.5,1.26.98,1.9,1.47.05-.05.09-.08.11.01.3-.03.42.3.7.34-.27.17-.5.36-.84.26-.97.38-1.75-.14-2.54-.56-.43-.22-.78-.21-1.18.04-.81.5-1.65.96-2.46,1.46-.35.22-.62.29-.95-.04-.75-.73-1.78-1.07-2.54-1.77-.56-.08-.67-.52-.74-.96-.04-.25-.03-.51-.03-.76,0-.42-.18-.52-.54-.32-.57.63-.57,1.38-.31,2.09.53,1.46,1.48,2.6,2.9,3.28-.39.24-.58.27-1.25.2l-.18-.07s-.07-.03-.1-.04c-.95-.19-2.1-1.42-2.16-2.37-.02-.32-.11-.61-.22-.91-.2-.57-.25-1.15.09-1.71.36-.6.43-1.23.1-1.87-.26-.19-.57-.36-.25-.74-.11-.42.19-.63.45-.86.15-.26.16-.55.17-.84-.13-.29-.38-.54-.29-.89-.26-.65-.13-1.21.42-1.66h0c.28-.42.42-.4.72.1.55.41,1.11.43,1.67.01.13-.1.29-.17.43-.26,1.04-.67,1.03-.67.67-1.84-.07-.22-.33-.5-.06-.69.35-.26.76-.46,1.17-.61.19-.07.17.2.19.32.06.61.12,1.22.14,1.83.03.97-.37,1.6-1.32,1.97-.86.33-1.63.88-2.45,1.32-.12.09-.25.17-.37.26l-.36.42c-.14.29-.33.52-.64.65.07.25.13.5.2.75.24.04.43.15.53.38.03.04.06.07.09.11.3.07.33.36.45.57.08.14.11.36.33.33.2-.02.25-.21.3-.37.01-.04.05-.08.05-.12.2-1.51,1.52-1.94,2.56-2.63.44-.29.9-.54,1.37-.78.25-.13.32-.37.44-.6.34-.69.51-1.47,1.01-2.08,0-.03.01-.05.02-.08.01-.66.34-1.24.51-1.86.07-.27.29-.39.56-.41,1.43-.53,2.86-1.04,4.28-1.58.52-.2.97-.17,1.44.11,1.16.7,2.33,1.39,3.51,2.05.35.19.32.38.14.64-.79,1.08-1.43,2.24-2.12,3.38-.19.68.04.93.95,1.29,1.17.46,2.34.94,3.47,1.52.5.26.7.54.36,1.12ZM38.94,38.27c-.28-.13-.59-.22-.85-.4-.97-.68-2.02-.84-3.18-.66-1.14.18-2.32.13-3.45.41-.08.18-.22.33-.41.36-.76.1-1.52.25-2.3.16-.14-.06-.32.2-.43-.03-.08-.15.1-.24.14-.35.46-1.19,1.38-1.47,2.55-1.54,1.87-.11,3.74-.33,5.6-.52.46-.05.86.04,1.25.29.98.62,1.98,1.2,2.87,1.96.18.13.36.27.68.5-.94.03-1.72.21-2.47-.17ZM49.54,35.05c-.35.77-.68,1.54-.85,2.37-.05.24-.19.32-.41.28-.31-.05-.63-.06-.92-.23-.27-.04-.54-.13-.81-.12-1.45.04-2.65-.47-3.73-1.43-.82-.73-1.79-1.28-2.59-2.02-.66-.6-1.39-.53-2.13-.48-1.33.09-2.66.24-3.98.35-.84.07-1.68.12-2.52.22-.57.07-1.08-.01-1.58-.29-1.66-.93-3.33-1.84-5.03-2.78.74-1.13,1.45-2.22,2.16-3.32.23-.35.49-.57.95-.61,1.61-.16,3.22-.4,4.84-.47.13-.12.28-.12.44-.08.11-.01.21-.02.32-.03.6-.22,1.24-.09,1.85-.22.34-.07.57-.2.73-.51.41-.78.92-1.5,1.46-2.2.48-.28,1.17-.22,1.58.13.14.12.18.24.06.38-.67.8-1.02,1.75-1.3,2.73-.09.32-.34.48-.59.5-1.22.1-2.42.37-3.65.35-.07,0-.13,0-.2,0-.56.27-1.15.24-1.74.21h-.02c-.49.15-.99.2-1.5.13-.88-.07-1.43.36-1.79,1.12-.24.5-.91.98-.72,1.45.16.39.88.59,1.38.81,1,.43,1.88,1.19,3.06,1.11,1.62-.11,3.25-.22,4.87-.33.76-.05,1.52-.07,2.28-.16.6-.08,1.05.18,1.52.48,1.14.75,2.18,1.63,3.13,2.58.99.98,2.19.72,3.35.83.04,0,.08-.02.12-.03.59-.3,1-1.96.67-2.54-.5-.89-1.1-1.7-1.72-2.5-.96-.58-1.24-1.77-.93-3.02.18-.74.42-1.48.23-2.26-.03-.14,0-.31-.22-.33.25-.14.45,0,.64.13.97.63,1.27,1.21.76,2.09-.15.25-.19.56-.13.87.11.61.08,1.22.05,1.83.06.07.11.15.17.22.15,0,.21.08.17.23.33.07.43.34.53.61.13-.01.21.04.21.18h0c.25.06.27.27.29.48.22.06.25.27.32.45.22.32.44.63.66.95.45.59.56,1.24.26,1.91ZM52.42,34.99c-.09.11-.18.01-.28-.01-.8-.17-.78-.89-1.04-1.52.61.31.92.8,1.27,1.24.06.08.13.18.05.29ZM51.38,28.62c-.79-.16-.96-.02-1.07.79-.1.72-.14,1.42.13,2.12.13.34.14.73.21,1.11-1.44-1.11-1.85-2.54-1.23-4.26.54-1.52.69-1.58,2.12-.81.58.31,1.13.66,1.32,1.46-.55-.16-1-.32-1.46-.42Z"/>
  <path class="cls-9" d="M19.99,7.06s.02,0,.03.01c-.02-.02-.03-.03-.05-.05,0,.01,0,.03.01.04Z"/>
  <path class="cls-9" d="M5.07,27.13s-.01.03-.02.04c.02-.01.03-.03.05-.04-.01,0-.03,0-.03,0Z"/>
  <path class="cls-9" d="M55.31,19.89s-.01.01-.01.01c0,0,.01,0,.02,0,0,0,0,0-.01-.01Z"/>
  <path class="cls-9" d="M55.36,19.92s-.02,0-.03-.01c.01.02.03.03.04.05,0-.01,0-.04,0-.04Z"/>
  <g>
    <path class="cls-4" d="M53.69,29.75c0,.09,0,.17,0,.26,0-.09,0-.17,0-.26Z"/>
    <path class="cls-4" d="M53.69,29.7s0,0,0,0c0,.02,0,.03,0,.05,0-.02,0-.03,0-.05Z"/>
    <path class="cls-4" d="M54.49,21.5c.9.4,1.57,1.12,2.34,1.69,0-.63-.61-.83-.88-1.26-.06-.04-.12-.09-.18-.13-.04,0-.06-.02-.07-.06-.41-.31-.69-.76-1.27-1.06.68-.05,1.01.31,1.4.57.14-.19-.06-.25-.13-.36-.25-.42-.74-.6-1.04-.98-.05-.02-.13-.02-.09-.1,0-.02.1.01.16.02.19.02.38.04.56.06-.19-.45-.74-.38-1.11-.73.36-.03.63-.05.9-.07.02-.04.04-.09.06-.13-.87-.61-1.74-1.22-2.62-1.83.25-.14.54.11.73-.15-1.23-.98-2.59-1.73-3.99-2.43,1.51.14,2.6,1.25,4.05,1.81-.35-.72-.9-1.05-1.51-1.44.66.03,1.05.49,1.57.63-.11-.31-.46-.36-.65-.58-.58-.32-1.16-.64-1.81-1,.55-.17.84.38,1.3.28-.08-.34-.44-.34-.59-.56.11-.18.33.03.44-.12-.2-.51-.76-.38-1.11-.62-.4-.28-.43-.24,0-.58-.69-.48-1.53-.47-2.36-.73.45-.37.96-.02,1.34-.29-.62-.17-1.16-.47-1.61-.93.13-.21.34-.08.51-.1.23-.03.15-.14.09-.25-.99-.23-2.06-.04-3.03-.6.64-.16,1.25-.26,1.87-.18,0,0,0,0,0,0,.19-.22,0-.21-.14-.24-1-.23-2.01-.15-3.02-.13-.17,0-.34,0-.51,0-.11,0-.27.07-.3-.12-.02-.13.04-.27.17-.31.52-.16.95-.52,1.51-.56.03-.02.07-.04.11-.05.07-.11.17-.12.28-.09.07-.01.15-.02.22-.03-.16-.03-.32-.07-.49-.1-.04,0-.07.01-.11.02-.15.15-.34.14-.53.11-.32.08-.63.15-1.03.25.68-.91,1.43-1.62,2.31-2.19.02-.3-.19-.24-.37-.24-.72.33-1.4.73-1.95,1.28-.87.87-1.9,1.3-3.1,1.38-.68.05-1.34.19-1.96.47-.11.05-.18.07-.28,0-.19-.14.03-.19.06-.28.51-1.43,1.74-2.03,2.99-2.61.27-.26.75-.2.92-.61-.58-.34-1.07.16-1.62.18.22-.48.91-.19,1.09-.7-.43-.34-.85-.2-1.27.02-.58.3-1.16.59-1.74.91-.47.25-.92.53-1.38.79.42-.6.82-1.17,1.24-1.83-.22.1-.35.16-.47.22-.07.06-.16.2-.22.13-.1-.11.06-.17.14-.23-.23-.08-.25-.1-.42.1-.5.58-1.26.8-1.81,1.39-.12-.56-.06-1.02-.03-1.48-.17-.33-.23.12-.4.03,0-.55.35-.97.61-1.43-.09-.13-.17-.25-.26-.38-.25-.09-.45-.01-.73.26.15-.46.46-.71.51-1.16-.39.22-.72.5-1.15.51,0,0,0,0,0,0-.41.49-.81.98-1.29,1.55-.01-.66.38-1.06.5-1.55-.04,0-.08-.01-.11-.04-.54.42-1.36.34-1.75,1.05-.32.57-.73,1.08-1.19,1.75.11-.73.4-1.21.68-1.7.13-.22.24-.44.38-.65.15-.22.15-.35-.02-.6-.23-.32-.36.01-.52,0-.49.23-.77.74-1.28.96-.16.51-.69.71-.95,1.14.17-.6.46-1.12.94-1.53.12-.31.55-.45.52-.9-.17.05-.32.1-.47.14-.62.44-1.19.93-1.74,1.46-.51.51-1.08.96-1.64,1.4-.57.44-.78.35-.92-.36-.05-.27-.07-.55-.04-.82.06-.59-.43-.75-.78-.97-.19-.12-.46-.14-.53.27-.1.52-.15,1.06-.43,1.6-.24-.52-.03-1.02-.19-1.45-.11-.29.09-.8-.22-.85-.43-.07-.53.46-.75.75-.17.22-.13.69-.48.67-.27-.02-.21-.47-.41-.7-.07.25-.13.48-.2.76-.2-.34-.11-.76-.49-1,0,.52.01.97,0,1.43,0,.09-.02.28-.19.26-.05,0-.08-.16-.08-.18-.37-.03.11.9-.61.42,0,.07-.02.15,0,.22.02.13.06.25-.06.39-.62-.31-.88-1.13-1.74-1.29.38.5.82.85,1.07,1.46-.53-.25-.84-.7-1.46-.75.44.59,1.01.93,1.34,1.47.14.08.25.18.28.35.14.05.22.14.22.3-.16,0-.24-.09-.27-.24-.15-.07-.25-.19-.3-.35-.56-.28-.84-.91-1.42-1.16-.45-.19-.97-.02-1.45-.29-.55-.31-1.22-.32-1.85-.36-.61-.03-1.21-.04-1.86-.16.07.09.08.14.12.15.14.05.28.1.43.12,2.41.48,4.19,1.84,5.49,3.89.2.32.31.63.2,1.02-.91-.25-1.49-.91-2.13-1.48-.08.35.38.49.33.88-2.02-.82-3.89-2.06-6.17-2,.52.28,1.06.51,1.6.71.31.12.28.36.29.6.02.38-.27.12-.4.19-.39.2-.91-.06-1.24.34l.28.09c-.12.15-.24.07-.36,0-.12.33-.38.35-.67.29-.08-.02-.17-.04-.25-.05-.99-.08-1.92.07-2.8.66.64.26,1.28.13,1.9.41-.38.03-.72.05-1.2.08.69.33,1.37.22,1.86.67-.26.12-.56.08-.82.33.47.14.92.24,1.3.57-.68.11-1.31.2-1.93.32-.11.02-.39.1-.26.21.36.33.02.23-.12.23-.55,0-.86.31-1.12.77,1.7-.33,2.23-.31,2.69.13-.98.24-1.9.54-2.64,1.43.67-.1,1.2-.44,1.93-.28-1.05.66-2.05,1.1-3.07,1.56h.59c-1.35.64-2.6,1.36-3.47,2.73.46-.26.84-.48,1.22-.69.1-.18.24-.28.5-.33-.08.27-.27.32-.47.37-.44.73-1.3,1.14-1.58,2.21.73-.67,1.29-1.3,2.12-1.57-1.09,1.17-2.23,2.27-2.76,3.83.46-.34.65-.93,1.17-1.2.04-.04.08-.09.12-.13.04-.04.09-.08.13-.12.07-.22.18-.4.49-.48-.07.31-.28.39-.46.51-.04.05-.07.1-.11.15-.04.04-.08.09-.13.13-.1.54-.45.96-.71,1.41-.28.48.07.94-.13,1.39-.1.23-.12.48-.06.71.14.14.24-.43.36,0,.03.11.1.22.2.2.13-.03.15-.17.19-.3.16-.44.28-.92.74-1.16.02.18-.08.37.06.61.71-.77,1.15-1.85,2.43-2.04-.49.52-1.12.78-1.34,1.42-.17.1-.34.2-.28.51.22-.16.33-.29.29-.51.28.03.38-.23.56-.37.4-.31.82-.56,1.4-.49-1.69,1.22-2.34,1.89-2.55,2.68.47-.24.78-.66,1.31-.77-.73,1.31-2.15,2.06-2.51,3.69.57-.62.87-1.36,1.66-1.55-.02.76-.31,1.43-.57,2.12.04-.1.07-.19.11-.29.63-.23,1.23-.54,1.82-.96.3-.21.61-.41.92-.59.86-.07,1.68-.38,2.42-.85.52-.12,1.02-.3,1.48-.55.62-.16,1.24-.35,1.84-.49,1.17-.28,2.33-.59,3.49-.91,2.23-.6,4.46-1.19,6.74-1.54,2.48-.3,4.98-.54,7.46-.72,2.54-.19,5.08-.23,7.61.04,3.33.54,6.57,1.52,9.69,2.77,1.31.58,2.6,1.2,3.79,2.01.44.38.87.8,1.26,1.23.18.28.33.56.48.85.04.13.08.26.12.4,0-.15-.02-.29-.06-.43.21.45.48.86.52,1.35.03.03.05.07.08.09,0,0,.05,0,.05-.01,0-.12,0-.25,0-.37,0-.71-.37-1.36-.4-2.25.27.48.45.8.63,1.13.07-1.4-.67-2.52-1.42-3.76.56.21.68.66.97.93.2-.16-.16-.28.03-.49.55.84.66,1.8.96,2.7.23.16.01.48.24.64h.03c-.02-.3-.03-.61-.05-.92-.02-.11-.04-.23-.07-.34.08-.3.16-.13.24,0,.14.26.08.59.31.85.1-.58-.18-1.08-.24-1.6,0,0,0,0,0,0-.36-.67-.6-1.4-1.1-2.01.38.02.57.29.78.52.22.25.42.52.64.78.13.15.2.11.2-.08-.04-.08-.08-.16-.12-.23-.17-.3-.35-.6-.52-.9,0,0,0,0,0,0-.49-.55-.98-1.1-1.46-1.64,1.07-.02,1.87.53,2.56,1.28,0,0,.02.02.02.02.41-.13-.09-.22-.02-.34-.03,0-.05-.02-.05-.05-.74-.77-1.75-1.22-2.53-2.06,1.14.31,1.92,1.11,2.88,1.6.04-.22-.25-.28-.24-.49-.62-.78-1.48-1.31-2.1-2.1ZM4.03,23.97c0-.05.01-.1.02-.15.02.01.05.02.07.03-.03.04-.06.08-.09.12ZM4.26,23.52s-.02,0-.04.01c.02-.02.03-.03.05-.05,0,.01,0,.03-.01.04ZM4.42,23.34c.01-.05.02-.1.03-.16.12.08.02.11-.03.16ZM5.11,17.95l-.02-.04h.04s-.02.04-.02.04ZM5.05,27.17s0-.03.02-.04c0,0,.02,0,.03,0-.02.01-.03.03-.05.04ZM19.99,7.06s-.01-.03-.01-.04c.02.02.03.03.05.05-.01,0-.03,0-.03-.01ZM51.88,17.58c.37.09.63.34.85.66-.31-.19-.62-.37-.94-.56-.18-.09-.36-.19-.69-.36.44-.05.61.08.78.26ZM51.72,22.66c.52.02.82.4,1.19.67-.54.03-.78-.47-1.19-.67ZM52.88,23.48c-.06-.07-.07-.13.03-.16.02.05.04.11.05.16-.03,0-.07.01-.08,0Z"/>
    <path class="cls-4" d="M4.29,25.92s-.04.07-.03.09c.02.03.06.05.09.07.01-.04.02-.07.03-.11-.03-.02-.07-.04-.1-.05Z"/>
  </g>
  <path class="cls-9" d="M16.74,8.14c.05,0,.1.01.16.02-.05-.04-.08-.15-.16-.02Z"/>
  <path class="cls-9" d="M16.92,8.16h-.02s0,0,.02,0c0,0,0,0,0,0Z"/>
  <path class="cls-6" d="M49.54,35.05c-.35.77-.68,1.54-.85,2.37-.05.24-.19.32-.41.28-.31-.05-.63-.06-.92-.23"/>
  <path class="cls-8" d="M47.37,37.48c.28.17.6.18.92.23.22.03.36-.04.41-.28.17-.83.5-1.6.85-2.37"/>
  <g>
    <path class="cls-8" d="M37.86,35.98c-.39-.25-.8-.34-1.25-.29-1.87.19-3.73.41-5.6.52-1.16.07-2.09.35-2.55,1.54-.04.11-.22.2-.14.35.11.23.29-.03.43.03.78.1,1.54-.06,2.3-.16.19-.02.33-.17.41-.36,1.13-.28,2.31-.23,3.45-.41,1.16-.18,2.21-.02,3.18.66.25.18.56.27.85.4.75.38,1.53.2,2.47.17-.32-.23-.5-.37-.68-.5-.89-.76-1.89-1.33-2.87-1.96Z"/>
    <path class="cls-8" d="M24.9,34.47c-1.13-.58-2.29-1.05-3.47-1.52-.91-.36-1.14-.61-.95-1.29.68-1.14,1.33-2.31,2.12-3.38.19-.26.21-.44-.14-.64-1.18-.66-2.35-1.35-3.51-2.05-.48-.29-.92-.31-1.44-.11-1.42.55-2.85,1.06-4.28,1.58-.27.03-.49.14-.56.41-.16.62-.49,1.2-.51,1.86,0,.03,0,.05-.02.08-.51.61-.67,1.38-1.01,2.08-.11.23-.18.46-.44.6-.46.25-.93.49-1.37.78-1.04.69-2.36,1.12-2.56,2.63,0,.04-.04.08-.05.12-.06.16-.11.35-.3.37-.22.02-.25-.2-.33-.33-.13-.21-.15-.5-.45-.57-.03-.04-.06-.07-.09-.11-.1-.24-.29-.35-.53-.38-.07-.25-.13-.5-.2-.75.3-.13.5-.36.64-.65l.36-.42c.12-.09.25-.17.37-.26.81-.45,1.59-.99,2.45-1.32.96-.37,1.36-1,1.32-1.97-.02-.61-.08-1.22-.14-1.83-.01-.12,0-.4-.19-.32-.41.15-.81.35-1.17.61-.27.19,0,.47.06.69.37,1.17.38,1.17-.67,1.84-.14.09-.3.16-.43.26-.56.42-1.12.4-1.67-.01-.29-.5-.43-.52-.72-.1h0c-.55.45-.68,1.01-.42,1.66-.09.36.16.61.29.89-.01.29-.03.58-.17.84-.26.23-.56.44-.45.86-.33.38-.02.55.25.74.33.64.26,1.27-.1,1.87-.34.56-.28,1.14-.09,1.71.1.3.2.58.22.91.06.95,1.21,2.18,2.16,2.37.03.01.07.03.1.04l.18.07c.67.07.86.04,1.25-.2-1.43-.68-2.37-1.82-2.9-3.28-.26-.71-.26-1.46.31-2.09.36-.2.54-.1.54.32,0,.25-.01.51.03.76.07.44.17.89.74.96.77.71,1.8,1.04,2.54,1.77.33.33.6.25.95.04.81-.5,1.65-.96,2.46-1.46.4-.25.75-.26,1.18-.04.79.41,1.57.93,2.54.56.33.1.57-.1.84-.26-.29-.04-.4-.38-.7-.34-.02-.09-.06-.06-.11-.01-.63-.49-1.28-.97-1.9-1.47-.32-.26-.64-.34-1.02-.15-.55.27-1.12.52-1.64.83-1.33.79-2.63,1.3-4.05.13-.36-.3-.6-.58-.6-1.03,0-1.05.46-1.91,1.28-2.5.85-.62,1.79-1.13,2.68-1.7.2-.13.5-.16.53-.48.59-1.01,1.13-2.03,1.55-3.12.35-.9.78-1.66,1.86-1.85.37-.06.71-.27,1.06-.42.94-.42,1.84-.65,2.66.24.18.2.45.31.69.45.52.28.54.61.27,1.13-.45.9-1.08,1.72-1.34,2.71v.02c-.04.08-.07.16-.11.23-.05.09-.11.18-.16.27-.4.71-.39.72.33,1.06.97.47,1.94.93,2.9,1.42,1.15.58,1.14.59.63,1.75-.31.34-.47.75-.51,1.2-.47.75-1.38.78-2.08,1.21.34.19,1.57.09,2.36-.16.42-.05.84-.09,1.26-.15.35-.05.65-.24.74-.57.26-.9.75-1.69,1.21-2.49.34-.58.14-.86-.36-1.12Z"/>
    <path class="cls-8" d="M50.64,32.64c-.07-.38-.08-.77-.21-1.11-.27-.7-.23-1.4-.13-2.12.11-.81.28-.95,1.07-.79.46.1.92.26,1.46.42-.18-.81-.74-1.15-1.32-1.46-1.43-.77-1.58-.71-2.12.81-.61,1.72-.21,3.15,1.23,4.26Z"/>
    <path class="cls-8" d="M25.76,25.04c2.13-.34,4.26-.66,6.39-.95.49-.07.85-.22,1.05-.67.06-.14.28-.26.15-.44-.11-.15-.31-.08-.48-.09-.73-.04-1.44.17-2.16.25-1.62.18-3.23.42-4.85.62-.18.02-.4.02-.56-.04-.9-.37-1.78-.08-2.85.07.86.53,1.61.88,2.37,1.17.28.11.6.13.93.07Z"/>
    <path class="cls-8" d="M48.69,37.43c.17-.83.5-1.6.85-2.37.3-.67.19-1.32-.26-1.91-.22-.32-.44-.63-.66-.95-.07-.18-.09-.38-.32-.45-.03-.2-.04-.41-.29-.48h0c0-.14-.08-.19-.21-.18-.1-.27-.21-.53-.53-.61.04-.15-.02-.22-.17-.23-.06-.07-.11-.15-.17-.22.03-.61.06-1.22-.05-1.83-.05-.3-.01-.61.13-.87.51-.88.21-1.46-.76-2.09-.19-.13-.39-.27-.64-.13.21.02.18.19.22.33.2.78-.04,1.52-.23,2.26-.31,1.25-.03,2.44.93,3.02.62.8,1.22,1.62,1.72,2.5.33.58-.09,2.24-.67,2.54-.04.02-.08.04-.12.03-1.16-.1-2.36.15-3.35-.83-.96-.95-2-1.83-3.13-2.58-.46-.3-.91-.56-1.52-.48-.75.1-1.52.11-2.28.16-1.62.11-3.25.22-4.87.33-1.18.08-2.06-.68-3.06-1.11-.5-.22-1.22-.42-1.38-.81-.19-.47.48-.94.72-1.45.36-.76.91-1.19,1.79-1.12.51.07,1.01.01,1.5-.13h.02c.59.04,1.19.06,1.74-.21.07,0,.13,0,.2,0,1.23.02,2.43-.25,3.65-.35.25-.02.5-.18.59-.5.28-.98.63-1.93,1.3-2.73.12-.14.08-.26-.06-.38-.4-.35-1.09-.41-1.58-.13-.54.69-1.05,1.42-1.46,2.2-.16.31-.39.44-.73.51-.61.13-1.25,0-1.85.22-.11.01-.21.02-.32.03-.16-.04-.31-.04-.44.08-1.62.07-3.23.31-4.84.46-.46.04-.72.27-.95.61-.71,1.1-1.43,2.19-2.16,3.32,1.7.94,3.37,1.86,5.03,2.78.5.28,1.01.36,1.58.29.84-.1,1.68-.14,2.52-.22,1.33-.12,2.65-.26,3.98-.35.75-.05,1.47-.12,2.13.48.81.73,1.78,1.29,2.59,2.02,1.08.96,2.28,1.47,3.73,1.43.27,0,.54.08.81.12.28.17.6.18.92.23.22.03.36-.04.41-.28Z"/>
    <path class="cls-8" d="M51.1,33.46c.26.63.24,1.34,1.04,1.52.1.02.19.12.28.01.08-.1.01-.21-.05-.29-.35-.44-.66-.93-1.27-1.24Z"/>
    <path class="cls-8" d="M51.8,38.2c.42-.84.32-.9-.62-1.18-.44-.17-.8-.59-1.34-.39-.64.41-.76.74-.47,1.24.02.05.04.09.06.14,0,.04.02.08.03.12,0,.36.04.7.34.95.01.06.02.13.04.19,0,.05,0,.09,0,.14,0,0-.01.05-.01.05-.13.07-.08.14,0,.21-.09.09-.19.17-.28.26-.25,0-.49,0-.74,0-.42-.3-.93-.14-1.38-.28-.12.21.11.23.2.29.43.3.86.58,1.3.87.25.31.52.5.88.15l.35-.21c.08.03.11,0,.1-.08l.03-.03c.07.02.11-.01.11-.09,0-.27.06-.55,0-.81-.1-.46-.37-.87-.35-1.36.69-.1.79.03.8,1,.18.79.19,1.63.67,2.33-.04.11,0,.19.08.27v.24s0,.01,0,.02l.35.16c.17-.29.14-.67-.1-1.06-.59-1.03-.6-2.04-.06-3.13Z"/>
  </g>
  <path class="cls-8" d="M49.54,35.05c-.35.77-.68,1.54-.85,2.37-.05.24-.19.32-.41.28-.31-.05-.63-.06-.92-.23"/>
  <path class="cls-8" d="M49.54,35.05c-.35.77-.68,1.54-.85,2.37-.05.24-.19.32-.41.28-.31-.05-.63-.06-.92-.23"/>
</svg>