# Blender 3.6.2
# www.blender.org
mtllib Dice.mtl
o d20
v -0.029426 0.062691 0.007759
v -0.029445 0.062685 0.005828
v -0.027997 0.061561 0.005221
v -0.027084 0.060872 0.006777
v -0.027967 0.061571 0.008345
v -0.029578 0.062634 0.006795
v -0.028706 0.061459 0.006791
v -0.028821 0.062035 0.005450
v -0.027569 0.061074 0.005953
v -0.027553 0.061079 0.007609
v -0.028795 0.062043 0.008130
v 0.013470 0.060734 0.029667
v 0.015277 0.061414 0.029648
v 0.015511 0.062532 0.031204
v 0.013848 0.062544 0.032185
v 0.012587 0.061433 0.031236
v 0.014427 0.060931 0.029657
v 0.014299 0.061313 0.031064
v 0.015509 0.061884 0.030472
v 0.014752 0.062484 0.031818
v 0.013201 0.061901 0.031835
v 0.013001 0.060941 0.030500
v -0.023783 0.089672 0.045293
v -0.022324 0.088551 0.045879
v -0.021063 0.089662 0.046829
v -0.021742 0.091470 0.046830
v -0.023423 0.091475 0.045881
v -0.023152 0.089024 0.045664
v -0.022722 0.090070 0.046593
v -0.021710 0.089019 0.046478
v -0.021401 0.090567 0.046982
v -0.022653 0.091528 0.046479
v -0.023735 0.090575 0.045665
v -0.045832 0.106275 0.005847
v -0.045813 0.106281 0.007777
v -0.045454 0.108085 0.008365
v -0.045250 0.109194 0.006797
v -0.045484 0.108075 0.005241
v -0.045966 0.106225 0.006814
v -0.046083 0.107684 0.006810
v -0.045765 0.107184 0.008149
v -0.045466 0.108728 0.007629
v -0.045482 0.108723 0.005973
v -0.045791 0.107176 0.005469
v -0.023088 0.088297 -0.032590
v -0.024536 0.089422 -0.031983
v -0.024187 0.091221 -0.032588
v -0.022525 0.091209 -0.033570
v -0.021846 0.089402 -0.033571
v -0.023912 0.088771 -0.032361
v -0.023500 0.089812 -0.033305
v -0.024495 0.090322 -0.032361
v -0.023428 0.091270 -0.033202
v -0.022187 0.090305 -0.033723
v -0.022485 0.088761 -0.033203
v 0.014823 0.061263 -0.016918
v 0.013016 0.060583 -0.016898
v 0.012103 0.061272 -0.018453
v 0.013346 0.062377 -0.019435
v 0.015027 0.062371 -0.018486
v 0.013974 0.060780 -0.016908
v 0.013818 0.061153 -0.018315
v 0.012531 0.060785 -0.017722
v 0.012706 0.061736 -0.019067
v 0.014256 0.062319 -0.019084
v 0.015040 0.061728 -0.017750
v 0.021846 0.107857 0.046352
v 0.022525 0.106050 0.046351
v 0.024187 0.106038 0.045370
v 0.024536 0.107837 0.044764
v 0.023088 0.108962 0.045371
v 0.022187 0.106954 0.046504
v 0.023500 0.107447 0.046086
v 0.023428 0.105989 0.045984
v 0.024495 0.106937 0.045142
v 0.023912 0.108487 0.045143
v 0.022485 0.108498 0.045985
v -0.014823 0.135996 0.029699
v -0.015027 0.134888 0.031267
v -0.013346 0.134882 0.032216
v -0.012103 0.135987 0.031235
v -0.013016 0.136676 0.029679
v -0.015040 0.135531 0.030531
v -0.013818 0.136106 0.031096
v -0.014256 0.134940 0.031865
v -0.012706 0.135523 0.031848
v -0.012531 0.136474 0.030504
v -0.013974 0.136479 0.029689
v -0.013848 0.134715 -0.019404
v -0.015511 0.134727 -0.018422
v -0.015277 0.135845 -0.016866
v -0.013470 0.136525 -0.016886
v -0.012587 0.135826 -0.018454
v -0.014752 0.134775 -0.019036
v -0.014299 0.135946 -0.018283
v -0.015509 0.135375 -0.017691
v -0.014427 0.136328 -0.016876
v -0.013001 0.136318 -0.017718
v -0.013201 0.135358 -0.019053
v 0.023423 0.105784 -0.033099
v 0.021742 0.105789 -0.034048
v 0.021063 0.107596 -0.034047
v 0.022324 0.108708 -0.033098
v 0.023783 0.107587 -0.032512
v 0.022653 0.105731 -0.033698
v 0.022722 0.107189 -0.033811
v 0.021401 0.106692 -0.034201
v 0.021710 0.108240 -0.033697
v 0.023152 0.108235 -0.032883
v 0.023735 0.106684 -0.032883
v 0.045484 0.089184 0.007540
v 0.045250 0.088065 0.005984
v 0.045454 0.089174 0.004417
v 0.045813 0.090977 0.005004
v 0.045832 0.090984 0.006935
v 0.045482 0.088536 0.006809
v 0.046083 0.089575 0.005971
v 0.045466 0.088531 0.005152
v 0.045765 0.090075 0.004633
v 0.045966 0.091034 0.005968
v 0.045791 0.090083 0.007313
v 0.027998 0.135698 0.007560
v 0.029445 0.134574 0.006953
v 0.029426 0.134568 0.005022
v 0.027967 0.135688 0.004436
v 0.027084 0.136387 0.006005
v 0.028821 0.135224 0.007332
v 0.028706 0.135800 0.005991
v 0.029578 0.134625 0.005986
v 0.028795 0.135216 0.004652
v 0.027553 0.136180 0.005173
v 0.027569 0.136185 0.006829
vn 0.0783 -0.9864 0.1446
vn -0.1694 -0.9855 0.0048
vn 0.0755 -0.9873 -0.1397
vn -0.8426 -0.4685 -0.2656
vn -0.9426 -0.2024 -0.2655
vn -0.8126 -0.3053 -0.4965
vn -0.4211 -0.7863 0.4521
vn -0.1735 -0.7871 0.5919
vn -0.3867 -0.6215 0.6813
vn -0.4298 -0.7892 -0.4387
vn -0.3998 -0.6259 -0.6696
vn -0.1849 -0.7909 -0.5833
vn -0.0269 -0.3046 0.9521
vn 0.1862 -0.4702 0.8627
vn 0.2392 -0.2046 0.9492
vn 0.6603 -0.4737 0.5828
vn 0.8434 -0.3109 0.4383
vn 0.7133 -0.2080 0.6693
vn 0.5936 -0.7926 0.1390
vn 0.5909 -0.7936 -0.1454
vn 0.7767 -0.6299 -0.0055
vn -0.2207 0.2107 0.9523
vn 0.0455 0.3108 0.9494
vn -0.1694 0.4758 0.8631
vn -0.7767 0.6299 0.0055
vn -0.5909 0.7936 0.1454
vn -0.5936 0.7926 -0.1390
vn -0.2392 0.2046 -0.9492
vn -0.1862 0.4702 -0.8627
vn 0.0269 0.3046 -0.9521
vn -0.8347 0.3138 0.4526
vn -0.7002 0.2124 0.6817
vn -0.6489 0.4775 0.5924
vn -0.7133 0.2080 -0.6693
vn -0.8434 0.3109 -0.4383
vn -0.6603 0.4737 -0.5828
vn 0.1694 -0.4758 -0.8631
vn -0.0455 -0.3108 -0.9494
vn 0.2207 -0.2107 -0.9523
vn 0.6489 -0.4775 -0.5924
vn 0.7002 -0.2124 -0.6817
vn 0.8347 -0.3138 -0.4526
vn 0.8126 0.3053 0.4965
vn 0.9426 0.2024 0.2655
vn 0.8426 0.4685 0.2656
vn 0.1849 0.7909 0.5833
vn 0.3998 0.6259 0.6696
vn 0.4298 0.7892 0.4387
vn -0.0783 0.9864 -0.1446
vn -0.0755 0.9873 0.1397
vn 0.1694 0.9855 -0.0048
vn 0.3867 0.6215 -0.6813
vn 0.1735 0.7871 -0.5919
vn 0.4211 0.7863 -0.4521
vn 0.9373 0.2006 -0.2851
vn 0.8028 0.3020 -0.5142
vn 0.8372 0.4668 -0.2850
vn -0.8372 -0.4668 0.2850
vn -0.8741 -0.4857 0.0101
vn -0.6112 -0.7914 0.0085
vn -0.6544 -0.6513 0.3841
vn -0.6618 -0.6537 -0.3671
vn -0.3109 -0.9231 -0.2261
vn -0.3064 -0.9216 0.2381
vn 0.3495 -0.9254 0.1466
vn 0.3045 -0.7945 0.5254
vn -0.0503 -0.9225 0.3827
vn 0.6528 -0.6582 0.3750
vn 0.4405 -0.4901 0.7521
vn 0.0060 -0.6535 0.7569
vn -0.8028 -0.3020 0.5142
vn -0.6188 -0.4809 0.6211
vn -0.4838 -0.1822 0.8560
vn -0.7822 -0.0463 0.6213
vn -0.2145 -0.4823 0.8494
vn -0.1280 -0.0485 0.9906
vn -0.4788 0.2209 0.8497
vn -0.9776 -0.2104 0.0102
vn -0.9812 0.1928 0.0089
vn -0.9286 0.0561 -0.3668
vn -0.9373 -0.2006 0.2851
vn -0.9213 0.0586 0.3844
vn -0.8376 0.4914 0.2387
vn -0.8421 0.4899 -0.2255
vn -0.6308 -0.4849 -0.6058
vn -0.5004 -0.1877 -0.8452
vn -0.2310 -0.4878 -0.8419
vn -0.7941 -0.0503 -0.6057
vn -0.4953 0.2154 -0.8416
vn -0.1472 -0.0549 -0.9876
vn 0.3466 -0.9263 -0.1474
vn 0.2942 -0.7979 -0.5260
vn 0.6455 -0.6606 -0.3833
vn -0.0577 -0.9250 -0.3756
vn -0.0087 -0.6584 -0.7526
vn 0.4258 -0.4950 -0.7574
vn 0.1472 0.0549 0.9876
vn 0.5004 0.1877 0.8452
vn 0.2310 0.4878 0.8419
vn 0.4953 -0.2154 0.8416
vn 0.7941 0.0503 0.6057
vn 0.6308 0.4849 0.6058
vn -0.6455 0.6606 0.3833
vn -0.2942 0.7979 0.5260
vn -0.3466 0.9263 0.1474
vn -0.4258 0.4950 0.7574
vn 0.0087 0.6584 0.7526
vn 0.0577 0.9250 0.3756
vn -0.4405 0.4901 -0.7521
vn -0.3045 0.7945 -0.5254
vn -0.0060 0.6535 -0.7569
vn -0.6528 0.6582 -0.3750
vn -0.3495 0.9254 -0.1466
vn 0.0503 0.9225 -0.3827
vn 0.4788 -0.2209 -0.8497
vn 0.4838 0.1822 -0.8560
vn 0.7822 0.0463 -0.6213
vn 0.1280 0.0485 -0.9906
vn 0.2145 0.4823 -0.8494
vn 0.6188 0.4809 -0.6211
vn 0.8421 -0.4899 0.2255
vn 0.9812 -0.1928 -0.0089
vn 0.9286 -0.0561 0.3668
vn 0.8376 -0.4914 -0.2387
vn 0.9213 -0.0586 -0.3844
vn 0.9776 0.2104 -0.0102
vn 0.6618 0.6537 0.3671
vn 0.6112 0.7914 -0.0085
vn 0.3109 0.9231 0.2261
vn 0.8741 0.4857 -0.0101
vn 0.6544 0.6513 -0.3841
vn 0.3064 0.9216 -0.2381
vt 0.357889 0.927700
vt 0.169831 0.927733
vt 0.263702 0.764622
vt 0.578123 0.837009
vt 0.672234 0.674037
vt 0.766314 0.837026
vt 0.906980 0.866263
vt 0.743872 0.772387
vt 0.906954 0.678206
vt 0.897716 0.168307
vt 0.803639 0.005318
vt 0.991830 0.005339
vt 0.383571 0.453106
vt 0.477977 0.616058
vt 0.289781 0.616107
vt 0.556764 0.005306
vt 0.744958 0.005352
vt 0.650556 0.168309
vt 0.806565 0.573447
vt 0.969522 0.479053
vt 0.969561 0.667247
vt 0.005307 0.354009
vt 0.168307 0.447801
vt 0.005354 0.542205
vt 0.447265 0.168208
vt 0.353265 0.005327
vt 0.541588 0.005357
vt 0.792714 0.538721
vt 0.792682 0.726782
vt 0.629604 0.632594
vt 0.101996 0.692185
vt 0.196188 0.855263
vt 0.008127 0.855297
vt 0.490832 0.585842
vt 0.653914 0.680027
vt 0.490805 0.773902
vt 0.225703 0.373419
vt 0.320106 0.536373
vt 0.131912 0.536422
vt 0.196235 0.676024
vt 0.008175 0.675992
vt 0.102364 0.512913
vt 0.828338 0.263322
vt 0.665386 0.168914
vt 0.828391 0.075129
vt 0.793372 0.817101
vt 0.887159 0.980102
vt 0.698966 0.980054
vt 0.530172 0.782728
vt 0.624361 0.945804
vt 0.436303 0.945839
vt 0.372007 0.678218
vt 0.208899 0.772090
vt 0.208927 0.584032
vt 0.496967 0.813482
vt 0.308774 0.813465
vt 0.402883 0.650494
vt 0.930275 0.485928
vt 0.934256 0.486008
vt 0.933792 0.492014
vt 0.928361 0.489402
vt 0.578043 0.840992
vt 0.572037 0.840527
vt 0.574650 0.835096
vt 0.901126 0.170368
vt 0.897720 0.175336
vt 0.894324 0.170358
vt 0.169754 0.931681
vt 0.163784 0.931230
vt 0.166369 0.925830
vt 0.910928 0.866340
vt 0.910477 0.872310
vt 0.905077 0.869725
vt 0.361362 0.925786
vt 0.363974 0.931216
vt 0.357968 0.931681
vt 0.804510 0.576858
vt 0.799536 0.573461
vt 0.804508 0.570056
vt 0.553302 0.007208
vt 0.550717 0.001808
vt 0.556686 0.001357
vt 0.481477 0.614124
vt 0.484104 0.619589
vt 0.478059 0.620055
vt 0.741808 0.775811
vt 0.736800 0.772392
vt 0.741802 0.768966
vt 0.767196 0.391739
vt 0.765126 0.395161
vt 0.760124 0.391734
vt 0.765132 0.388316
vt 0.905041 0.674732
vt 0.910472 0.672120
vt 0.910936 0.678126
vt 0.380159 0.451052
vt 0.383556 0.446077
vt 0.386961 0.451048
vt 0.001357 0.353932
vt 0.001809 0.347962
vt 0.007209 0.350548
vt 0.199661 0.853350
vt 0.202273 0.858780
vt 0.196267 0.859245
vt 0.668824 0.671977
vt 0.672230 0.667008
vt 0.675627 0.671986
vt 0.930308 0.297869
vt 0.928405 0.294406
vt 0.933805 0.291822
vt 0.934256 0.297792
vt 0.098573 0.690121
vt 0.101991 0.685113
vt 0.105418 0.690114
vt 0.450644 0.170256
vt 0.447260 0.175195
vt 0.443884 0.170250
vt 0.655984 0.676605
vt 0.660986 0.680032
vt 0.655978 0.683451
vt 0.800150 0.007241
vt 0.797550 0.001806
vt 0.803559 0.001354
vt 0.769803 0.835103
vt 0.772403 0.840538
vt 0.766394 0.840990
vt 0.486850 0.585763
vt 0.487315 0.579756
vt 0.492745 0.582368
vt 0.790811 0.535259
vt 0.796211 0.532674
vt 0.796662 0.538644
vt 0.323606 0.534440
vt 0.326233 0.539904
vt 0.320188 0.540370
vt 0.967589 0.475552
vt 0.973053 0.472925
vt 0.973519 0.478971
vt 0.260278 0.762558
vt 0.263696 0.757550
vt 0.267123 0.762552
vt 0.991909 0.001356
vt 0.997916 0.001821
vt 0.995303 0.007252
vt 0.222291 0.371365
vt 0.225688 0.366390
vt 0.229093 0.371362
vt 0.199698 0.674122
vt 0.202283 0.679522
vt 0.196313 0.679973
vt 0.170361 0.444389
vt 0.175336 0.447786
vt 0.170364 0.451191
vt 0.289704 0.620057
vt 0.283734 0.619605
vt 0.286319 0.614205
vt 0.653946 0.170366
vt 0.650541 0.175338
vt 0.647144 0.170363
vt 0.832335 0.263404
vt 0.831869 0.269450
vt 0.826404 0.266822
vt 0.890621 0.978201
vt 0.893206 0.983600
vt 0.887236 0.984052
vt 0.349777 0.007250
vt 0.347177 0.001816
vt 0.353186 0.001363
vt 0.008050 0.859246
vt 0.002080 0.858795
vt 0.004665 0.853395
vt 0.007287 0.545705
vt 0.001823 0.548332
vt 0.001357 0.542287
vt 0.789982 0.815044
vt 0.793387 0.810072
vt 0.796784 0.815047
vt 0.627835 0.943891
vt 0.630447 0.949321
vt 0.624441 0.949786
vt 0.796664 0.726861
vt 0.796199 0.732867
vt 0.790769 0.730255
vt 0.492707 0.777365
vt 0.487307 0.779950
vt 0.486856 0.773980
vt 0.541670 0.001359
vt 0.547715 0.001826
vt 0.545087 0.007290
vt 0.526749 0.780664
vt 0.530167 0.775656
vt 0.533594 0.780658
vt 0.210801 0.775552
vt 0.205401 0.778137
vt 0.204950 0.772167
vt 0.008096 0.679974
vt 0.002089 0.679509
vt 0.004702 0.674079
vt 0.131834 0.540372
vt 0.125864 0.539920
vt 0.128450 0.534520
vt 0.627533 0.636016
vt 0.622532 0.632589
vt 0.627539 0.629170
vt 0.374077 0.674796
vt 0.379080 0.678223
vt 0.374072 0.681641
vt 0.308694 0.817449
vt 0.302688 0.816983
vt 0.305301 0.811553
vt 0.745041 0.001356
vt 0.751086 0.001822
vt 0.748459 0.007286
vt 0.973511 0.667325
vt 0.973058 0.673295
vt 0.967659 0.670709
vt 0.098943 0.510843
vt 0.102369 0.505841
vt 0.105788 0.510849
vt 0.500456 0.811559
vt 0.503056 0.816993
vt 0.497046 0.817446
vt 0.663328 0.172304
vt 0.658357 0.168899
vt 0.663332 0.165502
vt 0.698884 0.984051
vt 0.692838 0.983584
vt 0.695466 0.978120
vt 0.826489 0.071667
vt 0.831889 0.069082
vt 0.832341 0.075052
vt 0.399473 0.648434
vt 0.402879 0.643465
vt 0.406276 0.648443
vt 0.204945 0.583953
vt 0.205410 0.577947
vt 0.210840 0.580559
vt 0.436226 0.949788
vt 0.430256 0.949337
vt 0.432841 0.943937
s 1
usemtl Palla8
f 12/1/1 4/2/2 57/3/3
f 2/4/4 34/5/5 46/6/6
f 5/7/7 16/8/8 24/9/9
f 3/10/10 45/11/11 58/12/12
f 25/13/13 15/14/14 68/15/15
f 14/16/16 111/17/17 69/18/18
f 13/19/19 56/20/20 112/21/21
f 26/22/22 67/23/23 80/24/24
f 37/25/25 78/26/26 91/27/27
f 48/28/28 89/29/29 102/30/30
f 36/31/31 27/32/32 79/33/33
f 47/34/34 38/35/35 90/36/36
f 59/37/37 49/38/38 101/39/39
f 60/40/40 100/41/41 113/42/42
f 70/43/43 115/44/44 123/45/45
f 81/46/46 71/47/47 122/48/48
f 92/49/49 82/50/50 126/51/51
f 103/52/52 93/53/53 125/54/54
f 114/55/55 104/56/56 124/57/57
f 1/58/58 6/59/59 7/60/60 11/61/61
f 2/4/4 8/62/62 7/63/60 6/64/59
f 3/10/10 9/65/63 7/66/60 8/67/62
f 4/2/2 10/68/64 7/69/60 9/70/63
f 5/7/7 11/71/61 7/72/60 10/73/64
f 12/1/1 17/74/65 18/75/66 22/76/67
f 13/19/19 19/77/68 18/78/66 17/79/65
f 14/16/16 20/80/69 18/81/66 19/82/68
f 15/14/14 21/83/70 18/84/66 20/85/69
f 16/8/8 22/86/67 18/87/66 21/88/70
f 23/89/71 28/90/72 29/91/73 33/92/74
f 24/9/9 30/93/75 29/94/73 28/95/72
f 25/13/13 31/96/76 29/97/73 30/98/75
f 26/22/22 32/99/77 29/100/73 31/101/76
f 27/32/32 33/102/74 29/103/73 32/104/77
f 34/5/5 39/105/78 40/106/79 44/107/80
f 35/108/81 41/109/82 40/110/79 39/111/78
f 36/31/31 42/112/83 40/113/79 41/114/82
f 37/25/25 43/115/84 40/116/79 42/117/83
f 38/35/35 44/118/80 40/119/79 43/120/84
f 45/11/11 50/121/85 51/122/86 55/123/87
f 46/6/6 52/124/88 51/125/86 50/126/85
f 47/34/34 53/127/89 51/128/86 52/129/88
f 48/28/28 54/130/90 51/131/86 53/132/89
f 49/38/38 55/133/87 51/134/86 54/135/90
f 56/20/20 61/136/91 62/137/92 66/138/93
f 57/3/3 63/139/94 62/140/92 61/141/91
f 58/12/12 64/142/95 62/143/92 63/144/94
f 59/37/37 65/145/96 62/146/92 64/147/95
f 60/40/40 66/148/93 62/149/92 65/150/96
f 67/23/23 72/151/97 73/152/98 77/153/99
f 68/15/15 74/154/100 73/155/98 72/156/97
f 69/18/18 75/157/101 73/158/98 74/159/100
f 70/43/43 76/160/102 73/161/98 75/162/101
f 71/47/47 77/163/99 73/164/98 76/165/102
f 78/26/26 83/166/103 84/167/104 88/168/105
f 79/33/33 85/169/106 84/170/104 83/171/103
f 80/24/24 86/172/107 84/173/104 85/174/106
f 81/46/46 87/175/108 84/176/104 86/177/107
f 82/50/50 88/178/105 84/179/104 87/180/108
f 89/29/29 94/181/109 95/182/110 99/183/111
f 90/36/36 96/184/112 95/185/110 94/186/109
f 91/27/27 97/187/113 95/188/110 96/189/112
f 92/49/49 98/190/114 95/191/110 97/192/113
f 93/53/53 99/193/111 95/194/110 98/195/114
f 100/41/41 105/196/115 106/197/116 110/198/117
f 101/39/39 107/199/118 106/200/116 105/201/115
f 102/30/30 108/202/119 106/203/116 107/204/118
f 103/52/52 109/205/120 106/206/116 108/207/119
f 104/56/56 110/208/117 106/209/116 109/210/120
f 111/17/17 116/211/121 117/212/122 121/213/123
f 112/21/21 118/214/124 117/215/122 116/216/121
f 113/42/42 119/217/125 117/218/122 118/219/124
f 114/55/55 120/220/126 117/221/122 119/222/125
f 115/44/44 121/223/123 117/224/122 120/225/126
f 122/48/48 127/226/127 128/227/128 132/228/129
f 123/45/45 129/229/130 128/230/128 127/231/127
f 124/57/57 130/232/131 128/233/128 129/234/130
f 125/54/54 131/235/132 128/236/128 130/237/131
f 126/51/51 132/238/129 128/239/128 131/240/132
f 23/89/71 1/58/58 11/61/61 28/90/72
f 28/95/72 11/71/61 5/7/7 24/9/9
f 4/2/2 12/1/1 22/76/67 10/68/64
f 10/73/64 22/86/67 16/8/8 5/7/7
f 15/14/14 25/13/13 30/98/75 21/83/70
f 21/88/70 30/93/75 24/9/9 16/8/8
f 56/20/20 13/19/19 17/79/65 61/136/91
f 61/141/91 17/74/65 12/1/1 57/3/3
f 3/10/10 58/12/12 63/144/94 9/65/63
f 9/70/63 63/139/94 57/3/3 4/2/2
f 34/5/5 2/4/4 6/64/59 39/105/78
f 39/111/78 6/59/59 1/58/58 35/108/81
f 27/32/32 36/31/31 41/114/82 33/102/74
f 33/92/74 41/109/82 35/108/81 23/89/71
f 45/11/11 3/10/10 8/67/62 50/121/85
f 50/126/85 8/62/62 2/4/4 46/6/6
f 38/35/35 47/34/34 52/129/88 44/118/80
f 44/107/80 52/124/88 46/6/6 34/5/5
f 49/38/38 59/37/37 64/147/95 55/133/87
f 55/123/87 64/142/95 58/12/12 45/11/11
f 111/17/17 14/16/16 19/82/68 116/211/121
f 116/216/121 19/77/68 13/19/19 112/21/21
f 60/40/40 113/42/42 118/219/124 66/148/93
f 66/138/93 118/214/124 112/21/21 56/20/20
f 67/23/23 26/22/22 31/101/76 72/151/97
f 72/156/97 31/96/76 25/13/13 68/15/15
f 14/16/16 69/18/18 74/159/100 20/80/69
f 20/85/69 74/154/100 68/15/15 15/14/14
f 78/26/26 37/25/25 42/117/83 83/166/103
f 83/171/103 42/112/83 36/31/31 79/33/33
f 26/22/22 80/24/24 85/174/106 32/99/77
f 32/104/77 85/169/106 79/33/33 27/32/32
f 89/29/29 48/28/28 53/132/89 94/181/109
f 94/186/109 53/127/89 47/34/34 90/36/36
f 37/25/25 91/27/27 96/189/112 43/115/84
f 43/120/84 96/184/112 90/36/36 38/35/35
f 100/41/41 60/40/40 65/150/96 105/196/115
f 105/201/115 65/145/96 59/37/37 101/39/39
f 48/28/28 102/30/30 107/204/118 54/130/90
f 54/135/90 107/199/118 101/39/39 49/38/38
f 115/44/44 70/43/43 75/162/101 121/223/123
f 121/213/123 75/157/101 69/18/18 111/17/17
f 71/47/47 81/46/46 86/177/107 77/163/99
f 77/153/99 86/172/107 80/24/24 67/23/23
f 82/50/50 92/49/49 97/192/113 88/178/105
f 88/168/105 97/187/113 91/27/27 78/26/26
f 93/53/53 103/52/52 108/207/119 99/193/111
f 99/183/111 108/202/119 102/30/30 89/29/29
f 104/56/56 114/55/55 119/222/125 110/208/117
f 110/198/117 119/217/125 113/42/42 100/41/41
f 122/48/48 71/47/47 76/165/102 127/226/127
f 127/231/127 76/160/102 70/43/43 123/45/45
f 114/55/55 124/57/57 129/234/130 120/220/126
f 120/225/126 129/229/130 123/45/45 115/44/44
f 126/51/51 82/50/50 87/180/108 132/238/129
f 132/228/129 87/175/108 81/46/46 122/48/48
f 125/54/54 93/53/53 98/195/114 131/235/132
f 131/240/132 98/190/114 92/49/49 126/51/51
f 124/57/57 104/56/56 109/210/120 130/232/131
f 130/237/131 109/205/120 103/52/52 125/54/54
f 1/58/58 23/89/71 35/108/81
